<?xml version="1.0" encoding="utf-8"?>
<!-- Generator: Adobe Illustrator 18.1.0, SVG Export Plug-In . SVG Version: 6.00 Build 0)  -->
<svg version="1.1" id="Layer_1" xmlns="http://www.w3.org/2000/svg" xmlns:xlink="http://www.w3.org/1999/xlink" x="0px" y="0px"
	 viewBox="0 0 80 240" enable-background="new 0 0 80 240" xml:space="preserve">
<path opacity="0.2" d="M65.1,234.6c15.7-7.7,6-16.3-10.9-21.1C39.2,209.2,28,191.3,11,202.1c-13.8,8.7,4.9,17.9,18.3,22.6
	C48.4,231.6,52.1,240.9,65.1,234.6z"/>
<path fill="#262626" d="M16.3,216.7c2.8,1.1,5.8-0.2,9-2.6c3.2-2.4,6.2-4.1,6.1-6.9s-2.3-3.7-7.4-2S12.9,215.4,16.3,216.7z"/>
<path fill="#FFFFFF" d="M16.9,215.9c2.6,1,9.8-4.1,11.7-5.8c1.9-1.7,3.1-2.8,2.5-4.3c-0.6-1.7-2.5-2.9-8.5-0.8
	S12.8,214.3,16.9,215.9z"/>
<path fill="#CC291F" d="M29,123c0,0-3.9,6.7-4.3,16.4c-0.4,9.6,0.1,23-0.9,26c-1,3-7.1,13.5-8.7,24.8s-2.2,25.2,0.4,26.5
	s6.8-1,8.2-1.9c2.7-1.8,3.8-4.5,4.1-6.6s-1.9-3.7-0.8-11c1-7.3,5.3-17.3,8-23.7c2.7-6.5,6.2-20.1,7.4-23.6
	c1.2-3.5,3.2-24.7,3.2-24.7L29,123z"/>
<path opacity="0.2" d="M29,123c0,0-3.9,6.7-4.3,16.4c-0.4,9.6,0.1,23-0.9,26c-1,3-7.1,13.5-8.7,24.8s-2.2,25.2,0.4,26.5
	s6.8-1,8.2-1.9c2.7-1.8,3.8-4.5,4.1-6.6s-1.9-3.7-0.8-11c1-7.3,5.3-17.3,8-23.7c2.7-6.5,6.2-20.1,7.4-23.6
	c1.2-3.5,3.2-24.7,3.2-24.7L29,123z"/>
<path fill="#262626" d="M46.1,229.4c-0.2,1.6,0.5,2,3.4,2s10.8-1,13.1-1.7c2.3-0.7,3.4-2.3,3.3-4.4
	C65.9,223.4,47.2,219.3,46.1,229.4z"/>
<path fill="#FFFFFF" d="M46.6,229.6c2,1.1,7.6-0.5,9.8-0.5s5.8-0.2,7.6-1.2c1.8-1,2.7-2.8,0.9-4.3c-1.8-1.5-9.3-2.2-12.1-2.2
	S41.2,226.4,46.6,229.6z"/>
<path fill="#CC291F" d="M58.2,126.5c0,0,5.2,6.9,4.3,20.6s-5.3,30.1-5.7,43.2s2.6,31.5,2.5,32.7c-0.1,1.2,0,5.2-7.1,6.4
	s-7.3,0-7.8-0.4c-0.5-0.4,0.8-13.5,0.2-22.3s-0.4-21,0.4-28.3s-0.9-19.2-2.5-24.9c-0.9-3.1-1.9-9.4-2.3-9.9
	c-0.7-0.8-3.6-2.7-4.7-6.2c-1.7-5.3-1-10,2.6-15.7C41.8,116,58.2,126.5,58.2,126.5z"/>
<path fill="#FBD7C7" d="M30.7,71.5c0,0-0.9-6.6-3.6-13.9s-5.1-11.1-5.1-12.8c0-1.8-1.6-12.2-2.4-16.4c-0.9-4.3-0.9-5.9-0.4-7.1
	c0.5-1.2,1.9-1.7,2.2-3.5s0.3-3,0.7-3.9c0.5-0.8,0.8-0.6,0.2-1s-1.7,0.2-2,1c-0.3,0.8-0.3,2.3-0.7,2.5c-0.5,0.1-0.7-1.4-0.9-3
	s0.7-7-0.2-7.2c-1.1-0.2-1.1,2.7-1.3,4.1c-0.2,1.1-0.4,3.4-0.4,3.4s-1-2.2-1.5-4.1S14.6,5.7,13.7,6c-0.9,0.2,0,3.3,0.3,4.5
	s0.7,3.6,0.7,3.6s-1.4-2.8-2.1-4.3C12,8.3,11.6,7,10.8,7.3c-0.7,0.3,0.5,2.9,1,4.2s1,3.3,1,3.3s-1-1.3-1.6-2.6s-1-3.1-1.8-2.8
	c-0.7,0.4,0.5,2.6,1,3.8s0.8,2.7,1.4,3.8c0.6,1.1,2.1,4.2,2.2,5.2c0.1,1,0.5,7.7,0.6,12.1s-0.3,10.6,0,11.7s2.8,6.7,3.9,13.2
	c1.1,6.5,1.2,12.6,2.3,15.7C22,78.1,30.7,71.5,30.7,71.5z"/>
<path fill="#FFCC00" d="M30.2,67.2c0,0-2.8,1.4-5.4,2.1s-5.2,0.7-5.5,1.6c-0.3,0.8,3.6,14.4,5.5,19.9c1.8,5.5,7,19,6.9,22
	s-2.1,6.2-2.9,9s-1.5,4.7-1.5,4.7s6,0.5,11.6,0.9s11.3-0.3,15.4,0.1c3.7,0.4,5.7,1.8,5.7,1.8s-2.1-8-2.5-13.4
	c-0.4-5.5-0.9-17.9-0.5-18.7c0.4-0.8,3.1-2.3,3-6.1c-0.1-3.8-2.1-3.5-2.2-4.6c-0.1-1.1,0.5-2.8-0.8-4c-2-1.9-5.7-5-9-6.4
	C44.6,74.4,30.2,67.2,30.2,67.2z"/>
<path fill="#825012" d="M44.6,45.6c-5.8-0.1-11.3,0.7-13.9,10c-1,3.4-1.5,6.8-2.9,9.9c-2.7,5.8-6.8,9.2-3.1,13.6
	c4.5,5.3,15.4,7.9,18.6,4.9c3.2-3,3-7.1,5-7.7c2-0.6,4.9,1.6,6-0.5c1.1-2.1-0.4-4.7-0.5-8.6C53.6,63.2,59.2,45.8,44.6,45.6z"/>
<path fill="#FBD7C7" d="M47.1,78.4c-0.1,1.7,0.3,3.2,2.6,5.4c2.3,2.2,4.5,5.9,5.4,5.6s2.1-3.3,3.1-6.7c1-3.4,2.7-6.9,2.7-10.1
	s-0.2-3.2,0.6-6.3s1.9-6.5,2-11.1s0-8.1,0-8.1s2.1-2.4,2.9-4.4c0.7-2,0.5-2.3,0.8-2.7s2.7-2.2,1.9-3.3c-0.7-1.1-2.7,1.1-2.7,1.1
	s0.5-3.8,0.5-5.3c0-1.4,0.5-4.3-1-4c-1.5,0.3-0.4,2.9-1.4,5.7c-1,2.8-3.6,7.8-4.2,9c-0.6,1.2-0.2,3-1.5,6.9s-3.4,8.2-4.1,12
	C54,66,54.1,68.8,53.5,70C51.8,73.8,47.2,77.7,47.1,78.4z"/>
</svg>
