<?xml version="1.0" encoding="utf-8"?>
<!-- Generator: Adobe Illustrator 18.1.0, SVG Export Plug-In . SVG Version: 6.00 Build 0)  -->
<svg version="1.1" id="Layer_1" xmlns="http://www.w3.org/2000/svg" xmlns:xlink="http://www.w3.org/1999/xlink" x="0px" y="0px"
	 viewBox="0 0 80 240" enable-background="new 0 0 80 240" xml:space="preserve">
<path fill="#FBD7C7" d="M13.2,85.7c0,0,2.9,7.2,3.1,14.8s-1,14.1-1.1,17.4c-0.1,3.2-0.4,7.3,0.6,9.8c0.9,2.4,1.2,2.8,2.7,2.9
	s5.8,0.6,6.7-1.1c0.9-1.7,0.1-4.4-2.3-5.8c-2.4-1.4-2.7-1.5-2.2-3.4c0.5-2.2,1.2-4.3,1.7-6.6c0.6-2.9,1.7-12.6,0.3-17.6
	c-1.4-5-2.7-10.2-2.7-10.2H13.2z"/>
<path opacity="0.2" d="M11.4,226.1c1.8,7.1,7.2,6.5,33.6,4.9c26.4-1.6,35-3.3,32.1-10.9c-2.9-7.6-16.9-11.5-33.7-6.5
	C26.6,218.7,9.6,218.5,11.4,226.1z"/>
<path fill="#262626" d="M48.9,226c2.2,1.1,7.3,0.3,12.7,0.1s9.6-1.4,10.3-4c0.7-2.6-0.5-2.9-0.5-2.9S48.5,221,48,222.8
	C47.5,224.8,48.9,226,48.9,226z"/>
<path fill="#FFFFFF" d="M49,225c2.9,0.2,11-0.1,14.2-0.3c3.7-0.2,8.1-1.8,8.8-3.9c1.1-3.2-1.8-4.7-5.2-5.2c-3.4-0.4-9.5,0.3-11,0.3
	C48.6,216,44.7,224.6,49,225z"/>
<path fill="#262626" d="M15.5,223c0,0-0.8,5.5,4.7,5.7c5.5,0.3,6.3-5.2,6.3-5.2L15.5,223z"/>
<path fill="#CC291F" d="M33.8,122.4l-12.2,0.3c-2.1,3-6.2,8.3-5.7,22.7c0.5,14.3,3.4,29.6,1.8,36.5c-1.6,6.9-0.7,25.3-1.7,30.9
	c-0.9,5.5-1.8,9.9-1.8,9.9s0.9,4.5,5.5,5.1c4.5,0.6,7.4-2.4,7.4-2.4s0.7-9.3,1-16.4c0.3-7,2.1-21.8,3-29.4
	c0.8-7.4,2.6-32.7,4.4-33.8c-0.7-1.4-1.3-3.9-1.8-6.1C33.2,137.7,33.2,129,33.8,122.4z"/>
<path opacity="0.2" d="M33.8,122.4l-12.2,0.3c-2.1,3-6.2,8.3-5.7,22.7c0.5,14.3,3.4,29.6,1.8,36.5c-1.6,6.9-0.7,25.3-1.7,30.9
	c-0.9,5.5-1.8,9.9-1.8,9.9s0.9,4.5,5.5,5.1c4.5,0.6,7.4-2.4,7.4-2.4s0.7-9.3,1-16.4c0.3-7,2.1-21.8,3-29.4
	c0.8-7.4,2.6-32.7,4.4-33.8c-0.7-1.4-1.3-3.9-1.8-6.1C33.2,137.7,33.2,129,33.8,122.4z"/>
<path fill="#CC291F" d="M40.7,158.4c1.2,4.2,1.2,11.6,2,24.4s2.3,15.2,2.8,24c0.5,8.8,0.9,16.5,1.3,17.1s3,2.8,9,1.1
	s6.8-5.5,6.6-7.9c-0.2-2.4-2.4-2.4-4.2-10.3c-1.8-7.9-1.1-23.5-2.1-30.2c-1-6.4,1.3-20,1-29.7c-0.2-8.5-1.6-11.2-2.4-16.1
	c-0.9-5.3-4.4-8.8-4.4-8.8l-16.6,0.4c-0.7,6.5-1.5,12.9-1,17.5c0.3,2.9,2.6,6,2.6,6C37.3,146.1,39.7,154.9,40.7,158.4z"/>
<path fill="#FFCC00" d="M34,75.9c-8.6-0.1-14.6-1.2-17.9,0.9s-3.8,4.1-3.9,6.2c-0.1,1.8-0.4,2.8,1.5,3.2s2.9,0.4,2.9,0.4
	s0.9,3.1,2.9,7s5.2,12.2,4.9,17.4s-5.5,14.3-5.5,14.3s-2.6,4.7,14.3,5.4c16.9,0.7,21.2-2.1,21.2-2.1s-3.9-11.6-4.7-17.1
	c-0.8-5.5,1.7-14.3,1.8-17.1c0.1-2.7-0.6-3.8-0.6-3.8s4.9-1,5.2-1.9S57.1,76.1,34,75.9z"/>
<path fill="#825012" d="M38.3,43.3c-6.7-0.1-12.8,2.6-14,12.4c-1.3,11-6.8,15.5-5.1,19.4c1.7,4,8.2,8.7,20.8,6S52,73.7,52,73.7
	s-3.5-2-2.8-5.6C50,64.1,55.9,43.7,38.3,43.3z"/>
<path fill="#FBD7C7" d="M47.2,90.9c0,0-0.7,6.4-0.5,11.4c0.3,5.1,1.7,11.1,2.9,15.2c1.1,4.1,3.2,8,3.6,8.5c0.4,0.5,0.6,3.3,1.1,4.1
	c0.4,0.8,0.1,0.6,0.2,1.5c0.1,0.9,2.5,1.1,3.2,0.8c0.6-0.4,2.2-5.9,1.9-6.8c-0.4-0.9-2.8-1.6-3.1-2.8c-0.4-1.8-0.6-5-1.1-6.6
	c-0.3-1.1-1.7-5.1-1.7-9.6c0.1-4.4,1.1-9.8,1.4-13.5c0.1-2.1,0.2-4,0.2-4s-0.9,0.6-3.6,1.2C49.4,90.8,47.2,90.9,47.2,90.9z"/>
</svg>
