<?xml version="1.0" encoding="utf-8"?>
<!-- Generator: Adobe Illustrator 18.1.0, SVG Export Plug-In . SVG Version: 6.00 Build 0)  -->
<svg version="1.1" id="Layer_1" xmlns="http://www.w3.org/2000/svg" xmlns:xlink="http://www.w3.org/1999/xlink" x="0px" y="0px"
	 viewBox="0 0 160 240" enable-background="new 0 0 160 240" xml:space="preserve">
<path fill="#262626" d="M104.1,132.1c1.6,2,8.4,11.9,9.8,13.9c2.2,3.1,2.8,6.3,0.5,9c-2.2,2.7-5.4,2.9-8.1,1.3
	c-2.7-1.6-7.5-9.7-7.5-9.7L104.1,132.1z"/>
<path fill="#FFFFFF" d="M104.6,136.6c2.1,2.6,6.9,10.1,8.5,12.6c1.3,2,1.7,5.2-1.7,6.9c-3.4,1.7-6.7-1-8.2-3.3
	c-1.6-2.2-6.5-9.8-6.5-9.8L104.6,136.6z"/>
<path opacity="0.2" d="M111,196.3c12.6,6.9,18.6,17,7.9,25.4s-28.3,10.2-42.4,2.4s-5.8-16.2,3.7-22.3S99.5,190,111,196.3z"/>
<path fill="#06547A" d="M40.1,124.3c-0.5,5.2-2,11.3,0.5,20.7c2.5,9.4,4.8,21,7.7,23.7c2.6,2.5,7.6,3.3,13,0.9
	c5.4-2.4,13.7-6.7,17.7-7.1s18.6-4.8,18.6-4.8s-3.8-16.2-6.9-16.1c-3.1,0.1-28,7.7-28,7.7l-4.1-22L40.1,124.3z"/>
<path opacity="0.2" d="M40.1,124.3c-0.5,5.2-2,11.3,0.5,20.7c2.5,9.4,4.8,21,7.7,23.7c2.6,2.5,7.6,3.3,13,0.9
	c5.4-2.4,13.7-6.7,17.7-7.1s18.6-4.8,18.6-4.8s-3.8-16.2-6.9-16.1c-3.1,0.1-28,7.7-28,7.7l-4.1-22L40.1,124.3z"/>
<path fill="#06547A" d="M50.5,131c0,0,3.1,15.1,5.1,17.4s7.1,2.6,7.6,4.3c0.5,1.7,12.9,22.7,16.2,25.1c4.2,3.1,12.4,3,14.8-1.4
	c2.2-4.2,2.9-14.3,5.6-19.8s5.6-7.6,7.2-9.6c2.6-3.3,1-17.5-6.2-18.7c-7.2-1.2-8.2,5.2-9.9,8.2s-4.7,8.9-4.7,8.9s-5.5-13.1-7.5-17.9
	s-4.7-8.9-4.7-8.9L50.5,131z"/>
<path fill="#FBD7C7" d="M41.2,25.6c0.8,0,6.4,0.8,8.5-0.7c1.2-0.8,1.5-2.9,1.5-3.9c0.1-1-0.5-4.3-2.4-4.9c-1.8-0.6-6-0.2-8,1.2
	c-1.6,1.1-2,2-3.3,3.4c-1.3,1.3-2.5,2.4-3.3,4.2c-1.3,2.6-3.2,10.4-5.7,14.1c-2.6,3.9-0.6,6.7,1.6,9.4s11.2,11.1,11.6,12.2
	c0.4,1.1,16.2-1.6,14.5-4.8c-1.6-3.2-6-4.6-8.1-5.2s-2.9-1-4-2.5c-0.7-0.9-1.8-2.5-3.7-3.8c-2.1-1.3-2.9-2-2.9-2s2.7-4.5,3-8.8
	C40.9,29.2,41.2,25.6,41.2,25.6z"/>
<path fill="#E5E5E5" d="M60.2,58.7c0,0-2.6-3.3-5.3-5s-5-2.5-5-2.5s-2,1.5-4.2,3.9c-2.2,2.4-4.3,5.4-4.3,5.4s-3.4,6.5-2.9,15.7
	s3.6,23,2.9,28.3c-0.7,5.3-1.8,18.4-1.8,20.6c-0.1,2.2,5.8,8.3,15.3,8.1c9.4-0.2,22.1-4.4,22.3-9.2s-2.5-4.8-2.7-9.4
	c-0.3-4.6,1-20.4,7.9-29.3c5-6.5,4.3-7.2,8.1-9.4c3.7-2.2-0.1-13.4-3.8-13.7s-11.6-0.5-15.3,0C67.8,62.7,60.2,58.7,60.2,58.7z"/>
<path fill="#FBD7C7" d="M99,60.7c0,0-1.2-3.2-1.9-9.2c-0.7-5.9-0.5-8.2-2.1-9.7c-1.6-1.5-4.3-1.4-4.8-2.6c-0.5-1.2-2.2-1.7-2.9-3.1
	c-0.8-1.5-0.7-3.4,0.7-4.3c1.4-0.9,4.5-2.3,5.8-1.6c1.3,0.6,1.8,1.3,2.6,2.1c1,1.1,1.8,3,3.4,5.7c1.6,2.7,7.8,16.7,9.4,20.2
	c1.6,3.5,2.8,7.3,0,10.4c-2.8,3.1-7.3,2-11,3.3c-3.7,1.4-7.2,4.2-8.8,4.2c-1.6,0-6.5-1.7-6.9-8.1s4.6-5.6,5.6-5.5s1.4,0.2,3.8-0.9
	S99,60.7,99,60.7z"/>
<path fill="#FBD7C7" d="M71.1,59.4c0.5-0.8,3.8-3.9,5.3-4.3c1.5-0.3,3-0.5,4.4-1.9c1.7-1.7,0.7-2.9,0.7-2.9s3.3-3.5,2.2-9.2
	c-1.1-5.9-10.2-11.6-17.4-6.3c-2.8,2.1-9.5,12.7-9,15.1c0.5,2.3,1.6,2.8,0.9,4.1c-0.7,1.3-1.4,5-2,5.4c-0.5,0.3-7,6.2,1,9.8
	c8.6,3.8,12.2-2.7,13.8-4.2c2.1-2,3.1-2.7,3.1-2.7S69.5,62.1,71.1,59.4z"/>
<path fill="#825012" d="M83.7,41.1c-0.8-4.2-5.7-8.4-11.1-8.4c0.4,0.6,1.1,1.4,1.8,2.1c2.7,2.3,4.2,1.1,5.2,4.2
	c1,3.1-3.5,10.2-3.5,10.2l1.2,0.8c0,0,2.9-1.5,4.2,0.3c0,0,0,0,0,0C81.9,49.8,84.7,46.4,83.7,41.1z"/>
</svg>
