<?xml version="1.0" encoding="utf-8"?>
<!-- Generator: Adobe Illustrator 18.1.0, SVG Export Plug-In . SVG Version: 6.00 Build 0)  -->
<svg version="1.1" id="Layer_1" xmlns="http://www.w3.org/2000/svg" xmlns:xlink="http://www.w3.org/1999/xlink" x="0px" y="0px"
	 viewBox="0 0 160 240" enable-background="new 0 0 160 240" xml:space="preserve">
<path opacity="0.2" d="M71.9,227.5c22.1-12.8,12.3-22,3.1-28.5s-24.6-8.5-40.6,2.9c-7.3,5.2-4.4,14.3,6.3,21.2
	C46.5,226.8,60.1,234.3,71.9,227.5z"/>
<path fill="#FFFFFF" d="M64.8,207c0,0,1.4-7.7,3-11.5s2.7-5.4,2.7-5.4l-4.8-13.4l-3.7,0.4L64.8,207z"/>
<path fill="#06547A" d="M80.7,101c-2.9,6-8.4,15.8-10.1,21.6c-1.7,5.8-5.6,14.3-5.6,14.3s-3.3,0.5-7.1,3.4s-7.4,6.8-8.4,8.1
	c-2.4,3.2-6.3,13.6,0.9,17.5s11.1-4.5,15.5-7.8c3.3-2.5,10.4-5.6,13.1-9.8c2.7-4.2,4.3-8.2,6.9-10.7c2.6-2.5,5.2-10.5,7.5-11.1
	c2.2-0.7,1.7-22,1.7-22L80.7,101z"/>
<path opacity="0.2" d="M80.7,101c-2.9,6-8.4,15.8-10.1,21.6c-1.7,5.8-5.6,14.3-5.6,14.3s-3.3,0.5-7.1,3.4s-7.4,6.8-8.4,8.1
	c-2.4,3.2-6.3,13.6,0.9,17.5s11.1-4.5,15.5-7.8c3.3-2.5,10.4-5.6,13.1-9.8c2.7-4.2,4.3-8.2,6.9-10.7c2.6-2.5,5.2-10.5,7.5-11.1
	c2.2-0.7,1.7-22,1.7-22L80.7,101z"/>
<path fill="#06547A" d="M91.9,107.4c-1.7,6.5-0.5,15.4,0.8,18.3c1.3,2.9,2,5.8,1.3,12.8c-0.7,7.1-0.7,11.4-2.6,13.2
	c-2,1.8-16.6,10.7-20.9,14.4c-4.3,3.7-6.2,6.3-7.6,6.8c-1.4,0.5-4.8,3.1-5.4,4.5c-1.4,3.2,5.4,18.2,9.3,17.5
	c3.9-0.7,5.5-5.9,7.2-7.7c3.9-4.1,21.7-15.1,27.6-18.2c5.3-2.8,8.1-4.8,8.9-9.3s3.5-19.5,5.9-29.6c2.4-10.1,1.4-16.9,0.1-21.7
	C115.2,103.6,91.9,107.4,91.9,107.4z"/>
<path fill="#FBD7C7" d="M62.7,21.5c0,0,2.6-0.2,3.9-0.3c3.4-0.3,6.1-3.7,5.9-5c-0.1-1.3-2-4-2.5-5.4s-3.4-2-4.8-0.4
	c-1.4,1.6-2.1,2.5-4.1,3.8c-2,1.4-6,8.1-7.5,12s-4.4,7.3-5.2,10.9c-0.8,3.6-0.5,6,4.3,8.4c4.7,2.4,10.7,7.5,12.2,10.1
	s4.5,7.9,9.6,2.1s4.4-7,1.7-9.2c-2.7-2.2-5.6-6.2-9.6-7.9S59,37.4,59,37.4s1.6-4.1,2.4-9S62.7,21.5,62.7,21.5z"/>
<path fill="#E5E5E5" d="M83.1,49.2c0,0-7.7-4.3-11.3-2.5c-3.6,1.9-6.4,8.7-5.4,11.2s3.4,6.9,6.3,10.2c2.8,3.3,10.6,12.3,10.1,19.2
	s-2.4,12.2-3.1,14c-0.7,1.9,7.3,8,15,9.5c7.8,1.6,22.3,0.7,22.4-1.5c0.1-2.8-0.2-13.1-0.9-17.1c-0.6-3.9,1.4-11.5,2.3-17.8
	c0.9-6.3,1-14.5-5-17.1c-6-2.6-7.1-1.7-11.8-1.9C98.5,55.5,83.1,49.2,83.1,49.2z"/>
<path fill="#262626" d="M51.3,150.9c2.4-3,9.3-2.7,8.5,3.8c-0.8,6.6-3.1,8-3.8,12.4c-0.7,4.4-3.7,12.5-7.9,14.2
	c-4.1,1.8-10-0.1-9.9-5.7c0.1-5.6,4.7-10.8,6.8-14.9C47.1,156.6,49.9,152.6,51.3,150.9z"/>
<path fill="#262626" d="M58.8,176.8c-2.5,1.3-2.7,4.6-2.7,7.3s0.1,9.2-1.1,14.5c-1.2,5.3,0.6,11.8,3.6,13.1s6.1-1,6.8-2.3
	c0.7-1.3,0.8-12.3,0.8-14.6c0-2.4-0.8-17.3-4.3-18.2C60.6,176.3,59.7,176.3,58.8,176.8z"/>
<path fill="#FBD7C7" d="M104.6,56c-2.7-1.6-3.5-4.1-4.1-6.5c-0.6-2.4-1.4-3.1-1.6-5.1c-0.1-2,2-6.7,0.7-9.6
	c-1.4-2.9-11.8-8.3-18.9-4.3c-7.2,4.1-8.4,10.7-7.1,15.6c1.4,4.9,8.4,7.9,8.4,7.9s1.7,3.9,9,4.7C98.4,59.6,104.6,56,104.6,56z"/>
<path fill="#825012" d="M96.3,47.7c0,0-1.4,1.3-2.9,0c-1.8-1.6,1.2-4.8,1.2-4.8l0.7-1.4c0,0-1.6-3.4-3.1-4.7c-1.5-1.3-2-0.3-4.1-1.4
	c-2-1-0.9-4.1-3.8-5.1c-1.4-0.5-3.3,0.1-3.5,0.3c-7.2,4.1-8.4,10.7-7.1,15.6s8.4,7.9,8.4,7.9s3.1,0.4,6.7-0.5
	C95.4,52,96.3,47.7,96.3,47.7z"/>
<path fill="#FBD7C7" d="M118.9,54.9c0,0-1.4-5-1.7-9.5s-0.3-8.7-1.4-10.1c-1.1-1.4-3.1-0.2-4.5-1.2s-4.5-2.4-4.4-4.1
	c0.1-1.6,1.7-1.1,1.7-1.1s-1.3-1.2-0.9-3.1c0.5-1.9,7.5-5.6,9.3-5.3c1.8,0.3,2.2,3.6,3.3,5.7c1.1,2.1,3.1,5.5,3.4,7.9
	s3.1,13.5,4.3,16.3c1.1,2.8,4.5,8.2,2.6,11.9c-1.4,2.7-3.4,3.3-7.2,3.8c-3.1,0.4-10,4.4-11.5,4.5c-1.4,0.1-6-1.4-5.8-8.3
	c0.2-5.4,2.2-6.3,3.1-5.8c1,0.5,3.4-0.3,5.6-0.9C116.6,55.2,118.9,54.9,118.9,54.9z"/>
</svg>
