<?xml version="1.0" encoding="utf-8"?>
<!-- Generator: Adobe Illustrator 18.1.0, SVG Export Plug-In . SVG Version: 6.00 Build 0)  -->
<svg version="1.1" id="Layer_1" xmlns="http://www.w3.org/2000/svg" xmlns:xlink="http://www.w3.org/1999/xlink" x="0px" y="0px"
	 viewBox="0 0 80 240" enable-background="new 0 0 80 240" xml:space="preserve">
<path opacity="0.2" d="M63.9,236.2c15.7-7.7,6-16.3-10.9-21.1c-14.9-4.2-26.2-22.2-43.2-11.3c-13.8,8.7,4.9,17.9,18.3,22.6
	C47.2,233.2,50.9,242.5,63.9,236.2z"/>
<path fill="#262626" d="M33.2,205.3c1.7,0.7-1.6,1.8-5.3,4.3s-6.9,6.6-11.9,6.3s-5.7-2.2-2.9-5.4S25.9,202.3,33.2,205.3z"/>
<path fill="#FFFFFF" d="M31.1,205.3c-2.9,1.9-5.5,3.9-8,5.8s-8,4.2-10.3,3.6s-2-4,0.7-6.4s8.6-6.1,9.9-7.3
	C24.5,199.7,36.9,201.4,31.1,205.3z"/>
<path fill="#262626" d="M62.1,222.4c-2,3.3-4,10.8-7.9,11.6s-6.9-0.4-7.4-2.1s4-9.9,7.6-12.7S64.6,218.2,62.1,222.4z"/>
<path fill="#FFFFFF" d="M60.8,222.6c-1.5,2.9-3.1,9.5-7.6,10s-5.9-0.7-6.4-2.1s0.9-5.4,3.8-8.6s3.3-5.8,7.2-5S62.5,219.4,60.8,222.6
	z"/>
<path fill="#CC291F" d="M23.7,116.8c0,0-3.4,6.2-4,15.7c-1,15.3,1.5,32.7,1.9,37.2c0.4,4.6-0.4,21.3-1.4,26.9s-1.8,7.6-1.8,7.6
	s4.3,4.6,9.4,3.9c5.1-0.7,6.5-2.1,6.5-3.3c0-1.2-0.4-11.5-0.7-17.2c-0.3-5.7,1.4-14.3,1.9-21.9c0.4-7,2.4-17.9,2.4-17.9l-1.4-32.2
	C32.4,116.1,23.7,116.8,23.7,116.8z"/>
<path opacity="0.2" d="M23.7,116.8c0,0-3.4,6.2-4,15.7c-1,15.3,1.5,32.7,1.9,37.2c0.4,4.6-0.4,21.3-1.4,26.9s-1.8,7.6-1.8,7.6
	s4.3,4.6,9.4,3.9c5.1-0.7,6.5-2.1,6.5-3.3c0-1.2-0.4-11.5-0.7-17.2c-0.3-5.7,1.4-14.3,1.9-21.9c0.4-7,2.4-17.9,2.4-17.9l-1.4-32.2
	C32.4,116.1,23.7,116.8,23.7,116.8z"/>
<path fill="#CC291F" d="M47.1,182.1c1.4,7.7,5,19.3,4.4,27.7c-0.5,8.4-0.9,11.2-0.9,11.2s2.9,1.7,6.9,2.6c4,0.9,6.5-2.2,6.5-2.2
	s1.3-15.8-0.9-29c-2.2-13.2-3.9-22.1-4.5-32c-0.7-9.9,0.8-25-2.7-34.9c-0.6-1.6-2.8-6.8-4.4-7.8c-5-3.3-13.1-4.2-19.5-3.4
	c0,0-0.3,19.9,0.4,22.4c0.7,2.4,2.7,5.4,4.6,11.2c1.6,4.7,3.4,9.9,5.1,15.7C43.6,168.6,45.7,175,47.1,182.1z"/>
<path fill="#FBD7C7" d="M33.1,64c-2.3-5.8-3.7-21.6-4-25.3c-0.3-3.7-4.8-20.4-5.9-22.9c-1.2-2.5-4-8.5-4.2-11.2s-0.2-2.7-1.4-2.9
	S16.5,5.6,17,8.4s0.5,5.4,0.5,5.4s-1.6-1.9-2.6-1.2s0.7,2.2,1.2,2.9c0.5,0.7,0.5,1.8,1.8,2.3s1.4,0.1,1.8,1.2s0.3,9.1,0.7,14.4
	s1.2,4.4,1.6,7.4s-0.1,9.6,1.4,17c1.4,7.4,2.2,10.4,2.2,10.4L33.1,64z"/>
<path fill="#FBD7C7" d="M34.1,67.3c0,0-8.1,11.9,1.5,13.1s13.6-11.3,13.7-12.1s-4.8-9-4.8-9L34.1,67.3z"/>
<path fill="#FFCC00" d="M31.6,62.2c0,0-4.2,2.5-7.2,4c-0.3,0.1,1.1,6.1,0.4,10.9c-0.6,4-3.1,6.9-2.6,10.5c0.7,5,4.1,6.6,4.2,7.7
	s-1.1,12.2-2,16.6c-1,5.1-4.4,13.3-4.4,13.3s4.7,8.6,16,9.2s21.1-6.6,20.6-8.3c-0.9-2.7-4.9-11.9-4.7-16.2s4.4-16.7,5.6-20.5
	c1.2-3.8,6-11.5,5.7-14.9c-0.2-3.6-3.8-10.6-10-9.3c-1.1,0.2-5.3,2.1-5.3,2.1s-3.7,13.4-11.5,12.2c-6.9-1.1-2.3-11.4-2.3-11.4
	L31.6,62.2z"/>
<path fill="#825012" d="M43.8,40.1c-3-1.1-7.8-0.8-11.9,4.2C28,49.1,28,55.5,29.1,59.1c2.1,6.5-3.3,7.1-3.3,7.1s2.8,5.2,8.5,2.5
	c7.1-3.4,14.7-8.1,13.7-16.3S43.8,40.1,43.8,40.1z"/>
<path fill="#FBD7C7" d="M34.1,48.6c0,0-2.8,1.6-3.1,6.9c-0.3,4.9-0.3,11.5,2.1,12.9s11.4-2.1,13.1-4.9
	C47.9,60.8,44.2,42.1,34.1,48.6z"/>
<path fill="#825012" d="M41.8,40.2c5.7-1.1,10.5,3,11.3,10.3c0.8,7.3,2.2,14.2,5.3,16.1s-5.2-4.2-6.8,5.1c-0.3,1.4-2.6,3-5.3,3.1
	c-6.1,0.2-7.7-3-7.7-3s4.8-1.7,4.4-5.7c-0.6-6.8-6.4-8.8-7.9-15.5S41.8,40.2,41.8,40.2z"/>
<path fill="#FBD7C7" d="M52.7,69.8c0,0,1.7-6.3,3.3-11s4.7-8.6,5-11.2c0.4-2.8,0.4-6.3,1.8-10.8c1.5-4.8,1-8.1,0.8-8.6
	c-0.2-0.5-0.4-0.7-1.2-1.5s-0.5-2.1-0.7-2.4c-0.2-0.4-1.2-1.6-0.8-2.2s0.8-0.5,1.5,0s0.8,1,0.9,1.6c0.1,0.5,0.3,0.8,0.3,0.8
	s0.2-1.2,0.5-2.1c0.3-0.9,0.5-2.9,0.5-4.4s-0.4-4.9,0.7-5s1,2.8,1,4.1s0.3,3.7,0.3,3.7s1.3-3.4,1.7-4.7c0.4-1.3,0.6-3.3,1.5-3
	s0.4,2.5-0.1,4.2s-0.8,3.9-0.8,3.9s1.2-2.4,1.7-3.6s1.2-3.6,1.9-3.4s-0.2,3.3-0.7,4.6s-1,2.8-1,2.8s1.7-1.6,2.1-2.1s1.4-2.2,2-1.9
	s-0.6,2.1-1.6,3.3c-1,1.2-1.4,2.8-1.8,4.5c-0.4,1.7-2.3,3.4-2.4,4.1s-1.1,3.7-0.9,8.4s0.3,10.1-0.4,11.9c-0.7,1.9-2.4,6-3.8,13.7
	c-1.4,7.6-1.2,9.1-1.7,12.3c-0.2,1.6-1.4,3.3-3.3,3.3C57,78.8,52.4,72.9,52.7,69.8z"/>
<path opacity="0.2" d="M23.2,90.5c0,0,1.3,4.3,13.6,5.2C49.1,96.5,55.1,91,55.1,91s-3.9,7.9-17.8,7.1C24.4,97.2,23.2,90.5,23.2,90.5
	z"/>
</svg>
