<?xml version="1.0" encoding="utf-8"?>
<!-- Generator: Adobe Illustrator 18.1.0, SVG Export Plug-In . SVG Version: 6.00 Build 0)  -->
<svg version="1.1" id="Layer_1" xmlns="http://www.w3.org/2000/svg" xmlns:xlink="http://www.w3.org/1999/xlink" x="0px" y="0px"
	 viewBox="0 0 160 240" enable-background="new 0 0 160 240" xml:space="preserve">
<path fill="#CC291F" d="M88.2,110.5c2.7,3.2,6.4,7.3,5.6,15.1c-0.9,7.7-1.4,20.1-1.4,20.1s3.5-1,4.6-1.2c0.7-0.1,2.2-0.8,1.9,2
	s-6.5,21.1-10,22.1c-3.5,1-10.1-7.7-10.3-9.5c-0.1-1.8-2.7-18.4-2.9-19s9.3-10.3,8.5-16.3c-0.8-6-1.1-10.7-1.1-10.7L88.2,110.5z"/>
<path opacity="0.2" d="M88.2,110.5c2.7,3.2,6.4,7.3,5.6,15.1c-0.9,7.7-1.4,20.1-1.4,20.1s3.5-1,4.6-1.2c0.7-0.1,2.2-0.8,1.9,2
	s-6.5,21.1-10,22.1c-3.5,1-10.1-7.7-10.3-9.5c-0.1-1.8-2.7-18.4-2.9-19s9.3-10.3,8.5-16.3c-0.8-6-1.1-10.7-1.1-10.7L88.2,110.5z"/>
<path opacity="0.2" d="M66.9,199.6c-12.1,6.8-6.4,10.5,2.1,17.7c7.7,6.5,25.1,23.1,38.2,18.1c6.4-2.5,3.2-14-3.7-21.4
	C94.9,204.6,82.8,190.7,66.9,199.6z"/>
<path fill="#FBD7C7" d="M88.9,62.9l8.4,4.3c0,0,3.5-9.4,6.7-14.9s4.8-8.4,5.2-10.1s-1-8.4-2.1-12.4c-1-4-3.3-10.9-3-13.2
	c0.3-2.3,0.9-6.4,1.5-7.7c0.9-2.1,2.3-3.6,1.7-4c-0.6-0.5-1.4,0.9-1.9,2c-0.4,0.8-1,2-1,2s1.2-2.7,1.5-3.3s1-1.5,0.4-1.8
	c-0.8-0.4-1.3,0.7-1.8,1.8c-0.3,0.8-0.7,1.6-0.7,1.6s0.4-1,0.7-2c0.2-0.8,0.4-1.5-0.1-1.6c-1.2-0.2-1.4,2.1-2,3.6
	c-0.3,1-0.9,3.1-0.9,3.1s-0.5-2.1-0.8-2.8c-0.3-0.8-0.2-2.4-1-2.2c-0.9,0.2-0.5,2.1-0.3,3.2c0.3,1,0.9,2.8,0.5,3.8
	c-0.4,0.9-1.8,1.8-1.8,1.8s0.1-1.8-0.8-2.6c-0.9-0.8-1.4-0.8-1.9-0.5c-0.4,0.3,0.4,1.2,0.6,2.2s0.3,2.3,0.6,2.7
	c0.3,0.4,2.2,1.3,2.7,2.7c0.5,1.3,0.9,9,1.2,13.3s1.6,8.9,1.1,9.6c-0.5,0.7-5.3,5.9-7.7,9.9S88.9,62.9,88.9,62.9z"/>
<path fill="#FFFFFF" d="M84.8,159.7c-2.8-0.6-8.6,8.1-8.5,10.7c0.1,2.6,2.2,6.9,3.1,8.2c0.9,1.3,2.8,4.2,4.5,4.3
	c1.9,0,1.9-0.2,2-0.9c0.1-0.7-2.9-10.8-2.6-12.3C83.6,168.1,86.2,160.1,84.8,159.7z"/>
<path fill="#262626" d="M84.9,159.8c0.2-0.8,1.8-0.3,2.1,1.6s-0.7,7.9-0.9,10.3c-0.2,2.4,1.3,9.4,1,10.3c-0.3,0.9-1.5,1.4-2.4,0.6
	c-1-1-0.9-5.7-1.6-8.4c-0.7-2.7-1.5-3.5-0.5-6.5C83.8,164.7,84.8,160.1,84.9,159.8z"/>
<path fill="#CC291F" d="M83.6,114.1c0,0,4.8,12,0.6,18.4c-4.2,6.4-7.6,7.3-9.1,9.9c-1.5,2.7-7.2,11.7-6.7,12.1
	c0.5,0.4,8.1,1.4,10.2,1.5c2.2,0.1,6,0.5,6.9,2.2c0.9,1.7,0.5,1.4,0.5,1.4s-3.6,1.3-5.6,4c-2,2.7-3.4,6.6-3.4,8.6s0.1,3.2-0.1,3.1
	c-0.2-0.1-5.4-6.3-7.7-7.1c-2.3-0.8-8.8-0.7-11.9-0.6c-2.3,0.1-4.1-0.8-5-3.1c-0.9-2.4,0.2-6.8,0.5-12c0.5-6.4,2.8-17.9,6.1-24.8
	c2.9-6.2,6.6-11,6.6-11L83.6,114.1z"/>
<path fill="#FFCC00" d="M75.7,72.2c4.3-2.7,12.4-11.6,12.8-11.5s3.1,1.6,5.1,2.7c2,1.1,4.8,2.5,5,2.8c0.1,0.3-1.6,9.2-3.2,13.6
	c-1.6,4.4-8.1,21.3-7.6,24.3s2.2,6.2,3.5,8.1c1.2,1.9,2.5,4.1,1.9,4.5c-0.6,0.4-4.5,0.1-10.5,1.5c-5.6,1.3-15.9,5.6-21.8,4.9
	c-0.5-0.1,0.6-5.7,1-11c0.5-5.3,1.4-15.1,0.9-16.4c-0.5-1.4-6.3-7.1-2.9-11.1S75.7,72.2,75.7,72.2z"/>
<path fill="#825012" d="M62.4,49.3c3.8-4.5,12-5.8,17.2-1.8s8.1,10.3,11.7,14s6.5,14.1-3.5,19.4c-10.1,5.3-22.1-0.8-23.4-5.4
	c1.4-0.1,2.9-1.4,2.2-4.2C65.9,68.6,56.4,56.4,62.4,49.3z"/>
<path fill="#FBD7C7" d="M68.9,93.9c0.8-0.5,3.2-5.3,1.1-9.2c-2.1-3.9-6.7-0.3-10.2,1c-3.3,1.1-5.4,2.9-6.2,2.9
	c-0.8,0-4.4-2.5-8.3-3.7s-6.3-2-7.8-4.1c-1.4-2.1-2.2-4.9-2.9-5c-0.7-0.1-1.1,0.6-1.1,0.6s-0.3-1.3-0.4-2.6
	c-0.1-1.3,0.1-2.7-0.9-2.7c-1,0-0.6,2.6-0.5,3.9c0.1,0.7,0.2,2.4,0.2,2.4s-1.3-2.2-1.9-1.4c-0.6,0.8,0.3,2.3,0.7,2.9
	s0.6,1.5,0.3,1.7c-0.3,0.2-2.2-0.4-2.6,0.5s1.9,1.3,1.9,1.4c0,0.1-1.6,0.7-2,1c-0.3,0.4-0.4,1.2,0,1.4c0.4,0.1,1.7-1.2,3.4-0.7
	s7,2.3,10.8,5.5s9.2,7.4,10.8,7.2c1.6-0.1,6-2.4,9.3-2.7C65.8,94.1,68.9,93.9,68.9,93.9z"/>
<path fill="#FFFFFF" d="M95,146.2c-1.4,1.3-6.4,10.1-5.9,12.1s2.5,2,3.7,3.3c1.2,1.2,5.3,5.9,6.6,6s2.8-0.6,2.9-0.9
	s-2.4-21.6-4.2-21.6C96.2,145.1,96,145.2,95,146.2z"/>
<path fill="#262626" d="M96.5,146.1c0.6-1,2.3-2.3,3.7,1.2c1.4,3.5-0.6,5.2,1.3,12.2c0.5,1.7,2.9,6,2,6.9c-0.9,0.9-1.6,0.9-2.3,0.4
	c-0.7-0.5-4.9-6.9-5.2-9.6C95.8,154.4,95.6,147.6,96.5,146.1z"/>
</svg>
