<?xml version="1.0" encoding="utf-8"?>
<!-- Generator: Adobe Illustrator 18.1.0, SVG Export Plug-In . SVG Version: 6.00 Build 0)  -->
<svg version="1.1" id="Layer_1" xmlns="http://www.w3.org/2000/svg" xmlns:xlink="http://www.w3.org/1999/xlink" x="0px" y="0px"
	 viewBox="0 0 80 240" enable-background="new 0 0 80 240" xml:space="preserve">
<g>
	<path opacity="0.2" d="M38.9,234.9c5.7,0.4,17.8-11.4,17.8-14.3s-3.6-6.2-12.4-5.9c-5.7,0.2-9.2-5.7-14.6-5.4s-9.7,5.4-10.3,8.1
		c-0.5,2.7,2.7,5.9,8.6,10.3C34,231.9,30.5,234.3,38.9,234.9z"/>
	<path fill="#FFFFFF" d="M37.2,229.7c0,0,0.5,3.6,4.8,2.6s11.6-7.2,11.9-10c0.3-2.8,0.7-5.7-3-5.8S37,218.1,37.2,229.7z"/>
	<path fill="#262626" d="M42,232.2c4.3-1,11.6-7.2,11.9-10c0.1-1.1,0.2-2.2,0.1-3.2c-0.6,2.6-3.2,5.6-7.6,9.1
		c-3.2,2.6-6.8,3-8.6,3.1C38.5,232,39.7,232.8,42,232.2z"/>
	<path fill="#CC291F" d="M25.4,125.1c0,0-4.5,9.1-3.1,16.5c1.4,7.4,8.4,22.7,7.2,27.2c-1.2,4.5-3.4,17.4-3.2,26.5
		c0.1,9.1-2.2,13.6-1.1,15.8c1.1,2.2,2.7,6.2,7.3,5.4s6.2-2.6,6.2-2.6s2.3-41.6,2.3-45.8s-2.3-40.9-2.3-40.9L25.4,125.1z"/>
	<path opacity="0.2" d="M25.4,125.1c0,0-4.5,9.1-3.1,16.5c1.4,7.4,8.4,22.7,7.2,27.2c-1.2,4.5-3.4,17.4-3.2,26.5
		c0.1,9.1-2.2,13.6-1.1,15.8c1.1,2.2,2.7,6.2,7.3,5.4s6.2-2.6,6.2-2.6s2.3-41.6,2.3-45.8s-2.3-40.9-2.3-40.9L25.4,125.1z"/>
	<path fill="#CC291F" d="M31.7,127c0,0-6.4,8.1-4.2,16.9c2.2,8.8,5.5,10.9,7.2,17.2c1.6,6.2,4.2,12.7,3.2,17.3
		c-0.9,4.6-4.9,12.3-4.2,20.9c0.7,8.6,0.5,21.5-0.3,25.3c-0.8,3.8,2.2,7.2,5.7,7.2c3.5,0,9.6-5,9.9-6.9c0.3-1.9-0.4-3.6-1.2-5.5
		c-0.8-1.9-2.2-10.5-0.1-20.1c2-9.6,4.1-18.5,4.5-24.3c0.4-5.8,3.4-12.6,2.3-23.5c-1.1-10.9-3.9-21.1-3.9-21.1L31.7,127z"/>
	<path fill="#FBD7C7" d="M15,84.6c0,0-0.1,7.3-1.6,12.4s-3.1,10.7-1.8,13.4s8.2,5.8,10.3,9.5s4.6,7.4,4.6,7.4l2.3-7.4
		c0,0-5.5-8.2-7.2-10c-1.6-1.8-2.6-3.4-2.6-3.4l2.4-5.8L17.8,85L15,84.6z"/>
	<path fill="#FFCC00" d="M28.9,78.5c0,0-6.6-2.4-10.8-0.8s-3.9,7.4-3.9,7.4l1.5,1.1c0,0,2,4.9,2,8c0,3.1,4.1,12.4,5,18.4
		c0.9,5.9,2.2,9.3,0.8,12.7c-1.4,3.4-1.9,7.7-1.9,7.7s0.7,2,7.4,4.2c8.5,2.7,23,3.6,23.5,2.4c0.5-1.1-1.1-10.4-1.7-15.3
		s-1.5-15.7-0.7-16.9s3.9-4.3,3.6-7.3c-0.3-3-1.9-5.1-4.7-7.3c-2.8-2.2-5.1-9.2-7.3-9.7C39.7,82.5,28.9,78.5,28.9,78.5z"/>
	<path fill="#825012" d="M39.5,48.5c5.3,0,11.4,0.9,11.8,13.9c0.4,13,3.2,13.6,2.4,17.8c-0.8,4.2-4.3,8.4-18.2,7.7
		s-15.3-6.6-14.6-9.7c0.7-3.1,4.6-8.8,5.4-15C27.1,57.3,29.1,48.5,39.5,48.5z"/>
	<path fill="#FBD7C7" d="M38.4,101c0,0,1.8,1.3,4.3,1.8c2.4,0.5,6.1,0.3,6.1,0.3s-3.5,9.6-5.7,13c-2.2,3.4-3.1,6.6-3.1,6.6
		s2.2,2.2,4.5,6.1c2.3,3.9,6.2,10,7.3,10.3c1.1,0.3,1.9-0.1,3.4,1.6c1.5,1.8,5.8,6.1,4.9,6.5c-0.9,0.4-3.2-1.3-3.2-1.3s1.8,3,1,3.6
		s-3-1.8-3-1.8s0.9,1.6,0.2,2.1c-0.7,0.5-0.9,0.2-0.9,0.2s-0.4,0.8-1.3,0.5c-0.9-0.3-3.9-4.3-4.8-6.1c-0.9-1.8-2.2-4.5-3.7-6.2
		c-1.6-1.8-12.4-11-12.2-14.1c0.3-3.1,2-12.7,4-17.2C38.1,102.2,38.4,101,38.4,101z"/>
</g>
</svg>
