<?xml version="1.0" encoding="utf-8"?>
<!-- Generator: Adobe Illustrator 18.1.0, SVG Export Plug-In . SVG Version: 6.00 Build 0)  -->
<svg version="1.1" id="Layer_1" xmlns="http://www.w3.org/2000/svg" xmlns:xlink="http://www.w3.org/1999/xlink" x="0px" y="0px"
	 viewBox="0 0 24 16" enable-background="new 0 0 24 16" xml:space="preserve">
<g>
	<polygon opacity="0.3" points="5,6.5 1,8.5 15,15.5 19,13.5 	"/>
	<g>
		<path fill="#E5E5E5" d="M5.8,0.7l-1-0.5c-0.1-0.1-0.3-0.1-0.4,0L0.9,2C0.3,2.2,0,2.8,0,3.4V8l1,0.5l4.7-2.9L5.8,0.7z"/>
		<path fill="#E5E5E5" d="M1,8.5V3.9c0-0.6,0.3-1.2,0.9-1.4l3.5-1.8C5.7,0.6,6,0.8,6,1.1V6L1,8.5z"/>
		<polygon opacity="0.06" points="0,8 1,8.5 1,3.9 0,3.4 		"/>
		<path opacity="0.39" d="M1,8.5V3.9c0-0.6,0.3-1.2,0.9-1.4l3.5-1.8C5.7,0.6,6,0.8,6,1.1V6L1,8.5z"/>
	</g>
	<polygon fill="#825012" points="6,2.5 1,5 1,6 15,13 15,12 20,9.5 	"/>
	<polygon opacity="0.06" points="15,12 1,5 1,6 15,13 	"/>
	<polygon opacity="0.3" points="16.2,11.4 2.2,4.4 2,4.5 16,11.5 	"/>
	<polygon opacity="0.3" points="17.2,10.9 3.2,3.9 3,4 17,11 	"/>
	<polygon opacity="0.3" points="18.2,10.4 4.2,3.4 4,3.5 18,10.5 	"/>
	<polygon opacity="0.3" points="19.2,9.9 5.2,2.9 5,3 19,10 	"/>
	<g>
		<path fill="#E5E5E5" d="M20.8,8.2l-1-0.5c-0.1-0.1-0.3-0.1-0.4,0l-3.5,1.8c-0.5,0.3-0.9,0.8-0.9,1.4v4.6l1,0.5l4.7-2.9L20.8,8.2z"
			/>
		<path fill="#E5E5E5" d="M16,16v-4.6c0-0.6,0.3-1.2,0.9-1.4l3.5-1.8C20.7,8.1,21,8.3,21,8.6v4.9L16,16z"/>
		<polygon opacity="0.06" points="15,15.5 16,16 16,11.4 15,10.9 		"/>
		<path opacity="0.39" d="M16,16v-4.6c0-0.6,0.3-1.2,0.9-1.4l3.5-1.8C20.7,8.1,21,8.3,21,8.6v4.9L16,16z"/>
	</g>
</g>
</svg>
