<?xml version="1.0" encoding="utf-8"?>
<!-- Generator: Adobe Illustrator 18.1.0, SVG Export Plug-In . SVG Version: 6.00 Build 0)  -->
<svg version="1.1" id="Layer_1" xmlns="http://www.w3.org/2000/svg" xmlns:xlink="http://www.w3.org/1999/xlink" x="0px" y="0px"
	 viewBox="0 0 56 36" enable-background="new 0 0 56 36" xml:space="preserve">
<g>
	<path fill="#539B00" d="M8,36c0,0,0.7-0.2,1.5-0.6c0.4-0.2,0.6-0.4,1.2-0.7c0.6-0.6,1.2-0.7,1.9-0.9c0.7-0.8,3.5-2,4.3-2.1
		c0.8-0.2,1.7-0.4,2.6-1.3c0.9-0.7,1.9-1.1,2.9-1.5c0.5-0.2,0.4-0.6,0.9-0.9c0.5-0.3,1-0.5,1.5-0.8c0.9,0.3,2.4-0.6,3.3-1.3
		c1,0.2,3.9-2.3,4.9-2.4c1,0.8,1.9-1.7,2.9-1.4c0.9-0.5,1.2-1.2,2.1-1.7c1-0.5,4.8-1.9,5.8-2.3c1-0.8,3.9-2.4,4.8-2.4
		c0.9-0.2,1.7-0.4,2.5-1.2c0.8-0.8,1.4-1.2,2.1-1c0.6-0.3,0.7-0.9,1.1-1.1C55.1,11.9,56,12,56,12V4l-8-4c0,0-2.1,1.3-2.9,1.7
		c-0.4,0.2-1.2,0.4-1.7,0.7c-0.6-0.6-3.2,2.7-3.9,1.9c-0.7,0.4-1.5,0.4-2.3,1.1c-0.8,0.1-1.7,0.6-2.6,1.3c-0.9,0.3-1.9,1.2-2.8,1.4
		c-0.5,0.2-2.3,1.5-2.8,1.8c-0.5,0.3-1.7,0.5-2.2,0.7c-0.9,0.2-1.9,0.8-2.9,1.4c-1,1.5-1.9,0.4-2.9,1.4c-1,0.2-1.9,2.2-2.9,1.4
		c-0.9-0.2-3.9,1.9-4.8,2.4c-1,0.5-2,1.2-3,1.6c-1,0-2-0.1-2.9,1.3c-0.9-0.4-1.7,0.6-2.5,1.2c-0.8,1.9-1.4-0.1-2.1,1
		c-0.6-1-1.1,0.6-1.6,0.8C0.5,23.8,0,24,0,24v8c0,0,0.1,0.1,0.3,0.2c0.2,0.1,0.7,0.7,1.1,0.9c0.4,0.1,0.6,0.3,1.1,0.2
		C3,33.7,3.5,34,4,34c0.5,0.2,1,0,1.5,0.7c0.5,0.2,0.9-0.1,1.3,0.1C7.5,35.2,8,36,8,36z"/>
	<path opacity="0.29" d="M8,36c0,0,0.7-0.2,1.5-0.6c0.4-0.2,0.6-0.4,1.2-0.7c0.6-0.6,1.2-0.7,1.9-0.9c0.7-0.8,3.5-2,4.3-2.1
		c0.8-0.2,1.7-0.4,2.6-1.3c0.9-0.7,1.9-1.1,2.9-1.5c0.5-0.2,0.4-0.6,0.9-0.9s1-0.5,1.5-0.8c0.9,0.3,2.4-0.6,3.3-1.3
		c1,0.2,3.9-2.3,4.9-2.4c1,0.8,1.9-1.7,2.9-1.4c0.9-0.5,1.2-1.2,2.1-1.7c1-0.5,4.8-1.9,5.8-2.3c1-0.8,3.9-2.4,4.8-2.4
		c0.9-0.2,1.7-0.4,2.5-1.2c0.8-0.8,1.4-1.2,2.1-1c0.6-0.3,0.7-0.9,1.1-1.1C55.1,11.9,56,12,56,12V4c0,0-0.5,0.7-2.5,1.8
		C53.2,5.9,52,6,51.6,6.2c-0.4,0.1-0.8,1.1-1.2,0.6c-0.4-0.3-0.9-0.2-1.3,0.7c-0.5,0.5-0.9,0.8-1.4,0.7c-0.5,0.5-2.8,1.7-3.3,2.3
		c-0.5,0.4-3.2,0.5-3.7,1.2c-0.5,0.3-1.1,0.5-1.6,0.8c-0.6,0.3-1.4,0.2-2,0.5c-0.5,0.2-0.6,0.8-1.1,1c-0.5,0.2-0.6,0.8-1.1,1.3
		c-0.5,0.4-1.3,0.2-1.8,0.1c-0.5,0.7-1,0.2-1.4,0.7c-0.5,0.1-3,2.3-3.4,1.7c-0.5-0.1-1,0.7-1.4,0.7c-0.5,0.2-2.2,2.1-2.7,2.4
		c-1.9,0.9-1.1-0.6-2.8,0.3c-0.5,0.2-1.4,1.3-1.8,1.6c-0.5,0.1-1.8,0.8-2.2,0.6c-0.4,0-2.8,1.3-3.2,1.6c-0.4-0.7-0.8,0.9-1.1,0.6
		c-0.4,0.5-1.1-1.1-1.4-0.3c-0.3,0.4-0.3,0.5-0.6,1.3c-0.3-0.2-0.7,0.8-1,1C8.5,28.2,8,28,8,28V36z"/>
	<path opacity="0.11" d="M0,24v8c0,0,0.1,0.1,0.3,0.2s0.7,0.7,1.1,0.9c0.4,0.1,0.6,0.3,1.1,0.2C3,33.7,3.5,34,4,34
		c0.5,0.2,1,0,1.5,0.7c0.5,0.2,0.9-0.1,1.3,0.1C7.5,35.2,8,36,8,36v-8c0,0-0.1-0.1-0.3-0.2C7.4,27.7,6.4,28.2,6,28
		c-0.4-0.7-0.1-1.6-0.5-1.3C5,26.4,4.5,26.4,4,26c-0.5-0.4-1-1.4-1.5-0.7C2.1,24.7,1.4,25.2,1,25c-0.4-0.2-0.4-0.7-0.7-0.8
		C0.1,24.1,0,24,0,24z"/>
	<path opacity="0.2" fill="#FFFFFF" d="M40,9.6c0,0.4,0.1,0.4,0.3-0.9c0.2,3-1.4-1.1-1-0.5c0.5,0.3,0.6,0.3,0.8-0.1
		c0.2,1.1-1.5,0.8-0.6,1.1c0.6-1.8,1.1,0.1,1.6-0.4c0.5-0.3,2.9-1.1,3.2-1.3c0.3-0.1,0.5-0.1,0.5-0.1S44.6,7.6,44.3,8
		c-0.3,0.7-2.8,2.2-3.2,2c-0.5,1-1-0.5-1.4,0.5c-0.4,0.6,1-0.7,0.5-0.8c-6.1,3.6,1.2-2.1,0.5-0.5C40.3,8.7,40,10.6,40,9.6z"/>
	<path opacity="0.2" fill="#FFFFFF" d="M10,20.6c0,0.4,0.1,0.4,0.3-0.9c0.2,3-1.4-1.1-1-0.5c0.5,0.3,0.6,0.3,0.8-0.1
		c0.2,1.1-1.5,0.8-0.6,1.1c0.6-1.8,1.1,0.1,1.6-0.4c0.5-0.3,0.9-0.1,1.2-0.3c0.3-0.1,0.5-0.1,0.5-0.1s-0.2,0.2-0.5,0.6
		c-0.3,0.7-0.8,1.2-1.2,1c-0.5,1-1-0.5-1.4,0.5c-0.4,0.6,1-0.7,0.5-0.8c-6.1,3.6,1.2-2.1,0.5-0.5C10.3,19.7,10,21.6,10,20.6z"/>
	<path opacity="0.2" fill="#FFFFFF" d="M24,16.6c0,0.4,0.1,0.4,0.3-0.9c0.2,3,0.6-2.1,1-1.5c0.5,0.3,0.6,0.3,0.8-0.1
		c0.2,1.1,0.5-0.2,1.4,0.1c0.6-1.8-0.9,1.1-0.4,0.6c0.5-0.3,0.9-0.1,1.2-0.3c0.3-0.1,0.5-0.1,0.5-0.1s-0.2,0.2-0.5,0.6
		c-0.3,0.7-0.8,1.2-1.2,1c-0.5,1,1-1.5,0.6-0.5c-0.4,0.6-1,0.3-1.5,0.2c-0.5,0.3-1.1-0.5-1.5,0.5C24.3,15.7,24,17.6,24,16.6z"/>
	<path opacity="0.2" fill="#FFFFFF" d="M17.4,21.3c0,0.4,0.1,0.4,0.3-0.9c0.2,3,0.6-2.1,1-1.5c0.5,0.3,0.6,0.3,0.8-0.1
		c0.2,1.1,0.6-1.3,1.5-1c0.6-1.8,1.2,1.1,1.7,0.6c0.5-0.3,0.9-0.1,1.2-0.3c0.3-0.1,0.5-0.1,0.5-0.1s-0.2,0.2-0.5,0.6
		c-0.3,0.7-0.8,1.2-1.2,1c-0.5,1-1.1-1.5-1.5-0.5c-0.4,0.6-1.1,1.5-1.6,1.4C19,20.8,18.5,20,18.1,21C17.7,20.5,17.4,22.4,17.4,21.3z
		"/>
	<path opacity="0.2" fill="#FFFFFF" d="M47.4,4.8c0,0.4,0.1,0.4,0.3-0.9c0.2,3,0.6-2.1,1-1.5c0.5,0.3,2.7,0.3,2.9-0.1
		c0.2,1.1-1.5,0.8-0.6,1.1c0.6-1.8,1.2,1.1,1.7,0.6C53.3,3.7,51.7,5,52,4.7c0.3-0.1,0.5-0.1,0.5-0.1s-0.2,0.2-0.5,0.6
		c-0.3,0.7,1.2,0.2,0.8,0c-0.5,1-1.1-1.5-1.5-0.5c-0.4,0.6,1-0.7,0.5-0.8c-0.5,0.3-3.2-0.5-3.6,0.5C47.7,4,47.4,5.8,47.4,4.8z"/>
	<path opacity="0.2" fill="#FFFFFF" d="M7.3,26.9c0,0.4,0.1,0.4,0.3-0.9c0.2,3,0.8-2.2,1.3-1.6c0.5,0.3,0.6,0.3,0.8-0.1
		c0.2,1.1,0.5-0.2,1.4,0.1c0.6-1.8,2.4-1.2,2.8-1.6c0.5-0.3,2.7-0.8,3-1.1c0.3-0.1,1.5-1.2,1.5-1.2s-0.2,0.2-0.5,0.6
		c-0.3,0.7-2.8,2.2-3.2,2c-0.5,1,2.9-1.4,2.5-0.4c-0.4,0.6-3,1.3-3.5,1.2c-0.5,0.3-5.3,1.6-5.7,2.6C7.6,26.1,7.3,27.9,7.3,26.9z"/>
	<path opacity="0.2" fill="#FFFFFF" d="M27.3,12.9c0,0.4,0.1,0.4,0.3-0.9c0.2,3,6.8-5.2,7.3-4.6c0.5,0.3,0.6,0.3,0.8-0.1
		c0.2,1.1,0.5-0.2,1.4,0.1c0.6-1.8-1.6,0.8-1.2,0.4c0.5-0.3,0.7,0.2,1-0.1c0.3-0.1,1.5-1.2,1.5-1.2s-0.2,0.2-0.5,0.6
		c-0.3,0.7-0.8,1.2-1.2,1c-0.5,1,0.9-0.4,0.5,0.6c-0.4,0.6-1,0.3-1.5,0.2c-0.5,0.3-7.3,2.6-7.7,3.6C27.6,12.1,27.3,13.9,27.3,12.9z"
		/>
</g>
</svg>
