<?xml version="1.0" encoding="utf-8"?>
<!-- Generator: Adobe Illustrator 18.1.0, SVG Export Plug-In . SVG Version: 6.00 Build 0)  -->
<svg version="1.1" id="Layer_1" xmlns="http://www.w3.org/2000/svg" xmlns:xlink="http://www.w3.org/1999/xlink" x="0px" y="0px"
	 viewBox="0 0 56 36" enable-background="new 0 0 56 36" xml:space="preserve">
<g>
	<path fill="#539B00" d="M48,36c0,0-0.7-0.2-1.5-0.6c-0.4-0.2-0.6-0.4-1.2-0.7c-0.6-0.6-1.2-0.7-1.9-0.9c-0.7-0.8-3.5-2-4.3-2.1
		c-0.8-0.2-1.7-0.4-2.6-1.3c-0.9-0.7-1.9-1.1-2.9-1.5c-0.5-0.2-0.4-0.6-0.9-0.9c-0.5-0.3-1-0.5-1.5-0.8c-0.9,0.3-2.4-0.6-3.3-1.3
		c-1,0.2-3.9-2.3-4.9-2.4c-1,0.8-1.9-1.7-2.9-1.4c-0.9-0.5-1.2-1.2-2.1-1.7c-1-0.5-4.8-1.9-5.8-2.3c-1-0.8-3.9-2.4-4.8-2.4
		c-0.9-0.2-1.7-0.4-2.5-1.2c-0.8-0.8-1.4-1.2-2.1-1c-0.6-0.3-0.7-0.9-1.1-1.1C0.9,11.9,0,12,0,12l0-8l8-4c0,0,2.1,1.3,2.9,1.7
		c0.4,0.2,1.2,0.4,1.7,0.7c0.6-0.6,3.2,2.7,3.9,1.9c0.7,0.4,1.5,0.4,2.3,1.1c0.8,0.1,1.7,0.6,2.6,1.3c0.9,0.3,1.9,1.2,2.8,1.4
		c0.5,0.2,2.3,1.5,2.8,1.8c0.5,0.3,1.7,0.5,2.2,0.7c0.9,0.2,1.9,0.8,2.9,1.4c1,1.5,1.9,0.4,2.9,1.4c1,0.2,1.9,2.2,2.9,1.4
		c0.9-0.2,3.9,1.9,4.8,2.4c1,0.5,2,1.2,3,1.6c1,0,2-0.1,2.9,1.3c0.9-0.4,1.7,0.6,2.5,1.2c0.8,1.9,1.4-0.1,2.1,1
		c0.6-1,1.1,0.6,1.6,0.8C55.5,23.8,56,24,56,24v8c0,0-0.1,0.1-0.3,0.2s-0.7,0.7-1.1,0.9c-0.4,0.1-0.6,0.3-1.1,0.2
		C53,33.7,52.5,34,52,34c-0.5,0.2-1,0-1.5,0.7c-0.5,0.2-0.9-0.1-1.3,0.1C48.5,35.2,48,36,48,36z"/>
	<path opacity="0.11" d="M48,36c0,0-0.7-0.2-1.5-0.6c-0.4-0.2-0.6-0.4-1.2-0.7c-0.6-0.6-1.2-0.7-1.9-0.9c-0.7-0.8-3.5-2-4.3-2.1
		c-0.8-0.2-1.7-0.4-2.6-1.3c-0.9-0.7-1.9-1.1-2.9-1.5c-0.5-0.2-0.4-0.6-0.9-0.9s-1-0.5-1.5-0.8c-0.9,0.3-2.4-0.6-3.3-1.3
		c-1,0.2-3.9-2.3-4.9-2.4c-1,0.8-1.9-1.7-2.9-1.4c-0.9-0.5-1.2-1.2-2.1-1.7c-1-0.5-4.8-1.9-5.8-2.3c-1-0.8-3.9-2.4-4.8-2.4
		c-0.9-0.2-1.7-0.4-2.5-1.2c-0.8-0.8-1.4-1.2-2.1-1c-0.6-0.3-0.7-0.9-1.1-1.1C0.9,11.9,0,12,0,12l0-8c0,0,0.5,0.7,2.5,1.8
		C2.8,5.9,4,6,4.4,6.2c0.4,0.1,0.8,1.1,1.2,0.6C6,6.5,6.4,6.6,6.9,7.4c0.5,0.5,0.9,0.8,1.4,0.7c0.5,0.5,2.8,1.7,3.3,2.3
		c0.5,0.4,3.2,0.5,3.7,1.2c0.5,0.3,1.1,0.5,1.6,0.8c0.6,0.3,1.4,0.2,2,0.5c0.5,0.2,0.6,0.8,1.1,1c0.5,0.2,0.6,0.8,1.1,1.3
		c0.5,0.4,1.3,0.2,1.8,0.1c0.5,0.7,1,0.2,1.4,0.7c0.5,0.1,3,2.3,3.4,1.7c0.5-0.1,1,0.7,1.4,0.7c0.5,0.2,2.2,2.1,2.7,2.4
		c1.9,0.9,1.1-0.6,2.8,0.3c0.5,0.2,1.4,1.3,1.8,1.6c0.5,0.1,1.8,0.8,2.2,0.6c0.4,0,2.8,1.3,3.2,1.6c0.4-0.7,0.8,0.9,1.1,0.6
		c0.4,0.5,1.1-1.1,1.4-0.3c0.3,0.4,0.3,0.5,0.6,1.3c0.3-0.2,0.7,0.8,1,1C47.5,28.2,48,28,48,28V36z"/>
	<path opacity="0.29" d="M56,24v8c0,0-0.1,0.1-0.3,0.2s-0.7,0.7-1.1,0.9c-0.4,0.1-0.6,0.3-1.1,0.2C53,33.7,52.5,34,52,34
		c-0.5,0.2-1,0-1.5,0.7c-0.5,0.2-0.9-0.1-1.3,0.1C48.5,35.2,48,36,48,36v-8c0,0,0.1-0.1,0.3-0.2c0.2-0.1,1.3,0.4,1.7,0.2
		c0.4-0.7,0.1-1.6,0.5-1.3c0.5-0.3,1-0.3,1.5-0.7c0.5-0.4,1-1.4,1.5-0.7c0.5-0.6,1.2-0.1,1.5-0.3c0.4-0.2,0.4-0.7,0.7-0.8
		C55.9,24.1,56,24,56,24z"/>
	<path opacity="0.2" fill="#FFFFFF" d="M16,9.6c0,0.4-0.1,0.4-0.3-0.9c-0.2,3,1.4-1.1,1-0.5c-0.5,0.3-0.6,0.3-0.8-0.1
		c-0.2,1.1,1.5,0.8,0.6,1.1c-0.6-1.8-1.1,0.1-1.6-0.4c-0.5-0.3-2.9-1.1-3.2-1.3c-0.3-0.1-0.5-0.1-0.5-0.1s0.2,0.2,0.5,0.6
		c0.3,0.7,2.8,2.2,3.2,2c0.5,1,1-0.5,1.4,0.5c0.4,0.6-1-0.7-0.5-0.8c6.1,3.6-1.2-2.1-0.5-0.5C15.7,8.7,16,10.6,16,9.6z"/>
	<path opacity="0.2" fill="#FFFFFF" d="M46,20.6c0,0.4-0.1,0.4-0.3-0.9c-0.2,3,1.4-1.1,1-0.5c-0.5,0.3-0.6,0.3-0.8-0.1
		c-0.2,1.1,1.5,0.8,0.6,1.1c-0.6-1.8-1.1,0.1-1.6-0.4c-0.5-0.3-0.9-0.1-1.2-0.3c-0.3-0.1-0.5-0.1-0.5-0.1s0.2,0.2,0.5,0.6
		c0.3,0.7,0.8,1.2,1.2,1c0.5,1,1-0.5,1.4,0.5c0.4,0.6-1-0.7-0.5-0.8c6.1,3.6-1.2-2.1-0.5-0.5C45.7,19.7,46,21.6,46,20.6z"/>
	<path opacity="0.2" fill="#FFFFFF" d="M32,16.6c0,0.4-0.1,0.4-0.3-0.9c-0.2,3-0.6-2.1-1-1.5c-0.5,0.3-0.6,0.3-0.8-0.1
		c-0.2,1.1-0.5-0.2-1.4,0.1c-0.6-1.8,0.9,1.1,0.4,0.6c-0.5-0.3-0.9-0.1-1.2-0.3c-0.3-0.1-0.5-0.1-0.5-0.1s0.2,0.2,0.5,0.6
		c0.3,0.7,0.8,1.2,1.2,1c0.5,1-1-1.5-0.6-0.5c0.4,0.6,1,0.3,1.5,0.2c0.5,0.3,1.1-0.5,1.5,0.5C31.7,15.7,32,17.6,32,16.6z"/>
	<path opacity="0.2" fill="#FFFFFF" d="M38.6,21.3c0,0.4-0.1,0.4-0.3-0.9c-0.2,3-0.6-2.1-1-1.5c-0.5,0.3-0.6,0.3-0.8-0.1
		c-0.2,1.1-0.6-1.3-1.5-1c-0.6-1.8-1.2,1.1-1.7,0.6c-0.5-0.3-0.9-0.1-1.2-0.3c-0.3-0.1-0.5-0.1-0.5-0.1s0.2,0.2,0.5,0.6
		c0.3,0.7,0.8,1.2,1.2,1c0.5,1,1.1-1.5,1.5-0.5c0.4,0.6,1.1,1.5,1.6,1.4c0.5,0.3,1.1-0.5,1.5,0.5C38.3,20.5,38.6,22.4,38.6,21.3z"/>
	<path opacity="0.2" fill="#FFFFFF" d="M8.6,4.8c0,0.4-0.1,0.4-0.3-0.9c-0.2,3-0.6-2.1-1-1.5C6.7,2.7,4.5,2.7,4.3,2.3
		C4.1,3.5,5.7,3.1,4.9,3.5C4.3,1.7,3.7,4.5,3.2,4C2.7,3.7,4.3,5,4,4.7C3.7,4.7,3.5,4.6,3.5,4.6s0.2,0.2,0.5,0.6
		c0.3,0.7-1.2,0.2-0.8,0c0.5,1,1.1-1.5,1.5-0.5c0.4,0.6-1-0.7-0.5-0.8c0.5,0.3,3.2-0.5,3.6,0.5C8.3,4,8.6,5.8,8.6,4.8z"/>
	<path opacity="0.2" fill="#FFFFFF" d="M48.7,26.9c0,0.4-0.1,0.4-0.3-0.9c-0.2,3-0.8-2.2-1.3-1.6c-0.5,0.3-0.6,0.3-0.8-0.1
		c-0.2,1.1-0.5-0.2-1.4,0.1c-0.6-1.8-2.4-1.2-2.8-1.6c-0.5-0.3-2.7-0.8-3-1.1c-0.3-0.1-1.5-1.2-1.5-1.2s0.2,0.2,0.5,0.6
		c0.3,0.7,2.8,2.2,3.2,2c0.5,1-2.9-1.4-2.5-0.4c0.4,0.6,3,1.3,3.5,1.2c0.5,0.3,5.3,1.6,5.7,2.6C48.4,26.1,48.7,27.9,48.7,26.9z"/>
	<path opacity="0.2" fill="#FFFFFF" d="M28.7,12.9c0,0.4-0.1,0.4-0.3-0.9c-0.2,3-6.8-5.2-7.3-4.6c-0.5,0.3-0.6,0.3-0.8-0.1
		c-0.2,1.1-0.5-0.2-1.4,0.1c-0.6-1.8,1.6,0.8,1.2,0.4c-0.5-0.3-0.7,0.2-1-0.1c-0.3-0.1-1.5-1.2-1.5-1.2s0.2,0.2,0.5,0.6
		c0.3,0.7,0.8,1.2,1.2,1c0.5,1-0.9-0.4-0.5,0.6c0.4,0.6,1,0.3,1.5,0.2c0.5,0.3,7.3,2.6,7.7,3.6C28.4,12.1,28.7,13.9,28.7,12.9z"/>
</g>
</svg>
