<?xml version="1.0" encoding="utf-8"?>
<!-- Generator: Adobe Illustrator 18.1.0, SVG Export Plug-In . SVG Version: 6.00 Build 0)  -->
<svg version="1.1" id="Layer_1" xmlns="http://www.w3.org/2000/svg" xmlns:xlink="http://www.w3.org/1999/xlink" x="0px" y="0px"
	 viewBox="0 0 192 96" enable-background="new 0 0 192 96" xml:space="preserve">
<g>
	<polygon opacity="0.2" points="128,0 0,64 64,96 192,32 	"/>
	<g>
		<polygon fill="#999999" points="150,43 156,46 156,40 150,37 		"/>
		<polygon opacity="0.06" points="150,43 156,46 156,40 150,37 		"/>
		<polygon fill="#999999" points="158,45 156,46 156,40 158,39 		"/>
		<polygon opacity="0.39" points="158,45 156,46 156,40 158,39 		"/>
	</g>
	<polygon fill="#999999" points="86,77 90,79 90,74 86,72 	"/>
	<polygon opacity="0.06" points="86,77 90,79 90,74 86,72 	"/>
	<polygon fill="#999999" points="92,78 90,79 90,74 92,73 	"/>
	<polygon opacity="0.39" points="92,78 90,79 90,74 92,73 	"/>
	<path fill="#999999" d="M186.1,29l-0.2,0.1c-6.4,3.2-13.5,5.1-20.7,5.4l-0.2,0c-7.2,0.3-14.3,2.2-20.7,5.4l-15.3,7.7
		c-4.6,2.3-40.8,21.2-44.5,24.7l-11,10.5c-3.6,3.5-7.8,6.4-12.2,8.6L58.1,93l5.9,3l3.1-1.5c4.6-2.3,8.8-5.3,12.5-8.8l10.8-10.3
		c3.7-3.5,7.9-6.5,12.5-8.8l47.3-23.6c6.4-3.2,13.5-5.1,20.7-5.4l0.2,0c7.2-0.3,14.3-2.2,20.7-5.4L192,32L186.1,29z"/>
	<path fill="#999999" d="M186.1,29l-0.2,0.1c-6.4,3.2-13.5,5.1-20.7,5.4l-0.2,0c-7.2,0.3-14.3,2.2-20.7,5.4l-15.3,7.7
		c-4.6,2.3-40.8,21.2-44.5,24.7l-11,10.5c-3.6,3.5-7.8,6.4-12.2,8.6L58.1,93l5.9,3l3.1-1.5c4.6-2.3,8.8-5.3,12.5-8.8l10.8-10.3
		c3.7-3.5,7.9-6.5,12.5-8.8l47.3-23.6c6.4-3.2,13.5-5.1,20.7-5.4l0.2,0c7.2-0.3,14.3-2.2,20.7-5.4L192,32L186.1,29z"/>
	<path fill="#656565" d="M61.3,91.4c4.5-2.3,8.6-5.2,12.2-8.6l11-10.5c3.7-3.5,39.9-22.5,44.5-24.7l15.3-7.7c4-2,8.3-3.5,12.7-4.4
		c-4.4,0.9-8.7,2.4-12.7,4.4l0,0c6.4-3.2,13.4-5,20.6-5.4l0.3,0c2.2-0.1,4.5-0.4,6.7-0.8c0.1,0,0.2,0,0.3-0.1
		c0.6-0.1,1.3-0.3,1.9-0.4c0.2,0,0.3-0.1,0.5-0.1c0.6-0.1,1.2-0.3,1.8-0.5c0.2,0,0.3-0.1,0.5-0.1c0.6-0.2,1.2-0.4,1.9-0.6
		c0,0,0.1,0,0.1,0c1.4-0.5,2.8-1,4.2-1.6c0.9-0.4,1.8-0.8,2.7-1.2L186,29l0,0L133.9,3l0,0c-6.5,3.3-13.7,5.2-21,5.5
		c-7.2,0.3-14.3,2.2-20.8,5.4L44.9,37.5c-4.6,2.3-8.8,5.3-12.5,8.8L21.5,56.6c-3.7,3.5-7.9,6.5-12.5,8.8L5.9,67L58.1,93l0,0
		L61.3,91.4z"/>
	<path fill="#999999" d="M133.9,3L128,0l-0.2,0.1c-6.4,3.2-13.5,5.1-20.7,5.4l-0.2,0c-7.2,0.3-14.3,2.2-20.7,5.4L38.9,34.5
		c-4.6,2.3-8.8,5.3-12.5,8.8L15.6,53.7c-3.7,3.5-7.9,6.5-12.5,8.8L0,64l5.9,3L9,65.4c4.6-2.3,8.8-5.3,12.5-8.8l10.8-10.3
		c3.7-3.5,7.9-6.5,12.5-8.8l47.3-23.6c6.5-3.2,13.6-5.1,20.8-5.4l0,0C120.2,8.2,127.4,6.3,133.9,3L133.9,3z"/>
	<path fill="#999999" d="M133.9,3L128,0l-0.2,0.1c-6.4,3.2-13.5,5.1-20.7,5.4l-0.2,0c-7.2,0.3-14.3,2.2-20.7,5.4L38.9,34.5
		c-4.6,2.3-8.8,5.3-12.5,8.8L15.6,53.7c-3.7,3.5-7.9,6.5-12.5,8.8L0,64l5.9,3L9,65.4c4.6-2.3,8.8-5.3,12.5-8.8l10.8-10.3
		c3.7-3.5,7.9-6.5,12.5-8.8l47.3-23.6c6.5-3.2,13.6-5.1,20.8-5.4l0,0C120.2,8.2,127.4,6.3,133.9,3L133.9,3z"/>
	<path fill="#656565" d="M61.3,91.4c4.5-2.3,8.6-5.2,12.2-8.6l11-10.5c3.7-3.5,39.9-22.5,44.5-24.7l15.3-7.7c4-2,8.3-3.5,12.7-4.4
		c-4.4,0.9-8.7,2.4-12.7,4.4l0,0c6.4-3.2,13.4-5,20.6-5.4l0.3,0c2.2-0.1,4.5-0.4,6.7-0.8c0.1,0,0.2,0,0.3-0.1
		c0.6-0.1,1.3-0.3,1.9-0.4c0.2,0,0.3-0.1,0.5-0.1c0.6-0.1,1.2-0.3,1.8-0.5c0.2,0,0.3-0.1,0.5-0.1c0.6-0.2,1.2-0.4,1.9-0.6
		c0,0,0.1,0,0.1,0c1.4-0.5,2.8-1,4.2-1.6c0.9-0.4,1.8-0.8,2.7-1.2L186,29l0,0L133.9,3l0,0c-6.5,3.3-13.7,5.2-21,5.5
		c-7.2,0.3-14.3,2.2-20.8,5.4L44.9,37.5c-4.6,2.3-8.8,5.3-12.5,8.8L21.5,56.6c-3.7,3.5-7.9,6.5-12.5,8.8L5.9,67L58.1,93l0,0
		L61.3,91.4z"/>
	<path opacity="0.15" d="M165.3,33.5l-0.3,0c-7.2,0.3-14.2,2.2-20.6,5.4l-15.4,7.7c-4.6,2.3-40.8,21.2-44.5,24.7l-11,10.5
		c-3.6,3.5-7.8,6.4-12.2,8.6l-4.2,2.1l1,0.5l3.2-1.6c4.5-2.3,8.6-5.2,12.2-8.6l11-10.5c3.7-3.5,39.9-22.5,44.5-24.7l15.4-7.7
		c6.4-3.2,13.4-5,20.6-5.4l0.3,0c7.1-0.3,14-2.1,20.4-5.3l0.4-0.2l-1.1-0.5C178.8,31.5,172.1,33.2,165.3,33.5z"/>
	<path fill="#E5E5E5" d="M159.5,15.7c-6.4,3.2-13.2,4.9-20.4,5.3l-0.2,0c-7.3,0.3-14.3,2.2-20.9,5.4L70.8,50.1
		c-4.6,2.3-8.9,5.3-12.7,8.9L47.3,69.3c-3.7,3.5-7.9,6.5-12.4,8.7l-3.4,1.7l1.1,0.6l2.8-1.4C40,76.6,44.3,73.6,48,70l10.8-10.3
		c3.7-3.5,7.9-6.5,12.4-8.7l47.3-23.6c6.4-3.2,13.3-5,20.5-5.3l0.2,0c7.3-0.3,14.3-2.2,20.9-5.4l0.5-0.3L159.5,15.7z"/>
	<path opacity="0.15" d="M9,66.5c4.6-2.3,8.8-5.3,12.5-8.8l10.8-10.3c3.7-3.5,7.9-6.5,12.5-8.8l47.3-23.6c6.5-3.2,13.6-5.1,20.8-5.4
		c7.3-0.3,14.5-2.2,21-5.5l1.1-0.5l-1-0.5l0,0c-6.5,3.3-13.7,5.2-21,5.5c-7.2,0.3-14.3,2.2-20.8,5.4L44.9,37.5
		c-4.6,2.3-8.8,5.3-12.5,8.8L21.5,56.6c-3.7,3.5-7.9,6.5-12.5,8.8L5.9,67l1,0.5L9,66.5z"/>
</g>
</svg>
