<?xml version="1.0" encoding="utf-8"?>
<!-- Generator: Adobe Illustrator 18.1.0, SVG Export Plug-In . SVG Version: 6.00 Build 0)  -->
<svg version="1.1" id="Layer_1" xmlns="http://www.w3.org/2000/svg" xmlns:xlink="http://www.w3.org/1999/xlink" x="0px" y="0px"
	 viewBox="0 0 128 132" enable-background="new 0 0 128 132" xml:space="preserve">
<g>
	<g>
		<g>
			<polygon fill="#F8EBCB" points="125,101 64,132 64,68 125,37.5 			"/>
			<polygon fill="#F8EBCB" points="125,100 123,101 123,72.5 125,71.5 			"/>
			<polygon fill="#F8EBCB" points="122,101 123,101.4 123,72.5 122,73 			"/>
			<polygon opacity="0.1" points="122,101 123,101.4 123,72.5 122,73 			"/>
			<polygon fill="#F8EBCB" points="66,131 64,132 64,102 66,101 			"/>
			<polygon opacity="0.15" points="125,71.5 64,102 64,101 125,70.5 			"/>
			<polygon opacity="0.5" fill="#FFFFFF" points="125,70.5 64,101 64,100 125,69.5 			"/>
			<polygon opacity="0.15" points="125,39.5 64,70 64,69 125,38.5 			"/>
			<polygon opacity="0.5" fill="#FFFFFF" points="125,38.5 64,69 64,68 125,37.5 			"/>
			<polygon opacity="0.15" points="66,101 67,100.5 67,129.5 66,130 			"/>
			<polygon opacity="0.15" points="66,69 67,68.5 67,98.5 66,99 			"/>
			<polygon opacity="0.15" points="122,41 123,40.5 123,70.5 122,71 			"/>
			<g>
				<path fill="#7FADB9" d="M120,70l-5,2.5V64c0-1.4,1.1-3.1,2.5-3.8v0c1.4-0.7,2.5-0.1,2.5,1.2V70z"/>
				<path fill="#3399CC" d="M117.5,60.2c-1.4,0.7-2.5,2.4-2.5,3.8v8.5l2-1l1-0.5l2-1v-8.5C120,60.1,118.9,59.6,117.5,60.2z
					 M116,63.5c0-0.7,0.4-1.4,1-1.9v2.9l-1,0.5V63.5z M116,66l1-0.5v2l-1,0.5V66z M116,71v-2l1-0.5v2L116,71z M119,69.5l-1,0.5v-2
					l1-0.5V69.5z M119,66.5l-1,0.5v-2l1-0.5V66.5z M119,63.5l-1,0.5v-2.9c0.6-0.1,1,0.3,1,0.9V63.5z"/>
				<path opacity="0.4" d="M117.5,60.2c-0.2,0.1-0.4,0.3-0.6,0.4c1.2-0.5,2.1,0,2.1,1.2v7.4l-4,2v1l5-2.5v-8.2
					C120,60.1,118.9,59.6,117.5,60.2z"/>
				<polygon opacity="0.5" fill="#FFFFFF" points="121,70.5 114,74 114,73 121,69.5 				"/>
			</g>
			<g>
				<path fill="#7FADB9" d="M112,74l-5,2.5V68c0-1.4,1.1-3.1,2.5-3.8l0,0c1.4-0.7,2.5-0.1,2.5,1.2V74z"/>
				<path fill="#3399CC" d="M109.5,64.2c-1.4,0.7-2.5,2.4-2.5,3.8v8.5l2-1l1-0.5l2-1v-8.5C112,64.1,110.9,63.6,109.5,64.2z
					 M108,67.5c0-0.7,0.4-1.4,1-1.9v2.9l-1,0.5V67.5z M108,70l1-0.5v2l-1,0.5V70z M108,75v-2l1-0.5v2L108,75z M111,73.5l-1,0.5v-2
					l1-0.5V73.5z M111,70.5l-1,0.5v-2l1-0.5V70.5z M111,67.5l-1,0.5v-2.9c0.6-0.1,1,0.3,1,0.9V67.5z"/>
				<path opacity="0.4" d="M109.5,64.2c-0.2,0.1-0.4,0.3-0.6,0.4c1.2-0.5,2.1,0,2.1,1.2v7.4l-4,2v1l5-2.5v-8.2
					C112,64.1,110.9,63.6,109.5,64.2z"/>
				<polygon opacity="0.5" fill="#FFFFFF" points="113,74.5 106,78 106,77 113,73.5 				"/>
			</g>
			<g>
				<path fill="#7FADB9" d="M101,79.5L96,82v-8.5c0-1.4,1.1-3.1,2.5-3.8v0c1.4-0.7,2.5-0.1,2.5,1.2V79.5z"/>
				<path fill="#3399CC" d="M98.5,69.7c-1.4,0.7-2.5,2.4-2.5,3.8V82l2-1l1-0.5l2-1V71C101,69.6,99.9,69.1,98.5,69.7z M97,73
					c0-0.7,0.4-1.4,1-1.9V74l-1,0.5V73z M97,75.5l1-0.5v2l-1,0.5V75.5z M97,80.5v-2l1-0.5v2L97,80.5z M100,79l-1,0.5v-2l1-0.5V79z
					 M100,76l-1,0.5v-2l1-0.5V76z M100,73l-1,0.5v-2.9c0.6-0.1,1,0.3,1,0.9V73z"/>
				<path opacity="0.4" d="M98.5,69.7c-0.2,0.1-0.4,0.3-0.6,0.4c1.2-0.5,2.1,0,2.1,1.2v7.4l-4,2v1l5-2.5V71
					C101,69.6,99.9,69.1,98.5,69.7z"/>
				<polygon opacity="0.5" fill="#FFFFFF" points="102,80 95,83.5 95,82.5 102,79 				"/>
			</g>
			<g>
				<path fill="#7FADB9" d="M93,83.5L88,86v-8.5c0-1.4,1.1-3.1,2.5-3.8l0,0c1.4-0.7,2.5-0.1,2.5,1.2V83.5z"/>
				<path fill="#3399CC" d="M90.5,73.8c-1.4,0.7-2.5,2.4-2.5,3.8V86l2-1l1-0.5l2-1V75C93,73.6,91.9,73.1,90.5,73.8z M89,77
					c0-0.7,0.4-1.4,1-1.9V78l-1,0.5V77z M89,79.5l1-0.5v2l-1,0.5V79.5z M89,84.5v-2l1-0.5v2L89,84.5z M92,83l-1,0.5v-2l1-0.5V83z
					 M92,80l-1,0.5v-2l1-0.5V80z M92,77l-1,0.5v-2.9c0.6-0.1,1,0.3,1,0.9V77z"/>
				<path opacity="0.4" d="M90.5,73.8c-0.2,0.1-0.4,0.3-0.6,0.4c1.2-0.5,2.1,0,2.1,1.2v7.4l-4,2v1l5-2.5V75
					C93,73.6,91.9,73.1,90.5,73.8z"/>
				<polygon opacity="0.5" fill="#FFFFFF" points="94,84 87,87.5 87,86.5 94,83 				"/>
			</g>
			<g>
				<path fill="#7FADB9" d="M82,89l-5,2.5V83c0-1.4,1.1-3.1,2.5-3.8v0c1.4-0.7,2.5-0.1,2.5,1.2V89z"/>
				<path fill="#3399CC" d="M79.5,79.3C78.1,79.9,77,81.6,77,83v8.5l2-1l1-0.5l2-1v-8.5C82,79.1,80.9,78.6,79.5,79.3z M78,82.5
					c0-0.7,0.4-1.4,1-1.9v2.9L78,84V82.5z M78,85l1-0.5v2L78,87V85z M78,90v-2l1-0.5v2L78,90z M81,88.5L80,89v-2l1-0.5V88.5z
					 M81,85.5L80,86v-2l1-0.5V85.5z M81,82.5L80,83v-2.9c0.6-0.1,1,0.3,1,0.9V82.5z"/>
				<path opacity="0.4" d="M79.5,79.3c-0.2,0.1-0.4,0.3-0.6,0.4c1.2-0.5,2.1,0,2.1,1.2v7.4l-4,2v1l5-2.5v-8.2
					C82,79.1,80.9,78.6,79.5,79.3z"/>
				<polygon opacity="0.5" fill="#FFFFFF" points="83,89.5 76,93 76,92 83,88.5 				"/>
			</g>
			<g>
				<path fill="#7FADB9" d="M74,93l-5,2.5V87c0-1.4,1.1-3.1,2.5-3.8l0,0c1.4-0.7,2.5-0.1,2.5,1.2V93z"/>
				<path fill="#3399CC" d="M71.5,83.3C70.1,83.9,69,85.6,69,87v8.5l2-1l1-0.5l2-1v-8.5C74,83.1,72.9,82.6,71.5,83.3z M70,86.5
					c0-0.7,0.4-1.4,1-1.9v2.9L70,88V86.5z M70,89l1-0.5v2L70,91V89z M70,94v-2l1-0.5v2L70,94z M73,92.5L72,93v-2l1-0.5V92.5z
					 M73,89.5L72,90v-2l1-0.5V89.5z M73,86.5L72,87v-2.9c0.6-0.1,1,0.3,1,0.9V86.5z"/>
				<path opacity="0.4" d="M71.5,83.3c-0.2,0.1-0.4,0.3-0.6,0.4c1.2-0.5,2.1,0,2.1,1.2v7.4l-4,2v1l5-2.5v-8.2
					C74,83.1,72.9,82.6,71.5,83.3z"/>
				<polygon opacity="0.5" fill="#FFFFFF" points="75,93.5 68,97 68,96 75,92.5 				"/>
			</g>
			<g>
				<path fill="#7FADB9" d="M120,56l-5,2.5V50c0-1.4,1.1-3.1,2.5-3.8v0c1.4-0.7,2.5-0.1,2.5,1.2V56z"/>
				<path fill="#3399CC" d="M117.5,46.2c-1.4,0.7-2.5,2.4-2.5,3.8v8.5l2-1l1-0.5l2-1v-8.5C120,46.1,118.9,45.6,117.5,46.2z
					 M116,49.5c0-0.7,0.4-1.4,1-1.9v2.9l-1,0.5V49.5z M116,52l1-0.5v2l-1,0.5V52z M116,57v-2l1-0.5v2L116,57z M119,55.5l-1,0.5v-2
					l1-0.5V55.5z M119,52.5l-1,0.5v-2l1-0.5V52.5z M119,49.5l-1,0.5v-2.9c0.6-0.1,1,0.3,1,0.9V49.5z"/>
				<path opacity="0.4" d="M117.5,46.2c-0.2,0.1-0.4,0.3-0.6,0.4c1.2-0.5,2.1,0,2.1,1.2v7.4l-4,2v1l5-2.5v-8.2
					C120,46.1,118.9,45.6,117.5,46.2z"/>
				<polygon opacity="0.5" fill="#FFFFFF" points="121,56.5 114,60 114,59 121,55.5 				"/>
			</g>
			<g>
				<path fill="#7FADB9" d="M112,60l-5,2.5V54c0-1.4,1.1-3.1,2.5-3.8l0,0c1.4-0.7,2.5-0.1,2.5,1.2V60z"/>
				<path fill="#3399CC" d="M109.5,50.2c-1.4,0.7-2.5,2.4-2.5,3.8v8.5l2-1l1-0.5l2-1v-8.5C112,50.1,110.9,49.6,109.5,50.2z
					 M108,53.5c0-0.7,0.4-1.4,1-1.9v2.9l-1,0.5V53.5z M108,56l1-0.5v2l-1,0.5V56z M108,61v-2l1-0.5v2L108,61z M111,59.5l-1,0.5v-2
					l1-0.5V59.5z M111,56.5l-1,0.5v-2l1-0.5V56.5z M111,53.5l-1,0.5v-2.9c0.6-0.1,1,0.3,1,0.9V53.5z"/>
				<path opacity="0.4" d="M109.5,50.2c-0.2,0.1-0.4,0.3-0.6,0.4c1.2-0.5,2.1,0,2.1,1.2v7.4l-4,2v1l5-2.5v-8.2
					C112,50.1,110.9,49.6,109.5,50.2z"/>
				<polygon opacity="0.5" fill="#FFFFFF" points="113,60.5 106,64 106,63 113,59.5 				"/>
			</g>
			<g>
				<path fill="#7FADB9" d="M101,65.5L96,68v-8.5c0-1.4,1.1-3.1,2.5-3.8v0c1.4-0.7,2.5-0.1,2.5,1.2V65.5z"/>
				<path fill="#3399CC" d="M98.5,55.7c-1.4,0.7-2.5,2.4-2.5,3.8V68l2-1l1-0.5l2-1V57C101,55.6,99.9,55.1,98.5,55.7z M97,59
					c0-0.7,0.4-1.4,1-1.9V60l-1,0.5V59z M97,61.5l1-0.5v2l-1,0.5V61.5z M97,66.5v-2l1-0.5v2L97,66.5z M100,65l-1,0.5v-2l1-0.5V65z
					 M100,62l-1,0.5v-2l1-0.5V62z M100,59l-1,0.5v-2.9c0.6-0.1,1,0.3,1,0.9V59z"/>
				<path opacity="0.4" d="M98.5,55.7c-0.2,0.1-0.4,0.3-0.6,0.4c1.2-0.5,2.1,0,2.1,1.2v7.4l-4,2v1l5-2.5V57
					C101,55.6,99.9,55.1,98.5,55.7z"/>
				<polygon opacity="0.5" fill="#FFFFFF" points="102,66 95,69.5 95,68.5 102,65 				"/>
			</g>
			<g>
				<path fill="#7FADB9" d="M93,69.5L88,72v-8.5c0-1.4,1.1-3.1,2.5-3.8v0c1.4-0.7,2.5-0.1,2.5,1.2V69.5z"/>
				<path fill="#3399CC" d="M90.5,59.8c-1.4,0.7-2.5,2.4-2.5,3.8V72l2-1l1-0.5l2-1V61C93,59.6,91.9,59.1,90.5,59.8z M89,63
					c0-0.7,0.4-1.4,1-1.9V64l-1,0.5V63z M89,65.5l1-0.5v2l-1,0.5V65.5z M89,70.5v-2l1-0.5v2L89,70.5z M92,69l-1,0.5v-2l1-0.5V69z
					 M92,66l-1,0.5v-2l1-0.5V66z M92,63l-1,0.5v-2.9c0.6-0.1,1,0.3,1,0.9V63z"/>
				<path opacity="0.4" d="M90.5,59.8c-0.2,0.1-0.4,0.3-0.6,0.4c1.2-0.5,2.1,0,2.1,1.2v7.4l-4,2v1l5-2.5V61
					C93,59.6,91.9,59.1,90.5,59.8z"/>
				<polygon opacity="0.5" fill="#FFFFFF" points="94,70 87,73.5 87,72.5 94,69 				"/>
			</g>
			<g>
				<path fill="#7FADB9" d="M82,75l-5,2.5V69c0-1.4,1.1-3.1,2.5-3.8v0c1.4-0.7,2.5-0.1,2.5,1.2V75z"/>
				<path fill="#3399CC" d="M79.5,65.3C78.1,65.9,77,67.6,77,69v8.5l2-1l1-0.5l2-1v-8.5C82,65.1,80.9,64.6,79.5,65.3z M78,68.5
					c0-0.7,0.4-1.4,1-1.9v2.9L78,70V68.5z M78,71l1-0.5v2L78,73V71z M78,76v-2l1-0.5v2L78,76z M81,74.5L80,75v-2l1-0.5V74.5z
					 M81,71.5L80,72v-2l1-0.5V71.5z M81,68.5L80,69v-2.9c0.6-0.1,1,0.3,1,0.9V68.5z"/>
				<path opacity="0.4" d="M79.5,65.3c-0.2,0.1-0.4,0.3-0.6,0.4c1.2-0.5,2.1,0,2.1,1.2v7.4l-4,2v1l5-2.5v-8.2
					C82,65.1,80.9,64.6,79.5,65.3z"/>
				<polygon opacity="0.5" fill="#FFFFFF" points="83,75.5 76,79 76,78 83,74.5 				"/>
			</g>
			<g>
				<path fill="#7FADB9" d="M74,79l-5,2.5V73c0-1.4,1.1-3.1,2.5-3.8l0,0c1.4-0.7,2.5-0.1,2.5,1.2V79z"/>
				<path fill="#3399CC" d="M71.5,69.3C70.1,69.9,69,71.6,69,73v8.5l2-1l1-0.5l2-1v-8.5C74,69.1,72.9,68.6,71.5,69.3z M70,72.5
					c0-0.7,0.4-1.4,1-1.9v2.9L70,74V72.5z M70,75l1-0.5v2L70,77V75z M70,80v-2l1-0.5v2L70,80z M73,78.5L72,79v-2l1-0.5V78.5z
					 M73,75.5L72,76v-2l1-0.5V75.5z M73,72.5L72,73v-2.9c0.6-0.1,1,0.3,1,0.9V72.5z"/>
				<path opacity="0.4" d="M71.5,69.3c-0.2,0.1-0.4,0.3-0.6,0.4c1.2-0.5,2.1,0,2.1,1.2v7.4l-4,2v1l5-2.5v-8.2
					C74,69.1,72.9,68.6,71.5,69.3z"/>
				<polygon opacity="0.5" fill="#FFFFFF" points="75,79.5 68,83 68,82 75,78.5 				"/>
			</g>
			<polygon opacity="0.15" points="125,101 64,132 64,131 125,100 			"/>
			<polygon opacity="0.5" fill="#FFFFFF" points="125,100 64,131 64,130 125,99 			"/>
			<g>
				<path fill="#7FADB9" d="M120,100l-5,2.5V94c0-1.4,1.1-3.1,2.5-3.8l0,0c1.4-0.7,2.5-0.1,2.5,1.2V100z"/>
				<path fill="#3399CC" d="M117.5,90.2c-1.4,0.7-2.5,2.4-2.5,3.8v8.5l2-1l1-0.5l2-1v-8.5C120,90.1,118.9,89.6,117.5,90.2z
					 M116,93.5c0-0.7,0.4-1.4,1-1.9v2.9l-1,0.5V93.5z M116,96l1-0.5v2l-1,0.5V96z M116,101v-2l1-0.5v2L116,101z M119,99.5l-1,0.5v-2
					l1-0.5V99.5z M119,96.5l-1,0.5v-2l1-0.5V96.5z M119,93.5l-1,0.5v-2.9c0.6-0.1,1,0.3,1,0.9V93.5z"/>
				<path opacity="0.4" d="M117.5,90.2c-0.2,0.1-0.4,0.3-0.6,0.4c1.2-0.5,2.1,0,2.1,1.2v7.4l-4,2v1l5-2.5v-8.2
					C120,90.1,118.9,89.6,117.5,90.2z"/>
				<polygon opacity="0.5" fill="#FFFFFF" points="121,100.5 114,104 114,103 121,99.5 				"/>
			</g>
			<g>
				<path fill="#7FADB9" d="M112,104l-5,2.5V98c0-1.4,1.1-3.1,2.5-3.8l0,0c1.4-0.7,2.5-0.1,2.5,1.2V104z"/>
				<path fill="#3399CC" d="M109.5,94.2c-1.4,0.7-2.5,2.4-2.5,3.8v8.5l2-1l1-0.5l2-1v-8.5C112,94.1,110.9,93.6,109.5,94.2z
					 M108,97.5c0-0.7,0.4-1.4,1-1.9v2.9l-1,0.5V97.5z M108,100l1-0.5v2l-1,0.5V100z M108,105v-2l1-0.5v2L108,105z M111,103.5l-1,0.5
					v-2l1-0.5V103.5z M111,100.5l-1,0.5v-2l1-0.5V100.5z M111,97.5l-1,0.5v-2.9c0.6-0.1,1,0.3,1,0.9V97.5z"/>
				<path opacity="0.4" d="M109.5,94.2c-0.2,0.1-0.4,0.3-0.6,0.4c1.2-0.5,2.1,0,2.1,1.2v7.4l-4,2v1l5-2.5v-8.2
					C112,94.1,110.9,93.6,109.5,94.2z"/>
				<polygon opacity="0.5" fill="#FFFFFF" points="113,104.5 106,108 106,107 113,103.5 				"/>
			</g>
			<g>
				<path fill="#7FADB9" d="M101,109.5l-5,2.5v-8.5c0-1.4,1.1-3.1,2.5-3.8v0c1.4-0.7,2.5-0.1,2.5,1.2V109.5z"/>
				<path fill="#3399CC" d="M98.5,99.7c-1.4,0.7-2.5,2.4-2.5,3.8v8.5l2-1l1-0.5l2-1V101C101,99.6,99.9,99.1,98.5,99.7z M97,103
					c0-0.7,0.4-1.4,1-1.9v2.9l-1,0.5V103z M97,105.5l1-0.5v2l-1,0.5V105.5z M97,110.5v-2l1-0.5v2L97,110.5z M100,109l-1,0.5v-2
					l1-0.5V109z M100,106l-1,0.5v-2l1-0.5V106z M100,103l-1,0.5v-2.9c0.6-0.1,1,0.3,1,0.9V103z"/>
				<path opacity="0.4" d="M98.5,99.7c-0.2,0.1-0.4,0.3-0.6,0.4c1.2-0.5,2.1,0,2.1,1.2v7.4l-4,2v1l5-2.5V101
					C101,99.6,99.9,99.1,98.5,99.7z"/>
				<polygon opacity="0.5" fill="#FFFFFF" points="102,110 95,113.5 95,112.5 102,109 				"/>
			</g>
			<g>
				<path fill="#7FADB9" d="M93,113.5l-5,2.5v-8.5c0-1.4,1.1-3.1,2.5-3.8l0,0c1.4-0.7,2.5-0.1,2.5,1.2V113.5z"/>
				<path fill="#3399CC" d="M90.5,103.8c-1.4,0.7-2.5,2.4-2.5,3.8v8.5l2-1l1-0.5l2-1V105C93,103.6,91.9,103.1,90.5,103.8z M89,107
					c0-0.7,0.4-1.4,1-1.9v2.9l-1,0.5V107z M89,109.5l1-0.5v2l-1,0.5V109.5z M89,114.5v-2l1-0.5v2L89,114.5z M92,113l-1,0.5v-2l1-0.5
					V113z M92,110l-1,0.5v-2l1-0.5V110z M92,107l-1,0.5v-2.9c0.6-0.1,1,0.3,1,0.9V107z"/>
				<path opacity="0.4" d="M90.5,103.8c-0.2,0.1-0.4,0.3-0.6,0.4c1.2-0.5,2.1,0,2.1,1.2v7.4l-4,2v1l5-2.5V105
					C93,103.6,91.9,103.1,90.5,103.8z"/>
				<polygon opacity="0.5" fill="#FFFFFF" points="94,114 87,117.5 87,116.5 94,113 				"/>
			</g>
			<g>
				<path fill="#7FADB9" d="M82,119l-5,2.5V113c0-1.4,1.1-3.1,2.5-3.8v0c1.4-0.7,2.5-0.1,2.5,1.2V119z"/>
				<path fill="#3399CC" d="M79.5,109.3c-1.4,0.7-2.5,2.4-2.5,3.8v8.5l2-1l1-0.5l2-1v-8.5C82,109.1,80.9,108.6,79.5,109.3z
					 M78,112.5c0-0.7,0.4-1.4,1-1.9v2.9l-1,0.5V112.5z M78,115l1-0.5v2l-1,0.5V115z M78,120v-2l1-0.5v2L78,120z M81,118.5l-1,0.5v-2
					l1-0.5V118.5z M81,115.5l-1,0.5v-2l1-0.5V115.5z M81,112.5l-1,0.5v-2.9c0.6-0.1,1,0.3,1,0.9V112.5z"/>
				<path opacity="0.4" d="M79.5,109.3c-0.2,0.1-0.4,0.3-0.6,0.4c1.2-0.5,2.1,0,2.1,1.2v7.4l-4,2v1l5-2.5v-8.2
					C82,109.1,80.9,108.6,79.5,109.3z"/>
				<polygon opacity="0.5" fill="#FFFFFF" points="83,119.5 76,123 76,122 83,118.5 				"/>
			</g>
			<g>
				<path fill="#7FADB9" d="M74,123l-5,2.5V117c0-1.4,1.1-3.1,2.5-3.8l0,0c1.4-0.7,2.5-0.1,2.5,1.2V123z"/>
				<path fill="#3399CC" d="M71.5,113.3c-1.4,0.7-2.5,2.4-2.5,3.8v8.5l2-1l1-0.5l2-1v-8.5C74,113.1,72.9,112.6,71.5,113.3z
					 M70,116.5c0-0.7,0.4-1.4,1-1.9v2.9l-1,0.5V116.5z M70,119l1-0.5v2l-1,0.5V119z M70,124v-2l1-0.5v2L70,124z M73,122.5l-1,0.5v-2
					l1-0.5V122.5z M73,119.5l-1,0.5v-2l1-0.5V119.5z M73,116.5l-1,0.5v-2.9c0.6-0.1,1,0.3,1,0.9V116.5z"/>
				<path opacity="0.4" d="M71.5,113.3c-0.2,0.1-0.4,0.3-0.6,0.4c1.2-0.5,2.1,0,2.1,1.2v7.4l-4,2v1l5-2.5v-8.2
					C74,113.1,72.9,112.6,71.5,113.3z"/>
				<polygon opacity="0.5" fill="#FFFFFF" points="75,123.5 68,127 68,126 75,122.5 				"/>
			</g>
			<g>
				<path fill="#7FADB9" d="M120,86l-5,2.5V80c0-1.4,1.1-3.1,2.5-3.8l0,0c1.4-0.7,2.5-0.1,2.5,1.2V86z"/>
				<path fill="#3399CC" d="M117.5,76.2c-1.4,0.7-2.5,2.4-2.5,3.8v8.5l2-1l1-0.5l2-1v-8.5C120,76.1,118.9,75.6,117.5,76.2z
					 M116,79.5c0-0.7,0.4-1.4,1-1.9v2.9l-1,0.5V79.5z M116,82l1-0.5v2l-1,0.5V82z M116,87v-2l1-0.5v2L116,87z M119,85.5l-1,0.5v-2
					l1-0.5V85.5z M119,82.5l-1,0.5v-2l1-0.5V82.5z M119,79.5l-1,0.5v-2.9c0.6-0.1,1,0.3,1,0.9V79.5z"/>
				<path opacity="0.4" d="M117.5,76.2c-0.2,0.1-0.4,0.3-0.6,0.4c1.2-0.5,2.1,0,2.1,1.2v7.4l-4,2v1l5-2.5v-8.2
					C120,76.1,118.9,75.6,117.5,76.2z"/>
				<polygon opacity="0.5" fill="#FFFFFF" points="121,86.5 114,90 114,89 121,85.5 				"/>
			</g>
			<g>
				<path fill="#7FADB9" d="M112,90l-5,2.5V84c0-1.4,1.1-3.1,2.5-3.8l0,0c1.4-0.7,2.5-0.1,2.5,1.2V90z"/>
				<path fill="#3399CC" d="M109.5,80.2c-1.4,0.7-2.5,2.4-2.5,3.8v8.5l2-1l1-0.5l2-1v-8.5C112,80.1,110.9,79.6,109.5,80.2z
					 M108,83.5c0-0.7,0.4-1.4,1-1.9v2.9l-1,0.5V83.5z M108,86l1-0.5v2l-1,0.5V86z M108,91v-2l1-0.5v2L108,91z M111,89.5l-1,0.5v-2
					l1-0.5V89.5z M111,86.5l-1,0.5v-2l1-0.5V86.5z M111,83.5l-1,0.5v-2.9c0.6-0.1,1,0.3,1,0.9V83.5z"/>
				<path opacity="0.4" d="M109.5,80.2c-0.2,0.1-0.4,0.3-0.6,0.4c1.2-0.5,2.1,0,2.1,1.2v7.4l-4,2v1l5-2.5v-8.2
					C112,80.1,110.9,79.6,109.5,80.2z"/>
				<polygon opacity="0.5" fill="#FFFFFF" points="113,90.5 106,94 106,93 113,89.5 				"/>
			</g>
			<g>
				<path fill="#7FADB9" d="M101,95.5L96,98v-8.5c0-1.4,1.1-3.1,2.5-3.8v0c1.4-0.7,2.5-0.1,2.5,1.2V95.5z"/>
				<path fill="#3399CC" d="M98.5,85.7c-1.4,0.7-2.5,2.4-2.5,3.8V98l2-1l1-0.5l2-1V87C101,85.6,99.9,85.1,98.5,85.7z M97,89
					c0-0.7,0.4-1.4,1-1.9V90l-1,0.5V89z M97,91.5l1-0.5v2l-1,0.5V91.5z M97,96.5v-2l1-0.5v2L97,96.5z M100,95l-1,0.5v-2l1-0.5V95z
					 M100,92l-1,0.5v-2l1-0.5V92z M100,89l-1,0.5v-2.9c0.6-0.1,1,0.3,1,0.9V89z"/>
				<path opacity="0.4" d="M98.5,85.7c-0.2,0.1-0.4,0.3-0.6,0.4c1.2-0.5,2.1,0,2.1,1.2v7.4l-4,2v1l5-2.5V87
					C101,85.6,99.9,85.1,98.5,85.7z"/>
				<polygon opacity="0.5" fill="#FFFFFF" points="102,96 95,99.5 95,98.5 102,95 				"/>
			</g>
			<g>
				<path fill="#7FADB9" d="M93,99.5l-5,2.5v-8.5c0-1.4,1.1-3.1,2.5-3.8l0,0c1.4-0.7,2.5-0.1,2.5,1.2V99.5z"/>
				<path fill="#3399CC" d="M90.5,89.8c-1.4,0.7-2.5,2.4-2.5,3.8v8.5l2-1l1-0.5l2-1V91C93,89.6,91.9,89.1,90.5,89.8z M89,93
					c0-0.7,0.4-1.4,1-1.9V94l-1,0.5V93z M89,95.5l1-0.5v2l-1,0.5V95.5z M89,100.5v-2l1-0.5v2L89,100.5z M92,99l-1,0.5v-2l1-0.5V99z
					 M92,96l-1,0.5v-2l1-0.5V96z M92,93l-1,0.5v-2.9c0.6-0.1,1,0.3,1,0.9V93z"/>
				<path opacity="0.4" d="M90.5,89.8c-0.2,0.1-0.4,0.3-0.6,0.4c1.2-0.5,2.1,0,2.1,1.2v7.4l-4,2v1l5-2.5V91
					C93,89.6,91.9,89.1,90.5,89.8z"/>
				<polygon opacity="0.5" fill="#FFFFFF" points="94,100 87,103.5 87,102.5 94,99 				"/>
			</g>
			<g>
				<path fill="#7FADB9" d="M82,105l-5,2.5V99c0-1.4,1.1-3.1,2.5-3.8v0c1.4-0.7,2.5-0.1,2.5,1.2V105z"/>
				<path fill="#3399CC" d="M79.5,95.3C78.1,95.9,77,97.6,77,99v8.5l2-1l1-0.5l2-1v-8.5C82,95.1,80.9,94.6,79.5,95.3z M78,98.5
					c0-0.7,0.4-1.4,1-1.9v2.9l-1,0.5V98.5z M78,101l1-0.5v2l-1,0.5V101z M78,106v-2l1-0.5v2L78,106z M81,104.5l-1,0.5v-2l1-0.5
					V104.5z M81,101.5l-1,0.5v-2l1-0.5V101.5z M81,98.5L80,99v-2.9c0.6-0.1,1,0.3,1,0.9V98.5z"/>
				<path opacity="0.4" d="M79.5,95.3c-0.2,0.1-0.4,0.3-0.6,0.4c1.2-0.5,2.1,0,2.1,1.2v7.4l-4,2v1l5-2.5v-8.2
					C82,95.1,80.9,94.6,79.5,95.3z"/>
				<polygon opacity="0.5" fill="#FFFFFF" points="83,105.5 76,109 76,108 83,104.5 				"/>
			</g>
			<g>
				<path fill="#7FADB9" d="M74,109l-5,2.5V103c0-1.4,1.1-3.1,2.5-3.8l0,0c1.4-0.7,2.5-0.1,2.5,1.2V109z"/>
				<path fill="#3399CC" d="M71.5,99.3c-1.4,0.7-2.5,2.4-2.5,3.8v8.5l2-1l1-0.5l2-1v-8.5C74,99.1,72.9,98.6,71.5,99.3z M70,102.5
					c0-0.7,0.4-1.4,1-1.9v2.9l-1,0.5V102.5z M70,105l1-0.5v2l-1,0.5V105z M70,110v-2l1-0.5v2L70,110z M73,108.5l-1,0.5v-2l1-0.5
					V108.5z M73,105.5l-1,0.5v-2l1-0.5V105.5z M73,102.5l-1,0.5v-2.9c0.6-0.1,1,0.3,1,0.9V102.5z"/>
				<path opacity="0.4" d="M71.5,99.3c-0.2,0.1-0.4,0.3-0.6,0.4c1.2-0.5,2.1,0,2.1,1.2v7.4l-4,2v1l5-2.5v-8.2
					C74,99.1,72.9,98.6,71.5,99.3z"/>
				<polygon opacity="0.5" fill="#FFFFFF" points="75,109.5 68,113 68,112 75,108.5 				"/>
			</g>
			<polygon opacity="0.39" points="125,101 64,132 64,68 125,37.5 			"/>
		</g>
		<g>
			<polygon fill="#F8EBCB" points="3,101 64,132 64,68 3,37.5 			"/>
			<polygon fill="#F8EBCB" points="3,100 5,101 5,72.5 3,71.5 			"/>
			<polygon fill="#F8EBCB" points="6,100.6 5,101 5,72.5 6,73 			"/>
			<polygon opacity="0.1" points="6,100.6 5,101 5,72.5 6,73 			"/>
			<polygon fill="#F8EBCB" points="62,131 64,132 64,102 62,101 			"/>
			<polygon opacity="0.15" points="3,71.5 64,102 64,101 3,70.5 			"/>
			<polygon opacity="0.5" fill="#FFFFFF" points="3,70.5 64,101 64,100 3,69.5 			"/>
			<polygon opacity="0.15" points="3,39.5 64,70 64,69 3,38.5 			"/>
			<polygon opacity="0.5" fill="#FFFFFF" points="3,38.5 64,69 64,68 3,37.5 			"/>
			<polygon opacity="0.15" points="62,101 61,100.5 61,129.5 62,130 			"/>
			<polygon opacity="0.15" points="62,69 61,68.5 61,98.5 62,99 			"/>
			<polygon opacity="0.15" points="6,41 5,40.5 5,70.5 6,71 			"/>
			<g>
				<path fill="#7FADB9" d="M59,95.5L54,93v-8.5c0-1.4,1.1-1.9,2.5-1.2h0c1.4,0.7,2.5,2.4,2.5,3.8V95.5z"/>
				<path fill="#3399CC" d="M56.5,83.3c-1.4-0.7-2.5-0.1-2.5,1.2V93l2,1l1,0.5l2,1V87C59,85.6,57.9,83.9,56.5,83.3z M55,85
					c0-0.7,0.4-1,1-0.9V87l-1-0.5V85z M55,87.5l1,0.5v2l-1-0.5V87.5z M55,92.5v-2l1,0.5v2L55,92.5z M58,94l-1-0.5v-2l1,0.5V94z
					 M58,91l-1-0.5v-2l1,0.5V91z M58,88l-1-0.5v-2.9c0.6,0.5,1,1.3,1,1.9V88z"/>
				<path opacity="0.4" d="M56.5,83.3c-0.2-0.1-0.4-0.2-0.6-0.2c1.2,0.7,2.1,2.1,2.1,3.3v7.4l-4-2v1l5,2.5V87
					C59,85.6,57.9,83.9,56.5,83.3z"/>
				<polygon opacity="0.5" fill="#FFFFFF" points="60,97 53,93.5 53,92.5 60,96 				"/>
			</g>
			<g>
				<path fill="#7FADB9" d="M51,91.5L46,89v-8.5c0-1.4,1.1-1.9,2.5-1.2l0,0c1.4,0.7,2.5,2.4,2.5,3.8V91.5z"/>
				<path fill="#3399CC" d="M48.5,79.3c-1.4-0.7-2.5-0.1-2.5,1.2V89l2,1l1,0.5l2,1V83C51,81.6,49.9,79.9,48.5,79.3z M47,81
					c0-0.7,0.4-1,1-0.9V83l-1-0.5V81z M47,83.5l1,0.5v2l-1-0.5V83.5z M47,88.5v-2l1,0.5v2L47,88.5z M50,90l-1-0.5v-2l1,0.5V90z
					 M50,87l-1-0.5v-2l1,0.5V87z M50,84l-1-0.5v-2.9c0.6,0.5,1,1.3,1,1.9V84z"/>
				<path opacity="0.4" d="M48.5,79.3c-0.2-0.1-0.4-0.2-0.6-0.2c1.2,0.7,2.1,2.1,2.1,3.3v7.4l-4-2v1l5,2.5V83
					C51,81.6,49.9,79.9,48.5,79.3z"/>
				<polygon opacity="0.5" fill="#FFFFFF" points="52,93 45,89.5 45,88.5 52,92 				"/>
			</g>
			<g>
				<path fill="#7FADB9" d="M40,86l-5-2.5V75c0-1.4,1.1-1.9,2.5-1.2h0c1.4,0.7,2.5,2.4,2.5,3.8V86z"/>
				<path fill="#3399CC" d="M37.5,73.8C36.1,73.1,35,73.6,35,75v8.5l2,1l1,0.5l2,1v-8.5C40,76.1,38.9,74.4,37.5,73.8z M36,75.5
					c0-0.7,0.4-1,1-0.9v2.9L36,77V75.5z M36,78l1,0.5v2L36,80V78z M36,83v-2l1,0.5v2L36,83z M39,84.5L38,84v-2l1,0.5V84.5z M39,81.5
					L38,81v-2l1,0.5V81.5z M39,78.5L38,78v-2.9c0.6,0.5,1,1.3,1,1.9V78.5z"/>
				<path opacity="0.4" d="M37.5,73.8c-0.2-0.1-0.4-0.2-0.6-0.2c1.2,0.7,2.1,2.1,2.1,3.3v7.4l-4-2v1l5,2.5v-8.2
					C40,76.1,38.9,74.4,37.5,73.8z"/>
				<polygon opacity="0.5" fill="#FFFFFF" points="41,87.5 34,84 34,83 41,86.5 				"/>
			</g>
			<g>
				<path fill="#7FADB9" d="M32,82l-5-2.5V71c0-1.4,1.1-1.9,2.5-1.2l0,0c1.4,0.7,2.5,2.4,2.5,3.8V82z"/>
				<path fill="#3399CC" d="M29.5,69.7C28.1,69.1,27,69.6,27,71v8.5l2,1l1,0.5l2,1v-8.5C32,72.1,30.9,70.4,29.5,69.7z M28,71.5
					c0-0.7,0.4-1,1-0.9v2.9L28,73V71.5z M28,74l1,0.5v2L28,76V74z M28,79v-2l1,0.5v2L28,79z M31,80.5L30,80v-2l1,0.5V80.5z M31,77.5
					L30,77v-2l1,0.5V77.5z M31,74.5L30,74v-2.9c0.6,0.5,1,1.3,1,1.9V74.5z"/>
				<path opacity="0.4" d="M29.5,69.7c-0.2-0.1-0.4-0.2-0.6-0.2c1.2,0.7,2.1,2.1,2.1,3.3v7.4l-4-2v1l5,2.5v-8.2
					C32,72.1,30.9,70.4,29.5,69.7z"/>
				<polygon opacity="0.5" fill="#FFFFFF" points="33,83.5 26,80 26,79 33,82.5 				"/>
			</g>
			<g>
				<path fill="#7FADB9" d="M21,76.5L16,74v-8.5c0-1.4,1.1-1.9,2.5-1.2h0c1.4,0.7,2.5,2.4,2.5,3.8V76.5z"/>
				<path fill="#3399CC" d="M18.5,64.2c-1.4-0.7-2.5-0.1-2.5,1.2V74l2,1l1,0.5l2,1V68C21,66.6,19.9,64.9,18.5,64.2z M17,66
					c0-0.7,0.4-1,1-0.9V68l-1-0.5V66z M17,68.5l1,0.5v2l-1-0.5V68.5z M17,73.5v-2l1,0.5v2L17,73.5z M20,75l-1-0.5v-2l1,0.5V75z
					 M20,72l-1-0.5v-2l1,0.5V72z M20,69l-1-0.5v-2.9c0.6,0.5,1,1.3,1,1.9V69z"/>
				<path opacity="0.4" d="M18.5,64.2c-0.2-0.1-0.4-0.2-0.6-0.2c1.2,0.7,2.1,2.1,2.1,3.3v7.4l-4-2v1l5,2.5V68
					C21,66.6,19.9,64.9,18.5,64.2z"/>
				<polygon opacity="0.5" fill="#FFFFFF" points="22,78 15,74.5 15,73.5 22,77 				"/>
			</g>
			<g>
				<path fill="#7FADB9" d="M13,72.5L8,70v-8.5c0-1.4,1.1-1.9,2.5-1.2l0,0c1.4,0.7,2.5,2.4,2.5,3.8V72.5z"/>
				<path fill="#3399CC" d="M10.5,60.2C9.1,59.6,8,60.1,8,61.5V70l2,1l1,0.5l2,1V64C13,62.6,11.9,60.9,10.5,60.2z M9,62
					c0-0.7,0.4-1,1-0.9V64l-1-0.5V62z M9,64.5l1,0.5v2l-1-0.5V64.5z M9,69.5v-2l1,0.5v2L9,69.5z M12,71l-1-0.5v-2l1,0.5V71z M12,68
					l-1-0.5v-2l1,0.5V68z M12,65l-1-0.5v-2.9c0.6,0.5,1,1.3,1,1.9V65z"/>
				<path opacity="0.4" d="M10.5,60.2c-0.2-0.1-0.4-0.2-0.6-0.2c1.2,0.7,2.1,2.1,2.1,3.3v7.4l-4-2v1l5,2.5V64
					C13,62.6,11.9,60.9,10.5,60.2z"/>
				<polygon opacity="0.5" fill="#FFFFFF" points="14,74 7,70.5 7,69.5 14,73 				"/>
			</g>
			<g>
				<path fill="#7FADB9" d="M59,81.5L54,79v-8.5c0-1.4,1.1-1.9,2.5-1.2h0c1.4,0.7,2.5,2.4,2.5,3.8V81.5z"/>
				<path fill="#3399CC" d="M56.5,69.3c-1.4-0.7-2.5-0.1-2.5,1.2V79l2,1l1,0.5l2,1V73C59,71.6,57.9,69.9,56.5,69.3z M55,71
					c0-0.7,0.4-1,1-0.9V73l-1-0.5V71z M55,73.5l1,0.5v2l-1-0.5V73.5z M55,78.5v-2l1,0.5v2L55,78.5z M58,80l-1-0.5v-2l1,0.5V80z
					 M58,77l-1-0.5v-2l1,0.5V77z M58,74l-1-0.5v-2.9c0.6,0.5,1,1.3,1,1.9V74z"/>
				<path opacity="0.4" d="M56.5,69.3c-0.2-0.1-0.4-0.2-0.6-0.2c1.2,0.7,2.1,2.1,2.1,3.3v7.4l-4-2v1l5,2.5V73
					C59,71.6,57.9,69.9,56.5,69.3z"/>
				<polygon opacity="0.5" fill="#FFFFFF" points="60,83 53,79.5 53,78.5 60,82 				"/>
			</g>
			<g>
				<path fill="#7FADB9" d="M51,77.5L46,75v-8.5c0-1.4,1.1-1.9,2.5-1.2l0,0c1.4,0.7,2.5,2.4,2.5,3.8V77.5z"/>
				<path fill="#3399CC" d="M48.5,65.3c-1.4-0.7-2.5-0.1-2.5,1.2V75l2,1l1,0.5l2,1V69C51,67.6,49.9,65.9,48.5,65.3z M47,67
					c0-0.7,0.4-1,1-0.9V69l-1-0.5V67z M47,69.5l1,0.5v2l-1-0.5V69.5z M47,74.5v-2l1,0.5v2L47,74.5z M50,76l-1-0.5v-2l1,0.5V76z
					 M50,73l-1-0.5v-2l1,0.5V73z M50,70l-1-0.5v-2.9c0.6,0.5,1,1.3,1,1.9V70z"/>
				<path opacity="0.4" d="M48.5,65.3c-0.2-0.1-0.4-0.2-0.6-0.2c1.2,0.7,2.1,2.1,2.1,3.3v7.4l-4-2v1l5,2.5V69
					C51,67.6,49.9,65.9,48.5,65.3z"/>
				<polygon opacity="0.5" fill="#FFFFFF" points="52,79 45,75.5 45,74.5 52,78 				"/>
			</g>
			<g>
				<path fill="#7FADB9" d="M40,72l-5-2.5V61c0-1.4,1.1-1.9,2.5-1.2l0,0c1.4,0.7,2.5,2.4,2.5,3.8V72z"/>
				<path fill="#3399CC" d="M37.5,59.8C36.1,59.1,35,59.6,35,61v8.5l2,1l1,0.5l2,1v-8.5C40,62.1,38.9,60.4,37.5,59.8z M36,61.5
					c0-0.7,0.4-1,1-0.9v2.9L36,63V61.5z M36,64l1,0.5v2L36,66V64z M36,69v-2l1,0.5v2L36,69z M39,70.5L38,70v-2l1,0.5V70.5z M39,67.5
					L38,67v-2l1,0.5V67.5z M39,64.5L38,64v-2.9c0.6,0.5,1,1.3,1,1.9V64.5z"/>
				<path opacity="0.4" d="M37.5,59.8c-0.2-0.1-0.4-0.2-0.6-0.2c1.2,0.7,2.1,2.1,2.1,3.3v7.4l-4-2v1l5,2.5v-8.2
					C40,62.1,38.9,60.4,37.5,59.8z"/>
				<polygon opacity="0.5" fill="#FFFFFF" points="41,73.5 34,70 34,69 41,72.5 				"/>
			</g>
			<g>
				<path fill="#7FADB9" d="M32,68l-5-2.5V57c0-1.4,1.1-1.9,2.5-1.2l0,0c1.4,0.7,2.5,2.4,2.5,3.8V68z"/>
				<path fill="#3399CC" d="M29.5,55.7C28.1,55.1,27,55.6,27,57v8.5l2,1l1,0.5l2,1v-8.5C32,58.1,30.9,56.4,29.5,55.7z M28,57.5
					c0-0.7,0.4-1,1-0.9v2.9L28,59V57.5z M28,60l1,0.5v2L28,62V60z M28,65v-2l1,0.5v2L28,65z M31,66.5L30,66v-2l1,0.5V66.5z M31,63.5
					L30,63v-2l1,0.5V63.5z M31,60.5L30,60v-2.9c0.6,0.5,1,1.3,1,1.9V60.5z"/>
				<path opacity="0.4" d="M29.5,55.7c-0.2-0.1-0.4-0.2-0.6-0.2c1.2,0.7,2.1,2.1,2.1,3.3v7.4l-4-2v1l5,2.5v-8.2
					C32,58.1,30.9,56.4,29.5,55.7z"/>
				<polygon opacity="0.5" fill="#FFFFFF" points="33,69.5 26,66 26,65 33,68.5 				"/>
			</g>
			<g>
				<path fill="#7FADB9" d="M21,62.5L16,60v-8.5c0-1.4,1.1-1.9,2.5-1.2h0c1.4,0.7,2.5,2.4,2.5,3.8V62.5z"/>
				<path fill="#3399CC" d="M18.5,50.2c-1.4-0.7-2.5-0.1-2.5,1.2V60l2,1l1,0.5l2,1V54C21,52.6,19.9,50.9,18.5,50.2z M17,52
					c0-0.7,0.4-1,1-0.9V54l-1-0.5V52z M17,54.5l1,0.5v2l-1-0.5V54.5z M17,59.5v-2l1,0.5v2L17,59.5z M20,61l-1-0.5v-2l1,0.5V61z
					 M20,58l-1-0.5v-2l1,0.5V58z M20,55l-1-0.5v-2.9c0.6,0.5,1,1.3,1,1.9V55z"/>
				<path opacity="0.4" d="M18.5,50.2c-0.2-0.1-0.4-0.2-0.6-0.2c1.2,0.7,2.1,2.1,2.1,3.3v7.4l-4-2v1l5,2.5V54
					C21,52.6,19.9,50.9,18.5,50.2z"/>
				<polygon opacity="0.5" fill="#FFFFFF" points="22,64 15,60.5 15,59.5 22,63 				"/>
			</g>
			<g>
				<path fill="#7FADB9" d="M13,58.5L8,56v-8.5c0-1.4,1.1-1.9,2.5-1.2l0,0c1.4,0.7,2.5,2.4,2.5,3.8V58.5z"/>
				<path fill="#3399CC" d="M10.5,46.2C9.1,45.6,8,46.1,8,47.5V56l2,1l1,0.5l2,1V50C13,48.6,11.9,46.9,10.5,46.2z M9,48
					c0-0.7,0.4-1,1-0.9V50l-1-0.5V48z M9,50.5l1,0.5v2l-1-0.5V50.5z M9,55.5v-2l1,0.5v2L9,55.5z M12,57l-1-0.5v-2l1,0.5V57z M12,54
					l-1-0.5v-2l1,0.5V54z M12,51l-1-0.5v-2.9c0.6,0.5,1,1.3,1,1.9V51z"/>
				<path opacity="0.4" d="M10.5,46.2c-0.2-0.1-0.4-0.2-0.6-0.2c1.2,0.7,2.1,2.1,2.1,3.3v7.4l-4-2v1l5,2.5V50
					C13,48.6,11.9,46.9,10.5,46.2z"/>
				<polygon opacity="0.5" fill="#FFFFFF" points="14,60 7,56.5 7,55.5 14,59 				"/>
			</g>
			<polygon opacity="0.15" points="3,101 64,132 64,131 3,100 			"/>
			<polygon opacity="0.5" fill="#FFFFFF" points="3,100 64,131 64,130 3,99 			"/>
			<g>
				<path fill="#7FADB9" d="M59,125.5l-5-2.5v-8.5c0-1.4,1.1-1.9,2.5-1.2h0c1.4,0.7,2.5,2.4,2.5,3.8V125.5z"/>
				<path fill="#3399CC" d="M56.5,113.3c-1.4-0.7-2.5-0.1-2.5,1.2v8.5l2,1l1,0.5l2,1V117C59,115.6,57.9,113.9,56.5,113.3z M55,115
					c0-0.7,0.4-1,1-0.9v2.9l-1-0.5V115z M55,117.5l1,0.5v2l-1-0.5V117.5z M55,122.5v-2l1,0.5v2L55,122.5z M58,124l-1-0.5v-2l1,0.5
					V124z M58,121l-1-0.5v-2l1,0.5V121z M58,118l-1-0.5v-2.9c0.6,0.5,1,1.3,1,1.9V118z"/>
				<path opacity="0.4" d="M56.5,113.3c-0.2-0.1-0.4-0.2-0.6-0.2c1.2,0.7,2.1,2.1,2.1,3.3v7.4l-4-2v1l5,2.5V117
					C59,115.6,57.9,113.9,56.5,113.3z"/>
				<polygon opacity="0.5" fill="#FFFFFF" points="60,127 53,123.5 53,122.5 60,126 				"/>
			</g>
			<g>
				<path fill="#7FADB9" d="M51,121.5l-5-2.5v-8.5c0-1.4,1.1-1.9,2.5-1.2l0,0c1.4,0.7,2.5,2.4,2.5,3.8V121.5z"/>
				<path fill="#3399CC" d="M48.5,109.3c-1.4-0.7-2.5-0.1-2.5,1.2v8.5l2,1l1,0.5l2,1V113C51,111.6,49.9,109.9,48.5,109.3z M47,111
					c0-0.7,0.4-1,1-0.9v2.9l-1-0.5V111z M47,113.5l1,0.5v2l-1-0.5V113.5z M47,118.5v-2l1,0.5v2L47,118.5z M50,120l-1-0.5v-2l1,0.5
					V120z M50,117l-1-0.5v-2l1,0.5V117z M50,114l-1-0.5v-2.9c0.6,0.5,1,1.3,1,1.9V114z"/>
				<path opacity="0.4" d="M48.5,109.3c-0.2-0.1-0.4-0.2-0.6-0.2c1.2,0.7,2.1,2.1,2.1,3.3v7.4l-4-2v1l5,2.5V113
					C51,111.6,49.9,109.9,48.5,109.3z"/>
				<polygon opacity="0.5" fill="#FFFFFF" points="52,123 45,119.5 45,118.5 52,122 				"/>
			</g>
			<g>
				<path fill="#7FADB9" d="M40,116l-5-2.5V105c0-1.4,1.1-1.9,2.5-1.2h0c1.4,0.7,2.5,2.4,2.5,3.8V116z"/>
				<path fill="#3399CC" d="M37.5,103.8c-1.4-0.7-2.5-0.1-2.5,1.2v8.5l2,1l1,0.5l2,1v-8.5C40,106.1,38.9,104.4,37.5,103.8z
					 M36,105.5c0-0.7,0.4-1,1-0.9v2.9l-1-0.5V105.5z M36,108l1,0.5v2l-1-0.5V108z M36,113v-2l1,0.5v2L36,113z M39,114.5l-1-0.5v-2
					l1,0.5V114.5z M39,111.5l-1-0.5v-2l1,0.5V111.5z M39,108.5l-1-0.5v-2.9c0.6,0.5,1,1.3,1,1.9V108.5z"/>
				<path opacity="0.4" d="M37.5,103.8c-0.2-0.1-0.4-0.2-0.6-0.2c1.2,0.7,2.1,2.1,2.1,3.3v7.4l-4-2v1l5,2.5v-8.2
					C40,106.1,38.9,104.4,37.5,103.8z"/>
				<polygon opacity="0.5" fill="#FFFFFF" points="41,117.5 34,114 34,113 41,116.5 				"/>
			</g>
			<g>
				<path fill="#7FADB9" d="M32,112l-5-2.5V101c0-1.4,1.1-1.9,2.5-1.2l0,0c1.4,0.7,2.5,2.4,2.5,3.8V112z"/>
				<path fill="#3399CC" d="M29.5,99.7c-1.4-0.7-2.5-0.1-2.5,1.2v8.5l2,1l1,0.5l2,1v-8.5C32,102.1,30.9,100.4,29.5,99.7z M28,101.5
					c0-0.7,0.4-1,1-0.9v2.9l-1-0.5V101.5z M28,104l1,0.5v2l-1-0.5V104z M28,109v-2l1,0.5v2L28,109z M31,110.5l-1-0.5v-2l1,0.5V110.5
					z M31,107.5l-1-0.5v-2l1,0.5V107.5z M31,104.5l-1-0.5v-2.9c0.6,0.5,1,1.3,1,1.9V104.5z"/>
				<path opacity="0.4" d="M29.5,99.7c-0.2-0.1-0.4-0.2-0.6-0.2c1.2,0.7,2.1,2.1,2.1,3.3v7.4l-4-2v1l5,2.5v-8.2
					C32,102.1,30.9,100.4,29.5,99.7z"/>
				<polygon opacity="0.5" fill="#FFFFFF" points="33,113.5 26,110 26,109 33,112.5 				"/>
			</g>
			<g>
				<path fill="#7FADB9" d="M21,106.5l-5-2.5v-8.5c0-1.4,1.1-1.9,2.5-1.2h0c1.4,0.7,2.5,2.4,2.5,3.8V106.5z"/>
				<path fill="#3399CC" d="M18.5,94.2c-1.4-0.7-2.5-0.1-2.5,1.2v8.5l2,1l1,0.5l2,1V98C21,96.6,19.9,94.9,18.5,94.2z M17,96
					c0-0.7,0.4-1,1-0.9V98l-1-0.5V96z M17,98.5l1,0.5v2l-1-0.5V98.5z M17,103.5v-2l1,0.5v2L17,103.5z M20,105l-1-0.5v-2l1,0.5V105z
					 M20,102l-1-0.5v-2l1,0.5V102z M20,99l-1-0.5v-2.9c0.6,0.5,1,1.3,1,1.9V99z"/>
				<path opacity="0.4" d="M18.5,94.2c-0.2-0.1-0.4-0.2-0.6-0.2c1.2,0.7,2.1,2.1,2.1,3.3v7.4l-4-2v1l5,2.5V98
					C21,96.6,19.9,94.9,18.5,94.2z"/>
				<polygon opacity="0.5" fill="#FFFFFF" points="22,108 15,104.5 15,103.5 22,107 				"/>
			</g>
			<g>
				<path fill="#7FADB9" d="M13,102.5L8,100v-8.5c0-1.4,1.1-1.9,2.5-1.2h0c1.4,0.7,2.5,2.4,2.5,3.8V102.5z"/>
				<path fill="#3399CC" d="M10.5,90.2C9.1,89.6,8,90.1,8,91.5v8.5l2,1l1,0.5l2,1V94C13,92.6,11.9,90.9,10.5,90.2z M9,92
					c0-0.7,0.4-1,1-0.9V94l-1-0.5V92z M9,94.5l1,0.5v2l-1-0.5V94.5z M9,99.5v-2l1,0.5v2L9,99.5z M12,101l-1-0.5v-2l1,0.5V101z
					 M12,98l-1-0.5v-2l1,0.5V98z M12,95l-1-0.5v-2.9c0.6,0.5,1,1.3,1,1.9V95z"/>
				<path opacity="0.4" d="M10.5,90.2c-0.2-0.1-0.4-0.2-0.6-0.2c1.2,0.7,2.1,2.1,2.1,3.3v7.4l-4-2v1l5,2.5V94
					C13,92.6,11.9,90.9,10.5,90.2z"/>
				<polygon opacity="0.5" fill="#FFFFFF" points="14,104 7,100.5 7,99.5 14,103 				"/>
			</g>
			<g>
				<path fill="#7FADB9" d="M59,111.5l-5-2.5v-8.5c0-1.4,1.1-1.9,2.5-1.2h0c1.4,0.7,2.5,2.4,2.5,3.8V111.5z"/>
				<path fill="#3399CC" d="M56.5,99.3c-1.4-0.7-2.5-0.1-2.5,1.2v8.5l2,1l1,0.5l2,1V103C59,101.6,57.9,99.9,56.5,99.3z M55,101
					c0-0.7,0.4-1,1-0.9v2.9l-1-0.5V101z M55,103.5l1,0.5v2l-1-0.5V103.5z M55,108.5v-2l1,0.5v2L55,108.5z M58,110l-1-0.5v-2l1,0.5
					V110z M58,107l-1-0.5v-2l1,0.5V107z M58,104l-1-0.5v-2.9c0.6,0.5,1,1.3,1,1.9V104z"/>
				<path opacity="0.4" d="M56.5,99.3c-0.2-0.1-0.4-0.2-0.6-0.2c1.2,0.7,2.1,2.1,2.1,3.3v7.4l-4-2v1l5,2.5V103
					C59,101.6,57.9,99.9,56.5,99.3z"/>
				<polygon opacity="0.5" fill="#FFFFFF" points="60,113 53,109.5 53,108.5 60,112 				"/>
			</g>
			<g>
				<path fill="#7FADB9" d="M51,107.5l-5-2.5v-8.5c0-1.4,1.1-1.9,2.5-1.2l0,0c1.4,0.7,2.5,2.4,2.5,3.8V107.5z"/>
				<path fill="#3399CC" d="M48.5,95.3c-1.4-0.7-2.5-0.1-2.5,1.2v8.5l2,1l1,0.5l2,1V99C51,97.6,49.9,95.9,48.5,95.3z M47,97
					c0-0.7,0.4-1,1-0.9V99l-1-0.5V97z M47,99.5l1,0.5v2l-1-0.5V99.5z M47,104.5v-2l1,0.5v2L47,104.5z M50,106l-1-0.5v-2l1,0.5V106z
					 M50,103l-1-0.5v-2l1,0.5V103z M50,100l-1-0.5v-2.9c0.6,0.5,1,1.3,1,1.9V100z"/>
				<path opacity="0.4" d="M48.5,95.3c-0.2-0.1-0.4-0.2-0.6-0.2c1.2,0.7,2.1,2.1,2.1,3.3v7.4l-4-2v1l5,2.5V99
					C51,97.6,49.9,95.9,48.5,95.3z"/>
				<polygon opacity="0.5" fill="#FFFFFF" points="52,109 45,105.5 45,104.5 52,108 				"/>
			</g>
			<g>
				<path fill="#7FADB9" d="M40,102l-5-2.5V91c0-1.4,1.1-1.9,2.5-1.2h0c1.4,0.7,2.5,2.4,2.5,3.8V102z"/>
				<path fill="#3399CC" d="M37.5,89.8C36.1,89.1,35,89.6,35,91v8.5l2,1l1,0.5l2,1v-8.5C40,92.1,38.9,90.4,37.5,89.8z M36,91.5
					c0-0.7,0.4-1,1-0.9v2.9L36,93V91.5z M36,94l1,0.5v2L36,96V94z M36,99v-2l1,0.5v2L36,99z M39,100.5l-1-0.5v-2l1,0.5V100.5z
					 M39,97.5L38,97v-2l1,0.5V97.5z M39,94.5L38,94v-2.9c0.6,0.5,1,1.3,1,1.9V94.5z"/>
				<path opacity="0.4" d="M37.5,89.8c-0.2-0.1-0.4-0.2-0.6-0.2c1.2,0.7,2.1,2.1,2.1,3.3v7.4l-4-2v1l5,2.5v-8.2
					C40,92.1,38.9,90.4,37.5,89.8z"/>
				<polygon opacity="0.5" fill="#FFFFFF" points="41,103.5 34,100 34,99 41,102.5 				"/>
			</g>
			<g>
				<path fill="#7FADB9" d="M32,98l-5-2.5V87c0-1.4,1.1-1.9,2.5-1.2l0,0c1.4,0.7,2.5,2.4,2.5,3.8V98z"/>
				<path fill="#3399CC" d="M29.5,85.7C28.1,85.1,27,85.6,27,87v8.5l2,1l1,0.5l2,1v-8.5C32,88.1,30.9,86.4,29.5,85.7z M28,87.5
					c0-0.7,0.4-1,1-0.9v2.9L28,89V87.5z M28,90l1,0.5v2L28,92V90z M28,95v-2l1,0.5v2L28,95z M31,96.5L30,96v-2l1,0.5V96.5z M31,93.5
					L30,93v-2l1,0.5V93.5z M31,90.5L30,90v-2.9c0.6,0.5,1,1.3,1,1.9V90.5z"/>
				<path opacity="0.4" d="M29.5,85.7c-0.2-0.1-0.4-0.2-0.6-0.2c1.2,0.7,2.1,2.1,2.1,3.3v7.4l-4-2v1l5,2.5v-8.2
					C32,88.1,30.9,86.4,29.5,85.7z"/>
				<polygon opacity="0.5" fill="#FFFFFF" points="33,99.5 26,96 26,95 33,98.5 				"/>
			</g>
			<g>
				<path fill="#7FADB9" d="M21,92.5L16,90v-8.5c0-1.4,1.1-1.9,2.5-1.2h0c1.4,0.7,2.5,2.4,2.5,3.8V92.5z"/>
				<path fill="#3399CC" d="M18.5,80.2c-1.4-0.7-2.5-0.1-2.5,1.2V90l2,1l1,0.5l2,1V84C21,82.6,19.9,80.9,18.5,80.2z M17,82
					c0-0.7,0.4-1,1-0.9V84l-1-0.5V82z M17,84.5l1,0.5v2l-1-0.5V84.5z M17,89.5v-2l1,0.5v2L17,89.5z M20,91l-1-0.5v-2l1,0.5V91z
					 M20,88l-1-0.5v-2l1,0.5V88z M20,85l-1-0.5v-2.9c0.6,0.5,1,1.3,1,1.9V85z"/>
				<path opacity="0.4" d="M18.5,80.2c-0.2-0.1-0.4-0.2-0.6-0.2c1.2,0.7,2.1,2.1,2.1,3.3v7.4l-4-2v1l5,2.5V84
					C21,82.6,19.9,80.9,18.5,80.2z"/>
				<polygon opacity="0.5" fill="#FFFFFF" points="22,94 15,90.5 15,89.5 22,93 				"/>
			</g>
			<g>
				<path fill="#7FADB9" d="M13,88.5L8,86v-8.5c0-1.4,1.1-1.9,2.5-1.2h0c1.4,0.7,2.5,2.4,2.5,3.8V88.5z"/>
				<path fill="#3399CC" d="M10.5,76.2C9.1,75.6,8,76.1,8,77.5V86l2,1l1,0.5l2,1V80C13,78.6,11.9,76.9,10.5,76.2z M9,78
					c0-0.7,0.4-1,1-0.9V80l-1-0.5V78z M9,80.5l1,0.5v2l-1-0.5V80.5z M9,85.5v-2l1,0.5v2L9,85.5z M12,87l-1-0.5v-2l1,0.5V87z M12,84
					l-1-0.5v-2l1,0.5V84z M12,81l-1-0.5v-2.9c0.6,0.5,1,1.3,1,1.9V81z"/>
				<path opacity="0.4" d="M10.5,76.2c-0.2-0.1-0.4-0.2-0.6-0.2c1.2,0.7,2.1,2.1,2.1,3.3v7.4l-4-2v1l5,2.5V80
					C13,78.6,11.9,76.9,10.5,76.2z"/>
				<polygon opacity="0.5" fill="#FFFFFF" points="14,90 7,86.5 7,85.5 14,89 				"/>
			</g>
			<polygon opacity="0.06" points="3,101 64,132 64,68 3,37.5 			"/>
		</g>
		<polygon fill="#F8EBCB" points="64,68 125,37.5 64,7 3,37.5 		"/>
	</g>
	<polygon fill="#2D3134" points="64,1 3,37.5 64,68 125,37.5 	"/>
	<polygon opacity="0.06" points="64,42 27.2,23 3,37.5 64,68 	"/>
	<polygon opacity="0.39" points="64,42 64,68 125,37.5 100.8,23 	"/>
</g>
</svg>
