<?xml version="1.0" encoding="utf-8"?>
<!-- Generator: Adobe Illustrator 18.1.0, SVG Export Plug-In . SVG Version: 6.00 Build 0)  -->
<svg version="1.1" id="Layer_1" xmlns="http://www.w3.org/2000/svg" xmlns:xlink="http://www.w3.org/1999/xlink" x="0px" y="0px"
	 viewBox="0 0 192 136" enable-background="new 0 0 192 136" xml:space="preserve">
<g>
	<polygon fill="#F8EBCB" points="64,0 0,32 0,39 128,103 192,71 192,64 	"/>
	<g>
		<polygon opacity="0.1" points="13.4,32 64,6.7 178.6,64 128,89.3 		"/>
		<polygon opacity="0.39" points="64,10.7 64,6.7 13.4,32 17.4,34 		"/>
		<polygon opacity="0.06" points="64,10.7 174.6,66 178.6,64 64,6.7 		"/>
	</g>
	<g>
		<polygon fill="#F8EBCB" points="192,104 128,136 128,96 192,64 		"/>
		<g>
			<polygon opacity="0.2" fill="#FFFFFF" points="192,71 128,103 128,101 192,69 			"/>
			<polygon opacity="0.8" fill="#FFFFFF" points="192,70 128,102 128,101 192,69 			"/>
			<polygon opacity="0.15" points="192,72 128,104 128,103 192,71 			"/>
			<polygon opacity="0.8" fill="#FFFFFF" points="192,66 128,98 128,97 192,65 			"/>
			<polygon opacity="0.15" points="192,67 128,99 128,98 192,66 			"/>
		</g>
		<g>
			<g>
				<polygon fill="#3399CC" points="142,110 142,97 130,103 130,116 				"/>
				<polygon opacity="0.2" fill="#FFFFFF" points="142,110 142,108 130,109 130,116 				"/>
				<polygon fill="#3399CC" points="130,118 130,134 142,128 142,112 				"/>
				<polygon opacity="0.2" fill="#FFFFFF" points="130,123 130,134 142,128 142,124 				"/>
			</g>
			<polygon fill="#BAA794" points="133,114.5 132,115 132,102 133,101.5 			"/>
			<polygon fill="#BAA794" points="136,113 135,113.5 135,100.5 136,100 			"/>
			<polygon fill="#BAA794" points="139,111.5 138,112 138,99 139,98.5 			"/>
			<polygon fill="#BAA794" points="142,110 141,110.5 141,97.5 142,97 			"/>
			<polygon fill="#BAA794" points="142,110 130,116 130,115 142,109 			"/>
			<polygon fill="#BAA794" points="142,102 130,108 130,107 142,101 			"/>
			<polygon fill="#BAA794" points="142,117 130,123 130,122 142,116 			"/>
			<polygon fill="#BAA794" points="142,128 130,134 130,133 142,127 			"/>
			<polygon fill="#BAA794" points="133,132.5 132,133 132,117 133,116.5 			"/>
			<polygon fill="#BAA794" points="136,131 135,131.5 135,115.5 136,115 			"/>
			<polygon fill="#BAA794" points="139,129.5 138,130 138,114 139,113.5 			"/>
			<polygon fill="#BAA794" points="142,128 141,128.5 141,112.5 142,112 			"/>
			<polygon opacity="0.15" points="142,114 130,120 130,118 142,112 			"/>
			<polygon opacity="0.15" points="142,113 130,119 130,118 142,112 			"/>
			<polygon opacity="0.15" points="142,99 130,105 130,103 142,97 			"/>
			<polygon opacity="0.15" points="142,98 130,104 130,103 142,97 			"/>
		</g>
		<g>
			<g>
				<polygon fill="#3399CC" points="158,102 158,89 146,95 146,108 				"/>
				<polygon fill="#3399CC" points="146,110 146,126 158,120 158,104 				"/>
				<polygon opacity="0.2" fill="#FFFFFF" points="146,119 146,126 158,120 158,119 				"/>
			</g>
			<polygon fill="#BAA794" points="149,106.5 148,107 148,94 149,93.5 			"/>
			<polygon fill="#BAA794" points="152,105 151,105.5 151,92.5 152,92 			"/>
			<polygon fill="#BAA794" points="155,103.5 154,104 154,91 155,90.5 			"/>
			<polygon fill="#BAA794" points="158,102 157,102.5 157,89.5 158,89 			"/>
			<polygon fill="#BAA794" points="158,102 146,108 146,107 158,101 			"/>
			<polygon fill="#BAA794" points="158,94 146,100 146,99 158,93 			"/>
			<polygon fill="#BAA794" points="158,109 146,115 146,114 158,108 			"/>
			<polygon fill="#BAA794" points="158,120 146,126 146,125 158,119 			"/>
			<polygon fill="#BAA794" points="149,124.5 148,125 148,109 149,108.5 			"/>
			<polygon fill="#BAA794" points="152,123 151,123.5 151,107.5 152,107 			"/>
			<polygon fill="#BAA794" points="155,121.5 154,122 154,106 155,105.5 			"/>
			<polygon fill="#BAA794" points="158,120 157,120.5 157,104.5 158,104 			"/>
			<polygon opacity="0.15" points="158,106 146,112 146,110 158,104 			"/>
			<polygon opacity="0.15" points="158,105 146,111 146,110 158,104 			"/>
			<polygon opacity="0.15" points="158,91 146,97 146,95 158,89 			"/>
			<polygon opacity="0.15" points="158,90 146,96 146,95 158,89 			"/>
		</g>
		<g>
			<g>
				<polygon fill="#3399CC" points="174,94 174,81 162,87 162,100 				"/>
				<polygon fill="#3399CC" points="162,102 162,118 174,112 174,96 				"/>
			</g>
			<polygon fill="#BAA794" points="165,98.5 164,99 164,86 165,85.5 			"/>
			<polygon fill="#BAA794" points="168,97 167,97.5 167,84.5 168,84 			"/>
			<polygon fill="#BAA794" points="171,95.5 170,96 170,83 171,82.5 			"/>
			<polygon fill="#BAA794" points="174,94 173,94.5 173,81.5 174,81 			"/>
			<polygon fill="#BAA794" points="174,94 162,100 162,99 174,93 			"/>
			<polygon fill="#BAA794" points="174,86 162,92 162,91 174,85 			"/>
			<polygon fill="#BAA794" points="174,101 162,107 162,106 174,100 			"/>
			<polygon fill="#BAA794" points="174,112 162,118 162,117 174,111 			"/>
			<polygon fill="#BAA794" points="165,116.5 164,117 164,101 165,100.5 			"/>
			<polygon fill="#BAA794" points="168,115 167,115.5 167,99.5 168,99 			"/>
			<polygon fill="#BAA794" points="171,113.5 170,114 170,98 171,97.5 			"/>
			<polygon fill="#BAA794" points="174,112 173,112.5 173,96.5 174,96 			"/>
			<polygon opacity="0.15" points="174,98 162,104 162,102 174,96 			"/>
			<polygon opacity="0.15" points="174,97 162,103 162,102 174,96 			"/>
			<polygon opacity="0.15" points="174,83 162,89 162,87 174,81 			"/>
			<polygon opacity="0.15" points="174,82 162,88 162,87 174,81 			"/>
		</g>
		<g>
			<g>
				<polygon fill="#3399CC" points="190,86 190,73 178,79 178,92 				"/>
				<polygon opacity="0.15" points="190,81 190,73 178,79 178,81 				"/>
				<polygon fill="#3399CC" points="178,94 178,110 190,104 190,88 				"/>
			</g>
			<polygon fill="#BAA794" points="181,90.5 180,91 180,78 181,77.5 			"/>
			<polygon fill="#BAA794" points="184,89 183,89.5 183,76.5 184,76 			"/>
			<polygon fill="#BAA794" points="187,87.5 186,88 186,75 187,74.5 			"/>
			<polygon fill="#BAA794" points="190,86 189,86.5 189,73.5 190,73 			"/>
			<polygon fill="#BAA794" points="190,86 178,92 178,91 190,85 			"/>
			<polygon fill="#BAA794" points="190,78 178,84 178,83 190,77 			"/>
			<polygon fill="#BAA794" points="190,93 178,99 178,98 190,92 			"/>
			<polygon fill="#BAA794" points="190,104 178,110 178,109 190,103 			"/>
			<polygon fill="#BAA794" points="181,108.5 180,109 180,93 181,92.5 			"/>
			<polygon fill="#BAA794" points="184,107 183,107.5 183,91.5 184,91 			"/>
			<polygon fill="#BAA794" points="187,105.5 186,106 186,90 187,89.5 			"/>
			<polygon fill="#BAA794" points="190,104 189,104.5 189,88.5 190,88 			"/>
			<polygon opacity="0.15" points="190,90 178,96 178,94 190,88 			"/>
			<polygon opacity="0.15" points="190,89 178,95 178,94 190,88 			"/>
			<polygon opacity="0.15" points="190,75 178,81 178,79 190,73 			"/>
			<polygon opacity="0.15" points="190,74 178,80 178,79 190,73 			"/>
		</g>
		<polygon opacity="0.39" points="192,104 128,136 128,96 192,64 		"/>
	</g>
	<g>
		<polygon fill="#F8EBCB" points="0,32 0,72 128,136 128,96 		"/>
		<g>
			<polygon opacity="0.2" fill="#FFFFFF" points="128,103 0,39 0,37 128,101 			"/>
			<polygon opacity="0.8" fill="#FFFFFF" points="128,102 0,38 0,37 128,101 			"/>
			<polygon opacity="0.15" points="128,104 0,40 0,39 128,103 			"/>
			<polygon opacity="0.8" fill="#FFFFFF" points="128,98 0,34 0,33 128,97 			"/>
			<polygon opacity="0.15" points="128,99 0,35 0,34 128,98 			"/>
		</g>
		<g>
			<g>
				<polygon fill="#3399CC" points="126,116 126,103 99,89.5 99,102.5 				"/>
				<polygon opacity="0.15" points="126,116 126,103 99,89.5 99,90.5 				"/>
				<polygon fill="#3399CC" points="99,104.5 99,120.5 126,134 126,118 				"/>
				<polygon opacity="0.15" points="99,104.5 99,104.5 126,131 126,118 				"/>
			</g>
			<polygon fill="#BAA794" points="102,104 101,103.5 101,90.5 102,91 			"/>
			<polygon fill="#BAA794" points="105,105.5 104,105 104,92 105,92.5 			"/>
			<polygon fill="#BAA794" points="108,107 107,106.5 107,93.5 108,94 			"/>
			<polygon fill="#BAA794" points="126,116 125,115.5 125,102.5 126,103 			"/>
			<polygon fill="#BAA794" points="126,116 99,102.5 99,101.5 126,115 			"/>
			<polygon fill="#BAA794" points="126,108 99,94.5 99,93.5 126,107 			"/>
			<polygon fill="#BAA794" points="126,123 99,109.5 99,108.5 126,122 			"/>
			<polygon fill="#BAA794" points="126,134 99,120.5 99,119.5 126,133 			"/>
			<polygon fill="#BAA794" points="102,122 101,121.5 101,105.5 102,106 			"/>
			<polygon fill="#BAA794" points="105,123.5 104,123 104,107 105,107.5 			"/>
			<polygon fill="#BAA794" points="108,125 107,124.5 107,108.5 108,109 			"/>
			<polygon fill="#BAA794" points="111,108.5 110,108 110,95 111,95.5 			"/>
			<polygon fill="#BAA794" points="114,110 113,109.5 113,96.5 114,97 			"/>
			<polygon fill="#BAA794" points="117,111.5 116,111 116,98 117,98.5 			"/>
			<polygon fill="#BAA794" points="111,126.5 110,126 110,110 111,110.5 			"/>
			<polygon fill="#BAA794" points="114,128 113,127.5 113,111.5 114,112 			"/>
			<polygon fill="#BAA794" points="117,129.5 116,129 116,113 117,113.5 			"/>
			<polygon fill="#BAA794" points="120,113 119,112.5 119,99.5 120,100 			"/>
			<polygon fill="#BAA794" points="123,114.5 122,114 122,101 123,101.5 			"/>
			<polygon fill="#BAA794" points="120,131 119,130.5 119,114.5 120,115 			"/>
			<polygon fill="#BAA794" points="123,132.5 122,132 122,116 123,116.5 			"/>
			<polygon fill="#BAA794" points="126,134 125,133.5 125,117.5 126,118 			"/>
			<polygon opacity="0.15" points="126,120 99,106.5 99,104.5 126,118 			"/>
			<polygon opacity="0.15" points="126,119 99,105.5 99,104.5 126,118 			"/>
			<polygon opacity="0.15" points="126,105 99,91.5 99,89.5 126,103 			"/>
			<polygon opacity="0.15" points="126,104 99,90.5 99,89.5 126,103 			"/>
		</g>
		<g>
			<g>
				<polygon fill="#3399CC" points="34,72 34,88 54.8,98.4 54.8,82.4 				"/>
				<polygon opacity="0.2" fill="#FFFFFF" points="34,75 34,88 55,98.5 55,96.5 				"/>
				<polygon fill="#3399CC" points="72.2,91.1 72.2,107.1 94,118 94,102 				"/>
				<polygon fill="#3399CC" points="57,83.5 57,100.5 70,107 70,90 				"/>
				<polygon opacity="0.2" fill="#FFFFFF" points="57,86.5 57,94.5 70,107 70,105 				"/>
				<polygon opacity="0.15" points="57,83.5 57,85.5 70,99 70,90 				"/>
			</g>
			<polygon fill="#3399CC" points="94,100 94,87 34,57 34,70 			"/>
			<polygon fill="#BAA794" points="37,71.5 36,71 36,58 37,58.5 			"/>
			<polygon fill="#BAA794" points="40,73 39,72.5 39,59.5 40,60 			"/>
			<polygon fill="#BAA794" points="43,74.5 42,74 42,61 43,61.5 			"/>
			<polygon fill="#BAA794" points="94,100 93,99.5 93,86.5 94,87 			"/>
			<polygon fill="#BAA794" points="94,100 34,70 34,69 94,99 			"/>
			<polygon fill="#BAA794" points="94,92 34,62 34,61 94,91 			"/>
			<polygon fill="#BAA794" points="94,107 34,77 34,76 94,106 			"/>
			<polygon fill="#BAA794" points="55,98.5 34,88 34,87 55,97.5 			"/>
			<polygon fill="#BAA794" points="94,118 73,107.5 73,106.5 94,117 			"/>
			<polygon fill="#BAA794" points="37,89.5 36,89 36,73 37,73.5 			"/>
			<polygon fill="#BAA794" points="40,91 39,90.5 39,74.5 40,75 			"/>
			<polygon fill="#BAA794" points="43,92.5 42,92 42,76 43,76.5 			"/>
			<polygon fill="#BAA794" points="46,76 45,75.5 45,62.5 46,63 			"/>
			<polygon fill="#BAA794" points="49,77.5 48,77 48,64 49,64.5 			"/>
			<polygon fill="#BAA794" points="52,79 51,78.5 51,65.5 52,66 			"/>
			<polygon fill="#BAA794" points="46,94 45,93.5 45,77.5 46,78 			"/>
			<polygon fill="#BAA794" points="49,95.5 48,95 48,79 49,79.5 			"/>
			<polygon fill="#BAA794" points="52,97 51,96.5 51,80.5 52,81 			"/>
			<polygon fill="#BAA794" points="55,80.5 54,80 54,67 55,67.5 			"/>
			<polygon fill="#BAA794" points="58,82 57,81.5 57,68.5 58,69 			"/>
			<polygon fill="#BAA794" points="61,83.5 60,83 60,70 61,70.5 			"/>
			<polygon fill="#BAA794" points="55,98.5 54,98 54,82 55,82.5 			"/>
			<polygon fill="#BAA794" points="58,101 57,100.5 57,83.5 58,84 			"/>
			<polygon fill="#BAA794" points="61,90.5 60,90 60,85 61,85.5 			"/>
			<polygon fill="#BAA794" points="64,85 63,84.5 63,71.5 64,72 			"/>
			<polygon fill="#BAA794" points="67,86.5 66,86 66,73 67,73.5 			"/>
			<polygon fill="#BAA794" points="70,88 69,87.5 69,74.5 70,75 			"/>
			<polygon fill="#BAA794" points="64,104 63,103.5 63,86.5 64,87 			"/>
			<polygon fill="#BAA794" points="67,93.5 66,93 66,88 67,88.5 			"/>
			<polygon fill="#BAA794" points="70,107 69,106.5 69,89.5 70,90 			"/>
			<polygon fill="#BAA794" points="73,89.5 72,89 72,76 73,76.5 			"/>
			<polygon fill="#BAA794" points="76,91 75,90.5 75,77.5 76,78 			"/>
			<polygon fill="#BAA794" points="79,92.5 78,92 78,79 79,79.5 			"/>
			<polygon fill="#BAA794" points="73,107.5 72,107 72,91 73,91.5 			"/>
			<polygon fill="#BAA794" points="76,109 75,108.5 75,92.5 76,93 			"/>
			<polygon fill="#BAA794" points="79,110.5 78,110 78,94 79,94.5 			"/>
			<polygon fill="#BAA794" points="82,94 81,93.5 81,80.5 82,81 			"/>
			<polygon fill="#BAA794" points="85,95.5 84,95 84,82 85,82.5 			"/>
			<polygon fill="#BAA794" points="88,97 87,96.5 87,83.5 88,84 			"/>
			<polygon fill="#BAA794" points="82,112 81,111.5 81,95.5 82,96 			"/>
			<polygon fill="#BAA794" points="85,113.5 84,113 84,97 85,97.5 			"/>
			<polygon fill="#BAA794" points="88,115 87,114.5 87,98.5 88,99 			"/>
			<polygon fill="#BAA794" points="91,98.5 90,98 90,85 91,85.5 			"/>
			<polygon fill="#BAA794" points="91,116.5 90,116 90,100 91,100.5 			"/>
			<polygon fill="#BAA794" points="94,118 93,117.5 93,101.5 94,102 			"/>
			<polygon opacity="0.15" points="94,104 34,74 34,72 94,102 			"/>
			<polygon opacity="0.15" points="94,103 34,73 34,72 94,102 			"/>
			<polygon opacity="0.15" points="94,89 34,59 34,57 94,87 			"/>
			<polygon opacity="0.15" points="94,88 34,58 34,57 94,87 			"/>
		</g>
		<g>
			<g>
				<polygon fill="#3399CC" points="29,67.5 29,54.5 2,41 2,54 				"/>
				<polygon fill="#3399CC" points="2,56 2,72 29,85.5 29,69.5 				"/>
				<polygon opacity="0.2" fill="#FFFFFF" points="2,58 2,72 29,85.5 29,83.5 				"/>
			</g>
			<polygon fill="#BAA794" points="5,55.5 4,55 4,42 5,42.5 			"/>
			<polygon fill="#BAA794" points="8,57 7,56.5 7,43.5 8,44 			"/>
			<polygon fill="#BAA794" points="11,58.5 10,58 10,45 11,45.5 			"/>
			<polygon fill="#BAA794" points="29,67.5 28,67 28,54 29,54.5 			"/>
			<polygon fill="#BAA794" points="29,67.5 2,54 2,53 29,66.5 			"/>
			<polygon fill="#BAA794" points="29,59.5 2,46 2,45 29,58.5 			"/>
			<polygon fill="#BAA794" points="29,74.5 2,61 2,60 29,73.5 			"/>
			<polygon fill="#BAA794" points="29,85.5 2,72 2,71 29,84.5 			"/>
			<polygon fill="#BAA794" points="5,73.5 4,73 4,57 5,57.5 			"/>
			<polygon fill="#BAA794" points="8,75 7,74.5 7,58.5 8,59 			"/>
			<polygon fill="#BAA794" points="11,76.5 10,76 10,60 11,60.5 			"/>
			<polygon fill="#BAA794" points="14,60 13,59.5 13,46.5 14,47 			"/>
			<polygon fill="#BAA794" points="17,61.5 16,61 16,48 17,48.5 			"/>
			<polygon fill="#BAA794" points="20,63 19,62.5 19,49.5 20,50 			"/>
			<polygon fill="#BAA794" points="14,78 13,77.5 13,61.5 14,62 			"/>
			<polygon fill="#BAA794" points="17,79.5 16,79 16,63 17,63.5 			"/>
			<polygon fill="#BAA794" points="20,81 19,80.5 19,64.5 20,65 			"/>
			<polygon fill="#BAA794" points="23,64.5 22,64 22,51 23,51.5 			"/>
			<polygon fill="#BAA794" points="26,66 25,65.5 25,52.5 26,53 			"/>
			<polygon fill="#BAA794" points="23,82.5 22,82 22,66 23,66.5 			"/>
			<polygon fill="#BAA794" points="26,84 25,83.5 25,67.5 26,68 			"/>
			<polygon fill="#BAA794" points="29,85.5 28,85 28,69 29,69.5 			"/>
			<polygon opacity="0.15" points="29,71.5 2,58 2,56 29,69.5 			"/>
			<polygon opacity="0.15" points="29,70.5 2,57 2,56 29,69.5 			"/>
			<polygon opacity="0.15" points="29,56.5 2,43 2,41 29,54.5 			"/>
			<polygon opacity="0.15" points="29,55.5 2,42 2,41 29,54.5 			"/>
		</g>
		<path fill="#F8EBCB" d="M73,108.5v-19l-18-9v19l3,1.5V85l12,6v16C70,107,72.4,108.2,73,108.5z"/>
		<polygon opacity="0.8" fill="#FFFFFF" points="71,107.5 71,90.5 57,83.5 57,100.5 56,100 56,82 72,90 72,108 		"/>
		<g>
			<polygon opacity="0.15" points="33,87.5 30,86 30,56 33,57.5 			"/>
			<polygon opacity="0.8" fill="#FFFFFF" points="32,60 31,59.5 31,58.5 32,59 			"/>
			<polygon opacity="0.8" fill="#FFFFFF" points="32,82 31,81.5 31,61.5 32,62 			"/>
			<polygon opacity="0.8" fill="#FFFFFF" points="32,85 31,84.5 31,83.5 32,84 			"/>
		</g>
		<g>
			<polygon opacity="0.15" points="98,120 95,118.5 95,88.5 98,90 			"/>
			<polygon opacity="0.8" fill="#FFFFFF" points="97,92.5 96,92 96,91 97,91.5 			"/>
			<polygon opacity="0.8" fill="#FFFFFF" points="97,114.5 96,114 96,94 97,94.5 			"/>
			<polygon opacity="0.8" fill="#FFFFFF" points="97,117.5 96,117 96,116 97,116.5 			"/>
		</g>
		<polygon opacity="0.06" points="0,32 0,72 128,136 128,96 		"/>
	</g>
</g>
</svg>
