<?xml version="1.0" encoding="utf-8"?>
<!-- Generator: Adobe Illustrator 18.1.0, SVG Export Plug-In . SVG Version: 6.00 Build 0)  -->
<svg version="1.1" id="Layer_1" xmlns="http://www.w3.org/2000/svg" xmlns:xlink="http://www.w3.org/1999/xlink" x="0px" y="0px"
	 viewBox="0 0 32 24" enable-background="new 0 0 32 24" xml:space="preserve">
<g>
	<g>
		<ellipse opacity="0.3" cx="15.5" cy="17" rx="6.5" ry="2"/>
		<rect x="14" y="14" fill="#825012" width="3" height="4"/>
		<circle fill="#539B00" cx="21" cy="12.1" r="3.8"/>
		<circle fill="#539B00" cx="18.9" cy="7.1" r="5.3"/>
		<circle fill="#539B00" cx="13.6" cy="10.6" r="5.3"/>
		<circle fill="#539B00" cx="10.7" cy="8.2" r="3.5"/>
		<path fill="#825012" d="M13.1,5.1c-1,0-1.8-0.3-1.8-1.2V2.4h-0.6v1.8c0,1,0.8,1.8,1.8,1.8h0.6L13.1,5.1z"/>
		<circle fill="#539B00" cx="12.9" cy="11.9" r="5.7"/>
		<path opacity="0.3" d="M12.9,16.2c-2.9,0-5.3-2.2-5.7-5c0,0.2,0,0.5,0,0.7c0,3.2,2.6,5.7,5.7,5.7s5.7-2.6,5.7-5.7
			c0-0.2,0-0.5,0-0.7C18.2,14,15.8,16.2,12.9,16.2z"/>
		<circle fill="#539B00" cx="14.8" cy="4.7" r="4.7"/>
		<circle fill="#539B00" cx="18.6" cy="3.2" r="2.6"/>
		<path opacity="0.2" fill="#FFFFFF" d="M10.2,7.1c1.3,0,2.4,0.7,2.9,1.8c0.2,0,0.4-0.1,0.6-0.1c1.1,0,2,0.5,2.6,1.3
			c-0.2-1.1-1.2-1.9-2.3-1.9c0,0,0,0-0.1,0c-0.3-1.3-1.5-2.4-2.9-2.4c-1.2,0-2.2,0.7-2.7,1.7C8.9,7.3,9.5,7.1,10.2,7.1z"/>
		<path fill="#825012" d="M14.8,5.5c0.1,0.1,0.3,0.2,0.4,0.3h0.2V4.1c-0.2,0-0.4,0-0.6-0.1V5.5z"/>
		<path opacity="0.2" fill="#FFFFFF" d="M15.1,2.4c1.4,0,2.5,1.1,2.6,2.5c0.3-0.1,0.6-0.1,0.9-0.1c1.5,0,2.7,1,3.1,2.3
			c0.1-0.3,0.1-0.5,0.1-0.8c0-1.5-1.2-2.6-2.6-2.6c-0.3,0-0.6,0.1-0.9,0.2c-0.1-1.1-1-1.9-2-1.9c-0.6,0-1.1,0.2-1.5,0.6
			C14.9,2.4,15,2.4,15.1,2.4z"/>
		<path opacity="0.3" d="M24.2,7.9c-1,1.1-2.4,1.8-4,1.8c-0.1,0-0.2,0-0.4,0c0.6,0.6,0.9,1.4,1,2.3C22.6,11.4,23.9,9.8,24.2,7.9z"/>
		<g>
			<path opacity="0.3" d="M22.7,13.9c0.2,0.4,0.3,0.9,0.3,1.4c1-0.6,1.7-1.7,1.8-2.9C24.3,13.1,23.6,13.7,22.7,13.9z"/>
		</g>
		<circle fill="#539B00" cx="18.2" cy="12.2" r="5.4"/>
		<path opacity="0.2" fill="#FFFFFF" d="M16,10.6c0.7,0,1.4,0.2,1.9,0.5c0.7-0.7,1.7-1.1,2.8-1.1c0.9,0,1.8,0.3,2.5,0.8
			c-0.6-1.2-1.9-2-3.4-2c-1,0-1.8,0.3-2.5,0.9c-0.4-0.2-0.9-0.3-1.3-0.3c-1.4,0-2.6,1-2.9,2.4C13.9,11,14.9,10.6,16,10.6z"/>
		<path opacity="0.3" d="M18.8,16.5c-2.2,0-4.1-1.2-5.2-3c-0.2,0-0.2,4.1,4.6,4.1c2.1,0,3.9-1.2,4.8-2.9
			C21.9,15.8,20.4,16.5,18.8,16.5z"/>
		<path fill="#825012" d="M18,7.4c0,1-0.9,1.2-2,1.2V9h0.6c1,0,1.4-0.4,1.4-1.4V6.5c0,0,0,0,0-0.1V7.4z"/>
	</g>
</g>
</svg>
