<?xml version="1.0" encoding="utf-8"?>
<!-- Generator: Adobe Illustrator 18.1.0, SVG Export Plug-In . SVG Version: 6.00 Build 0)  -->
<svg version="1.1" id="Layer_1" xmlns="http://www.w3.org/2000/svg" xmlns:xlink="http://www.w3.org/1999/xlink" x="0px" y="0px"
	 viewBox="0 0 128 192" enable-background="new 0 0 128 192" xml:space="preserve">
<g>
	<g>
		<polygon fill="#999999" points="64,192 0,160 64,128 128,160 		"/>
		<polygon fill="#999999" points="64,192 0,160 64,128 128,160 		"/>
		<g>
			<polygon fill="#BAA794" points="64,188.3 125,157.7 125,65.7 95,35 64,96.3 			"/>
			<polygon fill="#F8EBCB" points="64,189.3 66,188.3 66,93 64,94 			"/>
			<polygon fill="#F8EBCB" points="67,186.8 66,188.3 66,91 67,90.5 			"/>
			<polygon fill="#762C07" points="67,186.8 123,158.7 123,154.7 67,182.8 			"/>
			<polygon opacity="0.15" points="67,186.8 66,188.3 66,91.5 67,91 			"/>
			<polygon fill="#F8EBCB" points="123,159.7 125,158.7 125,66 123,64 			"/>
			<polygon opacity="0.15" points="123,64 122,63 122,159.2 123,158.7 			"/>
			<g opacity="0.3">
				<polygon fill="#762C07" points="119,155.5 122,154 122,152 119,153.5 				"/>
				<polygon fill="#762C07" points="115,157.5 118,156 118,154 115,155.5 				"/>
				<polygon fill="#762C07" points="111,159.5 114,158 114,156 111,157.5 				"/>
				<polygon fill="#762C07" points="107,161.5 110,160 110,158 107,159.5 				"/>
				<polygon fill="#762C07" points="103,163.5 106,162 106,160 103,161.5 				"/>
				<polygon fill="#762C07" points="99,165.5 102,164 102,162 99,163.5 				"/>
				<polygon fill="#762C07" points="95,167.5 98,166 98,164 95,165.5 				"/>
				<polygon fill="#762C07" points="91,169.5 94,168 94,166 91,167.5 				"/>
				<polygon fill="#762C07" points="87,171.5 90,170 90,168 87,169.5 				"/>
				<polygon fill="#762C07" points="83,173.5 86,172 86,170 83,171.5 				"/>
				<polygon fill="#762C07" points="79,175.5 82,174 82,172 79,173.5 				"/>
				<polygon fill="#762C07" points="75,177.5 78,176 78,174 75,175.5 				"/>
				<polygon fill="#762C07" points="71,179.5 74,178 74,176 71,177.5 				"/>
				<polygon fill="#762C07" points="67,181.5 70,180 70,178 67,179.5 				"/>
				<polygon fill="#762C07" points="119,149.5 122,148 122,146 119,147.5 				"/>
				<polygon fill="#762C07" points="115,151.5 118,150 118,148 115,149.5 				"/>
				<polygon fill="#762C07" points="111,153.5 114,152 114,150 111,151.5 				"/>
				<polygon fill="#762C07" points="107,155.5 110,154 110,152 107,153.5 				"/>
				<polygon fill="#762C07" points="103,157.5 106,156 106,154 103,155.5 				"/>
				<polygon fill="#762C07" points="99,159.5 102,158 102,156 99,157.5 				"/>
				<polygon fill="#762C07" points="95,161.5 98,160 98,158 95,159.5 				"/>
				<polygon fill="#762C07" points="91,163.5 94,162 94,160 91,161.5 				"/>
				<polygon fill="#762C07" points="87,165.5 90,164 90,162 87,163.5 				"/>
				<polygon fill="#762C07" points="83,167.5 86,166 86,164 83,165.5 				"/>
				<polygon fill="#762C07" points="79,169.5 82,168 82,166 79,167.5 				"/>
				<polygon fill="#762C07" points="75,171.5 78,170 78,168 75,169.5 				"/>
				<polygon fill="#762C07" points="71,173.5 74,172 74,170 71,171.5 				"/>
				<polygon fill="#762C07" points="67,175.5 70,174 70,172 67,173.5 				"/>
				<polygon fill="#762C07" points="117,153.5 120,152 120,150 117,151.5 				"/>
				<polygon fill="#762C07" points="113,155.5 116,154 116,152 113,153.5 				"/>
				<polygon fill="#762C07" points="109,157.5 112,156 112,154 109,155.5 				"/>
				<polygon fill="#762C07" points="105,159.5 108,158 108,156 105,157.5 				"/>
				<polygon fill="#762C07" points="101,161.5 104,160 104,158 101,159.5 				"/>
				<polygon fill="#762C07" points="97,163.5 100,162 100,160 97,161.5 				"/>
				<polygon fill="#762C07" points="93,165.5 96,164 96,162 93,163.5 				"/>
				<polygon fill="#762C07" points="89,167.5 92,166 92,164 89,165.5 				"/>
				<polygon fill="#762C07" points="85,169.5 88,168 88,166 85,167.5 				"/>
				<polygon fill="#762C07" points="81,171.5 84,170 84,168 81,169.5 				"/>
				<polygon fill="#762C07" points="77,173.5 80,172 80,170 77,171.5 				"/>
				<polygon fill="#762C07" points="73,175.5 76,174 76,172 73,173.5 				"/>
				<polygon fill="#762C07" points="69,177.5 72,176 72,174 69,175.5 				"/>
				<polygon fill="#762C07" points="67,178.5 68,178 68,176 67,176.5 				"/>
				<polygon fill="#762C07" points="121,151.5 122,151 122,149 121,149.5 				"/>
				<polygon fill="#762C07" points="119,143.5 122,142 122,140 119,141.5 				"/>
				<polygon fill="#762C07" points="115,145.5 118,144 118,142 115,143.5 				"/>
				<polygon fill="#762C07" points="111,147.5 114,146 114,144 111,145.5 				"/>
				<polygon fill="#762C07" points="107,149.5 110,148 110,146 107,147.5 				"/>
				<polygon fill="#762C07" points="103,151.5 106,150 106,148 103,149.5 				"/>
				<polygon fill="#762C07" points="99,153.5 102,152 102,150 99,151.5 				"/>
				<polygon fill="#762C07" points="95,155.5 98,154 98,152 95,153.5 				"/>
				<polygon fill="#762C07" points="91,157.5 94,156 94,154 91,155.5 				"/>
				<polygon fill="#762C07" points="87,159.5 90,158 90,156 87,157.5 				"/>
				<polygon fill="#762C07" points="83,161.5 86,160 86,158 83,159.5 				"/>
				<polygon fill="#762C07" points="79,163.5 82,162 82,160 79,161.5 				"/>
				<polygon fill="#762C07" points="75,165.5 78,164 78,162 75,163.5 				"/>
				<polygon fill="#762C07" points="71,167.5 74,166 74,164 71,165.5 				"/>
				<polygon fill="#762C07" points="67,169.5 70,168 70,166 67,167.5 				"/>
				<polygon fill="#762C07" points="117,147.5 120,146 120,144 117,145.5 				"/>
				<polygon fill="#762C07" points="113,149.5 116,148 116,146 113,147.5 				"/>
				<polygon fill="#762C07" points="109,151.5 112,150 112,148 109,149.5 				"/>
				<polygon fill="#762C07" points="105,153.5 108,152 108,150 105,151.5 				"/>
				<polygon fill="#762C07" points="101,155.5 104,154 104,152 101,153.5 				"/>
				<polygon fill="#762C07" points="97,157.5 100,156 100,154 97,155.5 				"/>
				<polygon fill="#762C07" points="93,159.5 96,158 96,156 93,157.5 				"/>
				<polygon fill="#762C07" points="89,161.5 92,160 92,158 89,159.5 				"/>
				<polygon fill="#762C07" points="85,163.5 88,162 88,160 85,161.5 				"/>
				<polygon fill="#762C07" points="81,165.5 84,164 84,162 81,163.5 				"/>
				<polygon fill="#762C07" points="77,167.5 80,166 80,164 77,165.5 				"/>
				<polygon fill="#762C07" points="73,169.5 76,168 76,166 73,167.5 				"/>
				<polygon fill="#762C07" points="69,171.5 72,170 72,168 69,169.5 				"/>
				<polygon fill="#762C07" points="67,172.5 68,172 68,170 67,170.5 				"/>
				<polygon fill="#762C07" points="121,145.5 122,145 122,143 121,143.5 				"/>
				<polygon fill="#762C07" points="119,137.5 122,136 122,134 119,135.5 				"/>
				<polygon fill="#762C07" points="115,139.5 118,138 118,136 115,137.5 				"/>
				<polygon fill="#762C07" points="111,141.5 114,140 114,138 111,139.5 				"/>
				<polygon fill="#762C07" points="107,143.5 110,142 110,140 107,141.5 				"/>
				<polygon fill="#762C07" points="103,145.5 106,144 106,142 103,143.5 				"/>
				<polygon fill="#762C07" points="99,147.5 102,146 102,144 99,145.5 				"/>
				<polygon fill="#762C07" points="95,149.5 98,148 98,146 95,147.5 				"/>
				<polygon fill="#762C07" points="91,151.5 94,150 94,148 91,149.5 				"/>
				<polygon fill="#762C07" points="87,153.5 90,152 90,150 87,151.5 				"/>
				<polygon fill="#762C07" points="83,155.5 86,154 86,152 83,153.5 				"/>
				<polygon fill="#762C07" points="79,157.5 82,156 82,154 79,155.5 				"/>
				<polygon fill="#762C07" points="75,159.5 78,158 78,156 75,157.5 				"/>
				<polygon fill="#762C07" points="71,161.5 74,160 74,158 71,159.5 				"/>
				<polygon fill="#762C07" points="67,163.5 70,162 70,160 67,161.5 				"/>
				<polygon fill="#762C07" points="117,141.5 120,140 120,138 117,139.5 				"/>
				<polygon fill="#762C07" points="113,143.5 116,142 116,140 113,141.5 				"/>
				<polygon fill="#762C07" points="109,145.5 112,144 112,142 109,143.5 				"/>
				<polygon fill="#762C07" points="105,147.5 108,146 108,144 105,145.5 				"/>
				<polygon fill="#762C07" points="101,149.5 104,148 104,146 101,147.5 				"/>
				<polygon fill="#762C07" points="97,151.5 100,150 100,148 97,149.5 				"/>
				<polygon fill="#762C07" points="93,153.5 96,152 96,150 93,151.5 				"/>
				<polygon fill="#762C07" points="89,155.5 92,154 92,152 89,153.5 				"/>
				<polygon fill="#762C07" points="85,157.5 88,156 88,154 85,155.5 				"/>
				<polygon fill="#762C07" points="81,159.5 84,158 84,156 81,157.5 				"/>
				<polygon fill="#762C07" points="77,161.5 80,160 80,158 77,159.5 				"/>
				<polygon fill="#762C07" points="73,163.5 76,162 76,160 73,161.5 				"/>
				<polygon fill="#762C07" points="69,165.5 72,164 72,162 69,163.5 				"/>
				<polygon fill="#762C07" points="67,166.5 68,166 68,164 67,164.5 				"/>
				<polygon fill="#762C07" points="121,139.5 122,139 122,137 121,137.5 				"/>
				<polygon fill="#762C07" points="119,131.5 122,130 122,128 119,129.5 				"/>
				<polygon fill="#762C07" points="115,133.5 118,132 118,130 115,131.5 				"/>
				<polygon fill="#762C07" points="111,135.5 114,134 114,132 111,133.5 				"/>
				<polygon fill="#762C07" points="107,137.5 110,136 110,134 107,135.5 				"/>
				<polygon fill="#762C07" points="103,139.5 106,138 106,136 103,137.5 				"/>
				<polygon fill="#762C07" points="99,141.5 102,140 102,138 99,139.5 				"/>
				<polygon fill="#762C07" points="95,143.5 98,142 98,140 95,141.5 				"/>
				<polygon fill="#762C07" points="91,145.5 94,144 94,142 91,143.5 				"/>
				<polygon fill="#762C07" points="87,147.5 90,146 90,144 87,145.5 				"/>
				<polygon fill="#762C07" points="83,149.5 86,148 86,146 83,147.5 				"/>
				<polygon fill="#762C07" points="79,151.5 82,150 82,148 79,149.5 				"/>
				<polygon fill="#762C07" points="75,153.5 78,152 78,150 75,151.5 				"/>
				<polygon fill="#762C07" points="71,155.5 74,154 74,152 71,153.5 				"/>
				<polygon fill="#762C07" points="67,157.5 70,156 70,154 67,155.5 				"/>
				<polygon fill="#762C07" points="117,135.5 120,134 120,132 117,133.5 				"/>
				<polygon fill="#762C07" points="113,137.5 116,136 116,134 113,135.5 				"/>
				<polygon fill="#762C07" points="109,139.5 112,138 112,136 109,137.5 				"/>
				<polygon fill="#762C07" points="105,141.5 108,140 108,138 105,139.5 				"/>
				<polygon fill="#762C07" points="101,143.5 104,142 104,140 101,141.5 				"/>
				<polygon fill="#762C07" points="97,145.5 100,144 100,142 97,143.5 				"/>
				<polygon fill="#762C07" points="93,147.5 96,146 96,144 93,145.5 				"/>
				<polygon fill="#762C07" points="89,149.5 92,148 92,146 89,147.5 				"/>
				<polygon fill="#762C07" points="85,151.5 88,150 88,148 85,149.5 				"/>
				<polygon fill="#762C07" points="81,153.5 84,152 84,150 81,151.5 				"/>
				<polygon fill="#762C07" points="77,155.5 80,154 80,152 77,153.5 				"/>
				<polygon fill="#762C07" points="73,157.5 76,156 76,154 73,155.5 				"/>
				<polygon fill="#762C07" points="69,159.5 72,158 72,156 69,157.5 				"/>
				<polygon fill="#762C07" points="67,160.5 68,160 68,158 67,158.5 				"/>
				<polygon fill="#762C07" points="121,133.5 122,133 122,131 121,131.5 				"/>
				<polygon fill="#762C07" points="119,125.5 122,124 122,122 119,123.5 				"/>
				<polygon fill="#762C07" points="115,127.5 118,126 118,124 115,125.5 				"/>
				<polygon fill="#762C07" points="111,129.5 114,128 114,126 111,127.5 				"/>
				<polygon fill="#762C07" points="107,131.5 110,130 110,128 107,129.5 				"/>
				<polygon fill="#762C07" points="103,133.5 106,132 106,130 103,131.5 				"/>
				<polygon fill="#762C07" points="99,135.5 102,134 102,132 99,133.5 				"/>
				<polygon fill="#762C07" points="95,137.5 98,136 98,134 95,135.5 				"/>
				<polygon fill="#762C07" points="91,139.5 94,138 94,136 91,137.5 				"/>
				<polygon fill="#762C07" points="87,141.5 90,140 90,138 87,139.5 				"/>
				<polygon fill="#762C07" points="83,143.5 86,142 86,140 83,141.5 				"/>
				<polygon fill="#762C07" points="79,145.5 82,144 82,142 79,143.5 				"/>
				<polygon fill="#762C07" points="75,147.5 78,146 78,144 75,145.5 				"/>
				<polygon fill="#762C07" points="71,149.5 74,148 74,146 71,147.5 				"/>
				<polygon fill="#762C07" points="67,151.5 70,150 70,148 67,149.5 				"/>
				<polygon fill="#762C07" points="117,129.5 120,128 120,126 117,127.5 				"/>
				<polygon fill="#762C07" points="113,131.5 116,130 116,128 113,129.5 				"/>
				<polygon fill="#762C07" points="109,133.5 112,132 112,130 109,131.5 				"/>
				<polygon fill="#762C07" points="105,135.5 108,134 108,132 105,133.5 				"/>
				<polygon fill="#762C07" points="101,137.5 104,136 104,134 101,135.5 				"/>
				<polygon fill="#762C07" points="97,139.5 100,138 100,136 97,137.5 				"/>
				<polygon fill="#762C07" points="93,141.5 96,140 96,138 93,139.5 				"/>
				<polygon fill="#762C07" points="89,143.5 92,142 92,140 89,141.5 				"/>
				<polygon fill="#762C07" points="85,145.5 88,144 88,142 85,143.5 				"/>
				<polygon fill="#762C07" points="81,147.5 84,146 84,144 81,145.5 				"/>
				<polygon fill="#762C07" points="77,149.5 80,148 80,146 77,147.5 				"/>
				<polygon fill="#762C07" points="73,151.5 76,150 76,148 73,149.5 				"/>
				<polygon fill="#762C07" points="69,153.5 72,152 72,150 69,151.5 				"/>
				<polygon fill="#762C07" points="67,154.5 68,154 68,152 67,152.5 				"/>
				<polygon fill="#762C07" points="121,127.5 122,127 122,125 121,125.5 				"/>
				<polygon fill="#762C07" points="119,119.5 122,118 122,116 119,117.5 				"/>
				<polygon fill="#762C07" points="115,121.5 118,120 118,118 115,119.5 				"/>
				<polygon fill="#762C07" points="111,123.5 114,122 114,120 111,121.5 				"/>
				<polygon fill="#762C07" points="107,125.5 110,124 110,122 107,123.5 				"/>
				<polygon fill="#762C07" points="103,127.5 106,126 106,124 103,125.5 				"/>
				<polygon fill="#762C07" points="99,129.5 102,128 102,126 99,127.5 				"/>
				<polygon fill="#762C07" points="95,131.5 98,130 98,128 95,129.5 				"/>
				<polygon fill="#762C07" points="91,133.5 94,132 94,130 91,131.5 				"/>
				<polygon fill="#762C07" points="87,135.5 90,134 90,132 87,133.5 				"/>
				<polygon fill="#762C07" points="83,137.5 86,136 86,134 83,135.5 				"/>
				<polygon fill="#762C07" points="79,139.5 82,138 82,136 79,137.5 				"/>
				<polygon fill="#762C07" points="75,141.5 78,140 78,138 75,139.5 				"/>
				<polygon fill="#762C07" points="71,143.5 74,142 74,140 71,141.5 				"/>
				<polygon fill="#762C07" points="67,145.5 70,144 70,142 67,143.5 				"/>
				<polygon fill="#762C07" points="117,123.5 120,122 120,120 117,121.5 				"/>
				<polygon fill="#762C07" points="113,125.5 116,124 116,122 113,123.5 				"/>
				<polygon fill="#762C07" points="109,127.5 112,126 112,124 109,125.5 				"/>
				<polygon fill="#762C07" points="105,129.5 108,128 108,126 105,127.5 				"/>
				<polygon fill="#762C07" points="101,131.5 104,130 104,128 101,129.5 				"/>
				<polygon fill="#762C07" points="97,133.5 100,132 100,130 97,131.5 				"/>
				<polygon fill="#762C07" points="93,135.5 96,134 96,132 93,133.5 				"/>
				<polygon fill="#762C07" points="89,137.5 92,136 92,134 89,135.5 				"/>
				<polygon fill="#762C07" points="85,139.5 88,138 88,136 85,137.5 				"/>
				<polygon fill="#762C07" points="81,141.5 84,140 84,138 81,139.5 				"/>
				<polygon fill="#762C07" points="77,143.5 80,142 80,140 77,141.5 				"/>
				<polygon fill="#762C07" points="73,145.5 76,144 76,142 73,143.5 				"/>
				<polygon fill="#762C07" points="69,147.5 72,146 72,144 69,145.5 				"/>
				<polygon fill="#762C07" points="67,148.5 68,148 68,146 67,146.5 				"/>
				<polygon fill="#762C07" points="121,121.5 122,121 122,119 121,119.5 				"/>
				<polygon fill="#762C07" points="119,113.5 122,112 122,110 119,111.5 				"/>
				<polygon fill="#762C07" points="115,115.5 118,114 118,112 115,113.5 				"/>
				<polygon fill="#762C07" points="111,117.5 114,116 114,114 111,115.5 				"/>
				<polygon fill="#762C07" points="107,119.5 110,118 110,116 107,117.5 				"/>
				<polygon fill="#762C07" points="103,121.5 106,120 106,118 103,119.5 				"/>
				<polygon fill="#762C07" points="99,123.5 102,122 102,120 99,121.5 				"/>
				<polygon fill="#762C07" points="95,125.5 98,124 98,122 95,123.5 				"/>
				<polygon fill="#762C07" points="91,127.5 94,126 94,124 91,125.5 				"/>
				<polygon fill="#762C07" points="87,129.5 90,128 90,126 87,127.5 				"/>
				<polygon fill="#762C07" points="83,131.5 86,130 86,128 83,129.5 				"/>
				<polygon fill="#762C07" points="79,133.5 82,132 82,130 79,131.5 				"/>
				<polygon fill="#762C07" points="75,135.5 78,134 78,132 75,133.5 				"/>
				<polygon fill="#762C07" points="71,137.5 74,136 74,134 71,135.5 				"/>
				<polygon fill="#762C07" points="67,139.5 70,138 70,136 67,137.5 				"/>
				<polygon fill="#762C07" points="117,117.5 120,116 120,114 117,115.5 				"/>
				<polygon fill="#762C07" points="113,119.5 116,118 116,116 113,117.5 				"/>
				<polygon fill="#762C07" points="109,121.5 112,120 112,118 109,119.5 				"/>
				<polygon fill="#762C07" points="105,123.5 108,122 108,120 105,121.5 				"/>
				<polygon fill="#762C07" points="101,125.5 104,124 104,122 101,123.5 				"/>
				<polygon fill="#762C07" points="97,127.5 100,126 100,124 97,125.5 				"/>
				<polygon fill="#762C07" points="93,129.5 96,128 96,126 93,127.5 				"/>
				<polygon fill="#762C07" points="89,131.5 92,130 92,128 89,129.5 				"/>
				<polygon fill="#762C07" points="85,133.5 88,132 88,130 85,131.5 				"/>
				<polygon fill="#762C07" points="81,135.5 84,134 84,132 81,133.5 				"/>
				<polygon fill="#762C07" points="77,137.5 80,136 80,134 77,135.5 				"/>
				<polygon fill="#762C07" points="73,139.5 76,138 76,136 73,137.5 				"/>
				<polygon fill="#762C07" points="69,141.5 72,140 72,138 69,139.5 				"/>
				<polygon fill="#762C07" points="67,142.5 68,142 68,140 67,140.5 				"/>
				<polygon fill="#762C07" points="121,115.5 122,115 122,113 121,113.5 				"/>
				<polygon fill="#762C07" points="119,107.5 122,106 122,104 119,105.5 				"/>
				<polygon fill="#762C07" points="115,109.5 118,108 118,106 115,107.5 				"/>
				<polygon fill="#762C07" points="111,111.5 114,110 114,108 111,109.5 				"/>
				<polygon fill="#762C07" points="107,113.5 110,112 110,110 107,111.5 				"/>
				<polygon fill="#762C07" points="103,115.5 106,114 106,112 103,113.5 				"/>
				<polygon fill="#762C07" points="99,117.5 102,116 102,114 99,115.5 				"/>
				<polygon fill="#762C07" points="95,119.5 98,118 98,116 95,117.5 				"/>
				<polygon fill="#762C07" points="91,121.5 94,120 94,118 91,119.5 				"/>
				<polygon fill="#762C07" points="87,123.5 90,122 90,120 87,121.5 				"/>
				<polygon fill="#762C07" points="83,125.5 86,124 86,122 83,123.5 				"/>
				<polygon fill="#762C07" points="79,127.5 82,126 82,124 79,125.5 				"/>
				<polygon fill="#762C07" points="75,129.5 78,128 78,126 75,127.5 				"/>
				<polygon fill="#762C07" points="71,131.5 74,130 74,128 71,129.5 				"/>
				<polygon fill="#762C07" points="67,133.5 70,132 70,130 67,131.5 				"/>
				<polygon fill="#762C07" points="117,111.5 120,110 120,108 117,109.5 				"/>
				<polygon fill="#762C07" points="113,113.5 116,112 116,110 113,111.5 				"/>
				<polygon fill="#762C07" points="109,115.5 112,114 112,112 109,113.5 				"/>
				<polygon fill="#762C07" points="105,117.5 108,116 108,114 105,115.5 				"/>
				<polygon fill="#762C07" points="101,119.5 104,118 104,116 101,117.5 				"/>
				<polygon fill="#762C07" points="97,121.5 100,120 100,118 97,119.5 				"/>
				<polygon fill="#762C07" points="93,123.5 96,122 96,120 93,121.5 				"/>
				<polygon fill="#762C07" points="89,125.5 92,124 92,122 89,123.5 				"/>
				<polygon fill="#762C07" points="85,127.5 88,126 88,124 85,125.5 				"/>
				<polygon fill="#762C07" points="81,129.5 84,128 84,126 81,127.5 				"/>
				<polygon fill="#762C07" points="77,131.5 80,130 80,128 77,129.5 				"/>
				<polygon fill="#762C07" points="73,133.5 76,132 76,130 73,131.5 				"/>
				<polygon fill="#762C07" points="69,135.5 72,134 72,132 69,133.5 				"/>
				<polygon fill="#762C07" points="67,136.5 68,136 68,134 67,134.5 				"/>
				<polygon fill="#762C07" points="121,109.5 122,109 122,107 121,107.5 				"/>
				<polygon fill="#762C07" points="119,101.5 122,100 122,98 119,99.5 				"/>
				<polygon fill="#762C07" points="115,103.5 118,102 118,100 115,101.5 				"/>
				<polygon fill="#762C07" points="111,105.5 114,104 114,102 111,103.5 				"/>
				<polygon fill="#762C07" points="107,107.5 110,106 110,104 107,105.5 				"/>
				<polygon fill="#762C07" points="103,109.5 106,108 106,106 103,107.5 				"/>
				<polygon fill="#762C07" points="99,111.5 102,110 102,108 99,109.5 				"/>
				<polygon fill="#762C07" points="95,113.5 98,112 98,110 95,111.5 				"/>
				<polygon fill="#762C07" points="91,115.5 94,114 94,112 91,113.5 				"/>
				<polygon fill="#762C07" points="87,117.5 90,116 90,114 87,115.5 				"/>
				<polygon fill="#762C07" points="83,119.5 86,118 86,116 83,117.5 				"/>
				<polygon fill="#762C07" points="79,121.5 82,120 82,118 79,119.5 				"/>
				<polygon fill="#762C07" points="75,123.5 78,122 78,120 75,121.5 				"/>
				<polygon fill="#762C07" points="71,125.5 74,124 74,122 71,123.5 				"/>
				<polygon fill="#762C07" points="67,127.5 70,126 70,124 67,125.5 				"/>
				<polygon fill="#762C07" points="117,105.5 120,104 120,102 117,103.5 				"/>
				<polygon fill="#762C07" points="113,107.5 116,106 116,104 113,105.5 				"/>
				<polygon fill="#762C07" points="109,109.5 112,108 112,106 109,107.5 				"/>
				<polygon fill="#762C07" points="105,111.5 108,110 108,108 105,109.5 				"/>
				<polygon fill="#762C07" points="101,113.5 104,112 104,110 101,111.5 				"/>
				<polygon fill="#762C07" points="97,115.5 100,114 100,112 97,113.5 				"/>
				<polygon fill="#762C07" points="93,117.5 96,116 96,114 93,115.5 				"/>
				<polygon fill="#762C07" points="89,119.5 92,118 92,116 89,117.5 				"/>
				<polygon fill="#762C07" points="85,121.5 88,120 88,118 85,119.5 				"/>
				<polygon fill="#762C07" points="81,123.5 84,122 84,120 81,121.5 				"/>
				<polygon fill="#762C07" points="77,125.5 80,124 80,122 77,123.5 				"/>
				<polygon fill="#762C07" points="73,127.5 76,126 76,124 73,125.5 				"/>
				<polygon fill="#762C07" points="69,129.5 72,128 72,126 69,127.5 				"/>
				<polygon fill="#762C07" points="67,130.5 68,130 68,128 67,128.5 				"/>
				<polygon fill="#762C07" points="121,103.5 122,103 122,101 121,101.5 				"/>
				<polygon fill="#762C07" points="119,95.5 122,94 122,92 119,93.5 				"/>
				<polygon fill="#762C07" points="115,97.5 118,96 118,94 115,95.5 				"/>
				<polygon fill="#762C07" points="111,99.5 114,98 114,96 111,97.5 				"/>
				<polygon fill="#762C07" points="107,101.5 110,100 110,98 107,99.5 				"/>
				<polygon fill="#762C07" points="103,103.5 106,102 106,100 103,101.5 				"/>
				<polygon fill="#762C07" points="99,105.5 102,104 102,102 99,103.5 				"/>
				<polygon fill="#762C07" points="95,107.5 98,106 98,104 95,105.5 				"/>
				<polygon fill="#762C07" points="91,109.5 94,108 94,106 91,107.5 				"/>
				<polygon fill="#762C07" points="87,111.5 90,110 90,108 87,109.5 				"/>
				<polygon fill="#762C07" points="83,113.5 86,112 86,110 83,111.5 				"/>
				<polygon fill="#762C07" points="79,115.5 82,114 82,112 79,113.5 				"/>
				<polygon fill="#762C07" points="75,117.5 78,116 78,114 75,115.5 				"/>
				<polygon fill="#762C07" points="71,119.5 74,118 74,116 71,117.5 				"/>
				<polygon fill="#762C07" points="67,121.5 70,120 70,118 67,119.5 				"/>
				<polygon fill="#762C07" points="117,99.5 120,98 120,96 117,97.5 				"/>
				<polygon fill="#762C07" points="113,101.5 116,100 116,98 113,99.5 				"/>
				<polygon fill="#762C07" points="109,103.5 112,102 112,100 109,101.5 				"/>
				<polygon fill="#762C07" points="105,105.5 108,104 108,102 105,103.5 				"/>
				<polygon fill="#762C07" points="101,107.5 104,106 104,104 101,105.5 				"/>
				<polygon fill="#762C07" points="97,109.5 100,108 100,106 97,107.5 				"/>
				<polygon fill="#762C07" points="93,111.5 96,110 96,108 93,109.5 				"/>
				<polygon fill="#762C07" points="89,113.5 92,112 92,110 89,111.5 				"/>
				<polygon fill="#762C07" points="85,115.5 88,114 88,112 85,113.5 				"/>
				<polygon fill="#762C07" points="81,117.5 84,116 84,114 81,115.5 				"/>
				<polygon fill="#762C07" points="77,119.5 80,118 80,116 77,117.5 				"/>
				<polygon fill="#762C07" points="73,121.5 76,120 76,118 73,119.5 				"/>
				<polygon fill="#762C07" points="69,123.5 72,122 72,120 69,121.5 				"/>
				<polygon fill="#762C07" points="67,124.5 68,124 68,122 67,122.5 				"/>
				<polygon fill="#762C07" points="121,97.5 122,97 122,95 121,95.5 				"/>
				<polygon fill="#762C07" points="119,89.5 122,88 122,86 119,87.5 				"/>
				<polygon fill="#762C07" points="115,91.5 118,90 118,88 115,89.5 				"/>
				<polygon fill="#762C07" points="111,93.5 114,92 114,90 111,91.5 				"/>
				<polygon fill="#762C07" points="107,95.5 110,94 110,92 107,93.5 				"/>
				<polygon fill="#762C07" points="103,97.5 106,96 106,94 103,95.5 				"/>
				<polygon fill="#762C07" points="99,99.5 102,98 102,96 99,97.5 				"/>
				<polygon fill="#762C07" points="95,101.5 98,100 98,98 95,99.5 				"/>
				<polygon fill="#762C07" points="91,103.5 94,102 94,100 91,101.5 				"/>
				<polygon fill="#762C07" points="87,105.5 90,104 90,102 87,103.5 				"/>
				<polygon fill="#762C07" points="83,107.5 86,106 86,104 83,105.5 				"/>
				<polygon fill="#762C07" points="79,109.5 82,108 82,106 79,107.5 				"/>
				<polygon fill="#762C07" points="75,111.5 78,110 78,108 75,109.5 				"/>
				<polygon fill="#762C07" points="71,113.5 74,112 74,110 71,111.5 				"/>
				<polygon fill="#762C07" points="67,115.5 70,114 70,112 67,113.5 				"/>
				<polygon fill="#762C07" points="117,93.5 120,92 120,90 117,91.5 				"/>
				<polygon fill="#762C07" points="113,95.5 116,94 116,92 113,93.5 				"/>
				<polygon fill="#762C07" points="109,97.5 112,96 112,94 109,95.5 				"/>
				<polygon fill="#762C07" points="105,99.5 108,98 108,96 105,97.5 				"/>
				<polygon fill="#762C07" points="101,101.5 104,100 104,98 101,99.5 				"/>
				<polygon fill="#762C07" points="97,103.5 100,102 100,100 97,101.5 				"/>
				<polygon fill="#762C07" points="93,105.5 96,104 96,102 93,103.5 				"/>
				<polygon fill="#762C07" points="89,107.5 92,106 92,104 89,105.5 				"/>
				<polygon fill="#762C07" points="85,109.5 88,108 88,106 85,107.5 				"/>
				<polygon fill="#762C07" points="81,111.5 84,110 84,108 81,109.5 				"/>
				<polygon fill="#762C07" points="77,113.5 80,112 80,110 77,111.5 				"/>
				<polygon fill="#762C07" points="73,115.5 76,114 76,112 73,113.5 				"/>
				<polygon fill="#762C07" points="69,117.5 72,116 72,114 69,115.5 				"/>
				<polygon fill="#762C07" points="67,118.5 68,118 68,116 67,116.5 				"/>
				<polygon fill="#762C07" points="121,91.5 122,91 122,89 121,89.5 				"/>
				<polygon fill="#762C07" points="119,83.5 122,82 122,80 119,81.5 				"/>
				<polygon fill="#762C07" points="115,85.5 118,84 118,82 115,83.5 				"/>
				<polygon fill="#762C07" points="111,87.5 114,86 114,84 111,85.5 				"/>
				<polygon fill="#762C07" points="107,89.5 110,88 110,86 107,87.5 				"/>
				<polygon fill="#762C07" points="103,91.5 106,90 106,88 103,89.5 				"/>
				<polygon fill="#762C07" points="99,93.5 102,92 102,90 99,91.5 				"/>
				<polygon fill="#762C07" points="95,95.5 98,94 98,92 95,93.5 				"/>
				<polygon fill="#762C07" points="91,97.5 94,96 94,94 91,95.5 				"/>
				<polygon fill="#762C07" points="87,99.5 90,98 90,96 87,97.5 				"/>
				<polygon fill="#762C07" points="83,101.5 86,100 86,98 83,99.5 				"/>
				<polygon fill="#762C07" points="79,103.5 82,102 82,100 79,101.5 				"/>
				<polygon fill="#762C07" points="75,105.5 78,104 78,102 75,103.5 				"/>
				<polygon fill="#762C07" points="71,107.5 74,106 74,104 71,105.5 				"/>
				<polygon fill="#762C07" points="67,109.5 70,108 70,106 67,107.5 				"/>
				<polygon fill="#762C07" points="117,87.5 120,86 120,84 117,85.5 				"/>
				<polygon fill="#762C07" points="113,89.5 116,88 116,86 113,87.5 				"/>
				<polygon fill="#762C07" points="109,91.5 112,90 112,88 109,89.5 				"/>
				<polygon fill="#762C07" points="105,93.5 108,92 108,90 105,91.5 				"/>
				<polygon fill="#762C07" points="101,95.5 104,94 104,92 101,93.5 				"/>
				<polygon fill="#762C07" points="97,97.5 100,96 100,94 97,95.5 				"/>
				<polygon fill="#762C07" points="93,99.5 96,98 96,96 93,97.5 				"/>
				<polygon fill="#762C07" points="89,101.5 92,100 92,98 89,99.5 				"/>
				<polygon fill="#762C07" points="85,103.5 88,102 88,100 85,101.5 				"/>
				<polygon fill="#762C07" points="81,105.5 84,104 84,102 81,103.5 				"/>
				<polygon fill="#762C07" points="77,107.5 80,106 80,104 77,105.5 				"/>
				<polygon fill="#762C07" points="73,109.5 76,108 76,106 73,107.5 				"/>
				<polygon fill="#762C07" points="69,111.5 72,110 72,108 69,109.5 				"/>
				<polygon fill="#762C07" points="67,112.5 68,112 68,110 67,110.5 				"/>
				<polygon fill="#762C07" points="121,85.5 122,85 122,83 121,83.5 				"/>
				<polygon fill="#762C07" points="119,77.5 122,76 122,74 119,75.5 				"/>
				<polygon fill="#762C07" points="115,79.5 118,78 118,76 115,77.5 				"/>
				<polygon fill="#762C07" points="111,81.5 114,80 114,78 111,79.5 				"/>
				<polygon fill="#762C07" points="107,83.5 110,82 110,80 107,81.5 				"/>
				<polygon fill="#762C07" points="103,85.5 106,84 106,82 103,83.5 				"/>
				<polygon fill="#762C07" points="99,87.5 102,86 102,84 99,85.5 				"/>
				<polygon fill="#762C07" points="95,89.5 98,88 98,86 95,87.5 				"/>
				<polygon fill="#762C07" points="91,91.5 94,90 94,88 91,89.5 				"/>
				<polygon fill="#762C07" points="87,93.5 90,92 90,90 87,91.5 				"/>
				<polygon fill="#762C07" points="83,95.5 86,94 86,92 83,93.5 				"/>
				<polygon fill="#762C07" points="79,97.5 82,96 82,94 79,95.5 				"/>
				<polygon fill="#762C07" points="75,99.5 78,98 78,96 75,97.5 				"/>
				<polygon fill="#762C07" points="71,101.5 74,100 74,98 71,99.5 				"/>
				<polygon fill="#762C07" points="67,103.5 70,102 70,100 67,101.5 				"/>
				<polygon fill="#762C07" points="117,81.5 120,80 120,78 117,79.5 				"/>
				<polygon fill="#762C07" points="113,83.5 116,82 116,80 113,81.5 				"/>
				<polygon fill="#762C07" points="109,85.5 112,84 112,82 109,83.5 				"/>
				<polygon fill="#762C07" points="105,87.5 108,86 108,84 105,85.5 				"/>
				<polygon fill="#762C07" points="101,89.5 104,88 104,86 101,87.5 				"/>
				<polygon fill="#762C07" points="97,91.5 100,90 100,88 97,89.5 				"/>
				<polygon fill="#762C07" points="93,93.5 96,92 96,90 93,91.5 				"/>
				<polygon fill="#762C07" points="89,95.5 92,94 92,92 89,93.5 				"/>
				<polygon fill="#762C07" points="85,97.5 88,96 88,94 85,95.5 				"/>
				<polygon fill="#762C07" points="81,99.5 84,98 84,96 81,97.5 				"/>
				<polygon fill="#762C07" points="77,101.5 80,100 80,98 77,99.5 				"/>
				<polygon fill="#762C07" points="73,103.5 76,102 76,100 73,101.5 				"/>
				<polygon fill="#762C07" points="69,105.5 72,104 72,102 69,103.5 				"/>
				<polygon fill="#762C07" points="67,106.5 68,106 68,104 67,104.5 				"/>
				<polygon fill="#762C07" points="121,79.5 122,79 122,77 121,77.5 				"/>
				<polygon fill="#762C07" points="117,75.5 120,74 120,72 117,73.5 				"/>
				<polygon fill="#762C07" points="113,77.5 116,76 116,74 113,75.5 				"/>
				<polygon fill="#762C07" points="109,79.5 112,78 112,76 109,77.5 				"/>
				<polygon fill="#762C07" points="105,81.5 108,80 108,78 105,79.5 				"/>
				<polygon fill="#762C07" points="101,83.5 104,82 104,80 101,81.5 				"/>
				<polygon fill="#762C07" points="97,85.5 100,84 100,82 97,83.5 				"/>
				<polygon fill="#762C07" points="93,87.5 96,86 96,84 93,85.5 				"/>
				<polygon fill="#762C07" points="89,89.5 92,88 92,86 89,87.5 				"/>
				<polygon fill="#762C07" points="85,91.5 88,90 88,88 85,89.5 				"/>
				<polygon fill="#762C07" points="81,93.5 84,92 84,90 81,91.5 				"/>
				<polygon fill="#762C07" points="77,95.5 80,94 80,92 77,93.5 				"/>
				<polygon fill="#762C07" points="73,97.5 76,96 76,94 73,95.5 				"/>
				<polygon fill="#762C07" points="69,99.5 72,98 72,96 69,97.5 				"/>
				<polygon fill="#762C07" points="67,100.5 68,100 68,98 67,98.5 				"/>
				<polygon fill="#762C07" points="121,73.5 122,73 122,71 121,71.5 				"/>
			</g>
			<g opacity="0.3">
				<polygon fill="#762C07" points="119,71.5 122,70 122,68 119,69.5 				"/>
				<polygon fill="#762C07" points="115,73.5 118,72 118,70 115,71.5 				"/>
				<polygon fill="#762C07" points="111,75.5 114,74 114,72 111,73.5 				"/>
				<polygon fill="#762C07" points="107,77.5 110,76 110,74 107,75.5 				"/>
				<polygon fill="#762C07" points="103,79.5 106,78 106,76 103,77.5 				"/>
				<polygon fill="#762C07" points="99,81.5 102,80 102,78 99,79.5 				"/>
				<polygon fill="#762C07" points="95,83.5 98,82 98,80 95,81.5 				"/>
				<polygon fill="#762C07" points="91,85.5 94,84 94,82 91,83.5 				"/>
				<polygon fill="#762C07" points="87,87.5 90,86 90,84 87,85.5 				"/>
				<polygon fill="#762C07" points="83,89.5 86,88 86,86 83,87.5 				"/>
				<polygon fill="#762C07" points="79,91.5 82,90 82,88 79,89.5 				"/>
				<polygon fill="#762C07" points="75,93.5 78,92 78,90 75,91.5 				"/>
				<polygon fill="#762C07" points="71,95.5 74,94 74,92 71,93.5 				"/>
				<polygon fill="#762C07" points="67,97.5 70,96 70,94 67,95.5 				"/>
				<polygon fill="#762C07" points="119,65.5 122,64 122,62 119,63.5 				"/>
				<polygon fill="#762C07" points="115,67.5 118,66 118,64 115,65.5 				"/>
				<polygon fill="#762C07" points="111,69.5 114,68 114,66 111,67.5 				"/>
				<polygon fill="#762C07" points="107,71.5 110,70 110,68 107,69.5 				"/>
				<polygon fill="#762C07" points="103,73.5 106,72 106,70 103,71.5 				"/>
				<polygon fill="#762C07" points="99,75.5 102,74 102,72 99,73.5 				"/>
				<polygon fill="#762C07" points="95,77.5 98,76 98,74 95,75.5 				"/>
				<polygon fill="#762C07" points="91,79.5 94,78 94,76 91,77.5 				"/>
				<polygon fill="#762C07" points="87,81.5 90,80 90,78 87,79.5 				"/>
				<polygon fill="#762C07" points="83,83.5 86,82 86,80 83,81.5 				"/>
				<polygon fill="#762C07" points="79,85.5 82,84 82,82 79,83.5 				"/>
				<polygon fill="#762C07" points="75,87.5 78,86 78,84 75,85.5 				"/>
				<polygon fill="#762C07" points="71,89.5 74,88 74,86 71,87.5 				"/>
				<polygon fill="#762C07" points="67,91.5 70,90 70,88 67,89.5 				"/>
				<polygon fill="#762C07" points="117,69.5 120,68 120,66 117,67.5 				"/>
				<polygon fill="#762C07" points="113,71.5 116,70 116,68 113,69.5 				"/>
				<polygon fill="#762C07" points="109,73.5 112,72 112,70 109,71.5 				"/>
				<polygon fill="#762C07" points="105,75.5 108,74 108,72 105,73.5 				"/>
				<polygon fill="#762C07" points="101,77.5 104,76 104,74 101,75.5 				"/>
				<polygon fill="#762C07" points="97,79.5 100,78 100,76 97,77.5 				"/>
				<polygon fill="#762C07" points="93,81.5 96,80 96,78 93,79.5 				"/>
				<polygon fill="#762C07" points="89,83.5 92,82 92,80 89,81.5 				"/>
				<polygon fill="#762C07" points="85,85.5 88,84 88,82 85,83.5 				"/>
				<polygon fill="#762C07" points="81,87.5 84,86 84,84 81,85.5 				"/>
				<polygon fill="#762C07" points="77,89.5 80,88 80,86 77,87.5 				"/>
				<polygon fill="#762C07" points="73,91.5 76,90 76,88 73,89.5 				"/>
				<polygon fill="#762C07" points="69,93.5 72,92 72,90 69,91.5 				"/>
				<polygon fill="#762C07" points="67,94.5 68,94 68,92 67,92.5 				"/>
				<polygon fill="#762C07" points="121,67.5 122,67 122,65 121,65.5 				"/>
				<polygon fill="#762C07" points="115,61.5 118,60 118,58 115,59.5 				"/>
				<polygon fill="#762C07" points="111,63.5 114,62 114,60 111,61.5 				"/>
				<polygon fill="#762C07" points="107,65.5 110,64 110,62 107,63.5 				"/>
				<polygon fill="#762C07" points="103,67.5 106,66 106,64 103,65.5 				"/>
				<polygon fill="#762C07" points="99,69.5 102,68 102,66 99,67.5 				"/>
				<polygon fill="#762C07" points="95,71.5 98,70 98,68 95,69.5 				"/>
				<polygon fill="#762C07" points="91,73.5 94,72 94,70 91,71.5 				"/>
				<polygon fill="#762C07" points="87,75.5 90,74 90,72 87,73.5 				"/>
				<polygon fill="#762C07" points="83,77.5 86,76 86,74 83,75.5 				"/>
				<polygon fill="#762C07" points="79,79.5 82,78 82,76 79,77.5 				"/>
				<polygon fill="#762C07" points="75,81.5 78,80 78,78 75,79.5 				"/>
				<polygon fill="#762C07" points="71,83.5 74,82 74,80 71,81.5 				"/>
				<polygon fill="#762C07" points="117,63.5 120,62 120,60 117,61.5 				"/>
				<polygon fill="#762C07" points="113,65.5 116,64 116,62 113,63.5 				"/>
				<polygon fill="#762C07" points="109,67.5 112,66 112,64 109,65.5 				"/>
				<polygon fill="#762C07" points="105,69.5 108,68 108,66 105,67.5 				"/>
				<polygon fill="#762C07" points="101,71.5 104,70 104,68 101,69.5 				"/>
				<polygon fill="#762C07" points="97,73.5 100,72 100,70 97,71.5 				"/>
				<polygon fill="#762C07" points="93,75.5 96,74 96,72 93,73.5 				"/>
				<polygon fill="#762C07" points="89,77.5 92,76 92,74 89,75.5 				"/>
				<polygon fill="#762C07" points="85,79.5 88,78 88,76 85,77.5 				"/>
				<polygon fill="#762C07" points="81,81.5 84,80 84,78 81,79.5 				"/>
				<polygon fill="#762C07" points="77,83.5 80,82 80,80 77,81.5 				"/>
				<polygon fill="#762C07" points="73,85.5 76,84 76,82 73,83.5 				"/>
				<polygon fill="#762C07" points="69,87.5 72,86 72,84 69,85.5 				"/>
				<polygon fill="#762C07" points="111,57.5 114,56 114,54 111,55.5 				"/>
				<polygon fill="#762C07" points="107,59.5 110,58 110,56 107,57.5 				"/>
				<polygon fill="#762C07" points="103,61.5 106,60 106,58 103,59.5 				"/>
				<polygon fill="#762C07" points="99,63.5 102,62 102,60 99,61.5 				"/>
				<polygon fill="#762C07" points="95,65.5 98,64 98,62 95,63.5 				"/>
				<polygon fill="#762C07" points="91,67.5 94,66 94,64 91,65.5 				"/>
				<polygon fill="#762C07" points="87,69.5 90,68 90,66 87,67.5 				"/>
				<polygon fill="#762C07" points="83,71.5 86,70 86,68 83,69.5 				"/>
				<polygon fill="#762C07" points="79,73.5 82,72 82,70 79,71.5 				"/>
				<polygon fill="#762C07" points="75,75.5 78,74 78,72 75,73.5 				"/>
				<polygon fill="#762C07" points="113,59.5 116,58 116,56 113,57.5 				"/>
				<polygon fill="#762C07" points="109,61.5 112,60 112,58 109,59.5 				"/>
				<polygon fill="#762C07" points="105,63.5 108,62 108,60 105,61.5 				"/>
				<polygon fill="#762C07" points="101,65.5 104,64 104,62 101,63.5 				"/>
				<polygon fill="#762C07" points="97,67.5 100,66 100,64 97,65.5 				"/>
				<polygon fill="#762C07" points="93,69.5 96,68 96,66 93,67.5 				"/>
				<polygon fill="#762C07" points="89,71.5 92,70 92,68 89,69.5 				"/>
				<polygon fill="#762C07" points="85,73.5 88,72 88,70 85,71.5 				"/>
				<polygon fill="#762C07" points="81,75.5 84,74 84,72 81,73.5 				"/>
				<polygon fill="#762C07" points="77,77.5 80,76 80,74 77,75.5 				"/>
				<polygon fill="#762C07" points="73,79.5 76,78 76,76 73,77.5 				"/>
				<polygon fill="#762C07" points="107,53.5 110,52 110,50 107,51.5 				"/>
				<polygon fill="#762C07" points="103,55.5 106,54 106,52 103,53.5 				"/>
				<polygon fill="#762C07" points="99,57.5 102,56 102,54 99,55.5 				"/>
				<polygon fill="#762C07" points="95,59.5 98,58 98,56 95,57.5 				"/>
				<polygon fill="#762C07" points="91,61.5 94,60 94,58 91,59.5 				"/>
				<polygon fill="#762C07" points="87,63.5 90,62 90,60 87,61.5 				"/>
				<polygon fill="#762C07" points="83,65.5 86,64 86,62 83,63.5 				"/>
				<polygon fill="#762C07" points="79,67.5 82,66 82,64 79,65.5 				"/>
				<polygon fill="#762C07" points="109,55.5 112,54 112,52 109,53.5 				"/>
				<polygon fill="#762C07" points="105,57.5 108,56 108,54 105,55.5 				"/>
				<polygon fill="#762C07" points="101,59.5 104,58 104,56 101,57.5 				"/>
				<polygon fill="#762C07" points="97,61.5 100,60 100,58 97,59.5 				"/>
				<polygon fill="#762C07" points="93,63.5 96,62 96,60 93,61.5 				"/>
				<polygon fill="#762C07" points="89,65.5 92,64 92,62 89,63.5 				"/>
				<polygon fill="#762C07" points="85,67.5 88,66 88,64 85,65.5 				"/>
				<polygon fill="#762C07" points="81,69.5 84,68 84,66 81,67.5 				"/>
				<polygon fill="#762C07" points="77,71.5 80,70 80,68 77,69.5 				"/>
				<polygon fill="#762C07" points="103,49.5 106,48 106,46 103,47.5 				"/>
				<polygon fill="#762C07" points="99,51.5 102,50 102,48 99,49.5 				"/>
				<polygon fill="#762C07" points="95,53.5 98,52 98,50 95,51.5 				"/>
				<polygon fill="#762C07" points="91,55.5 94,54 94,52 91,53.5 				"/>
				<polygon fill="#762C07" points="87,57.5 90,56 90,54 87,55.5 				"/>
				<polygon fill="#762C07" points="83,59.5 86,58 86,56 83,57.5 				"/>
				<polygon fill="#762C07" points="105,51.5 108,50 108,48 105,49.5 				"/>
				<polygon fill="#762C07" points="101,53.5 104,52 104,50 101,51.5 				"/>
				<polygon fill="#762C07" points="97,55.5 100,54 100,52 97,53.5 				"/>
				<polygon fill="#762C07" points="93,57.5 96,56 96,54 93,55.5 				"/>
				<polygon fill="#762C07" points="89,59.5 92,58 92,56 89,57.5 				"/>
				<polygon fill="#762C07" points="85,61.5 88,60 88,58 85,59.5 				"/>
				<polygon fill="#762C07" points="81,63.5 84,62 84,60 81,61.5 				"/>
				<polygon fill="#762C07" points="99,45.5 102,44 102,42 99,43.5 				"/>
				<polygon fill="#762C07" points="95,47.5 98,46 98,44 95,45.5 				"/>
				<polygon fill="#762C07" points="91,49.5 94,48 94,46 91,47.5 				"/>
				<polygon fill="#762C07" points="87,51.5 90,50 90,48 87,49.5 				"/>
				<polygon fill="#762C07" points="101,47.5 104,46 104,44 101,45.5 				"/>
				<polygon fill="#762C07" points="97,49.5 100,48 100,46 97,47.5 				"/>
				<polygon fill="#762C07" points="93,51.5 96,50 96,48 93,49.5 				"/>
				<polygon fill="#762C07" points="89,53.5 92,52 92,50 89,51.5 				"/>
				<polygon fill="#762C07" points="85,55.5 88,54 88,52 85,53.5 				"/>
				<polygon fill="#762C07" points="95,41.5 98,40 98,38 95,39.5 				"/>
				<polygon fill="#762C07" points="91,43.5 94,42 94,40 91,41.5 				"/>
				<polygon fill="#762C07" points="97,43.5 100,42 100,40 97,41.5 				"/>
				<polygon fill="#762C07" points="93,45.5 96,44 96,42 93,43.5 				"/>
				<polygon fill="#762C07" points="89,47.5 92,46 92,44 89,45.5 				"/>
			</g>
			<g opacity="0.5">
				<polygon fill="#762C07" points="117,153.5 120,152 120,150 117,151.5 				"/>
				<polygon fill="#762C07" points="105,159.5 108,158 108,156 105,157.5 				"/>
				<polygon fill="#762C07" points="73,175.5 76,174 76,172 73,173.5 				"/>
				<polygon fill="#762C07" points="107,149.5 110,148 110,146 107,147.5 				"/>
				<polygon fill="#762C07" points="75,165.5 78,164 78,162 75,163.5 				"/>
				<polygon fill="#762C07" points="85,163.5 88,162 88,160 85,161.5 				"/>
				<polygon fill="#762C07" points="111,141.5 114,140 114,138 111,139.5 				"/>
				<polygon fill="#762C07" points="67,163.5 70,162 70,160 67,161.5 				"/>
				<polygon fill="#762C07" points="117,141.5 120,140 120,138 117,139.5 				"/>
				<polygon fill="#762C07" points="93,153.5 96,152 96,150 93,151.5 				"/>
				<polygon fill="#762C07" points="99,141.5 102,140 102,138 99,139.5 				"/>
				<polygon fill="#762C07" points="85,151.5 88,150 88,148 85,149.5 				"/>
				<polygon fill="#762C07" points="95,137.5 98,136 98,134 95,135.5 				"/>
				<polygon fill="#762C07" points="117,129.5 120,128 120,126 117,127.5 				"/>
				<polygon fill="#762C07" points="105,135.5 108,134 108,132 105,133.5 				"/>
				<polygon fill="#762C07" points="77,149.5 80,148 80,146 77,147.5 				"/>
				<polygon fill="#762C07" points="99,93.5 102,92 102,90 99,91.5 				"/>
				<polygon fill="#762C07" points="85,103.5 88,102 88,100 85,101.5 				"/>
				<polygon fill="#762C07" points="95,89.5 98,88 98,86 95,87.5 				"/>
				<polygon fill="#762C07" points="83,83.5 86,82 86,80 83,81.5 				"/>
				<polygon fill="#762C07" points="103,67.5 106,66 106,64 103,65.5 				"/>
				<polygon fill="#762C07" points="89,65.5 92,64 92,62 89,63.5 				"/>
				<polygon fill="#762C07" points="87,57.5 90,56 90,54 87,55.5 				"/>
				<polygon fill="#762C07" points="79,79.5 82,78 82,76 79,77.5 				"/>
				<polygon fill="#762C07" points="99,51.5 102,50 102,48 99,49.5 				"/>
				<polygon fill="#762C07" points="101,77.5 104,76 104,74 101,75.5 				"/>
				<polygon fill="#762C07" points="115,67.5 118,66 118,64 115,65.5 				"/>
				<polygon fill="#762C07" points="117,81.5 120,80 120,78 117,79.5 				"/>
				<polygon fill="#762C07" points="105,87.5 108,86 108,84 105,85.5 				"/>
				<polygon fill="#762C07" points="77,101.5 80,100 80,98 77,99.5 				"/>
				<polygon fill="#762C07" points="115,121.5 118,120 118,118 115,119.5 				"/>
				<polygon fill="#762C07" points="115,91.5 118,90 118,88 115,89.5 				"/>
				<polygon fill="#762C07" points="83,137.5 86,136 86,134 83,135.5 				"/>
				<polygon fill="#762C07" points="71,143.5 74,142 74,140 71,141.5 				"/>
				<polygon fill="#762C07" points="95,125.5 98,124 98,122 95,123.5 				"/>
				<polygon fill="#762C07" points="109,121.5 112,120 112,118 109,119.5 				"/>
				<polygon fill="#762C07" points="107,113.5 110,112 110,110 107,111.5 				"/>
				<polygon fill="#762C07" points="85,127.5 88,126 88,124 85,125.5 				"/>
				<polygon fill="#762C07" points="69,135.5 72,134 72,132 69,133.5 				"/>
				<polygon fill="#762C07" points="73,97.5 76,96 76,94 73,95.5 				"/>
				<polygon fill="#762C07" points="69,117.5 72,116 72,114 69,115.5 				"/>
				<polygon fill="#762C07" points="117,105.5 120,104 120,102 117,103.5 				"/>
				<polygon fill="#762C07" points="97,115.5 100,114 100,112 97,113.5 				"/>
				<polygon fill="#762C07" points="77,125.5 80,124 80,122 77,123.5 				"/>
			</g>
			<g opacity="0.2">
				<polygon fill="#762C07" points="91,169.8 94,168.3 94,166.3 91,167.8 				"/>
				<polygon fill="#762C07" points="103,163.7 106,162.2 106,160.2 103,161.7 				"/>
				<polygon fill="#762C07" points="71,179.8 74,178.3 74,176.3 71,177.8 				"/>
				<polygon fill="#762C07" points="103,157.7 106,156.2 106,154.2 103,155.7 				"/>
				<polygon fill="#762C07" points="71,173.8 74,172.3 74,170.3 71,171.8 				"/>
				<polygon fill="#762C07" points="81,171.8 84,170.3 84,168.3 81,169.8 				"/>
				<polygon fill="#762C07" points="107,149.7 110,148.2 110,146.2 107,147.7 				"/>
				<polygon fill="#762C07" points="113,149.7 116,148.2 116,146.2 113,147.7 				"/>
				<polygon fill="#762C07" points="89,161.8 92,160.3 92,158.3 89,159.8 				"/>
				<polygon fill="#762C07" points="95,149.7 98,148.2 98,146.2 95,147.7 				"/>
				<polygon fill="#762C07" points="81,159.8 84,158.3 84,156.3 81,157.8 				"/>
				<polygon fill="#762C07" points="91,145.8 94,144.3 94,142.3 91,143.8 				"/>
				<polygon fill="#762C07" points="113,137.7 116,136.2 116,134.2 113,135.7 				"/>
				<polygon fill="#762C07" points="101,143.7 104,142.2 104,140.2 101,141.7 				"/>
				<polygon fill="#762C07" points="73,157.8 76,156.3 76,154.3 73,155.8 				"/>
				<polygon fill="#762C07" points="111,129.7 114,128.2 114,126.2 111,127.7 				"/>
				<polygon fill="#762C07" points="79,145.8 82,144.3 82,142.3 79,143.8 				"/>
				<polygon fill="#762C07" points="67,151.8 70,150.3 70,148.3 67,149.8 				"/>
				<polygon fill="#762C07" points="91,133.8 94,132.3 94,130.3 91,131.8 				"/>
				<polygon fill="#762C07" points="105,129.7 108,128.2 108,126.2 105,127.7 				"/>
				<polygon fill="#762C07" points="103,121.7 106,120.2 106,118.2 103,119.7 				"/>
				<polygon fill="#762C07" points="81,135.8 84,134.3 84,132.3 81,133.8 				"/>
				<polygon fill="#762C07" points="113,113.7 116,112.2 116,110.2 113,111.7 				"/>
				<polygon fill="#762C07" points="93,123.8 96,122.2 96,120.2 93,121.8 				"/>
				<polygon fill="#762C07" points="73,133.8 76,132.3 76,130.3 73,131.8 				"/>
			</g>
			<path opacity="0.6" fill="#F8EBCB" d="M76.6,119.4c-0.8-1.3-1.1-3.2-0.6-5.4c1.1-4.7,5-9.3,9.2-10.8c0,0,0-0.1,0-0.1
				C86.4,98,91,93.1,95.5,92c3.2-0.8,5.4,0.6,6.1,3.3c2.3-2.2,5-3.8,7.6-4.4c6.2-1.5,9.9,2.9,8.3,9.9c-0.8,3.5-2.8,7-5.4,9.8
				c0,0.7-0.1,1.5-0.3,2.4c-0.8,3.4-3.1,6.8-6,9c0.4,1.2,0.4,2.7,0.1,4.3c-1.2,5.1-5.7,10-10.2,11.1c-2.8,0.7-4.9-0.3-5.8-2.3
				c-2.5,2.3-5.3,4-8.2,4.6c-7,1.7-11.2-3.3-9.4-11.2C73,125.3,74.6,122.2,76.6,119.4z"/>
			<path opacity="0.6" fill="#FFFFFF" d="M85.5,112.5c0.1-1.7,0.8-3.6,2-5.4c2.5-3.8,6.5-6,9.3-5.2c0,0,0,0,0-0.1
				c2.7-4.1,7.2-6.3,9.9-5c1.9,1,2.5,3.5,1.7,6.3c2.1-0.8,4.1-0.9,5.7-0.1c3.8,1.9,3.8,8,0,13.6c-1.9,2.9-4.4,5-6.9,6.3
				c-0.3,0.7-0.7,1.4-1.1,2.1c-1.9,2.8-4.5,4.7-6.9,5.2c-0.3,1.3-0.9,2.7-1.8,4.1c-2.7,4.1-7.2,6.3-9.9,5c-1.7-0.8-2.3-2.9-1.9-5.3
				c-2.2,0.8-4.4,0.8-6.1,0c-4.3-2.1-4.3-9.1,0-15.5C81.2,116,83.3,113.9,85.5,112.5z"/>
			<g>
				<path fill="#762C07" d="M84,120.8c0,1.9,1.6,2.7,3.5,1.7s3.5-3.3,3.5-5.3s-1.6-2.7-3.5-1.7S84,118.8,84,120.8z M85,120.3
					c0-1.4,1.1-3.1,2.5-3.8c1.4-0.7,2.5-0.1,2.5,1.2s-1.1,3.1-2.5,3.8C86.1,122.2,85,121.6,85,120.3z"/>
				<path fill="#762C07" d="M97,116.7c-5,2.5-9,6.5-9,9s4,2.5,9,0c5-2.5,9-6.5,9-9S102,114.3,97,116.7c5.5-2.8,10-2.8,10,0
					s-4.5,7.2-10,10c-5.5,2.8-10,2.8-10,0S91.5,119.5,97,116.7z"/>
				<path fill="#762C07" d="M89,114.8v4c0,4.4,3.6,6.2,8,4c4.4-2.2,8-7.6,8-12v-4c0-1.7-3.6-1.2-8,1C92.6,110,89,113.1,89,114.8z
					 M104,107.2c0,1.1-3.1,3.6-7,5.5c-3.9,1.9-7,2.6-7,1.5s3.1-3.6,7-5.5C100.9,106.8,104,106.1,104,107.2z"/>
				<path fill="#762C07" d="M97,110.7c0,0,3-3.8,3-5.5s-2-1.6-2-3c0-1.4,1-4.5,1-4.5s-3,4.3-3,5.5c0,1.9,2,1.2,2,3
					C98,108.1,97,110.7,97,110.7z"/>
				<path fill="#762C07" d="M96,107.2c0,0-2-2.1-2-4c0-3.8,1-5.5,1-5.5s-3,3.3-3,6.5C92,106.8,96,107.2,96,107.2z"/>
			</g>
			<g>
				<path fill="#762C07" d="M78.6,135.4c-0.5-0.4-1.4-0.7-2.1-0.9c0.8-0.9,2-1.3,2.9-0.9c1,0.5,1.1,1.8,0.4,3
					c-0.1,0.1-0.1,0.2-0.2,0.3C79.4,136.4,79.1,135.8,78.6,135.4z"/>
				<path fill="#762C07" d="M76.2,134.9C76.2,134.9,76.2,134.9,76.2,134.9c0.7,0.6,1.7,1.4,1.8,1.6c0.1,0.1,0.6,0.6,1,1
					c-0.8,0.6-1.8,0.8-2.5,0.5C75.6,137.4,75.5,136,76.2,134.9z"/>
			</g>
			<g>
				<path fill="#762C07" d="M83,128.9c0.7-0.9,1.4-2.1,2-3.1c0.5,0.6,0.3,1.9-0.6,3.2c-1,1.5-2.4,2.3-3.2,1.9
					c-0.1,0-0.1-0.1-0.2-0.1C81.7,130.3,82.4,129.6,83,128.9z"/>
				<path fill="#762C07" d="M84.8,125.6C84.8,125.6,84.8,125.6,84.8,125.6c-0.9,1.2-2.3,2.8-2.5,3.1c-0.2,0.2-0.9,1-1.5,1.8
					c-0.2-0.7,0-1.8,0.8-2.9C82.6,126.1,84,125.2,84.8,125.6z"/>
			</g>
		</g>
		<g>
			<g>
				<polygon fill="#BAA794" points="3,157.7 64,188.3 64,96.3 3,65.7 				"/>
				<polygon fill="#3399CC" points="44,174.3 60,182.3 60,168.3 44,160.3 				"/>
				<polygon fill="#3399CC" points="7,155.7 23,163.7 23,149.7 7,141.7 				"/>
				<polygon fill="#3399CC" points="28,170.2 39,175.8 39,157.8 28,152.2 				"/>
				<polygon fill="#762C07" points="39,175.8 62,187.3 62,183.3 39,171.8 				"/>
				<polygon fill="#762C07" points="6,159.2 28,170.2 28,166.2 6,155.2 				"/>
				<polygon fill="#F8EBCB" points="3,158.7 5,159.7 5,68.7 3,67.7 				"/>
				<polygon fill="#F8EBCB" points="6,159.3 5,159.7 5,68.7 6,69.2 				"/>
				<polygon opacity="0.15" points="6,159.3 5,159.7 5,68.7 6,69.2 				"/>
				<polygon fill="#F8EBCB" points="62,188.3 64,189.3 64,98.3 62,97.3 				"/>
				<polygon opacity="0.15" points="3,68.7 64,99.3 64,98.3 3,67.7 				"/>
				<polygon fill="#F8EBCB" points="3,67.7 64,98.3 64,97.3 3,66.7 				"/>
				<polygon opacity="0.5" fill="#FFFFFF" points="39,160.8 39,175.8 38,175.3 38,161.3 34,159.3 34,173.3 33,172.7 33,158.7 
					29,156.7 29,170.7 28,170.2 28,155.2 				"/>
				<polygon opacity="0.15" points="62,97.3 61,96.8 61,186.8 62,187.3 				"/>
				<polygon opacity="0.2" fill="#FFFFFF" points="39,168.5 39,175.8 33,172.7 				"/>
				<polygon opacity="0.15" points="33,162.7 29,160.7 29,170.5 33,163.5 				"/>
				<polygon opacity="0.15" points="13,152.7 7,149.7 7,155 13,155 				"/>
				<polygon opacity="0.15" points="51,171.8 44,168.3 44,172 51,172.5 				"/>
				<g>
					<g>
						<path fill="#CC291F" d="M20,154c0,0,0,0.8,0,1c0,0.8-0.7,1.2-1.5,0.7s-1.5-1.4-1.5-2.3c0,0.8-0.7,1.2-1.5,0.7S14,152.8,14,152
							c0,0.8-0.7,1.2-1.5,0.8s-1.5-1.4-1.5-2.3c0,0.8-0.7,1.2-1.5,0.7C8.7,150.8,8,149.8,8,149c0,0.8-0.7,1.2-1.5,0.7
							S5,148.3,5,147.5c0,0.8-0.7,1.2-1.5,0.7S2,146.8,2,146c0-0.2,0-0.8,0-0.8L20,154z"/>
						<path fill="#CC291F" d="M58,173c0,0,0,0.8,0,1c0,0.8-0.7,1.2-1.5,0.7s-1.5-1.4-1.5-2.3c0,0.8-0.7,1.2-1.5,0.7S52,171.8,52,171
							c0,0.8-0.7,1.2-1.5,0.7s-1.5-1.4-1.5-2.3c0,0.8-0.7,1.2-1.5,0.7S46,168.8,46,168c0,0.8-0.7,1.2-1.5,0.7s-1.5-1.4-1.5-2.3
							c0,0.8-0.7,1.2-1.5,0.7S40,165.8,40,165c0-0.2,0-1,0-1L58,173z"/>
						<path fill="#CC291F" d="M36,162c0,0,0,0.8,0,1c0,0.8-0.7,1.2-1.5,0.7s-1.5-1.4-1.5-2.3c0,0.8-0.7,1.2-1.5,0.7S30,160.8,30,160
							c0,0.8-0.7,1.2-1.5,0.7s-1.5-1.4-1.5-2.3c0,0.8-0.7,1.2-1.5,0.7S24,157.8,24,157c0-0.2,0-0.9,0-0.9L36,162z"/>
					</g>
					<g>
						<g>
							<path fill="#FFFFFF" d="M55,172.8l3,1.5c0,0,0-0.3,0-0.1c0,0.8-0.7,1.1-1.5,0.7S55,173.5,55,172.8
								C55,172.5,55,172.8,55,172.8z"/>
							<path fill="#CC291F" d="M52,169.5l3,1.5c0,0,0,1.3,0,1.5c0,0.8-0.7,1.2-1.5,0.7c-0.8-0.4-1.5-1.4-1.5-2.3
								C52,170.8,52,169.5,52,169.5z"/>
							<path fill="#FFFFFF" d="M49,169.8l3,1.5c0,0,0-0.3,0-0.1c0,0.8-0.7,1.1-1.5,0.7S49,170.5,49,169.8
								C49,169.5,49,169.8,49,169.8z"/>
							<path fill="#CC291F" d="M46,166.5l3,1.5c0,0,0,1.3,0,1.5c0,0.8-0.7,1.2-1.5,0.7S46,168.8,46,168C46,167.8,46,166.5,46,166.5z
								"/>
							<path fill="#FFFFFF" d="M43,166.8l3,1.5c0,0,0-0.3,0-0.1c0,0.8-0.7,1.1-1.5,0.7S43,167.5,43,166.8
								C43,166.5,43,166.8,43,166.8z"/>
							<path fill="#CC291F" d="M40,164l3,1c0,0,0,1.3,0,1.5c0,0.8-0.7,1.2-1.5,0.7S40,165.8,40,165C40,164.8,40,164,40,164z"/>
						</g>
						<g>
							<polygon fill="#FFFFFF" points="55,171.8 58,173.3 62,169 59,167.5 							"/>
							<path fill="#CC291F" d="M58,173l4-4.2v3.6l0,0c0,0.4,0,1,0,1.2c0,0.8-0.9,1.7-2,2c-1.1,0.3-2-0.2-2-1C58,174.3,58,173,58,173
								L58,173L58,173z"/>
							<polygon fill="#CC291F" points="52,170.3 55,171.8 59,167.5 56,166 							"/>
							<polygon fill="#FFFFFF" points="49,168.8 52,170.3 56,166 53,164.5 							"/>
							<polygon fill="#CC291F" points="46,167.3 49,168.8 53,164.5 50,163 							"/>
							<polygon fill="#FFFFFF" points="43,165.8 46,167.3 50,163 47,161.5 							"/>
							<polygon fill="#CC291F" points="40,164.3 43,165.8 47,161.5 44,160 							"/>
						</g>
					</g>
					<g>
						<g>
							<path fill="#FFFFFF" d="M17,153.7l3,1.5c0,0,0-0.3,0-0.1c0,0.8-0.7,1.1-1.5,0.7S17,154.5,17,153.7
								C17,153.5,17,153.7,17,153.7z"/>
							<path fill="#CC291F" d="M14,150.5l3,1.5c0,0,0,1.3,0,1.5c0,0.8-0.7,1.2-1.5,0.7S14,152.8,14,152C14,151.8,14,150.5,14,150.5z
								"/>
							<path fill="#FFFFFF" d="M11,150.7l3,1.5c0,0,0-0.3,0-0.1c0,0.8-0.7,1.1-1.5,0.7S11,151.5,11,150.7
								C11,150.5,11,150.7,11,150.7z"/>
							<path fill="#CC291F" d="M8,147.5l3,1.5c0,0,0,1.3,0,1.5c0,0.8-0.7,1.2-1.5,0.7S8,149.8,8,149C8,148.8,8,147.5,8,147.5z"/>
							<path fill="#FFFFFF" d="M5,147.7l3,1.5c0,0,0-0.3,0-0.1c0,0.8-0.7,1.1-1.5,0.7S5,148.5,5,147.7C5,147.5,5,147.7,5,147.7z"/>
							<path fill="#CC291F" d="M2,145l3,1c0,0,0,1.3,0,1.5c0,0.8-0.7,1.2-1.5,0.7S2,146.8,2,146C2,145.8,2,145,2,145z"/>
						</g>
						<g>
							<polygon fill="#FFFFFF" points="17,152.7 20,154.2 24,150 21,148.5 							"/>
							<path fill="#CC291F" d="M20,154l4-4.2v3.6l0,0c0,0.4,0,1,0,1.2c0,0.8-0.9,1.7-2,2c-1.1,0.3-2-0.2-2-1C20,155.3,20,154,20,154
								L20,154L20,154z"/>
							<polygon fill="#CC291F" points="14,151.2 17,152.7 21,148.5 18,147 							"/>
							<polygon fill="#FFFFFF" points="11,149.7 14,151.2 18,147 15,145.5 							"/>
							<polygon fill="#CC291F" points="8,148.2 11,149.7 15,145.5 12,144 							"/>
							<polygon fill="#FFFFFF" points="5,146.7 8,148.2 12,144 9,142.5 							"/>
							<polygon fill="#CC291F" points="2,145.2 5,146.7 9,142.5 6,141 							"/>
						</g>
					</g>
					<g>
						<g>
							<path fill="#FFFFFF" d="M33,161.7l3,1.5c0,0,0-0.3,0-0.1c0,0.8-0.7,1.1-1.5,0.7S33,162.5,33,161.7
								C33,161.5,33,161.7,33,161.7z"/>
							<path fill="#CC291F" d="M30,158.5l3,1.5c0,0,0,1.3,0,1.5c0,0.8-0.7,1.2-1.5,0.7S30,160.8,30,160C30,159.8,30,158.5,30,158.5z
								"/>
							<path fill="#FFFFFF" d="M27,158.7l3,1.5c0,0,0-0.3,0-0.1c0,0.8-0.7,1.1-1.5,0.7C27.7,160.4,27,159.5,27,158.7
								C27,158.5,27,158.7,27,158.7z"/>
							<path fill="#CC291F" d="M24,156l3,1c0,0,0,1.3,0,1.5c0,0.8-0.7,1.2-1.5,0.7c-0.8-0.4-1.5-1.4-1.5-2.3C24,156.8,24,156,24,156
								z"/>
						</g>
						<g>
							<polygon fill="#FFFFFF" points="33,160.7 36,162.3 40,158 37,156.5 							"/>
							<path fill="#CC291F" d="M36,162l4-4.2v3.6l0,0c0,0.4,0,1,0,1.2c0,0.8-0.9,1.7-2,2c-1.1,0.3-2-0.2-2-1C36,163.3,36,162,36,162
								L36,162L36,162z"/>
							<polygon fill="#CC291F" points="30,159.2 33,160.7 37,156.5 34,155 							"/>
							<polygon fill="#FFFFFF" points="27,157.7 30,159.2 34,155 31,153.5 							"/>
							<polygon fill="#CC291F" points="24,156.2 27,157.7 31,153.5 28,152 							"/>
						</g>
					</g>
				</g>
			</g>
			<g>
				<g>
					<g>
						<path fill="#762C07" d="M15,141.7V131c0-1.9-1.6-4.3-3.5-5.3c-1.9-1-3.5-0.2-3.5,1.7v10.8L15,141.7z"/>
						<path fill="#3399CC" d="M9,136.7l5,2.5v-8.5c0-1.4-1.1-3.1-2.5-3.8h0c-1.4-0.7-2.5-0.1-2.5,1.2V136.7z"/>
						<polygon fill="#F8EBCB" points="8,138.2 15,141.7 15,140.7 8,137.2 						"/>
					</g>
					<polygon fill="#762C07" points="9,130.7 11,131.7 11,126.7 12,127.2 12,132.2 14,133.2 14,134.2 12,133.2 12,139.2 11,138.7 
						11,132.7 9,131.7 					"/>
				</g>
				<g>
					<g>
						<path fill="#762C07" d="M25,146.7V136c0-1.9-1.6-4.3-3.5-5.3s-3.5-0.2-3.5,1.7v10.8L25,146.7z"/>
						<path fill="#3399CC" d="M19,141.7l5,2.5v-8.5c0-1.4-1.1-3.1-2.5-3.8h0c-1.4-0.7-2.5-0.1-2.5,1.2V141.7z"/>
						<polygon fill="#F8EBCB" points="18,143.2 25,146.7 25,145.7 18,142.2 						"/>
					</g>
					<polygon fill="#762C07" points="19,135.7 21,136.7 21,131.7 22,132.2 22,137.2 24,138.2 24,139.2 22,138.2 22,144.2 21,143.7 
						21,137.7 19,136.7 					"/>
				</g>
				<g>
					<g>
						<path fill="#762C07" d="M49,158.8V148c0-1.9-1.6-4.3-3.5-5.3c-1.9-1-3.5-0.2-3.5,1.7v10.8L49,158.8z"/>
						<path fill="#3399CC" d="M43,153.8l5,2.5v-8.5c0-1.4-1.1-3.1-2.5-3.8h0c-1.4-0.7-2.5-0.1-2.5,1.2V153.8z"/>
						<polygon fill="#F8EBCB" points="42,155.3 49,158.8 49,157.8 42,154.3 						"/>
					</g>
					<polygon opacity="0.2" fill="#FFFFFF" points="48,157.3 43,154.8 48,150 					"/>
					<polygon fill="#762C07" points="43,147.8 45,148.8 45,143.8 46,144.3 46,149.3 48,150.3 48,151.3 46,150.3 46,156.3 45,155.8 
						45,149.8 43,148.8 					"/>
				</g>
				<g>
					<g>
						<path fill="#762C07" d="M37,152.8V142c0-1.9-1.6-4.3-3.5-5.3c-1.9-1-3.5-0.2-3.5,1.7v10.8L37,152.8z"/>
						<path fill="#3399CC" d="M31,147.7l5,2.5v-8.5c0-1.4-1.1-3.1-2.5-3.8h0c-1.4-0.7-2.5-0.1-2.5,1.2V147.7z"/>
						<polygon fill="#F8EBCB" points="30,149.2 37,152.8 37,151.8 30,148.2 						"/>
					</g>
					<polygon fill="#762C07" points="31,141.7 33,142.7 33,137.7 34,138.3 34,143.3 36,144.3 36,145.3 34,144.3 34,150.3 33,149.7 
						33,143.7 31,142.7 					"/>
				</g>
				<g>
					<g>
						<path fill="#762C07" d="M59,163.8V153c0-1.9-1.6-4.3-3.5-5.3c-1.9-1-3.5-0.2-3.5,1.7v10.8L59,163.8z"/>
						<path fill="#3399CC" d="M53,158.8l5,2.5v-8.5c0-1.4-1.1-3.1-2.5-3.8h0c-1.4-0.7-2.5-0.1-2.5,1.2V158.8z"/>
						<polygon fill="#F8EBCB" points="52,160.3 59,163.8 59,162.8 52,159.3 						"/>
					</g>
					<polygon fill="#762C07" points="53,152.8 55,153.8 55,148.8 56,149.3 56,154.3 58,155.3 58,156.3 56,155.3 56,161.3 55,160.8 
						55,154.8 53,153.8 					"/>
				</g>
				<g>
					<g>
						<path fill="#762C07" d="M15,123.7V113c0-1.9-1.6-4.3-3.5-5.3c-1.9-1-3.5-0.2-3.5,1.7v10.8L15,123.7z"/>
						<path fill="#3399CC" d="M9,118.7l5,2.5v-8.5c0-1.4-1.1-3.1-2.5-3.8h0c-1.4-0.7-2.5-0.1-2.5,1.2V118.7z"/>
						<polygon fill="#F8EBCB" points="8,120.2 15,123.7 15,122.7 8,119.2 						"/>
					</g>
					<polygon fill="#762C07" points="9,112.7 11,113.7 11,108.7 12,109.2 12,114.2 14,115.2 14,116.2 12,115.2 12,121.2 11,120.7 
						11,114.7 9,113.7 					"/>
				</g>
				<g>
					<g>
						<path fill="#762C07" d="M25,128.7V118c0-1.9-1.6-4.3-3.5-5.3s-3.5-0.2-3.5,1.7v10.8L25,128.7z"/>
						<path fill="#3399CC" d="M19,123.7l5,2.5v-8.5c0-1.4-1.1-3.1-2.5-3.8l0,0c-1.4-0.7-2.5-0.1-2.5,1.2V123.7z"/>
						<polygon fill="#F8EBCB" points="18,125.2 25,128.7 25,127.7 18,124.2 						"/>
					</g>
					<polygon fill="#762C07" points="19,117.7 21,118.7 21,113.7 22,114.2 22,119.2 24,120.2 24,121.2 22,120.2 22,126.2 21,125.7 
						21,119.7 19,118.7 					"/>
				</g>
				<g>
					<g>
						<path fill="#762C07" d="M49,140.8V130c0-1.9-1.6-4.3-3.5-5.3c-1.9-1-3.5-0.2-3.5,1.7v10.8L49,140.8z"/>
						<path fill="#3399CC" d="M43,135.8l5,2.5v-8.5c0-1.4-1.1-3.1-2.5-3.8h0c-1.4-0.7-2.5-0.1-2.5,1.2V135.8z"/>
						<polygon fill="#F8EBCB" points="42,137.3 49,140.8 49,139.8 42,136.3 						"/>
					</g>
					<polygon opacity="0.2" fill="#FFFFFF" points="48,139.3 43,136.8 48,132 					"/>
					<polygon fill="#762C07" points="43,129.8 45,130.8 45,125.8 46,126.3 46,131.3 48,132.3 48,133.3 46,132.3 46,138.3 45,137.8 
						45,131.8 43,130.8 					"/>
				</g>
				<g>
					<g>
						<path fill="#762C07" d="M37,134.8V124c0-1.9-1.6-4.3-3.5-5.3c-1.9-1-3.5-0.2-3.5,1.7v10.8L37,134.8z"/>
						<path fill="#3399CC" d="M31,129.7l5,2.5v-8.5c0-1.4-1.1-3.1-2.5-3.8l0,0c-1.4-0.7-2.5-0.1-2.5,1.2V129.7z"/>
						<polygon fill="#F8EBCB" points="30,131.2 37,134.8 37,133.8 30,130.2 						"/>
					</g>
					<polygon fill="#762C07" points="31,123.7 33,124.7 33,119.7 34,120.3 34,125.3 36,126.3 36,127.3 34,126.3 34,132.3 33,131.7 
						33,125.7 31,124.7 					"/>
				</g>
				<g>
					<g>
						<path fill="#762C07" d="M59,145.8V135c0-1.9-1.6-4.3-3.5-5.3c-1.9-1-3.5-0.2-3.5,1.7v10.8L59,145.8z"/>
						<path fill="#3399CC" d="M53,140.8l5,2.5v-8.5c0-1.4-1.1-3.1-2.5-3.8h0c-1.4-0.7-2.5-0.1-2.5,1.2V140.8z"/>
						<polygon fill="#F8EBCB" points="52,142.3 59,145.8 59,144.8 52,141.3 						"/>
					</g>
					<polygon opacity="0.2" fill="#FFFFFF" points="58,144.3 53,141.8 58,137 					"/>
					<polygon fill="#762C07" points="53,134.8 55,135.8 55,130.8 56,131.3 56,136.3 58,137.3 58,138.3 56,137.3 56,143.3 55,142.8 
						55,136.8 53,135.8 					"/>
				</g>
				<g>
					<g>
						<path fill="#762C07" d="M59,127.8V117c0-1.9-1.6-4.3-3.5-5.3s-3.5-0.2-3.5,1.7v10.8L59,127.8z"/>
						<path fill="#3399CC" d="M53,122.8l5,2.5v-8.5c0-1.4-1.1-3.1-2.5-3.8h0c-1.4-0.7-2.5-0.1-2.5,1.2V122.8z"/>
						<polygon fill="#F8EBCB" points="52,124.3 59,127.8 59,126.8 52,123.3 						"/>
					</g>
					<polygon opacity="0.2" fill="#FFFFFF" points="58,126.3 53,123.8 58,119 					"/>
					<polygon fill="#762C07" points="53,116.8 55,117.8 55,112.8 56,113.3 56,118.3 58,119.3 58,120.3 56,119.3 56,125.3 55,124.8 
						55,118.8 53,117.8 					"/>
				</g>
				<g>
					<g>
						<path fill="#762C07" d="M15,105.7V95c0-1.9-1.6-4.3-3.5-5.3c-1.9-1-3.5-0.2-3.5,1.7v10.8L15,105.7z"/>
						<path fill="#3399CC" d="M9,100.7l5,2.5v-8.5c0-1.4-1.1-3.1-2.5-3.8h0C10.1,90.3,9,90.9,9,92.2V100.7z"/>
						<polygon fill="#F8EBCB" points="8,102.2 15,105.7 15,104.7 8,101.2 						"/>
					</g>
					<polygon fill="#762C07" points="9,94.7 11,95.7 11,90.7 12,91.2 12,96.2 14,97.2 14,98.2 12,97.2 12,103.2 11,102.7 11,96.7 
						9,95.7 					"/>
				</g>
				<g>
					<g>
						<path fill="#762C07" d="M25,110.7V100c0-1.9-1.6-4.3-3.5-5.3S18,94.6,18,96.5v10.8L25,110.7z"/>
						<path fill="#3399CC" d="M19,105.7l5,2.5v-8.5c0-1.4-1.1-3.1-2.5-3.8l0,0c-1.4-0.7-2.5-0.1-2.5,1.2V105.7z"/>
						<polygon fill="#F8EBCB" points="18,107.2 25,110.7 25,109.7 18,106.2 						"/>
					</g>
					<polygon fill="#762C07" points="19,99.7 21,100.7 21,95.7 22,96.2 22,101.2 24,102.2 24,103.2 22,102.2 22,108.2 21,107.7 
						21,101.7 19,100.7 					"/>
				</g>
				<g>
					<g>
						<path fill="#762C07" d="M49,122.8V112c0-1.9-1.6-4.3-3.5-5.3c-1.9-1-3.5-0.2-3.5,1.7v10.8L49,122.8z"/>
						<path fill="#3399CC" d="M43,117.8l5,2.5v-8.5c0-1.4-1.1-3.1-2.5-3.8h0c-1.4-0.7-2.5-0.1-2.5,1.2V117.8z"/>
						<polygon fill="#F8EBCB" points="42,119.3 49,122.8 49,121.8 42,118.3 						"/>
					</g>
					<polygon fill="#762C07" points="43,111.8 45,112.8 45,107.8 46,108.3 46,113.3 48,114.3 48,115.3 46,114.3 46,120.3 45,119.8 
						45,113.8 43,112.8 					"/>
				</g>
				<g>
					<g>
						<path fill="#762C07" d="M37,116.8V106c0-1.9-1.6-4.3-3.5-5.3c-1.9-1-3.5-0.2-3.5,1.7v10.8L37,116.8z"/>
						<path fill="#3399CC" d="M31,111.7l5,2.5v-8.5c0-1.4-1.1-3.1-2.5-3.8l0,0c-1.4-0.7-2.5-0.1-2.5,1.2V111.7z"/>
						<polygon fill="#F8EBCB" points="30,113.2 37,116.8 37,115.8 30,112.2 						"/>
					</g>
					<polygon fill="#762C07" points="31,105.7 33,106.7 33,101.7 34,102.3 34,107.3 36,108.3 36,109.3 34,108.3 34,114.3 33,113.7 
						33,107.7 31,106.7 					"/>
				</g>
				<g>
					<g>
						<path fill="#762C07" d="M59,109.8V104c0-1.9-1.6-4.3-3.5-5.3s-3.5-0.2-3.5,1.7v5.8L59,109.8z"/>
						<path fill="#3399CC" d="M53,104.8l5,2.5v-3.5c0-1.4-1.1-3.1-2.5-3.8h0c-1.4-0.7-2.5-0.1-2.5,1.2V104.8z"/>
						<polygon fill="#F8EBCB" points="52,106.3 59,109.8 59,108.8 52,105.3 						"/>
					</g>
					<polygon fill="#762C07" points="55,105.8 56,106.3 56,100.3 55,99.8 					"/>
				</g>
				<g>
					<g>
						<path fill="#762C07" d="M49,104.8V99c0-1.9-1.6-4.3-3.5-5.3c-1.9-1-3.5-0.2-3.5,1.7v5.8L49,104.8z"/>
						<path fill="#3399CC" d="M43,99.8l5,2.5v-3.5c0-1.4-1.1-3.1-2.5-3.8h0c-1.4-0.7-2.5-0.1-2.5,1.2V99.8z"/>
						<polygon fill="#F8EBCB" points="42,101.3 49,104.8 49,103.8 42,100.3 						"/>
					</g>
					<polygon fill="#762C07" points="45,100.8 46,101.3 46,95.3 45,94.8 					"/>
				</g>
				<g>
					<g>
						<path fill="#762C07" d="M25,92.7V87c0-1.9-1.6-4.3-3.5-5.3S18,81.6,18,83.5v5.8L25,92.7z"/>
						<path fill="#3399CC" d="M19,87.7l5,2.5v-3.5c0-1.4-1.1-3.1-2.5-3.8l0,0c-1.4-0.7-2.5-0.1-2.5,1.2V87.7z"/>
						<polygon fill="#F8EBCB" points="18,89.2 25,92.7 25,91.7 18,88.2 						"/>
					</g>
					<polygon fill="#762C07" points="21,88.7 22,89.2 22,83.2 21,82.7 					"/>
				</g>
				<g>
					<g>
						<path fill="#762C07" d="M15,87.7V82c0-1.9-1.6-4.3-3.5-5.3c-1.9-1-3.5-0.2-3.5,1.7v5.8L15,87.7z"/>
						<path fill="#3399CC" d="M9,82.7l5,2.5v-3.5c0-1.4-1.1-3.1-2.5-3.8h0C10.1,77.3,9,77.9,9,79.2V82.7z"/>
						<polygon fill="#F8EBCB" points="8,84.2 15,87.7 15,86.7 8,83.2 						"/>
					</g>
					<polygon fill="#762C07" points="11,83.7 12,84.2 12,78.2 11,77.7 					"/>
				</g>
				<g>
					<g>
						<path fill="#762C07" d="M37,98.8V93c0-1.9-1.6-4.3-3.5-5.3c-1.9-1-3.5-0.2-3.5,1.7v5.8L37,98.8z"/>
						<path fill="#3399CC" d="M31,93.7l5,2.5v-3.5c0-1.4-1.1-3.1-2.5-3.8l0,0c-1.4-0.7-2.5-0.1-2.5,1.2V93.7z"/>
						<polygon fill="#F8EBCB" points="30,95.2 37,98.8 37,97.8 30,94.2 						"/>
					</g>
					<polygon fill="#762C07" points="33,94.7 34,95.3 34,89.3 33,88.7 					"/>
				</g>
			</g>
			<path opacity="0.06" d="M3,65.7v2v76.4l3-3.2l18,9v0v3.6l0,0c0,0.4,0,1,0,1.2c0,0.8-0.9,1.7-2,2c-1.1,0.3-2-0.2-2-1
				c0-0.2,0-1.5,0-1.5l0,0l0,0h0l-17-8.5v12v1l2,1l1-0.4v-0.1l56,28v1l2,1v-1v-90v-2L3,65.7z M40,164.2l4-4.2l18,9l-4,4.2l4-4.2v3.6
				l0,0c0,0.4,0,1,0,1.2c0,0.8-0.9,1.7-2,2c-1.1,0.3-2-0.2-2-1c0-0.2,0-1.5,0-1.5l0,0l0,0L40,164.2z M24,156.2l4-4.2l12,6v0v3.6l0,0
				c0,0.4,0,1,0,1.2c0,0.8-0.9,1.7-2,2c-1.1,0.3-2-0.2-2-1c0-0.2,0-1.5,0-1.5l0,0l0,0h0L24,156.2z"/>
		</g>
		<g opacity="0.39">
			<path d="M62,168.8v3.6l0,0c0,0.4,0,1,0,1.2c0,0.8-0.9,1.7-2,2c-1.1,0.3-2-0.2-2-1c0-0.2,0-1.5,0-1.5l0,0l0,0L62,168.8z"/>
			<path d="M20,154l4-4.2v3.6l0,0c0,0.4,0,1,0,1.2c0,0.8-0.9,1.7-2,2c-1.1,0.3-2-0.2-2-1C20,155.3,20,154,20,154L20,154L20,154z"/>
			<path d="M40,157.8v3.6l0,0c0,0.4,0,1,0,1.2c0,0.8-0.9,1.7-2,2c-1.1,0.3-2-0.2-2-1c0-0.2,0-1.5,0-1.5l0,0l0,0L40,157.8z"/>
		</g>
	</g>
	<polygon fill="#2D3134" points="95,35 32,3 1,65 64,97 65,97 95,36 124,66 125,65.7 	"/>
	<polygon opacity="0.06" points="1,65 64,97 95,35 32,3 	"/>
	<polygon opacity="0.2" fill="#FFFFFF" points="31.2,4.6 94.2,36.6 95,35 32,3 	"/>
	<g>
		<polygon opacity="0.39" points="56,87.4 70,62 48.2,71.9 55,79.4 		"/>
		<g>
			<g>
				<path fill="#BAA794" d="M56,87.4V79c0-2.5-2-5.5-4.5-6.8S47,72,47,74.5v8.4L56,87.4z"/>
				<path fill="#762C07" d="M55,85.8V80c0-1.9-1.6-4.3-3.5-5.3c-1.9-1-3.5-0.2-3.5,1.7v5.8L55,85.8z"/>
				<path fill="#3399CC" d="M49,80.8l5,2.5v-3.5c0-1.4-1.1-3.1-2.5-3.8h0c-1.4-0.7-2.5-0.1-2.5,1.2V80.8z"/>
				<polygon fill="#F8EBCB" points="48,82.3 55,85.8 55,84.8 48,81.3 				"/>
			</g>
			<polygon fill="#762C07" points="51,81.8 52,82.3 52,76.3 51,75.8 			"/>
		</g>
		<path opacity="0.06" d="M56,87.4V79c0-2.5-2-5.5-4.5-6.8S47,72,47,74.5v8.4L56,87.4z"/>
	</g>
	<g>
		<polygon opacity="0.39" points="39,78.4 53,53 31.2,62.9 38,70.4 		"/>
		<g>
			<g>
				<path fill="#BAA794" d="M39,78.4V70c0-2.5-2-5.5-4.5-6.8C32,62,30,63,30,65.5v8.4L39,78.4z"/>
				<path fill="#762C07" d="M38,76.8V71c0-1.9-1.6-4.3-3.5-5.3c-1.9-1-3.5-0.2-3.5,1.7v5.8L38,76.8z"/>
				<path fill="#3399CC" d="M32,71.8l5,2.5v-3.5c0-1.4-1.1-3.1-2.5-3.8h0c-1.4-0.7-2.5-0.1-2.5,1.2V71.8z"/>
				<polygon fill="#F8EBCB" points="31,73.3 38,76.8 38,75.8 31,72.3 				"/>
			</g>
			<polygon fill="#762C07" points="34,72.8 35,73.3 35,67.3 34,66.8 			"/>
		</g>
		<path opacity="0.06" d="M39,78.4V70c0-2.5-2-5.5-4.5-6.8C32,62,30,63,30,65.5v8.4L39,78.4z"/>
	</g>
	<g>
		<polygon opacity="0.39" points="22,70.4 36,45 14.2,54.9 21,62.4 		"/>
		<g>
			<g>
				<path fill="#BAA794" d="M22,70.4V62c0-2.5-2-5.5-4.5-6.8C15,54,13,55,13,57.5v8.4L22,70.4z"/>
				<path fill="#762C07" d="M21,68.8V63c0-1.9-1.6-4.3-3.5-5.3S14,57.6,14,59.5v5.8L21,68.8z"/>
				<path fill="#3399CC" d="M15,63.8l5,2.5v-3.5c0-1.4-1.1-3.1-2.5-3.8l0,0c-1.4-0.7-2.5-0.1-2.5,1.2V63.8z"/>
				<polygon fill="#F8EBCB" points="14,65.3 21,68.8 21,67.8 14,64.3 				"/>
			</g>
		</g>
		<polygon fill="#762C07" points="17,64.8 18,65.3 18,59.3 17,58.8 		"/>
		<path opacity="0.06" d="M22,70.4V62c0-2.5-2-5.5-4.5-6.8C15,54,13,55,13,57.5v8.4L22,70.4z"/>
	</g>
	<polygon opacity="0.39" points="125,65.7 125,157.7 125,158.7 123,159.7 123,158.7 67,186.8 67,186.8 66,188.3 64,189.3 64,188.3 
		64,96.3 95,35 	"/>
</g>
</svg>
