<?xml version="1.0" encoding="utf-8"?>
<!-- Generator: Adobe Illustrator 18.1.0, SVG Export Plug-In . SVG Version: 6.00 Build 0)  -->
<svg version="1.1" id="Layer_1" xmlns="http://www.w3.org/2000/svg" xmlns:xlink="http://www.w3.org/1999/xlink" x="0px" y="0px"
	 viewBox="0 0 48 32" enable-background="new 0 0 48 32" xml:space="preserve">
<g>
	<polygon opacity="0.3" fill="#262626" points="30,26 44,19 18,6 4,13 	"/>
	<polygon fill="#2D3134" points="31.3,22 42.8,16.2 17.8,3.7 6.3,9.2 20.7,16.5 21.3,17 	"/>
	<g>
		<path fill="#2D3134" d="M27.1,16.7c-0.8-0.4-1.5-0.4-2-0.2l0,0l-1.1,0.6l0,0c-0.6,0.3-0.9,0.8-0.9,1.7c0,1.6,1.3,3.6,2.9,4.4
			c0.8,0.4,1.5,0.4,2.1,0.2c0,0,1.1-0.6,1.2-0.7c0.5-0.3,0.8-0.8,0.8-1.6C30,19.5,28.7,17.5,27.1,16.7z"/>
		<path opacity="0.39" d="M28,23.3c0.2-0.1,1.1-0.6,1.2-0.6c0.5-0.3,0.8-0.8,0.8-1.6c0-0.7-0.2-1.4-0.6-2l-1.1,0.6
			c0.4,0.7,0.6,1.4,0.6,2C28.9,22.5,28.6,23.1,28,23.3z"/>
		<path fill="#C4C6CC" d="M25.9,18c-1.2-0.6-2.2-0.1-2.2,1.1c0,1.2,1,2.7,2.2,3.3c1.2,0.6,2.2,0.1,2.2-1.1
			C28.2,20.1,27.2,18.6,25.9,18z M27.4,19.5c0.2,0.3,0.3,0.6,0.1,0.7c-0.1,0.1-0.8,0-1.1-0.1c0-0.1-0.1-0.1-0.1-0.2
			c0.1-0.3,0.3-0.8,0.5-0.9C26.9,18.9,27.2,19.2,27.4,19.5z M25.9,18.2c0.3,0.2,0.6,0.4,0.6,0.6c0,0.2-0.3,0.7-0.5,0.9
			c0,0-0.1,0-0.1-0.1s-0.1,0-0.1,0c-0.2-0.4-0.5-1.1-0.5-1.3C25.4,18,25.6,18,25.9,18.2z M24.5,18.1c0.2-0.1,0.5-0.1,0.7,0.2
			c0.1,0.2,0.4,1,0.5,1.3c-0.1,0-0.1,0-0.1,0.1c-0.3-0.3-1-0.8-1.1-1C24.2,18.3,24.3,18.2,24.5,18.1z M23.9,19.2
			c0-0.3,0.1-0.5,0.4-0.4c0.2,0.1,0.8,0.7,1.1,1c0,0,0,0.1,0,0.1s0,0.1,0,0.1c-0.3,0-0.9,0-1.1-0.1C24,19.8,23.9,19.5,23.9,19.2z
			 M24.5,20.9c-0.2-0.3-0.3-0.6-0.1-0.7c0.1-0.1,0.8,0,1.1,0.1c0,0.1,0.1,0.1,0.1,0.2c-0.1,0.3-0.3,0.8-0.5,0.9
			C25,21.5,24.7,21.2,24.5,20.9z M25.9,22.2c-0.3-0.2-0.6-0.4-0.6-0.6c0-0.2,0.3-0.7,0.5-0.9c0,0,0.1,0,0.1,0.1c0,0,0.1,0,0.1,0
			c0.2,0.4,0.5,1.1,0.5,1.3C26.5,22.4,26.3,22.4,25.9,22.2z M27.4,22.4c-0.2,0.1-0.5,0.1-0.7-0.2c-0.1-0.2-0.4-1-0.5-1.3
			c0.1,0,0.1,0,0.1-0.1c0.3,0.3,1,0.8,1.1,1C27.7,22.1,27.6,22.2,27.4,22.4z M27.6,21.6c-0.2-0.1-0.8-0.7-1.1-1c0,0,0-0.1,0-0.1
			c0,0,0-0.1,0-0.1c0.3,0,0.9,0,1.1,0.1c0.3,0.1,0.4,0.4,0.4,0.7C28,21.5,27.9,21.7,27.6,21.6z"/>
		<path opacity="0.06" d="M26.1,22.3c-1.2-0.6-2.2-2.1-2.2-3.3c0-0.6,0.2-1,0.6-1.2c-0.5,0.2-0.8,0.6-0.8,1.3
			c0,1.2,1,2.7,2.2,3.3c0.6,0.3,1.2,0.3,1.6,0.1C27.1,22.7,26.7,22.6,26.1,22.3z"/>
		<path opacity="0.06" d="M28.9,21.7c0,1.6-1.3,2.3-2.9,1.5S23,20.4,23,18.7s1.3-2.3,2.9-1.5
			C27.6,18.1,28.9,20.1,28.9,21.7z"/>
	</g>
	<g>
		<path fill="#2D3134" d="M12.1,9.2c-0.8-0.4-1.5-0.4-2-0.2l0,0L8.9,9.6l0,0C8.4,9.8,8,10.4,8,11.2c0,1.6,1.3,3.6,2.9,4.4
			c0.8,0.4,1.5,0.4,2.1,0.2c0,0,1.1-0.6,1.2-0.7c0.5-0.3,0.8-0.8,0.8-1.6C15,12,13.7,10,12.1,9.2z"/>
		<path opacity="0.39" d="M13,15.8c0.2-0.1,1.1-0.6,1.2-0.6c0.5-0.3,0.8-0.8,0.8-1.6c0-0.7-0.2-1.4-0.6-2l-1.1,0.6
			c0.4,0.7,0.6,1.4,0.6,2C13.9,15,13.6,15.6,13,15.8z"/>
		<path fill="#C4C6CC" d="M10.9,10.5c-1.2-0.6-2.2-0.1-2.2,1.1c0,1.2,1,2.7,2.2,3.3s2.2,0.1,2.2-1.1C13.2,12.6,12.2,11.1,10.9,10.5z
			 M12.4,12c0.2,0.3,0.3,0.6,0.1,0.7c-0.1,0.1-0.8,0-1.1-0.1c0-0.1-0.1-0.1-0.1-0.2c0.1-0.3,0.3-0.8,0.5-0.9
			C11.9,11.4,12.2,11.7,12.4,12z M10.9,10.7c0.3,0.2,0.6,0.4,0.6,0.6c0,0.2-0.3,0.7-0.5,0.9c0,0-0.1,0-0.1-0.1c0,0-0.1,0-0.1,0
			c-0.2-0.4-0.5-1.1-0.5-1.3C10.4,10.5,10.6,10.5,10.9,10.7z M9.5,10.6c0.2-0.1,0.5-0.1,0.7,0.2c0.1,0.2,0.4,1,0.5,1.3
			c-0.1,0-0.1,0-0.1,0.1c-0.3-0.3-1-0.8-1.1-1C9.2,10.8,9.3,10.7,9.5,10.6z M8.9,11.7c0-0.3,0.1-0.5,0.4-0.4c0.2,0.1,0.8,0.7,1.1,1
			c0,0,0,0.1,0,0.1c0,0,0,0.1,0,0.1c-0.3,0-0.9,0-1.1-0.1C9,12.3,8.9,12,8.9,11.7z M9.5,13.4c-0.2-0.3-0.3-0.6-0.1-0.7
			c0.1-0.1,0.8,0,1.1,0.1c0,0.1,0.1,0.1,0.1,0.2c-0.1,0.3-0.3,0.8-0.5,0.9C10,14,9.7,13.7,9.5,13.4z M10.9,14.7
			c-0.3-0.2-0.6-0.4-0.6-0.6c0-0.2,0.3-0.7,0.5-0.9c0,0,0.1,0,0.1,0.1c0,0,0.1,0,0.1,0c0.2,0.4,0.5,1.1,0.5,1.3
			C11.5,14.9,11.3,14.9,10.9,14.7z M12.4,14.9c-0.2,0.1-0.5,0.1-0.7-0.2c-0.1-0.2-0.4-1-0.5-1.3c0.1,0,0.1,0,0.1-0.1
			c0.3,0.3,1,0.8,1.1,1C12.7,14.6,12.6,14.7,12.4,14.9z M12.6,14.1c-0.2-0.1-0.8-0.7-1.1-1c0,0,0-0.1,0-0.1c0,0,0-0.1,0-0.1
			c0.3,0,0.9,0,1.1,0.1c0.3,0.1,0.4,0.4,0.4,0.7S12.9,14.2,12.6,14.1z"/>
		<path opacity="0.06" d="M11.1,14.8c-1.2-0.6-2.2-2.1-2.2-3.3c0-0.6,0.2-1,0.6-1.2c-0.5,0.2-0.8,0.6-0.8,1.3
			c0,1.2,1,2.7,2.2,3.3c0.6,0.3,1.2,0.3,1.6,0.1C12.1,15.2,11.7,15.1,11.1,14.8z"/>
		<path opacity="0.06" d="M13.9,14.2c0,1.6-1.3,2.3-2.9,1.5C9.3,14.8,8,12.9,8,11.2s1.3-2.3,2.9-1.5
			C12.6,10.6,13.9,12.6,13.9,14.2z"/>
	</g>
	<path fill="#CC291F" d="M39.8,11.2L36,6l-8-4l-7.3-0.3l-6.3-1.5l-9,4.5v4l2,1.3C8,8.8,9.3,8.4,10.9,9.2c1.8,0.9,3.2,2.9,3.5,4.7
		l8,4.1c0.2-1.7,1.7-2.3,3.5-1.4c1.8,0.9,3.3,3,3.5,4.9l0.3,0l2.8,1.3L43,17.5v-4L39.8,11.2z"/>
	<polygon fill="#3399CC" points="26.7,11.2 36.1,6.6 39.3,11 29.9,15.6 	"/>
	<polygon opacity="0.15" points="30.2,9.5 36.1,6.6 39.3,11 	"/>
	<polygon fill="#3399CC" points="12.7,6.3 21.3,2.1 26.4,2.2 17.9,6.5 	"/>
	<polygon opacity="0.39" fill="#FFFFFF" points="12.7,6.3 22.9,4 17.9,6.5 	"/>
	<polygon fill="#2D3134" points="13.3,6.2 21.6,2.1 21.3,2.1 12.7,6.3 	"/>
	<polygon fill="#FF9900" points="43,14 41.5,14.7 41.5,15.7 43,15 	"/>
	<polygon fill="#FF9900" points="32.5,19.2 34.5,18.2 34.5,19.2 32.5,20.2 32,20 32,19 	"/>
	<polygon fill="#FFFFFF" points="35.5,18.2 40.5,15.7 40.5,17 35.5,19.5 	"/>
	<polygon fill="#FFCC00" points="6,5.5 5.5,5.2 5.5,7 6,7.2 	"/>
	<polygon fill="#3399CC" points="22.3,12.7 27.8,15.5 25,11 22.3,9.6 	"/>
	<polygon fill="#3399CC" points="21.5,9.2 18,7.5 11.8,7.5 21.5,12.4 	"/>
	<polygon opacity="0.15" points="22.8,12.7 22.8,9.9 22.3,9.6 22.3,12.7 27.8,15.5 27.5,15.1 	"/>
	<polygon opacity="0.15" points="12.3,7.5 11.8,7.5 21.5,12.4 21.5,12.1 	"/>
	<path opacity="0.06" d="M29.8,16.2L26,11l-8-4l-7.3-0.3l-5.3-2v4l2,1.3C8,8.8,9.3,8.4,10.9,9.2c1.8,0.9,3.2,2.9,3.5,4.7
		l7.2,3.7l0.8,0.4c0.2-1.7,1.7-2.3,3.5-1.4c1.8,0.9,3.3,3,3.5,4.9l0.3,0l2.8,1.3v-4L29.8,16.2z"/>
	<g>
		<polygon fill="#CC291F" points="32.3,23.2 43.8,17.5 43.8,16 32.3,21.7 31.3,21.2 31.3,22.7 		"/>
		<polygon opacity="0.39" points="32.3,23.2 43.8,17.5 43.8,16 32.3,21.7 31.3,21.2 31.3,22.7 		"/>
		<polygon fill="#CC291F" points="32.3,21.2 43.3,15.7 43.8,16 32.3,21.7 31.3,21.2 31.8,21 		"/>
	</g>
	<g>
		<polygon fill="#CC291F" points="5.3,8 6.3,8.5 6.3,9.5 5.3,9 		"/>
		<polygon opacity="0.39" points="5.3,8 6.3,8.5 6.3,9.5 5.3,9 		"/>
		<polygon fill="#CC291F" points="6.3,8.5 6.3,9.5 6.5,9.2 6.5,8.2 5.5,7.7 5.3,8 		"/>
	</g>
	<polygon opacity="0.39" points="39.8,11.2 29.8,16.2 26,11 36,6 	"/>
	<path fill="#CC291F" d="M13.3,7.4l-1,0.4C12.1,8,12,8.1,12,8.3v0c0,0.2,0.2,0.4,0.4,0.4h1.8l-0.3-1C13.8,7.5,13.5,7.3,13.3,7.4z"/>
	<path opacity="0.39" d="M13.3,7.4l-1,0.4C12.1,8,12,8.1,12,8.3v0c0,0.2,0.2,0.4,0.4,0.4h1.8l-0.3-1C13.8,7.5,13.5,7.3,13.3,7.4z"/>
	<path fill="#2D3134" d="M12.4,8.5c-0.1,0-0.2-0.1-0.2-0.2c0-0.1,0-0.2,0.1-0.2l1-0.4c0,0,0.1,0,0.1,0c0.1,0,0.2,0.1,0.2,0.1
		l0.2,0.7H12.4z"/>
	<polygon opacity="0.39" points="43,13.5 32.5,18.7 32.5,21.1 43,15.8 	"/>
</g>
</svg>
