<?xml version="1.0" encoding="utf-8"?>
<!-- Generator: Adobe Illustrator 18.1.0, SVG Export Plug-In . SVG Version: 6.00 Build 0)  -->
<svg version="1.1" id="Layer_1" xmlns="http://www.w3.org/2000/svg" xmlns:xlink="http://www.w3.org/1999/xlink" x="0px" y="0px"
	 viewBox="0 0 208 184" enable-background="new 0 0 208 184" xml:space="preserve">
<g>
	<g>
		<polygon fill="#E5E5E5" points="0,40 80,0 208,64 208,66 128,106 0,42 		"/>
		<polygon opacity="0.3" points="8.9,40 80,4.5 199.1,64 128,99.5 		"/>
		<polygon opacity="0.39" points="80,7 80,4.5 8.9,40 11.5,41.3 		"/>
		<polygon opacity="0.06" points="80,7 196.5,65.3 199.1,64 80,4.5 		"/>
	</g>
	<g>
		<polygon fill="#E5E5E5" points="128,184 0,120 0,40 128,104 		"/>
		<polygon fill="#FFFFFF" points="23,71.5 10,65 10,57 23,63.5 		"/>
		<polygon fill="#FFFFFF" points="23,91.5 10,85 10,77 23,83.5 		"/>
		<polygon fill="#FFFFFF" points="23,111.5 10,105 10,97 23,103.5 		"/>
		<polygon fill="#FFFFFF" points="39,79.5 26,73 26,65 39,71.5 		"/>
		<polygon fill="#FFFFFF" points="39,99.5 26,93 26,85 39,91.5 		"/>
		<polygon fill="#FFFFFF" points="39,119.5 26,113 26,105 39,111.5 		"/>
		<polygon fill="#FFFFFF" points="55,87.5 42,81 42,73 55,79.5 		"/>
		<polygon fill="#FFFFFF" points="55,107.5 42,101 42,93 55,99.5 		"/>
		<polygon fill="#FFFFFF" points="55,127.5 42,121 42,113 55,119.5 		"/>
		<polygon fill="#FFFFFF" points="71,95.5 58,89 58,81 71,87.5 		"/>
		<polygon fill="#FFFFFF" points="71,115.5 58,109 58,101 71,107.5 		"/>
		<polygon fill="#FFFFFF" points="71,135.5 58,129 58,121 71,127.5 		"/>
		<polygon fill="#FFFFFF" points="87,103.5 74,97 74,89 87,95.5 		"/>
		<polygon fill="#FFFFFF" points="87,123.5 74,117 74,109 87,115.5 		"/>
		<polygon fill="#FFFFFF" points="87,143.5 74,137 74,129 87,135.5 		"/>
		<polygon fill="#FFFFFF" points="103,111.5 90,105 90,97 103,103.5 		"/>
		<polygon fill="#FFFFFF" points="103,131.5 90,125 90,117 103,123.5 		"/>
		<polygon fill="#FFFFFF" points="103,151.5 90,145 90,137 103,143.5 		"/>
		<polygon fill="#FFFFFF" points="119,119.5 106,113 106,105 119,111.5 		"/>
		<polygon fill="#FFFFFF" points="119,139.5 106,133 106,125 119,131.5 		"/>
		<polygon fill="#FFFFFF" points="119,159.5 106,153 106,145 119,151.5 		"/>
		<polygon fill="#3399CC" points="118,118 113,115.5 113,109.5 118,112 		"/>
		<polygon opacity="0.3" points="114,115 114,110 113,109.5 113,115.5 118,118 118,117 		"/>
		<polygon fill="#3399CC" points="112,115 107,112.5 107,106.5 112,109 		"/>
		<polygon opacity="0.3" points="108,112 108,107 107,106.5 107,112.5 112,115 112,114 		"/>
		<polygon fill="#3399CC" points="102,110 97,107.5 97,101.5 102,104 		"/>
		<polygon opacity="0.3" points="98,107 98,102 97,101.5 97,107.5 102,110 102,109 		"/>
		<polygon fill="#3399CC" points="96,107 91,104.5 91,98.5 96,101 		"/>
		<polygon opacity="0.3" points="92,104 92,99 91,98.5 91,104.5 96,107 96,106 		"/>
		<polygon fill="#3399CC" points="86,102 81,99.5 81,93.5 86,96 		"/>
		<polygon opacity="0.2" fill="#FFFFFF" points="86,102 81,99.5 81,93.5 		"/>
		<polygon opacity="0.3" points="82,99 82,94 81,93.5 81,99.5 86,102 86,101 		"/>
		<polygon fill="#3399CC" points="80,99 75,96.5 75,90.5 80,93 		"/>
		<polygon opacity="0.3" points="76,96 76,91 75,90.5 75,96.5 80,99 80,98 		"/>
		<polygon fill="#3399CC" points="70,94 65,91.5 65,85.5 70,88 		"/>
		<polygon opacity="0.3" points="66,91 66,86 65,85.5 65,91.5 70,94 70,93 		"/>
		<polygon fill="#3399CC" points="64,91 59,88.5 59,82.5 64,85 		"/>
		<polygon opacity="0.3" points="60,88 60,83 59,82.5 59,88.5 64,91 64,90 		"/>
		<polygon fill="#3399CC" points="54,86 49,83.5 49,77.5 54,80 		"/>
		<polygon opacity="0.3" points="50,83 50,78 49,77.5 49,83.5 54,86 54,85 		"/>
		<polygon fill="#3399CC" points="48,83 43,80.5 43,74.5 48,77 		"/>
		<polygon opacity="0.3" points="44,80 44,75 43,74.5 43,80.5 48,83 48,82 		"/>
		<polygon fill="#3399CC" points="38,78 33,75.5 33,69.5 38,72 		"/>
		<polygon opacity="0.3" points="34,75 34,70 33,69.5 33,75.5 38,78 38,77 		"/>
		<polygon fill="#3399CC" points="32,75 27,72.5 27,66.5 32,69 		"/>
		<polygon opacity="0.3" points="28,72 28,67 27,66.5 27,72.5 32,75 32,74 		"/>
		<polygon fill="#3399CC" points="22,70 17,67.5 17,61.5 22,64 		"/>
		<polygon opacity="0.2" fill="#FFFFFF" points="22,70 17,67.5 17,61.5 		"/>
		<polygon opacity="0.3" points="18,67 18,62 17,61.5 17,67.5 22,70 22,69 		"/>
		<polygon fill="#3399CC" points="16,67 11,64.5 11,58.5 16,61 		"/>
		<polygon opacity="0.3" points="12,64 12,59 11,58.5 11,64.5 16,67 16,66 		"/>
		<polygon fill="#3399CC" points="118,138 113,135.5 113,129.5 118,132 		"/>
		<polygon opacity="0.3" points="114,135 114,130 113,129.5 113,135.5 118,138 118,137 		"/>
		<polygon fill="#3399CC" points="112,135 107,132.5 107,126.5 112,129 		"/>
		<polygon opacity="0.3" points="108,132 108,127 107,126.5 107,132.5 112,135 112,134 		"/>
		<polygon fill="#3399CC" points="102,130 97,127.5 97,121.5 102,124 		"/>
		<polygon opacity="0.3" points="98,127 98,122 97,121.5 97,127.5 102,130 102,129 		"/>
		<polygon fill="#3399CC" points="96,127 91,124.5 91,118.5 96,121 		"/>
		<polygon opacity="0.3" points="92,124 92,119 91,118.5 91,124.5 96,127 96,126 		"/>
		<polygon fill="#3399CC" points="86,122 81,119.5 81,113.5 86,116 		"/>
		<polygon opacity="0.2" fill="#FFFFFF" points="86,122 81,119.5 81,113.5 		"/>
		<polygon opacity="0.3" points="82,119 82,114 81,113.5 81,119.5 86,122 86,121 		"/>
		<polygon fill="#3399CC" points="80,119 75,116.5 75,110.5 80,113 		"/>
		<polygon opacity="0.3" points="76,116 76,111 75,110.5 75,116.5 80,119 80,118 		"/>
		<polygon fill="#3399CC" points="70,114 65,111.5 65,105.5 70,108 		"/>
		<polygon opacity="0.3" points="66,111 66,106 65,105.5 65,111.5 70,114 70,113 		"/>
		<polygon fill="#3399CC" points="64,111 59,108.5 59,102.5 64,105 		"/>
		<polygon opacity="0.3" points="60,108 60,103 59,102.5 59,108.5 64,111 64,110 		"/>
		<polygon fill="#3399CC" points="54,106 49,103.5 49,97.5 54,100 		"/>
		<polygon opacity="0.3" points="50,103 50,98 49,97.5 49,103.5 54,106 54,105 		"/>
		<polygon fill="#3399CC" points="48,103 43,100.5 43,94.5 48,97 		"/>
		<polygon opacity="0.3" points="44,100 44,95 43,94.5 43,100.5 48,103 48,102 		"/>
		<polygon fill="#3399CC" points="38,98 33,95.5 33,89.5 38,92 		"/>
		<polygon opacity="0.3" points="34,95 34,90 33,89.5 33,95.5 38,98 38,97 		"/>
		<polygon fill="#3399CC" points="32,95 27,92.5 27,86.5 32,89 		"/>
		<polygon opacity="0.3" points="28,92 28,87 27,86.5 27,92.5 32,95 32,94 		"/>
		<polygon fill="#3399CC" points="22,90 17,87.5 17,81.5 22,84 		"/>
		<polygon opacity="0.2" fill="#FFFFFF" points="22,90 17,87.5 17,81.5 		"/>
		<polygon opacity="0.3" points="18,87 18,82 17,81.5 17,87.5 22,90 22,89 		"/>
		<polygon fill="#3399CC" points="16,87 11,84.5 11,78.5 16,81 		"/>
		<polygon opacity="0.3" points="12,84 12,79 11,78.5 11,84.5 16,87 16,86 		"/>
		<polygon fill="#3399CC" points="118,158 113,155.5 113,149.5 118,152 		"/>
		<polygon opacity="0.3" points="114,155 114,150 113,149.5 113,155.5 118,158 118,157 		"/>
		<polygon fill="#3399CC" points="112,155 107,152.5 107,146.5 112,149 		"/>
		<polygon opacity="0.3" points="108,152 108,147 107,146.5 107,152.5 112,155 112,154 		"/>
		<polygon fill="#3399CC" points="102,150 97,147.5 97,141.5 102,144 		"/>
		<polygon opacity="0.3" points="98,147 98,142 97,141.5 97,147.5 102,150 102,149 		"/>
		<polygon fill="#3399CC" points="96,147 91,144.5 91,138.5 96,141 		"/>
		<polygon opacity="0.3" points="92,144 92,139 91,138.5 91,144.5 96,147 96,146 		"/>
		<polygon fill="#3399CC" points="86,142 81,139.5 81,133.5 86,136 		"/>
		<polygon opacity="0.2" fill="#FFFFFF" points="86,142 81,139.5 81,133.5 		"/>
		<polygon opacity="0.3" points="82,139 82,134 81,133.5 81,139.5 86,142 86,141 		"/>
		<polygon fill="#3399CC" points="80,139 75,136.5 75,130.5 80,133 		"/>
		<polygon opacity="0.3" points="76,136 76,131 75,130.5 75,136.5 80,139 80,138 		"/>
		<polygon fill="#3399CC" points="70,134 65,131.5 65,125.5 70,128 		"/>
		<polygon opacity="0.3" points="66,131 66,126 65,125.5 65,131.5 70,134 70,133 		"/>
		<polygon fill="#3399CC" points="64,131 59,128.5 59,122.5 64,125 		"/>
		<polygon opacity="0.3" points="60,128 60,123 59,122.5 59,128.5 64,131 64,130 		"/>
		<polygon fill="#3399CC" points="54,126 49,123.5 49,117.5 54,120 		"/>
		<polygon opacity="0.3" points="50,123 50,118 49,117.5 49,123.5 54,126 54,125 		"/>
		<polygon fill="#3399CC" points="48,123 43,120.5 43,114.5 48,117 		"/>
		<polygon opacity="0.3" points="44,120 44,115 43,114.5 43,120.5 48,123 48,122 		"/>
		<polygon fill="#3399CC" points="38,118 33,115.5 33,109.5 38,112 		"/>
		<polygon opacity="0.3" points="34,115 34,110 33,109.5 33,115.5 38,118 38,117 		"/>
		<polygon fill="#3399CC" points="32,115 27,112.5 27,106.5 32,109 		"/>
		<polygon opacity="0.3" points="28,112 28,107 27,106.5 27,112.5 32,115 32,114 		"/>
		<polygon fill="#3399CC" points="22,110 17,107.5 17,101.5 22,104 		"/>
		<polygon opacity="0.2" fill="#FFFFFF" points="22,110 17,107.5 17,101.5 		"/>
		<polygon opacity="0.3" points="18,107 18,102 17,101.5 17,107.5 22,110 22,109 		"/>
		<polygon fill="#3399CC" points="16,107 11,104.5 11,98.5 16,101 		"/>
		<polygon opacity="0.3" points="12,104 12,99 11,98.5 11,104.5 16,107 16,106 		"/>
		<polygon opacity="0.06" points="128,184 0,120 0,40 128,104 		"/>
	</g>
	<g>
		<polygon fill="#E5E5E5" points="128,184 208,144 208,64 128,104 		"/>
		<polygon fill="#FFFFFF" points="185,95.5 198,89 198,81 185,87.5 		"/>
		<polygon fill="#FFFFFF" points="185,115.5 198,109 198,101 185,107.5 		"/>
		<polygon fill="#FFFFFF" points="185,135.5 198,129 198,121 185,127.5 		"/>
		<polygon fill="#FFFFFF" points="169,103.5 182,97 182,89 169,95.5 		"/>
		<polygon fill="#FFFFFF" points="169,123.5 182,117 182,109 169,115.5 		"/>
		<polygon fill="#FFFFFF" points="169,143.5 182,137 182,129 169,135.5 		"/>
		<polygon fill="#3399CC" points="170,102 175,99.5 175,93.5 170,96 		"/>
		<polygon opacity="0.3" points="174,99 174,94 175,93.5 175,99.5 170,102 170,101 		"/>
		<polygon fill="#3399CC" points="176,99 181,96.5 181,90.5 176,93 		"/>
		<polygon opacity="0.3" points="180,96 180,91 181,90.5 181,96.5 176,99 176,98 		"/>
		<polygon fill="#3399CC" points="186,94 191,91.5 191,85.5 186,88 		"/>
		<polygon opacity="0.2" fill="#FFFFFF" points="186,94 191,91.5 191,85.5 		"/>
		<polygon opacity="0.3" points="190,91 190,86 191,85.5 191,91.5 186,94 186,93 		"/>
		<polygon fill="#3399CC" points="192,91 197,88.5 197,82.5 192,85 		"/>
		<polygon opacity="0.3" points="196,88 196,83 197,82.5 197,88.5 192,91 192,90 		"/>
		<polygon fill="#3399CC" points="170,122 175,119.5 175,113.5 170,116 		"/>
		<polygon opacity="0.3" points="174,119 174,114 175,113.5 175,119.5 170,122 170,121 		"/>
		<polygon fill="#3399CC" points="176,119 181,116.5 181,110.5 176,113 		"/>
		<polygon opacity="0.3" points="180,116 180,111 181,110.5 181,116.5 176,119 176,118 		"/>
		<polygon fill="#3399CC" points="186,114 191,111.5 191,105.5 186,108 		"/>
		<polygon opacity="0.2" fill="#FFFFFF" points="186,114 191,111.5 191,105.5 		"/>
		<polygon opacity="0.3" points="190,111 190,106 191,105.5 191,111.5 186,114 186,113 		"/>
		<polygon fill="#3399CC" points="192,111 197,108.5 197,102.5 192,105 		"/>
		<polygon opacity="0.3" points="196,108 196,103 197,102.5 197,108.5 192,111 192,110 		"/>
		<polygon fill="#3399CC" points="170,142 175,139.5 175,133.5 170,136 		"/>
		<polygon opacity="0.3" points="174,139 174,134 175,133.5 175,139.5 170,142 170,141 		"/>
		<polygon fill="#3399CC" points="176,139 181,136.5 181,130.5 176,133 		"/>
		<polygon opacity="0.3" points="180,136 180,131 181,130.5 181,136.5 176,139 176,138 		"/>
		<polygon fill="#3399CC" points="186,134 191,131.5 191,125.5 186,128 		"/>
		<polygon opacity="0.2" fill="#FFFFFF" points="186,134 191,131.5 191,125.5 		"/>
		<polygon opacity="0.3" points="190,131 190,126 191,125.5 191,131.5 186,134 186,133 		"/>
		<polygon fill="#3399CC" points="192,131 197,128.5 197,122.5 192,125 		"/>
		<polygon opacity="0.3" points="196,128 196,123 197,122.5 197,128.5 192,131 192,130 		"/>
		<polygon opacity="0.39" points="128,184 208,144 208,64 128,104 		"/>
	</g>
	<g>
		<polygon fill="#E5E5E5" points="146,40 130,48 130,51 162,67 178,59 178,56 		"/>
		<polygon fill="#E5E5E5" points="178,64 162,72 162,64 178,56 		"/>
		<polygon opacity="0.39" points="178,64 162,72 162,64 178,56 		"/>
		<polygon fill="#E5E5E5" points="162,72 130,56 130,48 162,64 		"/>
		<polygon opacity="0.06" points="162,72 130,56 130,48 162,64 		"/>
		<g>
			<path fill="#E5E5E5" d="M145,0c-4.4,0-8,1.8-8,4v44c0,2.2,3.6,4,8,4s8-1.8,8-4V4C153,1.8,149.4,0,145,0z"/>
			<path opacity="0.2" d="M145,8c-4.4,0-8-1.8-8-4v44c0,2.2,3.6,4,8,4s8-1.8,8-4V4C153,6.2,149.4,8,145,8z"/>
			<ellipse opacity="0.4" cx="145" cy="4" rx="6" ry="2.5"/>
		</g>
		<g>
			<path fill="#E5E5E5" d="M163,8c-4.4,0-8,1.8-8,4v44c0,2.2,3.6,4,8,4s8-1.8,8-4V12C171,9.8,167.4,8,163,8z"/>
			<path opacity="0.2" d="M163,16c-4.4,0-8-1.8-8-4v44c0,2.2,3.6,4,8,4s8-1.8,8-4V12C171,14.2,167.4,16,163,16z"/>
			<ellipse opacity="0.4" cx="163" cy="12" rx="6" ry="2.5"/>
		</g>
	</g>
</g>
</svg>
