<?xml version="1.0" encoding="utf-8"?>
<!-- Generator: Adobe Illustrator 18.1.0, SVG Export Plug-In . SVG Version: 6.00 Build 0)  -->
<svg version="1.1" id="Layer_1" xmlns="http://www.w3.org/2000/svg" xmlns:xlink="http://www.w3.org/1999/xlink" x="0px" y="0px"
	 viewBox="0 0 128 120" enable-background="new 0 0 128 120" xml:space="preserve">
<g>
	<g>
		<polygon fill="#E5E5E5" points="48,120 0,96 0,40 48,80 		"/>
		<polygon fill="#FFFFFF" points="42,117 6,99 6,67 42,85 		"/>
		<polygon fill="#656565" points="7,68.5 41,85.5 41,116.5 7,99.5 		"/>
		<polygon opacity="0.25" fill="#FFFFFF" points="41,115.5 7,98.5 7,97.5 41,114.5 		"/>
		<polygon opacity="0.25" fill="#FFFFFF" points="41,113.5 7,96.5 7,95.5 41,112.5 		"/>
		<polygon opacity="0.25" fill="#FFFFFF" points="41,111.5 7,94.5 7,93.5 41,110.5 		"/>
		<polygon opacity="0.25" fill="#FFFFFF" points="41,109.5 7,92.5 7,91.5 41,108.5 		"/>
		<polygon opacity="0.25" fill="#FFFFFF" points="41,107.5 7,90.5 7,89.5 41,106.5 		"/>
		<polygon opacity="0.25" fill="#FFFFFF" points="41,105.5 7,88.5 7,87.5 41,104.5 		"/>
		<polygon opacity="0.25" fill="#FFFFFF" points="41,103.5 7,86.5 7,85.5 41,102.5 		"/>
		<polygon opacity="0.25" fill="#FFFFFF" points="41,93.5 7,76.5 7,75.5 41,92.5 		"/>
		<polygon opacity="0.25" fill="#FFFFFF" points="41,95.5 7,78.5 7,77.5 41,94.5 		"/>
		<polygon opacity="0.25" fill="#FFFFFF" points="41,91.5 7,74.5 7,73.5 41,90.5 		"/>
		<polygon opacity="0.25" fill="#FFFFFF" points="41,89.5 7,72.5 7,71.5 41,88.5 		"/>
		<polygon opacity="0.25" fill="#FFFFFF" points="41,101.5 7,84.5 7,83.5 41,100.5 		"/>
		<polygon opacity="0.25" fill="#FFFFFF" points="41,99.5 7,82.5 7,81.5 41,98.5 		"/>
		<polygon opacity="0.25" fill="#FFFFFF" points="41,97.5 7,80.5 7,79.5 41,96.5 		"/>
		<polygon opacity="0.25" fill="#FFFFFF" points="41,87.5 7,70.5 7,69.5 41,86.5 		"/>
		<polygon opacity="0.06" points="48,120 0,96 0,40 48,80 		"/>
	</g>
	<g>
		<polygon fill="#E5E5E5" points="128,80 48,120 48,80 128,40 		"/>
		<polygon fill="#FFFFFF" points="122,63 54,97 54,89 122,55 		"/>
		<polygon fill="#3399CC" points="121,62.5 55,95.5 55,89.5 121,56.5 		"/>
		<polygon opacity="0.15" points="121,59.5 55,92.5 55,89.5 121,56.5 		"/>
		<polygon opacity="0.15" points="121,57.5 55,90.5 55,89.5 121,56.5 		"/>
		<polygon opacity="0.15" points="121,62.5 55,89.5 121,56.5 		"/>
		<polygon opacity="0.39" points="128,80 48,120 48,80 128,40 		"/>
	</g>
	<g>
		<polygon fill="#2D3134" points="80,0 0,40 48,80 128,40 		"/>
		<polygon fill="#2D3134" points="80,0 0,40 48,80 128,40 		"/>
		<polygon opacity="0.2" fill="#FFFFFF" points="81.1,0.9 80,0 0,40 1.1,40.9 		"/>
	</g>
</g>
</svg>
