<?xml version="1.0" encoding="utf-8"?>
<!-- Generator: Adobe Illustrator 18.1.0, SVG Export Plug-In . SVG Version: 6.00 Build 0)  -->
<svg version="1.1" id="Layer_1" xmlns="http://www.w3.org/2000/svg" xmlns:xlink="http://www.w3.org/1999/xlink" x="0px" y="0px"
	 viewBox="0 0 32 48" enable-background="new 0 0 32 48" xml:space="preserve">
<g>
	<path fill="#E5E5E5" d="M16,0C7.2,0,0,3.6,0,8v32c0,4.4,7.2,8,16,8s16-3.6,16-8V8C32,3.6,24.8,0,16,0z"/>
	<path fill="#CC291F" d="M16,32c-8.8,0-16-3.6-16-8v8c0,4.4,7.2,8,16,8s16-3.6,16-8v-8C32,28.4,24.8,32,16,32z"/>
	<path fill="#CC291F" d="M16,16C7.2,16,0,12.4,0,8v8c0,4.4,7.2,8,16,8s16-3.6,16-8V8C32,12.4,24.8,16,16,16z"/>
	<path opacity="0.2" d="M16,16C7.2,16,0,12.4,0,8v32c0,4.4,7.2,8,16,8s16-3.6,16-8V8C32,12.4,24.8,16,16,16z"/>
	<ellipse opacity="0.4" cx="16" cy="8" rx="12" ry="5"/>
</g>
</svg>
