<?xml version="1.0" encoding="utf-8"?>
<!-- Generator: Adobe Illustrator 18.1.0, SVG Export Plug-In . SVG Version: 6.00 Build 0)  -->
<svg version="1.1" id="Layer_1" xmlns="http://www.w3.org/2000/svg" xmlns:xlink="http://www.w3.org/1999/xlink" x="0px" y="0px"
	 viewBox="0 0 80 240" enable-background="new 0 0 80 240" xml:space="preserve">
<g>
	<path opacity="0.5" fill="#999999" d="M61.7,26.7c0.5,1.6-3,5.2-7.9,4.6c-4.9-0.6-5.5-9.4,1-10.2C56.8,20.8,61.2,25.1,61.7,26.7z"
		/>
	<path opacity="0.2" d="M68.3,231.5c26.9-13.2,1-17.9-14.1-26.3c-20.8-11.6-27.5-15.7-43-6.1c-17.1,10.6,0.2,17.9,16.1,25.3
		C45.3,232.8,52.3,239.3,68.3,231.5z"/>
	<path fill="#656565" d="M11.8,210.4c-0.3,1.9-0.7,3.5,2,4.2c2.6,0.7,5.4,0.3,7.9-1.7s3.7-3.1,7.1-4.1s5-4,5-6.5s-2.1-4.7-6.5-3.3
		c-4.5,1.4-6.8,3.3-6.8,3.3L11.8,210.4z"/>
	<path opacity="0.5" d="M33.8,202.2c0-0.8-0.2-1.5-0.6-2.2c0.5,2.2,0.3,6.4-7.5,8c-2.4,0.5-5.8,3.7-8.3,4.5c-1.9,0.6-4.3,0-5.7-1.1
		c-0.2,1.4,0,2.6,2.1,3.2c2.6,0.7,5.4,0.3,7.9-1.7s3.7-3.1,7.1-4.1C32.3,207.8,33.8,204.8,33.8,202.2z"/>
	<path fill="#656565" d="M51.7,227.3c0,2.6-1.1,5,2.2,5.6c3.3,0.6,10.3-3.8,13-4.5c2.9-0.8,9.9-3.6,9.9-6.1s-2.9-5.2-6.1-5
		c-3.1,0.3-9.1,0.7-9.1,0.7L51.7,227.3z"/>
	<path opacity="0.5" d="M76.7,222.3c0-1.4-0.9-2.8-2.2-3.8c3.9,4.7-2.5,6.3-6.2,7.3c-4.5,1.2-9.5,4.2-12.2,5
		c-1.9,0.5-3.5-0.1-4.6-0.7c0,1.4,0.3,2.5,2.3,2.9c3.3,0.6,10.3-3.8,13-4.5C69.7,227.6,76.7,224.8,76.7,222.3z"/>
	<path fill="#262626" d="M29.2,98.9c-2.6,4.5-5.2,11.4-6.9,20.4c-1.7,9-3.1,28.8-5.8,40.6s-4.6,18.2-6.5,31.2
		c-1.9,13-2,20.1,1.3,21.6c3.1,1.4,7.9,0.8,11.1-1.7c4.2-3.2,5.3-7.5,5.3-9.9s2.3-10.3,3.7-16.8s6.5-28.8,9.4-37.6
		c2.8-8.8,8.5-38.7,8.5-38.7L29.2,98.9z"/>
	<path opacity="0.2" d="M29.2,98.9c-2.6,4.5-5.2,11.4-6.9,20.4c-1.7,9-3.1,28.8-5.8,40.6s-4.6,18.2-6.5,31.2
		c-1.9,13-2,20.1,1.3,21.6c3.1,1.4,7.9,0.8,11.1-1.7c4.2-3.2,5.3-7.5,5.3-9.9s2.3-10.3,3.7-16.8s6.5-28.8,9.4-37.6
		c2.8-8.8,8.5-38.7,8.5-38.7L29.2,98.9z"/>
	<path fill="#262626" d="M36,105.9c-1.7,3.6-2.9,20.2-0.9,25.7c2.4,6.4,8.5,32.7,10.1,48.9c0.5,5.1,2.9,42.2,3,45.8
		c0.1,3.5,2.1,4.9,6.4,5.2c4.3,0.3,13-5.4,13.6-10.3c0.7-4.9,0.1-6.3-0.1-9c-0.2-2.7-1.4-17.3-1.6-25.3s0.5-46.9-1.2-57.8
		c-1.6-10.9-4.5-21.5-4.5-21.5L36,105.9z"/>
	<path fill="#262626" d="M65.1,75.2c-2.3-7.7-8.6-13.5-8.6-13.5s0.9-5.5-1-6.6s-7.8-0.6-12.4-2.2c-4.6-1.5-4.2-1.3-4.2-1.3l0.5-3
		c0,0-3.5-1.7-4.8-0.5c-1.3,1.2-0.8,4.6-0.8,4.6s-7.5-1.3-10.2,0c-2.7,1.3-6.2,3.3-8.3,5.6C13.1,61,2.7,72.7,1.5,74.9
		s-0.9,6.6-0.3,8.6c1,3.1,6.7,8.9,12.7,11.9c5.8,2.9,8.2,2.3,10.8,4.8c-0.8,5.4-2.4,9.2-2.2,10.2c0.3,2.5,4.1,1.9,6.2,3.1
		c5.9,3.4,21.3,5.3,26.9,5.4c5.6,0,9.4-1.6,9.4-1.6s0-19.6,0.5-24C66,89.5,67.4,82.9,65.1,75.2z M18.3,81.6c0,0-0.8-1.9,0.7-2.2
		s3.7-3.5,3.7-3.5s0.5,5.7,1.3,11.1C21,84.5,18.3,81.6,18.3,81.6z"/>
	<path fill="#FBD7C7" d="M36.7,51.8c0,0,2.8-1.4,2.7-5c0-3.6-4.3-11.8,0-18.1s15.7-7.7,20.2,0.6c4.7,8.6,0,20.2-1.5,21
		s-3.9,0.1-4.5,0.6c-0.6,0.5-0.5,2.8-0.4,4.3c0.1,1.6-6.8,2.3-11,1.7C38.1,56.5,36.7,51.8,36.7,51.8z"/>
	<path fill="#825012" d="M39.2,45.3c0.4,1.2,2.7,3.3,6.1,3.1s6.9-4.1,7.6-6.3c0.7-2.3,1.2-4.1,2.6-3.7s0.3,2.4,0.9,2.4
		c0.7,0,4.8-7.9,4.3-9.8c-0.3-1.2-1.4-4.6-5.7-7c-4.5-2.4-15.1-2.3-17.4,7.4C36.1,37.6,39.2,45.3,39.2,45.3z"/>
	<path fill="#FFCC00" d="M47.2,213.2l0.2,2.5c0,0,4,1.6,8.7,0.9c7.3-1.1,11.9-6.5,11.9-6.5l-0.1-2.3c0,0-5,4.8-11.8,6.3
		C50.8,215.4,47.2,213.2,47.2,213.2z"/>
	<path fill="#FFCC00" d="M46.8,207.6l0.2,2.5c0,0,4,1.6,8.7,0.9c7.3-1.1,11.9-6.5,11.9-6.5l-0.1-2.3c0,0-5,4.8-11.8,6.3
		C50.3,209.8,46.8,207.6,46.8,207.6z"/>
	<path fill="#656565" d="M65,107c0,0-0.5,5.2-0.5,6.1s-2.2,3.6-2.2,3.6s0,1.1,0.3,1.5c0.3,0.3,1,2,1.1,2.4c0.1,0.4,4.3-1.4,4.8-3.6
		s0.2-7.7-0.9-8.7C66.4,107.1,65,107,65,107z"/>
	<path fill="#262626" d="M35.6,37.9c0,0-10.3,15.2-0.4,16.5c9.9,1.3,22.6-7.6,26.6-14.9c3.2-5.9,4-10.5,1.2-13
		c-2.7-2.4-10.9,0.7-10.9,0.7L35.6,37.9z"/>
	<path fill="#FFCC00" d="M36.9,45c-1.1-0.8-5.1-12.9,2.4-20.1s21.5-2.3,22.2,4.7C62.2,36.5,46.4,51.6,36.9,45z"/>
	<path opacity="0.5" fill="#999999" d="M50.7,44.2c0,0,11.4-6.2,11.3-15.9c0-3.4-4.8-7.2-7.1-7.2c2.5,0.6,2.7,3.1,2.1,7.8
		C55.8,37.5,50.7,44.2,50.7,44.2z"/>
	<path fill="#FFCC00" d="M22.7,75.9l0.1-2.5c0,0-2.1-2.6-4.1-5.4s-4.1-8.8-4.1-8.8l-2.1,2.4c0,0,2.7,6,4.3,8.4
		c1.6,2.4,5.2,6.8,5.2,6.8L22.7,75.9z"/>
	<path fill="#FFCC00" d="M20.6,78.5c0,0-0.4,0.5-1,0.8c-0.7,0.3-1.1,0.4-1.1,0.4s-3.1-1.8-4.9-4.6c-4-6.1-5-9-5-9l2-2.2
		c0,0,1,3.3,5.3,9.9C17.7,76.7,20.6,78.5,20.6,78.5z"/>
	<path fill="#FFCC00" d="M22.7,74.9c0,0,4,2.9,10.2,5.2c6.2,2.4,16.2,3.9,16.2,3.9l0.1,3.3c0,0-7.3-0.6-17.3-4.2
		c-5.9-2.1-9.1-4.3-9.1-4.3L22.7,74.9z"/>
	<path fill="#FFCC00" d="M23.3,82.9c0,0,1.8,2.1,10,5.1c6.3,2.3,16.2,4.3,16.2,4.3l0.1,2.9c0,0-10.8-2.2-17.3-4.5
		c-3.5-1.2-8.4-4.1-8.4-4.1L23.3,82.9z"/>
	<path fill="#FFCC00" d="M49.4,90.2l0.2,3.1c0,0,2.8,1.2,7.4,1.7c3.6,0.4,8.6-0.8,8.6-0.8l0.3-2.8c0,0-3.6,1.5-8.9,0.9
		C51.3,91.6,49.4,90.2,49.4,90.2z"/>
	<path fill="#FFCC00" d="M49.7,96.7l0.2,3.1c0,0,2.8,1.6,7.4,1.7c3.6,0.1,8.1-0.8,8.1-0.8l0-2.8c0,0-2.8,1.1-8.1,0.9
		C51.5,98.6,49.7,96.7,49.7,96.7z"/>
	<path fill="#FFCC00" d="M9.3,194.9L9,197.8c0,0,0.7,2.7,5.5,3.2c6,0.6,14.5-5.5,14.5-5.5l0.6-2.8c0,0-9.4,5.7-14.7,5.6
		C11.5,198.3,9.3,194.9,9.3,194.9z"/>
	<path fill="#FFCC00" d="M10.3,188.7l-0.3,2.8c0,0,0.3,3,5.2,3.5c5.7,0.6,15.2-5.1,15.2-5.1l0.5-2.1c0,0-10.6,5-15.1,4.8
		C12.2,192.3,10.3,188.7,10.3,188.7z"/>
</g>
</svg>
