<?xml version="1.0" encoding="utf-8"?>
<!-- Generator: Adobe Illustrator 18.1.0, SVG Export Plug-In . SVG Version: 6.00 Build 0)  -->
<svg version="1.1" id="Layer_1" xmlns="http://www.w3.org/2000/svg" xmlns:xlink="http://www.w3.org/1999/xlink" x="0px" y="0px"
	 viewBox="0 0 160 240" enable-background="new 0 0 160 240" xml:space="preserve">
<path fill="#656565" d="M55.6,77.6c-0.1,6.6-2,14.5-3.7,20s-0.7,11.3-0.1,12.5c0.6,1.2,2,5.3,2.3,6.2s1.8,0.9,2-0.9
	c0.3-1.8-0.4-5.5,0.2-6.6c0.7-1.1,2.6-0.1,3-2.6c0.4-2.5-0.7-6.5-0.1-8.4c0.5-1.9,3.2-6.3,3.1-9.3s0.1-10.3,0.1-10.3L55.6,77.6z"/>
<g>
	<path fill="#656565" d="M56.9,194.4c-2.2,2.3-5.1,5.4-8.1,7c-3,1.6-5.8,3.8-5.3,6c0.5,2.2,3.9,4.6,10.1,3c3.7-0.9,5.3-4.4,7.9-5.1
		c2.6-0.7,6.5-2.3,6.8-3.6s0.3-5.2,0.3-5.2L56.9,194.4z"/>
	<path opacity="0.5" d="M68.2,201.7c0.1-0.4,0.1-0.9,0.2-1.5c-1.3,1.1-4.3,2.5-7.1,3.3c-3.4,0.9-5.8,4.8-9.4,5.9
		c-3.2,0.9-8-0.5-8.4-3.3c-0.2,0.5-0.2,0.9-0.1,1.4c0.5,2.2,3.9,4.6,10.1,3c3.7-0.9,5.3-4.4,7.9-5.1
		C63.9,204.6,67.9,203.1,68.2,201.7z"/>
	<path fill="#262626" d="M57.7,101.8c0,0-3,9.5-4,23.3s-0.1,35.1-0.1,46s-0.7,20.1-1.4,22.2c-0.7,2.1-1.3,6-0.4,6.8
		c1.3,1.1,7.9,2.7,10.8,3.2c6.1,1,8.4-3.8,9-5.7c0.6-1.9,2.7-23.2,2.4-30.6s0.8-11.2,1.8-18.9c0.9-6.8,3.3-27.2,3.3-27.2l0.3-13.9
		L57.7,101.8z"/>
	<path opacity="0.2" d="M57.7,101.8c0,0-3,9.5-4,23.3s-0.1,35.1-0.1,46s-0.7,20.1-1.4,22.2c-0.7,2.1-1.3,6-0.4,6.8
		c1.3,1.1,7.9,2.7,10.8,3.2c6.1,1,8.4-3.8,9-5.7c0.6-1.9,2.7-23.2,2.4-30.6s0.8-11.2,1.8-18.9c0.9-6.8,3.3-27.2,3.3-27.2l0.3-13.9
		L57.7,101.8z"/>
	<path fill="#FFCC00" d="M53.5,180.3c0,0,3.3,2.7,7.4,2.9c4,0.3,12.8-2.7,12.8-2.7l-0.2,2.3c0,0-7.2,2.5-12.2,2.4
		c-5-0.1-7.9-3-7.9-3L53.5,180.3z"/>
	<path fill="#FFCC00" d="M53,186.1c0,0,3.3,2.7,7.4,2.9c4,0.3,12.8-2.7,12.8-2.7l-0.2,2.3c0,0-7.2,2.5-12.2,2.4s-7.9-3-7.9-3
		L53,186.1z"/>
</g>
<path fill="#262626" d="M56.9,36.2c0,0,5.1,3.1,14.8,4.5c9.6,1.3,12.4,1.1,12.4,1.1s-5.5-5.6-13.1-6.8S56.9,36.2,56.9,36.2z"/>
<path opacity="0.2" d="M104.4,231.1c26.9-13.2,1-17.9-14.1-26.3c-20.8-11.6-27.5-15.7-43-6.1c-17.1,10.6,0.2,17.9,16.1,25.3
	C81.4,232.5,88.4,239,104.4,231.1z"/>
<path fill="#656565" d="M95.4,214c-1,2.5-2.7,5.6-5.3,8.1c-2.7,2.6-4.7,6.3-3.2,8.1s8.1,2.5,11.4,0.6s10-7.7,10.5-8.8
	c0.5-1.2-0.1-6.2-0.1-6.2L95.4,214z"/>
<path opacity="0.5" d="M108.7,222c0.2-0.4,0.2-1.2,0.2-2.2c-1.1,1.5-3.6,3.6-5.4,5.4c-2.2,2.1-5.5,5-9.6,5.5
	c-3.2,0.4-6.3-0.2-7.6-2.5c-0.1,0.8,0,1.5,0.5,2.1c1.5,1.9,8.1,2.5,11.4,0.6S108.2,223.2,108.7,222z"/>
<path fill="#262626" d="M66.7,105c-0.1,1.4,0.3,20,1.5,23.5s5.1,5.3,7.9,13.3s2.7,15,5.3,23.5c2.7,8.4,6.7,35.2,8.1,42.8
	c1,5.6,2,11.3,2.8,11.8c1.6,1,4.1,1.4,6.4,1.7c4.6,0.5,8.1,0.4,10.2-0.9c2.2-1.3,2.6-4.5,1.8-9.5s-3.3-23.4-4.9-32.4
	c-1.3-7.2-6.7-32.9-7-41.4s0.5-17.2-2.8-24.3c-3.3-7.1-6.4-9.4-6.4-9.4L66.7,105z"/>
<path fill="#FFCC00" d="M88.1,200.7l0.3,2.6c0,0,6.2,1.8,10.9,1.2c4.7-0.6,9.9-3.2,9.9-3.2l-0.3-2.3c0,0-7.2,3-10.4,3.1
	C93.1,202.2,88.1,200.7,88.1,200.7z"/>
<path fill="#FFCC00" d="M89.1,207.1l0.3,2.6c0,0,6.2,1.8,10.9,1.2c4.7-0.6,9.9-3.2,9.9-3.2l-0.3-2.3c0,0-7.2,3-10.4,3.1
	C94.1,208.7,89.1,207.1,89.1,207.1z"/>
<path fill="#262626" d="M117.6,79.6c-0.4-0.4-0.8-0.8-1.2-1.2c0,0,0,0,0-0.1c-0.7-1-5.9-8.4-7.8-11.8c-1.9-3.4-5-10.1-9.4-12.2
	c-4.3-2.2-9.7-2.6-11.3-3.3c-1.6-0.7,0.5-3.3-0.1-4.3c-0.7-0.9-10.1-5.2-16.7-2.9c-4.6,1.6-11,2-12.9,7.5c-1.9,5.6-5,14.7-4.3,20.5
	c0.2,1.4-0.7,13.1-1.3,15.2c-0.7,2.4-2.7,6.9-2.4,7.9c0.3,1,1.4,2,1.4,2l-0.3,2.6c0,0,2.6,0.1,4.6,0.2c0.3,0-3,11.6,0.1,13
	c6.1,2.7,20.1,0.5,27.1-0.4c6.5-0.9,7.5-7.3,7.5-7.3l-2.4,2c0,0,2,3,3.1,4.9c1,1.9,1.7,3.7,1.7,3.7l3.5-1.8c0,0,0.1,1.8,2.4,1.3
	c2.3-0.5,23.4-13.3,24-20.5C123.5,87.5,121.1,83.2,117.6,79.6z M97.3,94.3c-1.4,1.6-1.9,2.6-2.9,3.9c0-0.1-0.5-2.1,0.3-6.5
	c0.8-4.5,0.6-11.1,0.6-11.1s1.4,2.8,2.9,5c1.5,2.1,3.3,3.6,3.3,3.9C101.8,90.3,99.4,91.9,97.3,94.3z"/>
<path fill="#FBD7C7" d="M66.2,61.8l2.8-4.6c0,0,3.3-0.9,6.2-3.5c2.9-2.6,8.6-5.4,8.6-5.4s-2.5-1.7-2.8-4.6
	c-0.3-2.9,3.1-7.1,1.8-13.9c-1.2-6.7-7.1-11.5-16.4-7.4s-8.5,19.2-6.5,25.8c1.9,6.6,7.3,4.3,7.3,4.3s-0.6,2.8-0.9,4.6
	C66,59,66.2,61.8,66.2,61.8z"/>
<path fill="#FFCC00" d="M95.4,80.6l1.1,2.4c0,0,4.9-4.6,7.2-7.4c3.2-3.9,7.5-5.2,7.5-5.2l-1.7-2.6c0,0-5.4,2.8-7.6,5.5
	C98.4,77.5,95.4,80.6,95.4,80.6z"/>
<path fill="#FFCC00" d="M99,86.6l1.6,2.2c0,0,4.7-4.4,7-7.2c3.2-3.9,7.5-5.2,7.5-5.2l-1.7-2.6c0,0-5.4,2.8-7.6,5.5
	C102.4,83.4,99,86.6,99,86.6z"/>
<path fill="#FFCC00" d="M95.4,80.6l0.2,2.7c0,0-8.5-0.7-14.4-1.3C74.6,81.3,66,81.1,66,81.1l0.3-2.7c0,0,7.5,0.2,14.4,0.7
	S95.4,80.6,95.4,80.6z"/>
<path fill="#FFCC00" d="M95.2,87.9L95,90.4c0,0-8.4-0.7-14.2-1.3c-6.5-0.6-14.9-0.8-14.9-0.8l0.1-2.7c0,0,7.5,0.2,14.4,0.7
	C87.4,86.9,95.2,87.9,95.2,87.9z"/>
<polygon fill="#FFCC00" points="54.7,76.7 55,79.5 62.6,80.7 62.5,78 "/>
<polygon fill="#FFCC00" points="55.6,83.9 55.9,86.7 62.5,88.1 62.6,85.1 "/>
<path fill="#656565" d="M88.8,105.5c-0.3,0.3-0.6,0.5-0.8,0.5c-2,0.7-3,1-4.3,0.6c-1.3-0.4-5.2-1.5-6.9-1.8
	c-1.6-0.4-4.4-0.5-3.8,1.3c0.6,1.7,3.6,2.7,4.5,3c1,0.3,1.5,0.9,0.5,2.2c-1,1.2-9.1,4.6-8.4,7.2c1.1,4.2,4.5,6.2,11.1,4.5
	c2.7-0.7,9.9-5.2,13.2-7.7C90.3,110.4,89.7,106.7,88.8,105.5z"/>
<path fill="#FFCC00" d="M57.5,33.8c0.6,2.3,9.2,1.2,16.2,3.1c8.2,2.2,10,4,10.7,2.1c3-8.2-1.8-20.4-12.7-20.4
	C61.6,18.6,55.7,26.1,57.5,33.8z"/>
<path opacity="0.5" fill="#999999" d="M84.4,38.9c0,0-19.2-16.9-26.3-14.5s-2.5,9,0.1,8.4C63.3,31.5,84.4,38.9,84.4,38.9z"/>
<path fill="#262626" d="M51.4,31.5c8.2-2.2,23.8,1.9,29,4.6c5.4,2.8,9.2,5,9.2,5l-5.5,0.8c0,0-5.1-1.8-12.1-3.8
	c-7-2-15.1-1.8-15.1-1.8S47.4,32.6,51.4,31.5z"/>
</svg>
