<?xml version="1.0" encoding="utf-8"?>
<!-- Generator: Adobe Illustrator 18.1.0, SVG Export Plug-In . SVG Version: 6.00 Build 0)  -->
<svg version="1.1" id="Layer_1" xmlns="http://www.w3.org/2000/svg" xmlns:xlink="http://www.w3.org/1999/xlink" x="0px" y="0px"
	 viewBox="0 0 128 128" enable-background="new 0 0 128 128" xml:space="preserve">
<g>
	<g>
		<polygon fill="#99CC33" points="64,64 128,96 64,128 0,96 		"/>
		<polygon fill="#99CC33" points="64,64 128,96 64,128 0,96 		"/>
	</g>
	<g>
		<ellipse opacity="0.3" cx="70.5" cy="80" rx="7.5" ry="4"/>
		<path fill="#825012" d="M69,53v27c0,0.6,0.7,1,1.5,1s1.5-0.4,1.5-1V53H69z"/>
		<circle fill="#539B00" cx="63.5" cy="48.5" r="6.5"/>
		<circle fill="#539B00" cx="68" cy="40" r="9"/>
		<path fill="#825012" d="M71,68.4c2.6,0,3-0.9,3-3.4v-8h1v10c0,1.7-1.3,3-3,3h-1V68.4z"/>
		<path fill="#825012" d="M71,67.8c-1.7,0-3-0.4-3-2.1V56h-1v10c0,1.7,1.3,3,3,3h1V67.8z"/>
		<path fill="#825012" d="M69,46.8c-1.7,0-3-0.4-3-2.1V42h-1v3c0,1.7,1.3,3,3,3h1V46.8z"/>
		<circle fill="#539B00" cx="75.5" cy="55.5" r="7.5"/>
		<circle fill="#539B00" cx="80" cy="52" r="6"/>
		<path fill="#825012" d="M75,54.8c1.7,0,3-0.4,3-2.1V50h1v3c0,1.7-1.3,3-3,3h-1V54.8z"/>
		<rect x="68" y="39.4" fill="#825012" width="1" height="9.6"/>
		<circle fill="#539B00" cx="77" cy="42" r="8"/>
		<circle fill="#539B00" cx="72" cy="33" r="8"/>
		<path opacity="0.2" fill="#FFFFFF" d="M72.5,41c2.2,0,4.1,1.3,4.9,3.1c0.3-0.1,0.7-0.1,1.1-0.1c1.8,0,3.4,0.9,4.4,2.2
			c-0.4-1.8-2-3.2-3.9-3.2c0,0-0.1,0-0.1,0c-0.5-2.3-2.5-4-4.9-4c-2,0-3.7,1.2-4.5,2.9C70.3,41.3,71.4,41,72.5,41z"/>
		<circle fill="#539B00" cx="63" cy="40.4" r="3.6"/>
		<path opacity="0.2" fill="#FFFFFF" d="M63,40.5c0-2.5,1.7-4.6,4-5.3c0.2-2.9,2.5-5.2,5.5-5.2c1.7,0,3.3,0.8,4.3,2.1
			C76.2,29.7,74,28,71.5,28c-2.9,0-5.3,2.2-5.5,5.1c-2.3,0.5-4,2.5-4,4.9c0,1.1,0.4,2.2,1,3C63,40.8,63,40.7,63,40.5z"/>
		<circle fill="#539B00" cx="68.3" cy="55.8" r="9.3"/>
		<circle fill="#539B00" cx="80.3" cy="49.8" r="3.3"/>
		<path opacity="0.3" d="M86,52c0-0.4,0-0.8-0.1-1.2c-0.6,3.8-3.9,6.7-7.9,6.7c-0.1,0-0.3,0-0.4,0c0.7,0.3,1.6,0.5,2.4,0.5
			c0.7,0,1.3-0.1,1.9-0.3c-1.4,1.4-3.3,2.3-5.4,2.3c-1,0-2-0.2-2.9-0.6C72,61,69.7,62,67.3,62c-3.5,0-6.6-2-8.1-4.8
			c0.7,4.4,4.5,7.8,9.1,7.8c2.2,0,4.3-0.8,5.9-2.1C74.6,63,75,63,75.5,63c3.5,0,6.5-2.4,7.3-5.7C84.7,56.3,86,54.3,86,52z"/>
		<path opacity="0.2" fill="#FFFFFF" d="M65.5,51c0.8,0,1.5,0.1,2.2,0.4C68.6,50,70.2,49,72,49c1,0,1.9,0.3,2.7,0.8
			C74,48.1,72.4,47,70.5,47c-1.6,0-3,0.8-3.8,2c-0.2,0-0.5,0-0.7,0c-2.9,0-5.4,2.1-5.9,4.9C61.3,52.1,63.3,51,65.5,51z"/>
		<path opacity="0.3" d="M61,51.5c-1.9-0.8-3.4-2.4-3.9-4.5c-0.1,0.5-0.2,1-0.2,1.5c0,2.4,1.3,4.4,3.2,5.6
			C60.3,53.2,60.6,52.3,61,51.5z"/>
	</g>
	<g>
		<ellipse opacity="0.3" cx="42.5" cy="93" rx="7.5" ry="4"/>
		<path fill="#825012" d="M44,69v24c0,0.6-0.7,1-1.5,1S41,93.6,41,93V69H44z"/>
		<circle fill="#539B00" cx="51.5" cy="67.5" r="6.5"/>
		<circle fill="#539B00" cx="48" cy="59" r="9"/>
		<path fill="#825012" d="M42,81.4c-2.6,0-3-0.9-3-3.4v-8h-1v10c0,1.7,1.3,3,3,3h1L42,81.4z"/>
		<path fill="#825012" d="M43,82.8c1.7,0,3-0.4,3-2.1V71h1v10c0,1.7-1.3,3-3,3h-1L43,82.8z"/>
		<path fill="#825012" d="M39,79.8c-1.7,0-2-1.3-2-2.1V68h-1v10c0,1.7,1.3,3,3,3h0L39,79.8z"/>
		<circle fill="#539B00" cx="38" cy="69" r="9"/>
		<circle fill="#539B00" cx="33" cy="65" r="6"/>
		<path fill="#825012" d="M38,68.8c-1.7,0-3-0.4-3-2.1V64h-1v3c0,1.7,1.3,3,3,3h1L38,68.8z"/>
		<circle fill="#539B00" cx="37" cy="57" r="8"/>
		<circle fill="#539B00" cx="41" cy="53" r="8"/>
		<circle fill="#539B00" cx="47.5" cy="50.5" r="4.5"/>
		<path opacity="0.2" fill="#FFFFFF" d="M33.1,59c2.2,0,4.1,1.3,4.9,3.1c0.3-0.1,0.7-0.1,1.1-0.1c1.8,0,3.4,0.9,4.4,2.2
			c-0.4-1.8-2-3.2-3.9-3.2c0,0-0.1,0-0.1,0c-0.5-2.3-2.5-4-4.9-4c-2,0-3.7,1.2-4.5,2.9C30.9,59.3,32,59,33.1,59z"/>
		<path fill="#825012" d="M41,56.4c0.2,0.2,0.5,0.4,0.7,0.6H42v-3c-0.3,0-0.7-0.1-1-0.2V56.4z"/>
		<path opacity="0.2" fill="#FFFFFF" d="M41.5,49c2.4,0,4.3,1.9,4.5,4.2c0.5-0.1,1-0.2,1.5-0.2c2.5,0,4.6,1.6,5.3,3.9
			c0.1-0.4,0.2-0.9,0.2-1.4c0-2.5-2-4.5-4.5-4.5c-0.5,0-1,0.1-1.5,0.3c-0.1-1.8-1.6-3.3-3.5-3.3c-1,0-1.9,0.4-2.5,1
			C41.2,49,41.3,49,41.5,49z"/>
		<path opacity="0.3" d="M56.9,60.4c-1.7,1.9-4.1,3.1-6.8,3.1c-0.2,0-0.4,0-0.6,0c1,1.1,1.6,2.4,1.7,3.9
			C54.1,66.3,56.4,63.6,56.9,60.4z"/>
		<g>
			<path opacity="0.3" d="M54.5,70.7c0.3,0.7,0.4,1.5,0.5,2.3c1.7-1.1,2.9-2.9,3-5C57.2,69.3,55.9,70.2,54.5,70.7z"/>
		</g>
		<path opacity="0.3" d="M32.7,59c-1.6-1.4-2.7-3.5-2.7-5.9c-0.6,1.1-1,2.5-1,3.9c0,1.1,0.2,2.1,0.6,3.1
			C30.5,59.4,31.6,59.1,32.7,59z"/>
		<path fill="#825012" d="M48,60.6c0,1.7-1.3,2.1-3,2.1V64h1c1.7,0,3-1.3,3-3v-2c-0.3,0-0.7-0.1-1-0.2V60.6z"/>
		<circle fill="#539B00" cx="45.8" cy="71.8" r="9.3"/>
		<path opacity="0.2" fill="#FFFFFF" d="M42,69c1.2,0,2.3,0.3,3.3,0.8c1.2-1.1,2.9-1.8,4.7-1.8c1.6,0,3.1,0.5,4.2,1.4
			c-1.1-2-3.3-3.4-5.7-3.4c-1.6,0-3.1,0.6-4.2,1.6C43.6,67.2,42.8,67,42,67c-2.4,0-4.4,1.7-4.9,4C38.4,69.8,40.1,69,42,69z"/>
		<path opacity="0.3" d="M46.8,79c-3.8,0-7-2-8.8-5c-0.3,0-0.6,0-0.9,0c-3.5,0-6.5-2-8-4.9c0.1,4.9,4.1,8.9,9,8.9c0.3,0,0.6,0,0.9,0
			c1.7,1.9,4.1,3,6.8,3c3.6,0,6.6-2,8.2-4.9C52.1,77.9,49.5,79,46.8,79z"/>
	</g>
	<g>
		<ellipse opacity="0.3" cx="86.5" cy="92" rx="7.5" ry="4"/>
		<path fill="#825012" d="M88,68v24c0,0.6-0.7,1-1.5,1S85,92.6,85,92V68H88z"/>
		<circle fill="#539B00" cx="95.5" cy="66.5" r="6.5"/>
		<circle fill="#539B00" cx="92" cy="58" r="9"/>
		<path fill="#825012" d="M86,80.4c-2.6,0-3-0.9-3-3.4v-8h-1v10c0,1.7,1.3,3,3,3h1V80.4z"/>
		<path fill="#825012" d="M87,81.8c1.7,0,3-0.4,3-2.1V70h1v10c0,1.7-1.3,3-3,3h-1V81.8z"/>
		<path fill="#825012" d="M83,78.8c-1.7,0-2-1.3-2-2.1V67h-1v10c0,1.7,1.3,3,3,3l0,0V78.8z"/>
		<circle fill="#539B00" cx="82" cy="68" r="9"/>
		<circle fill="#539B00" cx="77" cy="64" r="6"/>
		<path fill="#825012" d="M82,67.8c-1.7,0-3-0.4-3-2.1V63h-1v3c0,1.7,1.3,3,3,3h1V67.8z"/>
		<circle fill="#539B00" cx="81" cy="56" r="8"/>
		<circle fill="#539B00" cx="85" cy="52" r="8"/>
		<circle fill="#539B00" cx="91.5" cy="49.5" r="4.5"/>
		<path opacity="0.2" fill="#FFFFFF" d="M77.1,58c2.2,0,4.1,1.3,4.9,3.1c0.3-0.1,0.7-0.1,1.1-0.1c1.8,0,3.4,0.9,4.4,2.2
			c-0.4-1.8-2-3.2-3.9-3.2c0,0-0.1,0-0.1,0c-0.5-2.3-2.5-4-4.9-4c-2,0-3.7,1.2-4.5,2.9C74.9,58.3,76,58,77.1,58z"/>
		<path fill="#825012" d="M85,55.4c0.2,0.2,0.5,0.4,0.7,0.6H86v-3c-0.3,0-0.7-0.1-1-0.2V55.4z"/>
		<path opacity="0.2" fill="#FFFFFF" d="M85.5,48c2.4,0,4.3,1.9,4.5,4.2c0.5-0.1,1-0.2,1.5-0.2c2.5,0,4.6,1.6,5.3,3.9
			c0.1-0.4,0.2-0.9,0.2-1.4c0-2.5-2-4.5-4.5-4.5c-0.5,0-1,0.1-1.5,0.3c-0.1-1.8-1.6-3.3-3.5-3.3c-1,0-1.9,0.4-2.5,1
			C85.2,48,85.3,48,85.5,48z"/>
		<path opacity="0.3" d="M100.9,59.4c-1.7,1.9-4.1,3.1-6.8,3.1c-0.2,0-0.4,0-0.6,0c1,1.1,1.6,2.4,1.7,3.9
			C98.1,65.3,100.4,62.6,100.9,59.4z"/>
		<g>
			<path opacity="0.3" d="M98.5,69.7c0.3,0.7,0.4,1.5,0.5,2.3c1.7-1.1,2.9-2.9,3-5C101.2,68.3,99.9,69.2,98.5,69.7z"/>
		</g>
		<path opacity="0.3" d="M76.7,58c-1.6-1.4-2.7-3.5-2.7-5.9c-0.6,1.1-1,2.5-1,3.9c0,1.1,0.2,2.1,0.6,3.1
			C74.5,58.4,75.6,58.1,76.7,58z"/>
		<path fill="#825012" d="M92,59.6c0,1.7-1.3,2.1-3,2.1V63h1c1.7,0,3-1.3,3-3v-2c-0.3,0-0.7-0.1-1-0.2V59.6z"/>
		<circle fill="#539B00" cx="89.8" cy="70.8" r="9.3"/>
		<path opacity="0.2" fill="#FFFFFF" d="M86,68c1.2,0,2.3,0.3,3.3,0.8c1.2-1.1,2.9-1.8,4.7-1.8c1.6,0,3.1,0.5,4.2,1.4
			c-1.1-2-3.3-3.4-5.7-3.4c-1.6,0-3.1,0.6-4.2,1.6C87.6,66.2,86.8,66,86,66c-2.4,0-4.4,1.7-4.9,4C82.4,68.8,84.1,68,86,68z"/>
		<path opacity="0.3" d="M90.8,78c-3.8,0-7-2-8.8-5c-0.3,0-0.6,0-0.9,0c-3.5,0-6.5-2-8-4.9c0.1,4.9,4.1,8.9,9,8.9c0.3,0,0.6,0,0.9,0
			c1.7,1.9,4.1,3,6.8,3c3.6,0,6.6-2,8.2-4.9C96.1,76.9,93.5,78,90.8,78z"/>
	</g>
	<g>
		<polygon opacity="0.3" points="54.4,105.1 48.7,107.1 52.8,107.3 50.3,109 56.1,109 59.5,108.1 58.9,110.9 62.5,110.3 65.1,108.2 
			70,109.7 75.2,109 73.6,108 75.4,107.6 67.9,105.5 		"/>
		<path fill="#28896D" d="M56.7,83.6C61,83.1,63,75,63,75s0.9,8,6.2,10.1c0.1,0.7-1.9,1.4-3.6,0.6c-0.1,1.6,3.5,4.1,5.6,4.7
			c0.1,0.9-1.9,2.1-3.9,1.5c0.9,1.9,2.3,3.6,5.6,4.4c-1.5,0.9-3.9,0.1-5.3,0c0,1.3,4.7,2.5,7.1,2.4c-0.4,1.2-2.7,2.5-4.7,2.4
			c0,1.4,4.7,2.6,5.9,3c0.1,1.2-3.3,1.9-5.6,1.2c-0.1,1.4,2.4,2.7,3.6,3.3c0,1.1-7.6,0.7-8.9-1.5c-1.4,0.5-2.4,3.5-5.1,3.3
			c0.4-0.8,1.1-3.3-0.2-3.9c-1.1,1.6-5.8,2.7-7.7,1.8c0.5-0.5,3.2-0.9,2.4-2.7c-2.4-0.1-5.7-2.2-5.6-3.3c0.6,0.4,4.6,1,4.7,0
			c-1.8-0.1-2.9-1.6-3-2.7c0.6,0.3,4.6,1,4.7-0.3c-1.4-0.5-3.1-1.5-3-2.7c1.2,0.1,3.7,0.1,3.9-1.2c-1.5-0.5-2.9-2.7-3-3.6
			c1.1,0.3,5.4,0.1,5.3-0.9c-1.9-0.1-3.4-0.9-3.3-2.1c2.4-0.2,5-2.7,5-3.9C59.3,85.4,57.4,85,56.7,83.6z"/>
		<path opacity="0.2" fill="#FFFFFF" d="M73,96.3c0,0-3,0.1-5.6-2.4c-2.6-2.5-3.3-4.1-3.3-4.1s-0.6,0.8-2.7,2.1s-6.5,1.2-6.5,1.2
			s2.8,2.1,6.8,0.9c2-0.6,1.8-1,1.8-1s2.8,2.4,3.8,2.8C71.4,97.2,73,96.3,73,96.3z"/>
		<path opacity="0.2" fill="#FFFFFF" d="M56.4,89.2c3.6-1.9,5.8-3.5,6.5-6.5c-0.2,1.4,2.8,5.3,5.6,7.4c-2.1-0.2-4.7-3.7-5.9-3.6
			C62.4,87.6,58.9,89,56.4,89.2z"/>
		<path opacity="0.2" fill="#FFFFFF" d="M58.1,83.9c3.6-1.9,4.2-4.4,4.9-7.5c-0.2,1.4,1.6,5.9,4.4,8c-2.1-0.2-3.9-3.2-4.7-3.9
			C62.4,81.7,60.5,83.7,58.1,83.9z"/>
		<path opacity="0.2" fill="#FFFFFF" d="M52.8,97.1c0,0,4.4-0.1,7.8-1.7c1-0.1,2.5,3.1,3.3,3.3c0.8-0.2,1.3-0.4,2.1-1
			c0.7,3.1,6.1,5.7,9.1,6.6c-5.5,0-9.5-3.6-10.1-4.7c-0.7,0.5-0.8,2.1-2.1,2.1c-1-1.5-2.6-3.6-3-4.7C58.9,96.7,54.5,98.2,52.8,97.1z
			"/>
		<path opacity="0.2" fill="#FFFFFF" d="M50.1,103.2c6.2,0.7,8.5-2.2,9.5-3.3C59,104.2,52,105.4,50.1,103.2z"/>
		<path opacity="0.2" fill="#FFFFFF" d="M66.6,102.4c1.8,2.9,2.4,4.6,6.5,5.9C66.5,108.7,65.8,103.8,66.6,102.4z"/>
		<path opacity="0.2" fill="#FFFFFF" d="M60.7,109.5c0.4,0.2,4.2-5.9,1.4-7C60.5,103.4,61.9,106.5,60.7,109.5z"/>
		<path opacity="0.3" d="M65.1,84.4c-1.6-1.3-1.6-1.3-1.6-1.3s1.3,1.6,2.1,2.6c0,0,0,0,0,0c1.7,0.8,3.7,0.1,3.6-0.6
			C69.2,85.1,66.7,85.7,65.1,84.4z"/>
		<path opacity="0.3" d="M67.2,106.8c-2-2-2.4-5.1-2.4-5.1s-1.2,4.1-2.1,6c-0.6,1.2-1.2,2.2-2.7,2.6c0,0,0,0.1,0,0.1
			c2.8,0.2,3.7-2.8,5.1-3.3c1.3,2.2,8.9,2.6,8.9,1.5C73.9,108.5,69.2,108.8,67.2,106.8z"/>
		<path opacity="0.3" d="M70.6,99.6c-2-0.1-4.7-3.8-4.7-3.8s-1.4,0.7-2.2,0.1s-1.5-1.2-1.5-1.2s0.7,3.5,1.8,3.3s1.7-0.5,2.1-1
			c0.5,2.6,3.9,4.1,3.9,4.1c2,0.1,4.3-1.1,4.7-2.4C74.8,98.7,72.6,99.7,70.6,99.6z"/>
		<path opacity="0.3" d="M58.5,91C58.5,91,58.5,91,58.5,91c0.6,0,1.2,0,1.7-0.1c1.5-0.2,4.1-1.6,4.1-1.6l-2,0.2l0.8-1.7
			c0,0-2.3,1.9-4.3,2.1c-2,0.3-3.5-1-3.5-1C55.1,90.1,56.7,90.9,58.5,91z"/>
		<g>
			<path opacity="0.3" d="M55.2,99.3c-0.1,1.3-4.1,0.6-4.7,0.3c2.9,1.9,8.4-0.3,8.4-0.3l-2.6,0.1l3-1.5c0,0-6.7,0.4-7-1.3
				C52.1,97.8,53.8,98.8,55.2,99.3z"/>
			<path opacity="0.3" d="M58.1,100.7c0,0-2.1,0.6-3.6,0.6c-1.4,0-3.8-1.3-4-1.7c0.1,1.1,1.2,2.5,3,2.6
				C56.9,102.6,58.1,100.7,58.1,100.7z"/>
		</g>
		<path opacity="0.3" d="M60.7,107c0-1.2-0.3-8.2-0.3-8.2s-0.2,4.2-3.9,7.8c-1.3,1.2-4.6,1.6-4.6,1.6c1.9,0.9,6.6-0.2,7.7-1.8
			c1,0.5,0.8,2.1,0.5,3.2C60.4,108.9,60.7,107.8,60.7,107z"/>
	</g>
	<g>
		<polygon opacity="0.3" points="67.8,113.4 64.3,114.7 66.8,114.8 65.3,115.8 68.8,115.8 70.9,115.3 70.6,117 72.7,116.6 
			74.3,115.3 77.3,116.3 80.5,115.8 79.5,115.2 80.6,114.9 76.1,113.7 		"/>
		<path fill="#28896D" d="M69.2,100.3C71.8,100,73,95,73,95s0.5,4.9,3.8,6.2c0.1,0.5-1.1,0.9-2.2,0.4c-0.1,1,2.1,2.5,3.4,2.9
			c0,0.5-1.2,1.3-2.4,0.9c0.5,1.2,1.4,2.2,3.4,2.7c-0.9,0.5-2.4,0-3.3,0c0,0.8,2.9,1.5,4.4,1.5c-0.3,0.8-1.7,1.5-2.9,1.5
			c0,0.9,2.9,1.6,3.6,1.8c0.1,0.7-2,1.2-3.4,0.7c0,0.9,1.5,1.6,2.2,2c0,0.7-4.7,0.5-5.4-0.9c-0.9,0.3-1.4,2.2-3.1,2
			c0.2-0.5,0.7-2-0.1-2.4c-0.7,1-3.5,1.6-4.7,1.1c0.3-0.3,2-0.5,1.5-1.6c-1.5,0-3.5-1.4-3.4-2c0.4,0.3,2.8,0.6,2.9,0
			c-1.1-0.1-1.8-1-1.8-1.6c0.4,0.2,2.8,0.6,2.9-0.2c-0.9-0.3-1.9-0.9-1.8-1.6c0.7,0.1,2.3,0,2.4-0.7c-0.9-0.3-1.8-1.7-1.8-2.2
			c0.7,0.2,3.3,0,3.3-0.5c-1.1-0.1-2.1-0.5-2-1.3c1.5-0.1,3.1-1.7,3.1-2.4C70.8,101.3,69.6,101.1,69.2,100.3z"/>
		<path opacity="0.2" fill="#FFFFFF" d="M79.2,108.1c0,0-1.9,0.1-3.4-1.5c-1.6-1.5-2-2.5-2-2.5s-0.4,0.5-1.6,1.3
			c-1.3,0.8-4,0.7-4,0.7s1.7,1.3,4.2,0.5c1.2-0.4,1.1-0.6,1.1-0.6s1.7,1.5,2.4,1.7C78.2,108.6,79.2,108.1,79.2,108.1z"/>
		<path opacity="0.2" fill="#FFFFFF" d="M69,103.7c2.2-1.2,3.5-2.1,4-4c-0.1,0.9,1.7,3.3,3.4,4.5c-1.3-0.1-2.9-2.3-3.6-2.2
			C72.7,102.7,70.5,103.6,69,103.7z"/>
		<path opacity="0.2" fill="#FFFFFF" d="M70,100.5c2.2-1.2,2.5-2.7,3-4.6c-0.1,0.9,1,3.6,2.7,4.9c-1.3-0.1-2.4-1.9-2.9-2.4
			C72.7,99.1,71.5,100.3,70,100.5z"/>
		<path opacity="0.2" fill="#FFFFFF" d="M66.8,108.6c0,0,2.7,0,4.8-1c0.6,0,1.5,1.9,2,2c0.5-0.1,0.8-0.3,1.3-0.6
			c0.4,1.9,3.7,3.5,5.6,4c-3.4,0-5.8-2.2-6.2-2.9c-0.4,0.3-0.5,1.3-1.3,1.3c-0.6-0.9-1.6-2.2-1.8-2.9
			C70.5,108.3,67.8,109.2,66.8,108.6z"/>
		<path opacity="0.2" fill="#FFFFFF" d="M65.2,112.3c3.8,0.4,5.2-1.3,5.8-2C70.6,112.9,66.3,113.6,65.2,112.3z"/>
		<path opacity="0.2" fill="#FFFFFF" d="M75.2,111.8c1.1,1.8,1.5,2.8,4,3.6C75.2,115.6,74.8,112.6,75.2,111.8z"/>
		<path opacity="0.2" fill="#FFFFFF" d="M71.6,116.1c0.2,0.1,2.6-3.6,0.8-4.3C71.5,112.4,72.4,114.3,71.6,116.1z"/>
		<path opacity="0.3" d="M74.3,100.8c-1-0.8-1-0.8-1-0.8s0.8,1,1.3,1.6c0,0,0,0,0,0c1,0.5,2.2,0.1,2.2-0.4
			C76.8,101.2,75.3,101.5,74.3,100.8z"/>
		<path opacity="0.3" d="M75.6,114.5c-1.2-1.2-1.5-3.1-1.5-3.1s-0.7,2.5-1.3,3.7c-0.4,0.7-0.7,1.3-1.7,1.6c0,0,0,0,0,0.1
			c1.7,0.1,2.3-1.7,3.1-2c0.8,1.4,5.4,1.6,5.4,0.9C79.7,115.5,76.8,115.7,75.6,114.5z"/>
		<path opacity="0.3" d="M77.7,110.1c-1.2-0.1-2.9-2.3-2.9-2.3s-0.8,0.4-1.3,0.1c-0.5-0.3-0.9-0.7-0.9-0.7s0.4,2.1,1.1,2
			c0.7-0.1,1-0.3,1.3-0.6c0.3,1.6,2.4,2.5,2.4,2.5c1.2,0.1,2.6-0.7,2.9-1.5C80.3,109.5,78.9,110.1,77.7,110.1z"/>
		<path opacity="0.3" d="M70.3,104.8C70.3,104.8,70.3,104.8,70.3,104.8c0.4,0,0.7,0,1.1-0.1c0.9-0.1,2.5-1,2.5-1l-1.2,0.1l0.5-1.1
			c0,0-1.4,1.1-2.6,1.3c-1.2,0.2-2.2-0.6-2.2-0.6C68.2,104.3,69.2,104.7,70.3,104.8z"/>
		<g>
			<path opacity="0.3" d="M68.3,109.9c-0.1,0.8-2.5,0.4-2.9,0.2c1.8,1.2,5.2-0.2,5.2-0.2l-1.6,0l1.9-0.9c0,0-4.1,0.2-4.3-0.8
				C66.4,109,67.4,109.6,68.3,109.9z"/>
			<path opacity="0.3" d="M70,110.8c0,0-1.3,0.4-2.2,0.4c-0.8,0-2.4-0.8-2.4-1c0.1,0.7,0.7,1.5,1.8,1.6
				C69.3,111.9,70,110.8,70,110.8z"/>
		</g>
		<path opacity="0.3" d="M71.7,114.6c0-0.7-0.2-5-0.2-5s-0.1,2.5-2.4,4.8c-0.8,0.7-2.8,1-2.8,1c1.2,0.5,4-0.1,4.7-1.1
			c0.6,0.3,0.5,1.3,0.3,1.9C71.5,115.7,71.7,115.1,71.7,114.6z"/>
	</g>
</g>
</svg>
