<?xml version="1.0" encoding="utf-8"?>
<!-- Generator: Adobe Illustrator 18.1.0, SVG Export Plug-In . SVG Version: 6.00 Build 0)  -->
<svg version="1.1" id="Layer_1" xmlns="http://www.w3.org/2000/svg" xmlns:xlink="http://www.w3.org/1999/xlink" x="0px" y="0px"
	 viewBox="0 0 64 64" enable-background="new 0 0 64 64" xml:space="preserve">
<g>
	<polygon fill="#F8EBCB" points="32,44 48,20 64,28 64,48 32,64 	"/>
	<polygon fill="#FFFFFF" points="32,64 34,63 34,41 32,44 	"/>
	<polygon fill="#FFFFFF" points="64,48 62,49 62,27 64,28 	"/>
	<g>
		<polygon fill="#FFFFFF" points="54,42 42,48 42,41 54,35 		"/>
		<polygon fill="#825012" points="53,41.5 43,46.5 43,41.5 53,36.5 		"/>
		<polygon fill="#3399CC" points="44,45 52,41 52,38 44,42 		"/>
		<polygon opacity="0.15" points="52,39 44,43 44,42 52,38 		"/>
		<polygon opacity="0.3" points="52,41 52,37 53,36.5 53,41.5 43,46.5 43,45.5 		"/>
	</g>
	<g>
		<polygon fill="#F8EBCB" points="0,28 32,44 32,64 0,48 		"/>
		<polygon fill="#FFFFFF" points="0,48 2,49 2,29 0,28 		"/>
		<polygon fill="#FFFFFF" points="30,63 32,64 32,44 30,43 		"/>
		<polygon opacity="0.3" points="30,63 2,49 2,48 30,62 		"/>
		<polygon fill="#FFFFFF" points="27,43.5 5,32.5 5,50.5 27,61.5 		"/>
		<polygon fill="#825012" points="26,61 6,51 6,34 26,44 		"/>
		<polygon opacity="0.3" points="26,60 6,50 6,49 26,59 		"/>
		<polygon opacity="0.3" points="26,58 6,48 6,47 26,57 		"/>
		<polygon opacity="0.3" points="26,56 6,46 6,45 26,55 		"/>
		<polygon opacity="0.3" points="26,54 6,44 6,43 26,53 		"/>
		<polygon opacity="0.3" points="26,52 6,42 6,41 26,51 		"/>
		<polygon opacity="0.3" points="26,50 6,40 6,39 26,49 		"/>
		<polygon opacity="0.3" points="26,48 6,38 6,37 26,47 		"/>
		<polygon opacity="0.3" points="26,46 6,36 6,35 26,45 		"/>
		<polygon opacity="0.06" points="0,28 32,44 32,64 0,48 		"/>
	</g>
	<polygon fill="#762C07" points="32,44 0,28 16,4 48,20 	"/>
	<polygon opacity="0.06" points="32,44 0,28 16,4 48,20 	"/>
	<polygon opacity="0.2" fill="#FFFFFF" points="14.9,5.6 46.9,21.6 48,20 16,4 	"/>
	<polygon opacity="0.3" points="62,49 34,63 34,62 62,48 	"/>
	<polygon fill="#762C07" points="32,44 48,20 64,28 63,28 48,21 33,44 	"/>
	<polygon opacity="0.39" points="32,44 48,20 64,28 64,48 32,64 	"/>
</g>
</svg>
