<?xml version="1.0" encoding="utf-8"?>
<!-- Generator: Adobe Illustrator 18.1.0, SVG Export Plug-In . SVG Version: 6.00 Build 0)  -->
<svg version="1.1" id="Layer_1" xmlns="http://www.w3.org/2000/svg" xmlns:xlink="http://www.w3.org/1999/xlink" x="0px" y="0px"
	 viewBox="0 0 208 224" enable-background="new 0 0 208 224" xml:space="preserve">
<g>
	<polygon fill="#999999" points="176,192 208,176 200,172 176,184 	"/>
	<polygon fill="#999999" points="176,192 208,176 200,172 176,184 	"/>
	<g>
		<g>
			<g>
				<polygon fill="#E5E5E5" points="72,4 0,40 0,104 128,168 200,132 200,68 				"/>
				<g>
					<polygon fill="#E5E5E5" points="128,216 0,152 0,40 128,104 					"/>
					<polygon fill="#3399CC" points="128,151 123,148.5 123,140.5 128,143 					"/>
					<polygon opacity="0.45" points="124,148 124,141 123,140.5 123,148.5 128,151 128,150 					"/>
					<polygon fill="#3399CC" points="120,147 115,144.5 115,136.5 120,139 					"/>
					<polygon opacity="0.45" points="116,144 116,137 115,136.5 115,144.5 120,147 120,146 					"/>
					<polygon fill="#3399CC" points="112,143 107,140.5 107,132.5 112,135 					"/>
					<polygon opacity="0.45" points="108,140 108,133 107,132.5 107,140.5 112,143 112,142 					"/>
					<polygon fill="#3399CC" points="104,139 99,136.5 99,128.5 104,131 					"/>
					<polygon opacity="0.45" points="100,136 100,129 99,128.5 99,136.5 104,139 104,138 					"/>
					<polygon fill="#3399CC" points="96,135 91,132.5 91,124.5 96,127 					"/>
					<polygon opacity="0.2" fill="#FFFFFF" points="96,135 91,132.5 91,124.5 					"/>
					<polygon opacity="0.45" points="92,132 92,125 91,124.5 91,132.5 96,135 96,134 					"/>
					<polygon fill="#3399CC" points="88,131 83,128.5 83,120.5 88,123 					"/>
					<polygon opacity="0.2" fill="#FFFFFF" points="88,131 83,128.5 83,120.5 					"/>
					<polygon opacity="0.45" points="84,128 84,121 83,120.5 83,128.5 88,131 88,130 					"/>
					<polygon fill="#3399CC" points="80,127 75,124.5 75,116.5 80,119 					"/>
					<polygon opacity="0.45" points="76,124 76,117 75,116.5 75,124.5 80,127 80,126 					"/>
					<polygon fill="#3399CC" points="72,123 67,120.5 67,112.5 72,115 					"/>
					<polygon opacity="0.45" points="68,120 68,113 67,112.5 67,120.5 72,123 72,122 					"/>
					<polygon fill="#3399CC" points="128,135 123,132.5 123,124.5 128,127 					"/>
					<polygon opacity="0.45" points="124,132 124,125 123,124.5 123,132.5 128,135 128,134 					"/>
					<polygon fill="#3399CC" points="120,131 115,128.5 115,120.5 120,123 					"/>
					<polygon opacity="0.45" points="116,128 116,121 115,120.5 115,128.5 120,131 120,130 					"/>
					<polygon fill="#3399CC" points="112,127 107,124.5 107,116.5 112,119 					"/>
					<polygon opacity="0.45" points="108,124 108,117 107,116.5 107,124.5 112,127 112,126 					"/>
					<polygon fill="#3399CC" points="104,123 99,120.5 99,112.5 104,115 					"/>
					<polygon opacity="0.45" points="100,120 100,113 99,112.5 99,120.5 104,123 104,122 					"/>
					<polygon fill="#3399CC" points="96,119 91,116.5 91,108.5 96,111 					"/>
					<polygon opacity="0.45" points="92,116 92,109 91,108.5 91,116.5 96,119 96,118 					"/>
					<polygon fill="#3399CC" points="88,115 83,112.5 83,104.5 88,107 					"/>
					<polygon opacity="0.45" points="84,112 84,105 83,104.5 83,112.5 88,115 88,114 					"/>
					<polygon fill="#3399CC" points="80,111 75,108.5 75,100.5 80,103 					"/>
					<polygon opacity="0.2" fill="#FFFFFF" points="80,111 75,108.5 75,100.5 					"/>
					<polygon opacity="0.45" points="76,108 76,101 75,100.5 75,108.5 80,111 80,110 					"/>
					<polygon fill="#3399CC" points="72,107 67,104.5 67,96.5 72,99 					"/>
					<polygon opacity="0.45" points="68,104 68,97 67,96.5 67,104.5 72,107 72,106 					"/>
					<polygon fill="#3399CC" points="128,119 123,116.5 123,108.5 128,111 					"/>
					<polygon opacity="0.45" points="124,116 124,109 123,108.5 123,116.5 128,119 128,118 					"/>
					<polygon fill="#3399CC" points="120,115 115,112.5 115,104.5 120,107 					"/>
					<polygon opacity="0.45" points="116,112 116,105 115,104.5 115,112.5 120,115 120,114 					"/>
					<polygon fill="#3399CC" points="112,111 107,108.5 107,100.5 112,103 					"/>
					<polygon opacity="0.15" points="112,111 107,100.5 112,103 					"/>
					<polygon opacity="0.45" points="108,108 108,101 107,100.5 107,108.5 112,111 112,110 					"/>
					<polygon fill="#3399CC" points="104,107 99,104.5 99,96.5 104,99 					"/>
					<polygon opacity="0.45" points="100,104 100,97 99,96.5 99,104.5 104,107 104,106 					"/>
					<polygon fill="#3399CC" points="96,103 91,100.5 91,92.5 96,95 					"/>
					<polygon opacity="0.45" points="92,100 92,93 91,92.5 91,100.5 96,103 96,102 					"/>
					<polygon fill="#3399CC" points="88,99 83,96.5 83,88.5 88,91 					"/>
					<polygon opacity="0.45" points="84,96 84,89 83,88.5 83,96.5 88,99 88,98 					"/>
					<polygon fill="#3399CC" points="80,95 75,92.5 75,84.5 80,87 					"/>
					<polygon opacity="0.45" points="76,92 76,85 75,84.5 75,92.5 80,95 80,94 					"/>
					<polygon fill="#3399CC" points="72,91 67,88.5 67,80.5 72,83 					"/>
					<polygon opacity="0.45" points="68,88 68,81 67,80.5 67,88.5 72,91 72,90 					"/>
					<polygon fill="#3399CC" points="128,199 123,196.5 123,188.5 128,191 					"/>
					<polygon opacity="0.45" points="124,196 124,189 123,188.5 123,196.5 128,199 128,198 					"/>
					<polygon fill="#3399CC" points="120,195 115,192.5 115,184.5 120,187 					"/>
					<polygon opacity="0.45" points="116,192 116,185 115,184.5 115,192.5 120,195 120,194 					"/>
					<polygon fill="#3399CC" points="112,191 107,188.5 107,180.5 112,183 					"/>
					<polygon opacity="0.45" points="108,188 108,181 107,180.5 107,188.5 112,191 112,190 					"/>
					<polygon fill="#3399CC" points="104,187 99,184.5 99,176.5 104,179 					"/>
					<polygon opacity="0.45" points="100,184 100,177 99,176.5 99,184.5 104,187 104,186 					"/>
					<polygon fill="#3399CC" points="96,183 91,180.5 91,172.5 96,175 					"/>
					<polygon opacity="0.45" points="92,180 92,173 91,172.5 91,180.5 96,183 96,182 					"/>
					<polygon fill="#3399CC" points="88,179 83,176.5 83,168.5 88,171 					"/>
					<polygon opacity="0.45" points="84,176 84,169 83,168.5 83,176.5 88,179 88,178 					"/>
					<polygon fill="#3399CC" points="80,175 75,172.5 75,164.5 80,167 					"/>
					<polygon opacity="0.2" fill="#FFFFFF" points="80,175 75,172.5 75,164.5 					"/>
					<polygon opacity="0.45" points="76,172 76,165 75,164.5 75,172.5 80,175 80,174 					"/>
					<polygon fill="#3399CC" points="72,171 67,168.5 67,160.5 72,163 					"/>
					<polygon opacity="0.45" points="68,168 68,161 67,160.5 67,168.5 72,171 72,170 					"/>
					<polygon fill="#3399CC" points="128,183 123,180.5 123,172.5 128,175 					"/>
					<polygon opacity="0.45" points="124,180 124,173 123,172.5 123,180.5 128,183 128,182 					"/>
					<polygon fill="#3399CC" points="120,179 115,176.5 115,168.5 120,171 					"/>
					<polygon opacity="0.45" points="116,176 116,169 115,168.5 115,176.5 120,179 120,178 					"/>
					<polygon fill="#3399CC" points="112,175 107,172.5 107,164.5 112,167 					"/>
					<polygon opacity="0.15" points="112,175 107,164.5 112,167 					"/>
					<polygon opacity="0.45" points="108,172 108,165 107,164.5 107,172.5 112,175 112,174 					"/>
					<polygon fill="#3399CC" points="104,171 99,168.5 99,160.5 104,163 					"/>
					<polygon opacity="0.45" points="100,168 100,161 99,160.5 99,168.5 104,171 104,170 					"/>
					<polygon fill="#3399CC" points="96,167 91,164.5 91,156.5 96,159 					"/>
					<polygon opacity="0.45" points="92,164 92,157 91,156.5 91,164.5 96,167 96,166 					"/>
					<polygon fill="#3399CC" points="88,163 83,160.5 83,152.5 88,155 					"/>
					<polygon opacity="0.45" points="84,160 84,153 83,152.5 83,160.5 88,163 88,162 					"/>
					<polygon fill="#3399CC" points="80,159 75,156.5 75,148.5 80,151 					"/>
					<polygon opacity="0.45" points="76,156 76,149 75,148.5 75,156.5 80,159 80,158 					"/>
					<polygon fill="#3399CC" points="72,155 67,152.5 67,144.5 72,147 					"/>
					<polygon opacity="0.45" points="68,152 68,145 67,144.5 67,152.5 72,155 72,154 					"/>
					<polygon fill="#3399CC" points="128,167 123,164.5 123,156.5 128,159 					"/>
					<polygon opacity="0.45" points="124,164 124,157 123,156.5 123,164.5 128,167 128,166 					"/>
					<polygon fill="#3399CC" points="120,163 115,160.5 115,152.5 120,155 					"/>
					<polygon opacity="0.45" points="116,160 116,153 115,152.5 115,160.5 120,163 120,162 					"/>
					<polygon fill="#3399CC" points="112,159 107,156.5 107,148.5 112,151 					"/>
					<polygon opacity="0.45" points="108,156 108,149 107,148.5 107,156.5 112,159 112,158 					"/>
					<polygon fill="#3399CC" points="104,155 99,152.5 99,144.5 104,147 					"/>
					<polygon opacity="0.15" points="104,155 99,144.5 104,147 					"/>
					<polygon opacity="0.45" points="100,152 100,145 99,144.5 99,152.5 104,155 104,154 					"/>
					<polygon fill="#3399CC" points="96,151 91,148.5 91,140.5 96,143 					"/>
					<polygon opacity="0.45" points="92,148 92,141 91,140.5 91,148.5 96,151 96,150 					"/>
					<polygon fill="#3399CC" points="88,147 83,144.5 83,136.5 88,139 					"/>
					<polygon opacity="0.15" points="88,147 83,136.5 88,139 					"/>
					<polygon opacity="0.45" points="84,144 84,137 83,136.5 83,144.5 88,147 88,146 					"/>
					<polygon fill="#3399CC" points="80,143 75,140.5 75,132.5 80,135 					"/>
					<polygon opacity="0.45" points="76,140 76,133 75,132.5 75,140.5 80,143 80,142 					"/>
					<polygon fill="#3399CC" points="72,139 67,136.5 67,128.5 72,131 					"/>
					<polygon opacity="0.45" points="68,136 68,129 67,128.5 67,136.5 72,139 72,138 					"/>
					<polygon fill="#3399CC" points="64,119 59,116.5 59,108.5 64,111 					"/>
					<polygon opacity="0.45" points="60,116 60,109 59,108.5 59,116.5 64,119 64,118 					"/>
					<polygon fill="#3399CC" points="56,115 51,112.5 51,104.5 56,107 					"/>
					<polygon opacity="0.45" points="52,112 52,105 51,104.5 51,112.5 56,115 56,114 					"/>
					<polygon fill="#3399CC" points="48,111 43,108.5 43,100.5 48,103 					"/>
					<polygon opacity="0.45" points="44,108 44,101 43,100.5 43,108.5 48,111 48,110 					"/>
					<polygon fill="#3399CC" points="40,107 35,104.5 35,96.5 40,99 					"/>
					<polygon opacity="0.45" points="36,104 36,97 35,96.5 35,104.5 40,107 40,106 					"/>
					<polygon fill="#3399CC" points="32,103 27,100.5 27,92.5 32,95 					"/>
					<polygon opacity="0.45" points="28,100 28,93 27,92.5 27,100.5 32,103 32,102 					"/>
					<polygon fill="#3399CC" points="24,99 19,96.5 19,88.5 24,91 					"/>
					<polygon opacity="0.2" fill="#FFFFFF" points="24,99 19,96.5 19,88.5 					"/>
					<polygon opacity="0.45" points="20,96 20,89 19,88.5 19,96.5 24,99 24,98 					"/>
					<polygon fill="#3399CC" points="16,95 11,92.5 11,84.5 16,87 					"/>
					<polygon opacity="0.45" points="12,92 12,85 11,84.5 11,92.5 16,95 16,94 					"/>
					<polygon fill="#3399CC" points="8,91 3,88.5 3,80.5 8,83 					"/>
					<polygon opacity="0.45" points="4,88 4,81 3,80.5 3,88.5 8,91 8,90 					"/>
					<polygon fill="#3399CC" points="64,103 59,100.5 59,92.5 64,95 					"/>
					<polygon opacity="0.45" points="60,100 60,93 59,92.5 59,100.5 64,103 64,102 					"/>
					<polygon fill="#3399CC" points="56,99 51,96.5 51,88.5 56,91 					"/>
					<polygon opacity="0.45" points="52,96 52,89 51,88.5 51,96.5 56,99 56,98 					"/>
					<polygon fill="#3399CC" points="48,95 43,92.5 43,84.5 48,87 					"/>
					<polygon opacity="0.45" points="44,92 44,85 43,84.5 43,92.5 48,95 48,94 					"/>
					<polygon fill="#3399CC" points="40,91 35,88.5 35,80.5 40,83 					"/>
					<polygon opacity="0.45" points="36,88 36,81 35,80.5 35,88.5 40,91 40,90 					"/>
					<polygon fill="#3399CC" points="32,87 27,84.5 27,76.5 32,79 					"/>
					<polygon opacity="0.45" points="28,84 28,77 27,76.5 27,84.5 32,87 32,86 					"/>
					<polygon fill="#3399CC" points="24,83 19,80.5 19,72.5 24,75 					"/>
					<polygon opacity="0.45" points="20,80 20,73 19,72.5 19,80.5 24,83 24,82 					"/>
					<polygon fill="#3399CC" points="16,79 11,76.5 11,68.5 16,71 					"/>
					<polygon opacity="0.2" fill="#FFFFFF" points="16,79 11,76.5 11,68.5 					"/>
					<polygon opacity="0.45" points="12,76 12,69 11,68.5 11,76.5 16,79 16,78 					"/>
					<polygon fill="#3399CC" points="8,75 3,72.5 3,64.5 8,67 					"/>
					<polygon opacity="0.45" points="4,72 4,65 3,64.5 3,72.5 8,75 8,74 					"/>
					<polygon fill="#3399CC" points="64,87 59,84.5 59,76.5 64,79 					"/>
					<polygon opacity="0.45" points="60,84 60,77 59,76.5 59,84.5 64,87 64,86 					"/>
					<polygon fill="#3399CC" points="56,83 51,80.5 51,72.5 56,75 					"/>
					<polygon opacity="0.45" points="52,80 52,73 51,72.5 51,80.5 56,83 56,82 					"/>
					<polygon fill="#3399CC" points="48,79 43,76.5 43,68.5 48,71 					"/>
					<polygon opacity="0.15" points="48,79 43,68.5 48,71 					"/>
					<polygon opacity="0.45" points="44,76 44,69 43,68.5 43,76.5 48,79 48,78 					"/>
					<polygon fill="#3399CC" points="40,75 35,72.5 35,64.5 40,67 					"/>
					<polygon opacity="0.45" points="36,72 36,65 35,64.5 35,72.5 40,75 40,74 					"/>
					<polygon fill="#3399CC" points="32,71 27,68.5 27,60.5 32,63 					"/>
					<polygon opacity="0.45" points="28,68 28,61 27,60.5 27,68.5 32,71 32,70 					"/>
					<polygon fill="#3399CC" points="24,67 19,64.5 19,56.5 24,59 					"/>
					<polygon opacity="0.45" points="20,64 20,57 19,56.5 19,64.5 24,67 24,66 					"/>
					<polygon fill="#3399CC" points="16,63 11,60.5 11,52.5 16,55 					"/>
					<polygon opacity="0.45" points="12,60 12,53 11,52.5 11,60.5 16,63 16,62 					"/>
					<polygon fill="#3399CC" points="8,59 3,56.5 3,48.5 8,51 					"/>
					<polygon opacity="0.45" points="4,56 4,49 3,48.5 3,56.5 8,59 8,58 					"/>
					<polygon fill="#3399CC" points="64,167 59,164.5 59,156.5 64,159 					"/>
					<polygon opacity="0.45" points="60,164 60,157 59,156.5 59,164.5 64,167 64,166 					"/>
					<polygon fill="#3399CC" points="56,163 51,160.5 51,152.5 56,155 					"/>
					<polygon opacity="0.45" points="52,160 52,153 51,152.5 51,160.5 56,163 56,162 					"/>
					<polygon fill="#3399CC" points="48,159 43,156.5 43,148.5 48,151 					"/>
					<polygon opacity="0.45" points="44,156 44,149 43,148.5 43,156.5 48,159 48,158 					"/>
					<polygon fill="#3399CC" points="40,155 35,152.5 35,144.5 40,147 					"/>
					<polygon opacity="0.45" points="36,152 36,145 35,144.5 35,152.5 40,155 40,154 					"/>
					<polygon fill="#3399CC" points="32,151 27,148.5 27,140.5 32,143 					"/>
					<polygon opacity="0.45" points="28,148 28,141 27,140.5 27,148.5 32,151 32,150 					"/>
					<polygon fill="#3399CC" points="24,147 19,144.5 19,136.5 24,139 					"/>
					<polygon opacity="0.45" points="20,144 20,137 19,136.5 19,144.5 24,147 24,146 					"/>
					<polygon fill="#3399CC" points="16,143 11,140.5 11,132.5 16,135 					"/>
					<polygon opacity="0.2" fill="#FFFFFF" points="16,143 11,140.5 11,132.5 					"/>
					<polygon opacity="0.45" points="12,140 12,133 11,132.5 11,140.5 16,143 16,142 					"/>
					<polygon fill="#3399CC" points="8,139 3,136.5 3,128.5 8,131 					"/>
					<polygon opacity="0.45" points="4,136 4,129 3,128.5 3,136.5 8,139 8,138 					"/>
					<polygon fill="#3399CC" points="128,211 123,208.5 123,204.5 128,207 					"/>
					<polygon opacity="0.45" points="124,208 124,205 123,204.5 123,208.5 128,211 128,210 					"/>
					<polygon fill="#3399CC" points="120,207 115,204.5 115,200.5 120,203 					"/>
					<polygon opacity="0.45" points="116,204 116,201 115,200.5 115,204.5 120,207 120,206 					"/>
					<polygon fill="#3399CC" points="112,203 107,200.5 107,196.5 112,199 					"/>
					<polygon opacity="0.45" points="108,200 108,197 107,196.5 107,200.5 112,203 112,202 					"/>
					<polygon fill="#3399CC" points="104,199 99,196.5 99,192.5 104,195 					"/>
					<polygon opacity="0.45" points="100,196 100,193 99,192.5 99,196.5 104,199 104,198 					"/>
					<polygon fill="#3399CC" points="96,195 91,192.5 91,188.5 96,191 					"/>
					<polygon opacity="0.45" points="92,192 92,189 91,188.5 91,192.5 96,195 96,194 					"/>
					<polygon fill="#3399CC" points="88,191 83,188.5 83,184.5 88,187 					"/>
					<polygon opacity="0.45" points="84,188 84,185 83,184.5 83,188.5 88,191 88,190 					"/>
					<polygon fill="#3399CC" points="80,187 75,184.5 75,180.5 80,183 					"/>
					<polygon opacity="0.2" fill="#FFFFFF" points="80,187 75,184.5 75,180.5 					"/>
					<polygon opacity="0.45" points="76,184 76,181 75,180.5 75,184.5 80,187 80,186 					"/>
					<polygon fill="#3399CC" points="72,183 67,180.5 67,176.5 72,179 					"/>
					<polygon opacity="0.45" points="68,180 68,177 67,176.5 67,180.5 72,183 72,182 					"/>
					<polygon fill="#3399CC" points="64,179 59,176.5 59,172.5 64,175 					"/>
					<polygon opacity="0.45" points="60,176 60,173 59,172.5 59,176.5 64,179 64,178 					"/>
					<polygon fill="#3399CC" points="56,175 51,172.5 51,168.5 56,171 					"/>
					<polygon opacity="0.45" points="52,172 52,169 51,168.5 51,172.5 56,175 56,174 					"/>
					<polygon fill="#3399CC" points="48,171 43,168.5 43,164.5 48,167 					"/>
					<polygon opacity="0.45" points="44,168 44,165 43,164.5 43,168.5 48,171 48,170 					"/>
					<polygon fill="#3399CC" points="40,167 35,164.5 35,160.5 40,163 					"/>
					<polygon opacity="0.45" points="36,164 36,161 35,160.5 35,164.5 40,167 40,166 					"/>
					<polygon fill="#3399CC" points="32,163 27,160.5 27,156.5 32,159 					"/>
					<polygon opacity="0.45" points="28,160 28,157 27,156.5 27,160.5 32,163 32,162 					"/>
					<polygon fill="#3399CC" points="24,159 19,156.5 19,152.5 24,155 					"/>
					<polygon opacity="0.45" points="20,156 20,153 19,152.5 19,156.5 24,159 24,158 					"/>
					<polygon fill="#3399CC" points="16,155 11,152.5 11,148.5 16,151 					"/>
					<polygon opacity="0.2" fill="#FFFFFF" points="16,155 11,152.5 11,148.5 					"/>
					<polygon opacity="0.45" points="12,152 12,149 11,148.5 11,152.5 16,155 16,154 					"/>
					<polygon fill="#3399CC" points="8,151 3,148.5 3,144.5 8,147 					"/>
					<polygon opacity="0.45" points="4,148 4,145 3,144.5 3,148.5 8,151 8,150 					"/>
					<polygon fill="#3399CC" points="64,151 59,148.5 59,140.5 64,143 					"/>
					<polygon opacity="0.45" points="60,148 60,141 59,140.5 59,148.5 64,151 64,150 					"/>
					<polygon fill="#3399CC" points="56,147 51,144.5 51,136.5 56,139 					"/>
					<polygon opacity="0.45" points="52,144 52,137 51,136.5 51,144.5 56,147 56,146 					"/>
					<polygon fill="#3399CC" points="48,143 43,140.5 43,132.5 48,135 					"/>
					<polygon opacity="0.15" points="48,143 43,132.5 48,135 					"/>
					<polygon opacity="0.45" points="44,140 44,133 43,132.5 43,140.5 48,143 48,142 					"/>
					<polygon fill="#3399CC" points="40,139 35,136.5 35,128.5 40,131 					"/>
					<polygon opacity="0.45" points="36,136 36,129 35,128.5 35,136.5 40,139 40,138 					"/>
					<polygon fill="#3399CC" points="32,135 27,132.5 27,124.5 32,127 					"/>
					<polygon opacity="0.45" points="28,132 28,125 27,124.5 27,132.5 32,135 32,134 					"/>
					<polygon fill="#3399CC" points="24,131 19,128.5 19,120.5 24,123 					"/>
					<polygon opacity="0.45" points="20,128 20,121 19,120.5 19,128.5 24,131 24,130 					"/>
					<polygon fill="#3399CC" points="16,127 11,124.5 11,116.5 16,119 					"/>
					<polygon opacity="0.2" fill="#FFFFFF" points="16,127 11,124.5 11,116.5 					"/>
					<polygon opacity="0.45" points="12,124 12,117 11,116.5 11,124.5 16,127 16,126 					"/>
					<polygon fill="#3399CC" points="8,123 3,120.5 3,112.5 8,115 					"/>
					<polygon opacity="0.45" points="4,120 4,113 3,112.5 3,120.5 8,123 8,122 					"/>
					<polygon fill="#3399CC" points="64,135 59,132.5 59,124.5 64,127 					"/>
					<polygon opacity="0.45" points="60,132 60,125 59,124.5 59,132.5 64,135 64,134 					"/>
					<polygon fill="#3399CC" points="56,131 51,128.5 51,120.5 56,123 					"/>
					<polygon opacity="0.45" points="52,128 52,121 51,120.5 51,128.5 56,131 56,130 					"/>
					<polygon fill="#3399CC" points="48,127 43,124.5 43,116.5 48,119 					"/>
					<polygon opacity="0.45" points="44,124 44,117 43,116.5 43,124.5 48,127 48,126 					"/>
					<polygon fill="#3399CC" points="40,123 35,120.5 35,112.5 40,115 					"/>
					<polygon opacity="0.15" points="40,123 35,112.5 40,115 					"/>
					<polygon opacity="0.45" points="36,120 36,113 35,112.5 35,120.5 40,123 40,122 					"/>
					<polygon fill="#3399CC" points="32,119 27,116.5 27,108.5 32,111 					"/>
					<polygon opacity="0.45" points="28,116 28,109 27,108.5 27,116.5 32,119 32,118 					"/>
					<polygon fill="#3399CC" points="24,115 19,112.5 19,104.5 24,107 					"/>
					<polygon opacity="0.15" points="24,115 19,104.5 24,107 					"/>
					<polygon opacity="0.45" points="20,112 20,105 19,104.5 19,112.5 24,115 24,114 					"/>
					<polygon fill="#3399CC" points="16,111 11,108.5 11,100.5 16,103 					"/>
					<polygon opacity="0.45" points="12,108 12,101 11,100.5 11,108.5 16,111 16,110 					"/>
					<polygon fill="#3399CC" points="8,107 3,104.5 3,96.5 8,99 					"/>
					<polygon opacity="0.45" points="4,104 4,97 3,96.5 3,104.5 8,107 8,106 					"/>
					<polygon opacity="0.06" points="128,216 0,152 0,40 128,104 					"/>
				</g>
				<g>
					<polygon fill="#E5E5E5" points="200,172 128,208 128,104 200,68 					"/>
					<polygon fill="#3399CC" points="196,85 128,119 128,111 196,77 					"/>
					<polygon opacity="0.45" points="195,77.5 195,84.5 128,118 128,119 196,85 196,77 					"/>
					<polygon opacity="0.2" fill="#FFFFFF" points="188,89 166,100 141,104.5 					"/>
					<polygon fill="#3399CC" points="196,117 128,151 128,143 196,109 					"/>
					<polygon fill="#3399CC" points="196,101 128,135 128,127 196,93 					"/>
					<polygon opacity="0.2" fill="#FFFFFF" points="164,117 148,125 128,127 					"/>
					<polygon fill="#3399CC" points="196,149 128,183 128,175 196,141 					"/>
					<polygon opacity="0.2" fill="#FFFFFF" points="188,153 166,164 141,168.5 					"/>
					<polygon fill="#3399CC" points="196,133 128,167 128,159 196,125 					"/>
					<polygon opacity="0.15" points="196,133 153,146.5 175,135.5 					"/>
					<polygon fill="#3399CC" points="196,165 128,199 128,191 196,157 					"/>
					<polygon opacity="0.2" fill="#FFFFFF" points="164,181 148,189 128,191 					"/>
					<polygon opacity="0.45" points="195,109.5 195,116.5 128,150 128,151 196,117 196,109 					"/>
					<polygon opacity="0.45" points="195,93.5 195,100.5 128,134 128,135 196,101 196,93 					"/>
					<polygon opacity="0.45" points="195,141.5 195,148.5 128,182 128,183 196,149 196,141 					"/>
					<polygon opacity="0.45" points="195,157.5 195,164.5 128,198 128,199 196,165 196,157 					"/>
					<polygon opacity="0.45" points="195,125.5 195,132.5 128,166 128,167 196,133 196,125 					"/>
					<polygon opacity="0.39" points="200,172 128,208 128,104 200,68 					"/>
				</g>
				<polygon fill="#E5E5E5" points="72,4 0,40 0,40 128,104 128,104 200,68 200,68 				"/>
			</g>
			<polygon fill="#E5E5E5" points="192,62 72,2 8,34 8,40 128,100 192,68 			"/>
			<polygon opacity="0.39" points="192,62 128,94 128,100 192,68 			"/>
			<polygon opacity="0.06" points="128,94 8,34 8,40 128,100 			"/>
			<polygon fill="#E5E5E5" points="192,62 72,2 8,34 128,94 			"/>
			<polygon opacity="0.3" points="16.9,34 72,6.5 183.1,62 128,89.5 			"/>
			<polygon opacity="0.39" points="72,9 72,6.5 16.9,34 19.5,35.3 			"/>
			<polygon opacity="0.06" points="72,9 180.5,63.3 183.1,62 72,6.5 			"/>
		</g>
		<g>
			<polygon fill="#E5E5E5" points="128,152 96,136 64,152 64,186 112,210 176,178 176,144 160,136 			"/>
			<g>
				<polygon fill="#3399CC" points="114,197 150,179 150,197 114,215 				"/>
				<polygon fill="#E5E5E5" points="120,212 119,212.5 119,194.5 120,194 				"/>
				<polygon fill="#E5E5E5" points="125,209.5 124,210 124,192 125,191.5 				"/>
				<polygon fill="#E5E5E5" points="130,207 129,207.5 129,189.5 130,189 				"/>
				<polygon fill="#E5E5E5" points="135,204.5 134,205 134,187 135,186.5 				"/>
				<polygon fill="#E5E5E5" points="140,202 139,202.5 139,184.5 140,184 				"/>
				<polygon fill="#E5E5E5" points="145,199.5 144,200 144,182 145,181.5 				"/>
				<polygon opacity="0.15" points="118,195 150,179 150,197 				"/>
				<polygon opacity="0.15" points="132,188 150,179 150,197 				"/>
				<polygon opacity="0.3" fill="#E5E5E5" points="150,186 114,204 114,203 150,185 				"/>
				<polygon opacity="0.39" points="114,197 150,179 150,197 114,215 				"/>
			</g>
			<polygon fill="#E5E5E5" points="98,217 106,213 106,195 98,191 			"/>
			<polygon opacity="0.39" points="98,217 106,213 106,195 98,191 			"/>
			<polygon fill="#999999" points="98,217 112,224 158,201 150,197 112,216 106,213 			"/>
			<polygon opacity="0.3" points="112,216 106,213 102,215 112,220 154,199 150,197 			"/>
			<g>
				<polygon fill="#3399CC" points="106,195 110,197 110,215 106,213 				"/>
				<polygon opacity="0.2" fill="#FFFFFF" points="106,195 110,215 106,213 				"/>
				<polygon opacity="0.39" fill="#E5E5E5" points="110,204 106,202 106,201 110,203 				"/>
				<polygon opacity="0.06" points="106,195 110,197 110,215 106,213 				"/>
			</g>
			<polygon opacity="0.2" points="112,191 98,184 98,189 112,196 142,181 142,176 			"/>
			<polygon fill="#E5E5E5" points="158,201 150,197 150,180 158,167 			"/>
			<polygon opacity="0.06" points="158,201 150,197 150,180 158,167 			"/>
			<g>
				<polygon fill="#E5E5E5" points="64,152 64,200 98,217 98,192 110,198 110,223 112,224 112,176 				"/>
				<polygon fill="#3399CC" points="88,190 83,187.5 83,179.5 88,182 				"/>
				<polygon opacity="0.45" points="84,187 84,180 83,179.5 83,187.5 88,190 88,189 				"/>
				<polygon fill="#3399CC" points="80,186 75,183.5 75,175.5 80,178 				"/>
				<polygon opacity="0.2" fill="#FFFFFF" points="80,186 75,183.5 75,175.5 				"/>
				<polygon opacity="0.45" points="76,183 76,176 75,175.5 75,183.5 80,186 80,185 				"/>
				<polygon fill="#3399CC" points="72,182 67,179.5 67,171.5 72,174 				"/>
				<polygon opacity="0.45" points="68,179 68,172 67,171.5 67,179.5 72,182 72,181 				"/>
				<polygon fill="#3399CC" points="88,177 83,174.5 83,166.5 88,169 				"/>
				<polygon opacity="0.45" points="84,174 84,167 83,166.5 83,174.5 88,177 88,176 				"/>
				<polygon fill="#3399CC" points="80,173 75,170.5 75,162.5 80,165 				"/>
				<polygon opacity="0.45" points="76,170 76,163 75,162.5 75,170.5 80,173 80,172 				"/>
				<polygon fill="#3399CC" points="72,169 67,166.5 67,158.5 72,161 				"/>
				<polygon opacity="0.45" points="68,166 68,159 67,158.5 67,166.5 72,169 72,168 				"/>
				<polygon fill="#3399CC" points="96,194 91,191.5 91,183.5 96,186 				"/>
				<polygon opacity="0.45" points="92,191 92,184 91,183.5 91,191.5 96,194 96,193 				"/>
				<polygon fill="#3399CC" points="88,203 83,200.5 83,192.5 88,195 				"/>
				<polygon opacity="0.45" points="84,200 84,193 83,192.5 83,200.5 88,203 88,202 				"/>
				<polygon fill="#3399CC" points="80,199 75,196.5 75,188.5 80,191 				"/>
				<polygon opacity="0.2" fill="#FFFFFF" points="80,199 75,196.5 75,188.5 				"/>
				<polygon opacity="0.45" points="76,196 76,189 75,188.5 75,196.5 80,199 80,198 				"/>
				<polygon fill="#3399CC" points="72,195 67,192.5 67,184.5 72,187 				"/>
				<polygon opacity="0.45" points="68,192 68,185 67,184.5 67,192.5 72,195 72,194 				"/>
				<polygon fill="#3399CC" points="96,207 91,204.5 91,196.5 96,199 				"/>
				<polygon opacity="0.45" points="92,204 92,197 91,196.5 91,204.5 96,207 96,206 				"/>
				<polygon fill="#3399CC" points="96,181 91,178.5 91,170.5 96,173 				"/>
				<polygon opacity="0.45" points="92,178 92,171 91,170.5 91,178.5 96,181 96,180 				"/>
				<polygon fill="#CC291F" points="103,179.5 105,180.5 105,190.5 103,189.5 				"/>
				<polygon fill="#CC291F" points="99,183.5 99,181.5 109,186.5 109,188.5 				"/>
				<polygon opacity="0.06" points="64,152 64,200 98,217 98,192 110,198 110,223 112,224 112,176 				"/>
			</g>
			<g>
				<polygon fill="#E5E5E5" points="112,176 112,224 114,223 114,198 158,176 158,201 176,192 176,144 				"/>
				<polygon fill="#3399CC" points="158,166 114,188 114,180 158,158 				"/>
				<polygon opacity="0.2" fill="#FFFFFF" points="158,166 142,174 117,178.5 				"/>
				<polygon opacity="0.39" points="112,176 112,224 114,223 114,198 158,176 158,201 176,192 176,144 				"/>
				<polygon opacity="0.45" points="157,158.5 157,165.5 114,187 114,188 158,166 158,158 				"/>
			</g>
		</g>
	</g>
</g>
</svg>
