<?xml version="1.0" encoding="utf-8"?>
<!-- Generator: Adobe Illustrator 18.1.0, SVG Export Plug-In . SVG Version: 6.00 Build 0)  -->
<svg version="1.1" id="Layer_1" xmlns="http://www.w3.org/2000/svg" xmlns:xlink="http://www.w3.org/1999/xlink" x="0px" y="0px"
	 viewBox="0 0 96 80" enable-background="new 0 0 96 80" xml:space="preserve">
<g>
	<polygon fill="#F8EBCB" points="64,52 80,28 96,36 96,56 64,72 	"/>
	<polygon fill="#FFFFFF" points="64,72 66,71 66,49 64,52 	"/>
	<g>
		<polygon fill="#FFFFFF" points="86,56 74,62 74,49 86,43 		"/>
		<polygon fill="#825012" points="85,55.5 75,60.5 75,49.5 85,44.5 		"/>
		<polygon fill="#3399CC" points="76,59 84,55 84,46 76,50 		"/>
		<polygon opacity="0.15" points="84,53 84,46 76,50 		"/>
		<polygon fill="#825012" points="76,53 84,49 84,50 76,54 		"/>
		<polygon opacity="0.15" points="84,47 76,51 76,50 84,46 		"/>
		<polygon fill="#825012" points="78,48 79,47.5 79,57.5 78,58 		"/>
		<polygon fill="#825012" points="81,46.5 82,46 82,56 81,56.5 		"/>
		<polygon opacity="0.3" points="84,55 84,45 85,44.5 85,55.5 75,60.5 75,59.5 		"/>
	</g>
	<g>
		<polygon fill="#F8EBCB" points="16,28 64,52 64,72 16,48 		"/>
		<polygon fill="#FFFFFF" points="16,48 18,49 18,29 16,28 		"/>
		<polygon fill="#FFFFFF" points="62,71 64,72 64,52 62,51 		"/>
		<polygon opacity="0.3" points="62,71 18,49 18,48 62,70 		"/>
		<g>
			<polygon fill="#FFFFFF" points="31,50.5 22,46 22,33 31,37.5 			"/>
			<polygon fill="#825012" points="30,49 23,45.5 23,34.5 30,38 			"/>
			<polygon fill="#3399CC" points="24,45 29,47.5 29,38.5 24,36 			"/>
			<polygon opacity="0.15" points="29,45.5 29,38.5 24,36 			"/>
			<polygon fill="#825012" points="24,39 29,41.5 29,42.5 24,40 			"/>
			<polygon opacity="0.15" points="29,39.5 24,37 24,36 29,38.5 			"/>
			<polygon fill="#825012" points="26,36 27,36.5 27,46.5 26,46 			"/>
			<polygon opacity="0.3" points="24,45 24,35 23,34.5 23,45.5 30,49 30,48 			"/>
		</g>
		<g>
			<polygon fill="#FFFFFF" points="58,64 49,59.5 49,46.5 58,51 			"/>
			<polygon fill="#825012" points="57,62.5 50,59 50,48 57,51.5 			"/>
			<polygon fill="#3399CC" points="51,58.5 56,61 56,52 51,49.5 			"/>
			<polygon opacity="0.15" points="56,59 56,52 51,49.5 			"/>
			<polygon fill="#825012" points="51,52.5 56,55 56,56 51,53.5 			"/>
			<polygon opacity="0.15" points="56,53 51,50.5 51,49.5 56,52 			"/>
			<polygon fill="#825012" points="53,49.5 54,50 54,60 53,59.5 			"/>
			<polygon opacity="0.3" points="51,58.5 51,48.5 50,48 50,59 57,62.5 57,61.5 			"/>
		</g>
		<polygon fill="#FFFFFF" points="45,44.5 35,39.5 35,56.5 45,61.5 		"/>
		<polygon fill="#825012" points="44,61 36,57 36,41 44,45 		"/>
		<polygon opacity="0.3" points="37,56.5 37,41.5 36,41 36,57 44,61 44,60 		"/>
		<polygon opacity="0.3" points="40,47 38,46 38,45 40,46 		"/>
		<polygon opacity="0.3" points="43,48.5 41,47.5 41,46.5 43,47.5 		"/>
		<polygon opacity="0.3" points="40,51 38,50 38,49 40,50 		"/>
		<polygon opacity="0.3" points="43,52.5 41,51.5 41,50.5 43,51.5 		"/>
		<polygon opacity="0.3" points="40,55 38,54 38,53 40,54 		"/>
		<polygon opacity="0.3" points="43,56.5 41,55.5 41,54.5 43,55.5 		"/>
		<polygon opacity="0.06" points="16,28 64,52 64,72 16,48 		"/>
	</g>
	<polygon fill="#762C07" points="64,52 16,28 32,4 80,28 	"/>
	<polygon opacity="0.06" points="64,52 16,28 32,4 80,28 	"/>
	<polygon opacity="0.2" fill="#FFFFFF" points="30.9,5.6 78.9,29.6 80,28 32,4 	"/>
	<g>
		<polygon fill="#656565" points="48,63 32,55 24,59 24,60 40,68 48,64 		"/>
		<polygon fill="#2D3134" points="44,61 36,57 32,59 40,63 		"/>
		<polygon opacity="0.39" points="48,63 48,64 40,68 40,67 		"/>
		<polygon opacity="0.06" points="24,59 24,60 40,68 40,67 		"/>
	</g>
	<g>
		<polygon fill="#FFFFFF" points="30,59.5 29,59 29,39 30,39.5 		"/>
		<polygon opacity="0.06" points="30,59.5 29,59 29,39 30,39.5 		"/>
		<polygon fill="#FFFFFF" points="30,39.5 31,39 31,59 30,59.5 		"/>
		<polygon opacity="0.39" points="30,39.5 31,39 31,59 30,59.5 		"/>
	</g>
	<g>
		<polygon fill="#FFFFFF" points="39,64 38,63.5 38,42.5 39,43 		"/>
		<polygon opacity="0.06" points="39,64 38,63.5 38,42.5 39,43 		"/>
		<polygon fill="#FFFFFF" points="39,43 40,42.5 40,63.5 39,64 		"/>
		<polygon opacity="0.39" points="39,43 40,42.5 40,63.5 39,64 		"/>
	</g>
	<g>
		<polygon fill="#F8EBCB" points="23,39 41,48 32,32 		"/>
		<polygon fill="#FFFFFF" points="27.7,39.7 31.6,36.4 35.4,43.5 		"/>
		<polygon fill="#762C07" points="32,33 40.3,47.6 41,48 32,32 23,39 23.7,39.4 		"/>
		<polygon fill="#762C07" points="32,32 41,48 48.6,43.7 50,23 		"/>
		<polygon opacity="0.39" points="32,32 41,48 48.6,43.7 50,23 		"/>
		<polygon opacity="0.2" fill="#FFFFFF" points="49.6,24.2 50,23 32,32 32.4,32.8 		"/>
		<polygon opacity="0.3" points="28.7,39.7 31.9,36.9 31.6,36.4 27.7,39.7 35.4,43.5 35.1,42.9 		"/>
		<polygon opacity="0.06" points="23,39 41,48 32,32 		"/>
	</g>
	<polygon fill="#FFFFFF" points="94,57 96,56 96,36 94,35 	"/>
	<polygon opacity="0.3" points="94,57 66,71 66,70 94,56 	"/>
	<polygon fill="#762C07" points="64,52 80,28 96,36 95,36 80,29 65,52 	"/>
	<polygon opacity="0.39" points="64,52 80,28 96,36 96,56 64,72 	"/>
</g>
</svg>
