<?xml version="1.0" encoding="utf-8"?>
<!-- Generator: Adobe Illustrator 18.1.0, SVG Export Plug-In . SVG Version: 6.00 Build 0)  -->
<svg version="1.1" id="Layer_1" xmlns="http://www.w3.org/2000/svg" xmlns:xlink="http://www.w3.org/1999/xlink" x="0px" y="0px"
	 viewBox="0 0 80 88" enable-background="new 0 0 80 88" xml:space="preserve">
<g>
	<polygon fill="#F8EBCB" points="80,38 64,30 48,54 48,88 80,72 	"/>
	<polygon fill="#FFFFFF" points="80,72 78,73 78,37 80,38 	"/>
	<g>
		<polygon fill="#FFFFFF" points="58,78 70,72 70,59 58,65 		"/>
		<polygon fill="#825012" points="59,76.5 69,71.5 69,60.5 59,65.5 		"/>
		<polygon fill="#3399CC" points="68,71 60,75 60,66 68,62 		"/>
		<polygon opacity="0.15" points="60,73 60,66 68,62 		"/>
		<polygon fill="#825012" points="68,65 60,69 60,70 68,66 		"/>
		<polygon opacity="0.15" points="60,67 68,63 68,62 60,66 		"/>
		<polygon fill="#825012" points="66,62 65,62.5 65,72.5 66,72 		"/>
		<polygon fill="#825012" points="63,63.5 62,64 62,74 63,73.5 		"/>
		<polygon opacity="0.3" points="68,71 68,61 69,60.5 69,71.5 59,76.5 59,75.5 		"/>
	</g>
	<g>
		<polygon fill="#FFFFFF" points="58,63 70,57 70,44 58,50 		"/>
		<polygon fill="#825012" points="59,61.5 69,56.5 69,45.5 59,50.5 		"/>
		<polygon fill="#3399CC" points="68,56 60,60 60,51 68,47 		"/>
		<polygon opacity="0.15" points="60,58 60,51 68,47 		"/>
		<polygon fill="#825012" points="68,50 60,54 60,55 68,51 		"/>
		<polygon opacity="0.15" points="60,52 68,48 68,47 60,51 		"/>
		<polygon fill="#825012" points="66,47 65,47.5 65,57.5 66,57 		"/>
		<polygon fill="#825012" points="63,48.5 62,49 62,59 63,58.5 		"/>
		<polygon opacity="0.3" points="68,56 68,46 69,45.5 69,56.5 59,61.5 59,60.5 		"/>
	</g>
	<g>
		<polygon fill="#F8EBCB" points="0,30 48,54 48,88 0,64 		"/>
		<polygon fill="#FFFFFF" points="0,64 2,65 2,31 0,30 		"/>
		<polygon fill="#FFFFFF" points="46,87 48,88 48,54 46,53 		"/>
		<polygon opacity="0.3" points="46,87 2,65 2,64 46,86 		"/>
		<g>
			<polygon fill="#FFFFFF" points="15,66.5 6,62 6,49 15,53.5 			"/>
			<polygon fill="#825012" points="14,65 7,61.5 7,50.5 14,54 			"/>
			<polygon fill="#3399CC" points="8,61 13,63.5 13,54.5 8,52 			"/>
			<polygon opacity="0.15" points="13,61.5 13,54.5 8,52 			"/>
			<polygon fill="#825012" points="8,55 13,57.5 13,58.5 8,56 			"/>
			<polygon opacity="0.15" points="13,55.5 8,53 8,52 13,54.5 			"/>
			<polygon fill="#825012" points="10,52 11,52.5 11,62.5 10,62 			"/>
			<polygon opacity="0.3" points="8,61 8,51 7,50.5 7,61.5 14,65 14,64 			"/>
		</g>
		<g>
			<polygon fill="#FFFFFF" points="29,73.5 20,69 20,56 29,60.5 			"/>
			<polygon fill="#825012" points="28,72 21,68.5 21,57.5 28,61 			"/>
			<polygon fill="#3399CC" points="22,68 27,70.5 27,61.5 22,59 			"/>
			<polygon opacity="0.15" points="27,68.5 27,61.5 22,59 			"/>
			<polygon fill="#825012" points="22,62 27,64.5 27,65.5 22,63 			"/>
			<polygon opacity="0.15" points="27,62.5 22,60 22,59 27,61.5 			"/>
			<polygon fill="#825012" points="24,59 25,59.5 25,69.5 24,69 			"/>
			<polygon opacity="0.3" points="22,68 22,58 21,57.5 21,68.5 28,72 28,71 			"/>
		</g>
		<g>
			<polygon fill="#FFFFFF" points="15,51.5 6,47 6,34 15,38.5 			"/>
			<polygon fill="#825012" points="14,50 7,46.5 7,35.5 14,39 			"/>
			<polygon fill="#3399CC" points="8,46 13,48.5 13,39.5 8,37 			"/>
			<polygon opacity="0.15" points="13,46.5 13,39.5 8,37 			"/>
			<polygon fill="#825012" points="8,40 13,42.5 13,43.5 8,41 			"/>
			<polygon opacity="0.15" points="13,40.5 8,38 8,37 13,39.5 			"/>
			<polygon fill="#825012" points="10,37 11,37.5 11,47.5 10,47 			"/>
			<polygon opacity="0.3" points="8,46 8,36 7,35.5 7,46.5 14,50 14,49 			"/>
		</g>
		<g>
			<polygon fill="#FFFFFF" points="29,58.5 20,54 20,41 29,45.5 			"/>
			<polygon fill="#825012" points="28,57 21,53.5 21,42.5 28,46 			"/>
			<polygon fill="#3399CC" points="22,53 27,55.5 27,46.5 22,44 			"/>
			<polygon opacity="0.15" points="27,53.5 27,46.5 22,44 			"/>
			<polygon fill="#825012" points="22,47 27,49.5 27,50.5 22,48 			"/>
			<polygon opacity="0.15" points="27,47.5 22,45 22,44 27,46.5 			"/>
			<polygon fill="#825012" points="24,44 25,44.5 25,54.5 24,54 			"/>
			<polygon opacity="0.3" points="22,53 22,43 21,42.5 21,53.5 28,57 28,56 			"/>
		</g>
		<g>
			<polygon fill="#FFFFFF" points="43,65.5 34,61 34,48 43,52.5 			"/>
			<polygon fill="#825012" points="42,64 35,60.5 35,49.5 42,53 			"/>
			<polygon fill="#3399CC" points="36,60 41,62.5 41,53.5 36,51 			"/>
			<polygon opacity="0.15" points="41,60.5 41,53.5 36,51 			"/>
			<polygon fill="#825012" points="36,54 41,56.5 41,57.5 36,55 			"/>
			<polygon opacity="0.15" points="41,54.5 36,52 36,51 41,53.5 			"/>
			<polygon fill="#825012" points="38,51 39,51.5 39,61.5 38,61 			"/>
			<polygon opacity="0.3" points="36,60 36,50 35,49.5 35,60.5 42,64 42,63 			"/>
		</g>
		<polygon fill="#FFFFFF" points="43,67.5 34,63 34,80 43,84.5 		"/>
		<polygon fill="#825012" points="42,84 35,80.5 35,64.5 42,68 		"/>
		<polygon opacity="0.3" points="36,80 36,65 35,64.5 35,80.5 42,84 42,83 		"/>
		<polygon opacity="0.3" points="38,70 36,69 36,68 38,69 		"/>
		<polygon opacity="0.3" points="41,71.5 39,70.5 39,69.5 41,70.5 		"/>
		<polygon opacity="0.3" points="38,74 36,73 36,72 38,73 		"/>
		<polygon opacity="0.3" points="41,75.5 39,74.5 39,73.5 41,74.5 		"/>
		<polygon opacity="0.3" points="38,78 36,77 36,76 38,77 		"/>
		<polygon opacity="0.3" points="41,79.5 39,78.5 39,77.5 41,78.5 		"/>
		<polygon opacity="0.06" points="0,30 48,54 48,88 0,64 		"/>
	</g>
	<polygon fill="#762C07" points="48,54 0,30 16,6 64,30 	"/>
	<polygon opacity="0.06" points="48,54 0,30 16,6 64,30 	"/>
	<polygon opacity="0.2" fill="#FFFFFF" points="14.9,7.6 62.9,31.6 64,30 16,6 	"/>
	<polygon fill="#FFFFFF" points="50,87 48,88 48,54 50,51 	"/>
	<polygon opacity="0.3" points="50,87 78,73 78,72 50,86 	"/>
	<polygon fill="#762C07" points="48,54 64,30 80,38 79,38 64,31 49,54 	"/>
	<polygon opacity="0.39" points="80,38 64,30 48,54 48,88 80,72 	"/>
</g>
</svg>
