<?xml version="1.0" encoding="utf-8"?>
<!-- Generator: Adobe Illustrator 18.1.0, SVG Export Plug-In . SVG Version: 6.00 Build 0)  -->
<svg version="1.1" id="Layer_1" xmlns="http://www.w3.org/2000/svg" xmlns:xlink="http://www.w3.org/1999/xlink" x="0px" y="0px"
	 viewBox="0 0 64 80" enable-background="new 0 0 64 80" xml:space="preserve">
<g>
	<polygon fill="#999999" points="6,63 2,65 30,79 34,77 	"/>
	<g>
		<polygon fill="#E5E5E5" points="16,4 0,28 0,64 2,65 34,49 34,13 18,5 		"/>
		<polygon opacity="0.06" points="2,29 0,28 0,64 2,65 		"/>
		<g opacity="0.39">
			<polygon points="34,49 2,65 2,29 18,5 34,13 			"/>
		</g>
	</g>
	<g>
		<polygon fill="#E5E5E5" points="34,77 6,63 6,29 34,43 		"/>
		<polygon fill="#FFFFFF" points="17,53.5 9,49.5 9,64.5 17,68.5 		"/>
		<polygon fill="#656565" points="10,51 16,54 16,68 10,65 		"/>
		<polygon fill="#3399CC" points="11,52.5 15,54.5 15,58.5 11,56.5 		"/>
		<polygon opacity="0.15" points="11,52.5 15,54.5 15,55.5 11,53.5 		"/>
		<polygon fill="#FFFFFF" points="27,41.5 21,38.5 21,53.5 27,56.5 		"/>
		<polygon fill="#656565" points="22,40 26,42 26,56 22,54 		"/>
		<polygon fill="#3399CC" points="23,41.5 25,42.5 25,54.5 23,53.5 		"/>
		<polygon opacity="0.15" points="23,41.5 25,42.5 25,43.5 23,42.5 		"/>
		<polygon fill="#FFFFFF" points="32,44 26,41 26,56 32,59 		"/>
		<polygon fill="#656565" points="27,42.5 31,44.5 31,58.5 27,56.5 		"/>
		<polygon fill="#3399CC" points="28,44 30,45 30,57 28,56 		"/>
		<polygon opacity="0.15" points="28,44 30,45 30,46 28,45 		"/>
		<polygon opacity="0.1" points="6,29 34,43 34,49 6,35 		"/>
		<polygon opacity="0.1" points="6,46 34,60 34,66 6,52 		"/>
		<polygon opacity="0.06" points="34,77 6,63 6,29 34,43 		"/>
	</g>
	<polygon fill="#BAA794" points="16,55 20,53 20,36 16,38 	"/>
	<polygon opacity="0.39" points="16,55 20,53 20,36 16,38 	"/>
	<g>
		<polygon fill="#999999" points="20,52 30,57 30,61 16,54 		"/>
		<polygon opacity="0.6" fill="#3399CC" points="16,47 30,54 30,60 16,53 		"/>
		<polygon opacity="0.15" points="23,50.7 30,54 30,60 27,58.6 		"/>
		<polygon opacity="0.2" fill="#FFFFFF" points="16,47 19,48.4 24.3,57 16,53 		"/>
		<polygon fill="#E5E5E5" points="16,53 30,60 30,62 16,55 		"/>
	</g>
	<g>
		<g>
			<polygon fill="#BAA794" points="16,55 2,48 2,31 16,38 			"/>
			<polygon fill="#BAA794" points="30,79 16,72 16,55 30,62 			"/>
			<g>
				<polygon fill="#656565" points="13,38.5 5,34.5 5,45.5 13,49.5 				"/>
				<polygon fill="#FFFFFF" points="6,36 12,39 12,48 6,45 				"/>
				<polygon fill="#3399CC" points="7,37.5 11,39.5 11,46.5 7,44.5 				"/>
				<polygon opacity="0.15" points="7,37.5 11,39.5 11,40.5 7,38.5 				"/>
			</g>
			<g>
				<polygon fill="#656565" points="27,62.5 19,58.5 19,69.5 27,73.5 				"/>
				<polygon fill="#FFFFFF" points="20,60 26,63 26,72 20,69 				"/>
				<polygon fill="#3399CC" points="21,61.5 25,63.5 25,70.5 21,68.5 				"/>
				<polygon opacity="0.15" points="21,61.5 25,63.5 25,64.5 21,62.5 				"/>
			</g>
		</g>
		<polygon fill="#E5E5E5" points="30,62 16,55 16,53 30,60 		"/>
		<polygon fill="#E5E5E5" points="30,45 2,31 2,29 30,43 		"/>
	</g>
	<g>
		<polygon fill="#2D3134" points="2,29.2 18,5.7 48,20.8 32,44.3 		"/>
	</g>
	<g opacity="6.000000e-002">
		<polygon points="2,29.2 18,5.7 48,20.8 32,44.3 		"/>
	</g>
	<polygon opacity="0.2" fill="#FFFFFF" points="18,5.7 17.3,6.9 47,21.8 48,20.8 	"/>
	<g>
		<polygon fill="#E5E5E5" points="46,19 30,43 30,79 32,80 64,64 64,28 48,20 		"/>
		<polygon opacity="0.06" points="32,44 30,43 30,79 32,80 		"/>
		<g>
			<g opacity="0.1">
				<g>
					<path d="M37.8,71.1c-0.6,0.3-1.1,1-1.1,1.6c0,0.6,0.5,0.8,1.1,0.5c0.6-0.3,1.1-1,1.1-1.6S38.4,70.8,37.8,71.1z"/>
					<path d="M60.3,60.8c0.7-0.4,1.3-1.2,1.3-1.9c0-0.7-0.6-1-1.3-0.6c-0.7,0.4-1.3,1.2-1.3,1.9S59.6,61.2,60.3,60.8z"/>
					<path d="M34.7,64.7c0.5-0.2,0.9-0.8,0.9-1.3s-0.4-0.7-0.9-0.4c-0.5,0.2-0.9,0.8-0.9,1.3C33.9,64.7,34.3,64.9,34.7,64.7z"/>
					<path d="M58.5,29.9c0-0.7-0.6-1-1.3-0.6c-0.7,0.4-1.3,1.2-1.3,1.9c0,0.7,0.6,1,1.3,0.6C58,31.5,58.5,30.6,58.5,29.9z"/>
					<path d="M57.3,53.2c0-0.1-0.1-0.2-0.2-0.1c-0.1,0.1-0.2,0.2-0.2,0.3s0.1,0.2,0.2,0.1C57.2,53.4,57.3,53.3,57.3,53.2z"/>
					<path d="M47.5,70c0-0.1-0.1-0.2-0.2-0.1c-0.1,0.1-0.2,0.2-0.2,0.3s0.1,0.2,0.2,0.1C47.4,70.2,47.5,70.1,47.5,70z"/>
					<path d="M57.4,45.1c-0.4,0.2-0.6,0.6-0.6,1s0.3,0.5,0.6,0.3c0.4-0.2,0.6-0.6,0.6-1C58,45,57.7,44.9,57.4,45.1z"/>
					<path d="M50.6,34.5c0,0.1,0.1,0.2,0.2,0.1c0.1-0.1,0.2-0.2,0.2-0.3c0-0.1-0.1-0.2-0.2-0.1C50.7,34.2,50.6,34.4,50.6,34.5z"/>
					<path d="M42.6,36.1c0.7-0.4,1.3-1.2,1.3-1.9c0-0.7-0.6-1-1.3-0.6c-0.7,0.4-1.3,1.2-1.3,1.9C41.3,36.1,41.9,36.4,42.6,36.1z"/>
					<path d="M36.3,45.2c-0.7,0.4-1.3,1.2-1.3,1.9s0.6,1,1.3,0.6c0.7-0.4,1.3-1.2,1.3-1.9S37,44.8,36.3,45.2z"/>
					<path d="M41,62.7c0-0.6-0.5-0.8-1.1-0.5s-1.1,1-1.1,1.6c0,0.6,0.5,0.8,1.1,0.5C40.5,64,41,63.3,41,62.7z"/>
					<path d="M49.5,56.4c0-0.6-0.5-0.8-1.1-0.5s-1.1,1-1.1,1.6s0.5,0.8,1.1,0.5C49,57.8,49.5,57,49.5,56.4z"/>
					<path d="M34.7,67.6c-0.4,0.2-0.6,0.6-0.6,1s0.3,0.5,0.6,0.3c0.4-0.2,0.6-0.6,0.6-1S35.1,67.4,34.7,67.6z"/>
					<path d="M50.2,45.2c-0.6,0.3-1.1,1-1.1,1.6s0.5,0.8,1.1,0.5c0.6-0.3,1.1-1,1.1-1.6C51.2,45.2,50.8,44.9,50.2,45.2z"/>
					<path d="M50.8,26.8c0,0.6,0.5,0.8,1.1,0.5s1.1-1,1.1-1.6c0-0.6-0.5-0.8-1.1-0.5S50.8,26.2,50.8,26.8z"/>
					<path d="M49.7,66.9c0.5-0.2,0.9-0.8,0.9-1.3c0-0.5-0.4-0.7-0.9-0.4c-0.5,0.2-0.9,0.8-0.9,1.3C48.9,67,49.2,67.1,49.7,66.9z"/>
					<path d="M59.4,37.1c-0.2,0.1-0.3,0.3-0.3,0.5s0.1,0.2,0.3,0.2c0.2-0.1,0.3-0.3,0.3-0.5C59.7,37,59.6,37,59.4,37.1z"/>
					<path d="M60.8,56.2c-0.2,0.1-0.3,0.3-0.3,0.5s0.1,0.2,0.3,0.2c0.2-0.1,0.3-0.3,0.3-0.5C61.1,56.2,60.9,56.2,60.8,56.2z"/>
					<path d="M59.3,40.1c0-0.2-0.2-0.3-0.4-0.2c-0.2,0.1-0.4,0.3-0.4,0.5c0,0.2,0.2,0.3,0.4,0.2C59.2,40.5,59.3,40.3,59.3,40.1z"/>
					<path d="M45.6,51.5c0-0.2-0.2-0.3-0.4-0.2c-0.2,0.1-0.4,0.3-0.4,0.5c0,0.2,0.2,0.3,0.4,0.2C45.4,51.9,45.6,51.7,45.6,51.5z"/>
					<path d="M40.8,40c-0.5,0.2-0.9,0.8-0.9,1.3s0.4,0.7,0.9,0.4s0.9-0.8,0.9-1.3S41.3,39.7,40.8,40z"/>
				</g>
			</g>
			<g opacity="0.1">
				<path d="M43.5,34c0,0.7-0.6,1.6-1.3,1.9c-0.2,0.1-0.4,0.2-0.6,0.1c0.2,0.1,0.6,0.1,0.9-0.1c0.7-0.4,1.3-1.2,1.3-1.9
					c0-0.5-0.3-0.8-0.7-0.8C43.4,33.4,43.5,33.7,43.5,34z"/>
				<path d="M45.2,51.3c0,0,0,0.1,0,0.1c0,0.2-0.2,0.4-0.4,0.5c0,0,0,0,0,0c0,0.1,0.2,0.2,0.3,0.1c0.2-0.1,0.4-0.3,0.4-0.5
					C45.6,51.3,45.4,51.2,45.2,51.3z"/>
				<path d="M41.2,39.9c0.1,0.1,0.2,0.2,0.2,0.4c0,0.5-0.4,1.1-0.9,1.3c-0.1,0.1-0.2,0.1-0.3,0.1c0.2,0.1,0.4,0.1,0.7,0
					c0.5-0.2,0.9-0.8,0.9-1.3C41.7,40,41.5,39.8,41.2,39.9z"/>
				<path d="M36.9,45c0.2,0.1,0.4,0.4,0.4,0.7c0,0.7-0.6,1.6-1.3,1.9c-0.2,0.1-0.4,0.2-0.6,0.1c0.2,0.1,0.6,0.1,0.9-0.1
					c0.7-0.4,1.3-1.2,1.3-1.9C37.6,45.3,37.3,45,36.9,45z"/>
				<path d="M48.9,55.8c0.2,0.1,0.3,0.3,0.3,0.6c0,0.6-0.5,1.3-1.1,1.6c-0.2,0.1-0.3,0.1-0.5,0.1c0.2,0.1,0.5,0.1,0.8,0
					c0.6-0.3,1.1-1,1.1-1.6C49.5,56,49.2,55.8,48.9,55.8z"/>
				<path d="M57.1,53.1c-0.1,0.1-0.2,0.2-0.2,0.3s0.1,0.2,0.2,0.1c0.1-0.1,0.2-0.2,0.2-0.3S57.2,53,57.1,53.1z"/>
				<path d="M52.7,25.6c0,0.6-0.5,1.3-1.1,1.6c-0.2,0.1-0.3,0.1-0.5,0.1c0.2,0.1,0.5,0.1,0.8,0c0.6-0.3,1.1-1,1.1-1.6
					c0-0.4-0.3-0.7-0.6-0.7C52.6,25.1,52.7,25.3,52.7,25.6z"/>
				<path d="M61.1,56.4c0-0.2-0.1-0.2-0.3-0.2c0,0,0,0,0,0c0,0,0,0,0,0c0,0.2-0.1,0.3-0.3,0.4c0,0.1,0.1,0.2,0.3,0.1
					C60.9,56.8,61.1,56.6,61.1,56.4z"/>
				<path d="M50.6,34.5c0,0.1,0.1,0.2,0.2,0.1c0.1-0.1,0.2-0.2,0.2-0.3c0-0.1-0.1-0.2-0.2-0.1C50.7,34.2,50.6,34.4,50.6,34.5z"/>
				<path d="M58.2,29.8c0,0.7-0.6,1.6-1.3,1.9c-0.2,0.1-0.4,0.2-0.6,0.1c0.2,0.1,0.6,0.1,0.9-0.1c0.7-0.4,1.3-1.2,1.3-1.9
					c0-0.5-0.3-0.8-0.7-0.8C58.1,29.2,58.2,29.5,58.2,29.8z"/>
				<path d="M59,39.9c0,0,0,0.1,0,0.1c0,0.2-0.2,0.4-0.4,0.5c0,0,0,0,0,0c0,0.1,0.2,0.2,0.3,0.1c0.2-0.1,0.4-0.3,0.4-0.5
					C59.3,39.9,59.2,39.8,59,39.9z"/>
				<path d="M40.4,62c0.2,0.1,0.3,0.3,0.3,0.6c0,0.6-0.5,1.3-1.1,1.6c-0.2,0.1-0.3,0.1-0.5,0.1c0.2,0.1,0.5,0.1,0.8,0
					c0.6-0.3,1.1-1,1.1-1.6C41,62.2,40.7,62,40.4,62z"/>
				<path d="M38.3,70.9c0.2,0.1,0.3,0.3,0.3,0.6c0,0.6-0.5,1.3-1.1,1.6c-0.2,0.1-0.3,0.1-0.5,0.1c0.2,0.1,0.5,0.1,0.8,0
					c0.6-0.3,1.1-1,1.1-1.6C38.9,71.2,38.7,70.9,38.3,70.9z"/>
				<path d="M57.5,45c0.1,0.1,0.1,0.2,0.1,0.3c0,0.4-0.3,0.8-0.6,1c-0.1,0-0.1,0-0.2,0.1c0.1,0.1,0.3,0.1,0.5,0
					c0.4-0.2,0.6-0.6,0.6-1C58,45.1,57.8,45,57.5,45z"/>
				<path d="M47.2,69.9c-0.1,0.1-0.2,0.2-0.2,0.3s0.1,0.2,0.2,0.1c0.1-0.1,0.2-0.2,0.2-0.3S47.4,69.8,47.2,69.9z"/>
				<path d="M35.1,62.8c0.1,0.1,0.2,0.2,0.2,0.4c0,0.5-0.4,1.1-0.9,1.3c-0.1,0.1-0.2,0.1-0.3,0.1c0.2,0.1,0.4,0.1,0.7,0
					c0.5-0.2,0.9-0.8,0.9-1.3C35.6,63,35.4,62.8,35.1,62.8z"/>
				<path d="M50.6,45.1c0.2,0.1,0.3,0.3,0.3,0.6c0,0.6-0.5,1.3-1.1,1.6c-0.2,0.1-0.3,0.1-0.5,0.1c0.2,0.1,0.5,0.1,0.8,0
					c0.6-0.3,1.1-1,1.1-1.6C51.2,45.3,51,45.1,50.6,45.1z"/>
				<path d="M60.9,58.1c0.2,0.1,0.4,0.4,0.4,0.7c0,0.7-0.6,1.6-1.3,1.9c-0.2,0.1-0.4,0.2-0.6,0.1c0.2,0.1,0.6,0.1,0.9-0.1
					c0.7-0.4,1.3-1.2,1.3-1.9C61.6,58.4,61.3,58.1,60.9,58.1z"/>
				<path d="M34.9,67.6c0.1,0.1,0.1,0.2,0.1,0.3c0,0.4-0.3,0.8-0.6,1c-0.1,0-0.1,0-0.2,0.1c0.1,0.1,0.3,0.1,0.5,0
					c0.4-0.2,0.6-0.6,0.6-1C35.4,67.7,35.2,67.5,34.9,67.6z"/>
				<path d="M50,65.1c0.1,0.1,0.2,0.2,0.2,0.4c0,0.5-0.4,1.1-0.9,1.3c-0.1,0.1-0.2,0.1-0.3,0.1c0.2,0.1,0.4,0.1,0.7,0
					c0.5-0.2,0.9-0.8,0.9-1.3C50.6,65.2,50.4,65,50,65.1z"/>
				<path d="M59.4,37.1C59.4,37.1,59.4,37.1,59.4,37.1C59.4,37.1,59.4,37.1,59.4,37.1c0,0.2-0.1,0.4-0.3,0.5c0,0.1,0.1,0.2,0.3,0.1
					c0.2-0.1,0.3-0.3,0.3-0.5S59.6,37,59.4,37.1z"/>
			</g>
		</g>
		<g opacity="0.39">
			<polygon points="64,64 32,80 32,44 48,20 64,28 			"/>
		</g>
	</g>
	<polygon opacity="0.06" points="30,45 30,43 2,29 2,31 2,48 16,55 16,55 16,72 30,79 30,54 16,47 16,38 	"/>
	<polygon fill="#999999" points="6,63 2,65 16,72 16,68 	"/>
	<polygon opacity="0.1" points="6,63 2,65 16,72 16,68 	"/>
</g>
</svg>
