<?xml version="1.0" encoding="utf-8"?>
<!-- Generator: Adobe Illustrator 18.1.0, SVG Export Plug-In . SVG Version: 6.00 Build 0)  -->
<svg version="1.1" id="Layer_1" xmlns="http://www.w3.org/2000/svg" xmlns:xlink="http://www.w3.org/1999/xlink" x="0px" y="0px"
	 viewBox="0 0 160 240" enable-background="new 0 0 160 240" xml:space="preserve">
<g>
	<path opacity="0.2" d="M27.9,235c7.1,3.4,33.1-9,46.8-14.4c10.1-4,23.8-9.2,17.7-12.4c-4.2-2.2-9.2-0.6-23.4,4.5
		C54.2,218.1,21.9,232.2,27.9,235z"/>
	<path fill="#FBD7C7" d="M100.4,70.4c-0.4,0.8-1.2,7.1,0,8.7c0.6,0.8,2.5,2.6,5.6,2c3.1-0.6,4.1-2,5.7-3s6.6-5.8,9.5-7.6
		c2.9-1.7,6.7-3.9,6.7-3.9s1.9-6,4.8-9c2.9-3,5.2-7.3,5.9-9c0.7-1.7,3.1-6.6,6.1-8.6s5.6,3.1,3.5,5.3c-2.1,2.2-4.6,3.3-4.9,4.1
		c-0.3,0.8-3.6,8.5-5.5,12.5s-3.2,7.5-3.9,8.4s-13.6,9.7-16.2,13.4c-2.6,3.8-6.4,7.7-6.8,10.4c-0.5,2.7-1.9,14.1-3.8,18.8
		c-1.8,4.7-4.5,14.2-4.2,17.4c0.3,3.2,1.6,8.4,1.6,13.9c0,5.5-0.1,17-0.9,20.4c-0.8,3.3-2.2,7-2.7,8.7c-0.5,1.7-7.3,15.8-9.8,21.9
		s-3.4,7.1-3.4,7.1l-0.6,7.6c0,0-7.6-8.7-7.6-9.3c0.1-0.6,3.6-2.4,4.5-3.5s2-7,2.6-11.2c0.6-4.2,2.9-12.3,4.4-15.4s2.1-5.1,1.6-8.1
		c-0.6-3-3.4-21.6-3.4-21.6s-3.1-2-4.5-3.7c-1.4-1.7-2.2-2.9-2.2-2.9s-5.1,6.3-8.4,9.4c-3.3,3.1-7.3,9.4-8.3,10.5
		c-1,1.1-2,2.2-3.3,2.5c-1.3,0.3-3,2.7-3.9,3.5c-0.8,0.8-5.5,4.1-7.2,5.2s-2,2.9-3.3,4.1c-1.3,1.1-2.8,2-3.4,2.5s-1.6,1.9-1.6,1.9
		s-0.5-9.2,1.1-10.3s5.4-8.8,7.6-10.6c2.1-1.7,5.7-4.1,5.7-4.1s7.4-11.1,11-18.1c3.6-7,6.4-15,9.6-18c3.2-2.9,5.8-5.2,5.8-5.2
		s-0.9-6.3-2.2-9c-1.3-2.8-2.2-5.9-3.1-7.9c-0.9-2-3.4-5.1-6.4-7.3c-2.9-2.2-9.3-6-13-7.4c-3.7-1.4-5.5-2.3-8.4-6.4
		C48,65.7,41,54.6,40.5,54.5s-4.4-1.5-6.7-2c-2.3-0.5-5.6-1.8-5.6-2.2c0-0.4,0.6-1.7,2.4-2s7.2,0,7.6-0.2c0.4-0.2,1.8-1.1,2.5-2.1
		s1-2.3,1.9-2.6c0.9-0.3,1.5,0.2,1.3,0.5c-0.2,0.3-1.2,1-0.9,2.1c0.2,1.2-0.4,3.9,0.5,5s6.4,6.6,9,9.3c2.6,2.7,5.8,7.2,7.1,7.9
		c1.2,0.6,9.8,3.8,14.4,6.6c4.7,2.8,11,4.6,12.6,3.7c1.6-0.9,3.4-2.4,3.6-4.1s-9.6-4.5-9.3-11.8c0.3-7.3,5.3-10.4,9.6-11.5
		c7.9-2.1,12.8,7.7,13.5,13.1S100.4,70.4,100.4,70.4z"/>
	<path fill="#825012" d="M85.1,50.2c-3.6,1.6-8.4,7.6-7,14.6c1.2,6.1,4.8,9.6,8.7,11.2c4.2,1.7,10.7,0.7,15-2.4
		c4.3-3.1,6.1-8.3,6.1-8.3s-2.6,1.1-3.2-1.5c-0.6-2.6-1.7-10.4-5.5-12.8C94.7,48.2,90.1,47.9,85.1,50.2z"/>
	<path fill="#FF9900" d="M41.4,180.8c0,0,2-4.6,2.9-5.7c0.9-1.1,1.2-0.8,1.2-1.8c0-1,0.3-2.9,0.6-4.1c0.2-1.2-0.8-3.7-0.8-3.7
		L41.4,180.8z"/>
	<path fill="#FF9900" d="M83,205.2c0,0,2.1,0.6,4.1-1c0.7-0.5,0.6-1.7,0.6-1.7l0.2-0.3c0,0,0.8,1.5,0.3,3c-0.5,1.5-0.5,6.6-1.1,7.1
		c-0.7,0.5-0.5-1.8-1.3-3.2C84.9,207.7,83,205.2,83,205.2z"/>
	<path fill="#CC291F" d="M82.8,106.5c0,0-7.2,5.8-11.7,11.5c-4.6,5.9-8.6,15.8-7.5,18.2c1.1,2.4,14.1,2.6,16,5.3
		c1.8,2.8,8.1,12.7,19.5,7.4s13.9-8.8,13.9-10.7s-4.6-16.4-5.7-21.2c-0.6-2.6,2.2-8.4,3.4-13.9c0.9-4.5,0.6-9,0.6-9
		s-2.9-2.8-3.7-6.6s-0.5-6.9-0.5-6.9s-3,0.6-4.3,0c-3.8,2.1-14.7,2.5-16.2-2.4c-1.6,0.1-2.7,0-2.7,0s-1.1,3.9-3.2,7.5
		c-1.2,2-3.4,3.4-3.4,3.4s2.2,4.3,2.5,6.2C80.5,100.9,82.8,106.5,82.8,106.5z"/>
	<path fill="#262626" d="M44,163.4c1.6,0.9,2.1,2,1.4,5.2s-2,5.3-2.5,8s-1.7,6.1-3.7,7.9c-1.9,1.6-4.4,1.7-6.4,0.6
		c-2.6-1.4-4-5.7-0.7-10.3c3-4.1,4.9-7.1,6.1-8.9C39.4,163.9,42.2,162.3,44,163.4z"/>
	<path fill="#262626" d="M79.5,200.8c-0.6-0.1-1.9,0.3-2.1,1.5c-0.2,1.3,0.5,2.8,1.3,3.9s1.4,2,2.6,3.5c1.3,1.5,3.2,3.3,4,3.4
		c1.2,0.2,1.7-0.6,1.7-0.9c0.1-0.6-0.3-1.8-0.9-2.9c-0.6-1-1.6-1.8-2.2-3.4c-0.3-0.6-0.8-1.7-2-3.1
		C80.8,201.4,80.1,200.8,79.5,200.8z"/>
</g>
</svg>
