<?xml version="1.0" encoding="utf-8"?>
<!-- Generator: Adobe Illustrator 18.1.0, SVG Export Plug-In . SVG Version: 6.00 Build 0)  -->
<svg version="1.1" id="Layer_1" xmlns="http://www.w3.org/2000/svg" xmlns:xlink="http://www.w3.org/1999/xlink" x="0px" y="0px"
	 viewBox="0 0 160 160" enable-background="new 0 0 160 160" xml:space="preserve">
<path opacity="0.2" d="M42,151.6c8.6,4.1,21.1-3.1,37.6-9.6c12.2-4.8,45.9-19.4,41.2-23.2c-4.5-3.6-30.9,7.5-48,13.7
	C55,138.9,34.8,148.2,42,151.6z"/>
<path fill="#FBD7C7" d="M82.6,41.2c-1.1-0.6-3.7-3-3.6-4.6c0.1-1.7,0.5-2.9,1.3-3.2c0.8-0.2,1.9,0,2.6-0.3c1-0.4,4.9-4.9,5-10.5
	s0.5-11.9-6.9-13.3c-7.4-1.4-12.3,1.8-13.4,7.4c-1.2,6.2,1.5,8.7,2.1,11c0.8,3.2,0.2,5.9-1.7,6.8c-1.8,0.8-5.1,0.5-5.1,0.5
	s4,4.8,7.7,5.8C74.5,41.9,82.6,41.2,82.6,41.2z"/>
<path fill="#825012" d="M83.8,27.8c0,0,1.5-3.8-0.3-3.8s-4.6,6.1-7.8,6.8s-5.9-0.3-7-2.7c-0.8-1.8-3.7-9.7-1-14.7
	c4.9-9.1,16.6-5.8,19.9-1.1c2.4,3.4,2.3,8.8,1.3,9.2s-0.7-2.2-1.7-1.5S85.7,27.9,83.8,27.8z"/>
<path fill="#FBD7C7" d="M50.2,41.8c0,0-0.8-3.7-1.5-5.6s-1.7-4.8-1.1-6.4c0.6-1.6,2-3.1,2-3.9s2-4.7-0.5-5.2
	c-2.5-0.5-3.4-0.1-4.3,2.4s-1,7.1-0.9,10c0.1,2.9-1.5,7.5-0.1,11.6s2.4,5.3,3.6,5.5s3.7-1.8,6.5-4.1C56.6,43.9,50.2,41.8,50.2,41.8z
	"/>
<path fill="#262626" d="M109.2,77c1.1,0.2,1.7,0.7,3.2-0.5c1.5-1.2,2.2-2.9,4.3-4.9c2.1-2.1,5.4-5.5,5.4-8.8c-0.1-4.1-3.9-6-6.4-4.1
	c-2.2,1.7-1.7,3.9-3.6,5.8c-2.9,2.9-4.5,3.3-4.5,3.3L109.2,77z"/>
<path fill="#FFFFFF" d="M109.8,74.6c0,0,1.6-0.5,5-3.7s5.7-4.9,6-8.9c0.3-4-4.1-4.7-5.7-2.4c-1.6,2.3-1.2,3.2-3.7,5.5
	C109.1,67.4,109.8,74.6,109.8,74.6z"/>
<path fill="#06547A" d="M76.4,76.2c0,0,10.7-5.8,11.5-5.9c0.8-0.1,5.4,2.1,9.4,4c4,1.9,11.1,3.7,12.7,3c1.5-0.7,4.3-4.9,3.5-10
	s-3.6-4.3-6.1-4.7c-2.5-0.4-8.1-2.4-10.8-3.6c-2.6-1.2-6.5-3.6-9.2-3s-16,5.5-16,5.5L76.4,76.2z"/>
<path opacity="0.2" d="M76.4,76.2c0,0,10.7-5.8,11.5-5.9c0.8-0.1,5.4,2.1,9.4,4c4,1.9,11.1,3.7,12.7,3c1.5-0.7,4.3-4.9,3.5-10
	s-3.6-4.3-6.1-4.7c-2.5-0.4-8.1-2.4-10.8-3.6c-2.6-1.2-6.5-3.6-9.2-3s-16,5.5-16,5.5L76.4,76.2z"/>
<path fill="#06547A" d="M45.5,132c-0.6,2.8-0.9,9.8,2.6,11.5s5.9-0.2,7.9-3.3c2-3.1,13.2-15.3,15-17.6s6.1-5.4,7.1-8.7
	c1.1-3.3,2.5-11.8,2.2-20.4c-0.3-8.6-1.7-19.8-1.7-19.8l-23.1,4.4c0,0-0.4,1.6,2.4,4.8c2.8,3.1,6.4,9.6,6.9,14s1.1,11,0.8,12.2
	c-0.2,1.2-9.3,8.3-13,13C48.9,126.7,46.2,128.3,45.5,132z"/>
<path fill="#99CC33" d="M100.2,42.9C100.1,42.9,100.1,42.9,100.2,42.9c0,0-9.6-1.7-12.8-2.4c-3.2-0.7-3.9-0.4-6-0.4
	c-2.1-0.1-6.1-0.8-9.4-1.8c-3.2-1-5.9-3.4-5.9-3.4c-1.2,0-2.3-2-5.9-1.7c-3.6,0.2-9.5,6.3-10.3,7.1c-0.8,0.8-1.5,2.6-0.6,4.9
	s3.6,3.9,4.9,3.9s2.7-1.5,2.7-1.5s0,3.9-0.2,9c-0.2,5-1.6,16.2-1.9,18.8c-0.3,2.6-0.3,6.2,7.7,9.8c8.3,3.7,15.4-1.6,16.8-4.2
	c1.4-2.6,0.3-5.3-0.2-6.3c-0.5-1,0.8-4.5,1.7-7.4c0.9-2.9,3.7-12.8,5.2-13.8c1.5-1,13.1-0.7,13.1-0.8c1.1-0.1,1.5-1.5,1.9-4.8
	C101.3,44.6,100.2,42.9,100.2,42.9z"/>
<path fill="#FFFFFF" d="M45,132.4c0,0,0.7-0.8,2.5-1.1s3.2,2.5,3.4,4.4c0.4,2.7,0.5,5.1,0.2,6.6c-0.5,2.4-1.5,5.9-2.2,6.9
	c-0.8,1-2.4,0.3-2.4,0.3L45,132.4z"/>
<path fill="#262626" d="M46.1,131.8c2.1,0.1,3.1,1.8,3.4,4.7c0.3,2.9,0.8,10.6-0.7,13.1c-1.5,2.5-7.2,1.1-6.2-3.7
	c0.6-3.2,0.9-4.3,0.9-7.2C43.5,136.4,43.4,131.7,46.1,131.8z"/>
<path fill="#FBD7C7" d="M131.5,32.9c-1.4-0.8-6.4,0.8-7.6,1.3c-1.2,0.5-2,1.7-3.1,3.1c-1.1,1.4-4.8,2.5-8.4,3.4
	c-3.6,1-6,3.7-6.2,3.8c-0.2,0-5.4-0.3-7.2-0.5c-0.6,0.7-1.1,1.8-1.1,3.2c0,1.3,0.3,2.6,0.5,3.6c0.7,0,1.5,0.1,2.3,0.1
	c3.5,0.2,7.8-0.1,8.6-0.1c0.8-0.1,4.2-2.6,6.2-3.7c2.1-1.2,8.3-5.2,8.3-5.2s5.8-0.4,8.1-2.4S132.9,33.8,131.5,32.9z"/>
</svg>
