<?xml version="1.0" encoding="utf-8"?>
<!-- Generator: Adobe Illustrator 18.1.0, SVG Export Plug-In . SVG Version: 6.00 Build 0)  -->
<svg version="1.1" id="Layer_1" xmlns="http://www.w3.org/2000/svg" xmlns:xlink="http://www.w3.org/1999/xlink" x="0px" y="0px"
	 viewBox="0 0 80 160" enable-background="new 0 0 80 160" xml:space="preserve">
<path opacity="0.2" d="M25.7,134.8c-8.2,5.7-7.2,11,1.6,15.7c9.6,5.2,15.1,2.1,22.6-2.1c7.5-4.3,7.6-10-3.4-14.4
	C37.6,130.3,30.3,131.6,25.7,134.8z"/>
<path fill="#FBD7C7" d="M25.4,55.4c-1.1,1.9-2.5,4.2-3.2,8.2c-0.7,4-0.4,8.9-1.2,11.5c-0.8,2.5-1.6,6.7-0.6,9.6s2.2,4.9,4.1,3.7
	c1.9-1.2,0.1-5,0.2-6.4c0.1-1.3,1.2-4,0.9-5.3c-0.3-1.4-0.9-1.2-0.5-2.3c0.4-1.1,3.3-9.4,3.3-9.4L25.4,55.4z"/>
<path fill="#262626" d="M31.4,135.3c-0.9,1.5-5.1,4.4-6.3,5.3c-1.8,1.2-3.5,4.9,1.1,5.7s7.9-3,10.3-4.1c2.4-1.1,4.9-3.3,6.7-3.6
	c1.8-0.2-0.7-5.6-0.7-5.6L31.4,135.3z"/>
<path fill="#FFFFFF" d="M31.5,134.8c-0.2,1.4-7.2,5.9-7.2,7.5s3,2.6,5.6,1.9s5.7-3.6,7.8-4.6c2-1.1,4.2-1.2,3.8-3.3
	C41.1,134.4,31.5,134.8,31.5,134.8z"/>
<path fill="#262626" d="M40.6,139.5c-2.7,2.5-8.1,6.1-8.4,7.8c-0.4,2.2,1.7,3.8,6,3.3c4.2-0.6,6-3.4,8.3-4.7c2.3-1.2,3.6-1.9,3.6-3
	C50.1,141.7,40.6,139.5,40.6,139.5z"/>
<path fill="#FFFFFF" d="M41.2,139c0,0-2.3,2-6.6,5.9c-0.9,0.8-3.7,2.9,1,3.7c5.3,0.9,8-3.1,10-4.3s3.7-1.4,3.7-3
	C49.2,139.7,41.2,139,41.2,139z"/>
<path fill="#06547A" d="M25.6,76.3c-0.1,2.2-1.4,13.8-1,19.8s2.5,14.5,3,20.6s0.8,20.7,0.8,21.6c0,0.9,3.2,1.7,6.5,1.7
	s7.2-2.4,7.2-2.4l-4.1-55.7L25.6,76.3z"/>
<path opacity="0.2" d="M25.6,76.3c-0.1,2.2-1.4,13.8-1,19.8s2.5,14.5,3,20.6s0.8,20.7,0.8,21.6c0,0.9,3.2,1.7,6.5,1.7
	s7.2-2.4,7.2-2.4l-4.1-55.7L25.6,76.3z"/>
<path fill="#06547A" d="M30.6,79.9c-0.1,2.5,0.4,8.7,1.3,9.9c1,1.2,1.7,3.3,2.1,7.8c0.4,4.5,2.4,15.3,2.9,19.1
	c0.5,3.9,1.5,12.6,2.1,20.4c0.3,3.8-2.2,4.6,3.8,6.3s8.9,0.1,10-1c1.1-1,0.4-3.6,0.3-7.5c-0.1-4-2-18.5-3-22.5
	c-1.1-3.9-0.4-13.7,0.6-20.1c1-6.4-2.7-14.6-2.7-14.6L30.6,79.9z"/>
<path fill="#FBD7C7" d="M33.5,33c-1.3,2.8-4.1,3.2-4.1,3.2S29,42.7,34,43.4s13.8-5,13.8-5s-3.5-2.4-4.1-4.8s0.2-9.5,0.2-9.5L33.5,33
	z"/>
<path fill="#99CC33" d="M32.1,33.4c-2.1,0.4-7.3,1.7-7.9,3.7s-0.4,12.4-0.4,14.3c0,2,1.1,8.1,1.1,14.5c0,6.4-0.8,9.6-0.7,10
	c0.2,0.4,0.4,6.2,9.7,7.1s15.1-3.6,15.1-3.6V63.9c0,0,2.7-0.2,3.8-0.8c1.6-0.8,2.6-1.6,2.6-1.6s0.7-11.7-1.1-15.4s-8.6-9.3-8.6-9.3
	s-6.2,5.2-10.7,4.7C29.7,40.8,32.1,33.4,32.1,33.4z"/>
<path fill="#FBD7C7" d="M48.4,63.4c0,0,2.5,0.3,3.9-0.1c1.4-0.5,2.9-1.4,2.9-1.4s1.4,5.3,1.1,7.4c-0.3,2.1-3,16.9-3.8,19.6
	c-0.7,2.7-1.6,4.8-3.7,7.2c-1.8,2-4.1,2.8-5.7,2.8s-2.3-0.9-1.9-1.5s1.6-1,2.2-2.6c0.6-1.6,0.9-2.8,0.9-2.8s-0.6-0.3-1.1,0.3
	s-0.8,2.1-1.7,2c-0.9-0.1-0.7-1.5-0.1-2.6c0.6-1,0.7-2.1,1.9-2.7s4.6-2.1,4.8-2.5s0.6-7.7,1-10.6c0.4-2.9,0.9-4.6,1-6.3
	C50.3,67.8,48.4,63.4,48.4,63.4z"/>
<path fill="#FBD7C7" d="M28.5,15.2c-1.6,2.6-1.5,10.7-0.5,14c1,3.3,0.9,6.1,4.2,5.9s9.3-3.6,11-4.9c1.6-1.3,5.9-4.1,5.7-12.5
	C48.6,9.2,34.6,5.4,28.5,15.2z"/>
<path fill="#825012" d="M42.2,27.4c0,0,2.7-4.7,4.4-3.3c1.3,1-0.5,3.3-0.5,3.3s6-5.9,2.7-13.5c-3.3-7.7-15.1-7-19.6-1.7
	c-4.5,5.5-3.3,9.6,0.5,10.5c4.4,1,9.3-1.2,10.9,0.4C42.1,24.6,42.2,27.4,42.2,27.4z"/>
</svg>
