<?xml version="1.0" encoding="utf-8"?>
<!-- Generator: Adobe Illustrator 18.1.0, SVG Export Plug-In . SVG Version: 6.00 Build 0)  -->
<svg version="1.1" id="Layer_1" xmlns="http://www.w3.org/2000/svg" xmlns:xlink="http://www.w3.org/1999/xlink" x="0px" y="0px"
	 viewBox="0 0 160 240" enable-background="new 0 0 160 240" xml:space="preserve">
<g>
	<path fill="#825012" d="M66.6,67.2c-5.8,0.4-8.4,3.1-10.2,8.3c-1.8,5.2-0.9,6.5-1.8,7.9c-0.8,1.2-2.1,1.1-3.6,0.7
		c5.4,7,7.3,1.1,7.3,1.1s-1.6-7.7,0.2-9.9c1.4-1.7,3.5-2.2,5.4-1.7l8.6-4.7C71.5,68.4,69.8,67,66.6,67.2z"/>
	<path fill="#262626" d="M113.1,156.1c0,0-0.3-2.6,2.2-3.2c1.9-0.4,3.3-0.1,6.5,3.3s6.4,6.1,6.8,10.3c0.3,3.3-2.2,5.4-4.5,5.3
		c-1.9-0.1-4.5-2.4-6.3-5.3S113.1,156.1,113.1,156.1z"/>
	<path fill="#262626" d="M77.4,203.8c0.6-0.3,2.9-0.8,3.7,0.7c0.7,1.5-0.1,5.5,0.1,7.6c0.2,2.1,0.5,7.2-1.5,11.3
		c-1.5,3.1-5.3,4.1-7,2.7c-1.7-1.4-1.8-5-0.8-6.7C72.7,217.6,77.4,203.8,77.4,203.8z"/>
	<path opacity="0.2" d="M69,227.2c7.3,3.5,18.5-2.7,32.6-8.2c10.4-4.1,43.3-18,39.3-21.2c-3.8-3.1-30.5,7.9-45.1,13.1
		C80.6,216.4,62.8,224.3,69,227.2z"/>
	<path fill="#FBD7C7" d="M59.1,93.5c0,0,0,3.2-2.7,3.1c-2.7-0.1-10-1-13.1-2.3C40.2,93.2,31.1,90.1,30,89c-1-1-3.5-4.4-5.9-6.5
		s-5.4-4.2-7-6.3c-1.8-2.4-6.3-6.6-8.8-6.6c-1.2,0-3,1.7-2.8,2.6s3.5,3,4.2,3.6s2.3,1.9,1.6,1.9c-0.7,0-3.4,0.1-3.9,0.3
		c-0.5,0.3-0.1,1.5,1.1,1.5c1.2,0.1,3.7,0.5,4.2,0.1c0.5-0.4,1.4-0.6,1.4-0.6s3,5.3,4.4,7.7s4.4,6.9,6.9,7.9
		c2.4,1,20.7,8.2,21.4,12.6s1.2,15.4,2.8,21.5c1.7,6.1,6.8,20.1,6.6,21.8s-1.8,8.6-1.7,17.8s-0.2,20.7,0.8,21.9
		c1,1.2,11.4,12.4,12.9,15.2s3.1,4.1,3.2,5.9c0.1,1.7-0.2,9.8,3,10s5.7-14.1,5.1-16.2c-0.6-2.1-1.8-2-2.8-2c-1,0-2.3,0-2.3,0
		s-1.9-7.8-3.5-11.2c-1.6-3.3-4.9-6.2-4.9-6.2s1.6-14.8,2.8-17.5c1.2-2.7,2.5-7.7,2.5-7.7h2.9c0,0,4.2,4.7,7.7,8.2
		s14.9,16.5,18.4,16.2s8.6-7.7,10.8-11.2c2.2-3.5,4.8-7.3,6.1-7.4c1.4-0.1,4.2,5.7,7,3.5s-0.1-7.9-2.4-10.2
		c-2.4-2.4-3.4-4.8-6.5-4.8c-3.1,0.1-2.9,3.2-2.6,4.6c0.3,1.4-0.3,3.1-2.1,3.7s-5,1.7-7.7,3.5c-2.2,1.4-3.3,3.7-3.3,3.7
		s-8.3-12.4-10.4-17.3c-2.1-4.9-3.3-9.6-5.3-12.7c-2.1-3.1-8-5.5-8-6.9c-0.1-1.4,2.3-16.5,5.2-19.8c2.9-3.3,11.7-9.1,16.3-10.6
		c4.6-1.5,8.8-1.9,10.8-3.9c2.1-2,13-14.5,14.9-15.4c1.9-0.9,4.3-2.3,5.5-3c1.2-0.7,5.3-3.9,5.9-5s0.3-4.6-2.3-4.9
		c-2.6-0.3-6.1,3.5-7.9,3.2c-1.7-0.4-2.5-1.4-2.8-2.6c-0.3-1.2-0.8-2.3-1.6-2.4s-1.2,0.1-0.7,1.1c0.5,1,0.6,2.6,0.5,3.5
		c-0.1,0.8,0.3,3-0.1,4.1c-0.5,1.2-1,3-3.7,4.9c-2.3,1.6-5.6,3.6-8.9,6.6c-3.3,3-3.3,3.9-4.6,4.4s-7.9,2.4-14.3,5.2
		c-6.4,2.8-12.4,3.3-15.1,1.4c-2.7-1.9-4.2-4.1-2.9-6.2c1.4-2.2,9.5-7.2,9.9-14.1s-8-14.1-16.5-9.3s-9,18.6-8.4,20.6
		C55.6,93.2,59.1,93.5,59.1,93.5z"/>
	<path fill="#825012" d="M68.3,77.6c1.7,4.5,2,7.5,2.7,7.9s2.5-0.5,3.1,0.4c0.9,1.1,0,2.6-2,3.9c-1.4,0.9-3.7,2.1-2.8,3.7
		c0.6,1.1,4.5,3,8.8,0c4.3-3,6.3-10.5,4.3-16.6c-2-6.1-8.7-7.7-9.6-7.9c-0.9-0.2-2.6-2.1-6.2-1.8c-5.8,0.4-8.4,3.1-10.2,8.3
		c-1.8,5.2-0.9,6.5-1.8,7.9c-0.8,1.2-2.1,1.1-3.6,0.7c3.7,5,4.1,1.1,4.1,1.1s1.7-7.7,3.4-9.9C61.2,71.9,66.5,73.1,68.3,77.6z"/>
	<path fill="#FF9900" d="M119.8,157.1c0,0,2.4,2.8,3.7,4.1c1.3,1.3,4.2,4.9,2.8,7.8c-1.2,2.5-3.1,2.3-4.4,1.6
		c-1.9-0.9-4.2-4.2-4.2-4.2s2-0.4,2.6-2.2C121.1,161.7,119.8,157.1,119.8,157.1z"/>
	<path fill="#FF9900" d="M79.8,206c0,0-0.1,4.4-0.2,6.2c-0.1,1.7,0.1,8.2-2.1,11c-2,2.5-5.2,2.9-5.7,0c-0.6-3.3-1-11.4-0.2-12.2
		C75.9,213.3,79.8,206,79.8,206z"/>
	<path fill="#CC291F" d="M51.9,139.2c0.8,3.2-2.5,18.8-3.2,23.1c-0.8,4.6-0.4,6.2,1.6,7c2.8,1.2,5.3-1.8,10.7,0.4
		c12.5,5.1,24.8-1.2,30.9-6.6s5.1-6.6,5.1-6.6s-4.8-12.6-10-16.7c-4.4-3.4-9.1-5.8-9.4-7.4c-0.8-5.1,2.9-17.3,2.9-17.3
		s-2.1-2.2-2.9-6.1c-0.8-3.9-0.4-8-0.4-8s-2.1-0.1-3.5-0.7s-1.9-1.2-1.9-1.2s-4.2,16.3-11.5,14.7c-7-1.5-3.1-17.9-3.1-17.9
		s-2.3,0.3-3.5,0.1c-1.2-0.3-4.1-0.8-4.1-0.8s1.4,2.8,0.3,6.1c-1.1,3.3-3.5,7.7-3.5,7.7s0.9,9.8,1.2,14.4
		C48,128.1,51.1,136,51.9,139.2z"/>
	<path fill="#FBD7C7" d="M118.8,167.1c0,0,2-0.6,2.6-2.2c0.5-1.5,0.3-3.7,0.3-3.7s3.1,3.9,1.5,6.3
		C121.6,169.9,118.8,167.1,118.8,167.1z"/>
	<path fill="#FBD7C7" d="M71.7,213.4c0,0,1.1,0.1,2.6,0c1.4-0.2,3.1-1.6,3.1-1.6s0.4,8-3.3,8.3C71.1,220.2,71.7,213.4,71.7,213.4z"
		/>
</g>
</svg>
