<?xml version="1.0" encoding="utf-8"?>
<!-- Generator: Adobe Illustrator 18.1.0, SVG Export Plug-In . SVG Version: 6.00 Build 0)  -->
<svg version="1.1" id="Layer_1" xmlns="http://www.w3.org/2000/svg" xmlns:xlink="http://www.w3.org/1999/xlink" x="0px" y="0px"
	 viewBox="0 0 80 240" enable-background="new 0 0 80 240" xml:space="preserve">
<path opacity="0.2" d="M67.6,232c26.9-13.2,1-17.9-14.1-26.3c-20.8-11.6-27.5-15.7-43-6.1c-17.1,10.6,0.2,17.9,16.1,25.3
	C44.6,233.4,51.6,239.8,67.6,232z"/>
<path fill="#762C07" d="M10.2,210.9c-0.3,1.9-0.7,3.5,2,4.2c2.6,0.7,5.4,0.3,7.9-1.7s3.7-3.1,7.1-4.1s5-4,5-6.5
	c0-2.6-2.1-4.7-6.5-3.3c-4.5,1.4-6.8,3.3-6.8,3.3L10.2,210.9z"/>
<path opacity="0.5" d="M32.2,202.7c0-0.8-0.2-1.5-0.6-2.2c0.5,2.2,0.3,6.4-7.5,8c-2.4,0.5-5.8,3.7-8.3,4.5c-1.9,0.6-4.3,0-5.7-1.1
	c-0.2,1.4,0,2.6,2.1,3.2c2.6,0.7,5.4,0.3,7.9-1.7s3.7-3.1,7.1-4.1C30.7,208.3,32.2,205.3,32.2,202.7z"/>
<path fill="#762C07" d="M50,227.8c0,2.6-1.1,5,2.2,5.6s10.3-3.8,13-4.5c2.9-0.8,9.9-3.6,9.9-6.1s-2.9-5.2-6.1-5
	c-3.1,0.3-9.1,0.7-9.1,0.7L50,227.8z"/>
<path opacity="0.5" d="M75,222.8c0-1.4-0.9-2.8-2.2-3.8c3.9,4.7-2.5,6.3-6.2,7.3c-4.5,1.2-9.5,4.2-12.2,5c-1.9,0.5-3.5-0.1-4.6-0.7
	c0,1.4,0.3,2.5,2.3,2.9c3.3,0.6,10.3-3.8,13-4.5C68.1,228.1,75,225.3,75,222.8z"/>
<path fill="#656565" d="M29.3,100c-2.6,4.5-6.9,10.8-8.6,19.8c-1.7,9-1.9,28.3-4.6,40.1s-4.6,18.2-6.5,31.2c-1.9,13-2.7,19,0.6,20.4
	c3.1,1.4,7.9,0.8,11.1-1.7c4.2-3.2,3.9-6.9,3.8-9.4s2.3-10.3,3.7-16.8c1.4-6.5,7.5-27.7,10.3-36.5s8.5-38.7,8.5-38.7L29.3,100z"/>
<path opacity="0.2" d="M29.3,100c-2.6,4.5-6.9,10.8-8.6,19.8c-1.7,9-1.9,28.3-4.6,40.1s-4.6,18.2-6.5,31.2c-1.9,13-2.7,19,0.6,20.4
	c3.1,1.4,7.9,0.8,11.1-1.7c4.2-3.2,3.9-6.9,3.8-9.4s2.3-10.3,3.7-16.8c1.4-6.5,7.5-27.7,10.3-36.5s8.5-38.7,8.5-38.7L29.3,100z"/>
<path fill="#656565" d="M36.7,107.3c-1.7,3.6-5.9,18.8-3.3,24c3,6,12.1,36.1,13.2,47.7c0.5,5.1,1,42.2,1.1,45.7s0.9,5.6,5.1,5.9
	c4.3,0.3,10.4-2.9,11.1-7.8c0.7-4.9,1.2-27.4,1-35.4s0.5-46.9-1.2-57.8c-1.6-10.9-4.5-21.5-4.5-21.5L36.7,107.3z"/>
<path fill="#FBD7C7" d="M5.5,73.2c-2.9,2.7-4.8,5.2-3.8,8.4s5.2,7.9,11.1,10.9s8.5,2.4,11.1,5.2s3.7,3.5,5.2,3.4
	c1.4-0.1,6.7-1,6.9-3.8c0.2-2.7-5.7-4.1-8.4-5.2c-2.7-1-12.3-9.9-13.1-11.2C13.8,79.6,5.5,73.2,5.5,73.2z"/>
<path fill="#762C07" d="M28.1,99.6l-0.2,3.3c0,0,1.6,4,9.3,6.1c7.8,2.2,18.1,2.3,20.3,2c2.2-0.3,3.3-1.1,3.3-1.1l-0.8-3.7
	c0,0-11.1,2.7-20.3,0.2C30.6,103.9,28.1,99.6,28.1,99.6z"/>
<path fill="#E5E5E5" d="M37,50.8c0,0-2.9-1.5-4.3-0.3c-1.3,1.2-0.4,2.8-0.4,2.8s-7.5-1.3-10.2,0c-2.7,1.3-6.6,3.9-8.3,6.6
	s-4.5,6.7-6.3,7.4s-3.2,3.1-3.6,4.4s0,1.7,0,1.7l-1.3,2c0,0,0.9,2.6,3.5,4.5c3.3,2.4,9.2,1.8,9.2,1.8s0.6-1.6,2.1-1.9
	s4.5-4.4,4.5-4.4s2.5,13,3.3,17c0.9,4,1.5,5.9,2.5,6.9s1.4,3.1,3.5,4.3c5.9,3.4,14.4,4.8,20,4.9c5.6,0,10.2-1.3,10.2-1.3
	s0.1-8.8,0.6-13.2c0.5-4,3.8-10.7,1.5-18.4s-8.6-13.5-8.6-13.5s-0.2-3.8-2.1-4.9c-1.9-1.1-8.1,0.4-12.7-1.1
	c-4.6-1.5-5.1-2.9-5.1-2.9L37,50.8z"/>
<path fill="#FBD7C7" d="M34.4,54.2c0,0,3.4-3.2,3.4-6.8c0-3.6-4.3-11.8,0-18.1s15.7-7.7,20.2,0.6c4.7,8.6,0,20.2-1.5,21
	S52.6,51,52,51.6c-0.6,0.5-0.6,4.1-0.5,5.6c0.1,1.6-7.4,2.8-11.5,2.2S34.4,54.2,34.4,54.2z"/>
<path fill="#FBD7C7" d="M48.1,100.4c0,0,4.9,0.4,7.2,0.3c2.3-0.1,3.8,0.2,3.8,0.2l0.5,3.2c0,0,0.7,1.1,2.1,2c1.4,0.9,1.7,2,1.7,2
	s2.6-0.3,3.1,3.6c0.5,3.9-0.1,5.6-1,6.5c-0.9,1-2.7,2.7-3.3,2.5c-0.6-0.2-0.1-1.9-0.7-2.4c-0.7-0.5-0.3-1.4-0.7-1.5
	s-6.8-2.4-9.1-5.7C48.9,107.2,48.1,100.4,48.1,100.4z"/>
<path fill="#825012" d="M37.6,45.8c0.4,1.2,2.7,3.3,6.1,3.1c3.4-0.3,6.9-4.1,7.6-6.3c0.7-2.3,1.2-4.1,2.6-3.7
	c1.4,0.3,0.3,2.4,0.9,2.4c0.7,0,4.8-7.9,4.3-9.8c-0.3-1.2-1.4-4.6-5.7-7c-4.5-2.4-15.1-2.3-17.4,7.4C34.5,38.1,37.6,45.8,37.6,45.8z
	"/>
</svg>
