<?xml version="1.0" encoding="utf-8"?>
<!-- Generator: Adobe Illustrator 18.1.0, SVG Export Plug-In . SVG Version: 6.00 Build 0)  -->
<svg version="1.1" id="Layer_1" xmlns="http://www.w3.org/2000/svg" xmlns:xlink="http://www.w3.org/1999/xlink" x="0px" y="0px"
	 viewBox="0 0 160 240" enable-background="new 0 0 160 240" xml:space="preserve">
<g>
	<path opacity="0.2" d="M33,231c11.2,6.1,44.5-13.9,58.5-22.1c13.9-8.1,50.5-32.3,39.2-39.2c-11.4-6.9-38.7,12.6-53.7,21.6
		S17.2,222.4,33,231z"/>
	<path fill="#FBD7C7" d="M106.7,44.9c0,0,5.3-1.2,7.8-1.4c2.5-0.3,7.3,2.1,8.3,3.8c1,1.7,0.4,3-1.1,3.9c-1.5,0.9-2.4-1.2-4.3-1.2
		s-3.1,0.5-5.3,1c-2.3,0.5-4.1-0.6-5-0.9c-1-0.3-1.9-0.3-1.9-0.3L106.7,44.9z"/>
	<path fill="#FFFFFF" d="M100.3,44.2l7.4-0.1c0,0,1.5,1.1,1,3.7c-0.5,2.6-1.4,3.9-1.4,3.9h-5.5L100.3,44.2z"/>
	<path fill="#656565" d="M94.1,42.6l11.8-0.1c0,0,2.4,1.7,1.6,5.8c-0.8,4.1-2.3,6.1-2.3,6.1h-8.7L94.1,42.6z"/>
	<path fill="#FBD7C7" d="M96.5,15.9c2.4,0.9,4.1,3.8,4.5,10.2c0.4,6.4,0,11.5-1.5,12.2s-2.4,0.4-2.4,0.4L97,46.8L82.3,41
		c0,0,0.3-3.9-0.6-6.3c-0.9-2.4-3.3-11.1-0.7-15.1C83.6,15.7,88.9,12.9,96.5,15.9z"/>
	<path fill="#762C07" d="M95.1,31.1c0.1,0.8,0.9-1.2,1.6-3.1c0.7-1.9,1.9-4.2,2.5-6.9c0.7-2.7,1.3-1.7,1.3-2.8
		c0.1-1.2-5.4-8.8-15.5-5.1S77.4,29,78.3,32.3s3.9,7.3,6.8,7.2c2.9-0.1,6.2-2.3,6.5-6.7S95,29.3,95.1,31.1z"/>
	<path fill="#262626" d="M32.9,212.5c-0.1,0.6-1.1,3.7-1.1,3.7s-1.9,1.6-1.6,3c0.4,1.4,19.2,8.9,20.8,9.1c1.6,0.2,2.1-0.9,1.9-2.1
		c-0.2-1.1-1.3-2.9-2.2-3.9c-0.9-0.9-2.6-4.2-3-5.5c-0.4-1.3-0.6-2.1-0.6-2.1L32.9,212.5z"/>
	<path opacity="0.5" d="M30.2,219.2c0.4,1.4,19.2,8.9,20.8,9.1c1.3,0.2,2-0.6,2-1.6c-0.9-0.2-2.4-0.6-4.8-1.4
		c-4.1-1.5-8.6-4.4-10.9-5.6c-1.6-0.9-4.3-2.6-5.6-3.5C31.4,216.5,29.8,217.9,30.2,219.2z"/>
	<path fill="#262626" d="M105.2,182.4c0.1,2.6,2.5,4.7,6.1,3.6s5.4-4.3,5.4-4.3s6.8-2.3,10.2-5.9c3.4-3.6,5.3-9.3,4.9-11.3
		c-0.3-1.9-2.3-3.6-5.6-2.6c-3.3,1.1-9.9,4.9-11.3,6.7C113.5,170.6,105.2,182.4,105.2,182.4z"/>
	<path opacity="0.5" d="M116.6,181.8c0,0,6.8-2.3,10.2-5.9c3.4-3.6,5.3-9.3,4.9-11.3c-0.1-0.9-0.6-1.7-1.4-2.2
		c0,0.2,0.1,0.3,0.1,0.5c0.8,3.6-1,7.1-4.1,11s-9.9,5.7-9.9,5.7s-4.1,7.2-10.7,5c1,1.4,2.9,2.2,5.4,1.5
		C114.9,185,116.6,181.8,116.6,181.8z"/>
	<path fill="#656565" d="M59,107.3c-2.5,4.5-6.1,13.7-6.3,23c-0.2,9.3-7.9,39.1-11.4,48.9c-3.4,9.8-9.4,31.3-9.4,33
		c0,1.7,1.1,4.9,7.5,6.3s10-1.3,10.3-2s0.8-8.1,2.1-12.1c1.4-4,11.5-24.9,15.2-37.1c3.8-12.2,9.3-33.1,12.3-37.4
		c3-4.3,3.1-18.3,3.1-18.3L59,107.3z"/>
	<path opacity="0.3" d="M59,107.3c-2.5,4.5-6.1,13.7-6.3,23c-0.2,9.3-7.9,39.1-11.4,48.9c-3.4,9.8-9.4,31.3-9.4,33
		c0,1.7,1.1,4.9,7.5,6.3s10-1.3,10.3-2s0.8-8.1,2.1-12.1c1.4-4,11.5-24.9,15.2-37.1c3.8-12.2,9.3-33.1,12.3-37.4
		c3-4.3,3.1-18.3,3.1-18.3L59,107.3z"/>
	<path fill="#656565" d="M77,111.9c0,0-0.5,4.2,0.1,10.1c0.6,5.9,3.5,5.7,7.1,12.8c3.5,7.1,6.5,17,10.9,28.6s8.6,19.4,9.9,20.6
		c1.3,1.2,7.2,1.5,10.9-4.4c3.8-5.9,4.3-8.3,3.6-9.9c-0.6-1.6-3.6-2.3-4.5-4.1s-3.1-9.4-4.9-20.1c-1.8-10.7-2.7-15-5.3-20.8
		s-4.9-15.3-4.9-15.3L77,111.9z"/>
	<path opacity="0.15" d="M77,111.9c0,0-0.5,4.2,0.1,10.1c0.6,5.9,3.5,5.7,7.1,12.8c3.5,7.1,6.5,17,10.9,28.6s8.6,19.4,9.9,20.6
		c1.3,1.2,7.2,1.5,10.9-4.4c3.8-5.9,4.3-8.3,3.6-9.9c-0.6-1.6-3.6-2.3-4.5-4.1s-3.1-9.4-4.9-20.1c-1.8-10.7-2.7-15-5.3-20.8
		s-4.9-15.3-4.9-15.3L77,111.9z"/>
	<path fill="#656565" d="M79.7,37.6c-2.5-1.5-10.3-3-12.8,0c-2.8,3.6-2.6,5.4-1.8,17.8c1,14.5-3.2,32.6-7,43.3s-6.7,17-6.4,19.3
		s15.5,9.2,27.3,12.9c11.8,3.6,22.6-3,24.7-7.7c2-4.7-0.4-11.1-0.8-19.5s-0.6-25.3,0.5-34.2c1.2-8.9-0.5-14.8-3.1-18.2
		c-2.6-3.4-5.8-6.8-11.1-8.1C83.8,41.7,79.7,37.6,79.7,37.6z"/>
	<path opacity="0.15" d="M97.8,62.2c-1.2,3.1-6.2,10.6-8.7,13.7c-2.5,3.1-3,4.2-3.3,6c-0.3,1.8-1.9,32.2-1.9,32.2s4.2-21.7,7.4-26.4
		C94.5,83,97.8,62.2,97.8,62.2z"/>
	<path fill="#FBD7C7" d="M74.3,114.9l6.6,0.4c0,0-0.2,1.6-1.1,5.3c-0.9,3.6-1.1,9.2-3.9,11.2c-2.8,2-7,3.3-9.1,3.3
		c-2.1,0-4-4.3-1.7-5.5c2.3-1.2,4.6-2.1,5.7-6.3C71.9,119.2,72.2,118,74.3,114.9z"/>
	<path fill="#FFFFFF" d="M79.6,37.7c0,0,8,3.4,11.4,4.5c3.4,1.1,7.5,6.3,7.5,6.3s-2.5-2.9-7.9-4.4C85.2,42.7,80.8,39.1,79.6,37.7z"
		/>
	<polygon fill="#FFFFFF" points="73,116 81,117.2 81.6,115.2 73.5,114.3 	"/>
</g>
</svg>
