<?xml version="1.0" encoding="utf-8"?>
<!-- Generator: Adobe Illustrator 18.1.0, SVG Export Plug-In . SVG Version: 6.00 Build 0)  -->
<svg version="1.1" id="Layer_1" xmlns="http://www.w3.org/2000/svg" xmlns:xlink="http://www.w3.org/1999/xlink" x="0px" y="0px"
	 viewBox="0 0 160 240" enable-background="new 0 0 160 240" xml:space="preserve">
<g>
	<path opacity="0.2" d="M44,231.8c10.3,5.6,30.1-3.1,45.7-10.6c13.4-6.4,41.7-18.9,31.3-25.2s-28,1.4-44.7,9.1
		C61.6,211.8,29.4,224,44,231.8z"/>
	<path fill="#825012" d="M38.4,213.2c0,0,4.7,2.5,7.5,2.6c2.7,0.1,5.6-0.8,5.6-0.8s0.4,4.8,4.3,6.8c1.3,0.7,6.7,2,7.5,3.3
		c2,3.1-2.9,6.2-8.2,6.1c-4.5,0-7.6-1.7-10.9-3.3c-3.9-1.8-9.7-2.2-10.1-4.4C33.2,219.4,38.4,213.2,38.4,213.2z"/>
	<path opacity="0.4" d="M63.3,225.3c0-0.1-0.1-0.1-0.2-0.2c-0.2,0.7-0.5,1.4-0.9,1.9c-1.6,2-6,3.8-10.7,2.1
		c-3.4-1.2-5.1-2.6-9.1-3.7c-2.6-0.7-6.3-1.4-8.3-3.9c-0.1,0.8-0.2,1.5,0,2.3c0.4,2.2,6.2,2.6,10.1,4.4c3.3,1.5,6.4,3.2,10.9,3.3
		C60.4,231.5,65.3,228.4,63.3,225.3z"/>
	<path fill="#825012" d="M91,201.1c0,0,6.6,2.2,9.3,0.9s3.5-5.2,3.5-5.2s2.9-1.4,4.9-2.4s4-2.5,6.6-1.8c2.6,0.7,6.3,3.2,4.2,7.2
		c-1.8,3.4-5.5,5.2-10,7.1c-3.6,1.5-9.6,4.8-13.8,4.5c-3.7-0.3-5.1-3-4.6-5.4C91.7,203.6,91,201.1,91,201.1z"/>
	<path opacity="0.4" d="M119.6,199.8c2.1-4.1-1.6-6.6-4.2-7.2c-0.5-0.1-0.9-0.1-1.4-0.1c4.7,1.5,4.8,3.9,3.9,6.5
		c-1.4,4-10.1,6.8-16.3,9.7c-3.1,1.5-7.9,2-10.3-0.6c0.5,1.6,2,3,4.5,3.2c4.1,0.3,10.2-3,13.8-4.5
		C114,205.1,117.8,203.2,119.6,199.8z"/>
	<path fill="#BAA794" d="M54.9,99.7c-0.8,2.6-3,6.6-5,10.4c-2,3.8-3.9,7.3-3.5,14c0.4,7.3,2.6,40.2,1.4,44.2
		c-1.2,4.1-2.9,10.2-5.3,18.8c-2.4,8.5-6.1,24.6-7.1,27.3c-0.5,1.5,0.4,3.4,5.5,4.6c3.6,0.8,11.3,1.8,12.7,0.5
		c0.9-0.8,2.4-10.5,4.5-15.8c2-5.1,6.8-25.2,7.6-28.9c0.8-3.7,9.4-22.4,9.4-38.6c0-2.1,0.8-26.9,0.8-26.9L54.9,99.7z"/>
	<path opacity="0.2" d="M54.9,99.7c-0.8,2.6-3,6.6-5,10.4c-2,3.8-3.9,7.3-3.5,14c0.4,7.3,2.6,40.2,1.4,44.2
		c-1.2,4.1-2.9,10.2-5.3,18.8c-2.4,8.5-6.1,24.6-7.1,27.3c-0.5,1.5,0.4,3.4,5.5,4.6c3.6,0.8,11.3,1.8,12.7,0.5
		c0.9-0.8,2.4-10.5,4.5-15.8c2-5.1,6.8-25.2,7.6-28.9c0.8-3.7,9.4-22.4,9.4-38.6c0-2.1,0.8-26.9,0.8-26.9L54.9,99.7z"/>
	<path fill="#BAA794" d="M64.8,104.5c0,0-1.6,11.7-0.8,18.2c0.8,6.6,5.1,12.3,8.4,16.5c3.4,4.3,9.2,13.5,11.7,16.7
		c2.3,3,2.4,4.2,2.2,7.6c-0.1,3.4-0.8,10.2,0.6,19.1c1.5,9.4,3.5,19,3.6,20.9c0.1,1.8,5.1,1.4,9.3-0.4s7.3-5.3,6.9-7.2
		s-2.3-6.8-3.3-14.7s-0.5-21.5-0.2-26.6c0.3-5.1,0.1-19-2.4-25.2c-2.5-6.2-3.9-9.1-4.7-12.5c-0.8-3.4-0.4-8.5-0.4-8.5L64.8,104.5z"
		/>
	<path fill="#E5E5E5" d="M68.1,49.3c-3.1-0.4-6.7-3-11.5,0.7c-4.9,3.7-4.6,8.1-4.2,11.8c0.4,3.7-0.9,8.1,1,15.2s3.3,14.4,2.5,16.8
		c-0.8,2.4-2.2,6.5-3.4,9.3c-1.3,3-3.6,7.3-4,8.6c-0.4,1.3,8,6,18.1,7.3s29.9,2.8,30.5,0.7c1-3.4,0.1-6.6,0.3-9.7
		c0.1-3.1,1.1-15.2,1.3-19.6c0.2-3.4,1.2-6,1.7-10.1c0.5-4.1,0.7-5.6-1.8-9.8c-2.5-4.2-4-9.2-7.9-11.8c-3.5-2.3-4.9-2.9-7.2-3.6
		C81.1,54.3,68.1,49.3,68.1,49.3z"/>
	<path fill="#FBD7C7" d="M76.7,76.1l15.5,4.5c0,0-2,6.6-3.3,10.1c-1.3,3.5-2.6,5.2-2.2,7s3.9,25.1,4.3,27.6c0.4,2.5,0,10.9-0.8,12.9
		c-0.8,2-5,4.2-7.2,3.9c-2.2-0.3-2.8-2.9-3-3.9c-0.3-1,0.7-2.2,2-2.6s2.2-1.8,2.2-1.8s-0.1-1.3-0.3-2.9c-0.1-1.6,0.8-3.5,0.8-3.5
		s-5.4-14-7-19s-2.2-8.3-2.8-10.8c-0.5-2.5-0.4-9.2,0.4-13.4C76.1,79.7,76.7,76.1,76.7,76.1z"/>
	<path fill="#FBD7C7" d="M64.3,49.7c1.2-0.3,4.7-3.3,4.7-5.2s-3.8-9.2-2.4-13.8c2.6-8.5,8.8-11.4,17.6-8.7s7.3,10.8,6.3,17.2
		c-1,6.4-1.6,7.2-2.9,7.9c-1.2,0.8-2.9,1.4-2.8,3.1c0.1,1.7,0.3,4.5,0.9,5.7c0.6,1.2-8.9,2.2-14.6-0.1S64.3,49.7,64.3,49.7z"/>
	<path fill="#999999" d="M89.1,27.8c-3.9,2.9-10.8,6.9-17.2,4.8c-5.1-1.7-2.8-6.6,1.4-10.6c-3.9,1.6-5.7,4.4-6.8,7.3
		c-1.8,4.6-0.6,9.6,0.3,12.3c0.5,1.6,1.8,4.8,5.5,5.6c3.7,0.9,8.5-3.3,9.2-5.4c0.7-2,1-4,2.8-4.3c1.8-0.3,1.6,2.2,1.6,2.2
		s2.4-1.2,2.8-5.2C88.9,33.3,88.7,30,89.1,27.8z"/>
	<path opacity="0.2" d="M97,119.8c-0.7-3.5-2.3-10.7-3.7-14.6c-1.9-5.3-2.8-7.4-2.5-9.8C91,93,94,79.8,94,79.8l-17.6-2.9
		c0,0-5.3,13.2-4.9,21.1c0.5,10.8,5.2,18.4,8.2,22.2C87.8,120.7,95.7,120.8,97,119.8z"/>
	<path fill="#E5E5E5" d="M76.9,74.7c0,0-4.3,16.4-4.1,22.9s5.5,19.2,6.8,21.8s3.8,5.6,3.8,5.6l0.6,2.1l7.3,0.5l0.1-2.6
		c0,0,1-4.7,0.5-11.1c-0.4-5.2-3.5-15.7-3.7-17.1c-0.1-1.3,4.7-11.6,5.5-14.8s0.8-4.7,0.8-4.7L76.9,74.7z"/>
</g>
</svg>
