<?xml version="1.0" encoding="utf-8"?>
<!-- Generator: Adobe Illustrator 18.1.0, SVG Export Plug-In . SVG Version: 6.00 Build 0)  -->
<svg version="1.1" id="Layer_1" xmlns="http://www.w3.org/2000/svg" xmlns:xlink="http://www.w3.org/1999/xlink" x="0px" y="0px"
	 viewBox="0 0 80 240" enable-background="new 0 0 80 240" xml:space="preserve">
<path opacity="0.2" d="M66.2,233.5c21.2-5.9,7.4-23.7-17.8-25.9c-8.7-0.8-12.5-13.3-34,0.4c-17.3,11-1.3,16.3,7.5,20.5
	C34,234.2,45.3,239.3,66.2,233.5z"/>
<path fill="#E5E5E5" d="M9.2,59.3c-1.4,5.7-2.4,24-1.9,26.4c0.5,2.4,4.6,18.3,5.2,21.1c0.5,2.8,0.5,6.4,0.5,6.4l10-9.1l-5.2-29.3
	L9.2,59.3z"/>
<path opacity="0.2" d="M10.3,65.4c-1.4,5.7,2,16.7,2.5,19.2s-1.3,14.5,0.4,19.9c0.9,2.7,0.2,6.1,0.2,6.1l9.5-6.5l-5.2-29.3
	L10.3,65.4z"/>
<g>
	<path fill="#825012" d="M12.8,211.7c-0.6,2-2.9,7.7,1.6,9c5.2,1.5,7.6-0.7,12.3-2.5s11.9-3.3,14.8-5.9c2.2-2-1.8-5.9-6-6.4
		s-5.3,1.4-6.5,1c-1.2-0.3-1.9-1.2-1.9-1.2s-1.3,4.9-5.9,5.8S12.8,211.7,12.8,211.7z"/>
	<path fill="#BAA794" d="M16.4,105c-2.8,3.4-5.9,7.4-5.6,16.4c0.3,9.1,0.3,23.9,1.4,30.2s0.6,13.2-0.2,20.7
		c-0.8,7.5-2.5,20-2.3,25.3c0.2,6.6,0.9,14.3,1,17.4c0.1,2.5,3.3,4,6.8,3.1s9.5-4.9,10.5-5.6c0.9-0.7,3-2.8,2-5.1
		c-1-2.3-0.9-14.1-0.1-19.3s2.8-20.8,2.8-25.3c0-4.4,7.8-15.2,8.1-24.2c0.3-9,0.3-32.2,0.3-32.2L16.4,105z"/>
	<path opacity="0.2" d="M16.4,105c-2.8,3.4-5.9,7.4-5.6,16.4c0.3,9.1,0.3,23.9,1.4,30.2s0.6,13.2-0.2,20.7c-0.8,7.5-2.5,20-2.3,25.3
		c0.2,6.6,0.9,14.3,1,17.4c0.1,2.5,3.3,4,6.8,3.1s9.5-4.9,10.5-5.6c0.9-0.7,3-2.8,2-5.1c-1-2.3-0.9-14.1-0.1-19.3s2.8-20.8,2.8-25.3
		c0-4.4,7.8-15.2,8.1-24.2c0.3-9,0.3-32.2,0.3-32.2L16.4,105z"/>
	<path opacity="0.4" d="M32.8,213.9c-4.4,1.1-11.2,4.2-15,5c-2.4,0.5-4.7-0.5-6.1-1.4c0.2,1.4,0.9,2.7,2.7,3.2
		c5.2,1.5,7.6-0.7,12.3-2.5s11.9-3.3,14.8-5.9c1.3-1.2,0.5-3-1.3-4.4c0.2,0.3,0.4,0.7,0.6,1.2C42,211.8,37.2,212.8,32.8,213.9z"/>
</g>
<g>
	<path fill="#825012" d="M38.4,223c-1.1,2.7-1.9,7.9,2,8.7s12.2-1.1,16.1-1.2s13.2-1.6,14.4-4.4s-1.2-6.4-6.8-6
		c-5.5,0.4-8.2-1.2-8.2-1.2s-4.5,4.1-8.7,4.7S38.4,223,38.4,223z"/>
	<path opacity="0.4" d="M70.8,226.1c0.6-1.3,0.3-2.8-0.6-3.9c0.4,1.2,0.4,2.4-0.6,3.5c-2.9,3.1-7.6,1.9-17.5,3.1
		c-8.2,1-12.1,0.8-14.6-0.3c0.2,1.6,1,2.9,2.8,3.3c3.9,0.9,12.2-1.1,16.1-1.2C60.3,230.4,69.6,229,70.8,226.1z"/>
	<path fill="#BAA794" d="M25.8,105.9c0,0-1.8,13.4,0.4,19.3c2.2,5.9,6.4,13.8,7,20.8c0.6,7,3.3,19.3,2.3,26.7
		c-1,7.4-1.1,19-0.7,27.9c0.4,7.7,1.7,23.6,1.8,25.9c0.1,3.8,7.4,4,11.4,2.4c5.2-2.1,10.7-6.2,10-7.8s-1.5-8-1.8-14.5
		c-0.3-6.5-1.1-29.3,0-34.5c1.1-5.1,3-16.2,3.5-33.3c0.4-16.3,0.9-23.6,0.5-26.7C59.8,109.1,25.8,105.9,25.8,105.9z"/>
</g>
<path fill="#E5E5E5" d="M27.3,49c-3.8-1.3-9.2-3.6-15.5,2s-0.7,23.2,1.1,27.6s2.8,10.5,2.7,13c-0.1,2.5-1.4,3.3-1.9,5.9
	s-0.5,7.9-1.4,9.6c-0.9,1.7-1.9,5-0.1,5.6s21.6,6.4,31.2,6.3s14.8-3.8,16.2-4.8c1.4-0.9,2.2-18.3,1.7-23.4
	c-0.5-5.2-0.3-12.1-0.1-15.3c0.2-4.3-1.7-10.3-4.9-12.5c-3.1-2.1-7.4-5.6-12.2-8S27.3,49,27.3,49z"/>
<path fill="#FBD7C7" d="M21.5,48.6c1.2-0.3,4.8-3.3,4.8-5.4c0-2-3.9-9.4-2.4-14.1c2.7-8.6,9-11.7,18-8.9s7.5,11.1,6.5,17.6
	c-1,6.5-1.7,7.3-2.9,8.1c-1.3,0.8-2.9,1.4-2.9,3.1c0.1,1.7,0.3,4.6,0.9,5.8C44,56,34.3,57,28.5,54.7S21.5,48.6,21.5,48.6z"/>
<path fill="#3399CC" d="M10.2,216.5"/>
<path fill="#999999" d="M46.8,26.2c-4,3-11,7-17.5,4.9c-5.3-1.7-2.8-6.7,1.4-10.8c-4,1.6-5.8,4.5-7,7.4c-1.8,4.7-0.6,9.8,0.3,12.6
	c0.5,1.6,1.8,4.9,5.6,5.8c3.8,0.9,8.7-3.4,9.4-5.5c0.7-2.1,1-4.1,2.9-4.4c1.9-0.3,1.7,2.2,1.7,2.2s2.5-1.3,2.9-5.4
	C46.6,31.8,46.4,28.5,46.8,26.2z"/>
<path fill="#FBD7C7" d="M55.1,67.5c1.5,3,2.3,20.6,2.3,25.3c0,4.6-0.4,7.8,0.7,10.6s5.4,16,6.2,18.6c0.8,2.5,1.9,5.4,1.9,7.2
	c0,1.8-0.7,9.2-1.3,11.2s-2.6,6.4-4,7.3s-5.4,2.5-5.8,1.4c-0.5-1.1,3-2.3,3.1-3.3s0.1-8.2,0.1-9.6c0-1.4,1.9-4.8,1.3-6
	c-0.5-1.3-6.4-9.6-8.8-14.8s-2.5-7.6-3.5-9.6c-1-1.9-4.8-11.7-5.8-16s-5.2-15-2.2-20.5C42.3,63.6,51.6,60.6,55.1,67.5z"/>
<path opacity="0.2" d="M50.8,96.4c-0.3-2.6-0.3-5.6-0.3-8.4C50,86,49.4,84.4,49,83.3c-2.5-6.7,6.3-15,6.3-15s-17.9,5.1-18.9,7.1
	c-1.6,3.2,5.1,25.3,5.4,31.2c0.3,5.9-3.9,12-3.9,12c2,0.2,3.8,0.4,5.3,0.4c9.6-0.1,14.8-3.8,16.2-4.8
	C60.9,113.2,51.4,101.5,50.8,96.4z"/>
<path fill="#E5E5E5" d="M49.8,117.9c0,0,3.8,5.4,5,7s3.2,3.5,3.2,3.5l0.8,2c0,0,3.3-1,4.9-1.2s2.8-0.7,2.8-0.7L66,126
	c0,0,0.2-2.4-0.1-3.9s-5.4-14.3-5.4-14.3s-1.7-15.2-3.2-35.7c-1.3-17.8-25.9-8-19.9,9.2C42.9,97.3,49.8,117.9,49.8,117.9z"/>
</svg>
