<?xml version="1.0" encoding="utf-8"?>
<!-- Generator: Adobe Illustrator 18.1.0, SVG Export Plug-In . SVG Version: 6.00 Build 0)  -->
<svg version="1.1" id="Layer_1" xmlns="http://www.w3.org/2000/svg" xmlns:xlink="http://www.w3.org/1999/xlink" x="0px" y="0px"
	 viewBox="0 0 160 240" enable-background="new 0 0 160 240" xml:space="preserve">
<g>
	<path opacity="0.2" d="M24.2,230c11.2,6.1,44.5-13.9,58.5-22.1c13.9-8.1,50.5-32.3,39.2-39.2s-38.7,12.6-53.7,21.6
		S8.3,221.4,24.2,230z"/>
	<path fill="#262626" d="M102.5,171.2c-0.9,2.4-4.7,12.2-5,13.9c-0.3,1.6-0.6,5.3,3.4,5.1c4-0.1,9.8-5.4,11.1-9.6
		c1.3-4.3,2.8-9.1,2.8-9.1h1c0,0,2.2-4.4,1.9-6.6c-0.3-2.3-3.2-3.9-3.5-4.2C113.9,160.3,102.5,171.2,102.5,171.2z"/>
	<path opacity="0.5" d="M116.2,162.2c-0.2,2.1-0.5,3.1-1.2,5.6c-0.8,3.1-3.3,13.1-6.2,16.5s-7.9,6.4-11.1,3.9
		c-0.1-0.1-0.2-0.1-0.3-0.2c0.3,1.2,1.3,2.2,3.4,2.1c4-0.1,9.8-5.4,11.1-9.6c1.3-4.3,2.8-9.1,2.8-9.1h1c0,0,2.2-4.4,1.9-6.6
		C117.6,163.8,116.9,162.9,116.2,162.2z"/>
	<path fill="#FBD7C7" d="M43,93.2l-1.3,0c0,0-1.5-1.5-5.7-2c-4.2-0.5-8.9,0.4-10.2,1.8c-1.4,1.3-0.6,5-0.3,5.8
		c0.3,0.7,1,2.2,2.9,1.9c1.9-0.2,6.8-0.4,9,0.2c2.2,0.7,3.4,0.6,5.1,0.1c1.7-0.5,3.2-1.3,3.2-1.3s-0.3-2.4-1.1-3.8S43,93.2,43,93.2z
		"/>
	<path fill="#262626" d="M32.7,210.8c0,0-2.9,3-4.6,3.6s-6.8,0.2-8,0.9s-1.9,2-1.9,2s-1.1,0.5-0.9,1.1c0.5,1.4,3.9,2.9,8.4,3.7
		C30.1,223,34,223,34,223l0.3,1.3c0,0,10.4,2.2,11.2,1.7c0.8-0.5,0.4-2.9,0.4-2.9l-0.4-0.3c0,0,1-1.4,1.4-2.7
		c0.4-1.4,0.4-2.4,0.4-2.4L32.7,210.8z"/>
	<path opacity="0.5" d="M24.2,220c-2.5-0.6-5-2-6.1-2.7c-0.3,0.1-1,0.6-0.8,1.1c0.5,1.4,3.9,2.9,8.4,3.7C30.1,223,34,223,34,223
		l0.3,1.3c0,0,10.4,2.2,11.2,1.7c0.8-0.5,0.4-2.9,0.4-2.9l-0.4-0.3c-1.1-0.1-7.8-1.3-9.6-1.3C34.1,221.5,27.4,220.8,24.2,220z"/>
	<path fill="#656565" d="M53,112.1c0,0-2.9,6.1-4.7,15.7c-1.8,9.5-6.2,28.9-7.5,39.7c-1.3,10.7-2.3,28.8-4.3,33.7
		c-2,4.8-5.3,10.8-5.9,11.1c-0.6,0.3,3.6,0.5,6.2,3.2s9.5,6.3,9.5,6.3s3.4-7.6,5.4-14.9s8.4-35.9,11.4-47.9c3-12,4.4-18.8,9-26.9
		s6.3-19.4,6.3-19.4L53,112.1z"/>
	<path opacity="0.3" d="M53,112.1c0,0-2.9,6.1-4.7,15.7c-1.8,9.5-6.2,28.9-7.5,39.7c-1.3,10.7-2.3,28.8-4.3,33.7
		c-2,4.8-5.3,10.8-5.9,11.1c-0.6,0.3,3.6,0.5,6.2,3.2s9.5,6.3,9.5,6.3s3.4-7.6,5.4-14.9s8.4-35.9,11.4-47.9c3-12,4.4-18.8,9-26.9
		s6.3-19.4,6.3-19.4L53,112.1z"/>
	<path fill="#656565" d="M62.2,113.6c0.2,2.4,5.5,14.3,8.3,17.9c3.3,4,5.9,8.8,8.7,13.7c2.8,4.9,3.6,6.9,8.1,10.2
		c4.5,3.3,10.5,8.3,12,11.5c1.5,3.2,2.1,6.6,4.4,7.2s10.3-3.6,12.2-7.5c1.9-3.9,1.1-4-0.3-6.4c-1.4-2.5-4.6-9.8-9.2-14.5
		c-3.3-3.3-5.5-5.1-6.9-10.1c-1.4-4.9-0.6-11.6-2.8-14.8c-2.1-3.2-7.2-12-7.2-12L62.2,113.6z"/>
	<path opacity="0.15" d="M62.2,113.6c0.2,2.4,5.5,14.3,8.3,17.9c3.3,4,5.9,8.8,8.7,13.7c2.8,4.9,3.6,6.9,8.1,10.2
		c4.5,3.3,10.5,8.3,12,11.5c1.5,3.2,2.1,6.6,4.4,7.2s10.3-3.6,12.2-7.5c1.9-3.9,1.1-4-0.3-6.4c-1.4-2.5-4.6-9.8-9.2-14.5
		c-3.3-3.3-5.5-5.1-6.9-10.1c-1.4-4.9-0.6-11.6-2.8-14.8c-2.1-3.2-7.2-12-7.2-12L62.2,113.6z"/>
	<path fill="#FFFFFF" d="M55.4,45.5c2.4,0.2,11.6-0.9,14,0.3C72,47,71.3,51,71.3,51S57.6,64.5,56.9,73.5s0.4,28.3,0.4,28.3
		s-8-15.3-7.7-25.7C50.1,58.5,55.4,45.5,55.4,45.5z"/>
	<path fill="#656565" d="M58.6,48c-2.8,3.3-7.6,10-7.9,24.2s5.8,23.5,7.4,26.2s4.6,26.2,4.4,28.1c-0.2,1.9-12.7-1.2-13.5-3.3
		c-0.9-2.1,1.9-9.7,2-21.2c0.1-11.5-3.4-33.8-2.4-41.4c1.1-7.6-0.3-10.9,2.7-15.4C54.3,40.7,58.6,48,58.6,48z"/>
	<path opacity="0.15" d="M58.6,48c-2.8,3.3-7.6,10-7.9,24.2s5.8,23.5,7.4,26.2s4.6,26.2,4.4,28.1c-0.2,1.9-12.7-1.2-13.5-3.3
		c-0.9-2.1,1.9-9.7,2-21.2c0.1-11.5-3.4-33.8-2.4-41.4c1.1-7.6-0.3-10.9,2.7-15.4C54.3,40.7,58.6,48,58.6,48z"/>
	<path fill="#656565" d="M69.5,45.8c0,0,1.9,2.3-1.6,5.9c-3.5,3.6-9.2,7.1-11.7,18.5s-0.2,25.3,1.3,30.2c1.5,4.9,6.1,23.3,7.2,26.1
		c1.1,2.8,3.9,6,10.5,5.6c6.6-0.4,21.8-6.1,23.3-9.5c1.5-3.4-0.9-6.1-2.6-8.9c-1.7-2.8-7.7-20.6-7.9-23c-0.2-2.5,0.6-6.7,0.6-9.2
		c0-2.9-0.4-8.3-0.5-11.9c-0.1-3.6-0.3-7.8-3.2-11.6c-2.9-3.8-9.5-9.1-11.5-10.4S69.5,45.8,69.5,45.8z"/>
	<polygon opacity="0.2" points="52.7,60 55.6,57.2 56.7,57.7 57.7,62.1 59.5,60.7 57.4,63.3 56.4,58.2 55.8,57.9 52.4,61 	"/>
	<path opacity="0.2" d="M57,88.7c-0.2-2.8-0.8-9.2,1.1-15.2c2.2-7,5-9.3,5-9.3L63,61.7l4.9-2.2c0,0,0.5-3.4,2.1-5.5
		c1.8-2.4,3.7-4.6,3.7-4.6s-1.6,2.3-3.3,5c-1.2,1.9-1.4,5.8-1.4,5.8l-5.5,1.8l1,2.5c0,0-4.6,4.1-6.5,12C56.7,82.2,57,88.7,57,88.7z"
		/>
	<path fill="#CC291F" d="M54.9,61.1l0.1-3.3l0.7-0.5l1,0.1l0.7,3.2l-0.7,1c0,0-1.6,8.6-1.7,13.9s1.4,18.2,1.4,18.2l-1.1-0.1
		c0,0-5.1-10.3-4.1-18.5S54.9,61.1,54.9,61.1z"/>
	<path fill="#FBD7C7" d="M53.8,25.9c-3.9,2.8-4.1,10.6-4,15.8c0.1,5.2,0.7,9.5,1.5,9.9s2.4,0.6,2.4,0.6s1.3,3.1,1.4,5
		c0.1,1.2,7.9-2,11.1-5.2s3.3-4.6,3.3-4.6s4.4-8.1,3.7-14.4S64.7,18,53.8,25.9z"/>
	<path fill="#762C07" d="M50.5,29c-0.6,1.1,1.6,0.9,4.6,5.5c3.1,4.7,6.8,2.6,7.8,2.6c0.3,2.5,2.4,2.1,4.4,4.4c0,0,0.7-2.6,2.1-2.6
		c1.4-0.1,1,4.3,1,4.3s0.2,1.8,1.2,2s4.8-9,2.8-15.1C71.5,20.7,57.5,17.3,50.5,29z"/>
	<path fill="#FFFFFF" d="M41.9,92.4l21.2-5.1l8.2,11.1c0,0-24,3.8-25.8,3.9s-3.3-1.3-3.9-3.4C41,97,40.3,92.7,41.9,92.4z"/>
	<path fill="#656565" d="M43,91.5l25.4-6.1l9.9,13.3c0,0-28.7,4.6-31,4.7c-2.3,0.1-4-1.5-4.7-4.1C41.9,97,41.1,91.9,43,91.5z"/>
</g>
</svg>
