<?xml version="1.0" encoding="utf-8"?>
<!-- Generator: Adobe Illustrator 18.1.0, SVG Export Plug-In . SVG Version: 6.00 Build 0)  -->
<svg version="1.1" id="Layer_1" xmlns="http://www.w3.org/2000/svg" xmlns:xlink="http://www.w3.org/1999/xlink" x="0px" y="0px"
	 viewBox="0 0 128 96" enable-background="new 0 0 128 96" xml:space="preserve">
<g>
	<polygon fill="#999999" points="64,96 0,64 64,32 128,64 	"/>
	<polygon fill="#E5E5E5" points="64,0 0,32 0,38 2,39 2,63 64,94 126,63 126,39 128,38 128,32 	"/>
	<g>
		<polygon opacity="0.15" points="64,70.7 2,39.8 2,39 64,70 		"/>
		<polygon fill="#CC291F" points="64,70 0,38 0,32 64,64 		"/>
		<polygon fill="#3399CC" points="22,67.5 5,59 5,46 22,54.5 		"/>
		<polygon opacity="0.15" points="22,57.5 5,49 5,46 22,54.5 		"/>
		<polygon opacity="0.15" points="22,56.5 5,48 5,46 22,54.5 		"/>
		<polygon opacity="0.15" points="22,55.5 5,47 5,46 22,54.5 		"/>
		<polygon fill="#3399CC" points="41,82.5 26,75 26,56.5 41,64 		"/>
		<polygon opacity="0.15" points="41,82.5 26,56.5 41,64 		"/>
		<polygon opacity="0.2" fill="#FFFFFF" points="41,82.5 26,75 26,69.3 		"/>
		<polygon opacity="0.15" points="41,67 26,59.5 26,56.5 41,64 		"/>
		<polygon opacity="0.15" points="41,66 26,58.5 26,56.5 41,64 		"/>
		<polygon opacity="0.15" points="41,65 26,57.5 26,56.5 41,64 		"/>
		<polygon opacity="0.7" fill="#FFFFFF" points="14,63.5 13,63 13,50 14,50.5 		"/>
		<polygon fill="#3399CC" points="62,87.5 45,79 45,66 62,74.5 		"/>
		<polygon opacity="0.15" points="62,77.5 45,69 45,66 62,74.5 		"/>
		<polygon opacity="0.15" points="62,76.5 45,68 45,66 62,74.5 		"/>
		<polygon opacity="0.15" points="62,75.5 45,67 45,66 62,74.5 		"/>
		<polygon opacity="0.7" fill="#FFFFFF" points="54,83.5 53,83 53,70 54,70.5 		"/>
		<polygon opacity="0.7" fill="#FFFFFF" points="34,79 33,78.5 33,60 34,60.5 		"/>
		<polygon fill="#CC291F" points="23,48 23,73.5 25,74.5 25,55 42,63.5 42,83 44,84 44,58.5 		"/>
		<polygon fill="#FFCC00" points="26,54.5 25,54 25,50 26,50.5 		"/>
		<polygon fill="#FFCC00" points="28,55.5 27,55 27,51 28,51.5 		"/>
		<polygon fill="#FFCC00" points="30,56.5 29,56 29,52 30,52.5 		"/>
		<polygon fill="#FFCC00" points="32,57.5 31,57 31,53 32,53.5 		"/>
		<polygon fill="#FFCC00" points="34,58.5 33,58 33,54 34,54.5 		"/>
		<polygon fill="#FFCC00" points="36,59.5 35,59 35,55 36,55.5 		"/>
		<polygon fill="#FFCC00" points="38,60.5 37,60 37,56 38,56.5 		"/>
		<polygon opacity="0.2" fill="#FFFFFF" points="22,67.5 5,59 5,52 		"/>
		<polygon fill="#FFCC00" points="40,61.5 39,61 39,57 40,57.5 		"/>
		<polygon opacity="0.2" fill="#FFFFFF" points="62,87.5 45,79 45,72.3 		"/>
		<polygon fill="#FFCC00" points="42,62.5 41,62 41,58 42,58.5 		"/>
		<polygon opacity="0.06" points="64,94 2,63 2,39 0,38 0,32 64,64 		"/>
	</g>
	<g>
		<polygon opacity="0.15" points="126,39.8 64,70.7 64,70 126,39 		"/>
		<polygon fill="#CC291F" points="128,38 64,70 64,64 128,32 		"/>
		<polygon fill="#3399CC" points="83,79 66,87.5 66,74.5 83,66 		"/>
		<polygon opacity="0.15" points="83,69 66,77.5 66,74.5 83,66 		"/>
		<polygon opacity="0.15" points="83,68 66,76.5 66,74.5 83,66 		"/>
		<polygon opacity="0.15" points="83,67 66,75.5 66,74.5 83,66 		"/>
		<polygon opacity="0.7" fill="#FFFFFF" points="75,83 74,83.5 74,70.5 75,70 		"/>
		<polygon fill="#3399CC" points="123,59 106,67.5 106,54.5 123,46 		"/>
		<polygon opacity="0.15" points="123,49 106,57.5 106,54.5 123,46 		"/>
		<polygon opacity="0.15" points="123,58.7 106,54.5 123,46 		"/>
		<polygon opacity="0.15" points="123,48 106,56.5 106,54.5 123,46 		"/>
		<polygon opacity="0.15" points="123,47 106,55.5 106,54.5 123,46 		"/>
		<polygon opacity="0.7" fill="#FFFFFF" points="115,63 114,63.5 114,50.5 115,50 		"/>
		<polygon fill="#3399CC" points="103,69 86,77.5 86,64.5 103,56 		"/>
		<polygon opacity="0.15" points="83,71.8 66,74.5 83,66 		"/>
		<polygon opacity="0.15" points="103,64.8 86,64.5 103,56 		"/>
		<polygon opacity="0.15" points="103,59 86,67.5 86,64.5 103,56 		"/>
		<polygon opacity="0.15" points="103,58 86,66.5 86,64.5 103,56 		"/>
		<polygon opacity="0.15" points="103,57 86,65.5 86,64.5 103,56 		"/>
		<polygon opacity="0.7" fill="#FFFFFF" points="95,73 94,73.5 94,60.5 95,60 		"/>
		<polygon opacity="0.39" points="126,63 64,94 64,64 128,32 128,38 126,39 		"/>
	</g>
	<polygon opacity="0.4" points="8.9,32 64,4.5 119.1,32 64,59.5 	"/>
	<polygon opacity="0.39" points="64,6.5 64,4.5 8.9,32 10.9,33 	"/>
	<polygon opacity="0.06" points="64,6.5 117.1,33 119.1,32 64,4.5 	"/>
	<g>
		<polygon fill="#999999" points="66,9 42,21 42,23 54,29 78,17 78,15 		"/>
		<polygon opacity="0.39" points="78,17 54,29 54,27 78,15 		"/>
		<polygon opacity="0.06" points="42,23 54,29 54,27 42,21 		"/>
		<path fill="#656565" d="M65,13c-2.8,0-5,1.1-5,2.5s2.2,2.5,5,2.5s5-1.1,5-2.5S67.8,13,65,13z M65,17c-1.7,0-3-0.7-3-1.5
			s1.3-1.5,3-1.5s3,0.7,3,1.5S66.7,17,65,17z"/>
		<path fill="#656565" d="M55,18c-2.8,0-5,1.1-5,2.5s2.2,2.5,5,2.5s5-1.1,5-2.5S57.8,18,55,18z M55,22c-1.7,0-3-0.7-3-1.5
			s1.3-1.5,3-1.5s3,0.7,3,1.5S56.7,22,55,22z"/>
	</g>
	<g>
		<polygon fill="#999999" points="84,18 60,30 60,32 72,38 96,26 96,24 		"/>
		<polygon opacity="0.39" points="96,26 72,38 72,36 96,24 		"/>
		<polygon opacity="0.06" points="60,32 72,38 72,36 60,30 		"/>
		<path fill="#656565" d="M83,22c-2.8,0-5,1.1-5,2.5s2.2,2.5,5,2.5s5-1.1,5-2.5S85.8,22,83,22z M83,26c-1.7,0-3-0.7-3-1.5
			s1.3-1.5,3-1.5s3,0.7,3,1.5S84.7,26,83,26z"/>
		<path fill="#656565" d="M73,27c-2.8,0-5,1.1-5,2.5s2.2,2.5,5,2.5s5-1.1,5-2.5S75.8,27,73,27z M73,31c-1.7,0-3-0.7-3-1.5
			s1.3-1.5,3-1.5s3,0.7,3,1.5S74.7,31,73,31z"/>
	</g>
</g>
</svg>
