<?xml version="1.0" encoding="utf-8"?>
<!-- Generator: Adobe Illustrator 18.1.0, SVG Export Plug-In . SVG Version: 6.00 Build 0)  -->
<svg version="1.1" id="Layer_1" xmlns="http://www.w3.org/2000/svg" xmlns:xlink="http://www.w3.org/1999/xlink" x="0px" y="0px"
	 viewBox="0 0 240 240" enable-background="new 0 0 240 240" xml:space="preserve">
<g>
	<path opacity="0.2" d="M119.4,180.6c14.5,8.7,25,3.3,40.8-3.7c17.5-7.7,27.1-19.8,18.5-24.9c-8.6-5.1-22.6-1.2-37.5,4.9
		C127.4,162.5,110.1,175.1,119.4,180.6z"/>
	<path opacity="0.2" d="M23.4,206.9c-9.5,5.8-10.2,12.8,2.1,19.4c13.5,7.2,21.4,5.7,31.9-0.4c9.2-5.3,7.1-12.5-8.4-18.7
		C36.5,202.2,30.2,202.8,23.4,206.9z"/>
	<path fill="#FBD7C7" d="M11.7,114.9c0.2,6.2,2.3,21.9,3.8,26.3s3.2,11.2,2.5,14.8s-3,9.6-1.7,18c1.4,8.3,5.5,21.2,4.6,26.9
		c-0.9,5.7-2.7,8.4-0.8,10.1c1.9,1.7,2.9,3,6.6,2.8c3.6-0.2,4,0.2,6.6,1.5c2.6,1.3,9,0.5,9.4-1.8c0.4-2.3-7.5-1.3-9.1-4.1
		c-1.7-2.8-4.3-9.3-3.4-15.6c0.9-6.3,2.9-23.1,2.9-28.2c0.1-3.8,2.4-17.3,4.3-24.6c2.5-9.3,4.3-29.6,4.3-29.6l-26.3-9.6
		C15.4,101.7,11.5,107.9,11.7,114.9z"/>
	<g>
		<path fill="#E5E5E5" d="M19.9,205.3c0,0,3,1.4,5,2.2c2.7,1.2,7.6-0.8,7.6-0.8s0.8,2.3,2.2,2.6c1.4,0.3,6.6-0.5,7.8,0.1
			c1.2,0.6,4.6,1.6,2.2,3.5c-2.4,1.8-7.9,4.4-10.4,3.9c-2.6-0.5-7.2-1.8-8.4-1.4c-1.2,0.4-0.5,4.5-0.5,4.5l-2,1l-2.4-1.2
			c0,0,0-1.4-0.3-3c-0.4-1.6-2.1-2.3-2.1-5.2C18.5,208.6,19.9,205.3,19.9,205.3z"/>
		<path opacity="0.4" d="M18.5,211.9c0.1,2.6,1.7,3.3,2.1,4.7c0.4,1.6,0.3,3,0.3,3l2.4,1.2l2-1c0,0-0.7-4.1,0.5-4.5
			c1.2-0.4,5.9,0.9,8.4,1.4c2.6,0.5,8-2,10.4-3.9c0.7-0.5,0.9-1.1,0.8-1.6c-1.4,1.1-6.1,5.5-14.1,3.5
			C26.6,213.6,23.5,213.8,18.5,211.9z"/>
	</g>
	<path fill="#FBD7C7" d="M30.3,110.3c0,0-4.7,7.4-2.9,14c1.8,6.7,3.7,8.3,3.7,8.3s1.4,7.9,2.6,11.2c1.2,3.3,4.6,13.3,4.3,15.2
		c-0.3,1.9-3.9,10.6-3.5,17s1.9,20,2.4,25.5c0.4,5.3,0.8,6.7-0.2,9.3c-1,2.7-3.4,7.2,0.8,8.6s6.3-0.1,9.3,2c3,2.1,8,2.8,9.8,0.5
		s-3-3.3-3.7-3.5s-4.3-4.4-5.1-9.6c-0.9-5.9,0.1-19.1,1.5-24.5c1.4-5.4,1.4-14.1,1.7-16.5s5.9-16.9,5.9-25.6s-3.8-26.1-3.8-26.1
		L30.3,110.3z"/>
	<path fill="#E5E5E5" d="M36.3,211.3c0,0,3.3,1.2,5.8,2.3c1.5,0.6,4.5,0.5,5.4,0.3c0.9-0.3,2-0.7,2-0.7s1.3,3.5,2.3,3.8
		c0.9,0.3,4.3-0.7,6,1.1c1.8,1.8,1.3,2.8,0.4,3.9c-0.9,1-4.4,3.5-7.1,3c-1.9-0.4-7.9-2.7-9.1-2.5s-0.7,4.6-0.7,4.6l-2.3,1.1l-2-1
		c0,0-0.1-2.1-0.7-3.6c-0.7-1.4-1.9-3.1-1.9-6.2S36.3,211.3,36.3,211.3z"/>
	<path opacity="0.4" d="M58.9,219.8c-0.1,1.9-5.3,4.8-7.6,4.1c-6.9-2.1-12.6-3.9-16.9-6.3v0c0,3,1.3,4.6,1.9,6
		c0.7,1.4,0.7,3.6,0.7,3.6l2,1l2.3-1.1c0,0-0.6-4.4,0.7-4.6c1.2-0.3,7.2,2.1,9.1,2.5c2.6,0.5,6.2-2,7.1-3
		C58.8,221.3,59.1,220.7,58.9,219.8z"/>
	<path fill="#06547A" d="M27.7,113.7c0,0-16-3.2-16.1-2.3c-0.6,7.1-0.4,16.8,1.2,22.9c1.7,6.8,3.5,16.5,2.9,22.1
		c-0.7,5.6-0.8,14.9,0.1,22.6c0.9,7.7,1.8,15.7,1.8,15.7s3.5,2,7.6,2c4.1,0,6.8-1,6.8-1s1.3-20.6,1.6-25.9
		c0.3-5.4,2.1-19.2,2.1-19.2s0.8-16.5-0.7-21.7C33.6,123.5,27.7,113.7,27.7,113.7z"/>
	<path opacity="0.15" d="M27.7,113.7c0,0-16-3.2-16.1-2.3c-0.6,7.1-0.4,16.8,1.2,22.9c1.7,6.8,3.5,16.5,2.9,22.1
		c-0.7,5.6-0.8,14.9,0.1,22.6c0.9,7.7,1.8,15.7,1.8,15.7s3.5,2,7.6,2c4.1,0,6.8-1,6.8-1s1.3-20.6,1.6-25.9
		c0.3-5.4,2.1-19.2,2.1-19.2s0.8-16.5-0.7-21.7C33.6,123.5,27.7,113.7,27.7,113.7z"/>
	<path fill="#06547A" d="M36.3,159.2c-0.8,4.8-2.5,9.4-2.5,16c0,6.5,1.2,25.5,1.2,25.5s3.4,1.3,7.2,1.4c3.8,0.1,8.6-1.2,8.6-1.2
		s-0.3-20.3,0.3-24.4c0.5-4.1,2.7-13,4.6-22.3c2.4-11.4,1.4-21.7,0-27.9c-1.4-6.2-2.6-11.8-2.6-11.8s-3.1-1.8-7.5-4l-21.1,1
		c0,0-2.3,15.7,0.1,20.6c2.6,5.4,5.3,5.5,7.3,9.2c2.4,4.3,3.8,9.2,3.8,9.2S37.1,154.3,36.3,159.2z"/>
	<g>
		<path fill="#825012" d="M150.7,144.6c0.5,2.2-0.1,6.2-0.5,7.6c-0.8,2.6-0.8,4.9,0.1,5.8c1.4,1.5,3.9,1.5,5.5,1s2.9-2.3,2-3.6
			c-0.9-1.3-2.3-1.5-2.3-1.5s0.4-1.8,0.8-4c0.5-2.5,0.3-5.8,0.3-5.8L150.7,144.6z"/>
		<path fill="#825012" d="M134,146.5c-0.7,3.5-2.6,7.7-4.9,10.6c-2.2,3-3.5,4.5-4,6.3c-0.4,1.5-1.2,6.6-0.6,7.1
			c0.6,0.5,2.3,0.4,2.9,2.9c0.4,1.6-2.5,3.1-4.7,2.9c-2.1-0.2-4.3-1.2-4-4.8c0.3-3.6,3.5-26.6,3.5-26.6l8.2-2L134,146.5z"/>
		<path opacity="0.2" d="M150.7,144.6c0.5,2.2-0.1,6.2-0.5,7.6c-0.8,2.6-0.8,4.9,0.1,5.8c1.4,1.5,3.9,1.5,5.5,1s2.9-2.3,2-3.6
			c-0.9-1.3-2.3-1.5-2.3-1.5s0.4-1.8,0.8-4c0.5-2.5,0.3-5.8,0.3-5.8L150.7,144.6z"/>
		<path opacity="0.2" d="M134,146.5c-0.7,3.5-2.6,7.7-4.9,10.6c-2.2,3-3.5,4.5-4,6.3c-0.4,1.5-1.2,6.6-0.6,7.1
			c0.6,0.5,2.3,0.4,2.9,2.9c0.4,1.6-2.5,3.1-4.7,2.9c-2.1-0.2-4.3-1.2-4-4.8c0.3-3.6,3.5-26.6,3.5-26.6l8.2-2L134,146.5z"/>
		<path fill="#825012" d="M182.5,92.9c0,0,3.9-3.3,4.2-7.1c0.2-3-0.1-5.2-0.9-5.8c-0.8-0.6-2.7-1.1-4.7,0.1c-2,1.2-3,1.9-3.6,1.7
			c-0.6-0.2-1-2-3.3-1.3c-2.3,0.7-3.9,1.4-5,1.3s-2.5-1-4.7,1c-2.2,2-5.5,6-5.5,7.6c0,1.6,3.1,2.9,3.1,4.2c0.1,1.3-2.1,7.9-6.9,14.1
			c-4.9,6.4-6.6,8.7-13.3,11c-6.7,2.3-13.9,4.9-17.3,10.5s-3.2,9.4-3.6,12.4c-1.1,7.6-3.9,15.2-8.3,21.9c-1.3,1.9-2.1,5,1.8,1.9
			c3.9-3.1,6.7-8.4,7.3-9.7c0.6-1.3,5.6-11.3,7.8-10.8c2.3,0.5,5.5,5.6,5.9,8.8c0.4,3.3,0.1,7.9-1,10.2c-1.3,2.9-2.4,6.8-2.4,10.2
			s0.6,6,2,7.2c2,1.6,5.6,0.7,6.8-0.2c1.2-0.9,0.9-3.1-0.6-3.9c-1-0.6-2.1-0.7-2.3-1.5c-0.3-0.8,0.1-4.9,1.7-7.7
			c1.4-2.4,6.3-10.1,8.3-15.9c2-5.9,2.2-7.3,2.2-7.3s6.4,0,9.7-2c3.8-2.3,5.6-5.9,6.9-5c1.3,0.9,1.9,11.6,1.2,16.5
			c-0.4,3.1-3.4,6-1.8,9.2c1,1.9,4.5,2.3,6.6,1.5c2.1-0.8,2.1-2.8,1.5-3.6s-2.6-1.4-2.6-1.7s1.3-2.3,1.8-4.4
			c1.1-4.7,1.4-13.4,3.5-19c2.1-5.6,3.6-13.1,3.2-17.6c-0.4-4.5-2.3-4.7-2-9.8c0.3-5.1,2.1-8.9,2.1-8.9s1.1,0.1,1.8-0.2
			C183,100.2,182.5,92.9,182.5,92.9z"/>
		<path fill="#262626" d="M182.4,79.5c1.3,0,3.8,1.4,4.2,2.9C188.2,81.6,186.1,76.2,182.4,79.5z"/>
		<path fill="#262626" d="M181.9,84.5c0.2,0.9-0.3,2.8-0.3,2.8s0.9-1.1,0.8-1.9C182.4,84.7,181.9,84.5,181.9,84.5z"/>
		<path opacity="0.2" d="M163.2,91.6c0,0-0.9,0.3-1.9,0.1c-0.8-0.1-1.6-0.6-2.2-1c0.3,1.4,3,2.7,3.1,3.9l0,0
			C162.7,93,163.2,91.6,163.2,91.6z"/>
		<path opacity="0.2" d="M174.1,96.3c2.3,3.7,5.5,5.2,7.8,4.4C182,100.7,177.8,100.3,174.1,96.3z"/>
	</g>
	<path fill="#262626" d="M36.9,112c-0.3,0-0.6-0.2-0.6-0.5c0-0.3,0.2-0.6,0.6-0.6l122.9-9c0,0,0,0,0,0c0.3,0,0.6,0.2,0.6,0.5
		c0,0.3-0.2,0.6-0.6,0.6L36.9,112C36.9,112,36.9,112,36.9,112z"/>
	<path fill="#FBD7C7" d="M17,62.4c0,0-3.7,13-3.7,15.7c0,2.7,5.4,15.9,5.8,16.8c0.4,0.9,5.2-4.1,5.2-4.1s-2.9-8.4-2.9-10.8
		c0-2.4,1.8-8.2,1.8-8.2L17,62.4z"/>
	<path fill="#993399" d="M33.2,50c-1.3-0.2-9-3.4-12.8-1.5c-2.7,1.3-3.9,3.6-4,5.7c-0.1,1.7,0.4,5.9-0.2,8.3c-0.3,1.3-0.9,4-0.9,4
		l2.5,1.7c0,0,1,8.5,0.4,14.9c-0.6,6.4-3,15.7-5.1,20.4c-2.2,5.1-2.5,9.6-2.5,16.1c0,8,17.5,12.8,25.5,13c7.7,0.1,22.8-1.3,22.5-7.6
		c-0.8-14.9-4-38.2-2.3-41c1.7-2.8,4-7.2,1-11.9c-3-4.7-5.6-6.7-5.9-7.7c-0.3-1-0.2-3-2.4-5.1C46.7,56.7,40.4,51.1,33.2,50z"/>
	<path fill="#FBD7C7" d="M29.8,22.7c6.9-1.6,14.3,0.7,15.6,10.3s-1,11.7-2.1,12.4c-1.1,0.7-2.4,3.3-2.9,4.9
		c-0.5,1.6,0.2,2.6,0.2,2.6s-7.7,4.5-12.4,2.7c-4-1.5-4.5-3.5-2.8-6.6c1.6-3.1-2.3-5-3.5-9.6S20.6,24.8,29.8,22.7z"/>
	<path fill="#656565" d="M38.7,20.7c3.5,1.1,6.4,6,6.4,6l-2.6-1.5l2.5,3.7l-2.3-1.6l2.2,5l-1.4-0.7c0,0,0.8,1.8,0.3,4.6
		c-0.3,1.9-1.4,3.4-1.4,3.4v-3.4c0,0-0.3,4.4-2.5,7.4c0,0,1-4.5,0.6-5.2C40,37.7,39.5,40,39.5,40l-0.7-2l-0.4,2.1l-1.8-0.9
		c0,0,0.6,2.2-1.1,5.6c-1,2-3.9,4.8-3.9,4.8l0.9-4.3l-3.6,6.3l-0.9-3.4l-0.6,2.4l-0.6-1.8l-0.8,2c0,0-0.9-3.6-1.3-4.4
		c-0.3-0.7-0.8,0.7-0.8,0.7L22,42.5l-0.7,1.4l-0.8-5.4l-0.6,1.1L19.3,34l-1.1,1.2c0,0,0.2-5.4,1.9-7.7c1.2-1.7,2.4-2,2.4-2l-1.7-0.1
		c0,0,2.7-3.9,7-4.4c3.7-0.5,4.1,0.3,4.1,0.3S34.5,19.4,38.7,20.7z"/>
	<path opacity="0.15" d="M55.5,80.6c-3.2,1.3-5.6,0.6-5.6,0.6s-0.4,2.2-0.4,4.2c0,1.2,0.1,3,0.1,3s3.7-2,6.7-4.5c0,0,0-0.1,0.1-0.1
		c0.9-1.5,2-3.4,2.3-5.6C57.9,79.2,56.8,80.1,55.5,80.6z"/>
	<path fill="#FBD7C7" d="M39,79.3c0,0,3.8,0.9,6.4,0.5s4.9-1.4,4.9-1.4s-0.6,5.3-0.5,9.3c0.1,3.9-0.2,7.3,1.7,11.8
		c1.9,4.5,3.1,12.6,4.3,15.1c1.2,2.5,5.2,7.9,5.2,10.1s0,7.3-0.8,8.6c-0.8,1.2-4,4.4-5.4,3.8c-1.4-0.6-0.9-5.5-0.9-6.3
		s0.8-4.1,0.2-5.2s-8.8-12.9-10.4-16.8c-1.6-3.9-4.4-11.7-4.6-18.1C39,84.3,39,79.3,39,79.3z"/>
	<path fill="#262626" d="M159.9,100.3c0,0,5,2.4,9.6,3.2c5.1,0.9,9.7,0.9,9.7,0.9l-0.8,3.3c0,0-3.1,0.6-9.4-0.6
		c-5.1-1-10.9-3.4-10.9-3.4L159.9,100.3z"/>
</g>
</svg>
