<?xml version="1.0" encoding="utf-8"?>
<!-- Generator: Adobe Illustrator 18.1.0, SVG Export Plug-In . SVG Version: 6.00 Build 0)  -->
<svg version="1.1" id="Layer_1" xmlns="http://www.w3.org/2000/svg" xmlns:xlink="http://www.w3.org/1999/xlink" x="0px" y="0px"
	 viewBox="0 0 240 320" enable-background="new 0 0 240 320" xml:space="preserve">
<g>
	<path fill="#FBD7C7" d="M140,131.5c0,0-1.6,3-2.2,5.1s-1.7,8.6-1.6,9.7s4.1,8.4,5.8,9.2c1.7,0.8,2-10.2,2-10.2l-0.5-4.8l2.7-5.6
		L140,131.5z"/>
	<path opacity="0.2" d="M143.9,224.7c-11.8,7.6-12.4,14.4,0,21c13.5,7.2,22.4,3.3,32.9-2.7s11.8-13.4-3.6-19.6
		C160.7,218.4,152.8,219,143.9,224.7z"/>
	<path opacity="0.2" d="M51,282.8c-11.8,7.6-32,14.4-13.7,25.5c17.1,10.4,33.9-3.4,46-9.8c17.7-9.5,26.8-17.7,16-24.5
		C88.1,267.1,58,278.3,51,282.8z"/>
	<path fill="#FBD7C7" d="M141.5,142.8c-0.4,3.3-1.6,26.2,0,32.2c1.6,6,2.2,8.8,2.6,11c0.4,2.2,1.8,4.1,2.5,7.6s3.7,15.1,2.7,19.6
		c-0.9,4.6-1.4,11.7-4.5,15.6c-3,3.9-8,6.8-4.8,8c3.1,1.2,6.7,0.4,8.1-0.5s5.2-6.5,8.4-7.7c3.1-1.2,6.3-2.9,6-6
		c-0.3-3.1-3.1-3.8-3.3-7.6c-0.1-3.8,4.5-14.3,3.1-21.3s-3.4-10.5-3.4-10.5l2.4-16.2c0,0,1.7,18.9,1.8,20.5c0.1,1.6,1,4.7,1,4.7
		s-0.3,8.1,0.3,12.7s3.8,13.2,2,20c-1.8,6.8-1.4,8-3.9,11.1s-7.2,5.6-3.8,7.3s7.3,2.5,9.9-1.8c2.6-4.3,5.5-5.9,6.9-7.2
		c1.4-1.3,1.8-2.2,0.8-6.3c-1-4.1-1-9.4,0.4-13.6c1.4-4.2,4.7-15.4,4.8-20.2c0.1-4.7-2.2-9.4-2.2-9.4s4.3-15.1,5.5-26.8
		c1.2-11.8,1-20.4-1-25.5C181.8,127.3,141.5,142.8,141.5,142.8z"/>
	<path fill="#E5E5E5" d="M164.8,230.2c0,0,1.6,1.7,4.2,1.8c3,0.1,6.1-1.6,6.6-2.9c0.7-1.7,0.3-4.3,0.3-4.3s2.8,2.3,2.8,5.1
		c0,2.5-1.8,5.5-1.9,6.5s0.1,3.5,0.1,3.5l-1.8,1l-3-1.4c0,0-0.9,2.9-2.9,4.4c-2,1.4-6.8,4.2-11.3,2.5c-4.5-1.7-2-5.6-0.9-6.9
		s5-4,6-5.9C164.2,231.3,164.8,230.2,164.8,230.2z"/>
	<path fill="#E5E5E5" d="M147,223c0,0,2.4,2.4,5.2,2.3c2.1-0.1,5.3-1.5,6.4-3.4c0.9-1.6,1.4-4.6,1.4-4.6s2.7,1.6,2.7,5.2
		c0,3.2-2.3,6.3-2.4,8.5s0,1.3,0,1.3l-2.4,1.2l-2.4-1.2c0,0,0.8-2.5,0-2c-0.8,0.5-3.3,4.2-5.1,5.9c-1.8,1.7-5.8,4-9.4,2.9
		c-3.6-1.1-3.4-4.8-1.3-6.6c1.8-1.6,4.1-2.8,5.4-5.2C146.3,225,147,223,147,223z"/>
	<g opacity="0.4">
		<path d="M160.1,232.3L160.1,232.3C160.1,232.7,160.1,232.3,160.1,232.3z"/>
		<path d="M162.6,222.5c0,0,0-0.1,0-0.1c-0.4,1.5-1.2,2.5-3.1,4c-2.2,1.8-4,3.3-6.1,5.8c-2.1,2.6-6,6-10.7,6c-2.7,0-4.7-1.9-4.4-3.8
			c-0.6,1.8,0.1,3.8,2.6,4.6c3.6,1.1,7.7-1.2,9.4-2.9c1.8-1.7,4.3-5.4,5.1-5.9c0.8-0.5,0,2,0,2l2.4,1.2l2.3-1.2c0-0.2,0-0.6,0.1-1.3
			C160.3,228.8,162.6,225.7,162.6,222.5z"/>
	</g>
	<path opacity="0.4" d="M169.3,243.9c2-1.4,2.9-4.4,2.9-4.4l3,1.4l1.8-1c0,0-0.2-2.5-0.1-3.5c0-0.9,1.5-3.3,1.8-5.7
		c-0.2,0.4-0.4,0.8-0.7,1.2c-1.4,2.3-3.7,3.4-6.5,8.1c-2.6,4.5-9.3,5.9-12,5.4c-2.2-0.4-3.7-1.3-4-2.7c-0.2,1.3,0.4,2.7,2.6,3.5
		C162.5,248.1,167.3,245.3,169.3,243.9z"/>
	<path fill="#06547A" d="M140.6,142.1c-0.3,2.1-1.3,27.5-0.3,33.8c2,12.5,5,17.6,6.7,29.8c0.3,2.5,0.6,7.7,0.6,7.7s5.5,0.6,8.1,0.4
		c4.2-0.4,5.5-0.8,5.5-0.8s1.7-6.7,1.8-16.8c0-3.7-3.3-13.2-3.3-13.2l1.6-8.4l-3-32.8C148.8,141.6,140.6,142.1,140.6,142.1z"/>
	<path opacity="0.15" d="M140.6,142.1c-0.3,2.1-1.3,27.5-0.3,33.8c2,12.5,5,17.6,6.7,29.8c0.3,2.5,0.6,7.7,0.6,7.7s5.5,0.6,8.1,0.4
		c4.2-0.4,5.5-0.8,5.5-0.8s1.7-6.7,1.8-16.8c0-3.7-3.3-13.2-3.3-13.2l1.6-8.4l-3-32.8C148.8,141.6,140.6,142.1,140.6,142.1z"/>
	<path fill="#06547A" d="M165.1,220c0,0,3.5,1.1,6.8,0.9c4.7-0.3,7.7-1.9,7.7-1.9c0.1,0.7,1.9-14.1,2.6-21.6c0.5-5-1.2-9.8-0.9-12.4
		c0.3-2.6,7.3-29.1,6.3-37.3c-0.6-4.8-43.1-31.6-40.5-5.5c1.1,11.1,7.4,12,9.8,16.4c3.6,6.6,3.9,12.4,4.2,16
		c0.6,6.3,2.5,22.7,2.9,27S165.1,220,165.1,220z"/>
	<path fill="#993399" d="M143,109.3c0,0-1.9,8.4-2.9,23.8c-0.1,2.3,0,5.7-0.1,9.7c-0.1,6.6,11.1,10.9,22.5,11.6
		c12.5,0.8,25.4-0.6,25.8-6.8c1.1-14.8-9.3-28.5-10.6-34.3c-1.3-5.8,6.7-8.6,6.7-8.6s-2-4.7-1.5-11.6s-5.4-9.9-7.5-11.3
		c-1.7-1.2-17.3-8.4-19.8-9.1s-7.1-0.9-8.2,3.5c-1.2,4.5,0,9.2-1.4,10.9c-1.4,1.7-6.5,8.1-6.3,12.4C139.8,103.9,143,109.3,143,109.3
		z"/>
	<path fill="#FBD7C7" d="M158,47.1c-5.3,3.5-5.8,10.8-5.6,15.8s0.3,9.1,2.2,10.8c1.9,1.7,2.1,2.4,2.3,3.6s-5.7,5.7-0.6,8
		c5.1,2.2,6.9-0.3,10.9-2.1c4.3-1.9,7.6-1.6,7.6-1.6s-2.6-4.7-2.4-8.1c0.2-3.3,1-5.8,2.6-9.3c1.6-3.5,4.2-12.7-1.1-16.4
		C168.7,44.3,161.6,44.8,158,47.1z"/>
	<path fill="#656565" d="M171.4,45.4c0,0-3.4-4.2-10.2-2.1c-6.8,2.1-8.2,7.9-8.2,7.9l2.7-1.8l-1.6,3.5l2.5-2.1c0,0-1.1,2.6-1.1,2.5
		c0-0.2,2.6-2.1,2.6-2.1s-1.8,4.6-1.8,4.4c0.1-0.2,6.5-6.2,6.5-6.2l-3.4,7.2l1.6-0.5l-1.5,7.3l1.5-2.5l0.3,5.7l1.8-6.2l1,4.3
		l1.1-4.1l1.4,6.8l1.3-3.5l0.9,3l1.8-4.5l0.4,1.8l1.5-2.7l0.2,1.6l1-0.2l-2,7.5l1.9-3.7L173,73l3.1-7.2l0.3,1.6l1.6-6.7l0.3,3.2
		l0.6-4.9l0.9,0.9l-0.7-4.3l1,0.6l-1.9-3.6l1.3,0.5C179.5,52.9,177.6,45.1,171.4,45.4z"/>
	<path opacity="0.15" d="M170.9,102.4c0,0-6.7,8.3-15.4,7.1c-9.2-1.3-2.7-14.5-2.7-14.5s-8,14.1-12.9,6.3c0.9,4,3.2,8,3.2,8s0,0,0,0
		c1.8,1.2,3.2,0.9,5.6-2c1.8,12.4,21.9,6.1,24.9,3.3C172.8,107.9,170.9,102.4,170.9,102.4z"/>
	<path fill="#FBD7C7" d="M186.2,120.6c-0.7-3.5-2.2-13.2-2.9-15.5l-10.7,2.5c0.1,0.3,0.1,0.3,0.2,0.6c1,2.6,3.3,14.4,3.5,15.3
		c0.2,0.9-2,3.3-3,5.6c-2.7,6.1-3.3,13.9-3.7,15.5c-0.5,1.6-1.6,2.9-2.9,3.8c-1.3,0.9-5.3,4.7-5.7,5.8c-0.3,0.7-1.3,4.8-0.7,6.3
		c0.6,1.5,4.8,3,5.8,3c1,0,1-1.4,1-1.4s-1.1-1.8-1.2-3.4c-0.1-1.6,1.2-2.7,4.3-5c3.1-2.3,3.4-5.4,7-11.1c3.6-5.7,6.6-9.9,7.8-12.6
		C186.2,127.1,186.5,122.2,186.2,120.6z"/>
	<path fill="#825012" d="M71.6,263c0,0,7.4,1.9,7.4,4.1c0,1.1,0,4.8,0,5.8c0,1.9-3.9,3.1-3.9,5c0,2.4,4.8,3.9,6,3.5
		c1.3-0.4,2.1-1,2.1-3.3c0-2.3,0.8-12.1,1.1-15.1c0.3-3-0.9-12.3-0.9-12.3L71.6,263z"/>
	<path opacity="0.2" d="M71.6,263c0,0,7.4,1.9,7.4,4.1c0,1.1,0,4.8,0,5.8c0,1.9-3.9,3.1-3.9,5c0,2.4,4.8,3.9,6,3.5
		c1.3-0.4,2.1-1,2.1-3.3c0-2.3,0.8-12.1,1.1-15.1c0.3-3-0.9-12.3-0.9-12.3L71.6,263z"/>
	<path fill="#825012" d="M16,232.8c1.4-0.5,6.6-2.3,6.7-3.3c0.1-1,0-2.6,1.2-3.1c1.2-0.6,2.3-3.5,3.9-3.8s2.3,0.1,5.2,1
		c2.9,0.9,6.4,2.8,8.6,4.4c2.3,1.7,3.4,3.3,4.9,5.6s2,2.9,1.8,3.5c-0.2,0.6-0.7,0.3-0.3,1.2c0.5,1.4,0.8,3.1,2.5,3.5
		c5.9,1.6,19.6-8,23.1-9.1c8.4-2.7,16.6,1.5,20.8,5c2.8,2.3,5.4,8.4,7.4,12.4s5.6,4.5,5.2,6.2c-0.2,0.7-1.2,1.3-3.4,0.4
		c-2.7-1.1-8.8-7.8-8.8-7.8s0.8,2.5-0.4,5.8c-1.2,3.3-3.1,8.8-1.5,10.6c1.7,1.8,3.9,3.7,4.1,5.6c0.2,1.9,1,15.2,1,15.8
		s-0.4,1.9-1.7,2.3c-3.8,1.2-8.4-1.4-7.8-3.7c0.7-2.4,3.3-1.8,3.3-5.2c0-1.3-0.3-5-0.6-5.7c-0.3-1-1.4-2-2.7-2.5
		c-1.1-0.4-6.1-3.1-7.1-6.3s-1.5-6.6-3.1-6.9c-1.6-0.2-7.3,9.1-12,12.3s-7.9,3.4-7.9,3.4s-0.9,15.5-0.9,18.5c0,3,2.1,6.2,2.5,8.1
		c0.4,2.1,0.8,5.6-1.8,7.3c-3.1,2-7,0.1-7.9-0.9c-0.8-1-1-3.1,0.3-4.3c1.3-1.2,2.7-2.3,2.3-2.8c-0.4-0.6-2.1-3.4-2.4-5.2
		c-0.4-2.7-0.8-14.3-4.1-16.4c-1-0.6-3.4-0.9-4.1,0.1c-0.6,1-0.6,7.2-0.6,8.3c0,1.6,2.3,5,2.3,7.7c0,2.7-1,4.2-3.4,5.1
		c-1.9,0.6-4.5,0.2-6.4-2.3c-1.2-1.6-0.3-3.3,1-4.1c0.8-0.5,1.9-0.7,2-1.8s-1.5-2.7-1.5-4.7c0-2-0.8-10-0.8-11c0-3.2-5.4-6.3-7.3-13
		c-1-3.3-0.2-7-0.5-9.8c-0.2-1.7-0.5-9.2-3.7-9.9c-1.2-0.3-6.3-0.2-7.8-1.8c-1.1-1.2-1.7-2.7-1.4-4.6C15,235.2,16,232.8,16,232.8z"
		/>
	<path fill="#262626" d="M32.4,234.7c0,0-0.6-1.6-2-2.4c-1.3-0.8-2.7,0.7-1,2C30.9,235.5,32.4,234.7,32.4,234.7z"/>
	<path fill="#262626" d="M19.4,235.1c0.2-1.5-0.8-2.2-2.8-2.7c-1.2-0.2-2.5,0.4-2.5,1.9c0,2.1,1.8,3.7,1.8,3.7S19.1,238,19.4,235.1z
		"/>
	<path fill="#262626" d="M22.9,228c0,0,1,0.5,0.3,1.3C22.4,230.2,22.9,228,22.9,228z"/>
	<path fill="#262626" d="M166.7,159.5l-6.8-1.5c-0.3-0.1-0.5-0.4-0.5-0.7c0.1-0.3,0.4-0.5,0.7-0.4l4.7,1.1l-4.8-2
		c-0.3-0.1-0.5-0.5-0.3-0.8c0.1-0.3,0.5-0.4,0.8-0.3l6.6,2.7L166.7,159.5z"/>
	<path fill="#262626" d="M49.1,241.2c-0.2,0-0.4-0.1-0.5-0.3c-0.2-0.3-0.1-0.6,0.2-0.8l117.1-81.8c0.3-0.2,0.6-0.1,0.8,0.1
		c0.2,0.3,0.1,0.6-0.2,0.8L49.4,241.1C49.3,241.2,49.2,241.2,49.1,241.2z"/>
	<path fill="#262626" d="M26.8,248.6c0,0,2.4,1.3,6.1,1.4c3.7,0,7-1.5,8.8-3.3c1.8-1.8,6.7-7.1,6.7-7.1l1.7,1.8c0,0-5.8,7.4-8.3,8.9
		s-5.2,2.8-9,2.7s-5.5-1.2-5.5-1.2L26.8,248.6z"/>
	<path opacity="0.2" d="M36.9,233.2c0,0-4.1,15.3,0.6,15.2c2.4-0.1,10.2-10.9,10.2-10.9s-4.6,13.7-11.1,13.7
		C30.2,251.3,36.9,233.2,36.9,233.2z"/>
</g>
</svg>
