<?xml version="1.0" encoding="utf-8"?>
<!-- Generator: Adobe Illustrator 18.1.0, SVG Export Plug-In . SVG Version: 6.00 Build 0)  -->
<svg version="1.1" id="Layer_1" xmlns="http://www.w3.org/2000/svg" xmlns:xlink="http://www.w3.org/1999/xlink" x="0px" y="0px"
	 viewBox="0 0 160 240" enable-background="new 0 0 160 240" xml:space="preserve">
<g>
	<path fill="#FBD7C7" d="M86.3,93.3c0,0,1,9.1,1.3,12.3c0.3,3.2,1.3,5.5,2.1,7.3c0.8,1.8,4.5,6.2,5,5.9c0.5-0.3-0.3-2.1-0.3-2.5
		c0-0.4,0.4-1.7-0.2-2.5c-0.6-0.7-1.7-4-1.6-4.7s1.4-0.9,1.5-1.4c0.1-0.5,0.1-0.5,0.1-0.5s-3.6-6-3.6-8.6c0-2.7-0.1-6.1-0.1-6.1
		s-0.6-0.3-2,0C87.1,92.8,86.3,93.3,86.3,93.3z"/>
	<path opacity="0.3" fill="#262626" d="M101,205.2c0.6,1.8-6.7,11.8,7.1,13.5c20.6,2.7,21.6-13.7,29.3-18.2
		c13.9-8.1-3.1-14.1-22.5-14.1c-16.3,0.1-30.5,1.9-29.4,10.1C86.3,202.7,100.1,202.1,101,205.2z"/>
	<path fill="#262626" d="M106.9,188.6c0,0-1.6,1.2-5.5,1.1c-3.9-0.1-7.3-0.8-11.4,1.5c-4.8,2.7-1.2,7,0.1,7.4s18.1,0.9,21.2,0.7
		c3.1-0.3,2.1-8.2,2.1-8.2L106.9,188.6z"/>
	<path fill="#262626" d="M112.3,197.5c-1.5,0.1-9,0.6-13.5,0.5c-5-0.1-6.4-0.5-7.8-1c-1.7-0.6-3.2-1.4-3.3-3.1
		c-0.5,2.2,0.9,4.1,2.5,4.6c1.5,0.5,3.3,0.9,8.6,1.1c4.2,0.1,11.3-0.3,12.6-0.4c0.8-0.1,1.4-0.7,1.7-1.6
		C112.8,197.8,112.6,197.4,112.3,197.5z"/>
	<path fill="#262626" d="M112.6,199.3c0,0-3.9,4.4-6.6,7.6c-2.7,3.2-3.8,5.6-3.6,7.9s3.5,3.4,8,3.4c4.6,0,9.3-2.8,11.5-5.9
		c2.3-3.1,5.6-5.9,5.6-7.4s-0.1-6.2-0.1-6.2L112.6,199.3z"/>
	<path fill="#262626" d="M127.5,198.8l-0.5,0c0,1.5,0.1,3.3,0.1,4.1c0,1.5-3.4,4.3-5.6,7.4c-2.3,3.1-7,5.9-11.5,5.9
		c-3.5,0-6.3-0.6-7.4-2c0,0.2,0,0.4,0,0.6c0.1,2.3,3.5,3.4,8,3.4c4.6,0,9.3-2.8,11.5-5.9c2.3-3.1,5.6-5.9,5.6-7.4
		S127.5,198.8,127.5,198.8z"/>
	<path fill="#06547A" d="M92.7,102.6c0,0-0.5,13,1.6,23.9c2.1,10.9,9.5,26.4,9.5,31.1c0,4.7,2.3,19,2.1,22.8
		c-0.1,3.8-0.9,8.6-0.9,8.6s2.7,5,6.2,6.7c3.5,1.7,7.2-0.4,7.2-0.4l-6.4-90.5L92.7,102.6z"/>
	<path opacity="0.2" d="M92.7,102.6c0,0-0.5,13,1.6,23.9c2.1,10.9,9.5,26.4,9.5,31.1c0,4.7,2.3,19,2.1,22.8
		c-0.1,3.8-0.9,8.6-0.9,8.6s2.7,5,6.2,6.7c3.5,1.7,7.2-0.4,7.2-0.4l-6.4-90.5L92.7,102.6z"/>
	<path fill="#06547A" d="M104.1,107.7c0,0,0.3,14.3-0.3,25.6s2.3,21.7,3.4,25.3c1.1,3.6,1.5,9.7,1.5,15.2c0,5.5,0.2,26.2,1,27
		c0.8,0.8,5.2,3.6,10.9,4c4.3,0.3,9-2.4,9-3.1c0-0.7,1.5-16.4,0.3-29.1c-1.2-12.7-3.8-19.3-3.6-21.3c0.1-2,3.1-29.1,2.8-34.7
		s-2-18.4-2-18.4L104.1,107.7z"/>
	<path fill="#E5E5E5" d="M90.8,57.7c0,0-2.2,7.4-3.6,17.6c-1.5,10.7-0.7,25.3-0.7,25.3s2.1-1.6,6.2-1.6S90.8,57.7,90.8,57.7z"/>
	<path opacity="0.2" d="M90.8,57.7c0,0-2.2,7.4-3.6,17.6c-1.5,10.7-0.7,25.3-0.7,25.3s2.1-1.6,6.2-1.6S90.8,57.7,90.8,57.7z"/>
	<path fill="#FBD7C7" d="M124.4,115.4c0,0-0.4,2.9-2.3,5.1c-1.9,2.1-3.5,5.8-3.5,7.3c0,2.1,0,3.9,0.9,4c1.8,0.2,1.1-1.3,1.7-1.3
		s0.3,2.6,3,2.7c3.5,0.1,8.5-2.3,8.5-4.6c0-1.2-0.5-4.4-0.9-6.2c-0.5-1.9-0.5-4.5-0.5-4.5L124.4,115.4z"/>
	<path fill="#E5E5E5" d="M111.7,32.4c9.5,2.5,20.1,4.6,23.7,12.3c3.1,6.6,2.9,8.7,2.7,14.9c-0.3,6.2-0.8,18.5-0.5,22.5
		c0.3,4-1.1,20.8-2.3,26.4s-1.6,10.3-2.5,10.6c-0.9,0.3-10.2-0.9-9.5-2.3c0.9-2,1.2-7.6,1.2-7.6s-4.4,5.4-14.2,4
		c-9.8-1.3-18.2-6.1-19.1-8.6c-0.4-1.2-0.6-19.8,0.3-24.8s-2-15.7-2.1-20.4c-0.1-4.7,2.9-17.4,3.1-19.7
		C92.7,36.3,96.7,28.5,111.7,32.4z"/>
	<path opacity="0.2" d="M124.5,109.2c0,0,0.7-5.2,0.7-9.8c0-4.6,0.1-11.3-0.4-13.9c-0.5-2.7-2.2-12.2-2.5-14.7
		c-0.7-6.1-0.3-9.8,0.2-11.1c-2.4,4.1-1,19-0.3,25.2c0.9,8.7-0.3,25.8-0.6,26.6C121.2,112.3,124.5,109.2,124.5,109.2z"/>
	<path fill="#FBD7C7" d="M115.5,26.5c0,0,0,5.2,0.9,6.1s3,1.3,2.3,2.6c-0.7,1.3-8.1,9.7-13.5,9.2c-5.3-0.5-4-9.4-4-9.4L115.5,26.5z"
		/>
	<path fill="#FBD7C7" d="M95.7,14.8c-2.2,2.8-1.3,11-0.3,14.7c1.1,3.8,2.2,5.9,2.7,7.3c0.4,1.4,1.9,3.6,3.9,3.5s8.2-4.1,10.1-7.1
		s4.4-5.9,4.8-7.9s0.6-2.9-1.1-3.3c-1.7-0.4-5.3-7.8-9.9-8.1S97.1,13.2,95.7,14.8z"/>
	<path fill="#762C07" d="M94.4,16.8c-0.4,1.6,0.8,3.3,5.5,3.3s7.6-2.3,8.1-0.8c0.5,1.5,1.8,5.7,2.2,6.6c0.4,0.9,1,2,1.3,1.6
		c0.3-0.4,1.8-3.9,2.9-4.7c1.1-0.8,1.7-0.8,1.7-0.8s1.6-8.3-2-12.6C110.5,5,98,4,94.4,16.8z"/>
	<path fill="#762C07" d="M97.9,34.9c0,0,0.7-0.7,1.6-0.8c0.4,0,1.3,0.1,1.9,0.2c0.8,0.2,2.7,1.1,2.7,1.1s-2.8,0-3.7-0.1
		C99.3,35.3,97.9,34.9,97.9,34.9z"/>
	<path fill="#762C07" d="M99.7,37.3l1.2,0.1c0,0-0.2,0.6,0.6,1.3s2.9,0.8,2.9,0.8s-1.7,1.3-3.2,0.9C99.7,40,99,38.6,99,38.6
		s0.5-0.1,0.6-0.5C99.8,37.8,99.7,37.3,99.7,37.3z"/>
</g>
<g>
	<path fill="#FBD7C7" d="M35,64c0,0-3.7,14-3.7,16.8c0,2.8,2.2,10.2,4.8,14.4c2.6,4.1,5.4,10.5,5.4,10.5l2.1-4
		c0,0-2.2-10.5-3.5-14.1c-1.3-3.6-1.9-4.2-0.9-7.4c1.1-3.3,3-8.6,3-8.6L35,64z"/>
	<path opacity="0.2" d="M38.6,208.8c-9.3,5.7-10,12.5,2.1,18.9c13.2,7.1,20.9,5.5,31.1-0.4c9-5.2,6.9-12.2-8.2-18.3
		C51.4,204.2,45.1,204.7,38.6,208.8z"/>
	<g>
		<path fill="#FBD7C7" d="M40.3,97.7c-2.4,3.2-11.5,14.3-8.9,30s7.1,24.2,6.3,27.9c-0.8,3.7-3.7,10.8-3,18.7
			c0.8,9.7,3.7,19.7,3.8,23s1.3,6.3,0.4,8.8c-0.9,2.5-3.1,4.4-0.9,6.1c1.8,1.4,1-0.6,10.2,2.7c12.3,4.5,9.7-1.8,3.6-2.9
			c-2.2-0.4-4.1-4.8-4.8-7.7c-0.3-1.2-1.2-15.8-0.4-22.6c0.8-6.7,0.9-17.1,0.8-20.1s2.4-14.4,3.4-20c1.4-8.5,4-38.5,4-38.5
			L40.3,97.7z"/>
		<path fill="#262626" d="M38.5,207.1c0,0-2.3,2.6-2.2,4.9c0.1,2.3,1.9,5.7,1.9,7s0,3.2,0,3.2l1.7,1l1.6-0.8c0,0-0.7-5.3,0.5-6.1
			c1.2-0.8,4.8,1.9,7.2,2.5s8.3-0.1,10.4-1c2.2-0.9,0.4-3.6-1.5-4.7c-2.6-1.4-6.7-1.2-6.7-1.2s1.3,0.4,2.8,1.9
			c2.7,2.7-4.8,3.3-11.7-2.6C39.9,208.7,38.5,207.1,38.5,207.1z"/>
	</g>
	<g>
		<path fill="#FBD7C7" d="M48.8,102c0,0-5.4,12.9-5.4,19.1s4.1,8.5,4.9,10.5c0.8,2,1.1,8.5,3,16.2c1.9,7.7,4.2,12.5,2,18.1
			c-3.6,8.8-2.9,16.4-1.8,27.2c1.1,10.7,0.2,16.8-0.1,18.5c-0.4,2-3.5,3-1.9,5.4c2.2,3.2,8.4,3.6,11.1,4.9c3.2,1.5,7.2,2,8.2,0.4
			c1-1.5,0.2-3.9-3.4-3.8c-3.1,0.1-5.3-5-6.2-7.3c-0.9-2.2,1-9.6,2.6-21.2c1.5-11.6,2.2-24.2,2.9-29c0.8-4.8,3.2-9,3.8-30.5
			c0.7-21.6-1.6-27.6-1.6-27.6L48.8,102z"/>
		<path fill="#262626" d="M50.5,212.9c0,0-2.4,2-2.4,4.5c0,2.6,2.1,5.4,2.4,7.4s0.2,3.5,0.2,3.5l1.9,0.9l1.9-0.8
			c0,0-1.6-5.7,0.1-6.1c1.7-0.4,6.8,3.6,9.9,3.6s7.3-3.9,7.3-5.4c0-1.5-3.4-3.1-5.4-2.9c-2,0.1-2.9,0.6-2.9,0.6s3.1,1.3,3.5,2.4
			c0.4,1-0.6,1.7-1.9,2c-2.6,0.5-5.1-1.8-9.3-5.2C52.2,214.4,50.5,212.9,50.5,212.9z"/>
	</g>
	<path fill="#06547A" d="M67.4,104c0.2,5.9,6,36.3,8.1,46.6c0.4,2.2-3.6,4.2-11.9,6.5s-13.2,2.1-18.6-3.5s-13.7-3.7-16.4-5.2
		c-2.7-1.5,1.4-14.8,1.7-25.7c0.3-10.9,6.3-19.8,6.3-19.8L67.4,104z"/>
	<path fill="#FFCC00" d="M41.6,56.7c-2.5,1.1-7.9,5.6-6.9,9.3c1,3.7,4.7,16.1,5.5,19.7c0.8,3.5,1.2,8.7-0.2,10.6
		c-1.4,1.9-4.3,7.3-4.3,7.3s9.9,2.7,18.3,2.7s14.2-1.5,14.2-1.5S67,84.1,67.5,83s5-3,4.6-7.5c-0.3-2.9-1.9-4.3-3.7-6.1
		c-1.3-1.4-3-3.6-4.4-4.9c-1.7-1.6-6-3.6-10.1-6.3C49.7,55.5,41.6,56.7,41.6,56.7z"/>
	<path fill="#FBD7C7" d="M65.6,66.1c0,0,1.5,1.2,0.6,7.6c-1,6.4-1,19.7,0.9,26c1.8,6.3,5.3,20.2,6.3,22.8c1.1,2.6,2.3,3.2,3,4.2
		c0.5,0.7,1.4,4.8,0.9,6.3c-0.5,1.4-2.8,5.1-4.8,5.7c-2,0.6-4.3,0.6-4.6-0.3c-0.3-0.9,1.7-1.2,2-2.6s0.5-6.1,0.5-7.3
		c0-1.2-1.2-4.6-5-10.8c-3.8-6.2-7.1-11.4-8.2-18.3c-1.1-6.9-3.2-26.7-2.7-30.4C55.1,63.7,61.7,61,65.6,66.1z"/>
	<path fill="#FBD7C7" d="M55.6,26.9C59,28.1,60.2,31,60.8,37c0.6,6-0.2,9.8-0.6,10.9c-0.5,1.1-4.2,2.3-5.1,3.8
		c-0.9,1.5-1.6,4.7-1.1,5.4c1,1.3,1.7,1.2,1.7,1.2s-8.3,2-11.3,0.7c-3-1.3-2.9-3-2.3-3.7s1.7-3.5,1.1-5c-0.6-1.5-7.5-7.7-5.3-15
		C40.6,26.6,48.8,24.5,55.6,26.9z"/>
	<path fill="#762C07" d="M47.1,24.9c-8.2,1.6-11.5,8.5-10,16.1c1.2,6.1,1.3,7.6,0.3,10c-3.4,8-5.7,14.8-2.2,18.9
		c5.4,6.4,17.6,3.3,22.3-3.6c3.1-4.5,5.6-10.9,3.8-15.9c-2.7-7.5-0.6-9.5,0.1-14.8S55.4,23.2,47.1,24.9z"/>
</g>
</svg>
