<?xml version="1.0" encoding="utf-8"?>
<!-- Generator: Adobe Illustrator 18.1.0, SVG Export Plug-In . SVG Version: 6.00 Build 0)  -->
<svg version="1.1" id="Layer_1" xmlns="http://www.w3.org/2000/svg" xmlns:xlink="http://www.w3.org/1999/xlink" x="0px" y="0px"
	 viewBox="0 0 160 240" enable-background="new 0 0 160 240" xml:space="preserve">
<g>
	<path fill="#FBD7C7" d="M29.8,72.7c0,0-1.8,8.3-2.4,12.2c-0.6,3.8-2.2,7.5-1.8,10.4s2.9,8,5.2,12c2.4,4.3,4.8,5.9,4.9,11.6
		c0.1,2.1-1.3,4.8,0.6,5.6c1.9,0.8,4.5,0.6,5.9,0.1s1.6-7.9,1.6-8.9c0-1.1-2.8-1.2-3.4-3.4S35.7,98.6,36,96.5
		c0.3-2.2,3.8-12.9,3.8-12.9L29.8,72.7z"/>
	<path opacity="0.2" d="M88.6,230.4c20.1-7.7,8.6-18.7-10.6-22.1c-8.4-1.5-17.1-18.6-38.1-5.2c-16.9,10.8-1.6,17.2,7.1,21.2
		C58.9,229.8,69.9,237.6,88.6,230.4z"/>
	<path fill="#FBD7C7" d="M39.8,62.5c1.3,0.1,6.4-6.1,5.9-8.8c-0.5-2.8-10.6-20,7-23.6c5.8-1.2,13.3,3,14.1,10.2
		c0.7,6,0.4,14.9-1.9,16c-2.3,1.1-3.8,0.4-5.4,2.3c-1.6,1.9-1.7,4.4-0.7,7.1c1,2.7,3.7,3.4,3.7,3.4l-22.2,0L39.8,62.5z"/>
	<path fill="#825012" d="M52.6,29.5c-17.7,3-6.9,24.9-7,25.3c1.8,0.9,5.3,0.9,6.9-0.3c1.8-1.3,2.8-5.9,4.8-7.6
		c2-1.7,3.1-0.1,3.2,0.5s0.1,1.3,0.1,1.3l1.4-0.5c0,0,0.8-2.5,0.9-5.8c0.1-3.4-0.7-6.8-0.4-7.5c0.2-0.6,1.4-0.1,2.1-0.3
		C62,30.5,56.7,28.8,52.6,29.5z"/>
	<path fill="#262626" d="M38.3,214.3c-0.2,2.6,2.6,5.1,6,4.2c3.5-0.9,7-3.8,10.9-5.4c4.5-1.9,8.3-3.1,9.3-6c1-2.8-0.5-6.4-7.3-6.1
		c-6.8,0.3-11.5,5.7-11.5,5.7L38.3,214.3z"/>
	<path fill="#FFFFFF" d="M39.8,216.3c4.1-0.7,9.7-3.6,11.8-4.8c2.2-1.2,10.5-3.6,11.7-6.3c1.1-2.7-4.8-5.2-9.1-3.7s-8.6,2.7-8.6,2.7
		L39.8,216.3z"/>
	<path fill="#262626" d="M62.7,225.9c0.3,1.9-0.5,4.5,3.3,4.3c3.7-0.2,10.9-1.6,13.7-1.8c2.7-0.3,13.1-1.5,15.2-5.2
		c2-3.7,0.1-7.4-3-7.7c-3.1-0.3-7,2.2-10.4,1.4c-3.4-0.7-8.3-2.7-8.3-2.7L62.7,225.9z"/>
	<path fill="#FFFFFF" d="M65,226.2c2.6,0.3,8.1,0,12.8-0.7c4.8-0.7,14.3-1.8,16.3-5.6c1.5-2.9-0.6-5-4.6-4.5
		c-4.1,0.6-3.3,1.4-6.9,1.4c-3.6,0.1-8.6-1.7-8.6-1.7l-9.2,11L65,226.2z"/>
	<path fill="#28896D" d="M38.6,113.4c-2,3.1-6.6,9.7-3.6,24.1s5.8,25.2,3.9,30.4c-1.9,5.2-3.7,13-3.4,17.4c0.3,4.4,0,8.1-0.3,10.8
		c-0.3,2.7-1.4,14.6,0,17.8c1.4,3.1,3.8,4.7,7.8,3.7s9.1-4.8,9.7-6.9c1.5-4.8-1-14.7,0.3-19.9c1-3.8,2.1-8,2.3-11.5
		c0.2-3.5,1.6-12,3.8-22.4c2.3-10.4,6.8-22.3,6.1-30.2S38.6,113.4,38.6,113.4z"/>
	<path opacity="0.2" d="M38.6,113.4c-2,3.1-6.6,9.7-3.6,24.1s5.8,25.2,3.9,30.4c-1.9,5.2-3.7,13-3.4,17.4c0.3,4.4,0,8.1-0.3,10.8
		c-0.3,2.7-1.4,14.6,0,17.8c1.4,3.1,3.8,4.7,7.8,3.7s9.1-4.8,9.7-6.9c1.5-4.8-1-14.7,0.3-19.9c1-3.8,2.1-8,2.3-11.5
		c0.2-3.5,1.6-12,3.8-22.4c2.3-10.4,6.8-22.3,6.1-30.2S38.6,113.4,38.6,113.4z"/>
	<path fill="#28896D" d="M46.1,118.7c-2.2,5.7-3.4,14.6-0.7,19.1c2.7,4.5,7.2,10.3,8.5,14.3s5.9,12.4,5.8,15.7s-2.2,18.1-1.3,28.5
		c0.9,10.4,2.1,21.6,1.8,24.3c-0.3,2.7,0.7,9.4,4.3,9.5c3.6,0.1,13.1-3.6,15.8-8.1c2.1-3.4,1.1-4.9,0-5.7c-1.1-0.8-2.8-3.6-3.4-7.5
		c-0.6-3.8-0.1-23.6,1.2-29.1c1.3-5.5,2-7.9,1-13.1c-1-5.2-4.4-26.3-5.3-32.8s-1.6-12-1.6-12L46.1,118.7z"/>
	<path fill="#E5E5E5" d="M41,61.9c0,0-6.6-1.9-10.4,1.9c-3.8,3.8-2.4,7.9-0.8,13c1.6,5.1,9.9,25.1,9.4,29.5
		c-0.5,4.3-3.7,11.1-3.5,12.8c0.2,1.6,8,8.4,18.6,9.9c10.6,1.4,17.2-0.3,17.3-1.4c0.1-1.2,0.3-14.8-0.9-20.9
		c-1.2-6.2-1.4-11.9,0.4-17.2c1.8-5.2,3-10.7,1.7-13.9s-3.3-4.7-6.4-6.2s-6.7-2-6.7-2s-7.9,2.1-14.3,0C37.5,64.6,41,61.9,41,61.9z"
		/>
	<path fill="#FBD7C7" d="M57.9,85.3c0,0,5,1.3,8.6,0.7c3.6-0.6,5-1.4,5-1.4s-1.2,4-1.7,5.4c-0.9,3-1.8,8.5-1.9,10.9
		c-0.1,2.4-0.3,5.1-0.3,5.1s2.2,2.5,3.3,6.5s1.8,7.4,2.9,9.1s2.3,3.7,2.5,6.7c0.2,2.9,0.8,8.5-1.2,10s-5.9,3-7.5,2.3
		c-1.6-0.8-2.3-2.1-2-2.6c0.3-0.5,1.5,1.3,2.8-0.2c1.4-1.5,1.2-2.8,0.6-5.4c-0.6-2.6,0.7-4.5,0.3-5.4c-0.4-0.9-9.5-12.5-10.5-17.9
		S57.9,85.3,57.9,85.3z"/>
</g>
<g>
	<path opacity="0.2" d="M119.9,206.1c5.5-0.2,6.9-2.6,8.2-7.3c1.4-4.7-0.4-5.7,2.9-8.1c3.3-2.4,5.9-4.8,5-8.4
		c-1.7-6.9-9-15.1-15.9-15.1s-19.8,10.2-20.2,11.2s-3.4,2.3-0.4,6.4C104.3,191.3,107.9,206.5,119.9,206.1z"/>
	<path fill="#FFFFFF" d="M104.8,173.2c0,0-2.4,2.3-4.3,3.7c-1.8,1.4-2,4.1-1.9,5s2.1,3.3,5.5,2.7s6-4.3,8.3-6.4c2.3-2.2,2.3-2,4-2.3
		c1.7-0.3,0-4.2-2.3-4.3s-6.8-2.3-6.8-2.3S105.9,172,104.8,173.2z"/>
	<path fill="#FFFFFF" d="M104.8,173.2c0,0-2.4,2.3-4.3,3.7c-1.8,1.4-2,4.1-1.9,5s2.1,3.3,5.5,2.7s6-4.3,8.3-6.4c2.3-2.2,2.3-2,4-2.3
		c1.7-0.3,0-4.2-2.3-4.3s-6.8-2.3-6.8-2.3S105.9,172,104.8,173.2z"/>
	<path fill="#262626" d="M112.5,178.3c2.3-2.2,2.3-2,4-2.3c0.2,0,0.4-0.1,0.5-0.3l-6.6-1.3c0,0,0.3,2.6-1.8,4.9
		c-2,2.3-3.2,3.6-5.7,3.6c-1.8,0-3.1-0.4-4.1-1.6c0,0.3,0,0.5,0,0.7c0.1,1,2.1,3.3,5.5,2.7C107.6,184.1,110.2,180.4,112.5,178.3z"/>
	<path fill="#2D3134" d="M102.5,88.2c0,0-3.4,9.4-3.1,20.4c0.3,11.5,1.6,18.7,2.4,21.7c1.1,4.5,3.4,5.9,3.9,15.7s0.6,19.8-0.2,22.7
		c-0.8,2.9-2.7,4-2.4,4.7c0.3,0.7,3.8-0.4,5.5,1.2s4.5,2.7,5.9,2.7c1.4,0.1,2,0,2,0l-3.7-78.2L102.5,88.2z"/>
	<path opacity="0.2" d="M102.5,88.2c0,0-3.4,9.4-3.1,20.4c0.3,11.5,1.6,18.7,2.4,21.7c1.1,4.5,3.4,5.9,3.9,15.7s0.6,19.8-0.2,22.7
		c-0.8,2.9-2.7,4-2.4,4.7c0.3,0.7,3.8-0.4,5.5,1.2s4.5,2.7,5.9,2.7c1.4,0.1,2,0,2,0l-3.7-78.2L102.5,88.2z"/>
	<path fill="#FFFFFF" d="M118.8,194.2c0,0-1.7,4.5-1.7,5.4c0,0.9-0.2,3.9,0.4,4.6c0.5,0.6,3.2,1.5,5.3,1.2c2.2-0.3,4.3-2.4,4.5-3.2
		c0.2-0.9-0.1-6.3-0.2-7.1c-0.1-0.8-0.5-2.6-0.5-2.6L118.8,194.2z"/>
	<path fill="#262626" d="M126.7,192.5l-1.4,0.3c0.4,1.9,0.9,6.3,0.3,8.1c-0.8,2.1-3,2.7-4.9,2.7c-1.1,0-3-0.6-3.5-2
		c0,1.1,0.1,2.3,0.4,2.7c0.5,0.6,3.2,1.5,5.3,1.2c2.2-0.3,4.3-2.4,4.5-3.2c0.2-0.9-0.1-6.3-0.2-7.1
		C127.1,194.3,126.7,192.5,126.7,192.5z"/>
	<path fill="#2D3134" d="M110.9,100c0,0-3,7.1-3.5,17.3c-0.5,10.2,0.7,17,0.9,19.3c0.1,2.3,0.5,9.4,1.8,12.1
		c1.3,2.7,3.7,7.9,4.6,14.4c0.9,6.6,1.3,18.4,1.4,21.4c0.1,4-0.5,7.3,0.2,9.2c0.7,1.9,3-0.4,5.5,0.3s6.4,1.4,7.1,1
		c0.7-0.4-0.5-7.5-0.4-11.6c0.1-4.1-0.2-19.8-1.1-26.4c-0.8-6.6-5.6-12.8-4.8-19.5c0.8-6.7,5.4-20.8,6.5-25s1.4-10.2,0.8-15.7
		C129.4,91.2,110.9,100,110.9,100z"/>
	<path fill="#FBD7C7" d="M102.5,83.1c0,0-4.3,3.1-5.9,5.1s-2.4,2.9-2.4,4.7c0,1.8,0.8,2.9,1.6,2.7s0-2.7,0-2.7l0.8-1.6
		c0,0-0.8,1.4-0.4,2c0.4,0.5,2.2,2.4,2.7,2c0.6-0.4,0.4-1.2,0.4-1.2s-1.5-1-1.2-1.6c0.3-0.5,0.8-0.8,0.8-0.8s-0.3,1.8,0,2.4
		c0.3,0.5,1.6,0.4,1.6,0.4l2.4-5.5L102.5,83.1z"/>
	<path fill="#99CC33" d="M121.9,40c-4.6-0.9-13.3-1.6-16.5,2.4s-2.4,5.1-2.4,7.1s-1.5,5.3-2.4,7.5c-0.9,2.2-2.3,5.9-0.8,8.2
		c1.5,2.4,4.3,3.5,4.3,3.5s-0.8,9.3-1.7,12.9c-0.9,3.5-2,9.8-2.4,11.8c-0.4,2,1.6,7.9,5.5,9.4c3.9,1.6,12.8,2.3,18.1-1.6
		c5.3-3.8,6.3-6.3,6.3-6.3s-1.9-7.7-1.6-10.6c0.3-2.9,5.2-17.6,5.2-17.6l3.6-11.8l1.2-0.8c0,0,0.3-2.6-1.2-5.1s-4-5.2-7.5-6.3
		S125.9,40.8,121.9,40z"/>
	<path fill="#FBD7C7" d="M111.3,42c0,0-6.9,5.5-2.4,10.2c4.5,4.7,13.3-4.2,14.9-7.9C125.5,40.7,116.7,36.7,111.3,42z"/>
	<path opacity="0.2" fill="#262626" d="M99.4,61.6c0,0-0.1,4.3,11,6.5c16.5,3.3,19.8-2.9,19.8-2.9s-3.1,8.6-19.2,5.5
		C97,68.1,99.4,61.6,99.4,61.6z"/>
	<path fill="#825012" d="M120,13.8c-8.1-0.5-12,3-13.5,8.6c-1.5,5.4,4,15.3-1.8,17.9c0.1,2.2,5.1,4.5,7.3,2.1
		c2.2-2.3,2.9-2.4,2.9-2.4L120,13.8z"/>
	<path fill="#FBD7C7" d="M109.4,23.9c-1.5,3.1-1.9,15.6,0.6,17.6c2.5,2,7.6-1.3,12.5-3.5s5.5-19-1.9-19.2
		C113.2,18.6,111,20.6,109.4,23.9z"/>
	<path fill="#825012" d="M118.5,14c-3.3,0.8-7.1,5.2-6.4,10c1,6.2,13.2,18.3,4.6,22.2c1.4,4.6,9.5,4.3,14,2c4.3-2.3,4.7-4.5,4.6-5.3
		c-0.1-0.8-3.8-4.9-3.8-10.9S131,10.9,118.5,14z"/>
	<path fill="#FBD7C7" d="M127.7,57.2c0,0,2.8,0,4.8-0.3c2-0.3,4.7-2,4.7-2s0.2,4.6,0.8,7.3s1.6,10.4,2,11.5s1.9,2,0,5.9
		s-9.7,15.9-11.1,19.1c-1.4,3.2-1.3,6.2-2,7.1c-0.6,0.9-2.5,1.7-2.7,1.6c-0.3-0.1-0.7-0.1-0.7-0.1s-0.4,0.4-1.1,0.4
		c-0.7,0-0.9-0.4-0.9-0.4s-0.5,0.8-1.6,0.7c-1.1-0.1-1-0.8-1-0.8s-1.6,0.8-2.4,0.6c-0.8-0.2-1.2-1-0.7-1.3c0.5-0.3,1.6-0.2,2.4-0.9
		c0.8-0.7,2.1-2.8,2.1-2.8s-0.3-0.2-0.2-1.4s-0.1-3.1,1-3.7c1.2-0.6,2.6-0.6,3.4-1.6c2.5-3,3.2-8.2,5.4-12.7s3.6-6.2,3.6-6.6
		s-2.8-6.7-3.8-10.2C128.6,62.8,127.7,57.2,127.7,57.2z"/>
</g>
</svg>
