<?xml version="1.0" encoding="utf-8"?>
<!-- Generator: Adobe Illustrator 18.1.0, SVG Export Plug-In . SVG Version: 6.00 Build 0)  -->
<svg version="1.1" id="Layer_1" xmlns="http://www.w3.org/2000/svg" xmlns:xlink="http://www.w3.org/1999/xlink" x="0px" y="0px"
	 viewBox="0 0 160 240" enable-background="new 0 0 160 240" xml:space="preserve">
<g>
	<path opacity="0.2" d="M70.1,231.2c17.2-9.6,4.2-17-11.8-24.6c-17.8-8.5-24.9-11.7-40.5-1.6c-9.5,6.1-2.4,15.9,13.8,23.5
		C50,237.1,57.9,238.1,70.1,231.2z"/>
	<path fill="#262626" d="M18.1,214.5c0,2.1-0.1,5.9,3.8,5.9s5.9-2.9,6.2-3.8c0.3-1-0.1-3,1.3-3.8c1.3-0.8,6.3-2.5,6.6-7.1
		c0.4-4.9-1.8-5-3.5-5c-1.7,0-5.9,0.3-5.9,0.3L18.1,214.5z"/>
	<path opacity="0.5" d="M34.5,201c1.2,1.5,1,3.9,0.1,5.7c-1.9,3.6-6.4,3.1-6.8,5.2c-0.4,2.1-2.7,5.6-5.4,6c-2,0.3-3.2-0.3-4.2-1.2
		c0.2,1.8,1,3.6,3.8,3.6c4,0,5.9-2.9,6.2-3.8c0.3-1-0.1-3,1.3-3.8c1.3-0.8,6.3-2.5,6.6-7.1C36.3,202.7,35.5,201.5,34.5,201z"/>
	<path fill="#656565" d="M17.5,126.6c-0.3,6,1.4,21.3,1.2,32.8c-0.2,11.5-2.8,43.8-2.5,47.6c0.3,3.8-0.3,8.8,3.8,9.6
		c3.2,0.6,7.4-1.8,9-4.3c1.6-2.5,2.6-6.2,2.7-10.5c0.1-4.3,9.4-58.4,9.5-60.6c0.1-2.2-1-13.8-1-13.8L17.5,126.6z"/>
	<path opacity="0.3" d="M17.5,126.6c-0.3,6,1.4,21.3,1.2,32.8c-0.2,11.5-2.8,43.8-2.5,47.6c0.3,3.8-0.3,8.8,3.8,9.6
		c3.2,0.6,7.4-1.8,9-4.3c1.6-2.5,2.6-6.2,2.7-10.5c0.1-4.3,9.4-58.4,9.5-60.6c0.1-2.2-1-13.8-1-13.8L17.5,126.6z"/>
	<path fill="#FBD7C7" d="M46.4,28.7c2.5,1,4.3,3.8,4.7,10.3c0.4,6.5,0,11.6-1.5,12.3c-1.5,0.7-2.5,0.4-2.5,0.4l1.1,7.1L31.4,54
		c0,0,0.3-3.9-0.6-6.4c-0.9-2.4-3.5-11.2-0.8-15.2S38.3,25.6,46.4,28.7z"/>
	<path fill="#FBD7C7" d="M6.7,114.9c0,0-0.8,7-0.5,8.7c0.3,1.7,3.5,9.6,5.3,10c1.8,0.4,3.6-1,3.4-2.3c-0.2-1.2-2-3.3-2.1-5.4
		c-0.2-2.1-0.1-5.3,0.8-5.7c0.9-0.5,2.9,2,3.8,3.1c0.9,1.1,2.5,0.7,2.5-0.2c0-0.8-1.9-2.6-2.3-4.1c-0.4-1.5-1.2-2.7-2.3-4
		c-1.1-1.4-1.5-2.3-1.5-2.3L6.7,114.9z"/>
	<path fill="#FFFFFF" d="M5.4,112.8c0,0-0.6,3.1,0.5,3.8c0.9,0.5,4.5,1.2,6.8,0.3c2-0.8,3.1-1.5,3.2-2.2c0.1-0.7-0.8-2-0.8-2
		L5.4,112.8z"/>
	<path fill="#262626" d="M45.2,225.2c0,2,0,3.3,0,4.1c0,0.8,0.1,2.9,4.3,2.6s6.4-1.2,6.6-1.5s0.7-1.1,0.7-1.1s7.2,0.6,12.4-1.6
		c5.4-2.3,8.6-7.3,4-9.4c-2.8-1.3-4.4,0.3-8.6-0.2c-4.5-0.5-7.1-2.7-7.1-2.7L45.2,225.2z"/>
	<path opacity="0.5" d="M69.2,227.6c5.4-2.3,8.6-7.3,4-9.4c4.8,4.5-4.5,8.7-8.6,9c-2.7,0.2-8.6,0.5-12.4,1.3
		c-3.1,0.6-6.2,0.4-7.1-0.8c0,0.7,0,1.3,0,1.7c0,0.8,0.1,2.9,4.3,2.6c4.3-0.3,6.4-1.2,6.6-1.5c0.2-0.3,0.7-1.1,0.7-1.1
		S64,229.8,69.2,227.6z"/>
	<path fill="#656565" d="M34.5,129.6c-0.4,6.2,2.3,19.4,3.4,26.8s2.9,38.7,3.7,46.5c0.6,6.3,2.7,23.4,3.9,24.3
		c1.2,0.9,9.6-0.3,13.1-2.6c2.3-1.6,4.9-4.7,4.5-6.8c-0.4-2.1-3.1-4.1-3.5-14.9c-0.3-10.8,0.9-30.2,0.6-44.9
		c-0.3-14.8-1-31.5-1-31.5L34.5,129.6z"/>
	<path opacity="0.15" d="M34.5,129.6c-0.4,6.2,2.3,19.4,3.4,26.8s2.9,38.7,3.7,46.5c0.6,6.3,2.7,23.4,3.9,24.3
		c1.2,0.9,9.6-0.3,13.1-2.6c2.3-1.6,4.9-4.7,4.5-6.8c-0.4-2.1-3.1-4.1-3.5-14.9c-0.3-10.8,0.9-30.2,0.6-44.9
		c-0.3-14.8-1-31.5-1-31.5L34.5,129.6z"/>
	<path fill="#656565" d="M13.8,57.2c-1.2,1.4-2,5.5-2.3,7.6c-0.3,2.1-5.7,19.3-6.6,22.7C4,90.8,4,96.6,4.3,101.9
		c0.2,5.3,0.2,11.7,0.3,12.6c0.1,1,4,2,6.9,1.6c2.9-0.4,4.6-1.2,4.9-3.6s1.8-13.9,3.8-18.1c2-4.2,4.9-11.7,4.9-11.7L13.8,57.2z"/>
	<path opacity="0.15" d="M13.8,57.2c-1.2,1.4-2,5.5-2.3,7.6c-0.3,2.1-5.7,19.3-6.6,22.7C4,90.8,4,96.6,4.3,101.9
		c0.2,5.3,0.2,11.7,0.3,12.6c0.1,1,4,2,6.9,1.6c2.9-0.4,4.6-1.2,4.9-3.6s1.8-13.9,3.8-18.1c2-4.2,4.9-11.7,4.9-11.7L13.8,57.2z"/>
	<path fill="#FBD7C7" d="M66.9,104.5l0.1,8.8c0,0,4.1,1.1,7.1-0.5c3-1.6,5.2-4.7,5.2-5.8c0-1.1-0.3-2.4-1.3-2.4
		c-1.1,0-2,1.6-3.2,0.3s-0.4-2.2,0.6-2.9c0.9-0.7,1.3-2.5-0.8-2.3c-1,0.1-1.9,0.8-2.5,1.3c-0.9,0.8-1.8,1.8-3,2.8
		C67.8,104.9,66.9,104.5,66.9,104.5z"/>
	<path fill="#656565" d="M31.4,50.5l-3.6,0.8l0.1,0.9c0,0-5.5-0.7-9.4,1.4c-4,2.1-6.1,4-5.6,7.3c0.6,3.4,3.9,15.1,6.1,21.1
		c2.2,6,3.5,9.3,2.9,14.2s-7.1,27.7-6.7,31.2s5.8,6.1,12.5,7.9c6.9,1.8,31.9,3.2,32.4-1.9c0.5-5,0.5-18.9,0.5-18.9s7.1,1.3,8.4-0.4
		c1.3-1.7,2.8-4.5,1.2-7.9c-1.5-3.4-2.1-3.5-3.1-3.8s-5.5-1-6.8-2.7c-1.3-1.6-0.3-7.8-0.3-15.7s0.3-13.6-3.2-17.3
		c-3.5-3.7-7.5-8.9-10.8-10.1C41.6,55.2,30.7,55.5,31.4,50.5z"/>
	<path opacity="0.2" d="M28.7,51.2c0,0,0.1,5.2,7.4,6.1c6.9,0.9,19,8.5,19,8.5s-13-7.3-18.9-7.8c-8.8-0.7-8.4-6.8-8.4-6.8L28.7,51.2
		z"/>
	<path fill="#762C07" d="M44.9,44c0.1,0.8,1-1.3,1.7-3.1c0.7-1.9,2-4.3,2.7-7c0.7-2.7,1.3-1.7,1.4-2.9c0.1-1.2-5.7-8.9-16.3-5.2
		s-8,16-7.1,19.4c1,3.4,4.1,7.3,7.1,7.3c3-0.1,6.5-2.4,6.8-6.8C41.6,41.4,44.8,42.2,44.9,44z"/>
</g>
<g>
	<path fill="#FBD7C7" d="M98.1,68.9c0,0-3.2,10.8-5.9,19.1c-2.7,8.3-4.4,13.8-5.3,15.9c-0.9,2.1-1.3,5.7-0.8,7.3
		c0.5,1.6,2.3,5,3,5.7c1.7,1.6,4.4,1.2,4.8,0.8s0.4-2.2-0.3-2.9c-0.7-0.7-2.6-3-1.4-6c1.2-2.9,1-4.2,1-6c0-1.5-0.5-1.7,0.7-4.1
		s6.9-14.5,7.5-16.2C101.9,80.8,98.1,68.9,98.1,68.9z"/>
	<path fill="#06547A" d="M96.3,78.1c-1.5-8.3-1-3.9-2.1-7.8c0-0.1-0.8-0.3-0.7,0c0.6,3.4,0.3,8-1.5,12.7c-2.1,5.7-6,16-5.5,16.4
		c1.4,1.6,8.4,2,8.4,2l0.8-2.5l1.4-8.4C97.1,90.3,97.8,86.4,96.3,78.1z"/>
	<path opacity="0.15" d="M96.3,78.1c-1.5-8.3-1-3.9-2.1-7.8c0-0.1-0.8-0.3-0.7,0c0.6,3.4,0.3,8-1.5,12.7c-2.1,5.7-6,16-5.5,16.4
		c1.4,1.6,8.4,2,8.4,2l0.8-2.5l1.4-8.4C97.1,90.3,97.8,86.4,96.3,78.1z"/>
	<path opacity="0.2" d="M94,192.9c-11.8,7.6-12.4,14.4,0,21c13.5,7.2,22.4,3.3,32.9-2.7s11.8-13.4-3.6-19.6
		C110.8,186.6,102.9,187.2,94,192.9z"/>
	<path fill="#FBD7C7" d="M112,41.3c0,0-9.1-4-12.3,0.3s-1.7,11-1.7,11s-5.4,6.1-5.4,9.4s5.1,6.5,5.1,6.5s-0.1,17.5-1,24
		s-3,21.6-2.4,32.2c0.7,10.6,1.6,25,1.9,29.2c0.3,4.1,2.2,10,3,14.8c0.9,4.8,4.1,13.2,0.9,19.6c-3.2,6.5-6.1,9.3-7.4,10.5
		s0.2,5.2,3,4.5c2.8-0.7,7.2-7.1,9.9-8.1c2.7-1.1,7.2-4,6-7.7s-1.7-2.2-2-5.3c-0.3-3.1,2.2-16.7,1.3-22.8c-0.9-6.1-3.2-7.8-3.6-8.8
		c-0.4-1.1,5.7-29.5,5.7-29.5s1.2,27.3,1.1,30.2s2.1,17.7,2.7,24.6s1,18.8-2,22.9c-2.9,4.1-8,10.3-6,11.7s8.3,2.7,9.8-0.9
		s5.3-11.1,6.7-13.1s1.9-3.1,1-5c-0.9-1.9-1.5-5-0.5-10.3c1-5.3,4.1-14.7,3.3-19.7c-0.8-5-3.2-8.1-2.9-11.7
		c0.3-3.5,8.1-24.8,6.6-39.7s-9-17.5-10.3-23.5c-1.3-6,3-13.9,5.2-18.2c2.2-4.2,5.3-11.6,2.6-14.2c-2.7-2.7-5.9-4.4-7.1-6.4
		s-2.5-8.2-2.5-8.2L112,41.3z"/>
	<path fill="#06547A" d="M94.7,197c0,0-4.9,1.7-5.9,3.9c-0.8,1.8-0.5,3.9,1.2,5c1.8,1,5.2,1.3,8.2-0.4c2.9-1.7,6.8-8.4,7.5-8.7
		c0.7-0.3,0.2,3.7,0.2,3.7l2.1,1.1l2.3-0.9c0,0-0.2-4.5,0.7-6c0.9-1.6,2.6-3.9,2-6.9c-0.7-3-2.6-3.3-2.6-3.3s0,3.5-4,7.3
		c-3.8,3.6-5.9,9.6-9.2,9.3C92.6,200.4,94.7,197,94.7,197z"/>
	<path fill="#06547A" d="M111.5,203.8c0,0-4.6,3.5-4.9,5.7c-0.3,2.2-0.2,3.7,2.9,4.7c3.1,1,7.1-0.2,9-1.8c1.8-1.6,4.4-5.8,4.4-5.8
		l2,1.1l2.3-1.1c0,0-0.3-2.7,0.4-5.1c0.7-2.4,1.4-4.4,1.4-7.4c0-3-2.8-3.3-2.8-3.3s1.7,1.6-0.8,5.1s-4.4,11.3-8.1,11.5
		C110.3,207.8,111.5,203.8,111.5,203.8z"/>
	<path fill="#262626" d="M95.6,96.6c0,0-2.4,13.8-2.4,23.7s1.9,34.9,1.9,34.9s13.3,3.6,21.5,2.8c9.8-0.9,13.2-2.2,13.2-2.2
		s4.3-23.1,4.7-32.3c0.6-13.3-2.9-26.8-5.7-30.3C126,89.6,95.6,96.6,95.6,96.6z"/>
	<path fill="#FBD7C7" d="M118.5,63.2c0,0,7,8.7,10.5,13.2c3.5,4.5,7.1,9.3,7.1,9.3s-5.9,3.2-9.7,7.4c-3.8,4.2-6.7,7.6-7.7,7.8
		c-1,0.2-5.3-0.1-8.8,1.8c-3,1.6-4.1,2.9-4.4,5s0.4,3.8,1.7,4.8c1.3,1,3.1,0.6,3.7,0.3c1.5-0.8,1.8-2.5,3.2-3.3
		c1.8-1,4.5-1.1,6.3-2.3c1.7-1.3,20.7-13.4,23-16s3.4-5.6,0.7-9.4c-2.7-3.9-11.1-17.6-13.3-22c-2.2-4.3-4.9-8.8-9.5-8.8
		C116.8,50.8,113.4,57.9,118.5,63.2z"/>
	<path fill="#06547A" d="M146.3,85.5c-1.5-3.6-8.4-18.7-10-22.1s-3.4-8.4-6.3-11.2c-2.8-2.7-6.5-5.4-7.8-6.5
		c-1.3-1.1-13.4-5.3-13.4-5.3c-3.9-1-8.6-2-11,2.5s-1,8.3-1,8.3s-5.4,5.9-5.5,9.9c-0.1,3.7,2.5,7.9,3.9,18.2
		c1.2,8.3,0.2,18.1,0.2,18.1l0.1,0c0.5,0.1,6.7,1.9,12.2,1.8c7.2-0.2,10.1-2.3,10.1-2.3s-1.4,3.8,0.9,7.7c2.3,3.8,5.2,3.8,6,3.3
		s14.5-10.2,17.7-13C145.7,92.2,147.8,89.1,146.3,85.5z M130.1,88.3c-2.6,1.6-4.9,3-4.9,3s-1.6-5.5-1.8-9.4
		c-0.2-3.9,2.6-8.9,2.6-8.9s3,3.8,4.1,5.4c1.7,2.4,4.3,7.3,4.3,7.3S132.1,87.1,130.1,88.3z"/>
	<path fill="#FBD7C7" d="M107.2,40.5c0,0-7.1,11.2-2.1,13.7c5,2.6,15.6-5.9,15.6-5.9l-7.8-8.7L107.2,40.5z"/>
	<path fill="#FFFFFF" d="M104.4,45c0,0-1,6.5,2.1,7.9c3,1.4,9.2-0.4,9.2-0.4L96.3,65.7c0,0,0.1-9.1,1.9-12.3
		C99.9,50.3,104.4,45,104.4,45z"/>
	<path fill="#262626" d="M109.6,40.3c0,0-8.2,8.6-10.1,13.7s-2,10.8-1,21.1c0.9,8.6,1,23.3,1,23.3l-1.4-0.2c0,0,0.4-20.3-3-33.6
		c-1.5-6.1-0.7-12.7-0.7-12.7l4.3-4.2l4.2-8.4L109.6,40.3z"/>
	<path fill="#FBD7C7" d="M109.5,41.6c0,0-4.3,0.7-4.9-0.9c-0.7-1.7-4.4-15.5,2.4-24.1c6.8-8.5,20.5-3.1,20.5,6
		c0,8.1-3.2,10.5-4.7,14.5c-0.9,2.5-1.6,5.8-0.1,8.4c1.5,2.7,2.7,4,2.7,4s-7.6,4.6-13.3,3.2c-5.7-1.4-0.2-4.2-1-6.6
		C110.4,44,109.5,41.6,109.5,41.6z"/>
	<path fill="#825012" d="M104.7,22.9c0,0-0.6,6.7,3.7,10.7c0.2-3.2,0.9-4.6,0.9-4.6s1.7,5.8,4.2,5.8c-1-2.9-0.7-4.7-0.7-4.7
		s1,1.7,2.1,1.5c-0.2-1.8,0.5-2.8,0.5-2.8s1,4.8,1,10.9c4.8-2.2,6.9-9.4,6.9-9.4s0.1,5.5-1.8,10.5c2.7,0.3,11-6.8,10.4-17.9
		c-0.5-8.6-9-11.7-9-11.7l2.3-0.3c0,0-7.6-4-15.4-0.1c-8.9,4.5-8,17-7.5,17.2C103.3,23.6,104.7,22.9,104.7,22.9z"/>
	<path fill="#262626" d="M123.3,46.5c0,0-10.3,6.3-14.8,9.4c-4.5,3.1-12.5,10-12.5,10l18.8-7.9l2.9-5l4-0.6l6.1-3.1L123.3,46.5z"/>
	<path fill="none" d="M126,72.9c0,0-2.7,5-2.6,8.9c0.2,3.9,1.8,9.4,1.8,9.4s2.3-1.3,4.9-3c2-1.3,4.3-2.7,4.3-2.7s-2.6-4.9-4.3-7.3
		C129,76.7,126,72.9,126,72.9z"/>
</g>
</svg>
