<?xml version="1.0" encoding="utf-8"?>
<!-- Generator: Adobe Illustrator 18.1.0, SVG Export Plug-In . SVG Version: 6.00 Build 0)  -->
<svg version="1.1" id="Layer_1" xmlns="http://www.w3.org/2000/svg" xmlns:xlink="http://www.w3.org/1999/xlink" x="0px" y="0px"
	 viewBox="0 0 80 240" enable-background="new 0 0 80 240" xml:space="preserve">
<path opacity="0.2" d="M66,232c26.9-13.2,1-17.9-14.1-26.3c-20.8-11.6-27.5-15.7-43-6.1C-8.2,210.2,9.1,217.6,25,225
	C43,233.4,50,239.9,66,232z"/>
<path fill="#3399CC" d="M15.9,212.6"/>
<path fill="#262626" d="M8.8,211c-0.3,1.9-0.7,3.5,2,4.2c2.6,0.7,5.4,0.3,7.9-1.7s3.7-3.1,7.1-4.1s5-4,5-6.5c0-2.6-2.1-4.7-6.5-3.3
	s-6.8,3.3-6.8,3.3L8.8,211z"/>
<path opacity="0.5" d="M30.8,202.8c0-0.8-0.2-1.5-0.6-2.2c0.5,2.2,0.3,6.4-7.5,8c-2.4,0.5-5.8,3.7-8.3,4.5c-1.9,0.6-4.3,0-5.7-1.1
	c-0.2,1.4,0,2.6,2.1,3.2c2.6,0.7,5.4,0.3,7.9-1.7s3.7-3.1,7.1-4.1C29.3,208.4,30.8,205.3,30.8,202.8z"/>
<path fill="#262626" d="M48.3,227.7c0,2.6-1.1,5,2.2,5.6c3.3,0.6,10.3-3.8,13-4.5c2.9-0.8,9.9-3.6,9.9-6.1s-2.9-5.2-6.1-5
	c-3.1,0.3-9.1,0.7-9.1,0.7L48.3,227.7z"/>
<path opacity="0.5" d="M73.3,222.8c0-1.4-0.9-2.8-2.2-3.8c3.9,4.7-2.5,6.3-6.2,7.3c-4.5,1.2-9.5,4.2-12.2,5
	c-1.9,0.5-3.5-0.1-4.6-0.7c0,1.4,0.3,2.5,2.3,2.9c3.3,0.6,10.3-3.8,13-4.5C66.3,228.1,73.3,225.2,73.3,222.8z"/>
<path fill="#06547A" d="M27.9,100.1c-2.6,4.5-6.9,10.8-8.6,19.8c-1.7,9-1.9,28.3-4.6,40.1s-4.6,18.2-6.5,31.2
	c-1.9,13-2.7,19,0.6,20.4c3.1,1.4,7.9,0.8,11.1-1.7c4.2-3.2,3.9-6.9,3.8-9.4s2.3-10.3,3.7-16.8c1.4-6.5,7.5-27.7,10.3-36.5
	s8.5-38.7,8.5-38.7L27.9,100.1z"/>
<path opacity="0.2" d="M27.9,100.1c-2.6,4.5-6.9,10.8-8.6,19.8c-1.7,9-1.9,28.3-4.6,40.1s-4.6,18.2-6.5,31.2
	c-1.9,13-2.7,19,0.6,20.4c3.1,1.4,7.9,0.8,11.1-1.7c4.2-3.2,3.9-6.9,3.8-9.4s2.3-10.3,3.7-16.8c1.4-6.5,7.5-27.7,10.3-36.5
	s8.5-38.7,8.5-38.7L27.9,100.1z"/>
<path fill="#06547A" d="M36.1,107c-1.7,3.6-7,18.6-4.6,23.9C34.7,137.7,44,168,45.2,179c0.6,5.1,1.2,42,1.4,45.6s0.6,5.8,4.8,6
	s10.4-2.9,11.1-7.8c0.7-4.9,1.2-27.4,1-35.4c-0.2-8,0.5-46.9-1.2-57.8c-1.6-10.9-4.5-21.5-4.5-21.5L36.1,107z"/>
<path fill="#FBD7C7" d="M4.1,73.2c-2.9,2.7-4.8,5.2-3.8,8.4s5.2,7.9,11.1,10.9s8.5,2.4,11.1,5.2s3.7,3.5,5.2,3.4
	c1.4-0.1,6.7-1,6.9-3.8c0.2-2.7-5.7-4.1-8.4-5.2c-2.7-1-12.3-9.9-13.1-11.2C12.4,79.6,4.1,73.2,4.1,73.2z"/>
<path fill="#262626" d="M26.7,99.6l-0.2,3.3c0,0,1.6,4,9.3,6.1c7.8,2.2,18.1,2.3,20.3,2c2.2-0.3,3.3-1.1,3.3-1.1l-0.8-3.7
	c0,0-11.1,2.7-20.3,0.2C29.2,103.9,26.7,99.6,26.7,99.6z"/>
<path fill="#3399CC" d="M35.6,50.8c0,0-2.9-1.5-4.3-0.3c-1.3,1.2-0.4,2.8-0.4,2.8s-7.5-1.3-10.2,0c-2.7,1.3-6.6,3.9-8.3,6.6
	s-4.5,6.7-6.3,7.4s-3.2,3.1-3.6,4.4s0,1.7,0,1.7l-1.3,2c0,0,0.9,2.6,3.5,4.5c3.3,2.4,9.2,1.8,9.2,1.8s0.6-1.6,2.1-1.9
	s4.5-4.4,4.5-4.4s2.5,13,3.3,17c0.9,4,1.5,5.9,2.5,6.9s1.4,3.1,3.5,4.3c5.9,3.4,14.4,4.8,20,4.9c5.6,0,10.2-1.3,10.2-1.3
	s0.1-8.8,0.6-13.2c0.5-4,3.8-10.7,1.5-18.4c-2.3-7.7-8.6-13.5-8.6-13.5s-0.2-3.8-2.1-4.9c-1.9-1.1-8.1,0.4-12.7-1.1
	c-4.6-1.5-5.1-2.9-5.1-2.9L35.6,50.8z"/>
<path fill="#FBD7C7" d="M33,54.2c0,0,3.4-3.2,3.4-6.8c0-3.6-4.3-11.8,0-18.1s15.7-7.7,20.2,0.6c4.7,8.6,0,20.2-1.5,21
	c-1.5,0.8-3.9,0.1-4.5,0.6s-0.6,4.1-0.5,5.6s-7.4,2.8-11.5,2.2S33,54.2,33,54.2z"/>
<path fill="#825012" d="M36.2,45.9c0.4,1.2,2.7,3.3,6.1,3.1c3.4-0.3,6.9-3.2,7.5-5.5c0.7-2.3,1.2-4.4,2.7-4.1
	c1.4,0.3,0.3,1.8,0.9,1.8s4.8-7.9,4.3-9.8c-0.3-1.2-1.4-4.6-5.7-7c-4.5-2.4-15.1-2.3-17.4,7.4C33.1,38.2,36.2,45.9,36.2,45.9z"/>
<path fill="#06547A" d="M56.4,33.6c0,0,4.7-1,4.8-3.1c0.1-2.1-4.2-2.3-4.2-2.3s2.5-11.6-5.7-12.2c-8.2-0.6-12.1,6.2-16.1,9.6
	S27,35.9,29.5,38.1s4.1,1.4,4.6,2.6c0.6,1.2,7.1,1.8,10,0.6C46.9,40.2,56.4,33.6,56.4,33.6z"/>
<path fill="#262626" d="M34.8,42.1c0,0,10.7,2.4,17.2-3.3s5.4-10.5,5.4-10.5L57,27.8c0,0-1.1,7.1-8,10.5s-15,2.4-15,2.4L34.8,42.1z"
	/>
<path fill="#06547A" d="M54.4,73.2c0,0,1-0.5,2.7-0.8c0.9-0.1,1.9,0.1,1.9,0.1s-0.6-2.6-2-4.8c-1.3-2.1-4.5-5.6-7-4
	c-2.6,1.6,1.3,2.2,3,5.3C54.3,71.4,54.4,73.2,54.4,73.2z"/>
<path fill="#06547A" d="M49.4,82.1l2.1-1.5l1.7,0.7l1.3-0.6l0.8,1.2l1.7-0.1l1.5,2.6c0,0-1.1,0.7-1.1,1.4c0,0.6,1.1,2.3,0.2,3.6
	c-0.9,1.3-5.2,2.1-5.2,2.1s-3.6-2.7-3.7-4.3c-0.1-1.6,1.3-2.6,1.3-3.4C50,82.8,49.4,82.1,49.4,82.1z"/>
<polygon fill="#E5E5E5" points="51.8,85.2 50.1,85.6 51.4,86.7 50.8,87.9 52.3,87.8 52.9,89.4 53.9,88.4 55.4,89 55.2,87.7 
	56.7,87.3 55.3,86.3 56,84.9 54.5,85.1 53.9,83.6 52.9,84.5 51.3,83.6 "/>
<polygon fill="#262626" points="26.8,103.3 33,107.2 30.9,112.2 25.1,113.7 24.2,108.3 "/>
<polygon fill="#262626" points="54.3,114.2 55,123.4 61.5,123.2 60.3,115.5 63,109.6 62.3,103 59.4,103.1 59.4,107.5 "/>
<path fill="#FBD7C7" d="M46.7,100.5c0,0,4.9,0.2,7.2,0.3c2.5,0,3.8,0.2,3.8,0.2l0.5,3.2c0,0,0.7,1.1,2.1,2c1.4,0.9,1.7,2,1.7,2
	s2.6-0.3,3.1,3.6s-0.1,5.6-1,6.5s-2.7,2.7-3.3,2.5s-0.1-1.9-0.7-2.4s-0.3-1.4-0.7-1.5s-6.8-2.4-9.1-5.7
	C47.5,107.2,46.7,100.5,46.7,100.5z"/>
<polygon fill="#E5E5E5" points="54.5,70.1 56.5,71.6 57.3,69.5 56.6,69.5 56.2,70.7 55.2,69.9 "/>
</svg>
