<?xml version="1.0" encoding="utf-8"?>
<!-- Generator: Adobe Illustrator 18.1.0, SVG Export Plug-In . SVG Version: 6.00 Build 0)  -->
<svg version="1.1" id="Layer_1" xmlns="http://www.w3.org/2000/svg" xmlns:xlink="http://www.w3.org/1999/xlink" x="0px" y="0px"
	 viewBox="0 0 64 40" enable-background="new 0 0 64 40" xml:space="preserve">
<g>
	<g>
		<polygon fill="#E5E5E5" points="32,4 0,20 0,24 32,40 64,24 64,20 		"/>
		<polygon opacity="0.11" points="0,20 32,36 32,40 0,24 		"/>
		<polygon opacity="0.29" points="64,20 64,24 32,40 32,36 		"/>
	</g>
	<polygon fill="#3399CC" points="5,20.5 32,34 59,20.5 32,7 	"/>
	<polygon opacity="0.2" fill="#999999" points="8,22 32,34 56,22 32,10 	"/>
	<polygon opacity="0.29" points="32,10 32,6 4,20 8,22 	"/>
	<polygon opacity="0.11" points="32,10 56,22 60,20 32,6 	"/>
	<g>
		<polygon fill="#3399CC" points="32,17 28,19 28,23 32,25 36,23 36,19 		"/>
		<polygon fill="#656565" points="32,17 28,19 28,23 32,25 36,23 36,19 		"/>
		<polygon opacity="0.11" points="28,19 32,21 32,25 28,23 		"/>
		<polygon opacity="0.29" points="36,19 36,23 32,25 32,21 		"/>
		<polygon opacity="0.4" fill="#3399CC" points="28,21 32,23 32,27 28,25 		"/>
		<polygon opacity="0.4" fill="#3399CC" points="36,21 36,25 32,27 32,23 		"/>
	</g>
	<path fill="#539B00" d="M29.5,15.6c0,0.7-1.2,1.3-2.6,1.3s-2.6-0.6-2.6-1.3s1.2-1.3,2.6-1.3c0.6,0,0.9,0.5,0.8,1
		C28.4,14.5,29.5,15.2,29.5,15.6z"/>
	<path fill="#539B00" d="M28.8,18.3c0,0.4-1.3,1-1.9,0.2c0,0.8-0.7,1-1.3,1c-1.5,0-2.1-0.5-2.1-1.2c0-0.7,1.2-1.3,2.6-1.3
		S28.8,17.6,28.8,18.3z"/>
	<ellipse fill="#539B00" cx="22.7" cy="20.9" rx="2.5" ry="1.4"/>
	<ellipse fill="#539B00" cx="22.9" cy="25.3" rx="1.5" ry="0.8"/>
	<ellipse fill="#539B00" cx="22.5" cy="16.5" rx="1.5" ry="0.8"/>
	<ellipse fill="#539B00" cx="29.9" cy="13.2" rx="1.5" ry="0.8"/>
	<ellipse fill="#539B00" cx="15.9" cy="23.9" rx="1.5" ry="0.8"/>
	<ellipse fill="#539B00" cx="21" cy="23.4" rx="2.1" ry="1"/>
	<ellipse fill="#539B00" cx="23.4" cy="27.2" rx="0.8" ry="0.4"/>
	<ellipse fill="#539B00" cx="19.2" cy="25.4" rx="0.8" ry="0.4"/>
	<ellipse fill="#539B00" cx="31.6" cy="15.3" rx="0.8" ry="0.4"/>
	<ellipse fill="#539B00" cx="25.7" cy="28.7" rx="0.6" ry="0.2"/>
	<ellipse fill="#539B00" cx="32.7" cy="13.3" rx="0.6" ry="0.2"/>
	<ellipse fill="#539B00" cx="26.4" cy="26.8" rx="0.8" ry="0.3"/>
	<g>
		<path fill="#539B00" d="M24.6,17.7c-0.1-0.1-1.4-0.4-1.7-0.3c-0.3,0.1-2.2,0.2-2.7,0.2c-0.5,0-1.2,0.3-1.4,0.8
			c-0.2,0.4-0.1,0.8,0.6,1.4c0.7,0.5,1.3,0.3,1.7,0.5c0.4,0.2,0.7,0.6,1.7,0.5c1-0.1,1.8-0.4,2-0.5c0.4-0.3,0.2-0.3-0.1-0.2
			c-0.2,0.1-1-0.3-1.3-0.6c-0.3-0.2-0.6-0.3-0.5-0.4c0.1-0.1,0.1,0,0.2,0.1c0.2,0.2,0.7,0.4,1,0.5c0.3,0.1,0.4,0,0.6,0
			c0.2,0,0.8,0.1,0.6-0.1c-0.2-0.2-0.1-0.5-0.1-0.9C25.2,18.3,25.1,17.9,24.6,17.7z"/>
		<path opacity="0.3" d="M20.8,18c0.3,0,1.2-0.1,1.4-0.2c0.2-0.1,0.5-0.1,0.7-0.1c0.2,0,0.6,0.1,0.6,0.1c0.2,0.1,0.3,0.2,0.4,0.4
			c0,0.1,0,0.1,0,0.2c0,0,0,0,0,0c0,0,0,0.1,0,0.1c0,0,0,0,0,0c0,0,0,0.1,0,0.1c0,0.1,0,0.1,0,0.2c0,0,0,0,0,0c0,0.1-0.2,0-0.4,0
			c-0.1,0-0.2,0-0.3,0c0,0-0.1,0-0.1,0c-0.1,0-0.3-0.1-0.4-0.2c-0.1,0-0.1,0-0.2,0c-0.1-0.1-0.1-0.1-0.1,0c0,0,0,0,0,0
			c0,0,0.1,0.2,0.2,0.3c0.1,0.1,0.1,0.2,0.3,0.2c0.2,0.1,0.3,0.2,0.4,0.2c0,0,0.1,0,0.1,0c0.1,0,0.1,0.1,0,0.2
			c-0.1,0.1-0.3,0.1-0.6,0.2c-0.2,0-0.3,0.1-0.5,0.1c-0.5,0-0.6-0.2-0.8-0.3c-0.1,0-0.1-0.1-0.2-0.1c-0.1,0-0.3,0-0.4,0
			c-0.2,0-0.3,0-0.5-0.2C20.1,19.1,20,19,20,18.9c0,0,0,0,0-0.1c0-0.2,0.1-0.4,0.2-0.5C20.3,18.1,20.5,18,20.8,18z"/>
		<path fill="#FFFFFF" d="M23.6,16.7c-0.1,0-1.1,0.6-1.2,1.7c-0.1,0.4,0.4,0.2,0.4,0.2s0.8-0.5,0.9-0.9
			C23.8,17.3,23.7,16.7,23.6,16.7z"/>
		<path fill="#FFFFFF" d="M22.3,18.7c0,0,0-0.3,0-0.6c0-0.3,0-0.7,0.1-0.8c0.1-0.2,0.2-0.3,0.2-0.5c0.1-0.1,0.1-0.3,0.2-0.3
			c0.1,0,0.2,0.2,0.3,0.5c0.1,0.3,0.1,0.7-0.1,1s-0.3,0.5-0.4,0.6C22.6,18.9,22.5,18.9,22.3,18.7z"/>
		<path opacity="0.2" fill="#D9C5E0" d="M22.3,18.7c0,0,0-0.3,0-0.6c0-0.3,0-0.7,0.1-0.8c0.1-0.2,0.2-0.3,0.2-0.5
			c0.1-0.1,0.1-0.3,0.2-0.3c0.1,0,0.2,0.2,0.3,0.5c0.1,0.3,0.1,0.7-0.1,1s-0.3,0.5-0.4,0.6C22.6,18.9,22.5,18.9,22.3,18.7z"/>
		<path fill="#FFFFFF" d="M20.4,19c0,0,1.2,0.3,2.1-0.3c0.3-0.2-0.2-0.4-0.2-0.4s-0.9-0.2-1.3,0C20.7,18.6,20.5,18.7,20.4,19z"/>
		<path fill="#FFFFFF" d="M21.9,18.6c0,0-1.3-1-1.2-1.4c0.1-0.5,1.5,0.6,1.6,0.9C22.5,18.4,21.9,18.6,21.9,18.6z"/>
		<path fill="#FFFFFF" d="M23.4,18.6c0,0,0.8-0.7,1-1.2c0.2-0.5-1.7,0.6-1.6,0.9C22.9,18.6,23.4,18.6,23.4,18.6z"/>
		<path opacity="0.2" fill="#D9C5E0" d="M20.4,19c0,0,1.2,0.3,2.1-0.3c0.3-0.2-0.2-0.4-0.2-0.4s-0.9-0.2-1.3,0
			C20.7,18.6,20.5,18.7,20.4,19z"/>
		<path opacity="0.2" fill="#D9C5E0" d="M23.4,18.6c0,0,0.8-0.7,1-1.2c0.2-0.5-1.7,0.6-1.6,0.9C22.9,18.6,23.4,18.6,23.4,18.6z"/>
		<path fill="#FFFFFF" d="M22,18.3c0,0-0.7-0.8-0.3-1.7c0,0,0.7,0.3,0.7,1.5L22,18.3z"/>
		<path opacity="0.2" fill="#D9C5E0" d="M22,18.3c0,0-0.7-0.8-0.3-1.7c0,0,0.7,0.3,0.7,1.5L22,18.3z"/>
		<path fill="#FFFFFF" d="M22.3,16.8c0.1,0,0.3,0.4,0.4,0.9c0.1,0.5,0.2,1-0.1,1.2c-0.3,0.2-0.5,0-0.5-0.3C22,18.3,22,18,22,17.8
			C22.1,17.6,22.2,16.8,22.3,16.8z"/>
		<path fill="#FFFFFF" d="M22.6,18.7l-0.1-0.2c0.2-0.2,0.4-0.3,0.6-0.4c0.2-0.1,0.3-0.1,0.4-0.2c0.2-0.1,0.3,0,0.4,0c0,0,0,0,0,0
			c-0.1,0.1-0.2,0.2-0.4,0.3c-0.1,0-0.2,0.1-0.3,0.1C22.9,18.4,22.8,18.5,22.6,18.7z"/>
		<path fill="#FFFFFF" d="M23.7,17.9C23.7,17.9,23.7,17.9,23.7,17.9c-0.1,0.1-0.2,0.2-0.4,0.3c0,0-0.1,0-0.2,0c-0.1,0-0.1,0-0.2,0.1
			c0,0-0.1,0.1-0.1,0.1c-0.1,0.1-0.2,0.1-0.3,0.2l0,0c0,0-0.1-0.1-0.1-0.1c0.1-0.1,0.2-0.1,0.3-0.2c0.1-0.1,0.2-0.1,0.3-0.2
			c0.1-0.1,0.3-0.1,0.4-0.2C23.6,17.9,23.7,17.9,23.7,17.9z"/>
		<path fill="#FFFFFF" d="M22.2,18.7l0.1-0.2c-0.2-0.2-0.3-0.4-0.5-0.5c-0.1-0.1-0.3-0.2-0.3-0.3c-0.2-0.1-0.3-0.1-0.3-0.1
			c0,0,0,0,0,0c0.1,0.1,0.2,0.2,0.3,0.4c0.1,0,0.2,0.1,0.3,0.2C21.8,18.3,22,18.5,22.2,18.7z"/>
		<path fill="#FFFFFF" d="M22.7,18.8C22.6,18.8,22.6,18.7,22.7,18.8c0.1,0,0.2,0,0.3-0.1c0.1,0,0.2,0,0.3,0c0.1,0,0.2,0,0.3,0
			c0.1,0,0.2,0,0.3,0c0,0,0,0-0.1,0.1c0,0-0.1,0-0.1,0c-0.1,0-0.1,0-0.3,0c-0.1,0-0.2,0-0.3,0C23,18.8,22.8,18.8,22.7,18.8z"/>
		<path fill="#FFFFFF" d="M22.7,18.6c0,0,0.1,0.2,0.1,0.5c0.1,0.2,0.1,0.5,0,0.7c-0.2,0.3-0.2,0.6-0.3,0.6c-0.1,0-0.2-0.1-0.4-0.4
			c-0.1-0.2-0.2-0.5-0.1-0.8c0.1-0.2,0.2-0.4,0.2-0.6C22.4,18.5,22.5,18.5,22.7,18.6z"/>
		<path fill="#FFFFFF" d="M24.5,19.4c0,0-0.5,0-1-0.1c-0.5-0.1-0.9-0.3-0.9-0.5c0-0.3,0.2-0.3,0.5-0.3c0.3,0,0.6,0.2,0.7,0.3
			c0.1,0.1,0.3,0.2,0.4,0.4C24.4,19.2,24.6,19.3,24.5,19.4z"/>
	</g>
	<g>
		<path fill="#539B00" d="M19.2,19.6c-0.2-0.1-1.5-0.5-1.8-0.4c-0.3,0.1-2.4,0.3-3,0.3c-0.6,0-1.3,0.3-1.6,0.8
			c-0.2,0.4-0.1,0.9,0.6,1.5c0.8,0.6,1.4,0.3,1.9,0.5c0.5,0.2,0.8,0.6,1.9,0.6c1.1-0.1,2-0.4,2.2-0.6c0.5-0.3,0.2-0.4-0.1-0.3
			c-0.3,0.1-1.1-0.3-1.5-0.6c-0.3-0.3-0.7-0.3-0.6-0.5c0.1-0.1,0.1,0,0.2,0.1c0.2,0.2,0.8,0.4,1.1,0.5c0.3,0.1,0.4,0,0.7,0
			c0.3,0,0.9,0.1,0.7-0.1c-0.2-0.2-0.1-0.6-0.1-1C19.9,20.3,19.8,19.9,19.2,19.6z"/>
		<path opacity="0.3" d="M15,19.9c0.3,0,1.3-0.1,1.5-0.2c0.2-0.1,0.5-0.1,0.8-0.1c0.2,0,0.6,0.1,0.7,0.1c0.3,0.1,0.4,0.2,0.4,0.4
			c0,0.1,0,0.1,0,0.2c0,0,0,0,0,0c0,0,0,0.1,0,0.1c0,0,0,0,0,0c0,0,0,0.1,0,0.1c0,0.1,0,0.2,0,0.2c0,0,0,0,0,0c0,0.1-0.3,0-0.4,0
			c-0.1,0-0.2,0-0.3,0c0,0-0.1,0-0.1,0c-0.1,0-0.3-0.1-0.5-0.2c-0.1,0-0.1,0-0.2,0c-0.1-0.1-0.1-0.1-0.1,0c0,0,0,0,0,0
			c0,0,0.1,0.2,0.3,0.3c0.1,0.1,0.1,0.2,0.3,0.3c0.2,0.1,0.3,0.2,0.4,0.3c0,0,0.1,0,0.1,0c0.1,0,0.1,0.1,0,0.2
			c-0.1,0.1-0.3,0.2-0.6,0.2C17,22,16.8,22,16.6,22c-0.5,0-0.7-0.2-0.9-0.4c-0.1,0-0.2-0.1-0.3-0.1c-0.1,0-0.3,0-0.4,0
			c-0.2,0-0.4-0.1-0.6-0.2c-0.2-0.1-0.3-0.2-0.4-0.4c0,0,0-0.1,0-0.1c-0.1-0.2,0.1-0.4,0.2-0.6C14.4,20.1,14.7,20,15,19.9z"/>
		<path fill="#FFFFFF" d="M15.6,18.5c0.1,0,1.2,0.7,1.4,1.9c0.1,0.5-0.5,0.2-0.5,0.2s-0.8-0.6-1-1C15.4,19.2,15.5,18.6,15.6,18.5z"
			/>
		<path fill="#FFFFFF" d="M17,20.8c0,0,0-0.3,0-0.7c0-0.4,0-0.7-0.1-0.9c-0.1-0.2-0.2-0.4-0.3-0.5c-0.1-0.2-0.1-0.3-0.2-0.3
			c-0.1,0-0.2,0.2-0.3,0.6c-0.1,0.3-0.1,0.8,0.1,1.1c0.2,0.3,0.3,0.6,0.4,0.7C16.7,20.9,16.8,21,17,20.8z"/>
		<path opacity="0.2" fill="#D9C5E0" d="M17,20.8c0,0,0-0.3,0-0.7c0-0.4,0-0.7-0.1-0.9c-0.1-0.2-0.2-0.4-0.3-0.5
			c-0.1-0.2-0.1-0.3-0.2-0.3c-0.1,0-0.2,0.2-0.3,0.6c-0.1,0.3-0.1,0.8,0.1,1.1c0.2,0.3,0.3,0.6,0.4,0.7C16.7,20.9,16.8,21,17,20.8z"
			/>
		<path fill="#FFFFFF" d="M19.1,21.1c0,0-1.4,0.3-2.3-0.3c-0.4-0.2,0.2-0.4,0.2-0.4s1-0.2,1.4,0C18.7,20.6,19,20.8,19.1,21.1z"/>
		<path fill="#FFFFFF" d="M17.5,20.6c0,0,1.4-1.1,1.3-1.6c-0.1-0.5-1.7,0.7-1.8,1C16.8,20.4,17.5,20.6,17.5,20.6z"/>
		<path fill="#FFFFFF" d="M15.8,20.7c0,0-0.9-0.8-1.1-1.4c-0.2-0.5,1.9,0.7,1.8,1C16.4,20.7,15.8,20.7,15.8,20.7z"/>
		<path opacity="0.2" fill="#D9C5E0" d="M19.1,21.1c0,0-1.4,0.3-2.3-0.3c-0.4-0.2,0.2-0.4,0.2-0.4s1-0.2,1.4,0
			C18.7,20.6,19,20.8,19.1,21.1z"/>
		<path opacity="0.2" fill="#D9C5E0" d="M15.8,20.7c0,0-0.9-0.8-1.1-1.4c-0.2-0.5,1.9,0.7,1.8,1C16.4,20.7,15.8,20.7,15.8,20.7z"/>
		<path fill="#FFFFFF" d="M17.3,20.3c0,0,0.8-0.9,0.3-1.8c0,0-0.8,0.3-0.7,1.6L17.3,20.3z"/>
		<path opacity="0.2" fill="#D9C5E0" d="M17.3,20.3c0,0,0.8-0.9,0.3-1.8c0,0-0.8,0.3-0.7,1.6L17.3,20.3z"/>
		<path fill="#FFFFFF" d="M17,18.7c-0.1,0-0.3,0.5-0.4,1c-0.1,0.5-0.2,1.1,0.1,1.3c0.3,0.2,0.5,0,0.6-0.3c0.1-0.3,0.1-0.7,0.1-0.8
			C17.2,19.6,17.1,18.6,17,18.7z"/>
		<path fill="#FFFFFF" d="M16.7,20.7l0.1-0.2c-0.2-0.2-0.5-0.4-0.6-0.5c-0.2-0.1-0.3-0.2-0.4-0.2c-0.2-0.1-0.4,0-0.4,0c0,0,0,0,0,0
			c0.1,0.1,0.3,0.2,0.4,0.3c0.1,0,0.2,0.1,0.4,0.1C16.3,20.4,16.5,20.5,16.7,20.7z"/>
		<path fill="#FFFFFF" d="M15.4,19.9C15.4,19.9,15.4,19.9,15.4,19.9c0.1,0.1,0.3,0.2,0.4,0.3c0.1,0,0.1,0,0.2,0.1
			c0.1,0,0.1,0,0.2,0.1c0,0,0.1,0.1,0.2,0.1c0.1,0.1,0.2,0.1,0.4,0.3l0,0c0,0,0.1-0.2,0.1-0.2c-0.1-0.1-0.2-0.2-0.3-0.2
			c-0.1-0.1-0.2-0.2-0.3-0.2c-0.2-0.1-0.3-0.1-0.4-0.2C15.6,19.8,15.5,19.9,15.4,19.9z"/>
		<path fill="#FFFFFF" d="M17.2,20.7L17,20.5c0.2-0.3,0.4-0.4,0.5-0.6c0.1-0.1,0.3-0.2,0.4-0.3c0.2-0.1,0.3-0.1,0.4-0.1c0,0,0,0,0,0
			c-0.1,0.1-0.2,0.3-0.3,0.4c-0.1,0-0.2,0.1-0.3,0.2C17.5,20.4,17.3,20.5,17.2,20.7z"/>
		<path fill="#FFFFFF" d="M16.6,20.8C16.6,20.8,16.6,20.8,16.6,20.8c-0.1,0-0.2-0.1-0.3-0.1c-0.1,0-0.3,0-0.3,0c-0.1,0-0.2,0-0.3,0
			c-0.1,0-0.2,0-0.3,0c0,0,0,0,0.1,0.1c0,0,0.1,0,0.1,0.1c0.1,0,0.2,0,0.3,0c0.1,0,0.2,0,0.4,0C16.3,20.9,16.4,20.9,16.6,20.8z"/>
		<path fill="#FFFFFF" d="M16.6,20.6c0,0-0.1,0.2-0.1,0.5c-0.1,0.3-0.1,0.6,0,0.7c0.2,0.3,0.2,0.6,0.3,0.7c0.1,0,0.3-0.1,0.4-0.4
			c0.1-0.3,0.2-0.6,0.1-0.9C17.1,21,17,20.8,17,20.7C16.9,20.6,16.7,20.5,16.6,20.6z"/>
		<path fill="#FFFFFF" d="M14.5,21.5c0,0,0.6,0,1.1-0.1c0.5-0.1,1-0.3,1-0.6c0-0.3-0.3-0.3-0.6-0.3c-0.3,0.1-0.6,0.2-0.7,0.3
			c-0.1,0.1-0.3,0.2-0.5,0.4C14.7,21.3,14.5,21.5,14.5,21.5z"/>
	</g>
</g>
</svg>
