<?xml version="1.0" encoding="utf-8"?>
<!-- Generator: Adobe Illustrator 18.1.0, SVG Export Plug-In . SVG Version: 6.00 Build 0)  -->
<svg version="1.1" id="Layer_1" xmlns="http://www.w3.org/2000/svg" xmlns:xlink="http://www.w3.org/1999/xlink" x="0px" y="0px"
	 viewBox="0 0 64 32" enable-background="new 0 0 64 32" xml:space="preserve">
<g>
	<g>
		<path fill="#99CC33" d="M52.2,13.9L56,12l8,4l-8,4l-3.8-1.9C50.5,17.2,50.5,14.8,52.2,13.9z"/>
		<path fill="#99CC33" d="M32,0l8,4l-8,4c-6.6,3.3-6.6,12.7,0,16l8,4l-8,4L0,16L32,0z"/>
	</g>
	<path fill="#3399CC" d="M32,8l8-4l16,8l-3.8,1.9c-1.7,0.9-1.7,3.3,0,4.2L56,20l-16,8l-8-4C25.4,20.7,25.4,11.3,32,8z"/>
	<g>
		<path fill="#99CC33" d="M52.2,13.9L56,12l8,4l-8,4l-3.8-1.9C50.5,17.2,50.5,14.8,52.2,13.9z"/>
		<path fill="#99CC33" d="M32,0l8,4l-8,4c-6.6,3.3-6.6,12.7,0,16l8,4l-8,4L0,16L32,0z"/>
	</g>
	<path fill="#3399CC" d="M32,8l8-4l16,8l-3.8,1.9c-1.7,0.9-1.7,3.3,0,4.2L56,20l-16,8l-8-4C25.4,20.7,25.4,11.3,32,8z"/>
	<path opacity="0.15" d="M40,4l-8,4c-6.6,3.3-6.6,12.7,0,16l8,4l-6-4.5c-4.6-3.5-4-10.6,1.2-13.1L44,6L40,4z"/>
	<path opacity="0.15" d="M56,12l-3.8,1.9c-1.7,0.9-1.7,3.3,0,4.2L56,20l-4,2l-2.9-1.5c-3.1-1.6-2.6-6.1,0.8-7L56,12z"/>
</g>
</svg>
