<?xml version="1.0" encoding="utf-8"?>
<!-- Generator: Adobe Illustrator 18.1.0, SVG Export Plug-In . SVG Version: 6.00 Build 0)  -->
<svg version="1.1" id="Layer_1" xmlns="http://www.w3.org/2000/svg" xmlns:xlink="http://www.w3.org/1999/xlink" x="0px" y="0px"
	 viewBox="0 0 128 64" enable-background="new 0 0 128 64" xml:space="preserve">
<g>
	<g>
		<polygon fill="#999999" points="96,0 0,48 5.9,51 101.9,3 		"/>
		<polygon fill="#999999" points="122.1,13 26.1,61 32,64 128,16 		"/>
	</g>
	<polygon fill="#656565" points="5.9,51 26.1,61 122.1,13 101.9,3 	"/>
	<g>
		<polygon fill="#999999" points="96,0 0,48 5.9,51 101.9,3 		"/>
		<polygon fill="#999999" points="122.1,13 26.1,61 32,64 128,16 		"/>
	</g>
	<polygon fill="#656565" points="5.9,51 26.1,61 122.1,13 101.9,3 	"/>
	<polygon opacity="0.15" points="101.9,3 5.9,51 7.1,51.5 103.1,3.5 	"/>
	<polygon opacity="0.15" points="120.9,12.5 24.9,60.5 26.1,61 122.1,13 	"/>
</g>
</svg>
