<?xml version="1.0" encoding="utf-8"?>
<!-- Generator: Adobe Illustrator 18.1.0, SVG Export Plug-In . SVG Version: 6.00 Build 0)  -->
<svg version="1.1" id="Layer_1" xmlns="http://www.w3.org/2000/svg" xmlns:xlink="http://www.w3.org/1999/xlink" x="0px" y="0px"
	 viewBox="0 0 104 96" enable-background="new 0 0 104 96" xml:space="preserve">
<g>
	<path fill="#999999" d="M91,48c0,6.2,4.9,11.9,13,16l-6,3c-9.8-4.9-15-11.5-15-19s5.2-14.1,15-19l6,3C95.9,36.1,91,41.8,91,48z"/>
	<path fill="#999999" d="M0,48C0,29.2,15.4,12.3,40,0l6,3C23,14.5,8,30.5,8,48s15,33.5,38,45l-6,3C15.4,83.7,0,66.8,0,48z"/>
	<path fill="#656565" d="M46,3l52,26c-9.8,4.9-15,11.5-15,19s5.2,14.1,15,19L46,93C23,81.5,8,65.5,8,48S23,14.5,46,3z"/>
	<path fill="#999999" d="M91,48c0,6.2,4.9,11.9,13,16l-6,3c-9.8-4.9-15-11.5-15-19s5.2-14.1,15-19l6,3C95.9,36.1,91,41.8,91,48z"/>
	<path fill="#999999" d="M0,48C0,29.2,15.4,12.3,40,0l6,3C23,14.5,8,30.5,8,48s15,33.5,38,45l-6,3C15.4,83.7,0,66.8,0,48z"/>
	<path fill="#656565" d="M46,3l52,26c-9.8,4.9-15,11.5-15,19s5.2,14.1,15,19L46,93C23,81.5,8,65.5,8,48S23,14.5,46,3z"/>
	<path opacity="0.15" d="M9.5,48c0,17.3,14.8,33.1,37.5,44.5L46,93C23,81.5,8,65.5,8,48S23,14.5,46,3l1.1,0.5
		C24.4,14.9,9.5,30.7,9.5,48z"/>
	<path opacity="0.15" d="M83,48c0,7.5,5.2,14.1,15,19l-1.1,0.5c-10-5-15.4-11.9-15.4-19.5S86.9,33.5,97,28.5L98,29
		C88.2,33.9,83,40.5,83,48z"/>
	<path fill="#E5E5E5" d="M46,48c0,12.4,10.2,23.6,26.6,31.7l-1.1,0.5C55.1,72,45,60.6,45,48s10.1-24,26.5-32.2l1.1,0.5
		C56.2,24.4,46,35.6,46,48z"/>
</g>
</svg>
