<?xml version="1.0" encoding="utf-8"?>
<!-- Generator: Adobe Illustrator 18.1.0, SVG Export Plug-In . SVG Version: 6.00 Build 0)  -->
<svg version="1.1" id="Layer_1" xmlns="http://www.w3.org/2000/svg" xmlns:xlink="http://www.w3.org/1999/xlink" x="0px" y="0px"
	 viewBox="0 0 64 32" enable-background="new 0 0 64 32" xml:space="preserve">
<g>
	<path fill="#656565" d="M35.1,24.5L58.1,13L37.9,3l-2.8,1.4c-2,1-4.3,1-6.3,0L26.1,3L5.9,13l22.9,11.5
		C30.8,25.5,33.2,25.5,35.1,24.5z"/>
	<g>
		<path fill="#999999" d="M35.1,4.4L37.9,3L32,0l-5.9,3l2.8,1.4C30.8,5.4,33.2,5.4,35.1,4.4z"/>
		<path fill="#999999" d="M32,32l32-16l-5.9-3L35.1,24.5c-2,1-4.3,1-6.3,0L5.9,13L0,16L32,32z"/>
	</g>
	<path fill="#656565" d="M35.1,24.5L58.1,13L37.9,3l-2.8,1.4c-2,1-4.3,1-6.3,0L26.1,3L5.9,13l22.9,11.5
		C30.8,25.5,33.2,25.5,35.1,24.5z"/>
	<g>
		<path fill="#999999" d="M35.1,4.4L37.9,3L32,0l-5.9,3l2.8,1.4C30.8,5.4,33.2,5.4,35.1,4.4z"/>
		<path fill="#999999" d="M32,32l32-16l-5.9-3L35.1,24.5c-2,1-4.3,1-6.3,0L5.9,13L0,16L32,32z"/>
	</g>
	<path opacity="0.15" d="M28.9,5.5c2,1,4.3,1,6.3,0l3.9-2L37.9,3l-2.8,1.4c-2,1-4.3,1-6.3,0L26.1,3l-1.1,0.6L28.9,5.5z"/>
	<path opacity="0.15" d="M28.9,24.5c2,1,4.3,1,6.3,0L58.1,13l-1.1-0.6L35.1,23.4c-2,1-4.3,1-6.3,0L7.1,12.5L5.9,13L28.9,24.5z"/>
</g>
</svg>
