<?xml version="1.0" encoding="utf-8"?>
<!-- Generator: Adobe Illustrator 18.1.0, SVG Export Plug-In . SVG Version: 6.00 Build 0)  -->
<svg version="1.1" id="Layer_1" xmlns="http://www.w3.org/2000/svg" xmlns:xlink="http://www.w3.org/1999/xlink" x="0px" y="0px"
	 viewBox="0 0 256 128" enable-background="new 0 0 256 128" xml:space="preserve">
<polygon fill="#999999" points="58,3 64,0 256,96 250,99 "/>
<polygon fill="#999999" points="58,3 64,0 256,96 250,99 "/>
<path fill="#999999" d="M0,32l6-3l67.9,34c0.8,0.4,0.8,1.6,0,2L6,99l-6-3l64-32L0,32z"/>
<path fill="#999999" d="M125.9,91.1c1.3-0.7,2.8-0.7,4.2,0L198,125l-6,3l-64-32l-64,32l-6-3L125.9,91.1z"/>
<path fill="#999999" d="M0,32l6-3l67.9,34c0.8,0.4,0.8,1.6,0,2L6,99l-6-3l64-32L0,32z"/>
<path fill="#999999" d="M125.9,91.1c1.3-0.7,2.8-0.7,4.2,0L198,125l-6,3l-64-32l-64,32l-6-3L125.9,91.1z"/>
<path fill="#656565" d="M73.9,65c0.8-0.4,0.8-1.6,0-2L5.9,29L58,3l192,96l-52,26l-67.9-33.9c-1.3-0.7-2.8-0.7-4.2,0L58,125L6,99
	L73.9,65z"/>
<path fill="#656565" d="M73.9,65c0.8-0.4,0.8-1.6,0-2L5.9,29L58,3l192,96l-52,26l-67.9-33.9c-1.3-0.7-2.8-0.7-4.2,0L58,125L6,99
	L73.9,65z"/>
<g>
	<polygon fill="#E5E5E5" points="39.5,20.3 31.5,16.3 32.6,15.7 40.6,19.7 	"/>
	<polygon fill="#E5E5E5" points="80.6,39.7 88.6,43.7 87.4,44.3 79.4,40.3 	"/>
	<polygon fill="#E5E5E5" points="48.6,23.7 56.6,27.7 55.5,28.3 47.5,24.3 	"/>
	<polygon fill="#E5E5E5" points="64.6,31.7 72.6,35.7 71.5,36.3 63.5,32.3 	"/>
</g>
<g>
	<polygon fill="#E5E5E5" points="167.5,84.3 159.5,80.3 160.6,79.7 168.6,83.7 	"/>
	<polygon fill="#E5E5E5" points="208.6,103.7 216.6,107.7 215.4,108.3 207.4,104.3 	"/>
	<polygon fill="#E5E5E5" points="176.6,87.7 184.6,91.7 183.5,92.3 175.5,88.3 	"/>
	<polygon fill="#E5E5E5" points="192.6,95.7 200.6,99.7 199.5,100.3 191.5,96.3 	"/>
</g>
<path opacity="0.15" d="M125.9,90c1.3-0.7,2.8-0.7,4.2,0l68.9,34.5l-1,0.5l-67.9-33.9c-1.3-0.7-2.8-0.7-4.2,0L58,125l-1-0.5
	L125.9,90z"/>
<path opacity="0.15" d="M73.9,65c0.8-0.4,0.8-1.6,0-2L6,29l1.1-0.5L76.1,63c0.8,0.4,0.8,1.6,0,2L7.1,99.5L6,99L73.9,65z"/>
<g>
	<polygon fill="#E5E5E5" points="88.5,84.3 96.5,80.3 95.4,79.7 87.4,83.7 	"/>
	<polygon fill="#E5E5E5" points="47.4,103.7 39.4,107.7 40.6,108.3 48.6,104.3 	"/>
	<polygon fill="#E5E5E5" points="79.4,87.7 71.4,91.7 72.5,92.3 80.5,88.3 	"/>
	<polygon fill="#E5E5E5" points="63.4,95.7 55.4,99.7 56.5,100.3 64.5,96.3 	"/>
</g>
<polygon opacity="0.15" points="57,3.5 58,3 250,99 248.9,99.5 "/>
<g>
	<polygon fill="#E5E5E5" points="103.5,52.3 95.5,48.3 96.6,47.7 104.6,51.7 	"/>
	<polygon fill="#E5E5E5" points="144.6,71.7 152.6,75.7 151.4,76.3 143.4,72.3 	"/>
	<polygon fill="#E5E5E5" points="112.6,55.7 120.6,59.7 119.5,60.3 111.5,56.3 	"/>
	<polygon fill="#E5E5E5" points="128.6,63.7 136.6,67.7 135.5,68.3 127.5,64.3 	"/>
</g>
</svg>
