<?xml version="1.0" encoding="utf-8"?>
<!-- Generator: Adobe Illustrator 18.1.0, SVG Export Plug-In . SVG Version: 6.00 Build 0)  -->
<svg version="1.1" id="Layer_1" xmlns="http://www.w3.org/2000/svg" xmlns:xlink="http://www.w3.org/1999/xlink" x="0px" y="0px"
	 viewBox="0 0 128 64" enable-background="new 0 0 128 64" xml:space="preserve">
<polygon fill="#999999" points="58,3 64,0 128,32 122,35 "/>
<polygon fill="#999999" points="58,3 64,0 128,32 122,35 "/>
<path fill="#999999" d="M0,32l6-3l3.9,2c0.8,0.4,0.8,1.6,0,2L6,35L0,32L0,32L0,32z"/>
<path fill="#999999" d="M61.9,59.1c1.3-0.7,2.8-0.7,4.2,0L70,61l-6,3l0,0l0,0l-6-3L61.9,59.1z"/>
<path fill="#999999" d="M0,32l6-3l3.9,2c0.8,0.4,0.8,1.6,0,2L6,35L0,32L0,32L0,32z"/>
<path fill="#999999" d="M61.9,59.1c1.3-0.7,2.8-0.7,4.2,0L70,61l-6,3l0,0l0,0l-6-3L61.9,59.1z"/>
<path fill="#656565" d="M9.9,33c0.8-0.4,0.8-1.6,0-2l-3.9-2L58,3l64,32L70,61l-3.9-1.9c-1.3-0.7-2.8-0.7-4.2,0L58,61L6,35L9.9,33z"
	/>
<path fill="#656565" d="M9.9,33c0.8-0.4,0.8-1.6,0-2l-3.9-2L58,3l64,32L70,61l-3.9-1.9c-1.3-0.7-2.8-0.7-4.2,0L58,61L6,35L9.9,33z"
	/>
<path opacity="0.15" d="M71.1,60.5L69.9,61l-3.9-1.9c-1.3-0.7-2.8-0.7-4.2,0L58.1,61l-1.1-0.6l5-2.5c1.3-0.7,2.8-0.7,4.2,0
	L71.1,60.5z"/>
<path opacity="0.15" d="M9.9,33c0.8-0.4,0.8-1.6,0-2L6,29l1.1-0.5l5.1,2.5c0.8,0.4,0.8,1.6,0,2l-5.1,2.5L6,35L9.9,33z"/>
<polygon opacity="0.15" points="57,3.5 58,3 122,35 120.9,35.5 "/>
</svg>
