<?xml version="1.0" encoding="utf-8"?>
<!-- Generator: Adobe Illustrator 18.1.0, SVG Export Plug-In . SVG Version: 6.00 Build 0)  -->
<svg version="1.1" id="Layer_1" xmlns="http://www.w3.org/2000/svg" xmlns:xlink="http://www.w3.org/1999/xlink" x="0px" y="0px"
	 viewBox="0 0 64 32" enable-background="new 0 0 64 32" xml:space="preserve">
<g>
	<path fill="#656565" d="M28.9,7.5L5.9,19L26.1,29l2.8-1.4c2-1,4.3-1,6.3,0l2.8,1.4L58.1,19L35.1,7.5C33.2,6.5,30.8,6.5,28.9,7.5z"
		/>
	<g>
		<path fill="#999999" d="M28.9,27.6L26.1,29l5.9,3l5.9-3l-2.8-1.4C33.2,26.6,30.8,26.6,28.9,27.6z"/>
		<path fill="#999999" d="M32,0L0,16l5.9,3L28.9,7.5c2-1,4.3-1,6.3,0L58.1,19l5.9-3L32,0z"/>
	</g>
	<path fill="#656565" d="M28.9,7.5L5.9,19L26.1,29l2.8-1.4c2-1,4.3-1,6.3,0l2.8,1.4L58.1,19L35.1,7.5C33.2,6.5,30.8,6.5,28.9,7.5z"
		/>
	<g>
		<path fill="#999999" d="M28.9,27.6L26.1,29l5.9,3l5.9-3l-2.8-1.4C33.2,26.6,30.8,26.6,28.9,27.6z"/>
		<path fill="#999999" d="M32,0L0,16l5.9,3L28.9,7.5c2-1,4.3-1,6.3,0L58.1,19l5.9-3L32,0z"/>
	</g>
	<path opacity="0.15" d="M35.1,26.5c-2-1-4.3-1-6.3,0l-3.9,2l1.1,0.6l2.8-1.4c2-1,4.3-1,6.3,0l2.8,1.4l1.1-0.6L35.1,26.5z"/>
	<path opacity="0.15" d="M35.1,7.5c-2-1-4.3-1-6.3,0L5.9,19l1.1,0.6L28.9,8.6c2-1,4.3-1,6.3,0l21.8,10.9l1.1-0.6L35.1,7.5z"/>
</g>
</svg>
