<?xml version="1.0" encoding="utf-8"?>
<!-- Generator: Adobe Illustrator 18.1.0, SVG Export Plug-In . SVG Version: 6.00 Build 0)  -->
<svg version="1.1" id="Layer_1" xmlns="http://www.w3.org/2000/svg" xmlns:xlink="http://www.w3.org/1999/xlink" x="0px" y="0px"
	 viewBox="0 0 128 64" enable-background="new 0 0 128 64" xml:space="preserve">
<path fill="#656565" d="M60.9,7.5L5.9,35L58.1,61l2.8-1.4c2-1,4.3-1,6.3,0l2.8,1.4L122.1,35L67.1,7.5C65.2,6.5,62.8,6.5,60.9,7.5z"
	/>
<g>
	<path fill="#999999" d="M60.9,59.6L58.1,61l5.9,3l5.9-3l-2.8-1.4C65.2,58.6,62.8,58.6,60.9,59.6z"/>
	<path fill="#999999" d="M64,0L0,32l5.9,3L60.9,7.5c2-1,4.3-1,6.3,0L122.1,35l5.9-3L64,0z"/>
</g>
<path fill="#656565" d="M60.9,7.5L5.9,35L58.1,61l2.8-1.4c2-1,4.3-1,6.3,0l2.8,1.4L122.1,35L67.1,7.5C65.2,6.5,62.8,6.5,60.9,7.5z"
	/>
<g>
	<path fill="#999999" d="M60.9,59.6L58.1,61l5.9,3l5.9-3l-2.8-1.4C65.2,58.6,62.8,58.6,60.9,59.6z"/>
	<path fill="#999999" d="M64,0L0,32l5.9,3L60.9,7.5c2-1,4.3-1,6.3,0L122.1,35l5.9-3L64,0z"/>
</g>
<path opacity="0.15" d="M67.1,7.5c-2-1-4.3-1-6.3,0L5.9,35l1.1,0.6L60.9,8.6c2-1,4.3-1,6.3,0l53.8,26.9l1.1-0.6L67.1,7.5z"/>
<polygon fill="#E5E5E5" points="64,31.4 31.4,47.7 32.6,48.3 64,32.6 95.4,48.3 96.6,47.7 64.2,31.6 "/>
</svg>
