<?xml version="1.0" encoding="utf-8"?>
<!-- Generator: Adobe Illustrator 18.1.0, SVG Export Plug-In . SVG Version: 6.00 Build 0)  -->
<svg version="1.1" id="Layer_1" xmlns="http://www.w3.org/2000/svg" xmlns:xlink="http://www.w3.org/1999/xlink" x="0px" y="0px"
	 viewBox="0 0 64 32" enable-background="new 0 0 64 32" xml:space="preserve">
<g>
	<path fill="#656565" d="M26.1,29l4.2-2.1c1.1-0.6,2.4-0.6,3.6,0l4.2,2.1L58.1,19l-3.9-2c-0.8-0.4-0.8-1.6,0-2l3.9-2L37.9,3l-32,16
		L26.1,29z"/>
	<g>
		<path fill="#999999" d="M30.2,26.9L26.1,29l5.9,3l5.9-3l-4.2-2.1C32.7,26.4,31.3,26.4,30.2,26.9z"/>
		<polygon fill="#999999" points="5.9,19 37.9,3 32,0 0,16 		"/>
		<path fill="#999999" d="M54.1,17l3.9,2l5.9-3l-5.9-3l-3.9,2C53.3,15.4,53.3,16.6,54.1,17z"/>
	</g>
	<path fill="#656565" d="M26.1,29l4.2-2.1c1.1-0.6,2.4-0.6,3.6,0l4.2,2.1L58.1,19l-3.9-2c-0.8-0.4-0.8-1.6,0-2l3.9-2L37.9,3l-32,16
		L26.1,29z"/>
	<g>
		<path fill="#999999" d="M30.2,26.9L26.1,29l5.9,3l5.9-3l-4.2-2.1C32.7,26.4,31.3,26.4,30.2,26.9z"/>
		<polygon fill="#999999" points="5.9,19 37.9,3 32,0 0,16 		"/>
		<path fill="#999999" d="M54.1,17l3.9,2l5.9-3l-5.9-3l-3.9,2C53.3,15.4,53.3,16.6,54.1,17z"/>
	</g>
	<path opacity="0.15" d="M56.9,19.5l1.1-0.6l-3.9-2c-0.8-0.4-0.8-1.6,0-2l3.9-2l-1.1-0.6L51.9,15c-0.8,0.4-0.8,1.6,0,2L56.9,19.5z"
		/>
	<path opacity="0.15" d="M26.1,29l4.2-2.1c1.1-0.6,2.4-0.6,3.6,0l4.2,2.1l1.1-0.6l-5.3-2.6c-1.1-0.6-2.4-0.6-3.6,0l-5.3,2.6L26.1,29
		z"/>
	<polygon opacity="0.15" points="7.1,19.5 39.1,3.5 37.9,3 5.9,19 	"/>
</g>
</svg>
