<?xml version="1.0" encoding="utf-8"?>
<!-- Generator: Adobe Illustrator 18.1.0, SVG Export Plug-In . SVG Version: 6.00 Build 0)  -->
<svg version="1.1" id="Layer_1" xmlns="http://www.w3.org/2000/svg" xmlns:xlink="http://www.w3.org/1999/xlink" x="0px" y="0px"
	 viewBox="0 0 64 32" enable-background="new 0 0 64 32" xml:space="preserve">
<g>
	<path fill="#999999" d="M32,0l5.9,3L13.6,15.1c-0.7,0.3-0.7,1.3,0,1.6l18.1,9c0.3,0.1,0.6,0.1,0.8,0L58.1,13l5.9,3L32,32L0,16L32,0
		z"/>
	<path fill="#656565" d="M13.6,16.8l18.1,9c0.3,0.1,0.6,0.1,0.8,0L58.1,13L37.9,3L13.6,15.1C12.9,15.5,12.9,16.5,13.6,16.8z"/>
	<path fill="#999999" d="M32,0l5.9,3L13.6,15.1c-0.7,0.3-0.7,1.3,0,1.6l18.1,9c0.3,0.1,0.6,0.1,0.8,0L58.1,13l5.9,3L32,32L0,16L32,0
		z"/>
	<path fill="#656565" d="M13.6,16.8l18.1,9c0.3,0.1,0.6,0.1,0.8,0L58.1,13L37.9,3L13.6,15.1C12.9,15.5,12.9,16.5,13.6,16.8z"/>
	<path opacity="0.15" d="M32.5,25.8c-0.3,0.1-0.6,0.1-0.8,0l-18.1-9c-0.7-0.3-0.7-1.3,0-1.6L37.9,3l1.1,0.6L14.1,16L32,24.9
		l24.9-12.5l1.1,0.6L32.5,25.8z"/>
</g>
</svg>
