<?xml version="1.0" encoding="utf-8"?>
<!-- Generator: Adobe Illustrator 18.1.0, SVG Export Plug-In . SVG Version: 6.00 Build 0)  -->
<svg version="1.1" id="Layer_1" xmlns="http://www.w3.org/2000/svg" xmlns:xlink="http://www.w3.org/1999/xlink" x="0px" y="0px"
	 viewBox="0 0 256 128" enable-background="new 0 0 256 128" xml:space="preserve">
<g>
	<polygon fill="#999999" points="192,0 0,96 6,99 198,3 	"/>
	<polygon fill="#999999" points="250,29 58,125 64,128 256,32 	"/>
	<polygon fill="#656565" points="198,3 6,99 58,125 250.1,29 	"/>
	<polygon fill="#999999" points="192,0 0,96 6,99 198,3 	"/>
	<polygon fill="#999999" points="250,29 58,125 64,128 256,32 	"/>
	<polygon fill="#656565" points="198,3 6,99 58,125 250.1,29 	"/>
	<polygon opacity="0.15" points="248.9,28.5 57,124.5 58,125 250,29 	"/>
	<polygon opacity="0.15" points="198,3 6,99 7.1,99.5 199,3.5 	"/>
	<g>
		<polygon fill="#E5E5E5" points="88.5,84.3 96.5,80.3 95.4,79.7 87.4,83.7 		"/>
		<polygon fill="#E5E5E5" points="47.4,103.7 39.4,107.7 40.6,108.3 48.6,104.3 		"/>
		<polygon fill="#E5E5E5" points="79.4,87.7 71.4,91.7 72.5,92.3 80.5,88.3 		"/>
		<polygon fill="#E5E5E5" points="63.4,95.7 55.4,99.7 56.5,100.3 64.5,96.3 		"/>
	</g>
</g>
<g>
	<polygon fill="#E5E5E5" points="175.5,39.7 167.5,43.7 168.6,44.3 176.6,40.3 	"/>
	<polygon fill="#E5E5E5" points="216.6,20.3 224.6,16.3 223.4,15.7 215.4,19.7 	"/>
	<polygon fill="#E5E5E5" points="184.6,36.3 192.6,32.3 191.5,31.7 183.5,35.7 	"/>
	<polygon fill="#E5E5E5" points="200.6,28.3 208.6,24.3 207.5,23.7 199.5,27.7 	"/>
</g>
<g>
	<polygon fill="#E5E5E5" points="111.5,71.7 103.5,75.7 104.6,76.3 112.6,72.3 	"/>
	<polygon fill="#E5E5E5" points="152.6,52.3 160.6,48.3 159.4,47.7 151.4,51.7 	"/>
	<polygon fill="#E5E5E5" points="120.6,68.3 128.6,64.3 127.5,63.7 119.5,67.7 	"/>
	<polygon fill="#E5E5E5" points="136.6,60.3 144.6,56.3 143.5,55.7 135.5,59.7 	"/>
</g>
</svg>
