<?xml version="1.0" encoding="utf-8"?>
<!-- Generator: Adobe Illustrator 18.1.0, SVG Export Plug-In . SVG Version: 6.00 Build 0)  -->
<svg version="1.1" id="Layer_1" xmlns="http://www.w3.org/2000/svg" xmlns:xlink="http://www.w3.org/1999/xlink" x="0px" y="0px"
	 viewBox="0 0 160 80" enable-background="new 0 0 160 80" xml:space="preserve">
<g>
	<polygon fill="#999999" points="154.1,13 160,16 128,32 160,48 154,51 116.1,32 	"/>
	<polygon fill="#999999" points="64,0 96,16 128,0 133.9,3 95.9,22 58,3 	"/>
</g>
<polygon fill="#656565" points="58,3 95.9,22 133.9,3 154.1,13 116.1,32 154,51 102,77 5.9,29 "/>
<g>
	<polygon fill="#999999" points="154.1,13 160,16 128,32 160,48 154,51 116.1,32 	"/>
	<polygon fill="#999999" points="64,0 96,16 128,0 133.9,3 95.9,22 58,3 	"/>
</g>
<polygon fill="#656565" points="58,3 95.9,22 133.9,3 154.1,13 116.1,32 154,51 102,77 5.9,29 "/>
<polygon fill="#999999" points="6,29 102,77 96,80 0,32 "/>
<polygon fill="#999999" points="6,29 102,77 96,80 0,32 "/>
<polygon opacity="0.15" points="7.1,28.5 103,76.5 102,77 6,29 "/>
<g>
	<polygon fill="#E5E5E5" points="71.5,36.3 63.5,32.3 64.6,31.7 72.6,35.7 	"/>
	<polygon fill="#E5E5E5" points="112.6,55.7 120.6,59.7 119.4,60.3 111.4,56.3 	"/>
	<polygon fill="#E5E5E5" points="80.6,39.7 88.6,43.7 87.5,44.3 79.5,40.3 	"/>
	<polygon fill="#E5E5E5" points="96.6,47.7 104.6,51.7 103.5,52.3 95.5,48.3 	"/>
</g>
<g>
	<polygon fill="#E5E5E5" points="39.5,20.3 31.5,16.3 32.6,15.7 40.6,19.7 	"/>
	<polygon fill="#E5E5E5" points="48.6,23.7 56.6,27.7 55.5,28.3 47.5,24.3 	"/>
</g>
<g>
	<polygon opacity="0.15" points="58,3 95.9,22 133.9,3 135.1,3.5 96,23 57,3.5 	"/>
	<polygon opacity="0.15" points="152.9,12.5 154.1,13 116.1,32 154,51 152.9,51.5 114,32 	"/>
</g>
</svg>
