<?xml version="1.0" encoding="utf-8"?>
<!-- Generator: Adobe Illustrator 18.1.0, SVG Export Plug-In . SVG Version: 6.00 Build 0)  -->
<svg version="1.1" id="Layer_1" xmlns="http://www.w3.org/2000/svg" xmlns:xlink="http://www.w3.org/1999/xlink" x="0px" y="0px"
	 viewBox="0 0 128 64" enable-background="new 0 0 128 64" xml:space="preserve">
<polygon fill="#999999" points="70,3 64,0 0,32 6,35 "/>
<polygon fill="#999999" points="70,3 64,0 0,32 6,35 "/>
<path fill="#999999" d="M128,32l-6-3l-3.9,2c-0.8,0.4-0.8,1.6,0,2l3.9,2L128,32L128,32L128,32z"/>
<path fill="#999999" d="M66.1,59.1c-1.3-0.7-2.8-0.7-4.2,0L58,61l6,3l0,0l0,0l6-3L66.1,59.1z"/>
<path fill="#999999" d="M128,32l-6-3l-3.9,2c-0.8,0.4-0.8,1.6,0,2l3.9,2L128,32L128,32L128,32z"/>
<path fill="#999999" d="M66.1,59.1c-1.3-0.7-2.8-0.7-4.2,0L58,61l6,3l0,0l0,0l6-3L66.1,59.1z"/>
<path fill="#656565" d="M118.1,33c-0.8-0.4-0.8-1.6,0-2l3.9-2L70,3L6,35l52,26l3.9-1.9c1.3-0.7,2.8-0.7,4.2,0L70,61l52-26L118.1,33z
	"/>
<path fill="#656565" d="M118.1,33c-0.8-0.4-0.8-1.6,0-2l3.9-2L70,3L6,35l52,26l3.9-1.9c1.3-0.7,2.8-0.7,4.2,0L70,61l52-26L118.1,33z
	"/>
<path opacity="0.15" d="M56.9,60.5l1.1,0.6l3.9-1.9c1.3-0.7,2.8-0.7,4.2,0l3.9,1.9l1.1-0.6l-5-2.5c-1.3-0.7-2.8-0.7-4.2,0L56.9,60.5
	z"/>
<path opacity="0.15" d="M118.1,33c-0.8-0.4-0.8-1.6,0-2l3.9-2l-1.1-0.5l-5.1,2.5c-0.8,0.4-0.8,1.6,0,2l5.1,2.5L122,35L118.1,33z"/>
<polygon opacity="0.15" points="71,3.5 70,3 6,35 7.1,35.5 "/>
</svg>
