<?xml version="1.0" encoding="utf-8"?>
<!-- Generator: Adobe Illustrator 18.1.0, SVG Export Plug-In . SVG Version: 6.00 Build 0)  -->
<svg version="1.1" id="Layer_1" xmlns="http://www.w3.org/2000/svg" xmlns:xlink="http://www.w3.org/1999/xlink" x="0px" y="0px"
	 viewBox="0 0 256 128" enable-background="new 0 0 256 128" xml:space="preserve">
<g>
	<polygon fill="#999999" points="64,0 256,96 250,99 58,3 	"/>
	<polygon fill="#999999" points="6,29 198,125 192,128 0,32 	"/>
	<polygon fill="#656565" points="58,3 250,99 198,125 5.9,29 	"/>
	<polygon fill="#999999" points="64,0 256,96 250,99 58,3 	"/>
	<polygon fill="#999999" points="6,29 198,125 192,128 0,32 	"/>
	<polygon fill="#656565" points="58,3 250,99 198,125 5.9,29 	"/>
	<polygon opacity="0.15" points="7.1,28.5 199,124.5 198,125 6,29 	"/>
	<polygon opacity="0.15" points="58,3 250,99 248.9,99.5 57,3.5 	"/>
	<g>
		<polygon fill="#E5E5E5" points="167.5,84.3 159.5,80.3 160.6,79.7 168.6,83.7 		"/>
		<polygon fill="#E5E5E5" points="208.6,103.7 216.6,107.7 215.4,108.3 207.4,104.3 		"/>
		<polygon fill="#E5E5E5" points="176.6,87.7 184.6,91.7 183.5,92.3 175.5,88.3 		"/>
		<polygon fill="#E5E5E5" points="192.6,95.7 200.6,99.7 199.5,100.3 191.5,96.3 		"/>
	</g>
</g>
<g>
	<polygon fill="#E5E5E5" points="80.5,39.7 88.5,43.7 87.4,44.3 79.4,40.3 	"/>
	<polygon fill="#E5E5E5" points="39.4,20.3 31.4,16.3 32.6,15.7 40.6,19.7 	"/>
	<polygon fill="#E5E5E5" points="71.4,36.3 63.4,32.3 64.5,31.7 72.5,35.7 	"/>
	<polygon fill="#E5E5E5" points="55.4,28.3 47.4,24.3 48.5,23.7 56.5,27.7 	"/>
</g>
<g>
	<polygon fill="#E5E5E5" points="144.5,71.7 152.5,75.7 151.4,76.3 143.4,72.3 	"/>
	<polygon fill="#E5E5E5" points="103.4,52.3 95.4,48.3 96.6,47.7 104.6,51.7 	"/>
	<polygon fill="#E5E5E5" points="135.4,68.3 127.4,64.3 128.5,63.7 136.5,67.7 	"/>
	<polygon fill="#E5E5E5" points="119.4,60.3 111.4,56.3 112.5,55.7 120.5,59.7 	"/>
</g>
</svg>
