<?xml version="1.0" encoding="utf-8"?>
<!-- Generator: Adobe Illustrator 18.1.0, SVG Export Plug-In . SVG Version: 6.00 Build 0)  -->
<svg version="1.1" id="Layer_1" xmlns="http://www.w3.org/2000/svg" xmlns:xlink="http://www.w3.org/1999/xlink" x="0px" y="0px"
	 viewBox="0 0 128 64" enable-background="new 0 0 128 64" xml:space="preserve">
<g>
	<g>
		<polygon fill="#999999" points="32,0 128,48 122.1,51 26.1,3 		"/>
		<polygon fill="#999999" points="5.9,13 101.9,61 96,64 0,16 		"/>
	</g>
	<polygon fill="#656565" points="122.1,51 101.9,61 5.9,13 26.1,3 	"/>
	<g>
		<polygon fill="#999999" points="32,0 128,48 122.1,51 26.1,3 		"/>
		<polygon fill="#999999" points="5.9,13 101.9,61 96,64 0,16 		"/>
	</g>
	<polygon fill="#656565" points="122.1,51 101.9,61 5.9,13 26.1,3 	"/>
	<polygon opacity="0.15" points="26.1,3 122.1,51 120.9,51.5 24.9,3.5 	"/>
	<polygon opacity="0.15" points="7.1,12.5 103.1,60.5 101.9,61 5.9,13 	"/>
</g>
</svg>
