<?xml version="1.0" encoding="utf-8"?>
<!-- Generator: Adobe Illustrator 18.1.0, SVG Export Plug-In . SVG Version: 6.00 Build 0)  -->
<svg version="1.1" id="Layer_1" xmlns="http://www.w3.org/2000/svg" xmlns:xlink="http://www.w3.org/1999/xlink" x="0px" y="0px"
	 viewBox="0 0 128 64" enable-background="new 0 0 128 64" xml:space="preserve">
<g>
	<polygon fill="#999999" points="64,0 0,32 6,35 70,3 	"/>
	<polygon fill="#999999" points="122,29 58,61 64,64 128,32 	"/>
	<polygon fill="#656565" points="70,3 6,35 58,61 122.1,29 	"/>
	<polygon fill="#999999" points="64,0 0,32 6,35 70,3 	"/>
	<polygon fill="#999999" points="122,29 58,61 64,64 128,32 	"/>
	<polygon fill="#656565" points="70,3 6,35 58,61 122.1,29 	"/>
	<polygon opacity="0.15" points="120.9,28.5 57,60.5 58,61 122,29 	"/>
	<polygon opacity="0.15" points="70,3 6,35 7.1,35.5 71,3.5 	"/>
	<polygon fill="#E5E5E5" points="31.5,47.7 32.6,48.3 96.5,16.3 95.4,15.7 	"/>
</g>
</svg>
