<?xml version="1.0" encoding="utf-8"?>
<!-- Generator: Adobe Illustrator 18.1.0, SVG Export Plug-In . SVG Version: 6.00 Build 0)  -->
<svg version="1.1" id="Layer_1" xmlns="http://www.w3.org/2000/svg" xmlns:xlink="http://www.w3.org/1999/xlink" x="0px" y="0px"
	 viewBox="0 0 104 96" enable-background="new 0 0 104 96" xml:space="preserve">
<g>
	<path fill="#999999" d="M13,48c0,6.2-4.9,11.9-13,16l6,3c9.8-4.9,15-11.5,15-19S15.8,33.9,6,29l-6,3C8.1,36.1,13,41.8,13,48z"/>
	<path fill="#999999" d="M104,48c0-18.8-15.4-35.7-40-48l-6,3c23,11.5,38,27.5,38,45S81,81.5,58,93l6,3C88.6,83.7,104,66.8,104,48z"
		/>
	<path fill="#656565" d="M58,3L6,29c9.8,4.9,15,11.5,15,19S15.8,62.1,6,67l52,26c23-11.5,38-27.5,38-45S81,14.5,58,3z"/>
	<path fill="#999999" d="M13,48c0,6.2-4.9,11.9-13,16l6,3c9.8-4.9,15-11.5,15-19S15.8,33.9,6,29l-6,3C8.1,36.1,13,41.8,13,48z"/>
	<path fill="#999999" d="M104,48c0-18.8-15.4-35.7-40-48l-6,3c23,11.5,38,27.5,38,45S81,81.5,58,93l6,3C88.6,83.7,104,66.8,104,48z"
		/>
	<path fill="#656565" d="M58,3L6,29c9.8,4.9,15,11.5,15,19S15.8,62.1,6,67l52,26c23-11.5,38-27.5,38-45S81,14.5,58,3z"/>
	<path opacity="0.15" d="M94.5,48c0,17.3-14.8,33.1-37.5,44.5L58,93c23-11.5,38-27.5,38-45S81,14.5,58,3l-1.1,0.5
		C79.6,14.9,94.5,30.7,94.5,48z"/>
	<path opacity="0.15" d="M21,48c0,7.5-5.2,14.1-15,19l1.1,0.5c10-5,15.4-11.9,15.4-19.5S17.1,33.5,7,28.5L6,29
		C15.8,33.9,21,40.5,21,48z"/>
	<path fill="#E5E5E5" d="M58,48c0,12.4-10.2,23.6-26.6,31.7l1.1,0.5C48.9,72,59,60.6,59,48S48.9,24,32.5,15.8l-1.1,0.5
		C47.8,24.4,58,35.6,58,48z"/>
</g>
</svg>
