<?xml version="1.0" encoding="utf-8"?>
<!-- Generator: Adobe Illustrator 18.1.0, SVG Export Plug-In . SVG Version: 6.00 Build 0)  -->
<svg version="1.1" id="Layer_1" xmlns="http://www.w3.org/2000/svg" xmlns:xlink="http://www.w3.org/1999/xlink" x="0px" y="0px"
	 viewBox="0 0 64 32" enable-background="new 0 0 64 32" xml:space="preserve">
<g>
	<path fill="#656565" d="M37.9,29l-4.2-2.1c-1.1-0.6-2.4-0.6-3.6,0L26.1,29L5.9,19l3.9-2c0.8-0.4,0.8-1.6,0-2l-3.9-2L26.1,3l32,16
		L37.9,29z"/>
	<g>
		<path fill="#999999" d="M33.8,26.9l4.2,2.1L32,32l-5.9-3l4.2-2.1C31.3,26.4,32.7,26.4,33.8,26.9z"/>
		<polygon fill="#999999" points="58.1,19 26.1,3 32,0 64,16 		"/>
		<path fill="#999999" d="M9.9,17l-3.9,2L0,16l5.9-3l3.9,2C10.7,15.4,10.7,16.6,9.9,17z"/>
	</g>
	<path fill="#656565" d="M37.9,29l-4.2-2.1c-1.1-0.6-2.4-0.6-3.6,0L26.1,29L5.9,19l3.9-2c0.8-0.4,0.8-1.6,0-2l-3.9-2L26.1,3l32,16
		L37.9,29z"/>
	<g>
		<path fill="#999999" d="M33.8,26.9l4.2,2.1L32,32l-5.9-3l4.2-2.1C31.3,26.4,32.7,26.4,33.8,26.9z"/>
		<polygon fill="#999999" points="58.1,19 26.1,3 32,0 64,16 		"/>
		<path fill="#999999" d="M9.9,17l-3.9,2L0,16l5.9-3l3.9,2C10.7,15.4,10.7,16.6,9.9,17z"/>
	</g>
	<path opacity="0.15" d="M7.1,19.5L5.9,19l3.9-2c0.8-0.4,0.8-1.6,0-2l-3.9-2l1.1-0.6l5.1,2.5c0.8,0.4,0.8,1.6,0,2L7.1,19.5z"/>
	<path opacity="0.15" d="M37.9,29l-4.2-2.1c-1.1-0.6-2.4-0.6-3.6,0L26.1,29l-1.1-0.6l5.3-2.6c1.1-0.6,2.4-0.6,3.6,0l5.3,2.6L37.9,29
		z"/>
	<polygon opacity="0.15" points="56.9,19.5 24.9,3.5 26.1,3 58.1,19 	"/>
</g>
</svg>
