<?xml version="1.0" encoding="utf-8"?>
<!-- Generator: Adobe Illustrator 18.1.0, SVG Export Plug-In . SVG Version: 6.00 Build 0)  -->
<svg version="1.1" id="Layer_1" xmlns="http://www.w3.org/2000/svg" xmlns:xlink="http://www.w3.org/1999/xlink" x="0px" y="0px"
	 viewBox="0 0 192 56" enable-background="new 0 0 192 56" xml:space="preserve">
<g>
	<path fill="#999999" d="M96,6.6c12.4,0,23.9-2.5,32-6.6l6,3c-9.8,4.9-23.1,8.1-38,8.1S67.8,7.9,58,3l6-3C72.1,4.1,83.6,6.6,96,6.6z
		"/>
	<path fill="#999999" d="M96,47.6c35.1,0,67-7.1,90-18.6l6,3c-24.6,12.3-58.4,20.1-96,20.1S24.6,44.3,0,32l6-3
		C29,40.5,60.9,47.6,96,47.6z"/>
	<path fill="#656565" d="M96,47.6c-35.1,0-67-7.1-90-18.6L58,3c9.8,4.9,23.1,8.1,38,8.1s28.2-3.2,38-8.1l52,26
		C163,40.5,131.1,47.6,96,47.6z"/>
	<path fill="#999999" d="M96,6.6c12.4,0,23.9-2.5,32-6.6l6,3c-9.8,4.9-23.1,8.1-38,8.1S67.8,7.9,58,3l6-3C72.1,4.1,83.6,6.6,96,6.6z
		"/>
	<path fill="#999999" d="M96,47.6c35.1,0,67-7.1,90-18.6l6,3c-24.6,12.3-58.4,20.1-96,20.1S24.6,44.3,0,32l6-3
		C29,40.5,60.9,47.6,96,47.6z"/>
	<path fill="#656565" d="M96,47.6c-35.1,0-67-7.1-90-18.6L58,3c9.8,4.9,23.1,8.1,38,8.1s28.2-3.2,38-8.1l52,26
		C163,40.5,131.1,47.6,96,47.6z"/>
	<path fill="#656565" d="M6,29L7,28.5c22.7,11.4,54.3,18.4,89,18.4s66.2-7,88.9-18.4L186,29c-23,11.5-54.9,18.6-90,18.6
		S29,40.5,6,29z"/>
	<path opacity="0.15" d="M6,29L7,28.5c22.7,11.4,54.3,18.4,89,18.4s66.2-7,88.9-18.4L186,29c-23,11.5-54.9,18.6-90,18.6
		S29,40.5,6,29z"/>
	<path fill="#656565" d="M57,3.5L58,3c9.8,4.9,23.1,8.1,38,8.1s28.2-3.2,38-8.1l1.1,0.5c-10,5-23.7,8.3-39,8.3S67,8.5,57,3.5z"/>
	<path opacity="0.15" d="M57,3.5L58,3c9.8,4.9,23.1,8.1,38,8.1s28.2-3.2,38-8.1l1.1,0.5c-10,5-23.7,8.3-39,8.3S67,8.5,57,3.5z"/>
	<path fill="#E5E5E5" d="M96,28.8c24.7,0,47.1-5,63.4-13l1.1,0.5C144,24.7,121.2,29.8,96,29.8s-48-5.2-64.5-13.5l1.1-0.5
		C48.9,23.9,71.3,28.8,96,28.8z"/>
</g>
</svg>
