<?xml version="1.0" encoding="utf-8"?>
<!-- Generator: Adobe Illustrator 18.1.0, SVG Export Plug-In . SVG Version: 6.00 Build 0)  -->
<svg version="1.1" id="Layer_1" xmlns="http://www.w3.org/2000/svg" xmlns:xlink="http://www.w3.org/1999/xlink" x="0px" y="0px"
	 viewBox="0 0 128 64" enable-background="new 0 0 128 64" xml:space="preserve">
<g>
	<polygon fill="#999999" points="64,0 128,32 122,35 58,3 	"/>
	<polygon fill="#999999" points="6,29 70,61 64,64 0,32 	"/>
	<polygon fill="#656565" points="58,3 122,35 70,61 5.9,29 	"/>
	<polygon fill="#999999" points="64,0 128,32 122,35 58,3 	"/>
	<polygon fill="#999999" points="6,29 70,61 64,64 0,32 	"/>
	<polygon fill="#656565" points="58,3 122,35 70,61 5.9,29 	"/>
	<polygon opacity="0.15" points="7.1,28.5 71,60.5 70,61 6,29 	"/>
	<polygon opacity="0.15" points="58,3 122,35 120.9,35.5 57,3.5 	"/>
	<polygon fill="#E5E5E5" points="96.5,47.7 95.4,48.3 31.5,16.3 32.6,15.7 	"/>
</g>
</svg>
