<?xml version="1.0" encoding="utf-8"?>
<!-- Generator: Adobe Illustrator 18.1.0, SVG Export Plug-In . SVG Version: 6.00 Build 0)  -->
<svg version="1.1" id="Layer_1" xmlns="http://www.w3.org/2000/svg" xmlns:xlink="http://www.w3.org/1999/xlink" x="0px" y="0px"
	 viewBox="0 0 128 128" enable-background="new 0 0 128 128" xml:space="preserve">
<g>
	<g>
		<polygon fill="#E5E5E5" points="64,0 0,32 0,96 64,128 128,96 128,32 		"/>
		<g>
			<polygon fill="#3399CC" points="128,94 64,126 64,112 128,80 			"/>
			<polygon opacity="0.15" points="128,83 64,115 64,112 128,80 			"/>
			<polygon opacity="0.15" points="128,81 64,113 64,112 128,80 			"/>
			<polygon opacity="0.3" fill="#FFFFFF" points="123,95.5 119,97.5 119,84.5 123,82.5 			"/>
			<polygon opacity="0.2" fill="#FFFFFF" points="128,93 124,95 124,82 128,80 			"/>
			<polygon opacity="0.3" fill="#FFFFFF" points="118,98 114,100 114,87 118,85 			"/>
			<polygon opacity="0.2" fill="#FFFFFF" points="113,100.5 109,102.5 109,89.5 113,87.5 			"/>
			<polygon opacity="0.2" fill="#FFFFFF" points="108,103 104,105 104,92 108,90 			"/>
			<polygon opacity="0.3" fill="#FFFFFF" points="83,115.5 79,117.5 79,104.5 83,102.5 			"/>
			<polygon opacity="0.3" fill="#FFFFFF" points="78,118 74,120 74,107 78,105 			"/>
			<polygon fill="#3399CC" points="128,78 64,110 64,96 128,64 			"/>
			<polygon opacity="0.15" points="128,67 64,99 64,96 128,64 			"/>
			<polygon opacity="0.15" points="128,65 64,97 64,96 128,64 			"/>
			<polygon opacity="0.3" fill="#FFFFFF" points="103,89.5 99,91.5 99,78.5 103,76.5 			"/>
			<polygon opacity="0.2" fill="#FFFFFF" points="108,87 104,89 104,76 108,74 			"/>
			<polygon opacity="0.3" fill="#FFFFFF" points="98,92 94,94 94,81 98,79 			"/>
			<polygon opacity="0.2" fill="#FFFFFF" points="93,94.5 89,96.5 89,83.5 93,81.5 			"/>
			<polygon opacity="0.2" fill="#FFFFFF" points="88,97 84,99 84,86 88,84 			"/>
			<polygon fill="#3399CC" points="128,62 64,94 64,80 128,48 			"/>
			<polygon opacity="0.15" points="128,51 64,83 64,80 128,48 			"/>
			<polygon opacity="0.15" points="128,49 64,81 64,80 128,48 			"/>
			<polygon opacity="0.3" fill="#FFFFFF" points="113,68.5 109,70.5 109,57.5 113,55.5 			"/>
			<polygon opacity="0.2" fill="#FFFFFF" points="108,71 104,73 104,60 108,58 			"/>
			<polygon opacity="0.2" fill="#FFFFFF" points="103,73.5 99,75.5 99,62.5 103,60.5 			"/>
			<polygon opacity="0.3" fill="#FFFFFF" points="73,88.5 69,90.5 69,77.5 73,75.5 			"/>
			<polygon opacity="0.3" fill="#FFFFFF" points="68,91 64,93 64,80 68,78 			"/>
			<polygon fill="#3399CC" points="128,46 64,78 64,64 128,32 			"/>
			<polygon opacity="0.15" points="128,35 64,67 64,64 128,32 			"/>
			<polygon opacity="0.15" points="128,33 64,65 64,64 128,32 			"/>
			<polygon opacity="0.3" fill="#FFFFFF" points="118,50 114,52 114,39 118,37 			"/>
			<polygon opacity="0.2" fill="#FFFFFF" points="123,47.5 119,49.5 119,36.5 123,34.5 			"/>
			<polygon opacity="0.3" fill="#FFFFFF" points="93,62.5 89,64.5 89,51.5 93,49.5 			"/>
			<polygon opacity="0.2" fill="#FFFFFF" points="88,65 84,67 84,54 88,52 			"/>
			<polygon opacity="0.2" fill="#FFFFFF" points="83,67.5 79,69.5 79,56.5 83,54.5 			"/>
			<polygon opacity="0.7" fill="#FFFFFF" points="69,124.5 68,125 68,62 69,61.5 			"/>
			<polygon opacity="0.7" fill="#FFFFFF" points="74,122 73,122.5 73,59.5 74,59 			"/>
			<polygon opacity="0.7" fill="#FFFFFF" points="79,119.5 78,120 78,57 79,56.5 			"/>
			<polygon opacity="0.7" fill="#FFFFFF" points="84,117 83,117.5 83,54.5 84,54 			"/>
			<polygon opacity="0.7" fill="#FFFFFF" points="89,114.5 88,115 88,52 89,51.5 			"/>
			<polygon opacity="0.7" fill="#FFFFFF" points="94,112 93,112.5 93,49.5 94,49 			"/>
			<polygon opacity="0.7" fill="#FFFFFF" points="99,109.5 98,110 98,47 99,46.5 			"/>
			<polygon opacity="0.7" fill="#FFFFFF" points="104,107 103,107.5 103,44.5 104,44 			"/>
			<polygon opacity="0.7" fill="#FFFFFF" points="109,104.5 108,105 108,42 109,41.5 			"/>
			<polygon opacity="0.7" fill="#FFFFFF" points="114,102 113,102.5 113,39.5 114,39 			"/>
			<polygon opacity="0.7" fill="#FFFFFF" points="119,99.5 118,100 118,37 119,36.5 			"/>
			<polygon opacity="0.7" fill="#FFFFFF" points="124,97 123,97.5 123,34.5 124,34 			"/>
			<polygon fill="#E5E5E5" points="128,96 64,128 64,125 128,93 			"/>
			<polygon fill="#E5E5E5" points="128,80 64,112 64,109 128,77 			"/>
			<polygon fill="#E5E5E5" points="128,64 64,96 64,93 128,61 			"/>
			<polygon fill="#E5E5E5" points="128,48 64,80 64,77 128,45 			"/>
		</g>
		<g>
			<polygon fill="#3399CC" points="64,126 0,94 0,80 64,112 			"/>
			<polygon opacity="0.15" points="64,115 0,83 0,80 64,112 			"/>
			<polygon opacity="0.15" points="64,113 0,81 0,80 64,112 			"/>
			<polygon opacity="0.2" fill="#FFFFFF" points="64,125 60,123 60,110 64,112 			"/>
			<polygon opacity="0.2" fill="#FFFFFF" points="59,122.5 55,120.5 55,107.5 59,109.5 			"/>
			<polygon opacity="0.2" fill="#FFFFFF" points="54,120 50,118 50,105 54,107 			"/>
			<polygon opacity="0.3" fill="#FFFFFF" points="19,102.5 15,100.5 15,87.5 19,89.5 			"/>
			<polygon opacity="0.3" fill="#FFFFFF" points="24,105 20,103 20,90 24,92 			"/>
			<polygon opacity="0.3" fill="#FFFFFF" points="14,100 10,98 10,85 14,87 			"/>
			<polygon fill="#3399CC" points="64,110 0,78 0,64 64,96 			"/>
			<polygon opacity="0.15" points="64,99 0,67 0,64 64,96 			"/>
			<polygon opacity="0.15" points="64,97 0,65 0,64 64,96 			"/>
			<polygon opacity="0.3" fill="#FFFFFF" points="39,96.5 35,94.5 35,81.5 39,83.5 			"/>
			<polygon opacity="0.2" fill="#FFFFFF" points="44,99 40,97 40,84 44,86 			"/>
			<polygon opacity="0.3" fill="#FFFFFF" points="34,94 30,92 30,79 34,81 			"/>
			<polygon opacity="0.2" fill="#FFFFFF" points="14,84 10,82 10,69 14,71 			"/>
			<polygon opacity="0.2" fill="#FFFFFF" points="9,81.5 5,79.5 5,66.5 9,68.5 			"/>
			<polygon fill="#3399CC" points="64,94 0,62 0,48 64,80 			"/>
			<polygon opacity="0.15" points="64,83 0,51 0,48 64,80 			"/>
			<polygon opacity="0.15" points="64,81 0,49 0,48 64,80 			"/>
			<polygon opacity="0.3" fill="#FFFFFF" points="54,88 50,86 50,73 54,75 			"/>
			<polygon opacity="0.2" fill="#FFFFFF" points="49,85.5 45,83.5 45,70.5 49,72.5 			"/>
			<polygon opacity="0.2" fill="#FFFFFF" points="44,83 40,81 40,68 44,70 			"/>
			<polygon opacity="0.3" fill="#FFFFFF" points="9,65.5 5,63.5 5,50.5 9,52.5 			"/>
			<polygon opacity="0.3" fill="#FFFFFF" points="4,63 0,61 0,48 4,50 			"/>
			<polygon fill="#3399CC" points="64,78 0,46 0,32 64,64 			"/>
			<polygon opacity="0.15" points="64,67 0,35 0,32 64,64 			"/>
			<polygon opacity="0.15" points="64,65 0,33 0,32 64,64 			"/>
			<polygon opacity="0.3" fill="#FFFFFF" points="59,74.5 55,72.5 55,59.5 59,61.5 			"/>
			<polygon opacity="0.2" fill="#FFFFFF" points="64,77 60,75 60,62 64,64 			"/>
			<polygon opacity="0.3" fill="#FFFFFF" points="29,59.5 25,57.5 25,44.5 29,46.5 			"/>
			<polygon opacity="0.3" fill="#FFFFFF" points="34,62 30,60 30,47 34,49 			"/>
			<polygon opacity="0.2" fill="#FFFFFF" points="24,57 20,55 20,42 24,44 			"/>
			<polygon opacity="0.2" fill="#FFFFFF" points="19,54.5 15,52.5 15,39.5 19,41.5 			"/>
			<polygon opacity="0.7" fill="#FFFFFF" points="5,97.5 4,97 4,34 5,34.5 			"/>
			<polygon opacity="0.7" fill="#FFFFFF" points="10,100 9,99.5 9,36.5 10,37 			"/>
			<polygon opacity="0.7" fill="#FFFFFF" points="15,102.5 14,102 14,39 15,39.5 			"/>
			<polygon opacity="0.7" fill="#FFFFFF" points="20,105 19,104.5 19,41.5 20,42 			"/>
			<polygon opacity="0.7" fill="#FFFFFF" points="25,107.5 24,107 24,44 25,44.5 			"/>
			<polygon opacity="0.7" fill="#FFFFFF" points="30,110 29,109.5 29,46.5 30,47 			"/>
			<polygon opacity="0.7" fill="#FFFFFF" points="35,112.5 34,112 34,49 35,49.5 			"/>
			<polygon opacity="0.7" fill="#FFFFFF" points="40,115 39,114.5 39,51.5 40,52 			"/>
			<polygon opacity="0.7" fill="#FFFFFF" points="45,117.5 44,117 44,54 45,54.5 			"/>
			<polygon opacity="0.7" fill="#FFFFFF" points="50,120 49,119.5 49,56.5 50,57 			"/>
			<polygon opacity="0.7" fill="#FFFFFF" points="55,122.5 54,122 54,59 55,59.5 			"/>
			<polygon opacity="0.7" fill="#FFFFFF" points="60,125 59,124.5 59,61.5 60,62 			"/>
			<polygon fill="#E5E5E5" points="64,128 0,96 0,93 64,125 			"/>
			<polygon fill="#E5E5E5" points="64,112 0,80 0,77 64,109 			"/>
			<polygon fill="#E5E5E5" points="64,96 0,64 0,61 64,93 			"/>
			<polygon fill="#E5E5E5" points="64,80 0,48 0,45 64,77 			"/>
		</g>
		<polygon opacity="0.39" points="128,96 64,128 64,64 128,32 		"/>
		<polygon opacity="0.06" points="0,96 64,128 64,64 0,32 		"/>
	</g>
	<polygon opacity="0.25" points="8.9,32 64,4.5 119.1,32 64,59.5 	"/>
	<polygon opacity="0.39" points="64,6.5 64,4.5 8.9,32 10.9,33 	"/>
	<polygon opacity="0.06" points="64,6.5 117.1,33 119.1,32 64,4.5 	"/>
	<g>
		<polygon fill="#999999" points="66,9 42,21 42,23 54,29 78,17 78,15 		"/>
		<polygon opacity="0.39" points="78,17 54,29 54,27 78,15 		"/>
		<polygon opacity="0.06" points="42,23 54,29 54,27 42,21 		"/>
		<path fill="#2D3134" d="M65,13c-2.8,0-5,1.1-5,2.5s2.2,2.5,5,2.5s5-1.1,5-2.5S67.8,13,65,13z M65,17c-1.7,0-3-0.7-3-1.5
			s1.3-1.5,3-1.5s3,0.7,3,1.5S66.7,17,65,17z"/>
		<path fill="#2D3134" d="M55,18c-2.8,0-5,1.1-5,2.5s2.2,2.5,5,2.5s5-1.1,5-2.5S57.8,18,55,18z M55,22c-1.7,0-3-0.7-3-1.5
			s1.3-1.5,3-1.5s3,0.7,3,1.5S56.7,22,55,22z"/>
	</g>
	<g>
		<polygon fill="#999999" points="84,18 60,30 60,32 72,38 96,26 96,24 		"/>
		<polygon opacity="0.39" points="96,26 72,38 72,36 96,24 		"/>
		<polygon opacity="0.06" points="60,32 72,38 72,36 60,30 		"/>
		<path fill="#2D3134" d="M83,22c-2.8,0-5,1.1-5,2.5s2.2,2.5,5,2.5s5-1.1,5-2.5S85.8,22,83,22z M83,26c-1.7,0-3-0.7-3-1.5
			s1.3-1.5,3-1.5s3,0.7,3,1.5S84.7,26,83,26z"/>
		<path fill="#2D3134" d="M73,27c-2.8,0-5,1.1-5,2.5s2.2,2.5,5,2.5s5-1.1,5-2.5S75.8,27,73,27z M73,31c-1.7,0-3-0.7-3-1.5
			s1.3-1.5,3-1.5s3,0.7,3,1.5S74.7,31,73,31z"/>
	</g>
</g>
</svg>
