<?xml version="1.0" encoding="utf-8"?>
<!-- Generator: Adobe Illustrator 18.1.0, SVG Export Plug-In . SVG Version: 6.00 Build 0)  -->
<svg version="1.1" id="Layer_1" xmlns="http://www.w3.org/2000/svg" xmlns:xlink="http://www.w3.org/1999/xlink" x="0px" y="0px"
	 viewBox="0 0 96 96" enable-background="new 0 0 96 96" xml:space="preserve">
<g>
	<g>
		<polygon fill="#E5E5E5" points="48,0 0,24 0,72 48,96 96,72 96,24 		"/>
		<g>
			<polygon fill="#3399CC" points="57,57.5 51,60.5 51,48.5 57,45.5 			"/>
			<polygon opacity="0.15" fill="#262626" points="57,57.5 51,48.5 57,45.5 			"/>
			<polygon opacity="0.45" fill="#262626" points="56,46 56,57 51,59.5 51,60.5 57,57.5 57,45.5 			"/>
			<polygon fill="#3399CC" points="69,51.5 63,54.5 63,42.5 69,39.5 			"/>
			<polygon opacity="0.45" fill="#262626" points="68,40 68,51 63,53.5 63,54.5 69,51.5 69,39.5 			"/>
			<polygon fill="#3399CC" points="81,45.5 75,48.5 75,36.5 81,33.5 			"/>
			<polygon opacity="0.45" fill="#262626" points="80,34 80,45 75,47.5 75,48.5 81,45.5 81,33.5 			"/>
			<polygon fill="#3399CC" points="93,39.5 87,42.5 87,30.5 93,27.5 			"/>
			<polygon opacity="0.45" fill="#262626" points="92,28 92,39 87,41.5 87,42.5 93,39.5 93,27.5 			"/>
			<polygon fill="#3399CC" points="57,73.5 51,76.5 51,64.5 57,61.5 			"/>
			<polygon opacity="0.45" fill="#262626" points="56,62 56,73 51,75.5 51,76.5 57,73.5 57,61.5 			"/>
			<polygon fill="#3399CC" points="69,67.5 63,70.5 63,58.5 69,55.5 			"/>
			<polygon opacity="0.15" fill="#262626" points="69,67.5 63,58.5 69,55.5 			"/>
			<polygon opacity="0.45" fill="#262626" points="68,56 68,67 63,69.5 63,70.5 69,67.5 69,55.5 			"/>
			<polygon fill="#3399CC" points="81,61.5 75,64.5 75,52.5 81,49.5 			"/>
			<polygon opacity="0.45" fill="#262626" points="80,50 80,61 75,63.5 75,64.5 81,61.5 81,49.5 			"/>
			<polygon fill="#3399CC" points="93,55.5 87,58.5 87,46.5 93,43.5 			"/>
			<polygon opacity="0.2" fill="#FFFFFF" points="93,55.5 87,58.5 87,49 			"/>
			<polygon opacity="0.45" fill="#262626" points="92,44 92,55 87,57.5 87,58.5 93,55.5 93,43.5 			"/>
			<polygon fill="#3399CC" points="57,89.5 51,92.5 51,80.5 57,77.5 			"/>
			<polygon opacity="0.45" fill="#262626" points="56,78 56,89 51,91.5 51,92.5 57,89.5 57,77.5 			"/>
			<polygon fill="#3399CC" points="69,83.5 63,86.5 63,74.5 69,71.5 			"/>
			<polygon opacity="0.15" fill="#262626" points="69,83.5 63,74.5 69,71.5 			"/>
			<polygon opacity="0.45" fill="#262626" points="68,72 68,83 63,85.5 63,86.5 69,83.5 69,71.5 			"/>
			<polygon fill="#3399CC" points="81,77.5 75,80.5 75,68.5 81,65.5 			"/>
			<polygon opacity="0.45" fill="#262626" points="80,66 80,77 75,79.5 75,80.5 81,77.5 81,65.5 			"/>
			<polygon fill="#3399CC" points="93,71.5 87,74.5 87,62.5 93,59.5 			"/>
			<polygon opacity="0.45" fill="#262626" points="92,60 92,71 87,73.5 87,74.5 93,71.5 93,59.5 			"/>
			<polygon opacity="0.25" fill="#262626" points="95,72.5 96,72 96,24 95,24.5 			"/>
			<polygon opacity="0.25" fill="#262626" points="83,78.5 85,77.5 85,29.5 83,30.5 			"/>
			<polygon opacity="0.25" fill="#262626" points="71,84.5 73,83.5 73,35.5 71,36.5 			"/>
			<polygon opacity="0.25" fill="#262626" points="59,90.5 61,89.5 61,41.5 59,42.5 			"/>
			<polygon opacity="0.25" fill="#262626" points="49,95.5 49,47.5 48,48 48,96 			"/>
		</g>
		<g>
			<polygon fill="#3399CC" points="39,57.5 45,60.5 45,48.5 39,45.5 			"/>
			<polygon opacity="0.45" fill="#262626" points="40,46 40,57 45,59.5 45,60.5 39,57.5 39,45.5 			"/>
			<polygon fill="#3399CC" points="27,51.5 33,54.5 33,42.5 27,39.5 			"/>
			<polygon opacity="0.15" fill="#262626" points="33,54.5 33,42.5 27,39.5 			"/>
			<polygon opacity="0.45" fill="#262626" points="28,40 28,51 33,53.5 33,54.5 27,51.5 27,39.5 			"/>
			<polygon fill="#3399CC" points="15,45.5 21,48.5 21,36.5 15,33.5 			"/>
			<polygon opacity="0.45" fill="#262626" points="16,34 16,45 21,47.5 21,48.5 15,45.5 15,33.5 			"/>
			<polygon fill="#3399CC" points="3,39.5 9,42.5 9,30.5 3,27.5 			"/>
			<polygon opacity="0.45" fill="#262626" points="4,28 4,39 9,41.5 9,42.5 3,39.5 3,27.5 			"/>
			<polygon fill="#3399CC" points="39,73.5 45,76.5 45,64.5 39,61.5 			"/>
			<polygon opacity="0.2" fill="#FFFFFF" points="39,73.5 45,76.5 39,64 			"/>
			<polygon opacity="0.45" fill="#262626" points="40,62 40,73 45,75.5 45,76.5 39,73.5 39,61.5 			"/>
			<polygon fill="#3399CC" points="27,67.5 33,70.5 33,58.5 27,55.5 			"/>
			<polygon opacity="0.45" fill="#262626" points="28,56 28,67 33,69.5 33,70.5 27,67.5 27,55.5 			"/>
			<polygon fill="#3399CC" points="15,61.5 21,64.5 21,52.5 15,49.5 			"/>
			<polygon opacity="0.45" fill="#262626" points="16,50 16,61 21,63.5 21,64.5 15,61.5 15,49.5 			"/>
			<polygon fill="#3399CC" points="3,55.5 9,58.5 9,46.5 3,43.5 			"/>
			<polygon opacity="0.15" fill="#262626" points="9,58.5 9,46.5 3,43.5 			"/>
			<polygon opacity="0.45" fill="#262626" points="4,44 4,55 9,57.5 9,58.5 3,55.5 3,43.5 			"/>
			<polygon fill="#3399CC" points="39,89.5 45,92.5 45,80.5 39,77.5 			"/>
			<polygon opacity="0.45" fill="#262626" points="40,78 40,89 45,91.5 45,92.5 39,89.5 39,77.5 			"/>
			<polygon fill="#3399CC" points="27,83.5 33,86.5 33,74.5 27,71.5 			"/>
			<polygon opacity="0.45" fill="#262626" points="28,72 28,83 33,85.5 33,86.5 27,83.5 27,71.5 			"/>
			<polygon fill="#3399CC" points="15,77.5 21,80.5 21,68.5 15,65.5 			"/>
			<polygon opacity="0.2" fill="#FFFFFF" points="15,77.5 21,80.5 15,65.5 			"/>
			<polygon opacity="0.45" fill="#262626" points="16,66 16,77 21,79.5 21,80.5 15,77.5 15,65.5 			"/>
			<polygon fill="#3399CC" points="3,71.5 9,74.5 9,62.5 3,59.5 			"/>
			<polygon opacity="0.45" fill="#262626" points="4,60 4,71 9,73.5 9,74.5 3,71.5 3,59.5 			"/>
			<polygon opacity="0.25" fill="#262626" points="1,72.5 0,72 0,24 1,24.5 			"/>
			<polygon opacity="0.25" fill="#262626" points="13,78.5 11,77.5 11,29.5 13,30.5 			"/>
			<polygon opacity="0.25" fill="#262626" points="25,84.5 23,83.5 23,35.5 25,36.5 			"/>
			<polygon opacity="0.25" fill="#262626" points="37,90.5 35,89.5 35,41.5 37,42.5 			"/>
			<polygon opacity="0.25" fill="#262626" points="47,95.5 47,47.5 48,48 48,96 			"/>
		</g>
		<polygon opacity="0.39" points="96,72 48,96 48,48 96,24 		"/>
		<polygon opacity="0.06" points="48,96 0,72 0,24 48,48 		"/>
	</g>
	<g>
		<polygon fill="#E5E5E5" points="45,9 69,21 69,23 57,29 33,17 33,15 		"/>
		<polygon opacity="0.06" points="33,17 57,29 57,27 33,15 		"/>
		<polygon opacity="0.39" points="69,23 57,29 57,27 69,21 		"/>
		<path fill="#999999" d="M41,15.5c0,1.4,2.2,2.5,5,2.5s5-1.1,5-2.5S48.8,13,46,13S41,14.1,41,15.5z M43,15.5c0-0.8,1.3-1.5,3-1.5
			s3,0.7,3,1.5S47.7,17,46,17S43,16.3,43,15.5z"/>
		<path fill="#999999" d="M51,20.5c0,1.4,2.2,2.5,5,2.5s5-1.1,5-2.5S58.8,18,56,18S51,19.1,51,20.5z M53,20.5c0-0.8,1.3-1.5,3-1.5
			s3,0.7,3,1.5S57.7,22,56,22S53,21.3,53,20.5z"/>
	</g>
</g>
</svg>
