<?xml version="1.0" encoding="utf-8"?>
<!-- Generator: Adobe Illustrator 18.1.0, SVG Export Plug-In . SVG Version: 6.00 Build 0)  -->
<svg version="1.1" id="Layer_1" xmlns="http://www.w3.org/2000/svg" xmlns:xlink="http://www.w3.org/1999/xlink" x="0px" y="0px"
	 viewBox="0 0 48 56" enable-background="new 0 0 48 56" xml:space="preserve">
<g>
	<polygon fill="#E5E5E5" points="16,0 0,8 0,40 32,56 48,48 48,16 	"/>
	<polygon opacity="0.39" points="48,48 32,56 32,24 48,16 	"/>
	<g>
		<polygon fill="#3399CC" points="2,14.5 2,41 30,55 30,27.6 		"/>
		<polygon opacity="0.45" fill="#262626" points="3,40.5 3,15 2,14.5 2,41 30,55 30,54 		"/>
		<polygon opacity="0.5" fill="#E5E5E5" points="1,20.5 1,21.5 30,35 30,34 		"/>
		<polygon opacity="0.5" fill="#E5E5E5" points="1,27.5 1,28.5 30,42 30,41 		"/>
		<polygon fill="#E5E5E5" points="10,45 11,45.5 11,18.3 10,17.9 		"/>
		<polygon fill="#E5E5E5" points="6,43 7,43.5 7,15.5 6,15 		"/>
		<polygon fill="#E5E5E5" points="14,47 15,47.5 15,20.3 14,19.9 		"/>
		<polygon fill="#E5E5E5" points="22,51 23,51.5 23,24 22,23.5 		"/>
		<polygon fill="#E5E5E5" points="18,49 19,49.5 19,22.1 18,21.7 		"/>
		<polygon fill="#E5E5E5" points="26,53 27,53.5 27,26 26,25.5 		"/>
	</g>
	<polygon opacity="0.2" fill="#FFFFFF" points="30,27 19,48 30,35.1 	"/>
	<polygon opacity="0.1" fill="#FFFFFF" points="2,40.8 2.4,41 26,25.3 2,30.8 	"/>
	<polygon opacity="0.15" fill="#FFFFFF" points="15.6,20.9 2.9,30 20,23 	"/>
	<polygon opacity="0.06" points="0,40 32,56 32,24 0,8 	"/>
</g>
</svg>
