<?xml version="1.0" encoding="utf-8"?>
<!-- Generator: Adobe Illustrator 18.1.0, SVG Export Plug-In . SVG Version: 6.00 Build 0)  -->
<svg version="1.1" id="Layer_1" xmlns="http://www.w3.org/2000/svg" xmlns:xlink="http://www.w3.org/1999/xlink" x="0px" y="0px"
	 viewBox="0 0 128 120" enable-background="new 0 0 128 120" xml:space="preserve">
<g>
	<polygon fill="#2D3134" points="64,2 0,34 0,87 64,119 128,87 128,34 	"/>
	<g>
		<polygon fill="#3399CC" points="128,86 64,118 64,104 128,72 		"/>
		<polygon opacity="0.15" points="128,75 64,107 64,104 128,72 		"/>
		<polygon opacity="0.15" points="128,73 64,105 64,104 128,72 		"/>
		<polygon opacity="0.3" fill="#FFFFFF" points="123,87.5 119,89.5 119,76.5 123,74.5 		"/>
		<polygon opacity="0.2" fill="#FFFFFF" points="128,85 124,87 124,74 128,72 		"/>
		<polygon opacity="0.3" fill="#FFFFFF" points="118,90 114,92 114,79 118,77 		"/>
		<polygon opacity="0.3" fill="#FFFFFF" points="88,105 84,107 84,94 88,92 		"/>
		<polygon opacity="0.3" fill="#FFFFFF" points="83,107.5 79,109.5 79,96.5 83,94.5 		"/>
		<polygon fill="#3399CC" points="128,70 64,102 64,88 128,56 		"/>
		<polygon opacity="0.15" points="128,59 64,91 64,88 128,56 		"/>
		<polygon opacity="0.15" points="128,57 64,89 64,88 128,56 		"/>
		<polygon opacity="0.3" fill="#FFFFFF" points="88,89 84,91 84,78 88,76 		"/>
		<polygon opacity="0.2" fill="#FFFFFF" points="93,86.5 89,88.5 89,75.5 93,73.5 		"/>
		<polygon opacity="0.3" fill="#FFFFFF" points="83,91.5 79,93.5 79,80.5 83,78.5 		"/>
		<polygon opacity="0.2" fill="#FFFFFF" points="78,94 74,96 74,83 78,81 		"/>
		<polygon opacity="0.2" fill="#FFFFFF" points="73,96.5 69,98.5 69,85.5 73,83.5 		"/>
		<polygon fill="#3399CC" points="128,54 64,86 64,72 128,40 		"/>
		<polygon opacity="0.15" points="128,43 64,75 64,72 128,40 		"/>
		<polygon opacity="0.15" points="128,41 64,73 64,72 128,40 		"/>
		<polygon opacity="0.3" fill="#FFFFFF" points="118,58 114,60 114,47 118,45 		"/>
		<polygon opacity="0.2" fill="#FFFFFF" points="113,60.5 109,62.5 109,49.5 113,47.5 		"/>
		<polygon opacity="0.2" fill="#FFFFFF" points="108,63 104,65 104,52 108,50 		"/>
		<polygon opacity="0.3" fill="#FFFFFF" points="73,80.5 69,82.5 69,69.5 73,67.5 		"/>
		<polygon opacity="0.3" fill="#FFFFFF" points="78,78 74,80 74,67 78,65 		"/>
		<polygon opacity="0.3" fill="#FFFFFF" points="68,83 64,85 64,72 68,70 		"/>
		<polygon opacity="0.7" fill="#FFFFFF" points="69,116.5 68,117 68,69 69,68.5 		"/>
		<polygon opacity="0.7" fill="#FFFFFF" points="74,114 73,114.5 73,66.5 74,66 		"/>
		<polygon opacity="0.7" fill="#FFFFFF" points="79,111.5 78,112 78,64 79,63.5 		"/>
		<polygon opacity="0.7" fill="#FFFFFF" points="84,109 83,109.5 83,61.5 84,61 		"/>
		<polygon opacity="0.7" fill="#FFFFFF" points="89,106.5 88,107 88,59 89,58.5 		"/>
		<polygon opacity="0.7" fill="#FFFFFF" points="94,104 93,104.5 93,56.5 94,56 		"/>
		<polygon opacity="0.7" fill="#FFFFFF" points="99,101.5 98,102 98,54 99,53.5 		"/>
		<polygon opacity="0.7" fill="#FFFFFF" points="104,99 103,99.5 103,51.5 104,51 		"/>
		<polygon opacity="0.7" fill="#FFFFFF" points="109,96.5 108,97 108,49 109,48.5 		"/>
		<polygon opacity="0.7" fill="#FFFFFF" points="114,94 113,94.5 113,46.5 114,46 		"/>
		<polygon opacity="0.7" fill="#FFFFFF" points="119,91.5 118,92 118,44 119,43.5 		"/>
		<polygon opacity="0.7" fill="#FFFFFF" points="124,89 123,89.5 123,41.5 124,41 		"/>
		<polygon fill="#E5E5E5" points="128,88 64,120 64,117 128,85 		"/>
		<polygon fill="#E5E5E5" points="128,72 64,104 64,101 128,69 		"/>
		<polygon fill="#E5E5E5" points="128,56 64,88 64,85 128,53 		"/>
		<polygon fill="#2D3134" points="128,40 64,72 64,66 128,34 		"/>
	</g>
	<polygon opacity="0.39" points="64,66 64,120 128,88 128,34 	"/>
	<g>
		<polygon fill="#3399CC" points="64,118 0,86 0,72 64,104 		"/>
		<polygon opacity="0.15" points="64,107 0,75 0,72 64,104 		"/>
		<polygon opacity="0.15" points="64,105 0,73 0,72 64,104 		"/>
		<polygon opacity="0.3" fill="#FFFFFF" points="59,114.5 55,112.5 55,99.5 59,101.5 		"/>
		<polygon opacity="0.2" fill="#FFFFFF" points="64,117 60,115 60,102 64,104 		"/>
		<polygon opacity="0.3" fill="#FFFFFF" points="54,112 50,110 50,97 54,99 		"/>
		<polygon opacity="0.3" fill="#FFFFFF" points="49,109.5 45,107.5 45,94.5 49,96.5 		"/>
		<polygon fill="#3399CC" points="64,102 0,70 0,56 64,88 		"/>
		<polygon opacity="0.15" points="64,91 0,59 0,56 64,88 		"/>
		<polygon opacity="0.15" points="64,89 0,57 0,56 64,88 		"/>
		<polygon opacity="0.3" fill="#FFFFFF" points="24,81 20,79 20,66 24,68 		"/>
		<polygon opacity="0.2" fill="#FFFFFF" points="29,83.5 25,81.5 25,68.5 29,70.5 		"/>
		<polygon opacity="0.2" fill="#FFFFFF" points="34,86 30,84 30,71 34,73 		"/>
		<polygon opacity="0.3" fill="#FFFFFF" points="19,78.5 15,76.5 15,63.5 19,65.5 		"/>
		<polygon opacity="0.2" fill="#FFFFFF" points="14,76 10,74 10,61 14,63 		"/>
		<polygon opacity="0.2" fill="#FFFFFF" points="9,73.5 5,71.5 5,58.5 9,60.5 		"/>
		<polygon fill="#3399CC" points="64,86 0,54 0,40 64,72 		"/>
		<polygon opacity="0.15" points="64,75 0,43 0,40 64,72 		"/>
		<polygon opacity="0.15" points="64,73 0,41 0,40 64,72 		"/>
		<polygon opacity="0.3" fill="#FFFFFF" points="64,85 60,83 60,70 64,72 		"/>
		<polygon opacity="0.2" fill="#FFFFFF" points="59,82.5 55,80.5 55,67.5 59,69.5 		"/>
		<polygon opacity="0.2" fill="#FFFFFF" points="19,62.5 15,60.5 15,47.5 19,49.5 		"/>
		<polygon opacity="0.3" fill="#FFFFFF" points="9,57.5 5,55.5 5,42.5 9,44.5 		"/>
		<polygon opacity="0.3" fill="#FFFFFF" points="14,60 10,58 10,45 14,47 		"/>
		<polygon opacity="0.3" fill="#FFFFFF" points="4,55 0,53 0,40 4,42 		"/>
		<polygon opacity="0.7" fill="#FFFFFF" points="5,89.5 4,89 4,41 5,41.5 		"/>
		<polygon opacity="0.7" fill="#FFFFFF" points="10,92 9,91.5 9,43.5 10,44 		"/>
		<polygon opacity="0.7" fill="#FFFFFF" points="15,94.5 14,94 14,46 15,46.5 		"/>
		<polygon opacity="0.7" fill="#FFFFFF" points="20,97 19,96.5 19,48.5 20,49 		"/>
		<polygon opacity="0.7" fill="#FFFFFF" points="25,99.5 24,99 24,51 25,51.5 		"/>
		<polygon opacity="0.7" fill="#FFFFFF" points="30,102 29,101.5 29,53.5 30,54 		"/>
		<polygon opacity="0.7" fill="#FFFFFF" points="35,104.5 34,104 34,56 35,56.5 		"/>
		<polygon opacity="0.7" fill="#FFFFFF" points="40,107 39,106.5 39,58.5 40,59 		"/>
		<polygon opacity="0.7" fill="#FFFFFF" points="45,109.5 44,109 44,61 45,61.5 		"/>
		<polygon opacity="0.7" fill="#FFFFFF" points="50,112 49,111.5 49,63.5 50,64 		"/>
		<polygon opacity="0.7" fill="#FFFFFF" points="55,114.5 54,114 54,66 55,66.5 		"/>
		<polygon opacity="0.7" fill="#FFFFFF" points="60,117 59,116.5 59,68.5 60,69 		"/>
		<polygon fill="#E5E5E5" points="64,120 0,88 0,85 64,117 		"/>
		<polygon fill="#E5E5E5" points="64,104 0,72 0,69 64,101 		"/>
		<polygon fill="#E5E5E5" points="64,88 0,56 0,53 64,85 		"/>
		<polygon fill="#2D3134" points="64,72 0,40 0,34 64,66 		"/>
	</g>
	<polygon opacity="0.06" points="0,34 0,88 64,120 64,118 64,66 	"/>
	<polygon fill="#2D3134" points="64,66 128,34 64,2 0,34 	"/>
	<polygon opacity="0.3" points="8.9,34 64,6.5 119.1,34 64,61.5 	"/>
	<polygon opacity="0.15" points="64,8.5 117.1,35 119.1,34 64,6.5 8.9,34 10.9,35 	"/>
	<polygon opacity="0.39" points="64,8.5 64,6.5 8.9,34 10.9,35 	"/>
	<polygon opacity="0.06" points="64,8.5 117.1,35 119.1,34 64,6.5 	"/>
	<polygon fill="#999999" points="83,22 67,30 67,35 83,43 99,35 99,30 	"/>
	<polygon opacity="0.39" points="99,35 83,43 83,38 99,30 	"/>
	<polygon opacity="0.06" points="67,35 83,43 83,38 67,30 	"/>
	<polygon fill="#656565" points="75.5,29.8 83,26 90.5,29.8 83,33.5 	"/>
</g>
</svg>
