<?xml version="1.0" encoding="utf-8"?>
<!-- Generator: Adobe Illustrator 18.1.0, SVG Export Plug-In . SVG Version: 6.00 Build 0)  -->
<svg version="1.1" id="Layer_1" xmlns="http://www.w3.org/2000/svg" xmlns:xlink="http://www.w3.org/1999/xlink" x="0px" y="0px"
	 viewBox="0 0 128 192" enable-background="new 0 0 128 192" xml:space="preserve">
<g>
	<g>
		<polygon fill="#E5E5E5" points="64,0 0,32 0,160 64,192 128,160 128,32 		"/>
		<g>
			<polygon fill="#3399CC" points="53,138.5 59,141.5 59,133.5 53,130.5 			"/>
			<polygon opacity="0.45" fill="#262626" points="54,131 54,138 59,140.5 59,141.5 53,138.5 53,130.5 			"/>
			<polygon fill="#3399CC" points="41,132.5 47,135.5 47,127.5 41,124.5 			"/>
			<polygon opacity="0.15" fill="#262626" points="47,133 47,127.5 41,124.5 			"/>
			<polygon opacity="0.45" fill="#262626" points="42,125 42,132 47,134.5 47,135.5 41,132.5 41,124.5 			"/>
			<polygon fill="#3399CC" points="29,126.5 35,129.5 35,121.5 29,118.5 			"/>
			<polygon opacity="0.45" fill="#262626" points="30,119 30,126 35,128.5 35,129.5 29,126.5 29,118.5 			"/>
			<polygon fill="#3399CC" points="17,120.5 23,123.5 23,115.5 17,112.5 			"/>
			<polygon opacity="0.45" fill="#262626" points="18,113 18,120 23,122.5 23,123.5 17,120.5 17,112.5 			"/>
			<polygon fill="#3399CC" points="5,114.5 11,117.5 11,109.5 5,106.5 			"/>
			<polygon opacity="0.2" fill="#FFFFFF" points="5,114.5 11,117.5 5,106.5 			"/>
			<polygon opacity="0.45" fill="#262626" points="6,107 6,114 11,116.5 11,117.5 5,114.5 5,106.5 			"/>
			<polygon fill="#3399CC" points="53,152.5 59,155.5 59,147.5 53,144.5 			"/>
			<polygon opacity="0.45" fill="#262626" points="54,145 54,152 59,154.5 59,155.5 53,152.5 53,144.5 			"/>
			<polygon fill="#3399CC" points="41,146.5 47,149.5 47,141.5 41,138.5 			"/>
			<polygon opacity="0.45" fill="#262626" points="42,139 42,146 47,148.5 47,149.5 41,146.5 41,138.5 			"/>
			<polygon fill="#3399CC" points="29,140.5 35,143.5 35,135.5 29,132.5 			"/>
			<polygon opacity="0.45" fill="#262626" points="30,133 30,140 35,142.5 35,143.5 29,140.5 29,132.5 			"/>
			<polygon fill="#3399CC" points="17,134.5 23,137.5 23,129.5 17,126.5 			"/>
			<polygon opacity="0.45" fill="#262626" points="18,127 18,134 23,136.5 23,137.5 17,134.5 17,126.5 			"/>
			<polygon fill="#3399CC" points="5,128.5 11,131.5 11,123.5 5,120.5 			"/>
			<polygon opacity="0.45" fill="#262626" points="6,121 6,128 11,130.5 11,131.5 5,128.5 5,120.5 			"/>
			<polygon fill="#3399CC" points="53,166.5 59,169.5 59,161.5 53,158.5 			"/>
			<polygon opacity="0.45" fill="#262626" points="54,159 54,166 59,168.5 59,169.5 53,166.5 53,158.5 			"/>
			<polygon fill="#3399CC" points="41,160.5 47,163.5 47,155.5 41,152.5 			"/>
			<polygon opacity="0.15" fill="#262626" points="47,161 47,155.5 41,152.5 			"/>
			<polygon opacity="0.45" fill="#262626" points="42,153 42,160 47,162.5 47,163.5 41,160.5 41,152.5 			"/>
			<polygon fill="#3399CC" points="29,154.5 35,157.5 35,149.5 29,146.5 			"/>
			<polygon opacity="0.45" fill="#262626" points="30,147 30,154 35,156.5 35,157.5 29,154.5 29,146.5 			"/>
			<polygon fill="#3399CC" points="17,148.5 23,151.5 23,143.5 17,140.5 			"/>
			<polygon opacity="0.45" fill="#262626" points="18,141 18,148 23,150.5 23,151.5 17,148.5 17,140.5 			"/>
			<polygon fill="#3399CC" points="5,142.5 11,145.5 11,137.5 5,134.5 			"/>
			<polygon opacity="0.45" fill="#262626" points="6,135 6,142 11,144.5 11,145.5 5,142.5 5,134.5 			"/>
			<polygon fill="#3399CC" points="53,180.5 59,183.5 59,175.5 53,172.5 			"/>
			<polygon opacity="0.45" fill="#262626" points="54,173 54,180 59,182.5 59,183.5 53,180.5 53,172.5 			"/>
			<polygon fill="#3399CC" points="41,174.5 47,177.5 47,169.5 41,166.5 			"/>
			<polygon opacity="0.45" fill="#262626" points="42,167 42,174 47,176.5 47,177.5 41,174.5 41,166.5 			"/>
			<polygon fill="#3399CC" points="29,168.5 35,171.5 35,163.5 29,160.5 			"/>
			<polygon opacity="0.45" fill="#262626" points="30,161 30,168 35,170.5 35,171.5 29,168.5 29,160.5 			"/>
			<polygon fill="#3399CC" points="17,162.5 23,165.5 23,157.5 17,154.5 			"/>
			<polygon opacity="0.2" fill="#FFFFFF" points="17,162.5 23,165.5 17,154.5 			"/>
			<polygon opacity="0.45" fill="#262626" points="18,155 18,162 23,164.5 23,165.5 17,162.5 17,154.5 			"/>
			<polygon fill="#3399CC" points="5,156.5 11,159.5 11,151.5 5,148.5 			"/>
			<polygon opacity="0.45" fill="#262626" points="6,149 6,156 11,158.5 11,159.5 5,156.5 5,148.5 			"/>
			<polygon fill="#3399CC" points="53,82.5 59,85.5 59,77.5 53,74.5 			"/>
			<polygon opacity="0.15" fill="#262626" points="59,85.5 59,77.5 53,74.5 			"/>
			<polygon opacity="0.45" fill="#262626" points="54,75 54,82 59,84.5 59,85.5 53,82.5 53,74.5 			"/>
			<polygon fill="#3399CC" points="41,76.5 47,79.5 47,71.5 41,68.5 			"/>
			<polygon opacity="0.45" fill="#262626" points="42,69 42,76 47,78.5 47,79.5 41,76.5 41,68.5 			"/>
			<polygon fill="#3399CC" points="29,70.5 35,73.5 35,65.5 29,62.5 			"/>
			<polygon opacity="0.45" fill="#262626" points="30,63 30,70 35,72.5 35,73.5 29,70.5 29,62.5 			"/>
			<polygon fill="#3399CC" points="17,64.5 23,67.5 23,59.5 17,56.5 			"/>
			<polygon opacity="0.45" fill="#262626" points="18,57 18,64 23,66.5 23,67.5 17,64.5 17,56.5 			"/>
			<polygon fill="#3399CC" points="5,58.5 11,61.5 11,53.5 5,50.5 			"/>
			<polygon opacity="0.45" fill="#262626" points="6,51 6,58 11,60.5 11,61.5 5,58.5 5,50.5 			"/>
			<polygon fill="#3399CC" points="53,68.5 59,71.5 59,63.5 53,60.5 			"/>
			<polygon opacity="0.45" fill="#262626" points="54,61 54,68 59,70.5 59,71.5 53,68.5 53,60.5 			"/>
			<polygon fill="#3399CC" points="41,62.5 47,65.5 47,57.5 41,54.5 			"/>
			<polygon opacity="0.45" fill="#262626" points="42,55 42,62 47,64.5 47,65.5 41,62.5 41,54.5 			"/>
			<polygon fill="#3399CC" points="29,56.5 35,59.5 35,51.5 29,48.5 			"/>
			<polygon opacity="0.45" fill="#262626" points="30,49 30,56 35,58.5 35,59.5 29,56.5 29,48.5 			"/>
			<polygon fill="#3399CC" points="17,50.5 23,53.5 23,45.5 17,42.5 			"/>
			<polygon opacity="0.15" fill="#262626" points="23,51 23,45.5 17,42.5 			"/>
			<polygon opacity="0.45" fill="#262626" points="18,43 18,50 23,52.5 23,53.5 17,50.5 17,42.5 			"/>
			<polygon fill="#3399CC" points="5,44.5 11,47.5 11,39.5 5,36.5 			"/>
			<polygon opacity="0.45" fill="#262626" points="6,37 6,44 11,46.5 11,47.5 5,44.5 5,36.5 			"/>
			<polygon fill="#3399CC" points="53,96.5 59,99.5 59,91.5 53,88.5 			"/>
			<polygon opacity="0.45" fill="#262626" points="54,89 54,96 59,98.5 59,99.5 53,96.5 53,88.5 			"/>
			<polygon fill="#3399CC" points="41,90.5 47,93.5 47,85.5 41,82.5 			"/>
			<polygon opacity="0.45" fill="#262626" points="42,83 42,90 47,92.5 47,93.5 41,90.5 41,82.5 			"/>
			<polygon fill="#3399CC" points="29,84.5 35,87.5 35,79.5 29,76.5 			"/>
			<polygon opacity="0.45" fill="#262626" points="30,77 30,84 35,86.5 35,87.5 29,84.5 29,76.5 			"/>
			<polygon fill="#3399CC" points="17,78.5 23,81.5 23,73.5 17,70.5 			"/>
			<polygon opacity="0.15" fill="#262626" points="23,81.5 23,73.5 17,70.5 			"/>
			<polygon opacity="0.45" fill="#262626" points="18,71 18,78 23,80.5 23,81.5 17,78.5 17,70.5 			"/>
			<polygon fill="#3399CC" points="5,72.5 11,75.5 11,67.5 5,64.5 			"/>
			<polygon opacity="0.45" fill="#262626" points="6,65 6,72 11,74.5 11,75.5 5,72.5 5,64.5 			"/>
			<polygon fill="#3399CC" points="53,110.5 59,113.5 59,105.5 53,102.5 			"/>
			<polygon opacity="0.45" fill="#262626" points="54,103 54,110 59,112.5 59,113.5 53,110.5 53,102.5 			"/>
			<polygon fill="#3399CC" points="41,104.5 47,107.5 47,99.5 41,96.5 			"/>
			<polygon opacity="0.45" fill="#262626" points="42,97 42,104 47,106.5 47,107.5 41,104.5 41,96.5 			"/>
			<polygon fill="#3399CC" points="29,98.5 35,101.5 35,93.5 29,90.5 			"/>
			<polygon opacity="0.45" fill="#262626" points="30,91 30,98 35,100.5 35,101.5 29,98.5 29,90.5 			"/>
			<polygon fill="#3399CC" points="17,92.5 23,95.5 23,87.5 17,84.5 			"/>
			<polygon opacity="0.45" fill="#262626" points="18,85 18,92 23,94.5 23,95.5 17,92.5 17,84.5 			"/>
			<polygon fill="#3399CC" points="5,86.5 11,89.5 11,81.5 5,78.5 			"/>
			<polygon opacity="0.45" fill="#262626" points="6,79 6,86 11,88.5 11,89.5 5,86.5 5,78.5 			"/>
			<polygon fill="#3399CC" points="53,124.5 59,127.5 59,119.5 53,116.5 			"/>
			<polygon opacity="0.45" fill="#262626" points="54,117 54,124 59,126.5 59,127.5 53,124.5 53,116.5 			"/>
			<polygon fill="#3399CC" points="41,118.5 47,121.5 47,113.5 41,110.5 			"/>
			<polygon opacity="0.45" fill="#262626" points="42,111 42,118 47,120.5 47,121.5 41,118.5 41,110.5 			"/>
			<polygon fill="#3399CC" points="29,112.5 35,115.5 35,107.5 29,104.5 			"/>
			<polygon opacity="0.2" fill="#FFFFFF" points="29,112.5 35,115.5 29,107 			"/>
			<polygon opacity="0.45" fill="#262626" points="30,105 30,112 35,114.5 35,115.5 29,112.5 29,104.5 			"/>
			<polygon fill="#3399CC" points="17,106.5 23,109.5 23,101.5 17,98.5 			"/>
			<polygon opacity="0.45" fill="#262626" points="18,99 18,106 23,108.5 23,109.5 17,106.5 17,98.5 			"/>
			<polygon fill="#3399CC" points="5,100.5 11,103.5 11,95.5 5,92.5 			"/>
			<polygon opacity="0.45" fill="#262626" points="6,93 6,100 11,102.5 11,103.5 5,100.5 5,92.5 			"/>
			<polygon opacity="0.25" fill="#262626" points="49,184.5 51,185.5 51,57.5 49,56.5 			"/>
			<polygon opacity="0.25" fill="#262626" points="61,190.5 64,192 64,64 61,62.5 			"/>
			<polygon opacity="0.25" fill="#262626" points="37,178.5 39,179.5 39,51.5 37,50.5 			"/>
			<polygon opacity="0.25" fill="#262626" points="25,172.5 27,173.5 27,45.5 25,44.5 			"/>
			<polygon opacity="0.25" fill="#262626" points="13,166.5 15,167.5 15,39.5 13,38.5 			"/>
			<polygon opacity="0.25" fill="#262626" points="0,160.1 3,161.5 3,33.5 0,32.1 			"/>
		</g>
		<g>
			<polygon fill="#3399CC" points="75,138.5 69,141.5 69,133.5 75,130.5 			"/>
			<polygon opacity="0.2" fill="#FFFFFF" points="75,138.5 69,141.5 69,136 			"/>
			<polygon opacity="0.45" fill="#262626" points="74,131 74,138 69,140.5 69,141.5 75,138.5 75,130.5 			"/>
			<polygon fill="#3399CC" points="87,132.5 81,135.5 81,127.5 87,124.5 			"/>
			<polygon opacity="0.45" fill="#262626" points="86,125 86,132 81,134.5 81,135.5 87,132.5 87,124.5 			"/>
			<polygon fill="#3399CC" points="99,126.5 93,129.5 93,121.5 99,118.5 			"/>
			<polygon opacity="0.15" fill="#262626" points="99,126.5 93,121.5 99,118.5 			"/>
			<polygon opacity="0.45" fill="#262626" points="98,119 98,126 93,128.5 93,129.5 99,126.5 99,118.5 			"/>
			<polygon fill="#3399CC" points="111,120.5 105,123.5 105,115.5 111,112.5 			"/>
			<polygon opacity="0.45" fill="#262626" points="110,113 110,120 105,122.5 105,123.5 111,120.5 111,112.5 			"/>
			<polygon fill="#3399CC" points="123,114.5 117,117.5 117,109.5 123,106.5 			"/>
			<polygon opacity="0.45" fill="#262626" points="122,107 122,114 117,116.5 117,117.5 123,114.5 123,106.5 			"/>
			<polygon fill="#3399CC" points="75,152.5 69,155.5 69,147.5 75,144.5 			"/>
			<polygon opacity="0.45" fill="#262626" points="74,145 74,152 69,154.5 69,155.5 75,152.5 75,144.5 			"/>
			<polygon fill="#3399CC" points="87,146.5 81,149.5 81,141.5 87,138.5 			"/>
			<polygon opacity="0.45" fill="#262626" points="86,139 86,146 81,148.5 81,149.5 87,146.5 87,138.5 			"/>
			<polygon fill="#3399CC" points="99,140.5 93,143.5 93,135.5 99,132.5 			"/>
			<polygon opacity="0.45" fill="#262626" points="98,133 98,140 93,142.5 93,143.5 99,140.5 99,132.5 			"/>
			<polygon fill="#3399CC" points="111,134.5 105,137.5 105,129.5 111,126.5 			"/>
			<polygon opacity="0.45" fill="#262626" points="110,127 110,134 105,136.5 105,137.5 111,134.5 111,126.5 			"/>
			<polygon fill="#3399CC" points="123,128.5 117,131.5 117,123.5 123,120.5 			"/>
			<polygon opacity="0.45" fill="#262626" points="122,121 122,128 117,130.5 117,131.5 123,128.5 123,120.5 			"/>
			<polygon fill="#3399CC" points="75,166.5 69,169.5 69,161.5 75,158.5 			"/>
			<polygon opacity="0.45" fill="#262626" points="74,159 74,166 69,168.5 69,169.5 75,166.5 75,158.5 			"/>
			<polygon fill="#3399CC" points="87,160.5 81,163.5 81,155.5 87,152.5 			"/>
			<polygon opacity="0.45" fill="#262626" points="86,153 86,160 81,162.5 81,163.5 87,160.5 87,152.5 			"/>
			<polygon fill="#3399CC" points="99,154.5 93,157.5 93,149.5 99,146.5 			"/>
			<polygon opacity="0.45" fill="#262626" points="98,147 98,154 93,156.5 93,157.5 99,154.5 99,146.5 			"/>
			<polygon fill="#3399CC" points="111,148.5 105,151.5 105,143.5 111,140.5 			"/>
			<polygon opacity="0.45" fill="#262626" points="110,141 110,148 105,150.5 105,151.5 111,148.5 111,140.5 			"/>
			<polygon fill="#3399CC" points="123,142.5 117,145.5 117,137.5 123,134.5 			"/>
			<polygon opacity="0.2" fill="#FFFFFF" points="123,142.5 117,145.5 117,140 			"/>
			<polygon opacity="0.45" fill="#262626" points="122,135 122,142 117,144.5 117,145.5 123,142.5 123,134.5 			"/>
			<polygon fill="#3399CC" points="75,180.5 69,183.5 69,175.5 75,172.5 			"/>
			<polygon opacity="0.45" fill="#262626" points="74,173 74,180 69,182.5 69,183.5 75,180.5 75,172.5 			"/>
			<polygon fill="#3399CC" points="87,174.5 81,177.5 81,169.5 87,166.5 			"/>
			<polygon opacity="0.45" fill="#262626" points="86,167 86,174 81,176.5 81,177.5 87,174.5 87,166.5 			"/>
			<polygon fill="#3399CC" points="99,168.5 93,171.5 93,163.5 99,160.5 			"/>
			<polygon opacity="0.15" fill="#262626" points="99,168.5 93,163.5 99,160.5 			"/>
			<polygon opacity="0.45" fill="#262626" points="98,161 98,168 93,170.5 93,171.5 99,168.5 99,160.5 			"/>
			<polygon fill="#3399CC" points="111,162.5 105,165.5 105,157.5 111,154.5 			"/>
			<polygon opacity="0.45" fill="#262626" points="110,155 110,162 105,164.5 105,165.5 111,162.5 111,154.5 			"/>
			<polygon fill="#3399CC" points="123,156.5 117,159.5 117,151.5 123,148.5 			"/>
			<polygon opacity="0.45" fill="#262626" points="122,149 122,156 117,158.5 117,159.5 123,156.5 123,148.5 			"/>
			<polygon fill="#3399CC" points="75,82.5 69,85.5 69,77.5 75,74.5 			"/>
			<polygon opacity="0.15" fill="#262626" points="75,79 69,77.5 75,74.5 			"/>
			<polygon opacity="0.45" fill="#262626" points="74,75 74,82 69,84.5 69,85.5 75,82.5 75,74.5 			"/>
			<polygon fill="#3399CC" points="87,76.5 81,79.5 81,71.5 87,68.5 			"/>
			<polygon opacity="0.45" fill="#262626" points="86,69 86,76 81,78.5 81,79.5 87,76.5 87,68.5 			"/>
			<polygon fill="#3399CC" points="99,70.5 93,73.5 93,65.5 99,62.5 			"/>
			<polygon opacity="0.45" fill="#262626" points="98,63 98,70 93,72.5 93,73.5 99,70.5 99,62.5 			"/>
			<polygon fill="#3399CC" points="111,64.5 105,67.5 105,59.5 111,56.5 			"/>
			<polygon opacity="0.45" fill="#262626" points="110,57 110,64 105,66.5 105,67.5 111,64.5 111,56.5 			"/>
			<polygon fill="#3399CC" points="123,58.5 117,61.5 117,53.5 123,50.5 			"/>
			<polygon opacity="0.45" fill="#262626" points="122,51 122,58 117,60.5 117,61.5 123,58.5 123,50.5 			"/>
			<polygon fill="#3399CC" points="75,68.5 69,71.5 69,63.5 75,60.5 			"/>
			<polygon opacity="0.45" fill="#262626" points="74,61 74,68 69,70.5 69,71.5 75,68.5 75,60.5 			"/>
			<polygon fill="#3399CC" points="87,62.5 81,65.5 81,57.5 87,54.5 			"/>
			<polygon opacity="0.2" fill="#FFFFFF" points="87,62.5 81,65.5 81,57.5 			"/>
			<polygon opacity="0.45" fill="#262626" points="86,55 86,62 81,64.5 81,65.5 87,62.5 87,54.5 			"/>
			<polygon fill="#3399CC" points="99,56.5 93,59.5 93,51.5 99,48.5 			"/>
			<polygon opacity="0.45" fill="#262626" points="98,49 98,56 93,58.5 93,59.5 99,56.5 99,48.5 			"/>
			<polygon fill="#3399CC" points="111,50.5 105,53.5 105,45.5 111,42.5 			"/>
			<polygon opacity="0.45" fill="#262626" points="110,43 110,50 105,52.5 105,53.5 111,50.5 111,42.5 			"/>
			<polygon fill="#3399CC" points="123,44.5 117,47.5 117,39.5 123,36.5 			"/>
			<polygon opacity="0.45" fill="#262626" points="122,37 122,44 117,46.5 117,47.5 123,44.5 123,36.5 			"/>
			<polygon fill="#3399CC" points="75,96.5 69,99.5 69,91.5 75,88.5 			"/>
			<polygon opacity="0.45" fill="#262626" points="74,89 74,96 69,98.5 69,99.5 75,96.5 75,88.5 			"/>
			<polygon fill="#3399CC" points="87,90.5 81,93.5 81,85.5 87,82.5 			"/>
			<polygon opacity="0.45" fill="#262626" points="86,83 86,90 81,92.5 81,93.5 87,90.5 87,82.5 			"/>
			<polygon fill="#3399CC" points="99,84.5 93,87.5 93,79.5 99,76.5 			"/>
			<polygon opacity="0.45" fill="#262626" points="98,77 98,84 93,86.5 93,87.5 99,84.5 99,76.5 			"/>
			<polygon fill="#3399CC" points="111,78.5 105,81.5 105,73.5 111,70.5 			"/>
			<polygon opacity="0.45" fill="#262626" points="110,71 110,78 105,80.5 105,81.5 111,78.5 111,70.5 			"/>
			<polygon fill="#3399CC" points="123,72.5 117,75.5 117,67.5 123,64.5 			"/>
			<polygon opacity="0.45" fill="#262626" points="122,65 122,72 117,74.5 117,75.5 123,72.5 123,64.5 			"/>
			<polygon fill="#3399CC" points="75,110.5 69,113.5 69,105.5 75,102.5 			"/>
			<polygon opacity="0.45" fill="#262626" points="74,103 74,110 69,112.5 69,113.5 75,110.5 75,102.5 			"/>
			<polygon fill="#3399CC" points="87,104.5 81,107.5 81,99.5 87,96.5 			"/>
			<polygon opacity="0.45" fill="#262626" points="86,97 86,104 81,106.5 81,107.5 87,104.5 87,96.5 			"/>
			<polygon fill="#3399CC" points="99,98.5 93,101.5 93,93.5 99,90.5 			"/>
			<polygon opacity="0.45" fill="#262626" points="98,91 98,98 93,100.5 93,101.5 99,98.5 99,90.5 			"/>
			<polygon fill="#3399CC" points="111,92.5 105,95.5 105,87.5 111,84.5 			"/>
			<polygon opacity="0.15" fill="#262626" points="111,92.5 105,87.5 111,84.5 			"/>
			<polygon opacity="0.45" fill="#262626" points="110,85 110,92 105,94.5 105,95.5 111,92.5 111,84.5 			"/>
			<polygon fill="#3399CC" points="123,86.5 117,89.5 117,81.5 123,78.5 			"/>
			<polygon opacity="0.15" fill="#262626" points="123,83 117,81.5 123,78.5 			"/>
			<polygon opacity="0.45" fill="#262626" points="122,79 122,86 117,88.5 117,89.5 123,86.5 123,78.5 			"/>
			<polygon fill="#3399CC" points="75,124.5 69,127.5 69,119.5 75,116.5 			"/>
			<polygon opacity="0.45" fill="#262626" points="74,117 74,124 69,126.5 69,127.5 75,124.5 75,116.5 			"/>
			<polygon fill="#3399CC" points="87,118.5 81,121.5 81,113.5 87,110.5 			"/>
			<polygon opacity="0.45" fill="#262626" points="86,111 86,118 81,120.5 81,121.5 87,118.5 87,110.5 			"/>
			<polygon fill="#3399CC" points="99,112.5 93,115.5 93,107.5 99,104.5 			"/>
			<polygon opacity="0.45" fill="#262626" points="98,105 98,112 93,114.5 93,115.5 99,112.5 99,104.5 			"/>
			<polygon fill="#3399CC" points="111,106.5 105,109.5 105,101.5 111,98.5 			"/>
			<polygon opacity="0.45" fill="#262626" points="110,99 110,106 105,108.5 105,109.5 111,106.5 111,98.5 			"/>
			<polygon fill="#3399CC" points="123,100.5 117,103.5 117,95.5 123,92.5 			"/>
			<polygon opacity="0.45" fill="#262626" points="122,93 122,100 117,102.5 117,103.5 123,100.5 123,92.5 			"/>
			<polygon opacity="0.25" fill="#262626" points="79,184.5 77,185.5 77,57.5 79,56.5 			"/>
			<polygon opacity="0.25" fill="#262626" points="67,190.5 64,192 64,64 67,62.5 			"/>
			<polygon opacity="0.25" fill="#262626" points="91,178.5 89,179.5 89,51.5 91,50.5 			"/>
			<polygon opacity="0.25" fill="#262626" points="103,172.5 101,173.5 101,45.5 103,44.5 			"/>
			<polygon opacity="0.25" fill="#262626" points="115,166.5 113,167.5 113,39.5 115,38.5 			"/>
			<polygon opacity="0.25" fill="#262626" points="128,160.1 125,161.5 125,33.5 128,32.1 			"/>
		</g>
		<polygon opacity="0.39" points="128,160 64,192 64,64 128,32.1 		"/>
		<polygon opacity="0.06" points="0,160 64,192 64,64 0,32 		"/>
	</g>
	<polygon opacity="0.25" fill="#202426" points="16,32 64,8 112,32 64,56 	"/>
	<polygon opacity="0.39" points="64,9.7 64,8 16,32 17.7,32.9 	"/>
	<polygon opacity="0.06" points="64,9.7 110.3,32.9 112,32 64,8 	"/>
	<g>
		<polygon fill="#E5E5E5" points="64,12 40,24 40,26 52,32 76,20 76,18 		"/>
		<polygon opacity="0.39" points="76,20 52,32 52,30 76,18 		"/>
		<polygon opacity="0.06" points="40,26 52,32 52,30 40,24 		"/>
		<path fill="#656565" d="M63,16c-2.8,0-5,1.1-5,2.5s2.2,2.5,5,2.5s5-1.1,5-2.5S65.8,16,63,16z M63,20c-1.7,0-3-0.7-3-1.5
			s1.3-1.5,3-1.5s3,0.7,3,1.5S64.7,20,63,20z"/>
		<path fill="#656565" d="M53,21c-2.8,0-5,1.1-5,2.5s2.2,2.5,5,2.5s5-1.1,5-2.5S55.8,21,53,21z M53,25c-1.7,0-3-0.7-3-1.5
			s1.3-1.5,3-1.5s3,0.7,3,1.5S54.7,25,53,25z"/>
	</g>
	<g>
		<polygon fill="#E5E5E5" points="80,10 64,18 64,34 84,44 100,36 100,20 		"/>
		<polygon opacity="0.39" points="100,36 84,44 84,28 100,20 		"/>
		<polygon opacity="0.06" points="64,34 84,44 84,28 64,18 		"/>
		<polygon fill="#656565" points="70,28 70,37 76,40 76,31 		"/>
		<polygon opacity="0.45" fill="#262626" points="71,37 71,28.5 70,28 70,37 76,40 76,39.5 		"/>
	</g>
</g>
</svg>
