<?xml version="1.0" encoding="utf-8"?>
<!-- Generator: Adobe Illustrator 18.1.0, SVG Export Plug-In . SVG Version: 6.00 Build 0)  -->
<svg version="1.1" id="Layer_1" xmlns="http://www.w3.org/2000/svg" xmlns:xlink="http://www.w3.org/1999/xlink" x="0px" y="0px"
	 viewBox="0 0 32 32" enable-background="new 0 0 32 32" xml:space="preserve">
<g>
	<polygon opacity="0.3" points="11.4,23.4 7.9,24.7 10.4,24.8 8.8,25.8 12.4,25.8 14.5,25.3 14.1,27 16.3,26.6 17.9,25.3 20.9,26.3 
		24.1,25.8 23.1,25.2 24.2,24.9 19.6,23.7 	"/>
	<path fill="#28896D" d="M12.8,10.3C15.4,10,16.6,5,16.6,5s0.5,4.9,3.8,6.2c0.1,0.5-1.1,0.9-2.2,0.4c-0.1,1,2.1,2.5,3.4,2.9
		c0,0.5-1.2,1.3-2.4,0.9c0.5,1.2,1.4,2.2,3.4,2.7c-0.9,0.5-2.4,0-3.3,0c0,0.8,2.9,1.5,4.4,1.5c-0.3,0.8-1.7,1.5-2.9,1.5
		c0,0.9,2.9,1.6,3.6,1.8c0.1,0.7-2,1.2-3.4,0.7c0,0.9,1.5,1.6,2.2,2c0,0.7-4.7,0.5-5.4-0.9c-0.9,0.3-1.4,2.2-3.1,2
		c0.2-0.5,0.7-2-0.1-2.4c-0.7,1-3.5,1.6-4.7,1.1c0.3-0.3,2-0.5,1.5-1.6c-1.5,0-3.5-1.4-3.4-2c0.4,0.3,2.8,0.6,2.9,0
		c-1.1-0.1-1.8-1-1.8-1.6c0.4,0.2,2.8,0.6,2.9-0.2C11,19.6,10,19,10.1,18.2c0.7,0.1,2.3,0,2.4-0.7c-0.9-0.3-1.8-1.7-1.8-2.2
		c0.7,0.2,3.3,0,3.3-0.5c-1.1-0.1-2.1-0.5-2-1.3c1.5-0.1,3.1-1.7,3.1-2.4C14.3,11.3,13.2,11.1,12.8,10.3z"/>
	<path opacity="0.2" fill="#FFFFFF" d="M22.8,18.1c0,0-1.9,0.1-3.4-1.5s-2-2.5-2-2.5s-0.4,0.5-1.6,1.3s-4,0.7-4,0.7s1.7,1.3,4.2,0.5
		C17.1,16.2,17,16,17,16s1.7,1.5,2.4,1.7C21.8,18.6,22.8,18.1,22.8,18.1z"/>
	<path opacity="0.2" fill="#FFFFFF" d="M12.6,13.7c2.2-1.2,3.5-2.1,4-4c-0.1,0.9,1.7,3.3,3.4,4.5c-1.3-0.1-2.9-2.3-3.6-2.2
		C16.3,12.7,14.1,13.6,12.6,13.7z"/>
	<path opacity="0.2" fill="#FFFFFF" d="M13.6,10.5c2.2-1.2,2.5-2.7,3-4.6c-0.1,0.9,1,3.6,2.7,4.9C18,10.7,17,8.9,16.4,8.4
		C16.3,9.1,15.1,10.3,13.6,10.5z"/>
	<path opacity="0.2" fill="#FFFFFF" d="M10.4,18.6c0,0,2.7,0,4.8-1c0.6,0,1.5,1.9,2,2c0.5-0.1,0.8-0.3,1.3-0.6
		c0.4,1.9,3.7,3.5,5.6,4c-3.4,0-5.8-2.2-6.2-2.9c-0.4,0.3-0.5,1.3-1.3,1.3c-0.6-0.9-1.6-2.2-1.8-2.9C14.1,18.3,11.4,19.2,10.4,18.6z
		"/>
	<path opacity="0.2" fill="#FFFFFF" d="M8.8,22.3c3.8,0.4,5.2-1.3,5.8-2C14.2,22.9,9.9,23.6,8.8,22.3z"/>
	<path opacity="0.2" fill="#FFFFFF" d="M18.8,21.8c1.1,1.8,1.5,2.8,4,3.6C18.8,25.6,18.4,22.6,18.8,21.8z"/>
	<path opacity="0.2" fill="#FFFFFF" d="M15.2,26.1c0.2,0.1,2.6-3.6,0.8-4.3C15.1,22.4,15.9,24.3,15.2,26.1z"/>
	<path opacity="0.3" d="M17.9,10.8c-1-0.8-1-0.8-1-0.8s0.8,1,1.3,1.6c0,0,0,0,0,0c1,0.5,2.2,0.1,2.2-0.4
		C20.4,11.2,18.9,11.5,17.9,10.8z"/>
	<path opacity="0.3" d="M19.2,24.5c-1.2-1.2-1.5-3.1-1.5-3.1S17,23.8,16.4,25c-0.4,0.7-0.7,1.3-1.7,1.6c0,0,0,0,0,0.1
		c1.7,0.1,2.3-1.7,3.1-2c0.8,1.4,5.4,1.6,5.4,0.9C23.3,25.5,20.4,25.7,19.2,24.5z"/>
	<path opacity="0.3" d="M21.3,20.1c-1.2-0.1-2.9-2.3-2.9-2.3s-0.8,0.4-1.3,0.1c-0.5-0.3-0.9-0.7-0.9-0.7s0.4,2.1,1.1,2
		c0.7-0.1,1-0.3,1.3-0.6c0.3,1.6,2.4,2.5,2.4,2.5c1.2,0.1,2.6-0.7,2.9-1.5C23.9,19.5,22.5,20.1,21.3,20.1z"/>
	<path opacity="0.3" d="M13.9,14.8C13.9,14.8,13.9,14.8,13.9,14.8c0.4,0,0.7,0,1.1-0.1c0.9-0.1,2.5-1,2.5-1l-1.2,0.1l0.5-1.1
		c0,0-1.4,1.1-2.6,1.3s-2.2-0.6-2.2-0.6C11.8,14.3,12.7,14.7,13.9,14.8z"/>
	<g>
		<path opacity="0.3" d="M11.9,19.9c-0.1,0.8-2.5,0.4-2.9,0.2c1.8,1.2,5.2-0.2,5.2-0.2l-1.6,0l1.9-0.9c0,0-4.1,0.2-4.3-0.8
			C10,19,11,19.6,11.9,19.9z"/>
		<path opacity="0.3" d="M13.6,20.8c0,0-1.3,0.4-2.2,0.4c-0.8,0-2.4-0.8-2.4-1c0.1,0.7,0.7,1.5,1.8,1.6
			C12.9,21.9,13.6,20.8,13.6,20.8z"/>
	</g>
	<path opacity="0.3" d="M15.2,24.6c0-0.7-0.2-5-0.2-5s-0.1,2.5-2.4,4.8c-0.8,0.7-2.8,1-2.8,1c1.2,0.5,4-0.1,4.7-1.1
		c0.6,0.3,0.5,1.3,0.3,1.9C15,25.7,15.2,25.1,15.2,24.6z"/>
</g>
</svg>
