<?xml version="1.0" encoding="utf-8"?>
<!-- Generator: Adobe Illustrator 18.1.0, SVG Export Plug-In . SVG Version: 6.00 Build 0)  -->
<svg version="1.1" id="Layer_1" xmlns="http://www.w3.org/2000/svg" xmlns:xlink="http://www.w3.org/1999/xlink" x="0px" y="0px"
	 viewBox="0 0 64 56" enable-background="new 0 0 64 56" xml:space="preserve">
<g>
	<polygon opacity="0.3" points="3,28.3 16.1,20.8 64,44.8 50,51.8 	"/>
	<polygon fill="#2D3134" points="5.3,25 5.3,28.8 7.8,27.5 7.8,23.8 	"/>
	<polygon opacity="0.39" points="5.3,25 5.3,28.8 7.8,27.5 7.8,23.8 	"/>
	<g>
		<path fill="#2D3134" d="M46.2,42.9c-0.7-0.4-1.4-0.4-1.9-0.2l0,0l-1.4,0.7l0,0C42.3,43.6,42,44.2,42,45c0,1.5,1.3,3.4,2.8,4.2
			c0.8,0.4,1.5,0.4,2,0.2c0,0,1.4-0.7,1.5-0.8c0.5-0.3,0.7-0.8,0.7-1.5C49,45.5,47.7,43.6,46.2,42.9z"/>
		<path opacity="0.39" d="M46.8,49.3c0.2-0.1,1.4-0.7,1.5-0.7c0.5-0.3,0.7-0.8,0.7-1.5c0-0.6-0.2-1.3-0.5-1.9l-1.4,0.7
			c0.3,0.6,0.5,1.3,0.5,1.9C47.6,48.5,47.3,49.1,46.8,49.3z"/>
		<path fill="#999999" d="M46.9,47.4c0,1.2-0.9,1.6-2.1,1s-2.1-2-2.1-3.2s0.9-1.6,2.1-1S46.9,46.2,46.9,47.4z"/>
		<path opacity="0.15" d="M45,48.4c-1.2-0.6-2.1-2-2.1-3.2c0-0.6,0.2-1,0.6-1.2c-0.5,0.1-0.8,0.6-0.8,1.2c0,1.2,0.9,2.6,2.1,3.2
			c0.6,0.3,1.1,0.3,1.5,0.1C45.9,48.7,45.5,48.6,45,48.4z"/>
		<path fill="#2D3134" d="M45.8,46.7c0,0.5-0.4,0.7-0.9,0.4c-0.5-0.2-0.9-0.8-0.9-1.3c0-0.5,0.4-0.7,0.9-0.4
			C45.5,45.6,45.8,46.2,45.8,46.7z"/>
		<path opacity="0.39" d="M45.8,46.7c0,0.5-0.4,0.7-0.9,0.4c-0.5-0.2-0.9-0.8-0.9-1.3c0-0.5,0.4-0.7,0.9-0.4
			C45.5,45.6,45.8,46.2,45.8,46.7z"/>
		<path fill="#2D3134" d="M45.7,46.8c0,0.5-0.4,0.7-0.9,0.4c-0.5-0.2-0.9-0.8-0.9-1.3s0.4-0.7,0.9-0.4
			C45.3,45.7,45.7,46.3,45.7,46.8z"/>
		<path opacity="0.06" d="M47.6,47.8c0,1.5-1.3,2.2-2.8,1.4S42,46.5,42,45s1.3-2.2,2.8-1.4S47.6,46.2,47.6,47.8z"/>
	</g>
	<g>
		<path fill="#2D3134" d="M9.7,24.6c-0.7-0.4-1.4-0.4-1.9-0.2l0,0l-1.4,0.7l0,0c-0.5,0.2-0.9,0.8-0.9,1.6c0,1.5,1.3,3.4,2.8,4.2
			c0.8,0.4,1.5,0.4,2,0.2c0,0,1.4-0.7,1.5-0.8c0.5-0.3,0.7-0.8,0.7-1.5C12.5,27.3,11.2,25.4,9.7,24.6z"/>
		<path opacity="0.39" d="M10.3,31.1c0.2-0.1,1.4-0.7,1.5-0.7c0.5-0.3,0.7-0.8,0.7-1.5c0-0.6-0.2-1.3-0.5-1.9l-1.4,0.7
			c0.3,0.6,0.5,1.3,0.5,1.9C11.1,30.3,10.8,30.8,10.3,31.1z"/>
		<path fill="#999999" d="M10.4,29.2c0,1.2-0.9,1.6-2.1,1s-2.1-2-2.1-3.2s0.9-1.6,2.1-1S10.4,28,10.4,29.2z"/>
		<path opacity="0.15" d="M8.5,30.1c-1.2-0.6-2.1-2-2.1-3.2c0-0.6,0.2-1,0.6-1.2c-0.5,0.1-0.8,0.6-0.8,1.2c0,1.2,0.9,2.6,2.1,3.2
			c0.6,0.3,1.1,0.3,1.5,0.1C9.4,30.4,9,30.4,8.5,30.1z"/>
		<path fill="#2D3134" d="M9.4,28.5c0,0.5-0.4,0.7-0.9,0.4c-0.5-0.2-0.9-0.8-0.9-1.3s0.4-0.7,0.9-0.4C9,27.4,9.4,28,9.4,28.5z"/>
		<path opacity="0.39" d="M9.4,28.5c0,0.5-0.4,0.7-0.9,0.4c-0.5-0.2-0.9-0.8-0.9-1.3s0.4-0.7,0.9-0.4C9,27.4,9.4,28,9.4,28.5z"/>
		<path fill="#2D3134" d="M9.2,28.5c0,0.5-0.4,0.7-0.9,0.4s-0.9-0.8-0.9-1.3c0-0.5,0.4-0.7,0.9-0.4S9.2,28.1,9.2,28.5z"/>
		<path opacity="0.06" d="M11.1,29.5c0,1.5-1.3,2.2-2.8,1.4c-1.5-0.8-2.8-2.7-2.8-4.2c0-1.5,1.3-2.2,2.8-1.4
			C9.8,26.1,11.1,28,11.1,29.5z"/>
	</g>
	<polygon fill="#06547A" points="17,1 3,8 3,23.3 41,42.3 55,35 55,20 	"/>
	<polygon fill="#2D3134" points="3,22 3,24 41,43 41,41 	"/>
	<polygon fill="#2D3134" points="55,34 55,36 41,43 41,41 	"/>
	<polygon opacity="0.06" points="3,8 3,24 41,43 41,27 	"/>
	<polygon opacity="0.39" points="55,20 55,36 41,43 41,27 	"/>
	<path fill="#E5E5E5" d="M62,28l-6-3l-14,7v11.3c0,0.3,0.4,0.5,0.7,0.3c0,0,0,0,0,0c1.2-1,3.3-0.3,4.8,1.5c0.9,1.1,1.3,2.3,1.3,3.3
		L50,49l14-7v-8L62,28z"/>
	<path fill="#3399CC" d="M50.4,40.5l-1.7-5c-0.1-0.2,0-0.3,0.2-0.4l12.5-6.2c0.2-0.1,0.4,0,0.5,0.2l1.6,4.7c0.1,0.2,0,0.3-0.2,0.4
		l-12.4,6.5C50.7,40.8,50.4,40.7,50.4,40.5z"/>
	<path opacity="0.15" d="M52.7,33.2l8.6-4.3c0.2-0.1,0.4,0,0.5,0.2l1.5,4.4L52.7,33.2z"/>
	<path fill="#2D3134" d="M63.4,33.8l-0.1-0.3c0,0.2,0,0.3-0.2,0.4l-12.4,6.5c-0.2,0.1-0.4,0-0.5-0.2l0.1,0.3
		c0.1,0.2,0.3,0.3,0.5,0.2l12.4-6.5C63.4,34.1,63.5,34,63.4,33.8z"/>
	<polygon fill="#FFFFFF" points="53.5,40 60.5,36.5 60.5,42.3 53.5,45.8 	"/>
	<polygon fill="#2D3134" points="54,45 60,42 60,37.3 54,40.3 	"/>
	<polygon fill="#2D3134" points="64,42 64,40 50,47 50,49 	"/>
	<polygon fill="#2D3134" points="48,48 50,49 50,47 48,46 	"/>
	<polygon fill="#FFFFFF" points="54,45 54,46 60,43 60,42 	"/>
	<path fill="#3399CC" d="M47.5,35.3l-3.8-1.9c-0.1-0.1-0.3,0-0.3,0.2v3c0,0.2,0.1,0.4,0.3,0.4l1.3,0.7c0.1,0.1,0.2,0.1,0.3,0.2
		l1.3,1.6c0,0,0,0,0.1,0l2.2,1.1c0.1,0.1,0.3-0.1,0.2-0.2l-1.7-5C47.6,35.4,47.6,35.3,47.5,35.3z"/>
	<path opacity="0.15" d="M49.3,40.3l-2-1c0,0,0,0-0.1,0l-1.3-1.6c-0.1-0.1-0.2-0.2-0.3-0.2l-1.3-0.7c-0.2-0.1-0.3-0.2-0.3-0.4v-2.9
		l-0.2-0.1c-0.1-0.1-0.3,0-0.3,0.2v3c0,0.2,0.1,0.4,0.3,0.4l1.3,0.7c0.1,0.1,0.2,0.1,0.3,0.2l1.3,1.6c0,0,0,0,0.1,0l2.2,1.1
		C49.2,40.7,49.3,40.6,49.3,40.3L49.3,40.3z"/>
	<polygon fill="#FFCC00" points="50,45 50,47 49.5,46.8 49.5,44.8 	"/>
	<polygon fill="#E5E5E5" points="54,41 54,41.3 60,38.3 60,38 	"/>
	<polygon fill="#E5E5E5" points="54,42 54,42.3 60,39.3 60,39 	"/>
	<polygon fill="#E5E5E5" points="54,43 54,43.3 60,40.3 60,40 	"/>
	<polygon fill="#E5E5E5" points="54,44 54,44.3 60,41.3 60,41 	"/>
	<polygon opacity="0.5" fill="#2D3134" points="43.5,38.3 43.5,38.8 44.5,39.3 44.5,38.8 	"/>
	<polygon opacity="0.5" fill="#FFFFFF" points="44.5,39.5 43.5,39 43.5,38.8 44.5,39.3 	"/>
	<path fill="#2D3134" d="M57.5,33.9c-0.1-0.1-0.2-0.1-0.3,0l-3.8,4.3c-0.1,0.1-0.1,0.2,0,0.3s0.2,0.1,0.3,0l1-1.2v1H55V37h0l2.5-2.9
		C57.6,34.1,57.6,33.9,57.5,33.9z"/>
	<path fill="#2D3134" d="M61.1,31.9c-0.1-0.1-0.2-0.1-0.3,0L57,36.2c-0.1,0.1-0.1,0.2,0,0.3c0.1,0.1,0.2,0.1,0.3,0l0.9-1v1.1h0.3
		v-1.4l2.6-3C61.2,32.1,61.2,32,61.1,31.9z"/>
	<path fill="#FFFFFF" d="M62,41l2-1v-2l-1,0.5c-0.6,0.3-1,0.9-1,1.6V41z"/>
	
		<ellipse transform="matrix(-0.6313 0.7756 -0.7756 -0.6313 132.9797 15.8685)" opacity="0.3" fill="#2D3134" cx="62.7" cy="39.5" rx="0.8" ry="0.5"/>
	
		<ellipse transform="matrix(-0.6313 0.7756 -0.7756 -0.6313 133.7953 15.4807)" opacity="0.3" fill="#2D3134" cx="63.2" cy="39.5" rx="0.8" ry="0.5"/>
	<polygon opacity="0.3" fill="#FFFFFF" points="62,41 64,40 64,38 	"/>
	<path fill="#FFFFFF" d="M50,47l2-1v-0.9c0-0.5-0.5-0.8-1-0.6L50,45V47z"/>
	
		<ellipse transform="matrix(-0.6313 0.7756 -0.7756 -0.6313 118.8734 34.5751)" opacity="0.3" fill="#2D3134" cx="51.2" cy="45.5" rx="0.8" ry="0.5"/>
	
		<ellipse transform="matrix(-0.6313 0.7756 -0.7756 -0.6313 118.0577 34.9629)" opacity="0.3" fill="#2D3134" cx="50.7" cy="45.5" rx="0.8" ry="0.5"/>
	<polygon opacity="0.3" fill="#FFFFFF" points="50,47 52,46 50,45 	"/>
	<path opacity="0.06" d="M48,35l-6-3v11.3c0,0.3,0.4,0.5,0.7,0.3c0,0,0,0,0,0c1.2-1,3.3-0.3,4.8,1.5c0.3,0.3,0.5,0.6,0.6,1
		L48,46v2l2,1v0v-2v-6L48,35z"/>
	<polygon opacity="0.39" points="62,28 48,35 50,41 50,49 64,42 64,34 	"/>
</g>
</svg>
