<?xml version="1.0" encoding="utf-8"?>
<!-- Generator: Adobe Illustrator 18.1.0, SVG Export Plug-In . SVG Version: 6.00 Build 0)  -->
<svg version="1.1" id="Layer_1" xmlns="http://www.w3.org/2000/svg" xmlns:xlink="http://www.w3.org/1999/xlink" x="0px" y="0px"
	 viewBox="0 0 64 56" enable-background="new 0 0 64 56" xml:space="preserve">
<g>
	<polygon fill="#2D3134" points="5,26.9 5,23.4 7,22.4 7,25.9 	"/>
	<polygon opacity="0.3" points="3,28.4 16.1,20.9 64,45.1 50,52.1 	"/>
	<g>
		<path fill="#2D3134" d="M45.5,42.8c-0.7-0.4-1.4-0.4-1.9-0.2l0,0l-1.4,0.7l0,0c-0.5,0.2-0.9,0.8-0.9,1.6c0,1.5,1.3,3.4,2.8,4.2
			c0.8,0.4,1.5,0.4,2,0.2c0,0,1.4-0.7,1.5-0.8c0.5-0.3,0.7-0.8,0.7-1.5C48.3,45.5,47,43.6,45.5,42.8z"/>
		<path opacity="0.39" d="M46,49.3c0.2-0.1,1.4-0.7,1.5-0.7c0.5-0.3,0.7-0.8,0.7-1.5c0-0.6-0.2-1.3-0.5-1.9l-1.4,0.7
			c0.3,0.6,0.5,1.3,0.5,1.9C46.8,48.5,46.5,49,46,49.3z"/>
		<path fill="#999999" d="M46.2,47.4c0,1.2-0.9,1.6-2.1,1s-2.1-2-2.1-3.2s0.9-1.6,2.1-1S46.2,46.2,46.2,47.4z"/>
		<path fill="#808285" d="M44.2,48.3c-1.2-0.6-2.1-2-2.1-3.2c0-0.6,0.2-1,0.6-1.2c-0.5,0.1-0.8,0.6-0.8,1.2c0,1.2,0.9,2.6,2.1,3.2
			c0.6,0.3,1.1,0.3,1.5,0.1C45.2,48.6,44.7,48.6,44.2,48.3z"/>
		<path fill="#2D3134" d="M45.1,46.7c0,0.5-0.4,0.7-0.9,0.4c-0.5-0.2-0.9-0.8-0.9-1.3c0-0.5,0.4-0.7,0.9-0.4
			C44.7,45.6,45.1,46.2,45.1,46.7z"/>
		<path opacity="0.39" d="M45.1,46.7c0,0.5-0.4,0.7-0.9,0.4c-0.5-0.2-0.9-0.8-0.9-1.3c0-0.5,0.4-0.7,0.9-0.4
			C44.7,45.6,45.1,46.2,45.1,46.7z"/>
		<path fill="#2D3134" d="M44.9,46.8c0,0.5-0.4,0.7-0.9,0.4c-0.5-0.2-0.9-0.8-0.9-1.3s0.4-0.7,0.9-0.4
			C44.5,45.7,44.9,46.3,44.9,46.8z"/>
		<path opacity="0.06" d="M46.8,47.7c0,1.5-1.3,2.2-2.8,1.4s-2.8-2.7-2.8-4.2s1.3-2.2,2.8-1.4S46.8,46.2,46.8,47.7z"/>
	</g>
	<g>
		<path fill="#2D3134" d="M8.9,24.5c-0.7-0.4-1.4-0.4-1.9-0.2l0,0L5.6,25l0,0c-0.5,0.2-0.9,0.8-0.9,1.6c0,1.5,1.3,3.4,2.8,4.2
			c0.8,0.4,1.5,0.4,2,0.2c0,0,1.4-0.7,1.5-0.8c0.5-0.3,0.7-0.8,0.7-1.5C11.8,27.2,10.5,25.3,8.9,24.5z"/>
		<path opacity="0.39" d="M9.5,31c0.2-0.1,1.4-0.7,1.5-0.7c0.5-0.3,0.7-0.8,0.7-1.5c0-0.6-0.2-1.3-0.5-1.9l-1.4,0.7
			c0.3,0.6,0.5,1.3,0.5,1.9C10.4,30.2,10,30.7,9.5,31z"/>
		<path fill="#999999" d="M9.6,29.1c0,1.2-0.9,1.6-2.1,1s-2.1-2-2.1-3.2s0.9-1.6,2.1-1C8.7,26.5,9.6,27.9,9.6,29.1z"/>
		<path fill="#808285" d="M7.7,30c-1.2-0.6-2.1-2-2.1-3.2c0-0.6,0.2-1,0.6-1.2c-0.5,0.1-0.8,0.6-0.8,1.2c0,1.2,0.9,2.6,2.1,3.2
			c0.6,0.3,1.1,0.3,1.5,0.1C8.7,30.3,8.2,30.3,7.7,30z"/>
		<path fill="#2D3134" d="M8.6,28.4c0,0.5-0.4,0.7-0.9,0.4S6.8,28,6.8,27.5s0.4-0.7,0.9-0.4S8.6,27.9,8.6,28.4z"/>
		<path opacity="0.39" d="M8.6,28.4c0,0.5-0.4,0.7-0.9,0.4S6.8,28,6.8,27.5s0.4-0.7,0.9-0.4S8.6,27.9,8.6,28.4z"/>
		<path fill="#2D3134" d="M8.4,28.4c0,0.5-0.4,0.7-0.9,0.4s-0.9-0.8-0.9-1.3c0-0.5,0.4-0.7,0.9-0.4S8.4,28,8.4,28.4z"/>
		<path opacity="0.06" d="M10.4,29.4c0,1.5-1.3,2.2-2.8,1.4C6,30,4.8,28.2,4.8,26.6c0-1.5,1.3-2.2,2.8-1.4
			C9.1,26,10.4,27.9,10.4,29.4z"/>
	</g>
	<path fill="#E5E5E5" d="M5,11.9L5,11.9L5,11.9l14-7l6,3V22l-13.9,6.7c-0.2-0.7-0.6-1.4-1.1-2.1c-1.5-1.8-3.6-2.5-4.8-1.5
		c-0.5,0.4-0.7,1-0.8,1.6L3,25.9v-8L5,11.9z"/>
	<polygon opacity="0.39" points="25,7.9 25,22 11,28.7 11,14.9 	"/>
	<polygon fill="#2D3134" points="46.5,45 46.5,48.8 49,47.5 49,43.8 	"/>
	<polygon opacity="0.06" points="46.5,45 46.5,48.8 49,47.5 49,43.8 	"/>
	<polygon fill="#06547A" points="26,4.9 12,11.9 12,27.2 50,46.3 64,39.3 64,24 	"/>
	<polygon fill="#2D3134" points="64,38 64,40 50,47 50,45 	"/>
	<polygon fill="#2D3134" points="12,25.9 12,27.9 50,47 50,45 	"/>
	<polygon opacity="0.5" fill="#2D3134" points="8.5,19.7 8.5,20.2 9.5,20.7 9.5,20.2 	"/>
	<polygon opacity="0.5" fill="#FFFFFF" points="9.5,20.9 8.5,20.4 8.5,20.2 9.5,20.7 	"/>
	<path fill="#3399CC" d="M3.6,17.7L5.2,13c0.1-0.2,0.3-0.3,0.4-0.2l3.7,1.9c0.1,0.1,0.2,0.2,0.2,0.3v3.8c0,0.2-0.2,0.4-0.4,0.3
		l-1.6-0.8C7.2,18,6.8,18,6.5,18l-1.9,0.4c-0.1,0-0.1,0-0.2,0l-0.7-0.3C3.6,18,3.6,17.8,3.6,17.7z"/>
	<path opacity="0.15" d="M3.6,17.7L5.2,13c0.1-0.2,0.3-0.3,0.4-0.2l0,0l-1.5,4.6c0,0.1,0,0.3,0.1,0.4l0.7,0.3c0.1,0,0.1,0,0.2,0
		L7,17.7c0.4-0.1,0.7,0,1,0.1l1.5,0.8v0.1c0,0.2-0.2,0.4-0.4,0.3l-1.6-0.8C7.2,18,6.8,18,6.5,18l-1.9,0.4c-0.1,0-0.1,0-0.2,0
		l-0.7-0.3C3.6,18,3.6,17.8,3.6,17.7z"/>
	<polygon fill="#2D3134" points="3,25.9 5,26.9 5,24.9 3,23.9 	"/>
	<polygon fill="#FFCC00" points="3,23.9 3.5,24.2 3.5,22.2 3,21.9 	"/>
	<polygon fill="#CC291F" points="63.5,38.8 63.5,39.8 62.5,40.3 62.5,39.3 	"/>
	<polygon fill="#CC291F" points="62,39.5 62,40.5 61,41 61,40 	"/>
	<polygon fill="#CC291F" points="53,44 53,45 52,45.5 52,44.5 	"/>
	<polygon fill="#CC291F" points="51.5,44.8 51.5,45.8 50.5,46.3 50.5,45.3 	"/>
	<path opacity="0.15" d="M51,31.6v12.9l12-6V25.6L51,31.6z M62.5,38.2l-5.3,2.6V29.1l5.3-2.6V38.2z M51.5,31.9l5.3-2.6v11.8
		l-5.3,2.6V31.9z"/>
	<polygon fill="#FFFFFF" points="59.5,40.3 59.5,41.5 54.5,44 54.5,42.8 	"/>
	<polygon fill="#2D3134" points="63.3,37 63.3,37.5 62.3,38 62.3,37.5 	"/>
	<polygon fill="#2D3134" points="51.8,42.8 51.8,43.3 50.8,43.8 50.8,43.3 	"/>
	<polygon opacity="0.5" fill="#2D3134" points="56.5,38.8 56.5,39.5 55.5,40 55.5,39.3 	"/>
	<polygon opacity="0.3" fill="#FFFFFF" points="56.5,39.8 56.5,39.5 55.5,40 55.5,40.3 	"/>
	<polygon fill="#2D3134" points="63.3,26.5 63.3,27 62.3,27.5 62.3,27 	"/>
	<polygon fill="#2D3134" points="51.8,32.3 51.8,32.8 50.8,33.3 50.8,32.8 	"/>
	<path opacity="0.06" d="M5,11.9l6,3v13.5c-0.2-0.6-0.6-1.3-1-1.9c-1.5-1.8-3.6-2.5-4.8-1.5c-0.5,0.4-0.7,1-0.8,1.6L3,25.9
		v-8L5,11.9z"/>
	<polygon opacity="0.06" points="12,11.9 12,27.9 50,47 50,31 	"/>
	<polygon opacity="0.39" points="64,24 64,40 50,47 50,31 	"/>
</g>
</svg>
