<?xml version="1.0" encoding="utf-8"?>
<!-- Generator: Adobe Illustrator 18.1.0, SVG Export Plug-In . SVG Version: 6.00 Build 0)  -->
<svg version="1.1" id="Layer_1" xmlns="http://www.w3.org/2000/svg" xmlns:xlink="http://www.w3.org/1999/xlink" x="0px" y="0px"
	 viewBox="0 0 48 48" enable-background="new 0 0 48 48" xml:space="preserve">
<g>
	<polygon fill="#2D3134" points="5,26.9 5,23.4 7,22.4 7,25.9 	"/>
	<polygon opacity="0.3" points="3,28.4 16.1,20.9 44,35 30,42 	"/>
	<g>
		<path fill="#2D3134" d="M25.5,32.8c-0.7-0.4-1.4-0.4-1.9-0.2l0,0l-1.4,0.7l0,0c-0.5,0.2-0.9,0.8-0.9,1.6c0,1.5,1.3,3.4,2.8,4.2
			c0.8,0.4,1.5,0.4,2,0.2c0,0,1.4-0.7,1.5-0.8c0.5-0.3,0.7-0.8,0.7-1.5C28.3,35.4,27,33.5,25.5,32.8z"/>
		<path opacity="0.39" d="M26,39.2c0.2-0.1,1.4-0.7,1.5-0.7c0.5-0.3,0.7-0.8,0.7-1.5c0-0.6-0.2-1.3-0.5-1.9l-1.4,0.7
			c0.3,0.6,0.5,1.3,0.5,1.9C26.9,38.4,26.5,39,26,39.2z"/>
		<path fill="#999999" d="M26.1,37.3c0,1.2-0.9,1.6-2.1,1c-1.2-0.6-2.1-2-2.1-3.2s0.9-1.6,2.1-1C25.2,34.7,26.1,36.1,26.1,37.3z"/>
		<path fill="#808285" d="M24.2,38.3c-1.2-0.6-2.1-2-2.1-3.2c0-0.6,0.2-1,0.6-1.2c-0.5,0.1-0.8,0.6-0.8,1.2c0,1.2,0.9,2.6,2.1,3.2
			c0.6,0.3,1.1,0.3,1.5,0.1C25.2,38.6,24.7,38.5,24.2,38.3z"/>
		<path fill="#2D3134" d="M25.1,36.6c0,0.5-0.4,0.7-0.9,0.4s-0.9-0.8-0.9-1.3c0-0.5,0.4-0.7,0.9-0.4S25.1,36.1,25.1,36.6z"/>
		<path opacity="0.39" d="M25.1,36.6c0,0.5-0.4,0.7-0.9,0.4s-0.9-0.8-0.9-1.3c0-0.5,0.4-0.7,0.9-0.4S25.1,36.1,25.1,36.6z"/>
		<path fill="#2D3134" d="M24.9,36.7c0,0.5-0.4,0.7-0.9,0.4c-0.5-0.2-0.9-0.8-0.9-1.3s0.4-0.7,0.9-0.4
			C24.5,35.6,24.9,36.2,24.9,36.7z"/>
		<path opacity="0.06" d="M26.9,37.7c0,1.5-1.3,2.2-2.8,1.4c-1.5-0.8-2.8-2.7-2.8-4.2s1.3-2.2,2.8-1.4
			C25.6,34.2,26.9,36.1,26.9,37.7z"/>
	</g>
	<g>
		<path fill="#2D3134" d="M8.9,24.5c-0.7-0.4-1.4-0.4-1.9-0.2l0,0L5.6,25l0,0c-0.5,0.2-0.9,0.8-0.9,1.6c0,1.5,1.3,3.4,2.8,4.2
			c0.8,0.4,1.5,0.4,2,0.2c0,0,1.4-0.7,1.5-0.8c0.5-0.3,0.7-0.8,0.7-1.5C11.8,27.2,10.5,25.3,8.9,24.5z"/>
		<path opacity="0.39" d="M9.5,31c0.2-0.1,1.4-0.7,1.5-0.7c0.5-0.3,0.7-0.8,0.7-1.5c0-0.6-0.2-1.3-0.5-1.9l-1.4,0.7
			c0.3,0.6,0.5,1.3,0.5,1.9C10.4,30.2,10,30.7,9.5,31z"/>
		<path fill="#999999" d="M9.6,29.1c0,1.2-0.9,1.6-2.1,1s-2.1-2-2.1-3.2s0.9-1.6,2.1-1C8.7,26.5,9.6,27.9,9.6,29.1z"/>
		<path fill="#808285" d="M7.7,30c-1.2-0.6-2.1-2-2.1-3.2c0-0.6,0.2-1,0.6-1.2c-0.5,0.1-0.8,0.6-0.8,1.2c0,1.2,0.9,2.6,2.1,3.2
			c0.6,0.3,1.1,0.3,1.5,0.1C8.7,30.3,8.2,30.3,7.7,30z"/>
		<path fill="#2D3134" d="M8.6,28.4c0,0.5-0.4,0.7-0.9,0.4S6.8,28,6.8,27.5s0.4-0.7,0.9-0.4S8.6,27.9,8.6,28.4z"/>
		<path opacity="0.39" d="M8.6,28.4c0,0.5-0.4,0.7-0.9,0.4S6.8,28,6.8,27.5s0.4-0.7,0.9-0.4S8.6,27.9,8.6,28.4z"/>
		<path fill="#2D3134" d="M8.4,28.4c0,0.5-0.4,0.7-0.9,0.4s-0.9-0.8-0.9-1.3c0-0.5,0.4-0.7,0.9-0.4S8.4,28,8.4,28.4z"/>
		<path opacity="0.06" d="M10.4,29.4c0,1.5-1.3,2.2-2.8,1.4C6,30,4.8,28.2,4.8,26.6c0-1.5,1.3-2.2,2.8-1.4
			C9.1,26,10.4,27.9,10.4,29.4z"/>
	</g>
	<path fill="#E5E5E5" d="M5,11.9L5,11.9L5,11.9l14-7l6,3v13.8l-13.9,7c-0.2-0.7-0.6-1.4-1.1-2.1c-1.5-1.8-3.6-2.5-4.8-1.5
		c-0.5,0.4-0.7,1-0.8,1.6L3,25.9v-8L5,11.9z"/>
	<polygon opacity="0.39" points="25,7.9 25,21.7 11,28.7 11,14.9 	"/>
	<polygon fill="#2D3134" points="26.5,34.9 26.5,38.7 29,37.4 29,33.7 	"/>
	<polygon opacity="0.06" points="26.5,34.9 26.5,38.7 29,37.4 29,33.7 	"/>
	<polygon fill="#FF9900" points="26,4.9 12,11.9 12,27.2 30,36.2 44,29.2 44,13.9 	"/>
	<polygon fill="#2D3134" points="44,27.9 44,29.9 30,36.9 30,34.9 	"/>
	<polygon fill="#2D3134" points="12,25.9 12,27.9 30,36.9 30,34.9 	"/>
	<polygon opacity="0.5" fill="#2D3134" points="8.5,19.7 8.5,20.2 9.5,20.7 9.5,20.2 	"/>
	<polygon opacity="0.5" fill="#FFFFFF" points="9.5,20.9 8.5,20.4 8.5,20.2 9.5,20.7 	"/>
	<path fill="#3399CC" d="M3.6,17.7L5.2,13c0.1-0.2,0.3-0.3,0.4-0.2l3.7,1.9c0.1,0.1,0.2,0.2,0.2,0.3v3.8c0,0.2-0.2,0.4-0.4,0.3
		l-1.6-0.8C7.2,18,6.8,18,6.5,18l-1.9,0.4c-0.1,0-0.1,0-0.2,0l-0.7-0.3C3.6,18,3.6,17.8,3.6,17.7z"/>
	<path opacity="0.15" d="M3.6,17.7L5.2,13c0.1-0.2,0.3-0.3,0.4-0.2l0,0l-1.5,4.6c0,0.1,0,0.3,0.1,0.4l0.7,0.3c0.1,0,0.1,0,0.2,0
		L7,17.7c0.4-0.1,0.7,0,1,0.1l1.5,0.8v0.1c0,0.2-0.2,0.4-0.4,0.3l-1.6-0.8C7.2,18,6.8,18,6.5,18l-1.9,0.4c-0.1,0-0.1,0-0.2,0
		l-0.7-0.3C3.6,18,3.6,17.8,3.6,17.7z"/>
	<polygon fill="#2D3134" points="3,25.9 5,26.9 5,24.9 3,23.9 	"/>
	<polygon fill="#FFCC00" points="3,23.9 3.5,24.2 3.5,22.2 3,21.9 	"/>
	<polygon fill="#CC291F" points="43.5,28.7 43.5,29.7 42.5,30.2 42.5,29.2 	"/>
	<polygon fill="#CC291F" points="42,29.4 42,30.4 41,30.9 41,29.9 	"/>
	<polygon fill="#CC291F" points="33,33.9 33,34.9 32,35.4 32,34.4 	"/>
	<polygon fill="#CC291F" points="31.5,34.7 31.5,35.7 30.5,36.2 30.5,35.2 	"/>
	<path opacity="0.15" d="M31,21.6v12.9l12-6V15.6L31,21.6z M42.5,28.1l-5.3,2.6V19l5.3-2.6V28.1z M31.5,21.9l5.3-2.6V31l-5.3,2.6
		V21.9z"/>
	<polygon fill="#FFFFFF" points="39.5,30.2 39.5,31.4 34.5,33.9 34.5,32.7 	"/>
	<polygon fill="#2D3134" points="43.3,26.9 43.3,27.4 42.3,27.9 42.3,27.4 	"/>
	<polygon fill="#2D3134" points="31.8,32.7 31.8,33.2 30.8,33.7 30.8,33.2 	"/>
	<polygon opacity="0.5" fill="#2D3134" points="36.5,28.7 36.5,29.4 35.5,29.9 35.5,29.2 	"/>
	<polygon opacity="0.3" fill="#FFFFFF" points="36.5,29.7 36.5,29.4 35.5,29.9 35.5,30.2 	"/>
	<polygon fill="#2D3134" points="43.3,16.4 43.3,16.9 42.3,17.4 42.3,16.9 	"/>
	<polygon fill="#2D3134" points="31.8,22.2 31.8,22.7 30.8,23.2 30.8,22.7 	"/>
	<path opacity="0.06" d="M5,11.9l6,3v13.5c-0.2-0.6-0.6-1.3-1-1.9c-1.5-1.8-3.6-2.5-4.8-1.5c-0.5,0.4-0.7,1-0.8,1.6L3,25.9
		v-8L5,11.9z"/>
	<polygon opacity="0.06" points="12,11.9 12,27.9 30,36.9 30,20.9 	"/>
	<polygon opacity="0.39" points="44,13.9 44,29.9 30,36.9 30,20.9 	"/>
</g>
</svg>
