<?xml version="1.0" encoding="utf-8"?>
<!-- Generator: Adobe Illustrator 18.1.0, SVG Export Plug-In . SVG Version: 6.00 Build 0)  -->
<svg version="1.1" id="Layer_1" xmlns="http://www.w3.org/2000/svg" xmlns:xlink="http://www.w3.org/1999/xlink" x="0px" y="0px"
	 viewBox="0 0 80 240" enable-background="new 0 0 80 240" xml:space="preserve">
<g>
	<path fill="#FBD7C7" d="M21.7,112c0,0-1.6,3-2.2,5.1c-0.7,2.1-1.7,8.6-1.6,9.7c0.1,1,4.1,8.4,5.8,9.2c1.7,0.8,2-10.2,2-10.2
		l-0.5-4.8l2.7-5.6L21.7,112z"/>
	<path opacity="0.2" d="M25.3,205.3c-11.8,7.6-12.4,14.4,0,21c13.5,7.2,22.4,3.3,32.9-2.7S70,210.2,54.6,204
		C42.1,199,34.2,199.6,25.3,205.3z"/>
	<path fill="#FBD7C7" d="M22.8,123.4c-0.4,3.3-1.6,26.2,0,32.2c1.6,6,2.2,8.8,2.6,11c0.4,2.2,1.8,4.1,2.5,7.6
		c0.7,3.5,3.7,15.1,2.7,19.6c-0.9,4.6-1.4,11.7-4.5,15.6s-8,6.8-4.8,8c3.1,1.2,6.7,0.4,8.1-0.5c1.4-0.9,5.2-6.5,8.4-7.7
		c3.1-1.2,6.3-2.9,6-6c-0.3-3.1-3.1-3.8-3.3-7.6c-0.1-3.8,4.5-14.3,3.1-21.3c-1.3-7.1-3.4-10.5-3.4-10.5l2.4-16.2
		c0,0,1.7,18.9,1.8,20.5c0.1,1.6,1,4.7,1,4.7s-0.3,8.1,0.3,12.7c0.5,4.6,3.8,13.2,2,20s-1.4,8-3.9,11.1c-2.5,3.1-7.2,5.6-3.8,7.3
		c3.4,1.7,7.3,2.5,9.9-1.8s5.5-5.9,6.9-7.2c1.4-1.3,1.8-2.2,0.8-6.3c-1-4.1-1-9.4,0.4-13.6c1.4-4.2,4.7-15.4,4.8-20.2
		c0.1-4.7-2.2-9.4-2.2-9.4s4.3-15.1,5.5-26.8s1-20.4-1-25.5C63.2,107.9,22.8,123.4,22.8,123.4z"/>
	<path fill="#E5E5E5" d="M46.2,210.8c0,0,1.6,1.7,4.2,1.8c3,0.1,6.1-1.6,6.6-2.9c0.7-1.7,0.3-4.3,0.3-4.3s2.8,2.3,2.8,5.1
		c0,2.5-1.8,5.5-1.9,6.5c0,1,0.1,3.5,0.1,3.5l-1.8,1l-3-1.4c0,0-0.9,2.9-2.9,4.4c-2,1.4-6.8,4.2-11.3,2.5s-2-5.6-0.9-6.9s5-4,6-5.9
		C45.5,211.9,46.2,210.8,46.2,210.8z"/>
	<path fill="#E5E5E5" d="M28.3,203.6c0,0,2.4,2.4,5.2,2.3c2.1-0.1,5.3-1.5,6.4-3.4c0.9-1.6,1.4-4.6,1.4-4.6s2.7,1.6,2.7,5.2
		c0,3.2-2.3,6.3-2.4,8.5c-0.1,2.2,0,1.3,0,1.3l-2.4,1.2l-2.4-1.2c0,0,0.8-2.5,0-2c-0.8,0.5-3.3,4.2-5.1,5.9c-1.8,1.7-5.8,4-9.4,2.9
		s-3.4-4.8-1.3-6.6c1.8-1.6,4.1-2.8,5.4-5.2C27.7,205.6,28.3,203.6,28.3,203.6z"/>
	<g opacity="0.4">
		<path d="M41.5,212.9L41.5,212.9C41.5,213.3,41.5,212.9,41.5,212.9z"/>
		<path d="M44,203.1c0,0,0-0.1,0-0.1c-0.4,1.5-1.2,2.5-3.1,4c-2.2,1.8-4,3.3-6.1,5.8c-2.1,2.6-6,6-10.7,6c-2.7,0-4.7-1.9-4.4-3.8
			c-0.6,1.8,0.1,3.8,2.6,4.6c3.6,1.1,7.7-1.2,9.4-2.9c1.8-1.7,4.3-5.4,5.1-5.9c0.8-0.5,0,2,0,2l2.4,1.2l2.3-1.2c0-0.2,0-0.6,0.1-1.3
			C41.7,209.4,44,206.3,44,203.1z"/>
	</g>
	<path opacity="0.4" d="M50.7,224.5c2-1.4,2.9-4.4,2.9-4.4l3,1.4l1.8-1c0,0-0.2-2.5-0.1-3.5c0-0.9,1.5-3.3,1.8-5.7
		c-0.2,0.4-0.4,0.8-0.7,1.2c-1.4,2.3-3.7,3.4-6.5,8.1c-2.6,4.5-9.3,5.9-12,5.4c-2.2-0.4-3.7-1.3-4-2.7c-0.2,1.3,0.4,2.7,2.6,3.5
		C43.8,228.7,48.7,225.9,50.7,224.5z"/>
	<path fill="#993399" d="M22,122.7c-0.3,2.1-1.3,27.5-0.3,33.8c2,12.5,5,17.6,6.7,29.8c0.3,2.5,0.6,7.7,0.6,7.7s5.5,0.6,8.1,0.4
		c4.2-0.4,5.5-0.8,5.5-0.8s1.7-6.7,1.8-16.8c0-3.7-3.3-13.2-3.3-13.2l1.6-8.4l-3-32.8C30.2,122.2,22,122.7,22,122.7z"/>
	<path opacity="0.15" d="M22,122.7c-0.3,2.1-1.3,27.5-0.3,33.8c2,12.5,5,17.6,6.7,29.8c0.3,2.5,0.6,7.7,0.6,7.7s5.5,0.6,8.1,0.4
		c4.2-0.4,5.5-0.8,5.5-0.8s1.7-6.7,1.8-16.8c0-3.7-3.3-13.2-3.3-13.2l1.6-8.4l-3-32.8C30.2,122.2,22,122.7,22,122.7z"/>
	<path fill="#993399" d="M46.5,200.6c0,0,3.5,1.1,6.8,0.9c4.7-0.3,7.7-1.9,7.7-1.9c0.1,0.7,1.9-14.1,2.6-21.6
		c0.5-5-1.2-9.8-0.9-12.4c0.3-2.6,7.3-29.1,6.3-37.3c-0.6-4.8-43.1-31.6-40.5-5.5c1.1,11.1,7.4,12,9.8,16.4c3.6,6.6,3.9,12.4,4.2,16
		c0.6,6.3,2.5,22.7,2.9,27C45.6,186.5,46.5,200.6,46.5,200.6z"/>
	<path fill="#BAA794" d="M24.3,89.7c0,0-1.9,8.4-2.9,23.8c-0.1,2.3,0,5.7-0.1,9.7c-0.1,6.6,11.1,10.9,22.5,11.6
		c12.5,0.8,25.4-0.6,25.8-6.8c1.1-14.8-9.3-28.5-10.6-34.3c-1.3-5.8,6.7-8.6,6.7-8.6s-2-4.7-1.5-11.6c0.5-6.9-5.4-9.9-7.5-11.3
		c-1.7-1.2-17.3-8.4-19.8-9.1s-7.1-0.9-8.2,3.5c-1.2,4.5,0,9.2-1.4,10.9c-1.4,1.7-6.5,8.1-6.3,12.4C21.1,84.4,24.3,89.7,24.3,89.7z"
		/>
	<path fill="#FBD7C7" d="M39.3,27.6c-5.3,3.5-5.8,10.8-5.6,15.8c0.2,5,0.3,9.1,2.2,10.8c1.9,1.7,2.1,2.4,2.3,3.6
		c0.2,1.2-5.7,5.7-0.6,8s6.9-0.3,10.9-2.1c4.3-1.9,7.6-1.6,7.6-1.6s-2.6-4.7-2.4-8.1c0.2-3.3,1-5.8,2.6-9.3
		c1.6-3.5,4.2-12.7-1.1-16.4S42.9,25.2,39.3,27.6z"/>
	<path fill="#2D3134" d="M52.7,25.9c0,0-3.4-4.2-10.2-2.1s-8.2,7.9-8.2,7.9l2.7-1.8l-1.6,3.5l2.5-2.1c0,0-1.1,2.6-1.1,2.5
		c0-0.2,2.6-2.1,2.6-2.1s-1.8,4.6-1.8,4.4c0.1-0.2,6.5-6.2,6.5-6.2l-3.4,7.2l1.6-0.5l-1.5,7.3l1.5-2.5l0.3,5.7l1.8-6.2l1,4.3
		l1.1-4.1l1.4,6.8l1.3-3.5l0.9,3l1.8-4.5l0.4,1.8l1.5-2.7l0.2,1.6l1-0.2l-2,7.5l1.9-3.7l-0.5,6.3l3.1-7.2l0.3,1.6l1.6-6.7l0.3,3.2
		l0.6-4.9l0.9,0.9l-0.7-4.3l1,0.6l-1.9-3.6l1.3,0.5C60.8,33.4,58.9,25.5,52.7,25.9z"/>
	<path opacity="0.15" d="M52.2,82.9c0,0-6.7,8.3-15.4,7.1C27.6,88.6,34,75.4,34,75.4s-8,14.1-12.9,6.3c0.9,4,3.2,8,3.2,8s0,0,0,0
		c1.8,1.2,3.2,0.9,5.6-2c1.8,12.4,21.9,6.1,24.9,3.3C54.1,88.4,52.2,82.9,52.2,82.9z"/>
	<path fill="#FBD7C7" d="M67.5,101.1c-0.7-3.5-2.2-13.2-2.9-15.5l-10.7,2.5c0.1,0.3,0.1,0.3,0.2,0.6c1,2.6,3.3,14.4,3.5,15.3
		c0.2,0.9-2,3.3-3,5.6c-2.7,6.1-3.3,13.9-3.7,15.5c-0.5,1.6-1.6,2.9-2.9,3.8c-1.3,0.9-5.8,4.6-6.2,5.6c-0.3,0.7-1.7,4.5-1.1,6
		c0.6,1.5,2.6,2.7,3.6,2.7c1,0,3-2.8,3.8-4.2c0.8-1.4,0.9-2.2,3.9-4.5c3.1-2.3,3.4-5.4,7-11.1c3.6-5.7,6.1-10.2,7.2-13
		C67.5,107.6,67.8,102.7,67.5,101.1z"/>
</g>
</svg>
