<?xml version="1.0" encoding="utf-8"?>
<!-- Generator: Adobe Illustrator 18.1.0, SVG Export Plug-In . SVG Version: 6.00 Build 0)  -->
<svg version="1.1" id="Layer_1" xmlns="http://www.w3.org/2000/svg" xmlns:xlink="http://www.w3.org/1999/xlink" x="0px" y="0px"
	 viewBox="0 0 80 240" enable-background="new 0 0 80 240" xml:space="preserve">
<g>
	<path fill="#CC291F" d="M23.5,55.8c0,0-6.9,8.5-9.2,11.7c-2.1,2.9-3.9,6-4.4,7.9c-0.5,1.9,1.2,4.9,3.5,7.2
		c2.7,2.7,6.8,8.4,8.3,10.8c1.5,2.4,3.1,5.5,3.1,5.5l11.2-6.3c0,0-7.3-6.6-9.7-10c-2.4-3.3-5-6.7-5-6.7l6.8-3.5L23.5,55.8z"/>
	<path opacity="0.15" d="M23.5,55.8c0,0-6.9,8.5-9.2,11.7c-2.1,2.9-3.9,6-4.4,7.9c-0.5,1.9,1.2,4.9,3.5,7.2
		c2.7,2.7,6.8,8.4,8.3,10.8c1.5,2.4,3.1,5.5,3.1,5.5l11.2-6.3c0,0-7.3-6.6-9.7-10c-2.4-3.3-5-6.7-5-6.7l6.8-3.5L23.5,55.8z"/>
	<path fill="#CC291F" d="M47.6,59.6c2.9,1.3,12.3,6.7,13,10.6c0.8,3.9-1.5,9.8-2,13.8c-1.6,11.8,0.9,20.5,0.9,20.5s-3.6,2.1-5.4,2.1
		C52.2,106.5,47.6,59.6,47.6,59.6z"/>
	<path opacity="0.2" d="M27.6,206.4c-9.2,5.6-9.9,12.4,2,18.7c13,7,20.7,5.5,30.8-0.4c8.9-5.1,6.9-12.1-8.1-18.1
		C40.3,201.8,34.1,202.4,27.6,206.4z"/>
	<g>
		<path fill="#FBD7C7" d="M29.4,96.4c-2.4,3.1-11.4,14.1-8.8,29.7s7,23.9,6.3,27.6s-3.6,10.7-2.9,18.5c0.8,9.6,3.6,19.5,3.8,22.7
			c0.2,3.2,1.3,6.2,0.4,8.7c-0.9,2.5-3,4.3-0.9,6c1.8,1.4,1-0.6,10.1,2.7c12.1,4.5,9.6-1.8,3.6-2.9c-2.1-0.4-4.1-4.7-4.7-7.6
			c-0.3-1.2-1.2-15.7-0.4-22.3c0.8-6.6,0.9-16.9,0.8-19.9c-0.1-3,2.4-14.3,3.3-19.8c1.4-8.4,4-38.1,4-38.1L29.4,96.4z"/>
		<path fill="#656565" d="M27.6,204.7c0,0-2.3,2.5-2.2,4.8c0.1,2.3,1.8,5.6,1.8,6.9c0,1.3,0,3.2,0,3.2l1.7,0.9l1.6-0.8
			c0,0-0.7-5.3,0.5-6.1c1.2-0.8,4.7,1.9,7.2,2.5s8.2-0.1,10.3-0.9c2.2-0.9,0.4-3.6-1.5-4.7c-2.6-1.4-6.6-1.1-6.6-1.1
			s1.3,0.4,2.8,1.9c2.7,2.7-4.7,3.2-11.5-2.6C29,206.3,27.6,204.7,27.6,204.7z"/>
	</g>
	<g>
		<path fill="#FBD7C7" d="M37.8,100.7c0,0-5.3,12.7-5.3,18.9c0,6.2,4.1,8.4,4.8,10.4c0.8,2,1,8.4,2.9,16s4.2,12.4,2,17.9
			c-3.5,8.7-2.9,16.3-1.8,26.9c1,10.6,0.2,16.6-0.1,18.4c-0.4,2-3.5,3-1.9,5.4c2.2,3.2,8.3,3.6,11,4.9c3.2,1.5,7.2,2,8.1,0.4
			c0.9-1.5,0.2-3.9-3.4-3.7c-3,0.1-5.2-5-6.1-7.2c-0.9-2.2,1-9.5,2.6-21c1.5-11.5,2.1-24,2.9-28.7c0.8-4.7,3.1-8.9,3.8-30.2
			s-1.6-27.4-1.6-27.4L37.8,100.7z"/>
		<path fill="#656565" d="M39.4,210.4c0,0-2.3,2-2.3,4.5c0,2.5,2.1,5.3,2.4,7.3s0.2,3.4,0.2,3.4l1.9,0.9l1.9-0.8
			c0,0-1.6-5.6,0.1-6.1c1.6-0.4,6.7,3.6,9.8,3.6s7.2-3.9,7.2-5.3c0-1.5-3.4-3-5.4-2.9c-2,0.1-2.8,0.6-2.8,0.6s3,1.3,3.5,2.3
			c0.4,1-0.6,1.7-1.8,2c-2.6,0.5-5-1.8-9.2-5.1C41.1,212,39.4,210.4,39.4,210.4z"/>
	</g>
	<path fill="#262626" d="M30.8,95.2c0,0-9.2,9.7-10.3,18.3c-2.2,17.6-1.7,49.9-1.7,49.9s7.8,7.7,20,7.3c9.7-0.3,16.6-3.3,16.6-3.3
		s3-35.7,2.9-44.9c-0.1-8.1-2.5-19.7-2.5-19.7s-13-2-17.8-3.8C33.3,97.3,30.8,95.2,30.8,95.2z"/>
	<path fill="#FBD7C7" d="M54.4,65.1c0,0,1.5,1.1,0.6,7.5C54,78.9,54,92,55.8,98.3s5.2,20,6.3,22.6c1,2.6,2.3,3.2,2.9,4.2
		c0.5,0.7,1.3,4.8,0.9,6.2c-0.5,1.4-2.8,5-4.7,5.6s-4.3,0.6-4.6-0.3c-0.3-0.9,1.7-1.2,2-2.6c0.3-1.3,0.5-6,0.5-7.3
		c0-1.2-1.1-4.6-4.9-10.7c-3.8-6.2-7-11.3-8.1-18.1c-1-6.8-3.1-26.4-2.7-30.1C44,62.7,50.6,60.1,54.4,65.1z"/>
	<path fill="#CC291F" d="M34.5,53.3c-3.5-0.2-8.1-0.7-10.3,1.5s-2.8,4.6-1.6,9s8.1,21.8,7.5,25.4c-1.2,7.7-5.9,13-5.9,13
		s3.7,2.4,13.3,3.6c2.6,0.3,9.3,0.8,9.3,0.8s2.2,7.3,2.7,9.2c1.4,5.3,1.8,10.1,1.8,10.1s5.4,1.4,8.9-0.9c2.2-1.4,3.7-3.2,3.4-4
		c-0.3-0.8-3-8.7-4.3-13.1c-1.3-4.4-4.8-18.3-4.7-25c0.1-6.6,3.5-13.8-0.1-18.5c-3.6-4.7-12-8.6-12-8.6L34.5,53.3z"/>
	<path fill="#FBD7C7" d="M44.5,26.3c3.3,1.2,4.6,4,5.1,10s-0.2,9.7-0.6,10.8c-0.5,1-4.1,2.2-5,3.8c-0.9,1.5-1.6,4.7-1.1,5.3
		c0.9,1.2,1.7,1.2,1.7,1.2s-8.3,2-11.2,0.7c-2.9-1.3-2.8-3-2.3-3.6c0.6-0.7,1.6-3.4,1.1-5c-0.6-1.5-7.4-7.7-5.3-14.9
		C29.6,26,37.8,23.9,44.5,26.3z"/>
	<path fill="#825012" d="M43.3,51.2c2.5-1.4,4.8-9.9,4.8-9.9s0.6,1.1,0.7,4.2c1.6-1.1,3.2-13.2-1.5-17.3c-8.7-7.7-16.3-4.9-18.9-2
		c2.7-1,3.3-0.5,3.4-0.6c0,0-8.3,2.4-9.5,11.2c-1.1,7.9,2.4,12,4.1,13.7c0-1.1,0.4-3.3,0.4-3.3s0.3,8,6.5,9.7
		c8.2-2.5,9.2-10.4,9.2-10.4S43.5,47.9,43.3,51.2z"/>
</g>
</svg>
