<?xml version="1.0" encoding="utf-8"?>
<!-- Generator: Adobe Illustrator 18.1.0, SVG Export Plug-In . SVG Version: 6.00 Build 0)  -->
<svg version="1.1" id="Layer_1" xmlns="http://www.w3.org/2000/svg" xmlns:xlink="http://www.w3.org/1999/xlink" x="0px" y="0px"
	 viewBox="0 0 80 240" enable-background="new 0 0 80 240" xml:space="preserve">
<path opacity="0.2" d="M24.8,208.9c-9.5,5.8-10.2,12.8,2.1,19.4c13.5,7.2,21.4,5.7,31.9-0.4c9.2-5.3,7.1-12.5-8.4-18.7
	C37.9,204.2,31.6,204.7,24.8,208.9z"/>
<path fill="#FBD7C7" d="M13.1,116.9c0.2,6.2,2.3,21.9,3.8,26.3s3.2,11.2,2.5,14.8c-0.8,3.6-3,9.6-1.7,18c1.4,8.3,5.5,21.2,4.6,26.9
	c-0.9,5.7-2.7,8.4-0.8,10.1c1.9,1.7,2.9,3,6.6,2.8c3.6-0.2,4,0.2,6.6,1.5c2.6,1.3,9,0.5,9.4-1.8c0.4-2.3-7.5-1.3-9.1-4.1
	c-1.7-2.8-4.3-9.3-3.4-15.6c0.9-6.3,2.9-23.1,2.9-28.2c0.1-3.8,2.4-17.3,4.3-24.6c2.5-9.3,4.3-29.6,4.3-29.6l-26.3-9.6
	C16.8,103.7,12.9,109.9,13.1,116.9z"/>
<g>
	<path fill="#E5E5E5" d="M21.3,207.3c0,0,3,1.4,5,2.2c2.7,1.2,7.6-0.8,7.6-0.8s0.8,2.3,2.2,2.6c1.4,0.3,6.6-0.5,7.8,0.1
		c1.2,0.6,4.6,1.6,2.2,3.5c-2.4,1.8-7.9,4.4-10.4,3.9c-2.6-0.5-7.2-1.8-8.4-1.4c-1.2,0.4-0.5,4.5-0.5,4.5l-2,1l-2.4-1.2
		c0,0,0-1.4-0.3-3c-0.4-1.6-2.1-2.3-2.1-5.2C19.9,210.5,21.3,207.3,21.3,207.3z"/>
	<path opacity="0.4" d="M19.9,213.9c0.1,2.6,1.7,3.3,2.1,4.7c0.4,1.6,0.3,3,0.3,3l2.4,1.2l2-1c0,0-0.7-4.1,0.5-4.5
		c1.2-0.4,5.9,0.9,8.4,1.4s8-2,10.4-3.9c0.7-0.5,0.9-1.1,0.8-1.6c-1.4,1.1-6.1,5.5-14.1,3.5C28,215.6,24.9,215.8,19.9,213.9z"/>
</g>
<path fill="#FBD7C7" d="M31.7,112.3c0,0-4.7,7.4-2.9,14c1.8,6.7,3.7,8.3,3.7,8.3s1.4,7.9,2.6,11.2c1.2,3.3,4.6,13.3,4.3,15.2
	c-0.3,1.9-3.9,10.6-3.5,17c0.4,6.4,1.9,20,2.4,25.5c0.4,5.3,0.8,6.7-0.2,9.3c-1,2.7-3.4,7.2,0.8,8.6s6.3-0.1,9.3,2
	c3,2.1,8,2.8,9.8,0.5s-3-3.3-3.7-3.5c-0.7-0.2-4.3-4.4-5.1-9.6c-0.9-5.9,0.1-19.1,1.5-24.5c1.4-5.4,1.4-14.1,1.7-16.5
	c0.3-2.4,5.9-16.9,5.9-25.6s-3.8-26.1-3.8-26.1L31.7,112.3z"/>
<path fill="#E5E5E5" d="M37.7,213.3c0,0,3.3,1.2,5.8,2.3c1.5,0.6,4.5,0.5,5.4,0.3c0.9-0.3,2-0.7,2-0.7s1.3,3.5,2.3,3.8
	c0.9,0.3,4.3-0.7,6,1.1c1.8,1.8,1.3,2.8,0.4,3.9c-0.9,1-4.4,3.5-7.1,3c-1.9-0.4-7.9-2.7-9.1-2.5c-1.2,0.3-0.7,4.6-0.7,4.6l-2.3,1.1
	l-2-1c0,0-0.1-2.1-0.7-3.6c-0.7-1.4-1.9-3.1-1.9-6.2S37.7,213.3,37.7,213.3z"/>
<path opacity="0.4" d="M60.3,221.8c-0.1,1.9-5.3,4.8-7.6,4.1c-6.9-2.1-12.6-3.9-16.9-6.3v0c0,3,1.3,4.6,1.9,6
	c0.7,1.4,0.7,3.6,0.7,3.6l2,1l2.3-1.1c0,0-0.6-4.4,0.7-4.6c1.2-0.3,7.2,2.1,9.1,2.5c2.6,0.5,6.2-2,7.1-3
	C60.2,223.3,60.5,222.6,60.3,221.8z"/>
<path fill="#993399" d="M29.1,115.7c0,0-16-3.2-16.1-2.3c-0.6,7.1-0.4,16.8,1.2,22.9c1.7,6.8,3.5,16.5,2.9,22.1
	c-0.7,5.6-0.8,14.9,0.1,22.6c0.9,7.7,1.8,15.7,1.8,15.7s3.5,2,7.6,2c4.1,0,6.8-1,6.8-1s1.3-20.6,1.6-25.9c0.3-5.4,2.1-19.2,2.1-19.2
	s0.8-16.5-0.7-21.7C35,125.5,29.1,115.7,29.1,115.7z"/>
<path opacity="0.15" d="M29.1,115.7c0,0-16-3.2-16.1-2.3c-0.6,7.1-0.4,16.8,1.2,22.9c1.7,6.8,3.5,16.5,2.9,22.1
	c-0.7,5.6-0.8,14.9,0.1,22.6c0.9,7.7,1.8,15.7,1.8,15.7s3.5,2,7.6,2c4.1,0,6.8-1,6.8-1s1.3-20.6,1.6-25.9c0.3-5.4,2.1-19.2,2.1-19.2
	s0.8-16.5-0.7-21.7C35,125.5,29.1,115.7,29.1,115.7z"/>
<path fill="#993399" d="M37.7,161.1c-0.8,4.8-2.5,9.4-2.5,16c0,6.5,1.2,25.5,1.2,25.5s3.4,1.3,7.2,1.4c3.8,0.1,8.6-1.2,8.6-1.2
	s-0.3-20.3,0.3-24.4c0.5-4.1,2.7-13,4.6-22.3c2.4-11.4,1.4-21.7,0-27.9c-1.4-6.2-2.6-11.8-2.6-11.8s-3.1-1.8-7.5-4l-21.1,1
	c0,0-2.3,15.7,0.1,20.6c2.6,5.4,5.3,5.5,7.3,9.2c2.4,4.3,3.8,9.2,3.8,9.2S38.5,156.3,37.7,161.1z"/>
<path fill="#FBD7C7" d="M18.4,64.2c0,0-3.7,13-3.7,15.7s5.4,15.9,5.8,16.8c0.4,0.9,5.2-4.1,5.2-4.1s-2.9-8.4-2.9-10.8
	c0-2.4,1.8-8.2,1.8-8.2L18.4,64.2z"/>
<path fill="#BAA794" d="M34.6,51.7c-1.3-0.2-9-3.4-12.8-1.5c-2.7,1.3-3.9,3.6-4,5.7c-0.1,1.7,0.4,5.9-0.2,8.3c-0.3,1.3-0.9,4-0.9,4
	l2.5,1.7c0,0,1,8.5,0.4,14.9c-0.6,6.4-3,15.7-5.1,20.4c-2.2,5.1-2.5,9.6-2.5,16.1c0,8,17.5,12.8,25.5,13c7.7,0.1,22.8-1.3,22.5-7.6
	c-0.8-14.9-4-38.2-2.3-41c1.7-2.8,4-7.2,1-11.9c-3-4.7-5.6-6.7-5.9-7.7c-0.3-1-0.2-3-2.4-5.1C48,58.5,41.7,52.9,34.6,51.7z"/>
<path fill="#FBD7C7" d="M31.2,24.4c6.9-1.6,14.3,0.7,15.6,10.3s-1,11.7-2.1,12.4s-2.4,3.3-2.9,4.9c-0.5,1.6,0.2,2.6,0.2,2.6
	s-7.7,4.5-12.4,2.7c-4-1.5-4.5-3.5-2.8-6.6s-2.3-5-3.5-9.6C21.9,36.7,22,26.5,31.2,24.4z"/>
<path fill="#2D3134" d="M40,22.5c3.5,1.1,6.4,6,6.4,6L43.8,27l2.5,3.7L44,29.1l2.2,5l-1.4-0.7c0,0,0.8,1.8,0.3,4.6
	c-0.3,1.9-1.4,3.4-1.4,3.4V38c0,0-0.3,4.4-2.5,7.4c0,0,1-4.5,0.6-5.2c-0.4-0.7-0.9,1.6-0.9,1.6l-0.7-2l-0.4,2.1L38,41
	c0,0,0.6,2.2-1.1,5.6c-1,2-3.9,4.8-3.9,4.8l0.9-4.3l-3.6,6.3L29.4,50l-0.6,2.4l-0.6-1.8l-0.8,2c0,0-0.9-3.6-1.3-4.4
	c-0.3-0.7-0.8,0.7-0.8,0.7l-1.9-4.7l-0.7,1.4l-0.8-5.4l-0.6,1.1l-0.6-5.5L19.5,37c0,0,0.2-5.4,1.9-7.7c1.2-1.7,2.4-2,2.4-2l-1.7-0.1
	c0,0,2.7-3.9,7-4.4c3.7-0.5,4.1,0.3,4.1,0.3S35.9,21.2,40,22.5z"/>
<path opacity="0.15" d="M56.9,82.4c-3.2,1.3-5.6,0.6-5.6,0.6s-0.4,2.2-0.4,4.2c0,1.2,0.1,3,0.1,3s3.7-2,6.7-4.5c0,0,0-0.1,0.1-0.1
	c0.9-1.5,2-3.4,2.3-5.6C59.3,81,58.2,81.9,56.9,82.4z"/>
<path fill="#FBD7C7" d="M40.4,81.1c0,0,3.8,0.9,6.4,0.5c2.6-0.4,4.9-1.4,4.9-1.4s-0.6,5.3-0.5,9.3c0.1,3.9-0.2,7.3,1.7,11.8
	c1.9,4.5,3.1,12.6,4.3,15.1s5.2,7.9,5.2,10.1c0,2.2,0,7.3-0.8,8.6c-0.8,1.2-4,4.4-5.4,3.8c-1.4-0.6-0.9-5.5-0.9-6.3
	c0-0.8,0.8-4.1,0.2-5.2c-0.6-1-8.8-12.9-10.4-16.8c-1.6-3.9-4.4-11.7-4.6-18.1C40.3,86.1,40.4,81.1,40.4,81.1z"/>
</svg>
