<?xml version="1.0" encoding="utf-8"?>
<!-- Generator: Adobe Illustrator 18.1.0, SVG Export Plug-In . SVG Version: 6.00 Build 0)  -->
<svg version="1.1" id="Layer_1" xmlns="http://www.w3.org/2000/svg" xmlns:xlink="http://www.w3.org/1999/xlink" x="0px" y="0px"
	 viewBox="0 0 80 240" enable-background="new 0 0 80 240" xml:space="preserve">
<path opacity="0.2" d="M24.9,210.1c-9,5.6-9.7,12.2,2,18.5c12.9,6.9,20.4,5.4,30.4-0.4c8.7-5.1,6.8-12-8-17.9
	C37.4,205.5,31.3,206.1,24.9,210.1z"/>
<path fill="#FBD7C7" d="M13.8,121.3c0.2,5.9,2.5,21.7,3.9,25.9c1.4,4.2,3.1,10.7,2.3,14.2c-0.7,3.5-2.9,9.2-1.6,17.2
	s5.6,20.2,4.8,25.7c-0.8,5.4-2.9,8.1-1.1,9.7c1.8,1.6,2.8,2.9,6.3,2.7s3.8,0.2,6.3,1.4s8.6,0.5,9-1.7c0.4-2.2-7.1-1.2-8.7-3.9
	c-1.6-2.7-4.1-8.9-3.3-14.9c0.8-6,4-23,3.4-26.5c-0.7-3.6,1.9-17.3,5-23.9s2.7-28.3,2.7-28.3l-25.1-9.2
	C17.6,109.5,13.6,114.6,13.8,121.3z"/>
<g>
	<path fill="#BAA794" d="M21.9,208.4c0,0,2.9,1.3,4.8,2.1c2.5,1.1,7.2-0.8,7.2-0.8s0.7,2.2,2.1,2.5c1.3,0.3,6.3-0.5,7.5,0.1
		c1.1,0.6,4.4,1.6,2.1,3.3c-2.3,1.7-7.5,4.2-9.9,3.7c-2.4-0.5-6.9-1.7-8.1-1.4c-1.2,0.4-0.5,4.2-0.5,4.2l-1.9,1l-2.3-1.2
		c0,0,0-1.3-0.3-2.8s-2-2.2-2-5C20.5,211.5,21.9,208.4,21.9,208.4z"/>
	<path opacity="0.4" d="M20.5,214.6c0.1,2.5,1.6,3.1,2,4.5c0.4,1.5,0.3,2.8,0.3,2.8l2.3,1.2l1.9-1c0,0-0.7-3.9,0.5-4.2
		c1.2-0.4,5.6,0.9,8.1,1.4c2.4,0.5,7.6-1.9,9.9-3.7c0.6-0.5,0.9-1,0.8-1.5c-1.3,1-5.9,5.3-13.4,3.3
		C28.3,216.3,25.4,216.5,20.5,214.6z"/>
</g>
<path fill="#FBD7C7" d="M19.1,71.8c0,0-3.6,12.4-3.6,15c0,2.6,5.2,15.2,5.5,16c0.4,0.8,5-3.9,5-3.9s-2.8-8.1-2.8-10.3
	s1.7-7.9,1.7-7.9L19.1,71.8z"/>
<path fill="#FBD7C7" d="M31.8,117.7c0,0-4.5,7-2.8,13.4c1.7,6.4,3.6,8,3.6,8s0.8,8.8,2,12c1.1,3.2,4.9,11.4,4.6,13.2
	c-0.3,1.8-3.7,10.1-3.4,16.2c0.4,6.1,1.6,19.2,2.6,24.4c1,5.3,0.4,6.4-0.6,8.9s-3.3,6.8,0.7,8.2s6-0.1,8.9,1.9
	c2.9,2,7.6,2.7,9.4,0.5s-2.9-3.2-3.6-3.4c-0.7-0.2-4.1-4.2-4.9-9.2c-0.9-5.6,0.1-18.3,1.4-23.4c1.3-5.2,1.3-13.5,1.6-15.7
	c0.3-2.2,5.6-16.1,5.6-24.5s-3.7-24.9-3.7-24.9L31.8,117.7z"/>
<path fill="#825012" d="M34.6,59.9c-1.2-0.2-8.6-3.3-12.2-1.4c-2.5,1.3-3.7,3.4-3.8,5.5c-0.1,1.6,0.4,5.7-0.2,8
	c-0.3,1.3-0.9,3.8-0.9,3.8l2.3,1.6c0,0,1,8.1,0.4,14.2c-0.6,6.1-3.3,14.8-4.8,19.5c-2.4,7.2-2.6,20.9-1.4,29.1
	c1.2,8.4,0.8,36.9,2.2,39.2c1.5,2.5,17.4,9.5,25,9.6c7.4,0.1,12.9-3.7,14.1-5.9c1.4-2.4,4.1-37.4,3.6-51.7S55.1,95,56.7,92.2
	c1.6-2.7,3.8-6.9,0.9-11.4c-2.9-4.5-5.3-6.4-5.6-7.3c-0.3-0.9-0.2-2.9-2.2-4.9C47.4,66.3,41.4,61,34.6,59.9z"/>
<path fill="#FBD7C7" d="M31.3,33.8c6.6-1.5,13.7,0.7,14.9,9.9s-0.9,11.2-2,11.9s-2.3,3.2-2.8,4.7s0.2,2.5,0.2,2.5s-7.9,4-11.8,2.6
	c-3.9-1.4-4.2-3.4-2.7-6.3c1.6-2.9-2.2-4.8-3.4-9.2C22.5,45.5,22.6,35.8,31.3,33.8z"/>
<path fill="#BAA794" d="M37.6,214.1c0,0,3.1,1.2,5.5,2.2c1.4,0.6,4.3,0.5,5.2,0.2c0.9-0.2,1.9-0.7,1.9-0.7s1.3,3.4,2.2,3.6
	c0.9,0.2,4.2-0.6,5.8,1c1.7,1.7,1.3,2.7,0.4,3.7c-0.8,1-4.2,3.3-6.7,2.9c-1.8-0.3-7.5-2.6-8.7-2.4s-0.7,4.4-0.7,4.4l-2.2,1.1l-2-1
	c0,0,0-2-0.7-3.4c-0.6-1.4-1.8-2.9-1.8-5.9S37.6,214.1,37.6,214.1z"/>
<path opacity="0.4" d="M59.1,222.2c-0.1,1.8-5.1,4.6-7.3,3.9c-6.6-2-12-3.7-16.2-6v0c0,2.8,1.2,4.4,1.8,5.7c0.6,1.4,0.7,3.4,0.7,3.4
	l2,1l2.2-1.1c0,0-0.5-4.2,0.7-4.4c1.2-0.2,6.8,2,8.7,2.4c2.5,0.5,5.9-1.9,6.7-2.9C59,223.6,59.3,223,59.1,222.2z"/>
<path opacity="0.15" d="M55.9,89.1c-3.1,1.2-5.3,0.6-5.3,0.6s-0.3,2.1-0.4,4c0,1.1,0.1,2.9,0.1,2.9s3.6-1.9,6.4-4.3
	c0,0,0-0.1,0.1-0.1c0.8-1.4,1.9-3.3,2.2-5.4C58.1,87.8,57.1,88.7,55.9,89.1z"/>
<path fill="#FBD7C7" d="M40.1,87.9c0,0,3.6,0.8,6.1,0.4c2.5-0.4,4.7-1.3,4.7-1.3s-0.6,5-0.5,8.9c0.1,3.8-0.2,7,1.6,11.3
	c1.8,4.3,2.9,12,4.1,14.4c1.2,2.4,5,7.5,5,9.6s0,7-0.7,8.2c-0.7,1.2-3.8,4.2-5.2,3.6c-1.4-0.6-0.8-5.2-0.8-6c0-0.7,0.7-3.9,0.2-4.9
	c-0.6-1-8.4-12.3-9.9-16c-1.5-3.7-4.2-11.1-4.4-17.2C40.1,92.7,40.1,87.9,40.1,87.9z"/>
<path fill="#999999" d="M33.3,32.6c3.8-2.2,9.8-0.1,12.2,4.5c2.8,5.2,0.1,3-0.3,5c-0.4,2,0.7,9.5-4.2,11.2c0.6-0.9,1.2-3.1-0.5-3
	c-2.2,0.2-1.4,9.7-10.6,11.1C17.1,56.6,15.9,29.9,33.3,32.6z"/>
</svg>
