<?xml version="1.0" encoding="utf-8"?>
<!-- Generator: Adobe Illustrator 18.1.0, SVG Export Plug-In . SVG Version: 6.00 Build 0)  -->
<svg version="1.1" id="Layer_1" xmlns="http://www.w3.org/2000/svg" xmlns:xlink="http://www.w3.org/1999/xlink" x="0px" y="0px"
	 viewBox="0 0 80 240" enable-background="new 0 0 80 240" xml:space="preserve">
<g>
	<path fill="#FBD7C7" d="M20.9,105c-1.5,3.2-5.2,8.9-5.4,10.6s-1.1,5.2-0.5,6.9s4.2,4.3,5,4.3c0.8,0,1.5-2.7,1.5-3.4s-1-2.3-1-2.3
		s1.9,0.8,2,0C22.7,120.3,20.9,105,20.9,105z"/>
	<path opacity="0.2" d="M8.6,231.8c-15.3-7.4,2.7-16.5,19.2-21.1c14.5-4.1,28.9-20.4,45.5-9.9c13.4,8.5-8.3,16.2-21.3,20.9
		C33.4,228.3,21.3,237.9,8.6,231.8z"/>
	<path fill="#FBD7C7" d="M21.6,170.1c-0.3,3.2-0.4,10.8-0.6,16c-0.2,5.2-0.6,12.6-1.9,17.7c-1.3,5.1-2.5,10.8-3.8,12.9
		s-7.1,7.5-2,7.1c5.1-0.4,8.9-7.3,10.8-9.2s4-5.6,4-5.6s0.1-2.5,1.1-7.3c1-4.8,6.7-19.4,7-24.9c0.3-5.5-1.6-11-1.6-11L21.6,170.1z"
		/>
	<path fill="#FBD7C7" d="M58.3,208.8c-1.1,1.2-3.6,3.6-0.6,4.3c3.1,0.7,7.4-1,9.3-5.7c1.9-4.8,3.4-9.6,3.7-10.8
		c0.3-1.1-1.4-3.7-2.1-5.7c-0.7-2-1.1-11-3.4-16.4c-1.3-3.2-7.3-8.3-7.3-8.3l-12.8,4.7c0,0,2.9,4.2,5,6.2c2.1,2,4.8,6.7,7,9.5
		c2.2,2.8,4.4,6.4,4.1,9.9C60.9,199.9,59.4,207.5,58.3,208.8z"/>
	<path fill="#E5E5E5" d="M16.3,211.1c0,0,5.2,2.1,7.7,0.4c2.5-1.8,4.4-5,4.4-5s0.9,1.1,1.4,4c0.5,2.9-1.2,9-1.2,9l-1.9,1.9l-3-1
		c0,0-2.6,5.1-5.7,6.9c-3.4,1.9-9.5,1-9.9-0.8c-0.7-3.1,2-4.4,3.6-6.2C13.9,217.8,16.3,211.1,16.3,211.1z"/>
	<path opacity="0.4" d="M8,225.9c0,0.2,0,0.4,0.1,0.6c0.4,1.8,6.5,2.6,9.9,0.8c3.2-1.7,5.7-6.9,5.7-6.9l3,1l1.9-1.9
		c0,0,1.3-4.5,1.3-7.6c-0.4,0.7-1,1.5-2,2c-3.3,2-3.2,3.5-5,6.5c-1.5,2.5-3.1,5.5-7,6.6C13.5,227.7,9.8,227.2,8,225.9z"/>
	<path fill="#E5E5E5" d="M59.9,199.7c0,0,3.7,1,5.9-0.5s3.9-6.7,3.9-6.7s2.8,0.9,3,4.6c0.3,3.7-0.3,4.5-0.1,6
		c0.1,1.6,0.5,2.8,0.5,2.8l-1.3,1.6l-3-0.5c0,0-1.6,5.5-4.1,7.6c-3.4,2.8-8.7,2.5-10.6,0.8c-1-0.9-1-3.1,1.1-4.9
		c2.1-1.8,3.8-5.3,4-6.8C59.5,202.3,59.9,199.7,59.9,199.7z"/>
	<path opacity="0.4" d="M68.7,207l3,0.5l1.3-1.6c0,0-0.4-1.2-0.5-2.8c-0.1-1.5,0.4-2.3,0.1-6c0-0.1,0-0.2,0-0.3
		c-0.7,2.9-2.5,4.4-4.1,8.2c-1.5,3.5-1.5,7.2-6.1,9.9c-3.2,1.9-7.3,0.7-8.9-0.2c0.1,0.3,0.3,0.6,0.5,0.8c1.8,1.7,7.1,2,10.6-0.8
		C67.1,212.5,68.7,207,68.7,207z"/>
	<path fill="#993399" d="M20.9,120.2c0,0-2.8,21.5-2,29.7s1.8,15.7,1.5,19.7c-0.3,4.1-0.6,21.1-1,23.2c-0.4,2.2,2.8,2.8,6.1,3.4
		s7.3,0.4,8-1.3s4.2-19.1,3.9-22.5c-0.3-3.4-1.9-9.3-1.4-11.9c0.5-2.7,7.6-12.7,9-20c1.4-7.3-0.9-19.6-0.9-19.6L20.9,120.2z"/>
	<path opacity="0.15" d="M20.9,120.2c0,0-2.8,21.5-2,29.7s1.8,15.7,1.5,19.7c-0.3,4.1-0.6,21.1-1,23.2c-0.4,2.2,2.8,2.8,6.1,3.4
		s7.3,0.4,8-1.3s4.2-19.1,3.9-22.5c-0.3-3.4-1.9-9.3-1.4-11.9c0.5-2.7,7.6-12.7,9-20c1.4-7.3-0.9-19.6-0.9-19.6L20.9,120.2z"/>
	<path fill="#993399" d="M29.7,119.4c0,0,3.3,11.1,4.3,14.1c1,3.1,4.5,19.2,5.2,22.3c0.8,3.1,2.4,9,3.2,11.5c0.8,2.4,3.6,5.6,6,8.2
		c2.4,2.5,6.9,9.1,8.2,11.5c1.3,2.4,1.4,3.3,4.5,2.8c3.6-0.6,7.2-3.9,8.2-4.8c0.4-1.6-0.8-8.1-2.9-12.9s-6.9-10.1-6.9-12.3
		c0-2.2,3.1-16.4,3.3-22.8c0.3-6.4,1.1-14.3,0.1-17.5c-1-3.2-3.6-6.8-3.6-6.8s-8.4,3.3-14.1,4.5C39.4,118.5,29.7,119.4,29.7,119.4z"
		/>
	<path fill="#BAA794" d="M25,89.3c0,0-4.3,8.3-5.2,23.3c-0.8,12.6-0.9,12.3-0.3,13.6c1,2.3,15.6,3.6,24.9,3.8
		c6.3,0.1,16.2-1.4,19.2-4.8c1.3-1.4,0.5-5.5,0.4-6.1c-1.1-6.3-2.5-9.9-3.3-15.6C58.7,90.2,62,76,62.3,71.8c0.5-6.8-4-9.8-6.1-11
		c-3.2-1.8-16.6-5-19-5.7c-2.4-0.6-6.9-0.9-8,3.4s0.1,7.6-1.3,9.2c-1.4,1.7-6.4,7.9-6.1,12.1C21.9,84.1,25,89.3,25,89.3z"/>
	<path opacity="0.15" d="M52.1,82.7c0,0-6.5,8.1-15,6.9c-9-1.3-2.7-14.1-2.7-14.1s-7.8,13.7-12.6,6.1c0.9,3.9,3.1,7.8,3.1,7.8
		s0,0,0,0c1.7,1.2,3.1,0.9,5.5-1.9c1.8,12.1,21.3,5.9,24.2,3.2C54,88,52.1,82.7,52.1,82.7z"/>
	<path fill="#FBD7C7" d="M50.2,82.1l10.3-1c0,0,1.4,12.5,1.3,15.8s-0.1,6.5-1,9.3c-0.9,2.8-9.3,19.5-11.2,23.3
		c-1.9,3.8-3.8,9.6-4.2,10.6c-0.4,1-3.2,4.8-4.3,5.4s-3.7,1.2-5.7,0.4c-1.5-0.6,1.8-10.2,2.3-11.5c1-2.2,2.8-3.5,3.8-4.9
		s4.1-7.1,5.4-11.9s2.5-10.6,4.3-12.9c1.7-2.4,2.4-4.7,2-6.5C52.6,96.4,50.2,82.1,50.2,82.1z"/>
	<path fill="#FBD7C7" d="M37.2,28c-5.2,3.4-5.6,10.5-5.4,15.4s0.3,8.9,2.2,10.5c1.8,1.7,2,2.4,2.2,3.5c0.2,1.1-5.5,5.6-0.6,7.8
		c4.9,2.2,6.7-0.3,10.7-2c4.2-1.8,7.4-1.6,7.4-1.6s-2.5-4.6-2.3-7.8c0.2-3.2,1-5.7,2.5-9c1.6-3.4,4.1-12.4-1.1-15.9
		S40.7,25.7,37.2,28z"/>
	<path fill="#2D3134" d="M50.2,26.3c0,0-3.3-4.1-9.9-2S32.3,32,32.3,32l2.6-1.7l-1.6,3.4l2.4-2.1c0,0-1.1,2.6-1.1,2.4
		c0-0.2,2.5-2,2.5-2s-1.8,4.4-1.7,4.3c0.1-0.2,6.3-6,6.3-6l-3.3,7l1.5-0.5l-1.4,7.1l1.4-2.4l0.3,5.5l1.7-6l1,4.2l1.1-4l1.4,6.6
		l1.3-3.4l0.9,2.9l1.8-4.4l0.4,1.7l1.5-2.7l0.2,1.6l1-0.2l-1.9,7.3l1.9-3.6l-0.5,6.1l3-7.1l0.3,1.5l1.5-6.5l0.3,3.1l0.6-4.8l0.9,0.9
		l-0.7-4.2l0.9,0.5l-1.9-3.5l1.2,0.5C58.1,33.6,56.2,26,50.2,26.3z"/>
</g>
</svg>
