<?xml version="1.0" encoding="utf-8"?>
<!-- Generator: Adobe Illustrator 18.1.0, SVG Export Plug-In . SVG Version: 6.00 Build 0)  -->
<svg version="1.1" id="Layer_1" xmlns="http://www.w3.org/2000/svg" xmlns:xlink="http://www.w3.org/1999/xlink" x="0px" y="0px"
	 viewBox="0 0 80 240" enable-background="new 0 0 80 240" xml:space="preserve">
<path opacity="0.2" d="M24.6,208c-11.2,7.2-11.8,13.7,0,20c12.9,6.9,21.4,3.2,31.4-2.6c10-5.7,11.3-12.8-3.5-18.7
	C40.5,202,33,202.5,24.6,208z"/>
<path fill="#FBD7C7" d="M20.5,118c0,0-1.5,2.9-2.1,4.9c-0.6,2-1.9,6.7-1.5,9.2c0.3,2.1,3.9,5.9,5.5,6.7c1.6,0.7,1.9-7.7,1.9-7.7
	l-0.5-4.6l2.6-5.4L20.5,118z"/>
<path fill="#FBD7C7" d="M22,128.8c-0.4,3.1-1.5,25,0,30.7c1.5,5.7,2.1,8.4,2.5,10.5s1.7,3.9,2.4,7.2c0.6,3.4,3.5,14.4,2.6,18.7
	s-1.4,11.1-4.2,14.9s-7.6,6.5-4.6,7.6c3,1.1,6.4,0.4,7.7-0.5c1.4-0.9,5-6.2,8-7.4c3-1.1,6-2.7,5.7-5.7c-0.2-3-3-3.6-3.1-7.2
	c-0.1-3.6,4.2-13.6,3-20.4c-1.2-6.7-3.2-10-3.2-10l2.1-5.2c0,0,1.7,7.9,1.9,9.4c0.1,1.5,1,4.5,1,4.5s-0.2,7.7,0.2,12.1
	s3.6,12.6,1.9,19.1s-1.4,7.6-3.7,10.6c-2.4,3-6.9,5.4-3.6,7c3.2,1.6,7,2.4,9.5-1.7s5.2-5.6,6.6-6.9c1.4-1.2,1.7-2.1,0.7-6
	s-1-9,0.4-13c1.4-4,4.5-14.7,4.6-19.2c0.1-4.5-2.1-9-2.1-9s4.1-14.4,5.2-25.6s1-19.5-1-24.4C60.5,114.1,22,128.8,22,128.8z"/>
<path fill="#825012" d="M23.4,96.7c0,0-1.9,8-2.7,22.7c-0.7,12.4,2,58.5,2.9,60.8c0.8,2.3,14.2,9.9,23,10.6
	c8.7,0.6,14.3-4.4,15.4-6.4c1.1-2.1,3.3-39.9,4.6-54s-9.2-24.2-10.5-29.7c-1.2-5.5,6.9-8.2,6.9-8.2s-2-4.5-1.5-11.1
	s-5.2-9.5-7.1-10.8c-1.6-1.1-16.5-8-18.9-8.7c-2.4-0.6-6.7-0.9-7.9,3.4c-1.1,4.2,0,8.7-1.4,10.4s-6.2,7.7-6,11.9
	S23.4,96.7,23.4,96.7z"/>
<path fill="#FBD7C7" d="M37.8,37.4c-5.1,3.3-5.5,10.3-5.3,15.1c0.2,4.8,0.3,8.7,2.1,10.3c1.8,1.6,2,2.3,2.2,3.4
	c0.2,1.1-0.6,7.6-0.6,7.6s4.9-2.2,9.6-2.9c4.5-0.7,8.1-0.6,8.1-0.6s-2.4-4.5-2.2-7.7c0.2-3.2,0.9-5.6,2.5-8.9
	c1.6-3.3,4-12.1-1.1-15.6C48,34.7,41.2,35.2,37.8,37.4z"/>
<path fill="#BAA794" d="M44.3,212.3c0,0,1.6,1.7,4,1.8c2.8,0.1,5.8-1.6,6.3-2.8c0.7-1.6,0.3-4.1,0.3-4.1s2.6,2.2,2.6,4.9
	c0,2.4-1.7,5.2-1.8,6.2s0.1,3.3,0.1,3.3l-1.7,0.9l-2.9-1.3c0,0-0.8,2.8-2.8,4.2s-6.5,4-10.8,2.4c-4.3-1.6-1.9-5.4-0.8-6.6
	s4.8-3.8,5.7-5.7C43.7,213.4,44.3,212.3,44.3,212.3z"/>
<path fill="#BAA794" d="M27.3,205.5c0,0,2.3,2.3,4.9,2.2c2-0.1,5.1-1.5,6.1-3.2c0.9-1.5,1.3-4.4,1.3-4.4s2.6,1.5,2.6,4.9
	c0,3.1-2.2,6-2.3,8.2c-0.1,2.1,0,1.2,0,1.2l-2.3,1.1l-2.3-1.2c0,0,0.7-2.4,0-1.9c-0.7,0.5-3.1,4-4.8,5.6c-1.7,1.6-5.6,3.8-9,2.8
	c-3.4-1.1-3.2-4.6-1.2-6.3c1.8-1.5,3.9-2.7,5.2-4.9C26.7,207.3,27.3,205.5,27.3,205.5z"/>
<path opacity="0.15" d="M50,90.2c0,0-6.4,8-14.7,6.7c-8.8-1.3-2.6-13.9-2.6-13.9s-7.6,13.5-12.3,6c0.8,3.8,3,7.6,3,7.6s0,0,0,0
	c1.7,1.2,3,0.8,5.4-1.9c1.7,11.9,20.9,5.8,23.7,3.1C51.9,95.4,50,90.2,50,90.2z"/>
<g opacity="0.4">
	<path d="M39.9,214.3L39.9,214.3C39.8,214.7,39.9,214.3,39.9,214.3z"/>
	<path d="M42.2,204.9c0,0,0-0.1,0-0.1c-0.4,1.4-1.1,2.4-3,3.8c-2.1,1.7-3.8,3.1-5.8,5.6c-2,2.4-5.7,5.8-10.2,5.7
		c-2.6,0-4.5-1.8-4.2-3.6c-0.6,1.7,0.1,3.7,2.5,4.4c3.4,1.1,7.3-1.1,9-2.8c1.7-1.6,4.1-5.1,4.8-5.6c0.7-0.5,0,1.9,0,1.9l2.3,1.2
		l2.2-1.1c0-0.2,0-0.5,0.1-1.2C40,211,42.2,208,42.2,204.9z"/>
</g>
<path opacity="0.4" d="M48.6,225.4c1.9-1.4,2.8-4.2,2.8-4.2l2.9,1.3l1.7-0.9c0,0-0.2-2.4-0.1-3.3c0-0.8,1.4-3.2,1.7-5.4
	c-0.2,0.4-0.4,0.8-0.6,1.2c-1.3,2.2-3.6,3.3-6.2,7.8c-2.5,4.3-8.9,5.6-11.4,5.2c-2.1-0.3-3.5-1.2-3.8-2.6c-0.2,1.3,0.4,2.6,2.4,3.4
	C42.1,229.4,46.7,226.7,48.6,225.4z"/>
<path fill="#FBD7C7" d="M64.6,107.6c-0.6-3.3-2.1-12.6-2.8-14.8l-10.2,2.3c0.1,0.3,0.1,0.3,0.2,0.6c0.9,2.5,3.1,13.7,3.3,14.6
	c0.2,0.8-1.9,3.1-2.9,5.3c-2.6,5.8-3.1,13.2-3.6,14.8c-0.4,1.6-1.5,2.8-2.7,3.6c-1.2,0.9-5.5,4.4-5.9,5.4c-0.3,0.7-1.6,4.3-1,5.7
	c0.6,1.4,2.5,2.5,3.5,2.5c1,0,2.9-2.7,3.6-4c0.7-1.3,0.8-2.1,3.7-4.2c2.9-2.2,3.2-5.2,6.7-10.6c3.4-5.4,5.8-9.8,6.9-12.4
	C64.6,113.8,64.9,109.1,64.6,107.6z"/>
<path fill="#999999" d="M50.6,35.8c6.5,1,10.3,7.1,7.8,16.4c-2.4,9.1-6.7,9.7-6.7,9.7s-1.5-1.3-0.5-4.6c0.2-0.8,0.8-2.4-0.8-3
	c-1.8-0.7-2.8,3.2-2.8,3.2s-4.5-0.7-5-5.6c-0.6-5.6-1.9-7.7-5.3-7.4c-3.4,0.2-4.9,2.3-5.6,0.8C29.2,40.4,40.7,27.8,50.6,35.8z"/>
</svg>
