<?xml version="1.0" encoding="utf-8"?>
<!-- Generator: Adobe Illustrator 18.1.0, SVG Export Plug-In . SVG Version: 6.00 Build 0)  -->
<svg version="1.1" id="Layer_1" xmlns="http://www.w3.org/2000/svg" xmlns:xlink="http://www.w3.org/1999/xlink" x="0px" y="0px"
	 viewBox="0 0 80 240" enable-background="new 0 0 80 240" xml:space="preserve">
<g>
	<path fill="#762C07" d="M33.8,34.9c-0.6,1.9-0.5,9.7-1.2,14c-0.8,5.2-7.1,24,2.1,18.1c9.2-5.9,7-33.5,3.1-33.7
		C34.7,33,34.4,33,33.8,34.9z"/>
	<path opacity="0.2" d="M24.8,206.2c-11.8,7.6-12.4,14.4,0,21c13.5,7.2,22.4,3.3,32.9-2.7S69.5,211.1,54,205
		C41.5,200,33.6,200.5,24.8,206.2z"/>
	<path fill="#FBD7C7" d="M28.8,82.2c0,0-3.2,10.8-5.9,19.1s-4.4,13.8-5.3,15.9c-0.9,2.1-1.3,5.7-0.8,7.3c0.5,1.6,2.3,5,3,5.7
		c1.7,1.6,4.4,1.2,4.8,0.8c0.4-0.5,0.4-2.2-0.3-2.9c-0.7-0.7-2.6-3-1.4-6c1.2-2.9,1-4.2,1-6c0-1.5-0.5-1.7,0.7-4.1
		c1.2-2.5,6.9-14.5,7.5-16.2C32.7,94.1,28.8,82.2,28.8,82.2z"/>
	<path fill="#FBD7C7" d="M42.8,54.7c0,0-9.1-4-12.3,0.3s-1.7,11-1.7,11s-5.4,6.1-5.4,9.4c0,3.3,5.1,6.5,5.1,6.5s0.6,15.8-0.3,22.3
		c-0.9,6.5-3.8,23.3-3.1,33.9s1.6,25,1.9,29.2c0.3,4.1,2.2,10,3,14.8c0.9,4.8,4.1,13.2,0.9,19.6s-6.1,9.3-7.4,10.5
		c-1.3,1.2,0.2,5.2,3,4.5c2.8-0.7,7.2-7.1,9.9-8.1c2.7-1.1,7.2-4,6-7.7c-1.2-3.6-1.7-2.2-2-5.3c-0.3-3.1,2.2-16.7,1.3-22.8
		c-0.9-6.1-3.2-7.8-3.6-8.8s5.7-29.5,5.7-29.5s1.2,27.3,1.1,30.2s2.1,17.7,2.7,24.6c0.7,7,1,18.8-2,22.9c-2.9,4.1-8,10.3-6,11.7
		c2,1.4,8.3,2.7,9.8-0.9c1.5-3.6,5.3-11.1,6.7-13.1s1.9-3.1,1-5s-1.5-5-0.5-10.3s4.1-14.7,3.3-19.7s-3.2-8.1-2.9-11.7
		c0.3-3.5,8.1-24.8,6.6-39.7c-1.6-14.8-9-17.5-10.3-23.5c-1.3-6,3-13.9,5.2-18.2c2.2-4.2,5.3-11.6,2.6-14.2
		c-2.7-2.7-5.9-4.4-7.1-6.4c-1.2-2-2.5-8.2-2.5-8.2L42.8,54.7z"/>
	<path fill="#CC291F" d="M25.4,210.3c0,0-4.9,1.7-5.9,3.9c-0.8,1.8-0.5,3.9,1.2,5c1.8,1,5.2,1.3,8.2-0.4c2.9-1.7,6.8-8.4,7.5-8.7
		c0.7-0.3,0.2,3.7,0.2,3.7l2.1,1.1l2.3-0.9c0,0-0.2-4.5,0.7-6s2.6-3.9,2-6.9s-2.6-3.3-2.6-3.3s0,3.5-4,7.3c-3.8,3.6-5.9,9.6-9.2,9.3
		C23.4,213.7,25.4,210.3,25.4,210.3z"/>
	<path fill="#CC291F" d="M42.2,217.1c0,0-4.6,3.5-4.9,5.7c-0.3,2.2-0.2,3.7,2.9,4.7s7.1-0.2,9-1.8s4.4-5.8,4.4-5.8l2,1.1l2.3-1.1
		c0,0-0.3-2.7,0.4-5.1s1.4-4.4,1.4-7.4s-2.8-3.3-2.8-3.3s1.7,1.6-0.8,5.1s-4.4,11.3-8.1,11.5C41.1,221.2,42.2,217.1,42.2,217.1z"/>
	<path fill="#28896D" d="M60.8,110.8c-2.7-4.3-5.3-6.4-5.4-6.8c0,0-6.4,3.9-16.4,3.1c-10-0.8-10.6-3.1-10.6-3.1
		c-1.4,6.7-4.5,17.6-5.5,21.1c-1.9,6.8-6.1,18-5.6,19c2.1,4.2,12.6,3.2,17.4,7.6c4.8,4.4,17.8,3.7,24,1.6c6.2-2.1,9.4-5.8,9.2-6.5
		C63.1,128.1,66.1,119.2,60.8,110.8z"/>
	<path fill="#E5E5E5" d="M27.7,82.8c0.3,0.6,3.1,5.5,3,11.7c0,2.9-1.7,6.6-2.7,9.6c7.4,6.7,22,3.9,27.6,0.3
		c-4.5-6.7,1.9-20.2,3-22.4c2.2-4.2,5.3-11.6,2.6-14.2c-2.7-2.7-5.9-4.4-7.1-6.4c-1.2-2-2.5-8.2-2.5-8.2l-8.9,1.6c0,0-3.6-1.6-7-1.7
		c-2.2,2.1-4.9,9.8-7.4,12.7c-2.5,2.8-5.4,5.4-5.4,9.6C22.9,78.6,27.2,81.9,27.7,82.8z"/>
	<path fill="#FBD7C7" d="M37.9,53.9c0,0-8.9,14.8-2.4,16.5c6.3,1.7,16-8.7,16-8.7L43.7,53L37.9,53.9z"/>
	<path fill="#FBD7C7" d="M40.2,54.9c0,0-4.3,0.7-4.9-0.9c-0.7-1.7-4.4-15.5,2.4-24.1s20.5-3.1,20.5,6c0,8.1-3.2,10.5-4.7,14.5
		c-0.9,2.5-1.6,5.8-0.1,8.4c1.5,2.7,2.7,4,2.7,4s-7.6,4.6-13.3,3.2c-5.7-1.4-0.2-4.2-1-6.6C41.1,57.3,40.2,54.9,40.2,54.9z"/>
	<path opacity="0.15" d="M23,76.1c3.1,5.9,12.5,10.5,26.6,7.4C48.8,85.8,28.5,91,23,76.1z"/>
	<path fill="#FBD7C7" d="M51,74.8c-1.1-2.9-0.7-10.2,5.3-10.5c6-0.3,6.7,5.7,7.2,13.6s3.5,20.7,3.7,23.3c0.2,2.6-1.5,9.7-5.6,16
		c-4.1,6.3-6.9,11.4-7.1,12.3c-0.2,1-1.4,4.9-3.1,6.1c-0.7,0.5-1.5,1.2-1.9,2.5c-0.4,1.3,0.5,2.4,0.7,2.7c0.3,0.7-0.2,1.5-1.4,2.2
		c-1.3,0.8-3.2-0.5-4.2-1.3c-0.7-0.5-2.5-2.1-2-4.3c0.4-1.6,1.7-6.6,3.7-7.8c2-1.2,3.9-2.7,4.6-4.1c0.7-1.4,2.2-11.9,4.8-17.2
		c1.4-2.9,3.1-4.8,3.1-5.9C58.7,101.5,52.1,77.7,51,74.8z"/>
	<path fill="#762C07" d="M33.8,34.9c0,0,3.5-11.5,16.4-9.1c8.1,1.5,10.4,10.5,9.6,16.7c-0.7,6.2-3.3,9.9-2.1,12.9
		c2.3,5.6,1,9.4-1.6,12.7c-4.3,5.5-13.1,8.2-12.1-2.9c0.7-8.6-5.1-12.4-3.1-21.5c1.2-5.7-1.1-8.2-3.6-7.7
		C36.4,34.1,35.4,33.4,33.8,34.9z"/>
</g>
</svg>
