<?xml version="1.0" encoding="utf-8"?>
<!-- Generator: Adobe Illustrator 18.1.0, SVG Export Plug-In . SVG Version: 6.00 Build 0)  -->
<svg version="1.1" id="Layer_1" xmlns="http://www.w3.org/2000/svg" xmlns:xlink="http://www.w3.org/1999/xlink" x="0px" y="0px"
	 viewBox="0 0 80 240" enable-background="new 0 0 80 240" xml:space="preserve">
<path opacity="0.2" d="M31.9,228.9c15.2-8,9.8-10.5,3.9-13.9c-5.9-3.3-14.3-1.8-22.4,2.1s-16.6,7.7-4.6,12.6S24.8,232.7,31.9,228.9z
	"/>
<path fill="#262626" d="M34.7,213.7c0.9,3.4,0,6.7-0.7,8.8c-0.8,2.3-2.9,6.4-7.5,6.2c-4.6-0.1-6.3-3.2-5.3-9.9
	C22.2,212.3,33.7,210.3,34.7,213.7z"/>
<path fill="#FFFFFF" d="M34.1,215.1c0.5,2.3-0.2,8.5-4.6,11.3c-3.7,2.4-6.9,0.5-7.3-1.1c-0.4-1.6,0.9-10.8,1.4-11.6
	S33.6,212.7,34.1,215.1z"/>
<path fill="#262626" d="M28.5,220.7c0.5,1.3,1.1,1.8-1.1,3.4c-2,1.4-5.4,4.4-8.4,4.6c-3,0.2-11.7-1.8-12.2-2.4s-0.1-1.9,0.8-2.2
	S28.5,220.7,28.5,220.7z"/>
<path fill="#FFFFFF" d="M14.8,217.7c-1.7,0.8-2,2.6-3.7,2.9c-1.7,0.3-3.4,1.3-3.7,2.6c-0.3,1-0.1,1.4,2.1,1.9s7.3,1.9,10,1
	c2.7-0.9,8.4-4.2,8.4-4.7S20,215.3,14.8,217.7z"/>
<path fill="#CC291F" d="M47,146.8c-9,0.8-25.8,4.7-28.9,9.6c-3.1,4.8-1.3,10.1-0.3,14.8c1,4.7,3.5,27.2,3.4,32.6s-2.5,12.8,0.8,13.6
	c3.3,0.8,9.4,3.4,11.3,1c1.8-2.4,4.6-10.2,4.3-11.5c-0.3-1.3-1.8-0.5-3.4-13.9c-1.7-14.3-1.8-20.9-1.8-20.9s14.1-3.2,22.4-6.3
	C71.7,159.5,55.9,146.1,47,146.8z"/>
<path opacity="0.2" d="M47,146.8c-9,0.8-25.8,4.7-28.9,9.6c-3.1,4.8-1.3,10.1-0.3,14.8c1,4.7,3.5,27.2,3.4,32.6s-2.5,12.8,0.8,13.6
	c3.3,0.8,9.4,3.4,11.3,1c1.8-2.4,4.6-10.2,4.3-11.5c-0.3-1.3-1.8-0.5-3.4-13.9c-1.7-14.3-1.8-20.9-1.8-20.9s14.1-3.2,22.4-6.3
	C71.7,159.5,55.9,146.1,47,146.8z"/>
<path fill="#CC291F" d="M63.2,152.7c-6.4,2.3-18.2,6.4-22.4,7.9s-10.2,2.5-12,6.9s-0.1,15.6-4.2,26.3c-4.1,10.7-11.5,24.5-11.5,24.5
	s2.4-0.7,4.5,1.2c2.1,1.8,5.1,3.8,8.5,3.5c3.4-0.3,4.2-1.6,4.2-1.6s-1.3-4.8,0.7-9c2-4.2,6.9-14.1,9.3-22.6c2.4-8.5,1.7-12.6,2.6-13
	c0.9-0.4,11.4-1.4,20.7-3.1c9.4-1.7,13-8.8,13-17S73.3,146,73.3,146L63.2,152.7z"/>
<path fill="#FBD7C7" d="M43.3,106.2c0.1,3.4,0.6,15.9-1.8,21.5s-4.2,12.5-6.2,15.8c-2,3.3-4.5,7.8-4.8,8.7S30,153.9,31,155
	s1.7,1.1,1.9,1.5c0.2,0.5,0.7,1.3,3.3,2s3.3,0.8,3.7,0.1c0.4-0.7-1.9-1.5-2.3-1.8c-0.4-0.2-0.5-0.7-0.1-1.8c0.4-1.1,1.1-3.8,1.1-5.2
	c0-1.4-0.3-1.6,0.6-2.9c0.9-1.3,3.9-6.6,5.5-9.1c1.7-2.5,3.7-6.4,4-8.1c0.3-1.7,1-22.2,1-22.2L43.3,106.2z"/>
<path fill="#FFCC00" d="M51.2,96.6c-2.7-0.1-5.6,0.5-7.3,3.7c-1.8,3.2-1.5,5.2-1.5,5.2s0.7,0.7,1.4,1c0.7,0.3,1,0.3,1,0.3
	s-4.8,6.1-5.4,9.8c-0.7,4.3,3.1,6,3.6,6.8s1.8,13.4,1.8,16.6c-0.1,3.1,0,6.6,0,6.6s-1.3,6.6,5,6.9c5.9,0.3,8.7,0.6,12.9,1.9
	c4.5,1.4,7,1.3,9.8,0c2.8-1.3,4.1-4.9,4.1-4.9s-2.7-5.2-3.5-7.3c-1-2.3-1.8-7.3-1.5-11.4c0.3-4,3.4-15.3,3-21.8
	c-0.5-6.5-5.9-10.1-5.9-10.1L51.2,96.6z"/>
<path opacity="0.2" d="M39.3,118.7c2.4,7.1,17.2,11,20.8,5.1C49.8,128.5,40.5,120.2,39.3,118.7z"/>
<path fill="#FBD7C7" d="M62.6,114.6c0,0-2.5,7.7-3,12c-0.5,4.4-0.5,9.7-1.6,11.4s-3.2,4.5-4.8,8.3c-1.7,3.8-2.7,7.3-3.6,7.3
	s-2.6-0.5-3.4-0.4c-2.8,0.2-3.9,1.4-4.4,2.2c-0.5,0.8-0.6,1.5-0.1,2.6s1.7,1.6,3,1.5c1.2-0.1,7.4-1.2,8.3-2.4
	c0.9-1.2,7.4-9.6,8.6-10.9s3.3-2.9,3.8-5.7c0.5-2.8,3.2-12.9,4-16s2.3-7.6,2.3-7.6s-1.9,0.7-5.1-0.2
	C63.6,115.8,62.6,114.6,62.6,114.6z"/>
<path fill="#FBD7C7" d="M52.2,97.3c0,0-7.3,8.2-1.1,11.6s14.7-9.4,14.7-9.4s-2.6-2.1-4-4.8C60.4,91.9,52.2,97.3,52.2,97.3z"/>
<path fill="#825012" d="M61.1,70.1c-2.8-0.5-8.7-1-12.8,4.1S45.1,86.8,45.9,90c1.2,5.3-2.6,7.5-2.6,7.5s1.1,4.1,7.3,1.7
	C56.8,96.7,61.1,70.1,61.1,70.1z"/>
<path fill="#FBD7C7" d="M51,78c0,0-2.2,1.6-3.4,5.5c-0.5,1.9-1.2,12.9,0.8,14.5c2.2,1.8,5.4,1,7.4,0s4.7-1.3,6.2-3.9
	C62.8,92.8,59.5,71.6,51,78z"/>
<path fill="#825012" d="M56.8,71.5c-4.5,3-7.2,5-4.4,10.8c2.8,5.9,8.3,10.4,6.6,13.8c-1.7,3.5-4.7,5-4.7,5s2.9,5.4,11.4,4
	c8.2-1.4,9.1-4.3,9.5-5.6c0.7-2.1-2.9-5.7-3.3-10.2c-0.3-4.5-0.6-17.5-8-19.3C59.5,69,57.7,70.9,56.8,71.5z"/>
</svg>
