<?xml version="1.0" encoding="utf-8"?>
<!-- Generator: Adobe Illustrator 18.1.0, SVG Export Plug-In . SVG Version: 6.00 Build 0)  -->
<svg version="1.1" id="Layer_1" xmlns="http://www.w3.org/2000/svg" xmlns:xlink="http://www.w3.org/1999/xlink" x="0px" y="0px"
	 viewBox="0 0 80 240" enable-background="new 0 0 80 240" xml:space="preserve">
<path fill="#FBD7C7" d="M68.7,82.7c-0.8,4.9-1.3,11.8-1.3,14.8c0,3,0.7,5.9,0,8.9c-0.7,3-5.9,14.2-6.1,16.7s-1,6.8-2.1,7.7
	s-6.5-0.8-6.4-3.1c0.1-2.3,2.1-3.7,3.6-6.3c1.3-2.3,1.8-7,2.5-10.2c0.9-3.7,1.9-5,1.8-9.3c-0.1-4.3,0.2-20.5,0.2-20.5L68.7,82.7z"/>
<path opacity="0.2" fill="#262626" d="M63.6,233.5c14.9-5.6,1.2-17.1-14.2-21.5c-13.6-3.9-27.7-18.9-41.3-10.9
	c-12.8,7.6,5.7,16.6,17.9,20.9C43.4,228.3,54,237.1,63.6,233.5z"/>
<g>
	<path fill="#2D3134" d="M66.5,224.1c0.3,1.4,0.8,3.5-0.1,4.3c-1.3,1-7.9,1.2-13.2,0.4c-2.6-0.4-5.8-1.9-6.3-3.1
		c-0.5-1.3-0.3-2.4,0.3-2.8S66.5,224.1,66.5,224.1z"/>
	<path fill="#FFFFFF" d="M66.9,226.8c-1.8,2-12.8,0.9-15.1,0.2c-1.4-0.4-4.6-1.4-4.9-2.9c-0.2-0.9-0.7-3.1,2.1-4.1
		c2.8-1.1,11.6,1,11.6,1s4.6,1.4,6.1,3.2C67.1,224.8,67.2,226.4,66.9,226.8z"/>
</g>
<path fill="#2D3134" d="M9.1,205.6c0.4,1.9,2.8,3.2,5.1,3.4c3.3,0.2,7.4-2,10.7-2.8c2.3-0.6,3.6-1.5,3.9-2.4
	c0.3-0.8,0.5-2.7-0.2-2.9c-0.8-0.1-18.2,0.2-18.3,0.7C10.1,202.2,8.7,203.7,9.1,205.6z"/>
<path fill="#FFFFFF" d="M27.8,203.1c-2.9,2-5.2,1.7-8.3,2.9c-2.5,1-3.7,1.5-6.4,1.2c-1.4-0.2-3.5-1.1-4-2.7
	c-0.2-0.9,0.4-3.4,2.4-4.1c2-0.7,3.8-0.3,6.3-0.8C20.4,199.1,32.6,199.9,27.8,203.1z"/>
<path fill="#CC291F" d="M55.5,120.9c3.6,5.8,4.8,5.8,4.8,17.3c0,11.5-7.1,28.8-4.6,33c4.7,8.3,7.6,15.7,9.9,32.4
	c2.3,16.4,1.4,21.4,1.4,21.4s-2.3,2.1-8.1,1.5c-4.8-0.5-5.7-2-6-3.8c-0.4-2.4,2.2-8.2,1-14.1c-1.3-5.9-5.5-21.1-7.9-25.4
	c-2.7-4.6-3.9-7.2-4.9-16.8c-1.1-9.7-5.1-37.1-5.1-37.1L55.5,120.9z"/>
<path opacity="0.2" d="M55.5,120.9c3.6,5.8,4.8,5.8,4.8,17.3c0,11.5-7.1,28.8-4.6,33c4.7,8.3,7.6,15.7,9.9,32.4
	c2.3,16.4,1.4,21.4,1.4,21.4s-2.3,2.1-8.1,1.5c-4.8-0.5-5.7-2-6-3.8c-0.4-2.4,2.2-8.2,1-14.1c-1.3-5.9-5.5-21.1-7.9-25.4
	c-2.7-4.6-3.9-7.2-4.9-16.8c-1.1-9.7-5.1-37.1-5.1-37.1L55.5,120.9z"/>
<path fill="#CC291F" d="M52.3,124.3c0,0,1.9,6.9,0.2,14.1s-21.8,20.2-22.4,23c-0.6,2.7,0.8,9.9-0.2,16.2c-0.9,5.7-1.4,13.1-1.5,17.6
	c-0.1,2.9,1.3,6.2,0.1,7.5c-1.3,1.5-6.1,1.9-8.5,2.1c-5,0.4-5.1-3.1-5.1-3.1s1.1-4.6,1.2-8.7c0-4.2,0.3-26.9,0.2-31
	c-0.1-4.1,1.5-15.3,5.9-23.3c4.5-8,8.7-14.9,13-15C39.5,123.5,52.3,124.3,52.3,124.3z"/>
<path fill="#FFCC00" d="M26.4,131.2c0,0,9.8,2,20.1,0.6c10.2-1.4,13-2.5,13.3-3.1c-0.3-1.4-4-9.1-3.3-13.3
	c0.7-4.2,9.8-30.9,9.8-30.9s2.4-1.3,2.5-2.1c0.1-0.9,1.1-8-7.1-8.4c-8.1-0.4-22.2,2.4-26.6,3.7s-8.8,1.7-10.5,6.4
	c-1.6,4.6-0.5,6-0.5,6s1.7,1.3,3.4,1.4c1.8,0.1,3.8-0.2,3.8-0.2s0.2,12.3-0.5,15.2s-2,8.8-2.3,12.5
	C28.3,122.6,26.4,131.2,26.4,131.2z"/>
<path fill="#825012" d="M41.1,44.8c7.1-2,12.5,1.2,15,6.6s4.1,15.8,6.2,19.8c2.1,4,3.4,11.3-11.7,13.8c-15,2.5-20.1-7.2-19.9-9.1
	c0.5-0.3,3.2-0.2,2.4-7.8S32.9,47.1,41.1,44.8z"/>
<path fill="#FBD7C7" d="M24.1,89.9c0,0,0.3,7.8,0.4,10.7c0.1,2.8,0.6,5.7,0.1,6.9s-3.1,8.9-4,11.3c-1.2,3.5-2,8-3.8,9.1
	c-1.5,1-2,1.1-2.4,2.4c-0.4,1.4-0.7,4.7-0.4,5.9s5,2.2,6.2,1.3s1.4-5.8,2-7.4c0.7-1.5,8.2-15.4,8.6-17.6c0.4-2.3,1.1-11.1,1.1-15.8
	c0-2.4-0.2-5.8-0.2-5.8s-1.6,0.5-3.8,0.4S24.1,89.9,24.1,89.9z"/>
</svg>
