<?xml version="1.0" encoding="utf-8"?>
<!-- Generator: Adobe Illustrator 18.1.0, SVG Export Plug-In . SVG Version: 6.00 Build 0)  -->
<svg version="1.1" id="Layer_1" xmlns="http://www.w3.org/2000/svg" xmlns:xlink="http://www.w3.org/1999/xlink" x="0px" y="0px"
	 viewBox="0 0 160 240" enable-background="new 0 0 160 240" xml:space="preserve">
<path opacity="0.2" d="M48.3,230.6c10.3,5.6,32.4-7.7,45.2-15.1c12.8-7.5,36.7-22.2,26.3-28.5c-10.4-6.3-25.9,4.1-39.7,12.4
	S33.8,222.8,48.3,230.6z"/>
<path fill="#FBD7C7" d="M91.2,28.5c5.8-1.2,13.3,3,14.1,10.2c0.7,6,0.4,14.9-1.9,16c-2.3,1.1-3.8,0.4-5.4,2.3
	c-1.6,1.9-2.1,4.8-1.1,7.5c1,2.7,1.3,4,1.3,4s-23.5,8.8-25.2,11.8s-7.2,10.3-7.2,11.3s0.4,6.5,0.1,10.6c-0.3,4.1,0,5.8,1.3,7.5
	c1.3,1.7,3.6,3.5,4.1,5.7c0.5,2.2-0.9,11.7-0.9,11.7s-0.8,0.1-1.8-0.5c-1-0.6-1-0.3-1.7-0.2s-2.2-0.3-2.5-0.9
	c-0.3-0.6-0.4-1.1-0.4-1.1s-0.7,0.7-1.2,0.3c-0.5-0.4-2.7-2.4-2.7-4.1c0-1.8,0.6-7.5,0.1-9.5c-0.5-2.1-4.7-17.7-3.6-20.9
	c1.1-3.2,6.7-17.3,7-18.5c0.3-1.2-0.7-8.1,3.4-11s9.3-2,10.6-1.9c1.3,0.1,6.9-3.9,6.5-6.6C83.8,49.3,73.6,32.1,91.2,28.5z"/>
<path fill="#262626" d="M89.6,203.8c0.8,1.8,4.1,4.1,7.8,1.9c3.6-2.3,8.1-5.3,11.4-6.6c3.2-1.3,5-2.8,4.7-5.6
	c-0.3-3.5-4.3-4.7-8.8-3C100.2,192.1,89.6,203.8,89.6,203.8z"/>
<path fill="#FFFFFF" d="M94.3,204.3c3.8-2,7.2-5.2,10.7-6.5c3.5-1.3,7.7-2.4,8-4.8s-4.3-4.2-8.8-2.3c-4.5,1.9-13.5,3.3-13.5,3.3
	L94.3,204.3z"/>
<path fill="#262626" d="M52.5,225.9c1.6,0.6,1.4,1.4,5,1.6c1.5,0.1,3.8-0.4,5.8-0.5c2.8-0.1,4.6,0.1,6.7-0.6
	c3.3-1.1,7.7-3.5,8.6-5.1c1.4-2.3-0.9-6.5-4.5-5.5c-3.4,0.9-5.7,2-7.7,2s-8.8-1.2-8.8-1.2L52.5,225.9z"/>
<path fill="#FFFFFF" d="M55.4,223.6c2.7,0.8,13.1,1.2,14.3,0.7c1.3-0.5,7.6-2.6,8.1-5.1c0.3-1.4-0.5-3.2-2.8-3.4
	c-1.2-0.1-3.7,0.6-5.7,1.1c-5.8,1.6-10.7-0.5-10.7-0.5L55.4,223.6z"/>
<path fill="#06547A" d="M71.7,114.2c-3.3,3.6-6.5,13.1-2,21.4c4.5,8.3,21.8,20.6,22.3,22.4c0.5,1.8-5.3,18-5.3,23.2
	c0,5.2,1.5,13.5,1.1,15.1c-0.4,1.7-1.7,10.6,3.8,10.5c5.5-0.1,11.3-5.1,12.5-9.1s-0.2-7-0.2-7s-0.4,0.3-0.5-1.7s-0.4-10.8,0.8-13.5
	c1.3-2.7,0.9-9.5,1.2-11.1c0.3-1.6,2.1-7.9,2.2-11.2c0.1-3,0-10.2-5.1-18.8c-4.6-7.8-11.9-14.8-11.9-14.8L71.7,114.2z"/>
<path opacity="0.2" d="M71.7,114.2c-3.3,3.6-6.5,13.1-2,21.4c4.5,8.3,21.8,20.6,22.3,22.4c0.5,1.8-5.3,18-5.3,23.2
	c0,5.2,1.5,13.5,1.1,15.1c-0.4,1.7-1.7,10.6,3.8,10.5c5.5-0.1,11.3-5.1,12.5-9.1s-0.2-7-0.2-7s-0.4,0.3-0.5-1.7s-0.4-10.8,0.8-13.5
	c1.3-2.7,0.9-9.5,1.2-11.1c0.3-1.6,2.1-7.9,2.2-11.2c0.1-3,0-10.2-5.1-18.8c-4.6-7.8-11.9-14.8-11.9-14.8L71.7,114.2z"/>
<path fill="#06547A" d="M77.2,117.7c0,0-2.4,6.3-1.6,11.7c0.8,5.4,4.4,13,4.4,13s-1.5,15.1-2.6,19S67,179,63.7,185.8
	s-14.6,27.6-15,31.9s0.7,9,5.7,9.2c5,0.2,13.5-6.5,14.1-8.2c0.7-1.8-0.6-3.5-0.6-3.5s1.5,0,2.8-3.5c1.4-3.5,5.7-11.6,8.1-14.5
	s7.1-12.5,8.5-14s3.9-2.7,5-5c1.1-2.3,7.8-22.5,9.2-27.4c1.5-4.9,4.4-13.3,4-18.8c-0.4-5.3-1.2-10.6-1.2-10.6L77.2,117.7z"/>
<path fill="#825012" d="M91.1,27.9c-17.7,3-6.9,24.9-7,25.3c1.8,0.9,5.3,0.9,6.9-0.3c1.8-1.3,2.8-5.9,4.8-7.6c2-1.7,3.1-0.1,3.2,0.5
	c0.1,0.6,0.1,1.3,0.1,1.3l1.4-0.5c0,0,0.8-2.5,0.9-5.8c0.1-3.4-0.7-6.8-0.4-7.5c0.2-0.6,1.4-0.1,2.1-0.3
	C100.5,28.9,95.2,27.2,91.1,27.9z"/>
<path fill="#E5E5E5" d="M80.1,58.3c0,0-5.1,1.3,1.6,4.4S97,64.5,97,64.5s9.2,2,12.7,6.5c2.1,2.7,2.5,7.9,2.2,9
	c-0.3,1.2-4.4,7-4.3,10.8c0.1,3.8-2.4,19.6-2.3,23.6c0.1,3.9,0,9.5,0.1,10.4c0.1,0.9-11.8,2.4-21.4-1.1s-13.3-8.7-13.3-9.4
	s4.9-7.7,4.3-11.4c-0.6-3.7-6.6-22.7-7.6-27s-1.6-6.3-1.6-6.3l-2.3-1.2c0,0-0.1-7.4,4.1-9.2S80.1,58.3,80.1,58.3z"/>
<path fill="#FBD7C7" d="M98.3,84.6c0,0,5.6,0.2,7.6-0.4c3.8-1.2,5.7-3.6,5.7-3.6s-0.8,3.6-0.8,6.5s0.4,4.1,0.7,6.6
	c0.4,3.7-0.1,6.6,1.2,8c1.3,1.4,5.4,5,8.1,8.1s3.8,3.6,6.3,4.6s5.5,1.6,6.5,2.6s2.1,1.9,1.6,3.4s0,2.6-0.5,3.3s-1.3,0.3-1.2,1.7
	c0.1,1.4-0.8,1-1,1.7s-1.8,1.2-2.9,0.9c-1.2-0.3-3-0.8-3-1.6c0-0.8,1.7-1.1,1.7-1.1s-2.6-0.9-3.4-2.1c-0.8-1.2-1.8-2.4-3.8-3.5
	s-15-9.5-16.2-12.2C103.4,104.7,98.3,84.6,98.3,84.6z"/>
</svg>
