<?xml version="1.0" encoding="utf-8"?>
<!-- Generator: Adobe Illustrator 18.1.0, SVG Export Plug-In . SVG Version: 6.00 Build 0)  -->
<svg version="1.1" id="Layer_1" xmlns="http://www.w3.org/2000/svg" xmlns:xlink="http://www.w3.org/1999/xlink" x="0px" y="0px"
	 viewBox="0 0 80 240" enable-background="new 0 0 80 240" xml:space="preserve">
<path opacity="0.2" d="M42.8,237.8c5.5-0.2,6.9-2.6,8.2-7.3c1.4-4.7-0.4-5.7,2.9-8.1c3.3-2.4,5.9-4.8,5-8.4
	c-1.7-6.9-9-15.1-15.9-15.1s-19.8,10.2-20.2,11.2c-0.4,1-3.4,2.3-0.4,6.4C27.2,223,30.8,238.1,42.8,237.8z"/>
<path fill="#FFFFFF" d="M27.8,204.8c0,0-2.4,2.3-4.3,3.7s-2,4.1-1.9,5s2.1,3.3,5.5,2.7s6-4.3,8.3-6.4c2.3-2.2,2.3-2,4-2.3
	c1.7-0.3,0-4.2-2.3-4.3c-2.3-0.1-6.8-2.3-6.8-2.3S28.8,203.7,27.8,204.8z"/>
<path fill="#FFFFFF" d="M27.8,204.8c0,0-2.4,2.3-4.3,3.7s-2,4.1-1.9,5s2.1,3.3,5.5,2.7s6-4.3,8.3-6.4c2.3-2.2,2.3-2,4-2.3
	c1.7-0.3,0-4.2-2.3-4.3c-2.3-0.1-6.8-2.3-6.8-2.3S28.8,203.7,27.8,204.8z"/>
<path fill="#262626" d="M35.4,209.9c2.3-2.2,2.3-2,4-2.3c0.2,0,0.4-0.1,0.5-0.3l-6.6-1.3c0,0,0.3,2.6-1.8,4.9
	c-2,2.3-3.2,3.6-5.7,3.6c-1.8,0-3.1-0.4-4.1-1.6c0,0.3,0,0.5,0,0.7c0.1,1,2.1,3.3,5.5,2.7S33.1,212.1,35.4,209.9z"/>
<path fill="#CC291F" d="M25.4,119.9c0,0-3.4,9.4-3.1,20.4c0.3,11.5,1.6,18.7,2.4,21.7c1.1,4.5,3.4,5.9,3.9,15.7s0.6,19.8-0.2,22.7
	s-2.7,4-2.4,4.7c0.3,0.7,3.8-0.4,5.5,1.2s4.5,2.7,5.9,2.7c1.4,0.1,2,0,2,0l-3.7-78.2L25.4,119.9z"/>
<path opacity="0.2" d="M25.4,119.9c0,0-3.4,9.4-3.1,20.4c0.3,11.5,1.6,18.7,2.4,21.7c1.1,4.5,3.4,5.9,3.9,15.7s0.6,19.8-0.2,22.7
	s-2.7,4-2.4,4.7c0.3,0.7,3.8-0.4,5.5,1.2s4.5,2.7,5.9,2.7c1.4,0.1,2,0,2,0l-3.7-78.2L25.4,119.9z"/>
<path fill="#FFFFFF" d="M41.7,225.9c0,0-1.7,4.5-1.7,5.4c0,0.9-0.2,3.9,0.4,4.6c0.5,0.6,3.2,1.5,5.3,1.2c2.2-0.3,4.3-2.4,4.5-3.2
	c0.2-0.9-0.1-6.3-0.2-7.1c-0.1-0.8-0.5-2.6-0.5-2.6L41.7,225.9z"/>
<path fill="#262626" d="M49.6,224.1l-1.4,0.3c0.4,1.9,0.9,6.3,0.3,8.1c-0.8,2.1-3,2.7-4.9,2.7c-1.1,0-3-0.6-3.5-2
	c0,1.1,0.1,2.3,0.4,2.7c0.5,0.6,3.2,1.5,5.3,1.2c2.2-0.3,4.3-2.4,4.5-3.2c0.2-0.9-0.1-6.3-0.2-7.1C50,226,49.6,224.1,49.6,224.1z"/>
<path fill="#CC291F" d="M33.8,131.7c0,0-3,7.1-3.5,17.3c-0.5,10.2,0.7,17,0.9,19.3c0.1,2.3,0.5,9.4,1.8,12.1
	c1.3,2.7,3.7,7.9,4.6,14.4s1.3,18.4,1.4,21.4c0.1,4-0.5,7.3,0.2,9.2c0.7,1.9,3-0.4,5.5,0.3c2.5,0.6,6.4,1.4,7.1,1
	c0.7-0.4-0.5-7.5-0.4-11.6c0.1-4.1-0.2-19.8-1.1-26.4c-0.8-6.6-5.6-12.8-4.8-19.5c0.8-6.7,5.4-20.8,6.5-25
	c1.1-4.1,1.4-10.2,0.8-15.7C52.3,122.9,33.8,131.7,33.8,131.7z"/>
<path fill="#FBD7C7" d="M25.4,114.8c0,0-4.3,3.1-5.9,5.1c-1.6,2-2.4,2.9-2.4,4.7c0,1.8,0.8,2.9,1.6,2.7s0-2.7,0-2.7l0.8-1.6
	c0,0-0.8,1.4-0.4,2c0.4,0.5,2.2,2.4,2.7,2c0.6-0.4,0.4-1.2,0.4-1.2s-1.5-1-1.2-1.6s0.8-0.8,0.8-0.8s-0.3,1.8,0,2.4
	c0.3,0.5,1.6,0.4,1.6,0.4l2.4-5.5L25.4,114.8z"/>
<path fill="#FFCC00" d="M44.8,71.7c-4.6-0.9-13.3-1.6-16.5,2.4s-2.4,5.1-2.4,7.1s-1.5,5.3-2.4,7.5c-0.9,2.2-2.3,5.9-0.8,8.2
	c1.5,2.4,4.3,3.5,4.3,3.5s-0.8,9.3-1.7,12.9c-0.9,3.5-2,9.8-2.4,11.8s1.6,7.9,5.5,9.4c3.9,1.6,12.8,2.3,18.1-1.6s6.3-6.3,6.3-6.3
	s-1.9-7.7-1.6-10.6c0.3-2.9,5.2-17.6,5.2-17.6l3.6-11.8l1.2-0.8c0,0,0.3-2.6-1.2-5.1c-1.5-2.6-4-5.2-7.5-6.3S48.8,72.5,44.8,71.7z"
	/>
<path fill="#FBD7C7" d="M34.2,73.6c0,0-6.9,5.5-2.4,10.2s13.3-4.2,14.9-7.9C48.4,72.4,39.6,68.3,34.2,73.6z"/>
<path opacity="0.2" fill="#262626" d="M22.3,93.3c0,0-0.1,4.3,11,6.5c16.5,3.3,19.8-2.9,19.8-2.9s-3.1,8.6-19.2,5.5
	C19.9,99.7,22.3,93.3,22.3,93.3z"/>
<path fill="#825012" d="M42.9,45.5c-8.1-0.5-12,3-13.5,8.6c-1.5,5.4,4,15.3-1.8,17.9c0.1,2.2,5.1,4.5,7.3,2.1
	c2.2-2.3,2.9-2.4,2.9-2.4L42.9,45.5z"/>
<path fill="#FBD7C7" d="M32.3,55.6c-1.5,3.1-1.9,15.6,0.6,17.6c2.5,2,7.6-1.3,12.5-3.5s5.5-19-1.9-19.2S33.9,52.3,32.3,55.6z"/>
<path fill="#825012" d="M41.4,45.7c-3.3,0.8-7.1,5.2-6.4,10c1,6.2,13.2,18.3,4.6,22.2c1.4,4.6,9.5,4.3,14,2c4.3-2.3,4.7-4.5,4.6-5.3
	s-3.8-4.9-3.8-10.9C54.3,57.6,54,42.6,41.4,45.7z"/>
<path fill="#FBD7C7" d="M50.6,88.9c0,0,2.8,0,4.8-0.3c2-0.3,4.7-2,4.7-2s0.2,4.6,0.8,7.3s1.6,10.4,2,11.5s1.9,2,0,5.9
	s-9.7,15.9-11.1,19.1c-1.4,3.2-1.3,6.2-2,7.1s-2.5,1.7-2.7,1.6c-0.3-0.1-0.7-0.1-0.7-0.1s-0.4,0.4-1.1,0.4c-0.7,0-0.9-0.4-0.9-0.4
	s-0.5,0.8-1.6,0.7c-1.1-0.1-1-0.8-1-0.8s-1.6,0.8-2.4,0.6c-0.8-0.2-1.2-1-0.7-1.3c0.5-0.3,1.6-0.2,2.4-0.9c0.8-0.7,2.1-2.8,2.1-2.8
	s-0.3-0.2-0.2-1.4c0-1.2-0.1-3.1,1-3.7c1.2-0.6,2.6-0.6,3.4-1.6c2.5-3,3.2-8.2,5.4-12.7c2.1-4.5,3.6-6.2,3.6-6.6s-2.8-6.7-3.8-10.2
	C51.5,94.5,50.6,88.9,50.6,88.9z"/>
</svg>
