<?xml version="1.0" encoding="utf-8"?>
<!-- Generator: Adobe Illustrator 18.1.0, SVG Export Plug-In . SVG Version: 6.00 Build 0)  -->
<svg version="1.1" id="Layer_1" xmlns="http://www.w3.org/2000/svg" xmlns:xlink="http://www.w3.org/1999/xlink" x="0px" y="0px"
	 viewBox="0 0 80 240" enable-background="new 0 0 80 240" xml:space="preserve">
<g>
	<path opacity="0.2" fill="#262626" d="M15.2,202.4c-11.4,2.8-1.1,16.8,13.9,21.1c13.3,3.8,25.9,17,39.3,9.1
		c12.5-7.4-5.7-20.7-17.1-21.3C31.1,210.1,19.6,201.3,15.2,202.4z"/>
	<polygon fill="#FBD7C7" points="28.7,66.2 21,75.2 31.6,88.3 46.8,81.8 46.2,72.4 36.8,67.4 	"/>
	<path fill="#2D3134" d="M51.6,219.3c0,0,2.2,4.7,3.4,6.4c1.2,1.7,5.5,6.6,10.4,5.3s1.6-7.2,1.6-7.2l-6.9-6L51.6,219.3z"/>
	<path fill="#FFFFFF" d="M54.2,220.9c0.9,1.9,2.1,4.1,3.7,5.5c1.6,1.5,3.8,3.1,6.4,3.2c2.5,0,3.5-1.3,3.7-2.3c0.3-1.6,0.3-3-2.6-5.3
		c-2.8-2.3-3.6-3.3-3.7-4.3C61.6,216.8,54.2,220.9,54.2,220.9z"/>
	<path fill="#2D3134" d="M11.9,202.9c1.2,2.9,2.3,8.5,5.1,10.9c1.7,1.5,5.6,3.1,8.2,2.8s3.9-1.2,4-2.5c0.1-1.3-1.3-4.2-4.6-6.6
		c-3.3-2.4-6.6-4.5-6.6-4.5L11.9,202.9z"/>
	<path fill="#FFFFFF" d="M14.5,205.7c0.9,2.5,1.8,5,3.1,6.4c1.5,1.5,5,3.1,7.5,3c2.3,0,3.3-0.7,3.7-1.2c0.6-0.5,0.9-1.8-0.2-3
		c-1-1.2-3.3-2.8-4-4.4c-0.8-1.5-1.4-3.1-1.4-3.1L14.5,205.7z"/>
	<path fill="#FBD7C7" d="M48.7,81l3.2-1c0,0,0.1,3.5-0.8,12.1c-0.5,5.2-1.8,11-1.8,11s1.4,2.4,2.7,6.6c1.2,4.1,2.3,11.2,3.2,13.3
		c0.9,2.1,3,5.1,3.1,5.8c0.3,1.3-0.8,3.4-1.3,3.7c-2,1.1-4.3,1-5.5,0.1c-1.1-0.8-2.6-4.2-2.5-4.4c0.6-1.2,1.9-0.6,2-0.4
		c0.1,0.1-0.9-2.9-0.8-3.8c0.1-0.9,0.2-0.7,0.2-1.3c0-0.6-9.2-19.3-9.2-19.3L48.7,81z"/>
	<path fill="#CC291F" d="M49.9,121.7c0,0,6.8,11,8.5,23.9c1.7,12.9,3.8,18.4,3,24.3c-2.1,16.9,2.9,48.9,2.1,50.2
		c-1.2,1.9-2.8,2.8-7.3,2.1c-5.6-0.9-6-6.5-6-6.5s0.3-11.5,0.1-17.2c-0.2-5.7-3.7-10.8-3.5-22.3c0.1-5.2,2-9.2,0.5-11.8
		c-1.5-2.7-16.1-32.6-16.1-32.6L49.9,121.7z"/>
	<path opacity="0.2" d="M49.9,121.7c0,0,6.8,11,8.5,23.9c1.7,12.9,3.8,18.4,3,24.3c-2.1,16.9,2.9,48.9,2.1,50.2
		c-1.2,1.9-2.8,2.8-7.3,2.1c-5.6-0.9-6-6.5-6-6.5s0.3-11.5,0.1-17.2c-0.2-5.7-3.7-10.8-3.5-22.3c0.1-5.2,2-9.2,0.5-11.8
		c-1.5-2.7-16.1-32.6-16.1-32.6L49.9,121.7z"/>
	<path fill="#CC291F" d="M42.9,125.2c0,0,1.4,11.9-1,16.7c-2.5,4.7-4,12.5-4.6,19.9c-0.6,7.4-0.2,10.8-4.4,15.2
		c-4.2,4.4-7,10.1-8.2,16.7c-0.9,5.2-0.8,11.6-0.8,11.6s-2.9,3.4-7.5,1.9s-5-5.3-5-5.3s0.9-6.4,1.6-10.7c0.9-4.8,2.5-12.8,4.4-16.2
		c1.9-3.4,4.2-5.4,4.4-8.8c0.2-3.4-5.5-18.8-4.2-33c1.3-14.2,7-17.8,7-17.8L42.9,125.2z"/>
	<path fill="#FFCC00" d="M49.7,81.2c0,0,2.2,0,3-0.5c0.8-0.6,0.2-7.9-3.5-9.6c-3.7-1.7-6.7-2-8.2-1.6S40.1,70,40.1,70
		s5.9,10.9-2.8,13.4c-7.6,2.1-13.7-10.8-13.7-10.8s-8.9,0.6-11.3,4.7C10,81.4,10.8,87,10.8,87s3.3,0.5,5.7,0.5
		c2.6,0,3.3,0.2,3.3,0.2s-1.4,1-0.7,6.1c0.8,5.1,3.5,15,2.7,18.9s-1.8,9.6-2.4,11.6c-0.6,2-1.5,5.2-1.5,5.2s11.3,9.5,24.4,3.9
		c11-4.7,10-7.9,10-7.9s-3.1-10.4-3.8-13.6c-0.7-3.2-0.7-13.1-0.7-13.1s4.2-3.1,4-7.2c-0.2-4.1-2-6.1-2-8.3S49.7,81.2,49.7,81.2z"/>
	<path opacity="0.2" fill="#262626" d="M51.8,90.9c0,0-0.6,6-12.3,8.4c-17.5,3.5-20.2-4.6-20.2-4.6s2.5,10.6,19.6,7.4
		C53.6,99.2,51.8,90.9,51.8,90.9z"/>
	<path fill="#FBD7C7" d="M11.1,87l8.5,0.5c0,0,0.4,9,0.3,13.1c-0.1,4.7-1.6,10-1.4,11.9c0.2,2.2,0.1,10.4,0.1,13.2s-0.5,4,0,4.8
		c0.5,0.9,2.6,1.3,2.2,3.1c-0.3,1.8-1.2,4.1-1.2,4.1s1.6,2,1.8,2.6s0.4,3.1-0.5,3.3c-0.9,0.2-1.4,0.4-1.8,0.1
		c-0.3-0.2-2.1-1.1-2.3-1.2s-0.9-0.9-0.9-0.9s-0.9,0-1.4-0.2c-0.5-0.2-1.9-1.4-1.8-2.4c0.1-0.9,1.8-6.1,1.6-7
		c-0.3-0.9-3.8-18.3-3.7-19.8c0,0,0.6-8.1,0.6-12.6C11.3,95.2,11.1,87,11.1,87z"/>
	<path fill="#825012" d="M38.9,69.6c2.6,5.7,9.6,1.5,9.7-1c-2.7,0-3.7-2.6-3.7-4.5c0-1.9,3.5-21.1-10.2-21.7S38.9,69.6,38.9,69.6z"
		/>
	<path fill="#FBD7C7" d="M37.4,48c1.5,1.5,5.6,6.7,5.6,6.7s-0.1,14.9-4.4,16.2c-1.8,0.5-5.1,0.5-8.7-2c-3.6-2.5-4.4-4.2-4.5-11.3
		C25.3,46.5,31.4,42,37.4,48z"/>
	<path fill="#825012" d="M32.5,42.4c1.2,0.1,6.9,2.4,7.1,6.6c0.4,7.4-7.3,13.8-8.9,16.6c-2.7,4.9,4.5,5.5,4.5,5.5s-4.8,7.8-12.1,6.4
		s-8.4-5.8-6.3-10.3c2.6-5.4,2.6-8.2,4.9-17.1C23.8,42.3,30.7,42.2,32.5,42.4z"/>
</g>
</svg>
