<?xml version="1.0" encoding="utf-8"?>
<!-- Generator: Adobe Illustrator 18.1.0, SVG Export Plug-In . SVG Version: 6.00 Build 0)  -->
<svg version="1.1" id="Layer_1" xmlns="http://www.w3.org/2000/svg" xmlns:xlink="http://www.w3.org/1999/xlink" x="0px" y="0px"
	 viewBox="0 0 160 240" enable-background="new 0 0 160 240" xml:space="preserve">
<path opacity="0.2" d="M60.1,229.4c19.4-9.4,10.1-21.9-9.2-25.3c-8.4-1.5-13.5-14.9-34.6-1.6c-16.9,10.8,0,17.9,8.6,22
	C37,230.2,42.1,238.2,60.1,229.4z"/>
<path fill="#262626" d="M11.5,209c-0.6,2.5,0,4.3,2.4,5.6c2.4,1.2,4.8,2,9.2,0.3s8.7-5.6,13-7.4c4.3-1.8,6.9-3.9,7-7.9
	c0.1-3.9-13-6.1-16.4-1.9c-3.4,4.2-7.7,6.3-9.8,7.4S12.1,206.7,11.5,209z"/>
<path fill="#FFFFFF" d="M12.3,209.1c0.4,1.2,3.4,3.9,6.5,3.3s7.2-3,10.3-5.1c3.2-2.1,6.7-3.8,9.1-4.9s-7.9-8.1-7.9-8.1
	s-4.7,5.5-9.6,9C16.7,206.1,11.5,207,12.3,209.1z"/>
<path fill="#262626" d="M52.6,209.3c-0.8,3.1-2.4,6.9-6.6,11.6c-4.2,4.6-3.9,4.8-3.6,6.5c0.3,1.7,0.2,3.3,3.6,3.7
	c3.4,0.3,6.3-0.1,8.8-1.7c2.4-1.6,9.3-8.8,11.1-11.1c1.8-2.3,3.1-2.9,3.1-6C69,209.2,52.6,209.3,52.6,209.3z"/>
<path fill="#FFFFFF" d="M67.1,212.4c-1.8,2.4-6.4,7.6-9.6,10.5c-2.7,2.4-3.7,4-7.5,4.6c-3.4,0.6-6.5,0.3-7.3-0.7s1.4-3.6,4.9-7.5
	c3.6-4,5.2-10.6,5.2-10.6L67.1,212.4z"/>
<path fill="#06547A" d="M67.8,130.9c-7.6,1.7-24.2,7.9-29,9.3S29,143,28,150s1.1,16.4,0.7,25.7c-0.4,9.3-1,13-0.6,14.9
	c0.4,2,0.5,2.4-1.3,3.7c-1.8,1.4-3.2,4.6-2.3,6.4c1,1.8,7.9,6.5,13.9,4.8s5.2-3.3,6.3-9.2c1.1-5.9,1.8-15.9,2.4-24.4
	c0.6-8.5,0-12.7,1.1-13.6c1.1-1,7.4-0.6,17.2-2.5s20.6-9.2,20.6-9.2L67.8,130.9z"/>
<path opacity="0.2" d="M67.8,130.9c-7.6,1.7-24.2,7.9-29,9.3S29,143,28,150s1.1,16.4,0.7,25.7c-0.4,9.3-1,13-0.6,14.9
	c0.4,2,0.5,2.4-1.3,3.7c-1.8,1.4-3.2,4.6-2.3,6.4c1,1.8,7.9,6.5,13.9,4.8s5.2-3.3,6.3-9.2c1.1-5.9,1.8-15.9,2.4-24.4
	c0.6-8.5,0-12.7,1.1-13.6c1.1-1,7.4-0.6,17.2-2.5s20.6-9.2,20.6-9.2L67.8,130.9z"/>
<path fill="#06547A" d="M73.9,142.8c-6.3,3.1-15.3,12.7-16.6,16.9c-1.3,4.2-1.2,13.9-1.3,17.2c-0.1,3.2-1.2,21.9-2.7,27.1
	c-0.8,2.6-2.3,4.3-2.6,6.4c-0.3,2.1-1.3,2.7-0.1,4c1.2,1.3,7.9,2.8,12.4,2.7c4.5-0.1,5.7-0.6,6.7-2.3s1.5-3.2,0.5-5.5
	c-1-2.3-0.9-4.2,0.6-5.9c1.5-1.7,1.4-6.4,1.8-9.9c0.7-6.1,1.3-22.5,1.9-23.1c0.6-0.6,11.7-5.1,17.1-8.2c6.6-3.8,9.1-11.4,8.1-20.3
	s-4.4-12.7-4.4-12.7L73.9,142.8z"/>
<path fill="#FBD7C7" d="M50.3,85.9c-0.8,1.7-1.9,3.5-3.3,6.7c-1.7,4-5,9.1-6.1,11.2c-1.3,2.6-3.1,4.6-3.1,9.2
	c0,4.8,2.1,19.3,1.9,21.4c-0.2,2-0.5,4.1,1.4,5.6c1.9,1.6,3.3,2.7,3.5,3.7c0.2,1,0.6,1.2,0.6,2.4c-0.1,2.7,0.1,3.7,0.7,3.8
	c1,0.2,1.2-3.3,1.2-4.2c0-0.9-0.1-1.8-0.1-1.8s0.8,1,1.1,3c0.3,2,0.2,4.6,1.4,5c1.2,0.4,1.2-1.4,1-3.2c-0.2-1.8-0.4-3.1-0.4-3.1
	l-0.7-2c0,0,1.9,1.4,2.7,2.7c0.7,1,1.1,2.1,1.3,3.1c0.2,0.9,0.8,2.9,1.6,2.8c1-0.1,0.6-2.4,0.4-3.4c-0.2-1-1.2-3.7-1.4-4.1
	s-0.7-1.4-0.7-1.4s1,0,1.9,1c0.9,1,1.5,2.5,2.3,3.5s1.2,1.7,1.9,1.2c0.7-0.5-1.1-4.1-1.6-4.9c-0.5-0.9-0.6-2-1.9-2.7
	c-1.3-0.7-3.7-2.5-4.8-3.3c-1.2-0.8-3.2-1.7-3.4-2.8c-0.3-1.2-0.6-4.1-0.4-6.2c1-12.9,0.1-16.5,0.5-17.5c0.5-1.2,4-6.1,7.5-9.8
	c3.5-3.7,6.7-7.4,6.7-7.4L50.3,85.9z"/>
<path fill="#E5E5E5" d="M64,75.2c-4.5,0.2-8.6,0-11.8,5.2c-3.2,5.2-2.9,7.1-2.9,7.1s6,2.6,6.3,3.3s0.3,5.8,1.2,8.3s3.7,6.8,3.9,11.4
	c0.2,4.6-0.4,20.7,0.1,22.5c0.8,2.8,4.1,7.9,10.1,9.5c6,1.6,15.3,1.4,21.2-3.2c5.4-4.2,5.1-5.6,5-7.5c-0.1-1.9-4.1-5.1-4.6-8.8
	c-0.5-3.7,2.2-11.9,2-19.6c-0.1-7.7-0.5-10.9-5.1-16.8c-4.4-5.6-9.2-10.3-11.9-11.8C74.1,72.8,64,75.2,64,75.2z"/>
<path fill="#FBD7C7" d="M65.2,84.6c0,0,1,8,8.5,6.9c7.4-1.1,10.7-5.6,10.5-8.4c-0.2-2.4-2.3-4-4.6-6.3c-1.6-1.7-3.5-2.7-3.4-3.7
	c0.2-2,2.7-9.9-1.2-14.6c-6.6-7.9-14.4-3.6-16.7-1.9c-6,4.6-6.7,11.2-6.1,14.6c0.6,3.3,2.5,12.9,5,14.5
	C59.6,87.4,65.2,84.6,65.2,84.6z"/>
<path fill="#825012" d="M74.6,72.6c0,0,0.7,0.4,1.7,0.4v0c0.2-2,2.7-9.9-1.2-14.6c-6.6-7.9-14.4-3.6-16.7-1.9
	c-3,2.3-4.7,5.1-5.5,7.7c1,0.9,0.4,2.7,3.1,3.5c2.9,0.8,4.4-3,7.5-1.5c3.1,1.5,4,8,4,8l2.2-1.6c0,0,0.9-3.3,3.1-3.2
	C74.9,69.6,74.6,72.6,74.6,72.6z"/>
<path fill="#FBD7C7" d="M62,153.7c0,0,1-1.3,2-1.8c0.9-0.5,2-0.9,2.6-0.5c0.6,0.4,4,2.4,6.3,1.6c2.3-0.8,3.1-1.7,4.3-3.4
	s9.6-8.3,11.5-17.3s4.7-23.4,4.1-24.2c-0.5-0.8-12.2-3.5-13.7-2.7s0.2,9.5,0.7,13.4c0.5,3.9,1.1,8.3,0.3,9.3
	c-0.8,0.9-2.7,4.4-4.3,8.4c-1.5,3.9-2.9,8.8-3.4,8.8s-2.4-1.9-4.6-1.6s-2.2,0.8-3,1.2c-0.6,0.3-1.7,1-2.7,1.6
	c-1,0.6-1.8,1.4-1.8,2.5S61.2,153.7,62,153.7z"/>
</svg>
