<?xml version="1.0" encoding="utf-8"?>
<!-- Generator: Adobe Illustrator 18.1.0, SVG Export Plug-In . SVG Version: 6.00 Build 0)  -->
<svg version="1.1" id="Layer_1" xmlns="http://www.w3.org/2000/svg" xmlns:xlink="http://www.w3.org/1999/xlink" x="0px" y="0px"
	 viewBox="0 0 160 240" enable-background="new 0 0 160 240" xml:space="preserve">
<path opacity="0.2" d="M120.5,228.6c-13.9,9.2-34-2.2-51.1-6.5c-20.2-5.2-41.9-10.9-32.2-22.2c9.7-11.3,29.7-14.9,42,0
	C88.9,211.3,141.1,215,120.5,228.6z"/>
<path fill="#262626" d="M40,207.9c1.6,2.3,2.3,4.3,7.6,2.1c5.3-2.3,8.1-4.3,13.9-6.1s7.5-4.2,7.1-7.3c-0.4-3-4-4.1-8.9-2.5
	c-4.9,1.7-14.8,4.9-14.8,4.9L40,207.9z"/>
<path fill="#FFFFFF" d="M43.6,207.9c1.9-0.6,7.4-2.7,12.6-4.8c2.7-1.1,9.9-2.2,11-6.2c0.4-1.7-0.2-3.8-5.2-2.9s-14.1,3.7-14.1,3.7
	l-4.6,10.3L43.6,207.9z"/>
<path fill="#262626" d="M84.1,224.3c3.6,1.4,8.5,2.1,13.4,2.7c4.8,0.7,14.2,1.4,17.9-0.8c3.6-2.2,3.4-4.8,2.4-7
	c-1-2.1-3.6-3.3-9.4-2.7c-5.8,0.6-12.8-4.5-12.8-4.5l-13,4L84.1,224.3z"/>
<path fill="#FFFFFF" d="M86.4,220.9c3.9,2.1,9.2,3.4,16.7,3.9c7.7,0.5,12.2-0.2,14-3.9c1.4-2.9-2.9-4.6-8-4.3
	c-5.1,0.3-16.6-6.3-16.6-6.3L86.4,220.9z"/>
<path fill="#06547A" d="M54.7,102.4c-2.1,3.3-5.6,10.5-6,17s-5.1,42.2-7.5,49.2c-2.4,7.1-1.4,12.8-2.6,16s-2.3,15.1-1.3,19.7
	c1,4.6,2.1,6.2,5.6,5.6c3.5-0.5,9.2-6.3,11.3-8.5c2.1-2.2,0-3.6-0.2-5.8c-0.1-2.2,0.1-11.4,1.7-14.4c1.6-3,0.5-8,1.7-10.6
	c1.2-2.6,2.9-10.7,5-15.2s5.4-9.9,6.7-14.7c1.3-4.7-0.5-28.5-0.5-28.5L54.7,102.4z"/>
<path opacity="0.2" d="M54.7,102.4c-2.1,3.3-5.6,10.5-6,17s-5.1,42.2-7.5,49.2c-2.4,7.1-1.4,12.8-2.6,16s-2.3,15.1-1.3,19.7
	c1,4.6,2.1,6.2,5.6,5.6c3.5-0.5,9.2-6.3,11.3-8.5c2.1-2.2,0-3.6-0.2-5.8c-0.1-2.2,0.1-11.4,1.7-14.4c1.6-3,0.5-8,1.7-10.6
	c1.2-2.6,2.9-10.7,5-15.2s5.4-9.9,6.7-14.7c1.3-4.7-0.5-28.5-0.5-28.5L54.7,102.4z"/>
<path fill="#06547A" d="M61.4,111.7c-2.1,6.3-4.3,15.1-1.7,19.4c2.6,4.3,5.2,5.6,7.5,10.7s5.6,17.2,4.6,24.7
	c-1,7.6,3.4,33.8,4.7,38.4s3.8,10.5,3.7,12.4c-0.1,2,0,5.5,2.9,6.8c2.9,1.3,15.2-2.2,17.5-5.2c1.7-2.2,2.4-4.1,0.6-5.9
	c-1.8-1.8-4.8-2.9-5-5c-0.1-2.1-1.8-7.5-2.6-13.6c-0.8-6.2-2.6-19.6-1.8-24.6s0-5.2-0.7-12.7c-0.7-7.5-1.2-32.2-4.1-37.6
	C84.1,114.1,61.4,111.7,61.4,111.7z"/>
<path fill="#FBD7C7" d="M70,25.6c5.7,0.5,7.5,3.9,8.2,8.2c0.8,4.3-0.3,12.5-0.9,14.2c-0.5,1.4-2.3,2.9-3.1,3.8
	c-0.8,0.9-1.8,4.5-1,6.6c0.9,2.1,2.7,3.5,2.7,3.5s-9.8,2-13.9,1.4c-4.1-0.7-11.5,7.7-14.4,9.1s-8.2,4.5-8.2,4.5s3.9,4,5.7,6.3
	c1.8,2.4,5.4,8.6,6.3,9.1c0.9,0.5,2.6-0.1,3.7,1.8c1.2,1.9,2.7,6.3,1.1,7.6c-1.6,1.2-4.6-3.3-5.8-3.9c-1.1-0.6-4.2-3.7-6.7-5.4
	c-2.6-1.6-14.9-12-15.8-15.6c-0.9-3.5,0-5.2,2.7-7.5c2.7-2.4,10.3-9.1,13.2-10.1c2.8-1,9.6-2.1,9.6-2.1s2.8-0.2,4.6-3.2
	c1.8-3,2.6-4.1,1.6-6.5c-1-2.5-5-10.7-1.4-16.4C62,25.3,66.9,25.3,70,25.6z"/>
<path fill="#E5E5E5" d="M75.2,61.5c0,0,9.8,1,12.2,5.2s3.1,8.1,3.1,8.1s-6.6,2.4-8.4,3.4c-1.8,1,3.7,6.1,3.7,6.1s-0.3,12.6,0,17.5
	c0.3,4.9,1.5,17.9,1.5,17.9s-8.6,4-21.6-0.1c-13-4.1-15.1-9.4-15.3-9.7s5.2-6.9,4.3-13.2c-1-6.3-9.3-22.9-9.3-22.9s-2-2.2-3.1-4.9
	c-1.1-2.7-1.7-5.9-2-6.9c-0.1-0.5,1.3-4.5,6.4-6.6c5.1-2,11.2-0.8,11.2-0.8s-1,1.2-2.2,2s-2.8,4,5.8,5.9
	C69.9,64.3,75.2,61.5,75.2,61.5z"/>
<path fill="#FBD7C7" d="M78.2,81.4c0,0,1.6-2.4,4.6-3.9s7.7-2.7,7.7-2.7s1.4,6.4,2.2,8c0.9,1.6,7.8,13.3,8.3,15.3
	c0.5,2-0.5,5.4-3.4,6.9c-2.9,1.4-9.2,3.7-10.7,4c-1.5,0.3-2.9,1.2-5.2,0.7s-3.5-1.8-2.4-3.3c1.1-1.4-0.1-0.9,0.1-2.3s1.2-2.4,3.6-2
	c2.4,0.3,1.6,0.6,2.3,0.6s0.6-0.6,2-2.2c1.4-1.6,2.6-2.4,2.6-2.4s-3.4-3.9-5.1-7.6S78.2,81.4,78.2,81.4z"/>
<path fill="#825012" d="M77.4,37.3c-0.2-1.2,0.1-3.9,0.5-5.3c-1-3.4-3-6-7.8-6.4c-3.1-0.3-8.1-0.3-11.7,5.4
	c-3.6,5.7,0.4,13.9,1.4,16.4c0.3,0.8,0.5,1.5,0.4,2.2c0,0.3,4.4,1.5,7.3,1.4c2.9,0,6.5-4.7,6.5-5.7c0-0.9,0.7-3.1,1.9-3.8
	c1.1-0.7,0.9,0.6,0.9,0.6l0.5,0.5C77.3,42.6,77.6,39,77.4,37.3z"/>
</svg>
