<?xml version="1.0" encoding="utf-8"?>
<!-- Generator: Adobe Illustrator 18.1.0, SVG Export Plug-In . SVG Version: 6.00 Build 0)  -->
<svg version="1.1" id="Layer_1" xmlns="http://www.w3.org/2000/svg" xmlns:xlink="http://www.w3.org/1999/xlink" x="0px" y="0px"
	 viewBox="0 0 80 240" enable-background="new 0 0 80 240" xml:space="preserve">
<g>
	<path opacity="0.2" d="M5.5,231.2c16,10.8,26.2-7.9,40.9-11.6c17.3-4.4,37.7-9.6,29.3-19.3s-25.5-12.8-36.1,0
		C31.4,210.2-12,219.3,5.5,231.2z"/>
	<path fill="#262626" d="M26.3,214.2c-0.1,2.9-1.7,4.1-2.8,6.4c-1.1,2-1.9,7.5-6.2,9.2c-3.9,1.5-8.2,0.9-9.5,0s-1.6-3.3-0.6-5.2
		c1-1.9,3.3-4,4.4-8.1s2.6-6.1,2.6-6.1L26.3,214.2z"/>
	<path fill="#FFFFFF" d="M25,213.7c0,0-1,0.8-2.4,3.9c-1.5,3.1-2.3,7.6-5.4,8.9c-3.8,1.6-8.2,1.2-9.4,0.3s0.3-3.1,2.4-5.5
		c2.1-2.4,1.9-9.2,1.9-9.2L25,213.7z"/>
	<path fill="#262626" d="M50.2,196.5c0,1.4,0.6,2.2,2.7,3.8s3.1,4.3,5.7,6.4c3.8,3,7.8,3.3,11.5,2.1c1.9-0.6,2.1-1.3,2.4-2
		s0.4-3.1-0.1-3.7c-1.4-1.5-5.7-3.3-6.4-4.7c-0.7-1.4-2-5.1-2-5.1l-13.8-0.6L50.2,196.5z"/>
	<path fill="#FFFFFF" d="M50.4,194.6c0.7,0.6,3.4,2.5,4.7,4c1.2,1.4,5.7,6.7,9.1,7.3c3.5,0.5,6.8-0.3,7.6-1.3s0-1.6-1-2.3
		c-1-0.7-4.3-2.5-5-3.6c-0.7-1.2-1.5-5-1.5-5L50.4,194.6z"/>
	<path fill="#06547A" d="M64.4,110.5c2.8,3.7,4.3,7.4,4.5,15.7c0.2,8.3,0.3,26-0.6,29.4c-1,4.1-3.9,19.4-3.7,23.6
		c0.2,4.2,0.5,6.7-0.2,8c-0.7,1.3-0.8,1.6,0.3,2.8c1.1,1.3,1.3,3.3,1.1,4.7c-0.2,1.4,1,1.5-1,1.4c-2-0.1-3.6,0.4-6.5,1.2
		s-7.9-0.2-8.2-0.2c-0.3,0,0.1-1.7-0.4-2.7c-0.5-1.1-0.9-2.3-0.9-4.9s-1.1-17.3-1.1-23c0-5.7,1.4-11.8,1.7-15.3
		c0.3-4.3-0.7-12-1.1-13.6s-4-22.4-4-22.4L64.4,110.5z"/>
	<path opacity="0.2" d="M64.4,110.5c2.8,3.7,4.3,7.4,4.5,15.7c0.2,8.3,0.3,26-0.6,29.4c-1,4.1-3.9,19.4-3.7,23.6
		c0.2,4.2,0.5,6.7-0.2,8c-0.7,1.3-0.8,1.6,0.3,2.8c1.1,1.3,1.3,3.3,1.1,4.7c-0.2,1.4,1,1.5-1,1.4c-2-0.1-3.6,0.4-6.5,1.2
		s-7.9-0.2-8.2-0.2c-0.3,0,0.1-1.7-0.4-2.7c-0.5-1.1-0.9-2.3-0.9-4.9s-1.1-17.3-1.1-23c0-5.7,1.4-11.8,1.7-15.3
		c0.3-4.3-0.7-12-1.1-13.6s-4-22.4-4-22.4L64.4,110.5z"/>
	<path fill="#06547A" d="M53.8,121.7c0,0,1.7,10.5,1,12.6c-0.7,2.2-4.7,6.6-6,10s-2,9.6-4.3,14.7s-8.2,17.4-9.2,21.7
		c-1,4.3-1.8,9.4-3.4,11c-1.7,1.7-1.5,3.4-2.2,6.9c-0.7,3.5-2.5,7.5-2.4,10.7c0.1,3.1-0.8,3.3-0.7,4.3c0.1,1,1.3,2.2-0.4,2.7
		c-1.7,0.5-6.1,0-9.5-0.6s-5.4-0.1-5.4-0.1s-0.9-4-0.2-5.7c1-2.4,3.2-3.6,3-5.1c-0.2-1.5-1.8-5.1-0.3-7.7s2.2-5.2,2.2-9.7
		c0.1-4.5,2.6-10.7,3.8-14.6c1.2-3.9,5.2-21.1,5.2-26.2s0.5-13.8,1.5-17.6c1.2-4.7,0.5-12.2,1.3-14.3
		C28.7,112.6,53.8,121.7,53.8,121.7z"/>
	<path fill="#FBD7C7" d="M35.8,42.2c0.3,2.8,0.5,5.2-0.5,7.1c-1.7,3.2-4.3,5-5.4,5.5s3.2,10.6,10,11.6c6.8,1,23.7,4,24.8,4.7
		c1,0.7,5.2,5.1,5.2,5.1s-4.9,6.9-6.3,9.3c-2.3,4-6.3,11.5-6.3,11.5s1.9,4.4,3.9,3.8c2-0.6,2-5.1,2.5-6.1c0.5-1,14.5-15.9,15.4-17.5
		c0.9-1.6,1.5-3.8-0.7-6c-2.2-2.2-7.5-9-9-10.6c-1-1-3.3-3.5-5.9-5.4c-2.6-1.9-12.3-5-12.3-5l-1.6-7.1L35.8,42.2z"/>
	<path fill="#E5E5E5" d="M30.8,54.3c0,0,7.7,9.3,16.1,7S52,50.9,52,50.9s6-1,10.7,2.5c4.5,3.4,5.3,4.6,5.7,5.8
		c-0.3,0.8-3.2,4.8-3.2,4.8s0.7,4.4,0.1,8.3s-3.6,13.4-3.2,19c0.4,5.6,1.6,12.5,2.5,15.2c0.9,2.6,1.9,6.8,1.9,6.8s-3,6.7-12.5,8.4
		s-18.8,1.9-22.8-1c-4.5-3.3-4.2-4.8-3.4-6.3c0.8-1.5,3.8-7.2,3.5-11c-0.3-3.8-8-26.8-8-26.8l-8.5-8.8c0,0,1.5-6.4,5.7-8.5
		S30.8,54.3,30.8,54.3z"/>
	<path fill="#FBD7C7" d="M15,67.7c0,0,1.4,0.3,3.3,1.2s6.9,4.2,7.8,5c1,0.8,0.5,1.2-0.8,2.3c-1.2,1.1-13.6,15-13.6,15s5.3,3.9,7,5.7
		c1.7,1.8,6,4.3,7.4,4.1c1.4-0.2,5.1-2.8,7.3-1.2c2.2,1.6,4.9,5.8,2,7.2c-2.9,1.4-8.3,2.6-10.6,1.8S5.3,99.3,3,97.4
		c-2.7-2.1-4.1-5.9-1.8-9.2S15,67.7,15,67.7z"/>
	<path fill="#FBD7C7" d="M33,39c0,0-1.6,0.7,0.2,3.6c1.8,2.8,2.9,3.4,3.7,3.3c0.8-0.1,1-0.4,1-0.4s0.9,3.5,3.8,5.2
		c2.8,1.7,8.7,3.8,11.4,2.8c2.7-1,2.7-14.2,2-16.9c-0.7-2.7-2.8-12-11.8-12.7S28.6,30.2,33,39z"/>
	<path fill="#825012" d="M42.9,23.6c-9-0.7-14.3,6.6-9.9,15.3c0,0,1.3-0.6,3,0.6c1.6,1.2,2.2,2.6,2.2,2.6l1.1-0.8
		c0,0-0.2-6.7,3.6-8.6c2.4-1.2,5.5,0.6,7.6-0.4c1.1-0.5,2-1.7,2.3-2.7C50.6,25.9,46.8,24,42.9,23.6z"/>
</g>
</svg>
