<?xml version="1.0" encoding="utf-8"?>
<!-- Generator: Adobe Illustrator 18.1.0, SVG Export Plug-In . SVG Version: 6.00 Build 0)  -->
<svg version="1.1" id="Layer_1" xmlns="http://www.w3.org/2000/svg" xmlns:xlink="http://www.w3.org/1999/xlink" x="0px" y="0px"
	 viewBox="0 0 160 240" enable-background="new 0 0 160 240" xml:space="preserve">
<path opacity="0.2" d="M36,189.1c17.1-9.5,32.9,2.5,50.8,13.5c17.9,11,51.6,21.3,37.8,28.7c-13.7,7.3-39.8-6.3-53.9-13.7
	S20.7,197.7,36,189.1z"/>
<path fill="#FBD7C7" d="M96.8,98.7c2,5.8,4.6,14.5,5.4,16.5s2.2,4.5,1.6,7.5c-0.7,3-1.7,5.1-3.8,5.9c-2.1,0.8-4.3,0.3-4.3,0.3
	L96.8,98.7z"/>
<path fill="#262626" d="M90.6,215c0.1,2.8-1.1,5.3,3.5,6.6c3.6,1,7,1.9,11.9,5.4c2,1.4,4.9,3.1,8,3.5c1.5,0.2,3.7-0.4,4.8-0.9
	c3.1-1.2,2.3-3.7,2.2-4.7c-0.1-1.7-1.8-2.6-5.1-4c-3.3-1.5-5.8-2.6-7.8-5.2c-2-2.7-6.1-5.3-6.1-5.3L90.6,215z"/>
<path fill="#FFFFFF" d="M91.2,216.5c0,0,7.9,2.2,10.3,3.7c2.8,1.8,9.9,7.5,13.5,7.6c3.1,0.1,6-1.4,5.6-3.2c-0.4-1.8-2.8-2.5-5.9-4
	s-5.8-3.7-7.1-6.1C106.4,212.2,91.2,216.5,91.2,216.5z"/>
<path fill="#262626" d="M42.2,193.4c0,0,6.1,10.2,8.2,11.8c2.2,1.6,11.1,4.6,14.9,3.7c3.8-0.9,3.7-0.8,3.9-2.7
	c0.2-2,0.6-2.2-2.6-3.7c-3.1-1.6-6.9-5.3-7.5-7.4c-0.6-2.1-7.2-6.4-10.2-6.3C46,188.9,42.2,193.4,42.2,193.4z"/>
<path fill="#FFFFFF" d="M45,193.6c2.9,2.3,5.6,8.2,7.5,9.1c1.9,0.9,8.9,3.4,13,2.7c3.6-0.6,3.9-0.8,3-1.7s-5-2.3-6.5-4.6
	c-1.5-2.4-5.3-7.9-5.3-7.9L45,193.6z"/>
<path fill="#06547A" d="M97.4,125c1.2,3.7,5.7,16.4,7.9,23.6s5.4,18.1,5.7,20.6c0.3,2.2-0.9,7.8-1.6,11.3c-0.7,3.5-2.6,19-2.8,22.9
	c-0.2,3-0.8,4.6,0.7,6.3s2.6,4.6,2,5.9c-0.7,1.3-6.2,3.4-10.5,3.7c-4.3,0.3-8.8-0.1-9.3-1.2s-0.8-4.7-0.4-8.8
	c0.4-4.1,3-33.8,2.1-37.4c-0.9-3.7-6.2-16.8-8-21.1c-1.2-2.9-2.5-5.4-2.5-5.4l2.9-17.4L97.4,125z"/>
<path opacity="0.2" d="M97.4,125c1.2,3.7,5.7,16.4,7.9,23.6s5.4,18.1,5.7,20.6c0.3,2.2-0.9,7.8-1.6,11.3c-0.7,3.5-2.6,19-2.8,22.9
	c-0.2,3-0.8,4.6,0.7,6.3s2.6,4.6,2,5.9c-0.7,1.3-6.2,3.4-10.5,3.7c-4.3,0.3-8.8-0.1-9.3-1.2s-0.8-4.7-0.4-8.8
	c0.4-4.1,3-33.8,2.1-37.4c-0.9-3.7-6.2-16.8-8-21.1c-1.2-2.9-2.5-5.4-2.5-5.4l2.9-17.4L97.4,125z"/>
<path fill="#06547A" d="M84.2,131.8c0,0-2.7,11.7-3.5,13.5s-1.9,6.5-3.1,10.7c-3.2,10.9-5.2,13.7-7.8,16.9
	c-2.2,2.7-8.2,10.3-9.5,12.2c-1.2,1.6-2.1,3.4-1.4,5.1c0.7,1.7,1.3,5.2,1.3,5.2s-6,2.7-11.8,1.7c-5.8-1-8.2-4.5-8.2-6.9
	s2.1-5.8,2.1-5.8s-0.4-4.1,1.6-6.4c2-2.4,4.3-6.9,6.4-9.7c1.7-2.2,3.1-3.8,3.5-6.8c0.8-4.9,1.6-14.1,2.4-19.6
	c0.8-5.5,1.5-10.5,4.6-19.6c2.4-6.9,5.1-8.1,5.1-8.1L84.2,131.8z"/>
<path fill="#FBD7C7" d="M78,56.1c-0.2,2.3,0.2,4.2-2.6,6.6c-2.8,2.4-4.7,3.4-4.7,3.4s7.1,12.7,15.7,11.3s8.3-13.5,8.3-13.5l-8.1-7.3
	L78,56.1z"/>
<path fill="#E5E5E5" d="M91.5,61.5c0,0,4-0.7,6.8,0.1c2.9,0.9,6.3,3.8,5.9,7.1c-0.4,3.3-0.9,5.1-0.7,8.2s0.4,9.9-2.5,13.9
	c-2.8,4-3.2,9.1-3.4,12.8c-0.1,4,0.3,16.8,1,22.8c0.3,2.6-4.8,5.7-13.8,6.3c-7.4,0.6-22.9-5.6-24-10.9c-1.1-5.3,4.8-35.2,4.8-35.2
	s-7-0.1-7.2-1.2c-0.2-1.1-1.3-8.6,0.6-11.8c2.2-3.7,5.5-5.1,8.9-6.6c2.6-1.2,4-2,4-2s5.9,12.1,13.9,10.1
	C96.5,72.7,91.5,61.5,91.5,61.5z"/>
<path fill="#FBD7C7" d="M71.7,86.4c0,0-5.1,0.2-7.7,0.1c-2.6-0.1-5.6-0.9-5.6-0.9s0.5,2.2,0.2,3.5s-2.3,14.8-2.6,15.8
	c-0.5,1.6-0.5,3.9,0.9,6.9c1.3,3,9.4,21.2,9.9,23.5c0.6,2.3,1.2,4.6,1.2,6.9c0.1,2.2-0.1,2.5,1.3,3.9s2.9,1.8,4.6,2.3
	c1.6,0.5,2.8-0.6,2.8-0.6s1,0.7,2.1,0.6c1-0.1,1.4-0.9,1.4-0.9s2.2,1.4,3,0.9c0.9-0.6-1.3-1.8-2.3-2.8c-1-1-1.5-2.8-1.5-2.8
	s0.8-3.1-0.4-5.5c-1.2-2.4-1.6-3-3.4-4.3c-1.8-1.3-1.9-0.1-3.3-3.3c-1.4-3.2-2.4-9.8-3.9-13.9c-1.4-4.2-3.5-7.9-3.4-9
	c0.1-1.1,3.5-6.7,4.9-12.6C71.5,88.1,71.7,86.4,71.7,86.4z"/>
<path fill="#FBD7C7" d="M84.5,36.1c-5.4,0.3-8.4,3.5-8.6,7.1s0,6.2,0,6.2s-1-0.4-1.3,0.8c-0.3,1.3,0.7,4.6,2.5,6.2
	c1.8,1.6,2.7,4.7,4.8,6.9c2.1,2.3,6.7,5.4,9.9,5c3.2-0.4,5.7-12.5,5.5-16.4S97.2,35.4,84.5,36.1z"/>
<path fill="#825012" d="M84.5,35.8c-5.4,0.3-8.4,3.6-8.8,7.4c-0.3,2.8-0.1,5.1,0.1,6.1c0.6,0.3,1.6,0.6,2.3,1.7c1,1.7,1,2.4,1,2.4
	l1.4-0.5c0,0,1.5-7.5,3.7-8.3s4.1,1.9,7,1.3c2.8-0.6,2.5-2.9,3.7-3c0.2,0,0.6,0.1,1,0.3C94.4,39.2,91.4,35.4,84.5,35.8z"/>
</svg>
