<?xml version="1.0" encoding="utf-8"?>
<!-- Generator: Adobe Illustrator 18.1.0, SVG Export Plug-In . SVG Version: 6.00 Build 0)  -->
<svg version="1.1" id="Layer_1" xmlns="http://www.w3.org/2000/svg" xmlns:xlink="http://www.w3.org/1999/xlink" x="0px" y="0px"
	 viewBox="0 0 160 240" enable-background="new 0 0 160 240" xml:space="preserve">
<path fill="#FBD7C7" d="M109.5,79.5c1.5-0.8,4.7-4.8,5.6-4.8s6.2,2.5,5.1,4.3c-1.1,1.9-5,4-6.4,4c-1.4,0-1.1-0.3-2.3,0.1
	s-2.2,1.3-2.2,1.3L109.5,79.5z"/>
<path opacity="0.2" d="M35,226.9c9.5,4.5,40.3-10.4,58.5-17.5c13.5-5.3,46.2-17.7,38-22c-5.6-3-26.6,4.7-45.5,11.5
	C66.4,206,27,223.1,35,226.9z"/>
<path fill="#262626" d="M117.7,185.4c0.7-2.2,4.6-13.1,9.6-10.6c4.9,2.5,3.4,7.2,2.1,9.9c-1.3,2.8-4.6,6.6-7.9,8.9
	C118.3,195.8,117.7,185.4,117.7,185.4z"/>
<path fill="#FFFFFF" d="M120.8,192.3c0,0,5.6-4.2,7.4-8c1.8-3.6,1.9-7.1-1.5-9.2c-3.4-2.1-6.2,3.2-7.9,6.4c-1.6,3.2-2,4.6-2,4.6
	L120.8,192.3z"/>
<path fill="#CC291F" d="M79.5,114.4c-5.6,3.9-6.9,5-11.1,12.7c-5.7,10.5-10.6,34.3-13.1,35.9c-5,3.2-13,10.1-20.3,19.3
	c-6.6,8.2-15.5,12.9-6.1,18.4s8.3-1.2,12.6-6.3s13.7-15.7,19-18.3c5.2-2.6,8.5-9.6,15.2-20.2c6.7-10.6,16.1-20.2,18.1-29.3
	S79.5,114.4,79.5,114.4z"/>
<path opacity="0.2" d="M79.5,114.4c-5.6,3.9-6.9,5-11.1,12.7c-5.7,10.5-10.6,34.3-13.1,35.9c-5,3.2-13,10.1-20.3,19.3
	c-6.6,8.2-15.5,12.9-6.1,18.4s8.3-1.2,12.6-6.3s13.7-15.7,19-18.3c5.2-2.6,8.5-9.6,15.2-20.2c6.7-10.6,16.1-20.2,18.1-29.3
	S79.5,114.4,79.5,114.4z"/>
<path fill="#CC291F" d="M83,119.8c-3.9,6.2-7.2,17.5-3,24.4s18.6,16.1,19.6,18.9c1,2.7,2.4,10.7,4.1,16c2.1,6.7,5.5,16.5,8.2,18.1
	c2.7,1.6,10.4-0.5,11.6-6.4c1.2-5.9-3-7.5-4.3-8.5c-1.3-1-2.6-1-3.5-7.6s-1.7-12.3-3.3-16.9c-1.6-4.7-4.8-12.8-7.3-17.2
	c-2.5-4.3-3.1-5.6-3.5-10.9C101.1,124.5,83,119.8,83,119.8z"/>
<path fill="#FFFFFF" d="M30.5,192.2c-1.4,0.4-3.1,2.7-3.1,2.7s-1.9,17.9-0.5,17.7c1.4-0.3,4-2.3,6.3-6.3s2.7-6.8,2.6-9.7
	C35.7,194.5,33.2,191.4,30.5,192.2z"/>
<path fill="#262626" d="M30.5,193.2c2.5,0.8,3.2,2.7,1.5,7c-1.9,4.9-0.8,7.1-2.6,9.8c-1.6,2.4-2.6,3-4.5,2.6c-1.8-0.5-4.4-3-3.7-6.5
	c0.5-2.9,1.6-3.2,3.3-6.7C26.3,195.8,28.3,192.5,30.5,193.2z"/>
<path fill="#FFCC00" d="M91.3,68.6c-4,0.1-7.4,3.8-9.5,15c-2.2,11.2-1.6,23.8-3.8,28.1c-2.3,4.4-7.3,10.4-7.3,10.4s5.8,1.9,11.6,4.3
	c5.8,2.4,8.3,4.1,12.2,6c3.8,1.9,8,1.2,8,1.2c-0.6,0.2-0.5-8.8,0.3-14.8c0.8-6,3.3-15.9,3.3-15.9s3.5-0.5,5.1-4.3
	c1.6-3.9-0.6-6.8-0.1-13.6c0.5-7,0.5-10.2-3.8-12.3C102.9,70.6,91.3,68.6,91.3,68.6z"/>
<path fill="#FBD7C7" d="M99.7,77.1c2.8-2.1,9.5-1.8,8.9,3.5c-0.3,3.1-1.9,2.7-5.5,5.4c-3.8,2.8-6,4.8-6.2,5.7
	c-0.1,0.9-0.1,11.3-0.3,16c-0.1,4.7,0.1,7.7,0.6,9.4s0.5,3.3-1,4.9c-1.4,1.5-3.8,1.8-4.6,0.1s-1.3-4.3-0.8-4.9
	c0.5-0.5,1.3-1.1,1.3-1.1s0.7-1.9,0.3-4c-0.4-2.1-3.8-17.4-3-21.6C90.5,85.7,97.9,78.5,99.7,77.1z"/>
<path fill="#825012" d="M109.8,44.2c-7.4-0.6-11.8,2.8-14.3,9.6c-2.5,6.8-3,9.1-6.2,10.5s-4,5.7,1,8.8c5,3.1,7.7,2.8,12,0.3
	c4.3-2.5,8,0.8,8.5,4.6c0.1,0.9,0.2,2.5,0.2,2.5s4.4,0.4,6.4-3.8c-2.7-0.3-3.2-1.4-2.6-4.3c0.7-3.1,5.1-9.3,4.3-18.1
	C118.6,47,113.6,44.5,109.8,44.2z"/>
</svg>
