<?xml version="1.0" encoding="utf-8"?>
<!-- Generator: Adobe Illustrator 18.1.0, SVG Export Plug-In . SVG Version: 6.00 Build 0)  -->
<svg version="1.1" id="Layer_1" xmlns="http://www.w3.org/2000/svg" xmlns:xlink="http://www.w3.org/1999/xlink" x="0px" y="0px"
	 viewBox="0 0 80 240" enable-background="new 0 0 80 240" xml:space="preserve">
<g>
	<path fill="#FBD7C7" d="M27.9,76.6c0,0,1.5,13.1,0.2,18.2s-2.3,8.4-2.9,14s-0.3,10.3-1.3,13c-1,2.6-0.8,7.1-0.3,10
		c0.3,2.2,1,6.4,2.1,6.2c1.1-0.2,0.7-1.5,0.9-2.7c0.2-1.1,0.4-2.8,0.2-3.7c-0.1-0.9-0.1-0.8,0.6-1.4c0.7-0.6,0.2-3.4,0.1-4.7
		c-0.4-2.9,2-9.6,3-14.3c1-4.7,4.1-11.6,3.5-16.2s-0.7-16.9-0.7-16.9L27.9,76.6z"/>
	<path opacity="0.2" d="M6.3,215.9c-6.2,7.5,4.4,11.2,19.8,12.5c15.4,1.3,29.8,8.1,40.2,2.8s4-15.3-16.3-16.6
		c-20.3-1.3-19.7-6.1-28.8-4.1S8.5,213.3,6.3,215.9z"/>
	<g>
		<path fill="#262626" d="M32.1,213.6c2.4,0,4,4.7-0.4,6c-4.4,1.3-9.2,1.9-10.6,2.1c-2.1,0.2-7.3,0.7-9.8,0
			c-2.7-0.7-2.2-3.4-1.5-4.6c0.7-1.1,15.1-4.3,17.7-4.3C30.1,213,31.7,213.6,32.1,213.6z"/>
		<path fill="#FFFFFF" d="M10.7,219.9c1.5,0.5,6,0.5,9.8,0c1.5-0.2,13.2-2.5,13.9-3.9s-9.9-5.6-9.9-5.6s-5.5,2.7-7.7,3.1
			c-2.2,0.4-5.4,0.8-7.1,2.7C8.6,217.4,9.4,219.5,10.7,219.9z"/>
	</g>
	<path fill="#262626" d="M54.5,216.8c-0.2,2-1.2,6.7,0.5,10.2c1,2.1,6.8,3,9.2,0.5c2.4-2.5-1.4-14.2-1.4-14.2L54.5,216.8z"/>
	<path fill="#FFFFFF" d="M55.1,216c0,0-2.8,11.2,4.3,11.1c7.2-0.1,5.1-5.1,4.5-8.5c-0.6-3.4-2-5.2-2-5.2L55.1,216z"/>
	<path fill="#CC291F" d="M53.8,217.6c0,0,2.9,0.1,6.7,0.3c3.8,0.2,4.1-1.6,4.1-1.6s-0.8-6.5-0.9-11.4c-0.2-4.9,0.4-18.8-0.2-25.2
		c-0.7-6.4-0.8-11.7,0.4-23.3s2.5-18.7,0.2-24.7c-2.3-6-3.7-8.5-3.7-8.5l-31.9,3.4c0,0-3.8,9-4.2,20c-0.4,11.1,2.6,20.8,1.7,26.6
		c-0.9,5.9-1.3,18.7-1.9,24.7c-0.9,9.4-4.4,15.5-4.4,15.5s1,3,6.1,3.8s8.7-1.7,8.7-1.7s0.2-6.5,0.9-14.7c0.8-8.2,2.2-16.2,2.4-22.7
		s0.6-7.5,1-9.2c0.5-1.7,2.3-13.6,3.4-17.1c1.4-4.7,1.8-9.4,2.9-9.4c1.1,0.1,0.9,4.1,2.2,11.9c1.1,6.5,4.8,32.8,4.9,40.8
		C52.3,203.2,53.8,217.6,53.8,217.6z"/>
	<g>
		<path fill="#CC291F" d="M28.4,126.5c0,0-3.8,9-4.2,20c-0.4,11.1,2.6,20.8,1.7,26.6c-0.9,5.9-1.3,18.7-1.9,24.7
			c-0.9,9.4-4.4,15.5-4.4,15.5s1,3,6.1,3.8c5.1,0.8,8.7-1.7,8.7-1.7s0.2-6.5,0.9-14.7c0.8-8.2,2.2-16.2,2.4-22.7
			c0.2-6.5,0.6-7.5,1-9.2c0.5-1.7,2.3-13.6,3.4-17.1c1.4-4.7,1.8-9.4,2.9-9.4c0,0,1.1-10.4,0.5-17.5L28.4,126.5z"/>
		<path opacity="0.2" d="M28.4,126.5c0,0-3.8,9-4.2,20c-0.4,11.1,2.6,20.8,1.7,26.6c-0.9,5.9-1.3,18.7-1.9,24.7
			c-0.9,9.4-4.4,15.5-4.4,15.5s1,3,6.1,3.8c5.1,0.8,8.7-1.7,8.7-1.7s0.2-6.5,0.9-14.7c0.8-8.2,2.2-16.2,2.4-22.7
			c0.2-6.5,0.6-7.5,1-9.2c0.5-1.7,2.3-13.6,3.4-17.1c1.4-4.7,1.8-9.4,2.9-9.4c0,0,1.1-10.4,0.5-17.5L28.4,126.5z"/>
		<path fill="#CC291F" d="M47.3,154.4c1.1,6.5,4.8,32.8,4.9,40.8c0.1,8,1.6,22.4,1.6,22.4s2.9,0.1,6.7,0.3c3.8,0.2,4.1-1.6,4.1-1.6
			s-0.8-6.5-0.9-11.4c-0.2-4.9,0.4-18.8-0.2-25.2c-0.7-6.4-0.8-11.7,0.4-23.3c1.1-11.6,2.5-18.7,0.2-24.7s-3.7-8.5-3.7-8.5L42.8,125
			c0.6,7.1,2.3,17.5,2.3,17.5C46.2,142.6,46,146.6,47.3,154.4z"/>
	</g>
	<path fill="#FBD7C7" d="M60.3,83.5c0,0-2.6,15.5-2.1,20.6c0.4,5.1,1.3,11.2,2.3,14.8c1,3.6,1.7,6,0.9,7.3s-1.8,5.3-1.1,6
		c1.8,1.6,2.5,5.6,3,6.6c0.3,0.6,0.9,1.1,1.8,0.6c0.9-0.5,0.2-4.7,0.3-5.7c0.1-1,0.4-5.8,0.4-7.4c0-1.6,0.6-15.7,0-18.8
		s-1.4-8.2,0.4-14.7C68,86.4,69,85.5,69,82.6C68.9,79.6,60.3,83.5,60.3,83.5z"/>
	<path fill="#FBD7C7" d="M40,67.8c0,0-12.3,13.3,1.7,14.9S58.2,75,55.6,69.8C53,64.7,48.7,62,48.7,62L40,67.8z"/>
	<path fill="#FFCC00" d="M40.3,68.6c0,0-5.6-1.7-8.9,0.6s-3.8,7.7-3.8,7.7s0.6,0.5,1.4,0.9c0.8,0.4,1.3,0.4,1.3,0.4s0,1.7-0.9,4.2
		c-0.8,2.6-2.7,5-1.7,8.5c0.9,3.4,3.1,3.9,3.1,4.6c0,0.8,0.6,12.2-0.7,18.5s-2.5,12.8-2.4,14.6c0,0.3,0.4,5.5,13.1,5.8
		c12.7,0.2,20.7-8.8,20.7-8.8s-2.6-6.8-3.7-11c-1-3.9,2.4-17.8,2.4-21.4c0-3.6,0-8.5,0-8.5s1.3,1.2,5.2,1.1c2.1-0.1,3.7-1.4,3.7-1.4
		s0.9-5.6-3.1-8.9S57.5,72,57.5,72s-5.1,10.4-13.9,8.1C34.1,77.7,40.3,68.6,40.3,68.6z"/>
	<path fill="#825012" d="M47.9,41.1c-8.1-0.5-12,3-13.5,8.6c-1.5,5.4,4,15.3-1.8,17.9c0.1,2.2,5.1,4.5,7.3,2.1
		c2.2-2.3,2.9-2.4,2.9-2.4L47.9,41.1z"/>
	<path fill="#FBD7C7" d="M37.2,51.2c-1.5,3.1-1.9,15.6,0.6,17.6c2.5,2,7.6-1.3,12.5-3.5s5.5-19-1.9-19.2S38.8,47.9,37.2,51.2z"/>
	<path fill="#825012" d="M46.4,41.3c-3.3,0.8-7.1,5.2-6.4,10c1,6.2,13.2,18.3,4.6,22.2c1.4,4.6,9.5,4.3,14,2
		c4.3-2.3,4.7-4.5,4.6-5.3c-0.1-0.8-3.8-4.9-3.8-10.9C59.3,53.2,58.9,38.2,46.4,41.3z"/>
	<path opacity="0.2" d="M27.9,90.9c0,0,1.1,4.3,13.6,5.1c12.5,0.9,18.6-4.8,18.6-4.8s-3.3,7.9-17.4,7.4S27.9,90.9,27.9,90.9z"/>
</g>
</svg>
