<?xml version="1.0" encoding="utf-8"?>
<!-- Generator: Adobe Illustrator 18.1.0, SVG Export Plug-In . SVG Version: 6.00 Build 0)  -->
<svg version="1.1" id="Layer_1" xmlns="http://www.w3.org/2000/svg" xmlns:xlink="http://www.w3.org/1999/xlink" x="0px" y="0px"
	 viewBox="0 0 80 240" enable-background="new 0 0 80 240" xml:space="preserve">
<g>
	<path fill="#FBD7C7" d="M7,71.8c0,0-1.8,8.3-2.4,12.2c-0.6,3.8-2.2,7.5-1.8,10.4s2.9,8,5.2,12c2.4,4.3,4.8,5.9,4.9,11.6
		c0.1,2.1-1.3,4.8,0.6,5.6s4.5,0.6,5.9,0.1s1.6-7.9,1.6-8.9c0-1.1-2.8-1.2-3.4-3.4c-0.6-2.3-4.8-13.6-4.5-15.8
		c0.3-2.2,3.8-12.9,3.8-12.9L7,71.8z"/>
	<path opacity="0.2" d="M65.9,229.5c20.1-7.7,8.6-18.7-10.6-22.1c-8.4-1.5-17.1-18.6-38.1-5.2c-16.9,10.8-1.6,17.2,7.1,21.2
		C36.2,229,47.2,236.7,65.9,229.5z"/>
	<path fill="#FBD7C7" d="M17.1,61.7c1.3,0.1,6.4-6.1,5.9-8.8c-0.5-2.8-10.6-20,7-23.6c5.8-1.2,13.3,3,14.1,10.2
		c0.7,6,0.4,14.9-1.9,16c-2.3,1.1-3.8,0.4-5.4,2.3c-1.6,1.9-1.7,4.4-0.7,7.1c1,2.7,3.7,3.4,3.7,3.4l-22.2,0L17.1,61.7z"/>
	<path fill="#825012" d="M29.8,28.7c-17.7,3-6.9,24.9-7,25.3c1.8,0.9,5.3,0.9,6.9-0.3c1.8-1.3,2.8-5.9,4.8-7.6
		c2-1.7,3.1-0.1,3.2,0.5s0.1,1.3,0.1,1.3l1.4-0.5c0,0,0.8-2.5,0.9-5.8c0.1-3.4-0.7-6.8-0.4-7.5c0.2-0.6,1.4-0.1,2.1-0.3
		C39.3,29.6,33.9,28,29.8,28.7z"/>
	<path fill="#262626" d="M15.6,213.5c-0.2,2.6,2.6,5.1,6,4.2s7-3.8,10.9-5.4c4.5-1.9,8.3-3.1,9.3-6s-0.5-6.4-7.3-6.1
		c-6.8,0.3-11.5,5.7-11.5,5.7L15.6,213.5z"/>
	<path fill="#FFFFFF" d="M17,215.4c4.1-0.7,9.7-3.6,11.8-4.8c2.2-1.2,10.5-3.6,11.7-6.3s-4.8-5.2-9.1-3.7c-4.3,1.6-8.6,2.7-8.6,2.7
		L17,215.4z"/>
	<path fill="#262626" d="M39.9,225.1c0.3,1.9-0.5,4.5,3.3,4.3c3.7-0.2,10.9-1.6,13.7-1.8c2.7-0.3,13.1-1.5,15.2-5.2
		c2-3.7,0.1-7.4-3-7.7c-3.1-0.3-7,2.2-10.4,1.4c-3.4-0.7-8.3-2.7-8.3-2.7L39.9,225.1z"/>
	<path fill="#FFFFFF" d="M42.2,225.3c2.6,0.3,8.1,0,12.8-0.7c4.8-0.7,14.3-1.8,16.3-5.6c1.5-2.9-0.6-5-4.6-4.5
		c-4.1,0.6-3.3,1.4-6.9,1.4c-3.6,0.1-8.6-1.7-8.6-1.7l-9.2,11L42.2,225.3z"/>
	<path fill="#06547A" d="M15.9,112.5c-2,3.1-6.6,9.7-3.6,24.1c2.9,14.3,5.8,25.2,3.9,30.4c-1.9,5.2-3.7,13-3.4,17.4
		c0.3,4.4,0,8.1-0.3,10.8c-0.3,2.7-1.4,14.6,0,17.8c1.4,3.1,3.8,4.7,7.8,3.7s9.1-4.8,9.7-6.9c1.5-4.8-1-14.7,0.3-19.9
		c1-3.8,2.1-8,2.3-11.5c0.2-3.5,1.6-12,3.8-22.4c2.3-10.4,6.8-22.3,6.1-30.2C41.7,117.8,15.9,112.5,15.9,112.5z"/>
	<path opacity="0.2" d="M15.9,112.5c-2,3.1-6.6,9.7-3.6,24.1c2.9,14.3,5.8,25.2,3.9,30.4c-1.9,5.2-3.7,13-3.4,17.4
		c0.3,4.4,0,8.1-0.3,10.8c-0.3,2.7-1.4,14.6,0,17.8c1.4,3.1,3.8,4.7,7.8,3.7s9.1-4.8,9.7-6.9c1.5-4.8-1-14.7,0.3-19.9
		c1-3.8,2.1-8,2.3-11.5c0.2-3.5,1.6-12,3.8-22.4c2.3-10.4,6.8-22.3,6.1-30.2C41.7,117.8,15.9,112.5,15.9,112.5z"/>
	<path fill="#06547A" d="M23.3,117.8c-2.2,5.7-3.4,14.6-0.7,19.1s7.2,10.3,8.5,14.3c1.4,4,5.9,12.4,5.8,15.7s-2.2,18.1-1.3,28.5
		c0.9,10.4,2.1,21.6,1.8,24.3c-0.3,2.7,0.7,9.4,4.3,9.5c3.6,0.1,13.1-3.6,15.8-8.1c2.1-3.4,1.1-4.9,0-5.7c-1.1-0.8-2.8-3.6-3.4-7.5
		c-0.6-3.8-0.1-23.6,1.2-29.1c1.3-5.5,2-7.9,1-13.1s-4.4-26.3-5.3-32.8c-0.9-6.5-1.6-12-1.6-12L23.3,117.8z"/>
	<path fill="#E5E5E5" d="M18.3,61c0,0-6.6-1.9-10.4,1.9s-2.4,7.9-0.8,13s9.9,25.1,9.4,29.5c-0.5,4.3-3.7,11.1-3.5,12.8
		c0.2,1.6,8,8.4,18.6,9.9s17.2-0.3,17.3-1.4c0.1-1.2,0.3-14.8-0.9-20.9s-1.4-11.9,0.4-17.2s3-10.7,1.7-13.9
		c-1.3-3.1-3.3-4.7-6.4-6.2c-3.1-1.4-6.7-2-6.7-2s-7.9,2.1-14.3,0C14.7,63.8,18.3,61,18.3,61z"/>
	<path fill="#FBD7C7" d="M35.1,84.5c0,0,5,1.3,8.6,0.7c3.6-0.6,5-1.4,5-1.4s-1.2,4-1.7,5.4c-0.9,3-1.8,8.5-1.9,10.9
		c-0.1,2.4-0.3,5.1-0.3,5.1s2.2,2.5,3.3,6.5c1.2,4,1.8,7.4,2.9,9.1c1.2,1.8,2.3,3.7,2.5,6.7c0.2,2.9,0.8,8.5-1.2,10s-5.9,3-7.5,2.3
		c-1.6-0.8-2.3-2.1-2-2.6c0.3-0.5,1.5,1.3,2.8-0.2c1.4-1.5,1.2-2.8,0.6-5.4c-0.6-2.6,0.7-4.5,0.3-5.4c-0.4-0.9-9.5-12.5-10.5-17.9
		S35.1,84.5,35.1,84.5z"/>
</g>
</svg>
