<?xml version="1.0" encoding="utf-8"?>
<!-- Generator: Adobe Illustrator 18.1.0, SVG Export Plug-In . SVG Version: 6.00 Build 0)  -->
<svg version="1.1" id="Layer_1" xmlns="http://www.w3.org/2000/svg" xmlns:xlink="http://www.w3.org/1999/xlink" x="0px" y="0px"
	 viewBox="0 0 160 240" enable-background="new 0 0 160 240" xml:space="preserve">
<path opacity="0.2" d="M40.3,226.5c9.5,4.5,40.3-10.4,58.5-17.5c13.5-5.3,43.2-17.8,38-22c-5-4-26.6,4.7-45.5,11.5
	C71.7,205.5,32.4,222.7,40.3,226.5z"/>
<path fill="#FBD7C7" d="M61,77.9c0,0,9.3-13.7,12.3-13s3,2,2.9,5c-0.1,3-1.4,17.5-1.4,17.5L61,77.9z"/>
<path fill="#262626" d="M132.7,135.1c1.2,2.7,3.5,8.1,4.7,10.9c1.2,2.9,2.5,6.5,0.9,8.4c-1.6,1.9-2.9,2-3.9,1.9s-7.9-14.4-8.7-16.8
	C124.7,137.3,130.9,131.5,132.7,135.1z"/>
<path fill="#FFFFFF" d="M133.2,139c1.1,3.1,2.6,7.1,3.7,9.4c1.1,2.3,1.8,6.3-0.8,7.8s-5.2,0-8.1-4.6s-3.3-8.8-3.3-8.8L133.2,139z"/>
<path fill="#FFFFFF" d="M34,205.1c0.3-0.4,2.3-2.2,4-1c1.7,1.2,3.8,3.7,4.5,4c0.7,0.3,2.8,0.2,2.8,0.2l8.4,8.1l-1.7,5.1l-9.8-6.8
	L34,205.1z"/>
<path fill="#CC291F" d="M80.2,124.6c0,0,1.2,14.3,0.5,15.6s-8.9,14.8-11.4,18.7s-4.3,6-4.7,9c-0.4,2.7-0.8,10.9-3.6,22.3
	c-2.8,11.6-6.8,29.3-7.3,29.3c-0.5,0-2.4-1-4.2-3.9c-1.8-2.8-2-4.5-4.8-6.7c-0.7-0.6-2-0.8-2-0.8s3-5.9,4.5-13.6
	c1.4-7.7,2.4-20.2,4.6-28.5c2.2-8.3,3.2-18,7-29.4c2.2-6.8,8.6-15.7,8.6-15.7L80.2,124.6z"/>
<path opacity="0.2" d="M80.2,124.6c0,0,1.2,14.3,0.5,15.6s-8.9,14.8-11.4,18.7s-4.3,6-4.7,9c-0.4,2.7-0.8,10.9-3.6,22.3
	c-2.8,11.6-6.8,29.3-7.3,29.3c-0.5,0-2.4-1-4.2-3.9c-1.8-2.8-2-4.5-4.8-6.7c-0.7-0.6-2-0.8-2-0.8s3-5.9,4.5-13.6
	c1.4-7.7,2.4-20.2,4.6-28.5c2.2-8.3,3.2-18,7-29.4c2.2-6.8,8.6-15.7,8.6-15.7L80.2,124.6z"/>
<path fill="#CC291F" d="M76.7,134.9c1.8,3.5,7.9,10.7,12,14.7c4.4,4.2,10.3,9.2,11.9,10.3c2.3,1.6,5.2,1.2,9.2-2.1
	c3.6-3,13.4-11.1,14.1-10.9c0.7,0.2,1.6,1.1,2.7,1.8c2.5,1.8,6.9-2.1,7.6-5.2c0.7-3.1-0.6-12.1-4.9-12.5c-4.3-0.4-6.9,2.7-11.7,5.7
	c-4.5,2.8-12.3,6.1-12.3,6.1s-4.5-11.4-6.5-16.2c-2.1-4.8-3.4-11-11.7-12.4S76.7,134.9,76.7,134.9z"/>
<path fill="#FFCC00" d="M54.2,86.6C54,90.4,52.6,101,54,103.3c1.4,2.3,6.2,5.3,6.2,5.3s2,15.8,2.9,18.2c0.9,2.4,6.3,11.1,15.6,10.4
	c10.1-0.7,13.5-6.4,14.7-12.8c1.2-6.6-0.4-8.1-2-9.4c-1.6-1.3-4.1-2.2-4.6-5s-1.6-8.7-3.3-15.7C82,88,79.5,82.8,72.4,81.3
	C65.4,79.9,54.2,86.6,54.2,86.6z"/>
<path fill="#FBD7C7" d="M57,83.6c0.1,4.1-1.6,9.6,3.7,13.4c4.9,3.5,6.5-2.5,6.9-7.9c0.5-5.4-0.8-12-0.8-12L57,83.6z"/>
<path fill="#825012" d="M58.3,57.8c-5.2-0.6-12,4.9-12.4,12.4c-0.4,7.5,2.7,8.4,3.1,12.4c0.4,4-2.2,6-2.2,6s3.4,4.8,9.4-1.1
	S58.3,57.8,58.3,57.8z"/>
<path fill="#FBD7C7" d="M50.9,68.1c-1.9,2.1-3.1,4.4-1.8,10.8s1.9,9.3,4.8,8.8c2.9-0.4,11.1-4.6,12-6.6S54.6,64,50.9,68.1z"/>
<path fill="#825012" d="M54.5,60.8c-2.7,2.9-6.1,6.9-1.7,12s10.2,6.9,9.6,11.7c-0.5,4.8-3.7,6.4-3.7,6.4s8.9,4.3,14.5-0.5
	c7.6-6.6,5.5-10.6,4.4-11.8c-1.4-1.6-2.3-0.1-4.7-4c-2.7-4.5-2.2-14-9.5-16.6C58.8,56.3,57.1,58.1,54.5,60.8z"/>
<path opacity="0.2" d="M53.7,102.5c0.2,2.7,18.1,15.3,23,9.6C69.2,115.8,55.1,104.5,53.7,102.5z"/>
<path fill="#262626" d="M33.9,204.9c-1.6,1-2,3-1.5,5.4c0.5,2.4,1.2,5.3,4.4,6.9c3.1,1.6,10.1,5.6,12.7,5.7c2.1,0.1,2.6-1.1,2.6-1.9
	c0-0.8-0.7-1.7-2.9-2.9c-2.2-1.2-5.7-2.4-6.9-5c-1.2-2.6-3.3-6.7-5-8C35.6,203.7,34.2,204.6,33.9,204.9z"/>
<path fill="#FBD7C7" d="M70.1,100.9c0,0,3.4,0.3,6,0.4c2.1,0.1,3,0,3,0s-0.5,9.3-0.9,14.2c-0.3,4.6-0.2,12.1-3.3,13.5
	c-3,1.4-7.5-1.4-12.7-3.9c-5.3-2.6-9.2-5-11.1-5.5c-1.9-0.5-7.8-2.7-8.2-5.2c-0.2-1.1,2.7-5.7,4.2-6.2c1.5-0.5,3.5,1.7,3.5,1.7
	s-0.2-1.3,1.1-1.2c1,0.1,1.6,1.4,1.8,2.8c0.1,1.4,0.2,2.7,0.6,3.5c0.3,0.7,7.8,3.6,10.2,4.2c2.4,0.6,5.1,1.3,5.1,1.3
	s0.2-6.7,0.4-10.9S70.1,100.9,70.1,100.9z"/>
</svg>
