<?xml version="1.0" encoding="utf-8"?>
<!-- Generator: Adobe Illustrator 18.1.0, SVG Export Plug-In . SVG Version: 6.00 Build 0)  -->
<svg version="1.1" id="Layer_1" xmlns="http://www.w3.org/2000/svg" xmlns:xlink="http://www.w3.org/1999/xlink" x="0px" y="0px"
	 viewBox="0 0 160 240" enable-background="new 0 0 160 240" xml:space="preserve">
<path fill="#262626" d="M98.5,147.2c3.5,1.8,5.9,2.8,8.5,3.9c2.6,1.1,5.7,1.8,7.6,3.8c2.1,2.2,2.2,6.2-0.8,7.1
	c-3.9,1.2-15.8-2.5-17.5-4C94.5,156.5,98.5,147.2,98.5,147.2z"/>
<path fill="#FFFFFF" d="M100.4,150c0,0,4,1.8,7.1,3.1c3.1,1.3,5.7,1.4,7.1,3.9c1.4,2.6,0.7,5.1-4.1,5.5s-12.8-3.6-13.6-4.9
	C96,156.4,100.4,150,100.4,150z"/>
<path fill="#262626" d="M93.1,129.3c2.6-1.1,7.2,3.5,12.2,4.1c5,0.6,8.4,0.7,9.2,2.7s-1.2,4.1-4.2,4.3c-2.9,0.2-13.4-2-15.1-3.3
	C93.4,135.7,90.9,130.3,93.1,129.3z"/>
<path fill="#FFFFFF" d="M96.9,131.7c3.9,1.4,4.9,2.6,8.8,3.2c3.9,0.6,7.4,0.6,8.4,1.8c1,1.2,0.9,4.5-2.7,5.2
	c-3.5,0.7-9.7,0.7-12.7-0.1C95.6,141,93,130.4,96.9,131.7z"/>
<path opacity="0.2" d="M54.5,212c-7.9,3.4-9.8,14.7,3.1,17.3s32.4-2.9,36.1-3.7c3.7-0.8,33.6-6.1,26.3-12.8
	c-7.3-6.7-23.8-4.3-33-3.9C77.9,209.2,65.3,207.2,54.5,212z"/>
<path fill="#CC291F" d="M41.6,130.2c-0.1,8,0.1,11.2,2,19.1c1.6,6.8,3.1,11.4,3.9,14.1c0.8,2.7,3.7,8.6,8.2,8.4
	c4.6-0.3,12.4-8.5,17.5-13.5s14.6-11.2,21.5-13.7c7-2.6,8.8-2.7,8.2-6.2s-5.8-10-10.7-9.8c-4,0.2-3.3,2.8-5.4,4.8
	c-3.1,3-16.5,11.4-19.2,12.8s-6,4.6-6,4.6s5.4-4.3,5.2-14.3c-0.1-9.9-6.2-15.3-6.2-15.3L41.6,130.2z"/>
<path opacity="0.2" d="M41.6,130.2c-0.1,8,0.1,11.2,2,19.1c1.6,6.8,3.1,11.4,3.9,14.1c0.8,2.7,3.7,8.6,8.2,8.4
	c4.6-0.3,12.4-8.5,17.5-13.5s14.6-11.2,21.5-13.7c7-2.6,8.8-2.7,8.2-6.2s-5.8-10-10.7-9.8c-4,0.2-3.3,2.8-5.4,4.8
	c-3.1,3-16.5,11.4-19.2,12.8s-6,4.6-6,4.6s5.4-4.3,5.2-14.3c-0.1-9.9-6.2-15.3-6.2-15.3L41.6,130.2z"/>
<path fill="#CC291F" d="M53.6,133.4c-2.4,6.5-4.5,10.2-5.4,22.1c-0.9,11.9-3.9,21.4,1.2,25.3c4.5,3.4,7.7,2.4,13.6-2.2
	s22.7-15.9,29.9-17c7.1-1.1,8.8-0.9,9.6-1.4c0.8-0.5,4.3-5.6,1.3-10.4s-8.7-3.9-10.1-3.5c-2,0.6-5.2,3.1-11.7,6.5
	s-17.8,11.1-17.8,11.1s7.2-13,7.6-24.1c0.4-11.1-2.5-18.7-4.1-19.9C66.3,118.7,53.6,133.4,53.6,133.4z"/>
<path fill="#FBD7C7" d="M41.4,7.8c-0.9,0-1.7,3.7-1.7,5.2c0,1.6,0.1,2.3,0.1,4.8c0,2.1,0,3.2,0.6,4.6s2.5,8.5,3.4,12.1
	c1,3.6,3,6.9,3.1,7.5s-0.9,7.3-0.5,13.7s2,17.7,2.1,18.5c0,0.8,3.2,16.2,7.7,18.9s10.9,5.5,15.5,5.2c4.6-0.3,25.6-0.7,26.7-1.2
	c1.1-0.5,4.5-6.1,5.9-6.8s3.8-0.9,5.7-1.6c3.2-1.1,6.3-1,6.2-1.7c-0.1-1.1-2.7-0.4-4-0.2c-1.4,0.2-2.5,0.3-2.5,0s1.9-1,3.3-1.4
	c1.4-0.3,3.6-0.8,3.4-1.6c-0.2-1-2.3,0-4.3,0.4c-2,0.4-2.8,0.7-3,0.5c-0.1-0.2,2.1-1.5,3.4-2.4c1.3-0.8,3.2-1.8,2.7-2.5
	c-0.4-0.7-2.2,0.6-3.8,1.5c-1.6,0.8-2.7,1.7-3,1.5c-0.3-0.2,1.4-1.5,2.6-2.5c1.2-0.9,2.5-1.4,2-2s-1.8,0.2-3.1,1.2
	c-1.2,0.8-2.3,1.6-3.8,2.3c-1.5,0.7-1.8,0.1-1.8,0.1s1.3-1.6,1.5-1.9c0.3-0.5,0.8-1.2-0.1-1.4c-0.7-0.1-1.7,1.1-2.7,2.3
	c-0.8,1-1.3,1.3-1.5,2c-0.1,0.5,0.8,2.3,0,3.1c-0.9,0.8-5.7,3.8-6.9,4C93,90.4,86.9,89,84,88.1c-2.8-1-6.4-2.7-7.8-3.5
	c-1.4-0.9-4.8-7.1-6.7-10.8c-1.9-3.7-9-6.2-10.3-8.2s-4.8-12-5.4-16.3c-0.5-4.4,0.5-7.2-0.1-9.4s-8.2-16.2-8.5-17.6
	c-0.3-1.4,0.8-2.7,0.7-4.3c-0.1-1.6,1.6-4.6,1.1-5.1s-1.5,0.2-1.9,1.7c-0.2,0.7-0.3,1.1-0.6,2c0,0,0.2-0.6,0.2-1.7
	c0-1.1,0.2-1.8,0.5-2.8c0.6-1.9,1.9-3.3,1.1-3.8s-1.5,1-2.3,2.8c-0.6,1.2-0.7,2.5-0.7,2.5s-0.1-1.2,0.4-2.6c0.6-1.7,1.9-2.9,1.3-3.4
	c-0.7-0.5-2,1.5-2.4,2.7c-0.3,1.1-0.5,1.8-0.5,1.8s0.3-1.8,0.6-2.4C43.2,8.3,44,7.2,43.5,7c-0.7-0.2-1.2,0.4-1.8,1.9
	c-0.5,1.2-0.8,2.9-0.8,2.9s0.1-1.3,0.3-2.1C41.5,8.9,42.1,7.8,41.4,7.8z"/>
<path fill="#FFCC00" d="M57.1,63.8c0,0-9.7,3-10.1,3.6c-0.5,0.6-0.5,3.3-1,5.8c-0.5,2.5-0.1,4.1-2,6.9c-1.8,2.9-4.1,2.7-5,7
	c-0.9,4.4,2.4,8.1,2.4,8.1s-1.8,14.1-2,20.9c-0.2,6.4,0.6,14.5,2.1,17c0.7,1.2,5.6,4.5,13.4,1.9c7.7-2.7,14.3-11.1,14.5-12.4
	s-1.6-2.5-2.9-5.9s-0.6-8,2.1-11.4c2.7-3.4,5.4-7,5.4-7S71.1,98.5,71,97c-0.2-1.9,1-7.1,3.3-9c2.3-2,4.6-2.2,4.6-2.2s-0.9-0.4-2-1.8
	c-1.2-1.4-3.6-5-3.6-5s-10.7,9.5-17.6,5.8s-2.2-11,1.2-12.6C60.2,70.6,57.1,63.8,57.1,63.8z"/>
<path fill="#FBD7C7" d="M57.6,59.7c-1.6,2.9-2.5,5.1-2.7,8.2s-1.8,8.9,0.5,10.2s6.7,0.5,11.1-1.7c4.4-2.2,16.6-20.2,6.8-23.4
	C63.5,49.9,57.6,59.7,57.6,59.7z"/>
<path fill="#825012" d="M64.1,61c0,0-4.5,2.6-6,3.5s-3.5,2.9-3.1,6.4c0.3,3.5,0.5,4.4,0.5,4.4s-4.7-0.5-4.5-6
	c0.3-5.5,3.9-7.1,6.1-10.7c2.2-3.5,7-13.4,16.6-9s5.5,14.4,5.2,19s1.8,8.6,0.4,10.9c-1.4,2.2-4.6,5.8-11.8,5.2
	c-7.2-0.7-7.2-3.6-7.2-3.6s6.9-2,7.3-5.8C68,71.4,63.3,64,64.1,61z"/>
<path opacity="0.2" d="M39.3,91.3c2.3,8,14.3,12.9,26.3,9.8C48.1,101.6,41.8,94.7,39.3,91.3z"/>
</svg>
