<?xml version="1.0" encoding="utf-8"?>
<!-- Generator: Adobe Illustrator 18.1.0, SVG Export Plug-In . SVG Version: 6.00 Build 0)  -->
<svg version="1.1" id="Layer_1" xmlns="http://www.w3.org/2000/svg" xmlns:xlink="http://www.w3.org/1999/xlink" x="0px" y="0px"
	 viewBox="0 0 160 160" enable-background="new 0 0 160 160" xml:space="preserve">
<path opacity="0.2" d="M27.8,120.5c2.9-4.4,6.5-4.8,17.4-1.4s33.9-1.9,42.7,1.3c8.8,3.1,32,7.3,36.2,9.8c4.2,2.6,11.4,6.6-1.5,15
	s-29.6,5.3-34.5,2.5c-4.9-2.8-5.3-3.7-9.3-2.5c-6.6,2.1-10.9,5.3-21.4,0.1c-9.4-4.6-8.1-15.3-14.6-18S24.8,124.9,27.8,120.5z"/>
<path fill="#262626" d="M88.1,143.9c-0.1,2-1,3,0.2,3.4c1.2,0.4,18.6,1.5,20.5,1.5c3.2,0,8.1-1.9,9.8-3.5c1-1,1.5-5.7-3.6-6.8
	c-5.1-1.2-12.8,1.3-12.8,1.3L88.1,143.9z"/>
<path fill="#FFFFFF" d="M95.2,143.8c3.5,0.5,10.5,1.6,13.7,1.5c3.5-0.1,8.3-1.1,8.5-2.9c0.2-1.4-0.9-3.8-6.2-3
	c-3.2,0.5-11.3-0.4-11.3-0.4L95.2,143.8z"/>
<path fill="#262626" d="M107.6,143.6c2.4,0.1,11.8-1,13.6-1.5c3.3-0.9,6.4-4.3,6.6-7.5c0.2-3.2-2.4-7.5-6.4-6.5
	c-3.5,0.8-4.5,2.9-6.3,3.6c-1.8,0.7-6.9,1.1-6.9,1.1l-1.1,10.6L107.6,143.6z"/>
<path fill="#FFFFFF" d="M109,139.7c0,0,5.8,0.2,9.5-0.2c3.5-0.4,8.8-3.2,8.4-7.1c-0.4-3.9-4.7-5-7.7-3c-2.8,1.8-6.3,2.7-8.3,1.9
	C108.9,130.5,109,139.7,109,139.7z"/>
<path fill="#06547A" d="M86.9,146.8c0.6,0.3,7.9-0.5,11.6-1.4s8.6-3.6,8.6-3.6S96.5,115.4,94.5,114c-2-1.4-17,2.8-17,2.8l0.3,12.3
	c0,0,3.1,6.9,5.5,8.3c2.4,1.5,2.6,2.8,2.8,4.3S85.8,146.2,86.9,146.8z"/>
<path opacity="0.2" d="M86.9,146.8c0.6,0.3,7.9-0.5,11.6-1.4s8.6-3.6,8.6-3.6S96.5,115.4,94.5,114c-2-1.4-17,2.8-17,2.8l0.3,12.3
	c0,0,3.1,6.9,5.5,8.3c2.4,1.5,2.6,2.8,2.8,4.3S85.8,146.2,86.9,146.8z"/>
<path fill="#06547A" d="M47.3,129.4c0,0,2.5,13.1,10.2,16c7.6,2.8,18.5,0.5,23.9-6S91.5,121,91.5,121s1.9,4.2,3.2,7.3
	c1.4,3,4.7,7.2,5.9,8.8c1.2,1.7,2.5,5.4,4,6.5c1.6,1.1,6.1-0.4,9.6-3.7c3.5-3.3,4.4-6.6,3.6-8.5c-0.8-1.9-2.5-0.4-3.6-2.4
	c-1.4-2.4-5.9-11.7-9.2-19.9s-3.7-15.9-6.3-18.3c-2.6-2.4-6-7-13.1-2.2c-7.2,4.8-10,14.9-13,20.7c-2.1,4.2-3.8,7.9-3.8,7.9
	L47.3,129.4z"/>
<path fill="#FBD7C7" d="M47.4,122.8c-1.3,1.2-2,2.6-4.1,2.4c-2.1-0.2-8-1.8-10.1-1.9c-1.5-0.1-2.9-0.2-4.1-0.1
	c-0.3,0-1.3-0.4-0.2-0.9c-0.6,0.1-0.9-0.1-0.9-0.1c-0.6-0.8,2.6-1.9,2.1-1.7c-0.8,0.2-1.5,0.5-1.9,0.2c-0.6-0.5,1.8-1.7,3.6-2
	c1.2-0.2,2.3,0,2.3,0s-0.3-0.2-1.2-0.4s-2.2,0.9-2.9,0.3c-0.6-0.5,2.4-2,3.6-1.9s3.5,1.2,4,1.2c0.5,0,3.7,0,3.7,0s-0.9-2.2-1.2-3.6
	c-0.4-1.4-1.1-9.8-1.1-9.8l7.7-2.4L47.4,122.8z"/>
<path fill="#FBD7C7" d="M57.1,72c0,0-0.9-3.9,0.3-5.5c1.2-1.6,1.3-2.4,3.3-2.8c2-0.5,3.2-0.7,3.4-2s1.3-14-1.2-18.1
	c-2.9-4.6-13.1-8.5-19-0.1c-5,7,1.3,13.7,1.5,17c0.2,3.1-3.1,6.1-4.9,7.3c-1.8,1.2,0.8,4.5,5,5C49.6,73.4,57.1,72,57.1,72z"/>
<path fill="#825012" d="M60,43.4c0.1-1,0.6-1.3,1.3-1.5c-4-3.7-12.4-5.7-17.6,1.6c-4.7,6.6,0.7,13,1.4,16.5c0.6,1,1.4,1.8,2.9,2.1
	c3.9,1,7.5-5.6,7.5-6.2c0-0.6,0-1.4,1.4-2.4s2.4,1,2.4,1h1c0,0,0.5-2.1,0.8-4.8C61.5,47,59.8,45,60,43.4z"/>
<path fill="#E5E5E5" d="M40.3,67.8c0,0-0.1,2.6,3.4,2.5c3.5-0.1,10.8,0.1,13.8,1c3,1,11.3,3.3,12.5,4.5c1.8,1.9-0.6,9.7-1.7,14.2
	c-1.1,4.5-2.3,6.9-2.1,8.5c0.3,3.3,5.5,13,5.5,13s-0.9,1.6-1.7,4.1c-0.6,1.8-1,3.3-2.1,4.5c-1,1.2-8.9,6.3-13.4,8.5
	c-3.3,1.6-6,2.3-7.1,1.9c-1.2-0.4-1.1-7.9-3.7-12.2c-2.6-4.3-9.9-17.5-11.5-31.6c-1.4-12.8-1-17.3,2.3-18.5S40.3,67.8,40.3,67.8z"/>
<path fill="#FBD7C7" d="M98.7,90.8c0,0-2.4-2.2-3.7-1.9c-2,0.5-2,2.1-4.4,3.1s-3.9,0.9-7.1,0c-3.1-0.9-10.1-1.1-14.1-2.2
	c-3.9-1-4.4-0.9-4.4-0.9s-1.8-4.4,0.2-8.4c2-4.2,3.9-4.8,4.6-4.5c0.8,0.3,2.9,3.5,6,4.6c3.1,1,7.8,2.4,10.7,2.5
	c2.9,0.1,8.6,1.7,9.4,2.8C96.9,87,99.7,89.9,98.7,90.8z"/>
</svg>
