<?xml version="1.0" encoding="utf-8"?>
<!-- Generator: Adobe Illustrator 18.1.0, SVG Export Plug-In . SVG Version: 6.00 Build 0)  -->
<svg version="1.1" id="Layer_1" xmlns="http://www.w3.org/2000/svg" xmlns:xlink="http://www.w3.org/1999/xlink" x="0px" y="0px"
	 viewBox="0 0 16 16" enable-background="new 0 0 16 16" xml:space="preserve">
<path fill="#539B00" d="M8,16c0,0,0.4-0.7,1.2-1.1c0.4-0.2,0.9,0,1.3-0.2c0.5,0.3,1-0.4,1.5-0.7c0.5-0.9,1-0.6,1.5-0.7
	c0.5,0.3,0.9-0.1,1.3-0.6c0.4-0.2,0.7-0.3,0.9-0.5C15.9,12.1,16,12,16,12V4c0,0-1.4-0.4-2.1-0.8C13.5,3.1,12.5,2.4,12,2
	c-0.5-0.8-1-0.6-1.5-0.7C10.1,0.6,8,0,8,0S7.9,0.1,7.7,0.2c-0.2,0.1-1,0.8-1.3,1C5.9,1.1,4.5,1.3,4,2C3.5,2.6,3,2.1,2.5,2.7
	C2.1,3,0,4,0,4v8c0,0,1.7,1.2,2.2,0.9C2.7,13.1,3.5,14.2,4,14c0.5,0.2,1,0.2,1.5,0.7C5.9,15.1,8,16,8,16z"/>
<path opacity="0.29" d="M8,16c0,0,0.4-0.7,1.2-1.1c0.4-0.2,0.9,0,1.3-0.2c0.5,0.3,1-0.4,1.5-0.7c0.5-0.9,1-0.6,1.5-0.7
	c0.5,0.3,0.9-0.1,1.3-0.6c0.4-0.2,0.7-0.3,0.9-0.5S16,12,16,12V4c0,0-0.5,0.3-1.3,0.6c-0.4,0.2-0.8,0.4-1.3,0.6C13,6.5,12.5,7,12,6
	c-0.5,0.7-1,2.2-1.5,0.7c-0.5-0.1-0.9-0.1-1.3,0.6C8.9,8,8.6,7.8,8.3,7.8C8.1,7.9,8,8,8,8V16z"/>
<path opacity="0.11" d="M0,4v8c0,0,1.7,1.2,2.2,0.9C2.7,13.1,3.5,14.2,4,14c0.5,0.2,1,0.2,1.5,0.7C5.9,15.1,8,16,8,16V8
	c0,0-0.1-0.1-0.3-0.2C7.4,7.7,6.4,8.2,6,8C5.6,7.9,5.5,5.6,5,6C4.5,5.6,4.5,5.7,4,6C3.5,5.3,2.5,6.2,2,6C1.5,5.6,1.6,4.8,1.2,4.6
	C0.5,4.3,0,4,0,4z"/>
<path opacity="0.2" fill="#FFFFFF" d="M8,2.6C8,2.9,8.1,3,8.3,1.6c0.2,3-1.4-1.1-1-0.5C7.8,1.4,8,1.4,8.2,1.1
	c0.2,1.1-1.5,0.8-0.6,1.1c0.6-1.8,1.1,0.1,1.6-0.4c0.5-0.3,0.9-0.1,1.2-0.3c0.3-0.1,0.5-0.1,0.5-0.1S10.6,1.6,10.3,2
	C9.9,2.7,9.5,3.2,9,3c-0.5,1-1-0.5-1.4,0.5c-0.4,0.6,1-0.7,0.5-0.8C2,6.3,9.3,0.7,8.6,2.3C8.3,1.7,8,3.6,8,2.6z"/>
<path opacity="0.2" fill="#FFFFFF" d="M6,7.6C6,7.9,6.1,8,6.3,6.6c0.2,3,0.6-2.1,1-1.5C7.8,5.4,8,5.4,8.2,5.1
	c0.2,1.1,0.5-0.2,1.4,0.1c0.6-1.8-0.9,1.1-0.4,0.6c0.5-0.3,0.9-0.1,1.2-0.3c0.3-0.1,0.5-0.1,0.5-0.1S10.6,5.6,10.3,6
	C9.9,6.7,9.5,7.2,9,7c-0.5,1,1-1.5,0.6-0.5c-0.4,0.6-1,0.3-1.5,0.2C7.6,7.1,7,6.3,6.6,7.3C6.3,6.7,6,8.6,6,7.6z"/>
</svg>
