<?xml version="1.0" encoding="utf-8"?>
<!-- Generator: Adobe Illustrator 18.1.0, SVG Export Plug-In . SVG Version: 6.00 Build 0)  -->
<svg version="1.1" id="Layer_1" xmlns="http://www.w3.org/2000/svg" xmlns:xlink="http://www.w3.org/1999/xlink" x="0px" y="0px"
	 viewBox="0 0 128 64" enable-background="new 0 0 128 64" xml:space="preserve">
<g>
	<polygon opacity="0.2" points="96,0 0,48 32,64 128,16 	"/>
	<g>
		<polygon fill="#999999" points="86,27 92,30 92,24 86,21 		"/>
		<polygon opacity="0.06" points="86,27 92,30 92,24 86,21 		"/>
		<polygon fill="#999999" points="94,29 92,30 92,24 94,23 		"/>
		<polygon opacity="0.39" points="94,29 92,30 92,24 94,23 		"/>
	</g>
	<polygon fill="#999999" points="54,45 58,47 58,42 54,40 	"/>
	<polygon opacity="0.06" points="54,45 58,47 58,42 54,40 	"/>
	<polygon fill="#999999" points="60,46 58,47 58,42 60,41 	"/>
	<polygon opacity="0.39" points="60,46 58,47 58,42 60,41 	"/>
	<g>
		<g>
			<path fill="#999999" d="M101.9,3L96,0l-0.2,0.1c-6.4,3.2-13.5,5.1-20.7,5.4l-0.2,0c-7.2,0.3-14.3,2.2-20.7,5.4l-15.3,7.6
				c-4.6,2.3-8.8,5.3-12.5,8.8L15.6,37.7c-3.7,3.5-7.9,6.5-12.5,8.8L0,48l5.9,3L9,49.4c4.6-2.3,8.8-5.3,12.5-8.8l10.8-10.3
				c3.7-3.5,7.9-6.5,12.5-8.8l15.3-7.6c6.5-3.2,13.6-5.1,20.8-5.4l0,0C88.2,8.2,95.4,6.3,101.9,3L101.9,3z"/>
			<path fill="#999999" d="M122.1,13l-0.2,0.1c-6.4,3.2-13.5,5.1-20.7,5.4l-0.2,0c-7.2,0.3-14.3,2.2-20.7,5.4l-15.3,7.7
				c-4.6,2.3-8.8,5.2-12.5,8.7l-11,10.5c-3.6,3.5-7.8,6.4-12.2,8.6L26.1,61l5.9,3l3.1-1.5c4.6-2.3,8.8-5.3,12.5-8.8l10.8-10.3
				c3.7-3.5,7.9-6.5,12.5-8.8l15.3-7.6c6.4-3.2,13.5-5.1,20.7-5.4l0.2,0c7.2-0.3,14.3-2.2,20.7-5.4L128,16L122.1,13z"/>
		</g>
		<path fill="#656565" d="M101.9,3L101.9,3c-6.6,3.3-13.7,5.2-21,5.5l0,0c-7.2,0.3-14.3,2.2-20.8,5.4l-15.3,7.6
			c-4.6,2.3-8.8,5.3-12.5,8.8L21.5,40.6c-3.7,3.5-7.9,6.5-12.5,8.8L5.9,51L26.1,61l3.2-1.6c4.5-2.3,8.6-5.2,12.2-8.6l11-10.5
			c3.7-3.5,7.9-6.5,12.5-8.7l15.4-7.7c6.4-3.2,13.4-5,20.6-5.4l0.3,0c7.1-0.3,14-2.1,20.4-5.3l0.4-0.2L101.9,3z"/>
		<g>
			<path fill="#999999" d="M101.9,3L96,0l-0.2,0.1c-6.4,3.2-13.5,5.1-20.7,5.4l-0.2,0c-7.2,0.3-14.3,2.2-20.7,5.4l-15.3,7.6
				c-4.6,2.3-8.8,5.3-12.5,8.8L15.6,37.7c-3.7,3.5-7.9,6.5-12.5,8.8L0,48l5.9,3L9,49.4c4.6-2.3,8.8-5.3,12.5-8.8l10.8-10.3
				c3.7-3.5,7.9-6.5,12.5-8.8l15.3-7.6c6.5-3.2,13.6-5.1,20.8-5.4l0,0C88.2,8.2,95.4,6.3,101.9,3L101.9,3z"/>
			<path fill="#999999" d="M122.1,13l-0.2,0.1c-6.4,3.2-13.5,5.1-20.7,5.4l-0.2,0c-7.2,0.3-14.3,2.2-20.7,5.4l-15.3,7.7
				c-4.6,2.3-8.8,5.2-12.5,8.7l-11,10.5c-3.6,3.5-7.8,6.4-12.2,8.6L26.1,61l5.9,3l3.1-1.5c4.6-2.3,8.8-5.3,12.5-8.8l10.8-10.3
				c3.7-3.5,7.9-6.5,12.5-8.8l15.3-7.6c6.4-3.2,13.5-5.1,20.7-5.4l0.2,0c7.2-0.3,14.3-2.2,20.7-5.4L128,16L122.1,13z"/>
		</g>
		<path fill="#656565" d="M101.9,3L101.9,3c-6.6,3.3-13.7,5.2-21,5.5l0,0c-7.2,0.3-14.3,2.2-20.8,5.4l-15.3,7.6
			c-4.6,2.3-8.8,5.3-12.5,8.8L21.5,40.6c-3.7,3.5-7.9,6.5-12.5,8.8L5.9,51L26.1,61l3.2-1.6c4.5-2.3,8.6-5.2,12.2-8.6l11-10.5
			c3.7-3.5,7.9-6.5,12.5-8.7l15.4-7.7c6.4-3.2,13.4-5,20.6-5.4l0.3,0c7.1-0.3,14-2.1,20.4-5.3l0.4-0.2L101.9,3z"/>
		<path opacity="0.15" d="M101.3,17.5l-0.3,0c-7.2,0.3-14.2,2.2-20.6,5.4l-15.4,7.7c-4.6,2.3-8.8,5.2-12.5,8.7l-11,10.5
			c-3.6,3.5-7.8,6.4-12.2,8.6l-4.2,2.1l1,0.5l3.2-1.6c4.5-2.3,8.6-5.2,12.2-8.6l11-10.5c3.7-3.5,7.9-6.5,12.5-8.7l15.4-7.7
			c6.4-3.2,13.4-5,20.6-5.4l0.3,0c7.1-0.3,14-2.1,20.4-5.3l0.4-0.2l-1.1-0.5C114.8,15.5,108.1,17.2,101.3,17.5z"/>
		<path opacity="0.15" d="M9,50.5c4.6-2.3,8.8-5.3,12.5-8.8l10.8-10.3c3.7-3.5,7.9-6.5,12.5-8.8l15.3-7.6c6.5-3.2,13.6-5.1,20.8-5.4
			c7.3-0.3,14.5-2.2,21-5.5l1.1-0.5l-1-0.5l0,0c-6.5,3.3-13.7,5.2-21,5.5c-7.2,0.3-14.3,2.2-20.8,5.4l-15.3,7.6
			c-4.6,2.3-8.8,5.3-12.5,8.8L21.5,40.6c-3.7,3.5-7.9,6.5-12.5,8.8L5.9,51l1,0.5L9,50.5z"/>
	</g>
</g>
</svg>
