<?xml version="1.0" encoding="utf-8"?>
<!-- Generator: Adobe Illustrator 18.1.0, SVG Export Plug-In . SVG Version: 6.00 Build 0)  -->
<svg version="1.1" id="Layer_1" xmlns="http://www.w3.org/2000/svg" xmlns:xlink="http://www.w3.org/1999/xlink" x="0px" y="0px"
	 viewBox="0 0 192 152" enable-background="new 0 0 192 152" xml:space="preserve">
<g>
	<polygon fill="#F8EBCB" points="64,0 0,32 0,38 128,102 192,70 192,64 	"/>
	<g>
		<polygon opacity="0.1" points="13.4,32 64,6.7 178.6,64 128,89.3 		"/>
		<polygon opacity="0.39" points="64,10.7 64,6.7 13.4,32 17.4,34 		"/>
		<polygon opacity="0.06" points="64,10.7 174.6,66 178.6,64 64,6.7 		"/>
	</g>
	<g>
		<polygon fill="#F8EBCB" points="192,120 128,152 128,96 192,64 		"/>
		<g>
			<polygon fill="#3399CC" points="142,126 130,132 130,119 142,113 			"/>
			<polygon fill="#BAA794" points="142,118 138,120 138,115 137,115.5 137,120.5 134,122 134,117 133,117.5 133,122.5 130,124 
				130,125 133,123.5 133,130.5 134,130 134,123 137,121.5 137,128.5 138,128 138,121 142,119 			"/>
			<polygon fill="#BAA794" points="141,113.5 141,125.5 130,131 130,132 142,126 142,113 			"/>
			<polygon opacity="0.15" points="142,115 130,121 130,119 142,113 			"/>
			<polygon opacity="0.15" points="142,114 130,120 130,119 142,113 			"/>
		</g>
		<g>
			<polygon fill="#3399CC" points="158,118 146,124 146,111 158,105 			"/>
			<polygon fill="#BAA794" points="158,110 154,112 154,107 153,107.5 153,112.5 150,114 150,109 149,109.5 149,114.5 146,116 
				146,117 149,115.5 149,122.5 150,122 150,115 153,113.5 153,120.5 154,120 154,113 158,111 			"/>
			<polygon fill="#BAA794" points="157,105.5 157,117.5 146,123 146,124 158,118 158,105 			"/>
			<polygon opacity="0.15" points="158,107 146,113 146,111 158,105 			"/>
			<polygon opacity="0.15" points="158,106 146,112 146,111 158,105 			"/>
		</g>
		<g>
			<polygon fill="#3399CC" points="174,110 162,116 162,103 174,97 			"/>
			<polygon opacity="0.15" points="174,106 162,106 162,103 174,97 			"/>
			<polygon fill="#BAA794" points="174,102 170,104 170,99 169,99.5 169,104.5 166,106 166,101 165,101.5 165,106.5 162,108 
				162,109 165,107.5 165,114.5 166,114 166,107 169,105.5 169,112.5 170,112 170,105 174,103 			"/>
			<polygon fill="#BAA794" points="173,97.5 173,109.5 162,115 162,116 174,110 174,97 			"/>
			<polygon opacity="0.15" points="174,99 162,105 162,103 174,97 			"/>
			<polygon opacity="0.15" points="174,98 162,104 162,103 174,97 			"/>
		</g>
		<g>
			<polygon fill="#3399CC" points="190,102 178,108 178,95 190,89 			"/>
			<polygon opacity="0.15" points="190,99 178,99 178,95 190,89 			"/>
			<polygon fill="#BAA794" points="190,94 186,96 186,91 185,91.5 185,96.5 182,98 182,93 181,93.5 181,98.5 178,100 178,101 
				181,99.5 181,106.5 182,106 182,99 185,97.5 185,104.5 186,104 186,97 190,95 			"/>
			<polygon fill="#BAA794" points="189,89.5 189,101.5 178,107 178,108 190,102 190,89 			"/>
			<polygon opacity="0.15" points="190,91 178,97 178,95 190,89 			"/>
			<polygon opacity="0.15" points="190,90 178,96 178,95 190,89 			"/>
		</g>
		<g>
			<polygon fill="#3399CC" points="142,142 130,148 130,135 142,129 			"/>
			<polygon fill="#BAA794" points="142,134 138,136 138,131 137,131.5 137,136.5 134,138 134,133 133,133.5 133,138.5 130,140 
				130,141 133,139.5 133,146.5 134,146 134,139 137,137.5 137,144.5 138,144 138,137 142,135 			"/>
			<polygon fill="#BAA794" points="141,129.5 141,141.5 130,147 130,148 142,142 142,129 			"/>
			<polygon opacity="0.15" points="142,131 130,137 130,135 142,129 			"/>
			<polygon opacity="0.15" points="142,130 130,136 130,135 142,129 			"/>
		</g>
		<g>
			<polygon fill="#3399CC" points="158,134 146,140 146,127 158,121 			"/>
			<polygon opacity="0.15" points="158,131 146,131 146,127 158,121 			"/>
			<polygon fill="#BAA794" points="158,126 154,128 154,123 153,123.5 153,128.5 150,130 150,125 149,125.5 149,130.5 146,132 
				146,133 149,131.5 149,138.5 150,138 150,131 153,129.5 153,136.5 154,136 154,129 158,127 			"/>
			<polygon fill="#BAA794" points="157,121.5 157,133.5 146,139 146,140 158,134 158,121 			"/>
			<polygon opacity="0.15" points="158,123 146,129 146,127 158,121 			"/>
			<polygon opacity="0.15" points="158,122 146,128 146,127 158,121 			"/>
		</g>
		<g>
			<polygon fill="#3399CC" points="174,126 162,132 162,119 174,113 			"/>
			<polygon opacity="0.15" points="174,122 162,122 162,119 174,113 			"/>
			<polygon fill="#BAA794" points="174,118 170,120 170,115 169,115.5 169,120.5 166,122 166,117 165,117.5 165,122.5 162,124 
				162,125 165,123.5 165,130.5 166,130 166,123 169,121.5 169,128.5 170,128 170,121 174,119 			"/>
			<polygon fill="#BAA794" points="173,113.5 173,125.5 162,131 162,132 174,126 174,113 			"/>
			<polygon opacity="0.15" points="174,115 162,121 162,119 174,113 			"/>
			<polygon opacity="0.15" points="174,114 162,120 162,119 174,113 			"/>
		</g>
		<g>
			<polygon fill="#3399CC" points="190,118 178,124 178,111 190,105 			"/>
			<polygon fill="#BAA794" points="190,110 186,112 186,107 185,107.5 185,112.5 182,114 182,109 181,109.5 181,114.5 178,116 
				178,117 181,115.5 181,122.5 182,122 182,115 185,113.5 185,120.5 186,120 186,113 190,111 			"/>
			<polygon fill="#BAA794" points="189,105.5 189,117.5 178,123 178,124 190,118 190,105 			"/>
			<polygon opacity="0.15" points="190,107 178,113 178,111 190,105 			"/>
			<polygon opacity="0.15" points="190,106 178,112 178,111 190,105 			"/>
		</g>
		<g>
			<polygon fill="#3399CC" points="142,110 130,116 130,103 142,97 			"/>
			<polygon fill="#BAA794" points="142,102 138,104 138,99 137,99.5 137,104.5 134,106 134,101 133,101.5 133,106.5 130,108 
				130,109 133,107.5 133,114.5 134,114 134,107 137,105.5 137,112.5 138,112 138,105 142,103 			"/>
			<polygon fill="#BAA794" points="141,97.5 141,109.5 130,115 130,116 142,110 142,97 			"/>
			<polygon opacity="0.15" points="142,99 130,105 130,103 142,97 			"/>
			<polygon opacity="0.15" points="142,98 130,104 130,103 142,97 			"/>
		</g>
		<g>
			<polygon fill="#3399CC" points="158,102 146,108 146,95 158,89 			"/>
			<polygon fill="#BAA794" points="158,94 154,96 154,91 153,91.5 153,96.5 150,98 150,93 149,93.5 149,98.5 146,100 146,101 
				149,99.5 149,106.5 150,106 150,99 153,97.5 153,104.5 154,104 154,97 158,95 			"/>
			<polygon fill="#BAA794" points="157,89.5 157,101.5 146,107 146,108 158,102 158,89 			"/>
			<polygon opacity="0.15" points="158,91 146,97 146,95 158,89 			"/>
			<polygon opacity="0.15" points="158,90 146,96 146,95 158,89 			"/>
		</g>
		<g>
			<polygon fill="#3399CC" points="174,94 162,100 162,87 174,81 			"/>
			<polygon fill="#BAA794" points="174,86 170,88 170,83 169,83.5 169,88.5 166,90 166,85 165,85.5 165,90.5 162,92 162,93 
				165,91.5 165,98.5 166,98 166,91 169,89.5 169,96.5 170,96 170,89 174,87 			"/>
			<polygon fill="#BAA794" points="173,81.5 173,93.5 162,99 162,100 174,94 174,81 			"/>
			<polygon opacity="0.15" points="174,83 162,89 162,87 174,81 			"/>
			<polygon opacity="0.15" points="174,82 162,88 162,87 174,81 			"/>
		</g>
		<g>
			<polygon fill="#3399CC" points="190,86 178,92 178,79 190,73 			"/>
			<polygon opacity="0.15" points="190,86 178,86 178,79 190,73 			"/>
			<polygon fill="#BAA794" points="190,78 186,80 186,75 185,75.5 185,80.5 182,82 182,77 181,77.5 181,82.5 178,84 178,85 
				181,83.5 181,90.5 182,90 182,83 185,81.5 185,88.5 186,88 186,81 190,79 			"/>
			<polygon fill="#BAA794" points="189,73.5 189,85.5 178,91 178,92 190,86 190,73 			"/>
			<polygon opacity="0.15" points="190,75 178,81 178,79 190,73 			"/>
			<polygon opacity="0.15" points="190,74 178,80 178,79 190,73 			"/>
		</g>
		<g>
			<polygon opacity="0.2" fill="#FFFFFF" points="192,71 128,103 128,101 192,69 			"/>
			<polygon opacity="0.8" fill="#FFFFFF" points="192,70 128,102 128,101 192,69 			"/>
			<polygon opacity="0.15" points="192,72 128,104 128,103 192,71 			"/>
			<polygon opacity="0.8" fill="#FFFFFF" points="192,87 128,119 128,118 192,86 			"/>
			<polygon opacity="0.15" points="192,88 128,120 128,119 192,87 			"/>
			<polygon opacity="0.8" fill="#FFFFFF" points="192,66 128,98 128,97 192,65 			"/>
			<polygon opacity="0.15" points="192,67 128,99 128,98 192,66 			"/>
			<polygon opacity="0.8" fill="#FFFFFF" points="192,103 128,135 128,134 192,102 			"/>
			<polygon opacity="0.15" points="192,104 128,136 128,135 192,103 			"/>
			<polygon opacity="0.8" fill="#FFFFFF" points="192,119 128,151 128,150 192,118 			"/>
			<polygon opacity="0.15" points="192,120 128,152 128,151 192,119 			"/>
		</g>
		<polygon opacity="0.39" points="192,120 128,152 128,96 192,64 		"/>
	</g>
	<g>
		<polygon fill="#F8EBCB" points="0,32 0,88 128,152 128,96 		"/>
		<g>
			<polygon fill="#3399CC" points="78,108 66,102 66,89 78,95 			"/>
			<polygon fill="#BAA794" points="78,100 74,98 74,93 73,92.5 73,97.5 70,96 70,91 69,90.5 69,95.5 66,94 66,95 69,96.5 69,103.5 
				70,104 70,97 73,98.5 73,105.5 74,106 74,99 78,101 			"/>
			<polygon fill="#BAA794" points="77,94.5 77,106.5 66,101 66,102 78,108 78,95 			"/>
			<polygon opacity="0.15" points="78,97 66,91 66,89 78,95 			"/>
			<polygon opacity="0.15" points="78,96 66,90 66,89 78,95 			"/>
		</g>
		<g>
			<polygon fill="#3399CC" points="94,116 82,110 82,97 94,103 			"/>
			<polygon fill="#BAA794" points="94,108 90,106 90,101 89,100.5 89,105.5 86,104 86,99 85,98.5 85,103.5 82,102 82,103 85,104.5 
				85,111.5 86,112 86,105 89,106.5 89,113.5 90,114 90,107 94,109 			"/>
			<polygon fill="#BAA794" points="93,102.5 93,114.5 82,109 82,110 94,116 94,103 			"/>
			<polygon opacity="0.15" points="94,105 82,99 82,97 94,103 			"/>
			<polygon opacity="0.15" points="94,104 82,98 82,97 94,103 			"/>
		</g>
		<g>
			<polygon fill="#3399CC" points="111,124.5 99,118.5 99,105.5 111,111.5 			"/>
			<polygon fill="#BAA794" points="111,116.5 107,114.5 107,109.5 106,109 106,114 103,112.5 103,107.5 102,107 102,112 99,110.5 
				99,111.5 102,113 102,120 103,120.5 103,113.5 106,115 106,122 107,122.5 107,115.5 111,117.5 			"/>
			<polygon fill="#BAA794" points="110,111 110,123 99,117.5 99,118.5 111,124.5 111,111.5 			"/>
			<polygon opacity="0.15" points="111,113.5 99,107.5 99,105.5 111,111.5 			"/>
			<polygon opacity="0.15" points="111,112.5 99,106.5 99,105.5 111,111.5 			"/>
		</g>
		<g>
			<polygon fill="#3399CC" points="126,132 114,126 114,113 126,119 			"/>
			<polygon opacity="0.15" points="126,127 114,115 114,113 126,119 			"/>
			<polygon fill="#BAA794" points="126,124 122,122 122,117 121,116.5 121,121.5 118,120 118,115 117,114.5 117,119.5 114,118 
				114,119 117,120.5 117,127.5 118,128 118,121 121,122.5 121,129.5 122,130 122,123 126,125 			"/>
			<polygon fill="#BAA794" points="125,118.5 125,130.5 114,125 114,126 126,132 126,119 			"/>
			<polygon opacity="0.15" points="126,121 114,115 114,113 126,119 			"/>
			<polygon opacity="0.15" points="126,120 114,114 114,113 126,119 			"/>
		</g>
		<g>
			<polygon fill="#3399CC" points="78,92 66,86 66,73 78,79 			"/>
			<polygon fill="#BAA794" points="78,84 74,82 74,77 73,76.5 73,81.5 70,80 70,75 69,74.5 69,79.5 66,78 66,79 69,80.5 69,87.5 
				70,88 70,81 73,82.5 73,89.5 74,90 74,83 78,85 			"/>
			<polygon fill="#BAA794" points="77,78.5 77,90.5 66,85 66,86 78,92 78,79 			"/>
			<polygon opacity="0.15" points="78,81 66,75 66,73 78,79 			"/>
			<polygon opacity="0.15" points="78,80 66,74 66,73 78,79 			"/>
		</g>
		<g>
			<polygon fill="#3399CC" points="94,100 82,94 82,81 94,87 			"/>
			<polygon fill="#BAA794" points="94,92 90,90 90,85 89,84.5 89,89.5 86,88 86,83 85,82.5 85,87.5 82,86 82,87 85,88.5 85,95.5 
				86,96 86,89 89,90.5 89,97.5 90,98 90,91 94,93 			"/>
			<polygon fill="#BAA794" points="93,86.5 93,98.5 82,93 82,94 94,100 94,87 			"/>
			<polygon opacity="0.15" points="94,89 82,83 82,81 94,87 			"/>
			<polygon opacity="0.15" points="94,88 82,82 82,81 94,87 			"/>
		</g>
		<g>
			<polygon fill="#3399CC" points="111,108.5 99,102.5 99,89.5 111,95.5 			"/>
			<polygon opacity="0.15" points="111,102.5 99,91.5 99,89.5 111,95.5 			"/>
			<polygon fill="#BAA794" points="111,100.5 107,98.5 107,93.5 106,93 106,98 103,96.5 103,91.5 102,91 102,96 99,94.5 99,95.5 
				102,97 102,104 103,104.5 103,97.5 106,99 106,106 107,106.5 107,99.5 111,101.5 			"/>
			<polygon fill="#BAA794" points="110,95 110,107 99,101.5 99,102.5 111,108.5 111,95.5 			"/>
			<polygon opacity="0.15" points="111,97.5 99,91.5 99,89.5 111,95.5 			"/>
			<polygon opacity="0.15" points="111,96.5 99,90.5 99,89.5 111,95.5 			"/>
		</g>
		<g>
			<polygon fill="#3399CC" points="126,116 114,110 114,97 126,103 			"/>
			<polygon opacity="0.15" points="126,112 114,100 114,97 126,103 			"/>
			<polygon fill="#BAA794" points="126,108 122,106 122,101 121,100.5 121,105.5 118,104 118,99 117,98.5 117,103.5 114,102 
				114,103 117,104.5 117,111.5 118,112 118,105 121,106.5 121,113.5 122,114 122,107 126,109 			"/>
			<polygon fill="#BAA794" points="125,102.5 125,114.5 114,109 114,110 126,116 126,103 			"/>
			<polygon opacity="0.15" points="126,105 114,99 114,97 126,103 			"/>
			<polygon opacity="0.15" points="126,104 114,98 114,97 126,103 			"/>
		</g>
		<g>
			<polygon opacity="0.2" fill="#FFFFFF" points="128,103 0,39 0,37 128,101 			"/>
			<polygon opacity="0.8" fill="#FFFFFF" points="128,102 0,38 0,37 128,101 			"/>
			<polygon opacity="0.15" points="128,104 0,40 0,39 128,103 			"/>
			<polygon opacity="0.8" fill="#FFFFFF" points="128,119 0,55 0,54 128,118 			"/>
			<polygon opacity="0.15" points="128,120 0,56 0,55 128,119 			"/>
			<polygon opacity="0.8" fill="#FFFFFF" points="128,98 0,34 0,33 128,97 			"/>
			<polygon opacity="0.15" points="128,99 0,35 0,34 128,98 			"/>
			<polygon opacity="0.8" fill="#FFFFFF" points="128,135 0,71 0,70 128,134 			"/>
			<polygon opacity="0.15" points="128,136 0,72 0,71 128,135 			"/>
			<polygon opacity="0.8" fill="#FFFFFF" points="128,151 0,87 0,86 128,150 			"/>
			<polygon opacity="0.15" points="128,152 0,88 0,87 128,151 			"/>
		</g>
		<g>
			<polygon fill="#3399CC" points="14,76 2,70 2,57 14,63 			"/>
			<polygon opacity="0.2" fill="#FFFFFF" points="14,76 2,70 2,61 14,73 			"/>
			<polygon fill="#BAA794" points="14,68 10,66 10,61 9,60.5 9,65.5 6,64 6,59 5,58.5 5,63.5 2,62 2,63 5,64.5 5,71.5 6,72 6,65 
				9,66.5 9,73.5 10,74 10,67 14,69 			"/>
			<polygon fill="#BAA794" points="13,62.5 13,74.5 2,69 2,70 14,76 14,63 			"/>
			<polygon opacity="0.15" points="14,65 2,59 2,57 14,63 			"/>
			<polygon opacity="0.15" points="14,64 2,58 2,57 14,63 			"/>
		</g>
		<g>
			<polygon fill="#3399CC" points="29,83.5 17,77.5 17,64.5 29,70.5 			"/>
			<polygon opacity="0.2" fill="#FFFFFF" points="29,83.5 17,77.5 17,70.5 29,82.5 			"/>
			<polygon fill="#BAA794" points="29,75.5 25,73.5 25,68.5 24,68 24,73 21,71.5 21,66.5 20,66 20,71 17,69.5 17,70.5 20,72 20,79 
				21,79.5 21,72.5 24,74 24,81 25,81.5 25,74.5 29,76.5 			"/>
			<polygon fill="#BAA794" points="28,70 28,82 17,76.5 17,77.5 29,83.5 29,70.5 			"/>
			<polygon opacity="0.15" points="29,72.5 17,66.5 17,64.5 29,70.5 			"/>
			<polygon opacity="0.15" points="29,71.5 17,65.5 17,64.5 29,70.5 			"/>
		</g>
		<g>
			<polygon fill="#3399CC" points="46,92 34,86 34,73 46,79 			"/>
			<polygon fill="#BAA794" points="46,84 42,82 42,77 41,76.5 41,81.5 38,80 38,75 37,74.5 37,79.5 34,78 34,79 37,80.5 37,87.5 
				38,88 38,81 41,82.5 41,89.5 42,90 42,83 46,85 			"/>
			<polygon fill="#BAA794" points="45,78.5 45,90.5 34,85 34,86 46,92 46,79 			"/>
			<polygon opacity="0.15" points="46,81 34,75 34,73 46,79 			"/>
			<polygon opacity="0.15" points="46,80 34,74 34,73 46,79 			"/>
		</g>
		<g>
			<polygon fill="#3399CC" points="62,100 50,94 50,81 62,87 			"/>
			<polygon fill="#BAA794" points="62,92 58,90 58,85 57,84.5 57,89.5 54,88 54,83 53,82.5 53,87.5 50,86 50,87 53,88.5 53,95.5 
				54,96 54,89 57,90.5 57,97.5 58,98 58,91 62,93 			"/>
			<polygon fill="#BAA794" points="61,86.5 61,98.5 50,93 50,94 62,100 62,87 			"/>
			<polygon opacity="0.15" points="62,89 50,83 50,81 62,87 			"/>
			<polygon opacity="0.15" points="62,88 50,82 50,81 62,87 			"/>
		</g>
		<g>
			<polygon fill="#3399CC" points="14,60 2,54 2,41 14,47 			"/>
			<polygon opacity="0.2" fill="#FFFFFF" points="14,60 2,54 2,41 14,53 			"/>
			<polygon fill="#BAA794" points="14,52 10,50 10,45 9,44.5 9,49.5 6,48 6,43 5,42.5 5,47.5 2,46 2,47 5,48.5 5,55.5 6,56 6,49 
				9,50.5 9,57.5 10,58 10,51 14,53 			"/>
			<polygon fill="#BAA794" points="13,46.5 13,58.5 2,53 2,54 14,60 14,47 			"/>
			<polygon opacity="0.15" points="14,49 2,43 2,41 14,47 			"/>
			<polygon opacity="0.15" points="14,48 2,42 2,41 14,47 			"/>
		</g>
		<g>
			<polygon fill="#3399CC" points="29,67.5 17,61.5 17,48.5 29,54.5 			"/>
			<polygon fill="#BAA794" points="29,59.5 25,57.5 25,52.5 24,52 24,57 21,55.5 21,50.5 20,50 20,55 17,53.5 17,54.5 20,56 20,63 
				21,63.5 21,56.5 24,58 24,65 25,65.5 25,58.5 29,60.5 			"/>
			<polygon fill="#BAA794" points="28,54 28,66 17,60.5 17,61.5 29,67.5 29,54.5 			"/>
			<polygon opacity="0.15" points="29,56.5 17,50.5 17,48.5 29,54.5 			"/>
			<polygon opacity="0.15" points="29,55.5 17,49.5 17,48.5 29,54.5 			"/>
		</g>
		<g>
			<polygon fill="#3399CC" points="46,76 34,70 34,57 46,63 			"/>
			<polygon fill="#BAA794" points="46,68 42,66 42,61 41,60.5 41,65.5 38,64 38,59 37,58.5 37,63.5 34,62 34,63 37,64.5 37,71.5 
				38,72 38,65 41,66.5 41,73.5 42,74 42,67 46,69 			"/>
			<polygon fill="#BAA794" points="45,62.5 45,74.5 34,69 34,70 46,76 46,63 			"/>
			<polygon opacity="0.15" points="46,65 34,59 34,57 46,63 			"/>
			<polygon opacity="0.15" points="46,64 34,58 34,57 46,63 			"/>
		</g>
		<g>
			<polygon fill="#3399CC" points="62,84 50,78 50,65 62,71 			"/>
			<polygon fill="#BAA794" points="62,76 58,74 58,69 57,68.5 57,73.5 54,72 54,67 53,66.5 53,71.5 50,70 50,71 53,72.5 53,79.5 
				54,80 54,73 57,74.5 57,81.5 58,82 58,75 62,77 			"/>
			<polygon fill="#BAA794" points="61,70.5 61,82.5 50,77 50,78 62,84 62,71 			"/>
			<polygon opacity="0.15" points="62,73 50,67 50,65 62,71 			"/>
			<polygon opacity="0.15" points="62,72 50,66 50,65 62,71 			"/>
		</g>
		<g>
			<polygon opacity="0.15" points="33,85.5 30,84 30,72 33,73.5 			"/>
			<polygon opacity="0.8" fill="#FFFFFF" points="32,75 31,74.5 31,73.5 32,74 			"/>
			<polygon opacity="0.8" fill="#FFFFFF" points="32,78 31,77.5 31,76.5 32,77 			"/>
			<polygon opacity="0.8" fill="#FFFFFF" points="32,81 31,80.5 31,79.5 32,80 			"/>
			<polygon opacity="0.8" fill="#FFFFFF" points="32,84 31,83.5 31,82.5 32,83 			"/>
		</g>
		<g>
			<polygon opacity="0.15" points="33,101.5 30,100 30,88 33,89.5 			"/>
			<polygon opacity="0.8" fill="#FFFFFF" points="32,91 31,90.5 31,89.5 32,90 			"/>
			<polygon opacity="0.8" fill="#FFFFFF" points="32,94 31,93.5 31,92.5 32,93 			"/>
			<polygon opacity="0.8" fill="#FFFFFF" points="32,97 31,96.5 31,95.5 32,96 			"/>
			<polygon opacity="0.8" fill="#FFFFFF" points="32,100 31,99.5 31,98.5 32,99 			"/>
		</g>
		<g>
			<polygon opacity="0.15" points="98,118 95,116.5 95,104.5 98,106 			"/>
			<polygon opacity="0.8" fill="#FFFFFF" points="97,107.5 96,107 96,106 97,106.5 			"/>
			<polygon opacity="0.8" fill="#FFFFFF" points="97,110.5 96,110 96,109 97,109.5 			"/>
			<polygon opacity="0.8" fill="#FFFFFF" points="97,113.5 96,113 96,112 97,112.5 			"/>
			<polygon opacity="0.8" fill="#FFFFFF" points="97,116.5 96,116 96,115 97,115.5 			"/>
		</g>
		<g>
			<polygon fill="#3399CC" points="78,124 66,118 66,105 78,111 			"/>
			<polygon fill="#BAA794" points="78,116 74,114 74,109 73,108.5 73,113.5 70,112 70,107 69,106.5 69,111.5 66,110 66,111 
				69,112.5 69,119.5 70,120 70,113 73,114.5 73,121.5 74,122 74,115 78,117 			"/>
			<polygon fill="#BAA794" points="77,110.5 77,122.5 66,117 66,118 78,124 78,111 			"/>
			<polygon opacity="0.15" points="78,113 66,107 66,105 78,111 			"/>
			<polygon opacity="0.15" points="78,112 66,106 66,105 78,111 			"/>
		</g>
		<g>
			<polygon fill="#3399CC" points="94,132 82,126 82,113 94,119 			"/>
			<polygon fill="#BAA794" points="94,124 90,122 90,117 89,116.5 89,121.5 86,120 86,115 85,114.5 85,119.5 82,118 82,119 
				85,120.5 85,127.5 86,128 86,121 89,122.5 89,129.5 90,130 90,123 94,125 			"/>
			<polygon fill="#BAA794" points="93,118.5 93,130.5 82,125 82,126 94,132 94,119 			"/>
			<polygon opacity="0.15" points="94,121 82,115 82,113 94,119 			"/>
			<polygon opacity="0.15" points="94,120 82,114 82,113 94,119 			"/>
		</g>
		<g>
			<polygon fill="#3399CC" points="111,140.5 99,134.5 99,121.5 111,127.5 			"/>
			<polygon fill="#BAA794" points="111,132.5 107,130.5 107,125.5 106,125 106,130 103,128.5 103,123.5 102,123 102,128 99,126.5 
				99,127.5 102,129 102,136 103,136.5 103,129.5 106,131 106,138 107,138.5 107,131.5 111,133.5 			"/>
			<polygon fill="#BAA794" points="110,127 110,139 99,133.5 99,134.5 111,140.5 111,127.5 			"/>
			<polygon opacity="0.15" points="111,129.5 99,123.5 99,121.5 111,127.5 			"/>
			<polygon opacity="0.15" points="111,128.5 99,122.5 99,121.5 111,127.5 			"/>
		</g>
		<g>
			<polygon fill="#3399CC" points="126,148 114,142 114,129 126,135 			"/>
			<polygon opacity="0.15" points="126,143 114,131 114,129 126,135 			"/>
			<polygon fill="#BAA794" points="126,140 122,138 122,133 121,132.5 121,137.5 118,136 118,131 117,130.5 117,135.5 114,134 
				114,135 117,136.5 117,143.5 118,144 118,137 121,138.5 121,145.5 122,146 122,139 126,141 			"/>
			<polygon fill="#BAA794" points="125,134.5 125,146.5 114,141 114,142 126,148 126,135 			"/>
			<polygon opacity="0.15" points="126,137 114,131 114,129 126,135 			"/>
			<polygon opacity="0.15" points="126,136 114,130 114,129 126,135 			"/>
		</g>
		<g>
			<polygon fill="#3399CC" points="14,92 2,86 2,73 14,79 			"/>
			<polygon opacity="0.2" fill="#FFFFFF" points="14,92 2,86 2,77 14,89 			"/>
			<polygon fill="#BAA794" points="14,84 10,82 10,77 9,76.5 9,81.5 6,80 6,75 5,74.5 5,79.5 2,78 2,79 5,80.5 5,87.5 6,88 6,81 
				9,82.5 9,89.5 10,90 10,83 14,85 			"/>
			<polygon fill="#BAA794" points="13,78.5 13,90.5 2,85 2,86 14,92 14,79 			"/>
			<polygon opacity="0.15" points="14,81 2,75 2,73 14,79 			"/>
			<polygon opacity="0.15" points="14,80 2,74 2,73 14,79 			"/>
		</g>
		<g>
			<polygon fill="#3399CC" points="29,99.5 17,93.5 17,80.5 29,86.5 			"/>
			<polygon opacity="0.2" fill="#FFFFFF" points="29,99.5 17,93.5 17,89.5 29,98.5 			"/>
			<polygon fill="#BAA794" points="29,91.5 25,89.5 25,84.5 24,84 24,89 21,87.5 21,82.5 20,82 20,87 17,85.5 17,86.5 20,88 20,95 
				21,95.5 21,88.5 24,90 24,97 25,97.5 25,90.5 29,92.5 			"/>
			<polygon fill="#BAA794" points="28,86 28,98 17,92.5 17,93.5 29,99.5 29,86.5 			"/>
			<polygon opacity="0.15" points="29,88.5 17,82.5 17,80.5 29,86.5 			"/>
			<polygon opacity="0.15" points="29,87.5 17,81.5 17,80.5 29,86.5 			"/>
		</g>
		<g>
			<polygon fill="#3399CC" points="46,108 34,102 34,89 46,95 			"/>
			<polygon fill="#BAA794" points="46,100 42,98 42,93 41,92.5 41,97.5 38,96 38,91 37,90.5 37,95.5 34,94 34,95 37,96.5 37,103.5 
				38,104 38,97 41,98.5 41,105.5 42,106 42,99 46,101 			"/>
			<polygon fill="#BAA794" points="45,94.5 45,106.5 34,101 34,102 46,108 46,95 			"/>
			<polygon opacity="0.15" points="46,97 34,91 34,89 46,95 			"/>
			<polygon opacity="0.15" points="46,96 34,90 34,89 46,95 			"/>
		</g>
		<g>
			<polygon fill="#3399CC" points="62,116 50,110 50,97 62,103 			"/>
			<polygon fill="#BAA794" points="62,108 58,106 58,101 57,100.5 57,105.5 54,104 54,99 53,98.5 53,103.5 50,102 50,103 53,104.5 
				53,111.5 54,112 54,105 57,106.5 57,113.5 58,114 58,107 62,109 			"/>
			<polygon fill="#BAA794" points="61,102.5 61,114.5 50,109 50,110 62,116 62,103 			"/>
			<polygon opacity="0.15" points="62,105 50,99 50,97 62,103 			"/>
			<polygon opacity="0.15" points="62,104 50,98 50,97 62,103 			"/>
		</g>
		<g>
			<polygon opacity="0.15" points="98,134 95,132.5 95,120.5 98,122 			"/>
			<polygon opacity="0.8" fill="#FFFFFF" points="97,123.5 96,123 96,122 97,122.5 			"/>
			<polygon opacity="0.8" fill="#FFFFFF" points="97,126.5 96,126 96,125 97,125.5 			"/>
			<polygon opacity="0.8" fill="#FFFFFF" points="97,129.5 96,129 96,128 97,128.5 			"/>
			<polygon opacity="0.8" fill="#FFFFFF" points="97,132.5 96,132 96,131 97,131.5 			"/>
		</g>
		<g>
			<polygon opacity="0.15" points="33,69.5 30,68 30,56 33,57.5 			"/>
			<polygon opacity="0.8" fill="#FFFFFF" points="32,59 31,58.5 31,57.5 32,58 			"/>
			<polygon opacity="0.8" fill="#FFFFFF" points="32,62 31,61.5 31,60.5 32,61 			"/>
			<polygon opacity="0.8" fill="#FFFFFF" points="32,65 31,64.5 31,63.5 32,64 			"/>
			<polygon opacity="0.8" fill="#FFFFFF" points="32,68 31,67.5 31,66.5 32,67 			"/>
		</g>
		<g>
			<polygon opacity="0.15" points="98,102 95,100.5 95,88.5 98,90 			"/>
			<polygon opacity="0.8" fill="#FFFFFF" points="97,91.5 96,91 96,90 97,90.5 			"/>
			<polygon opacity="0.8" fill="#FFFFFF" points="97,94.5 96,94 96,93 97,93.5 			"/>
			<polygon opacity="0.8" fill="#FFFFFF" points="97,97.5 96,97 96,96 97,96.5 			"/>
			<polygon opacity="0.8" fill="#FFFFFF" points="97,100.5 96,100 96,99 97,99.5 			"/>
		</g>
		<polygon opacity="0.06" points="0,32 0,88 128,152 128,96 		"/>
	</g>
</g>
</svg>
