<?xml version="1.0" encoding="utf-8"?>
<!-- Generator: Adobe Illustrator 18.1.0, SVG Export Plug-In . SVG Version: 6.00 Build 0)  -->
<svg version="1.1" id="Layer_1" xmlns="http://www.w3.org/2000/svg" xmlns:xlink="http://www.w3.org/1999/xlink" x="0px" y="0px"
	 viewBox="0 0 128 136" enable-background="new 0 0 128 136" xml:space="preserve">
<g>
	<g>
		<polygon fill="#CC291F" points="120,92 128,96 128,87 120,83 		"/>
		<polygon opacity="0.06" points="120,92 128,96 128,87 120,83 		"/>
		<polygon fill="#E5E5E5" points="120,92 104,100 104,84 120,76 		"/>
		<g>
			<g>
				<polygon fill="#FFFFFF" points="116,94 108,98 108,84 116,80 				"/>
				<polygon fill="#3399CC" points="115,93.5 109,96.5 109,84.5 115,81.5 				"/>
			</g>
			<polygon opacity="0.15" points="115,84.5 109,87.5 109,84.5 115,81.5 			"/>
			<polygon opacity="0.15" points="109,84.5 115,81.5 115,82.5 109,85.5 			"/>
		</g>
		<polygon opacity="0.39" points="120,92 104,100 104,84 120,76 		"/>
		<polygon fill="#CC291F" points="128,96 112,104 112,95 128,87 		"/>
		<polygon opacity="0.5" points="120,85 112,89 104,85 104,84 120,83 		"/>
	</g>
	<polygon fill="#E5E5E5" points="104,84 112,88 112,72 104,68 	"/>
	<polygon opacity="0.06" points="104,84 112,88 112,72 104,68 	"/>
	<polygon fill="#E5E5E5" points="88,108 96,112 96,96 88,92 	"/>
	<polygon opacity="0.06" points="88,108 96,112 96,96 88,92 	"/>
	<g>
		<polygon fill="#E5E5E5" points="88,108 72,116 72,100 88,92 		"/>
		<g>
			<g>
				<polygon fill="#FFFFFF" points="84,110 76,114 76,100 84,96 				"/>
				<polygon fill="#3399CC" points="83,109.5 77,112.5 77,100.5 83,97.5 				"/>
			</g>
			<polygon opacity="0.15" points="83,100.5 77,103.5 77,100.5 83,97.5 			"/>
			<polygon opacity="0.15" points="77,100.5 83,97.5 83,98.5 77,101.5 			"/>
		</g>
		<polygon opacity="0.39" points="88,108 72,116 72,100 88,92 		"/>
		<polygon fill="#CC291F" points="96,112 80,120 80,111 96,103 		"/>
		<polygon opacity="0.5" points="88,101 80,105 72,101 72,100 88,99 		"/>
	</g>
	<g>
		<polygon fill="#E5E5E5" points="104,84 88,92 88,76 104,68 		"/>
		<g>
			<g>
				<polygon fill="#FFFFFF" points="100,86 92,90 92,76 100,72 				"/>
				<polygon fill="#3399CC" points="99,85.5 93,88.5 93,76.5 99,73.5 				"/>
			</g>
			<polygon opacity="0.15" points="99,76.5 93,79.5 93,76.5 99,73.5 			"/>
			<polygon opacity="0.15" points="93,76.5 99,73.5 99,74.5 93,77.5 			"/>
		</g>
		<polygon opacity="0.39" points="104,84 88,92 88,76 104,68 		"/>
		<polygon fill="#CC291F" points="112,88 96,96 96,87 112,79 		"/>
		<polygon opacity="0.5" points="104,77 96,81 88,77 88,76 104,75 		"/>
	</g>
	<polygon fill="#E5E5E5" points="72,100 80,104 80,88 72,84 	"/>
	<polygon opacity="0.06" points="72,100 80,104 80,88 72,84 	"/>
	<polygon fill="#E5E5E5" points="56,124 64,128 64,112 56,108 	"/>
	<polygon opacity="0.06" points="56,124 64,128 64,112 56,108 	"/>
	<g>
		<polygon fill="#E5E5E5" points="56,124 40,132 40,116 56,108 		"/>
		<g>
			<g>
				<polygon fill="#FFFFFF" points="52,126 44,130 44,116 52,112 				"/>
				<polygon fill="#3399CC" points="51,125.5 45,128.5 45,116.5 51,113.5 				"/>
			</g>
			<polygon opacity="0.15" points="51,116.5 45,119.5 45,116.5 51,113.5 			"/>
			<polygon opacity="0.15" points="45,116.5 51,113.5 51,114.5 45,117.5 			"/>
		</g>
		<polygon opacity="0.39" points="56,124 40,132 40,116 56,108 		"/>
		<polygon fill="#CC291F" points="40,132 48,136 48,127 40,123 		"/>
		<polygon fill="#CC291F" points="64,128 48,136 48,127 64,119 		"/>
		<polygon opacity="0.5" points="56,117 48,121 40,117 40,116 56,115 		"/>
	</g>
	<g>
		<polygon fill="#E5E5E5" points="72,100 56,108 56,92 72,84 		"/>
		<g>
			<g>
				<polygon fill="#FFFFFF" points="68,102 60,106 60,92 68,88 				"/>
				<polygon fill="#3399CC" points="67,101.5 61,104.5 61,92.5 67,89.5 				"/>
			</g>
			<polygon opacity="0.15" points="67,92.5 61,95.5 61,92.5 67,89.5 			"/>
			<polygon opacity="0.15" points="61,92.5 67,89.5 67,90.5 61,93.5 			"/>
		</g>
		<polygon opacity="0.39" points="72,100 56,108 56,92 72,84 		"/>
		<polygon fill="#CC291F" points="80,104 64,112 64,103 80,95 		"/>
		<polygon opacity="0.5" points="72,93 64,97 56,93 56,92 72,91 		"/>
	</g>
	<g>
		<polygon fill="#CC291F" points="120,60 128,64 128,55 120,51 		"/>
		<polygon opacity="0.06" points="120,60 128,64 128,55 120,51 		"/>
		<polygon fill="#E5E5E5" points="120,60 104,68 104,52 120,44 		"/>
		<g>
			<g>
				<polygon fill="#FFFFFF" points="116,62 108,66 108,52 116,48 				"/>
				<polygon fill="#3399CC" points="115,61.5 109,64.5 109,52.5 115,49.5 				"/>
			</g>
			<polygon opacity="0.15" points="115,52.5 109,55.5 109,52.5 115,49.5 			"/>
			<polygon opacity="0.15" points="109,52.5 115,49.5 115,50.5 109,53.5 			"/>
		</g>
		<polygon opacity="0.39" points="120,60 104,68 104,52 120,44 		"/>
		<polygon fill="#CC291F" points="128,64 112,72 112,63 128,55 		"/>
		<polygon opacity="0.5" points="120,53 112,57 104,53 104,52 120,51 		"/>
	</g>
	<polygon fill="#E5E5E5" points="104,52 112,56 112,40 104,36 	"/>
	<polygon opacity="0.06" points="104,52 112,56 112,40 104,36 	"/>
	<polygon fill="#E5E5E5" points="88,76 96,80 96,64 88,60 	"/>
	<polygon opacity="0.06" points="88,76 96,80 96,64 88,60 	"/>
	<g>
		<polygon fill="#E5E5E5" points="88,76 72,84 72,68 88,60 		"/>
		<g>
			<g>
				<polygon fill="#FFFFFF" points="84,78 76,82 76,68 84,64 				"/>
				<polygon fill="#3399CC" points="83,77.5 77,80.5 77,68.5 83,65.5 				"/>
			</g>
			<polygon opacity="0.15" points="83,68.5 77,71.5 77,68.5 83,65.5 			"/>
			<polygon opacity="0.15" points="77,68.5 83,65.5 83,66.5 77,69.5 			"/>
		</g>
		<polygon opacity="0.39" points="88,76 72,84 72,68 88,60 		"/>
		<polygon fill="#CC291F" points="96,80 80,88 80,79 96,71 		"/>
		<polygon opacity="0.5" points="88,69 80,73 72,69 72,68 88,67 		"/>
	</g>
	<g>
		<polygon fill="#E5E5E5" points="104,52 88,60 88,44 104,36 		"/>
		<g>
			<g>
				<polygon fill="#FFFFFF" points="100,54 92,58 92,44 100,40 				"/>
				<polygon fill="#3399CC" points="99,53.5 93,56.5 93,44.5 99,41.5 				"/>
			</g>
			<polygon opacity="0.15" points="99,44.5 93,47.5 93,44.5 99,41.5 			"/>
			<polygon opacity="0.15" points="93,44.5 99,41.5 99,42.5 93,45.5 			"/>
		</g>
		<polygon opacity="0.39" points="104,52 88,60 88,44 104,36 		"/>
		<polygon fill="#CC291F" points="112,56 96,64 96,55 112,47 		"/>
		<polygon opacity="0.5" points="104,45 96,49 88,45 88,44 104,43 		"/>
	</g>
	<polygon fill="#E5E5E5" points="72,68 80,72 80,56 72,52 	"/>
	<polygon opacity="0.06" points="72,68 80,72 80,56 72,52 	"/>
	<polygon fill="#E5E5E5" points="56,92 64,96 64,80 56,76 	"/>
	<polygon opacity="0.06" points="56,92 64,96 64,80 56,76 	"/>
	<g>
		<polygon fill="#E5E5E5" points="56,92 40,100 40,84 56,76 		"/>
		<g>
			<g>
				<polygon fill="#FFFFFF" points="52,94 44,98 44,84 52,80 				"/>
				<polygon fill="#3399CC" points="51,93.5 45,96.5 45,84.5 51,81.5 				"/>
			</g>
			<polygon opacity="0.15" points="51,84.5 45,87.5 45,84.5 51,81.5 			"/>
			<polygon opacity="0.15" points="45,84.5 51,81.5 51,82.5 45,85.5 			"/>
		</g>
		<polygon opacity="0.39" points="56,92 40,100 40,84 56,76 		"/>
		<polygon fill="#CC291F" points="40,100 48,104 48,95 40,91 		"/>
		<polygon fill="#CC291F" points="64,96 48,104 48,95 64,87 		"/>
		<polygon opacity="0.5" points="56,85 48,89 40,85 40,84 56,83 		"/>
	</g>
	<g>
		<polygon fill="#E5E5E5" points="72,68 56,76 56,60 72,52 		"/>
		<g>
			<g>
				<polygon fill="#FFFFFF" points="68,70 60,74 60,60 68,56 				"/>
				<polygon fill="#3399CC" points="67,69.5 61,72.5 61,60.5 67,57.5 				"/>
			</g>
			<polygon opacity="0.15" points="67,60.5 61,63.5 61,60.5 67,57.5 			"/>
			<polygon opacity="0.15" points="61,60.5 67,57.5 67,58.5 61,61.5 			"/>
		</g>
		<polygon opacity="0.39" points="72,68 56,76 56,60 72,52 		"/>
		<polygon fill="#CC291F" points="80,72 64,80 64,71 80,63 		"/>
		<polygon opacity="0.5" points="72,61 64,65 56,61 56,60 72,59 		"/>
	</g>
	<g>
		<polygon fill="#CC291F" points="16,72 0,80 0,71 16,63 		"/>
		<polygon opacity="0.39" points="16,72 0,80 0,71 16,63 		"/>
		<polygon fill="#CC291F" points="0,80 8,84 8,75 0,71 		"/>
	</g>
	<g>
		<polygon fill="#CC291F" points="16,104 0,112 0,103 16,95 		"/>
		<polygon opacity="0.39" points="16,104 0,112 0,103 16,95 		"/>
		<polygon fill="#CC291F" points="0,112 8,116 8,107 0,103 		"/>
	</g>
	<g>
		<g>
			<polygon fill="#E5E5E5" points="64,112 64,96 48,104 40,100 40,116 48,120 64,112 64,128 80,120 80,104 			"/>
			<polygon fill="#E5E5E5" points="0,96 8,100 8,84 0,80 			"/>
			<polygon fill="#E5E5E5" points="80,0 0,40 0,48 0,64 8,68 8,52 40,68 40,84 48,88 64,80 64,96 80,88 80,104 96,96 96,112 
				112,104 112,88 96,96 96,80 80,88 80,72 64,80 64,64 80,56 80,72 96,64 96,80 112,72 112,88 128,80 128,64 112,72 112,56 96,64 
				96,48 112,40 112,56 128,48 128,32 128,24 			"/>
		</g>
	</g>
	<g>
		<polygon fill="#E5E5E5" points="80,14 68,20 68,24 80,30 92,24 92,20 		"/>
		<polygon opacity="0.39" points="92,24 80,30 80,26 92,20 		"/>
		<polygon opacity="0.06" points="68,24 80,30 80,26 68,20 		"/>
	</g>
	<g>
		<polygon fill="#E5E5E5" points="48,30 36,36 36,40 48,46 60,40 60,36 		"/>
		<polygon opacity="0.39" points="60,40 48,46 48,42 60,36 		"/>
		<polygon opacity="0.06" points="36,40 48,46 48,42 36,36 		"/>
	</g>
	<polygon fill="#CC291F" points="8,116 40,132 40,68 8,52 	"/>
	<polygon opacity="0.06" points="48,88 48,64 0,40 0,64 8,68 8,75 0,71 0,96 8,100 8,107 0,103 0,112 48,136 48,127 
		40,123 40,116 48,120 48,95 40,91 40,84 	"/>
	<g>
		<g>
			<polygon fill="#FFFFFF" points="126,78 114,84 114,74 126,68 			"/>
			<polygon fill="#3399CC" points="125,77.5 115,82.5 115,74.5 125,69.5 			"/>
			<polygon opacity="0.15" fill="#FFFFFF" points="115,77.5 125,77.5 115,82.5 			"/>
		</g>
		<polygon opacity="0.5" fill="#FFFFFF" points="117,81.5 118,81 118,73 117,73.5 		"/>
		<polygon opacity="0.5" fill="#FFFFFF" points="122,79 123,78.5 123,70.5 122,71 		"/>
		<polygon opacity="0.15" points="125,72.5 115,77.5 115,74.5 125,69.5 		"/>
		<polygon opacity="0.15" points="115,74.5 125,69.5 125,70.5 115,75.5 		"/>
	</g>
	<g>
		<g>
			<polygon fill="#FFFFFF" points="110,102 98,108 98,98 110,92 			"/>
			<polygon fill="#3399CC" points="109,101.5 99,106.5 99,98.5 109,93.5 			"/>
			<polygon opacity="0.15" fill="#FFFFFF" points="99,101.5 109,101.5 99,106.5 			"/>
		</g>
		<polygon opacity="0.5" fill="#FFFFFF" points="101,105.5 102,105 102,97 101,97.5 		"/>
		<polygon opacity="0.5" fill="#FFFFFF" points="106,103 107,102.5 107,94.5 106,95 		"/>
		<polygon opacity="0.15" points="109,96.5 99,101.5 99,98.5 109,93.5 		"/>
		<polygon opacity="0.15" points="99,98.5 109,93.5 109,94.5 99,99.5 		"/>
	</g>
	<g>
		<g>
			<polygon fill="#FFFFFF" points="94,94 82,100 82,90 94,84 			"/>
			<polygon fill="#3399CC" points="93,93.5 83,98.5 83,90.5 93,85.5 			"/>
			<polygon opacity="0.15" fill="#FFFFFF" points="83,93.5 93,93.5 83,98.5 			"/>
		</g>
		<polygon opacity="0.5" fill="#FFFFFF" points="85,97.5 86,97 86,89 85,89.5 		"/>
		<polygon opacity="0.5" fill="#FFFFFF" points="90,95 91,94.5 91,86.5 90,87 		"/>
		<polygon opacity="0.15" points="93,88.5 83,93.5 83,90.5 93,85.5 		"/>
		<polygon opacity="0.15" points="83,90.5 93,85.5 93,86.5 83,91.5 		"/>
	</g>
	<g>
		<g>
			<polygon fill="#FFFFFF" points="78,118 66,124 66,114 78,108 			"/>
			<polygon fill="#3399CC" points="77,117.5 67,122.5 67,114.5 77,109.5 			"/>
			<polygon opacity="0.15" fill="#FFFFFF" points="67,117.5 77,117.5 67,122.5 			"/>
		</g>
		<polygon opacity="0.5" fill="#FFFFFF" points="69,121.5 70,121 70,113 69,113.5 		"/>
		<polygon opacity="0.5" fill="#FFFFFF" points="74,119 75,118.5 75,110.5 74,111 		"/>
		<polygon opacity="0.15" points="77,112.5 67,117.5 67,114.5 77,109.5 		"/>
		<polygon opacity="0.15" points="67,114.5 77,109.5 77,110.5 67,115.5 		"/>
	</g>
	<g>
		<g>
			<polygon fill="#FFFFFF" points="62,110 50,116 50,106 62,100 			"/>
			<polygon fill="#3399CC" points="61,109.5 51,114.5 51,106.5 61,101.5 			"/>
			<polygon opacity="0.15" fill="#FFFFFF" points="51,109.5 61,109.5 51,114.5 			"/>
		</g>
		<polygon opacity="0.5" fill="#FFFFFF" points="53,113.5 54,113 54,105 53,105.5 		"/>
		<polygon opacity="0.5" fill="#FFFFFF" points="58,111 59,110.5 59,102.5 58,103 		"/>
		<polygon opacity="0.15" points="61,104.5 51,109.5 51,106.5 61,101.5 		"/>
		<polygon opacity="0.15" points="51,106.5 61,101.5 61,102.5 51,107.5 		"/>
	</g>
	<g>
		<g>
			<polygon fill="#FFFFFF" points="126,46 114,52 114,42 126,36 			"/>
			<polygon fill="#3399CC" points="125,45.5 115,50.5 115,42.5 125,37.5 			"/>
			<polygon opacity="0.15" fill="#FFFFFF" points="115,45.5 125,45.5 115,50.5 			"/>
		</g>
		<polygon opacity="0.5" fill="#FFFFFF" points="117,49.5 118,49 118,41 117,41.5 		"/>
		<polygon opacity="0.5" fill="#FFFFFF" points="122,47 123,46.5 123,38.5 122,39 		"/>
		<polygon opacity="0.15" points="125,40.5 115,45.5 115,42.5 125,37.5 		"/>
		<polygon opacity="0.15" points="115,42.5 125,37.5 125,38.5 115,43.5 		"/>
	</g>
	<g>
		<g>
			<polygon fill="#FFFFFF" points="110,70 98,76 98,66 110,60 			"/>
			<polygon fill="#3399CC" points="109,69.5 99,74.5 99,66.5 109,61.5 			"/>
			<polygon opacity="0.15" fill="#FFFFFF" points="99,69.5 109,69.5 99,74.5 			"/>
		</g>
		<polygon opacity="0.5" fill="#FFFFFF" points="101,73.5 102,73 102,65 101,65.5 		"/>
		<polygon opacity="0.5" fill="#FFFFFF" points="106,71 107,70.5 107,62.5 106,63 		"/>
		<polygon opacity="0.15" points="109,64.5 99,69.5 99,66.5 109,61.5 		"/>
		<polygon opacity="0.15" points="99,66.5 109,61.5 109,62.5 99,67.5 		"/>
	</g>
	<g>
		<g>
			<polygon fill="#FFFFFF" points="94,62 82,68 82,58 94,52 			"/>
			<polygon fill="#3399CC" points="93,61.5 83,66.5 83,58.5 93,53.5 			"/>
			<polygon opacity="0.15" fill="#FFFFFF" points="83,61.5 93,61.5 83,66.5 			"/>
		</g>
		<polygon opacity="0.5" fill="#FFFFFF" points="85,65.5 86,65 86,57 85,57.5 		"/>
		<polygon opacity="0.5" fill="#FFFFFF" points="90,63 91,62.5 91,54.5 90,55 		"/>
		<polygon opacity="0.15" points="93,56.5 83,61.5 83,58.5 93,53.5 		"/>
		<polygon opacity="0.15" points="83,58.5 93,53.5 93,54.5 83,59.5 		"/>
	</g>
	<g>
		<g>
			<polygon fill="#FFFFFF" points="78,86 66,92 66,82 78,76 			"/>
			<polygon fill="#3399CC" points="77,85.5 67,90.5 67,82.5 77,77.5 			"/>
			<polygon opacity="0.15" fill="#FFFFFF" points="67,85.5 77,85.5 67,90.5 			"/>
		</g>
		<polygon opacity="0.5" fill="#FFFFFF" points="69,89.5 70,89 70,81 69,81.5 		"/>
		<polygon opacity="0.5" fill="#FFFFFF" points="74,87 75,86.5 75,78.5 74,79 		"/>
		<polygon opacity="0.15" points="77,80.5 67,85.5 67,82.5 77,77.5 		"/>
		<polygon opacity="0.15" points="67,82.5 77,77.5 77,78.5 67,83.5 		"/>
	</g>
	<g>
		<g>
			<polygon fill="#FFFFFF" points="62,78 50,84 50,74 62,68 			"/>
			<polygon fill="#3399CC" points="61,77.5 51,82.5 51,74.5 61,69.5 			"/>
			<polygon opacity="0.15" fill="#FFFFFF" points="51,77.5 61,77.5 51,82.5 			"/>
		</g>
		<polygon opacity="0.5" fill="#FFFFFF" points="53,81.5 54,81 54,73 53,73.5 		"/>
		<polygon opacity="0.5" fill="#FFFFFF" points="58,79 59,78.5 59,70.5 58,71 		"/>
		<polygon opacity="0.15" points="61,72.5 51,77.5 51,74.5 61,69.5 		"/>
		<polygon opacity="0.15" points="51,74.5 61,69.5 61,70.5 51,75.5 		"/>
	</g>
	<path opacity="0.39" d="M48,64v24l16-8v7l-16,8v25l16-8v7l-16,8v9l80-40v-9l-16,8v-7v0l16-8V55l-16,8v-7v0l16-8V24L48,64z M80,56v7
		l-16,8v-7L80,56z M80,72L80,72l16-8v7l-16,8V72z M64,96l16-8v7l-16,8V96L64,96z M96,103l-16,8v-7v0l16-8V103z M112,79l-16,8v-7v0
		l16-8V79z M112,47l-16,8v-7l16-8V47z"/>
</g>
</svg>
