<?xml version="1.0" encoding="utf-8"?>
<!-- Generator: Adobe Illustrator 18.1.0, SVG Export Plug-In . SVG Version: 6.00 Build 0)  -->
<svg version="1.1" id="Layer_1" xmlns="http://www.w3.org/2000/svg" xmlns:xlink="http://www.w3.org/1999/xlink" x="0px" y="0px"
	 viewBox="0 0 80 56" enable-background="new 0 0 80 56" xml:space="preserve">
<polygon opacity="0.3" points="4,25.4 18,18.4 72,45.4 58,52.4 "/>
<g>
	<path fill="#2D3134" d="M5.1,9.5L4.6,9.8c-0.8,0.5-1.5,1.3-1.9,2.2C2.4,12.7,2,13.3,2,14.1l0,1.1c0,0.4,0.3,0.8,0.6,1
		c0.3,0.2,0.6,0,0.6-0.3l0-1.7c0-0.2-0.1-0.4-0.1-0.5c-0.2-0.3-0.4-0.7-0.2-1.1c0.4-1.1,1.2-2.1,2.1-2.6l0.3-0.2
		C5.3,9.7,5.2,9.5,5.1,9.5L5.1,9.5z"/>
</g>
<polygon fill="#2D3134" points="13.6,27.8 16.2,26.5 16.2,25.1 13.6,25.1 "/>
<polygon opacity="0.39" points="13.6,27.8 16.2,26.5 16.2,25.1 13.6,25.1 "/>
<polygon fill="#2D3134" points="41.6,41.8 44.2,40.5 44.2,39.1 41.6,39.1 "/>
<polygon opacity="0.39" points="41.6,41.8 44.2,40.5 44.2,39.1 41.6,39.1 "/>
<g>
	<path fill="#2D3134" d="M18.2,25.4c-0.7-0.4-1.4-0.4-1.9-0.2l0,0l-1.4,0.7l0,0c-0.5,0.2-0.9,0.8-0.9,1.6c0,1.5,1.3,3.4,2.8,4.2
		c0.8,0.4,1.5,0.4,2,0.2c0,0,1.4-0.7,1.5-0.8c0.5-0.3,0.7-0.8,0.7-1.5C21,28,19.7,26.1,18.2,25.4z"/>
	<path opacity="0.39" d="M18.8,31.8c0.2-0.1,1.4-0.7,1.5-0.7c0.5-0.3,0.7-0.8,0.7-1.5c0-0.6-0.2-1.3-0.5-1.9l-1.4,0.7
		c0.3,0.6,0.5,1.3,0.5,1.9C19.6,31,19.3,31.6,18.8,31.8z"/>
	<path fill="#A9ABB0" d="M18.9,29.9c0,1.2-0.9,1.6-2.1,1c-1.2-0.6-2.1-2-2.1-3.2c0-1.2,0.9-1.6,2.1-1C18,27.3,18.9,28.7,18.9,29.9z"
		/>
	<path fill="#808285" d="M17,30.9c-1.2-0.6-2.1-2-2.1-3.2c0-0.6,0.2-1,0.6-1.2c-0.5,0.1-0.8,0.6-0.8,1.2c0,1.2,0.9,2.6,2.1,3.2
		c0.6,0.3,1.1,0.3,1.5,0.1C17.9,31.2,17.5,31.1,17,30.9z"/>
	<path fill="#2D3134" d="M17.9,29.2c0,0.5-0.4,0.7-0.9,0.4s-0.9-0.8-0.9-1.3c0-0.5,0.4-0.7,0.9-0.4S17.9,28.7,17.9,29.2z"/>
	<path opacity="0.39" d="M17.9,29.2c0,0.5-0.4,0.7-0.9,0.4s-0.9-0.8-0.9-1.3c0-0.5,0.4-0.7,0.9-0.4S17.9,28.7,17.9,29.2z"/>
	<path fill="#2D3134" d="M17.7,29.3c0,0.5-0.4,0.7-0.9,0.4c-0.5-0.2-0.9-0.8-0.9-1.3s0.4-0.7,0.9-0.4C17.3,28.2,17.7,28.8,17.7,29.3
		z"/>
	<path opacity="0.06" d="M19.6,30.3c0,1.5-1.3,2.2-2.8,1.4C15.3,30.9,14,29,14,27.5c0-1.5,1.3-2.2,2.8-1.4
		C18.3,26.8,19.6,28.7,19.6,30.3z"/>
</g>
<g>
	<path fill="#2D3134" d="M46.2,39.3c-0.7-0.4-1.4-0.4-1.9-0.2l0,0l-1.4,0.7l0,0c-0.5,0.2-0.9,0.8-0.9,1.6c0,1.5,1.3,3.4,2.8,4.2
		c0.8,0.4,1.5,0.4,2,0.2c0,0,1.4-0.7,1.5-0.8c0.5-0.3,0.7-0.8,0.7-1.5C49,42,47.7,40.1,46.2,39.3z"/>
	<path opacity="0.39" d="M46.8,45.8c0.2-0.1,1.4-0.7,1.5-0.7c0.5-0.3,0.7-0.8,0.7-1.5c0-0.6-0.2-1.3-0.5-1.9l-1.4,0.7
		c0.3,0.6,0.5,1.3,0.5,1.9C47.6,45,47.3,45.5,46.8,45.8z"/>
	<path fill="#A9ABB0" d="M46.9,43.9c0,1.2-0.9,1.6-2.1,1s-2.1-2-2.1-3.2s0.9-1.6,2.1-1S46.9,42.7,46.9,43.9z"/>
	<path fill="#808285" d="M45,44.8c-1.2-0.6-2.1-2-2.1-3.2c0-0.6,0.2-1,0.6-1.2c-0.5,0.1-0.8,0.6-0.8,1.2c0,1.2,0.9,2.6,2.1,3.2
		c0.6,0.3,1.1,0.3,1.5,0.1C45.9,45.1,45.5,45.1,45,44.8z"/>
	<path fill="#2D3134" d="M45.8,43.2c0,0.5-0.4,0.7-0.9,0.4c-0.5-0.2-0.9-0.8-0.9-1.3c0-0.5,0.4-0.7,0.9-0.4
		C45.5,42.1,45.8,42.7,45.8,43.2z"/>
	<path opacity="0.39" d="M45.8,43.2c0,0.5-0.4,0.7-0.9,0.4c-0.5-0.2-0.9-0.8-0.9-1.3c0-0.5,0.4-0.7,0.9-0.4
		C45.5,42.1,45.8,42.7,45.8,43.2z"/>
	<path fill="#2D3134" d="M45.7,43.3c0,0.5-0.4,0.7-0.9,0.4c-0.5-0.2-0.9-0.8-0.9-1.3s0.4-0.7,0.9-0.4C45.3,42.2,45.7,42.8,45.7,43.3
		z"/>
	<path opacity="0.06" d="M47.6,44.2c0,1.5-1.3,2.2-2.8,1.4S42,43,42,41.4s1.3-2.2,2.8-1.4S47.6,42.7,47.6,44.2z"/>
</g>
<path fill="#CC291F" d="M21,2.5c-1.1-0.6-2.4-0.4-3.3,0.1c-0.1,0-11.8,5.9-12,6.1C4.9,9.3,4,11.6,4,12.7V21l0,0l0,0l10.1,5
	c0.3-0.4,0.9-0.7,1.5-0.7c0.5,0,0.9,0.1,1.4,0.4c1.2,0.6,2.3,1.9,2.8,3.2L42,40c0.3-0.5,0.9-0.7,1.5-0.7c0.5,0,0.9,0.1,1.4,0.4
	c1.3,0.6,2.3,1.9,2.8,3.2L60,49v0l0,0l12-6V28L21,2.5z"/>
<polygon fill="#262626" points="60,51 72,45 72,43 60,49 "/>
<polygon opacity="0.2" points="30,22.5 12,13.5 30,26.4 "/>
<g>
	<path opacity="0.3" d="M4.8,17v-4.4c0-0.8,0.4-1.5,1.1-1.8l0.3-0.1v7L4.8,17z"/>
	<path fill="#656565" d="M5,12.6v4.3l1,0.5V11h0C5.4,11.3,5,11.9,5,12.6z"/>
</g>
<path opacity="0.3" d="M7,9.5v13l4,2v-13L7,9.5z M10.8,24.2l-3.6-1.8V9.8l3.6,1.8V24.2z"/>
<polygon opacity="0.3" points="7.8,18.1 7.8,11.6 10.2,12.8 10.2,19.3 "/>
<polygon fill="#656565" points="8,12 10,13 10,19 8,18 "/>
<polygon opacity="0.3" points="8.2,17.9 8.2,12.1 8,12 8,18 10,19 10,18.8 "/>
<g>
	<polygon opacity="0.3" points="11.8,20.6 11.8,13.2 59.2,36.9 59.2,44.3 	"/>
	<polygon fill="#656565" points="59,37 12,13.5 12,20.5 59,44 	"/>
	<polygon opacity="0.1" points="12,15.3 12,20.5 43.9,36.4 	"/>
	<polygon opacity="0.2" points="59,37 12,13.5 59,40.4 	"/>
	<polygon opacity="0.3" points="12.2,20.4 12.2,13.6 12,13.5 12,20.5 59,44 59,43.8 	"/>
</g>
<polygon fill="#FF9900" points="4,20 5,20.5 5,19.5 4,19 "/>
<polygon fill="#999999" points="64,45.6 64,46.6 69,44.1 69,43.1 "/>
<g>
	<polygon opacity="0.1" fill="#FFFFFF" points="64,26.8 58,29.8 48,24.8 54,21.8 	"/>
	<polygon opacity="0.06" points="58,30 58,29.8 48,24.8 48,25 	"/>
	<polygon opacity="0.39" points="58,30 58,29.8 64,26.8 64,27 	"/>
</g>
<g>
	<polygon opacity="0.1" fill="#FFFFFF" points="36,12.8 30,15.8 20,10.8 26,7.8 	"/>
	<polygon opacity="0.06" points="30,16 30,15.8 20,10.8 20,11 	"/>
	<polygon opacity="0.39" points="30,16 30,15.8 36,12.8 36,13 	"/>
</g>
<polygon opacity="0.3" points="60,44 72,38 72,37.8 60,43.8 "/>
<polygon opacity="0.15" fill="#FFFFFF" points="60,44.2 72,38.2 72,38 60,44 "/>
<g>
	<polygon opacity="0.3" points="60,46.2 11,21.7 11,21.5 60,46 	"/>
	<polygon opacity="0.15" fill="#FFFFFF" points="60,46.4 11,21.9 11,21.7 60,46.2 	"/>
</g>
<path fill="#262626" d="M13.6,27.5c0-0.6,0.2-1.1,0.5-1.4L4,21v2l9.6,4.8C13.6,27.7,13.6,27.6,13.6,27.5z"/>
<g>
	<path fill="#262626" d="M41.6,41.4c0-0.6,0.2-1.1,0.4-1.4L19.7,28.9c0.2,0.5,0.3,0.9,0.3,1.4c0,0.2,0,0.5-0.1,0.7l21.7,10.8
		C41.6,41.7,41.6,41.6,41.6,41.4z"/>
	<path fill="#262626" d="M47.8,42.9c0.2,0.5,0.2,0.9,0.2,1.4c0,0.3,0,0.5-0.1,0.7L60,51v-2L47.8,42.9z"/>
</g>
<polygon opacity="0.5" points="4.8,17 4.8,16 6.2,16.7 6.2,17.7 "/>
<polygon fill="#FF9900" points="62,47 61,47.5 61,46.5 62,46 "/>
<polygon fill="#999999" points="62,46 61,46.5 61,45.5 62,45 "/>
<polygon opacity="0.3" points="60.8,36.6 71.2,31.4 71.2,37.2 60.8,42.4 "/>
<polygon fill="#FF9900" points="62,45 61,45.5 61,44.5 62,44 "/>
<polygon fill="#FF9900" points="71,42.5 70,43 70,42 71,41.5 "/>
<polygon fill="#999999" points="71,41.5 70,42 70,41 71,40.5 "/>
<polygon fill="#FF9900" points="71,40.5 70,41 70,40 71,39.5 "/>
<polygon fill="#656565" points="61,36.7 71,31.7 71,37.1 61,42.1 "/>
<polygon opacity="0.5" points="60.8,42.4 60.8,41.4 71.2,36.2 71.2,37.2 "/>
<polygon opacity="0.2" points="60.8,36.6 71.2,31.4 71.2,35.6 "/>
<polygon opacity="0.39" points="60,51 72,45 72,28 60,34 "/>
<path opacity="0.06" d="M4,12.7V23l9.6,4.8c0-0.1,0-0.2,0-0.3c0-0.6,0.2-1.1,0.5-1.4c0.3-0.4,0.9-0.7,1.5-0.7
	c0.5,0,0.9,0.1,1.4,0.4c1.2,0.6,2.3,1.9,2.8,3.2l0,0c0.2,0.5,0.3,0.9,0.3,1.4c0,0.2,0,0.5-0.1,0.7l21.7,10.8c0-0.1,0-0.3,0-0.4
	c0-0.6,0.2-1.1,0.4-1.4l0,0c0.3-0.5,0.9-0.7,1.5-0.7c0.5,0,0.9,0.1,1.4,0.4c1.3,0.6,2.3,1.9,2.8,3.2c0.2,0.5,0.2,0.9,0.2,1.4
	c0,0.3,0,0.5-0.1,0.7L60,51V34L9,8.5C7.7,7.9,6.9,8,5.7,8.7C4.9,9.3,4,11.6,4,12.7z"/>
</svg>
