<?xml version="1.0" encoding="utf-8"?>
<!-- Generator: Adobe Illustrator 18.1.0, SVG Export Plug-In . SVG Version: 6.00 Build 0)  -->
<svg version="1.1" id="Layer_1" xmlns="http://www.w3.org/2000/svg" xmlns:xlink="http://www.w3.org/1999/xlink" x="0px" y="0px"
	 viewBox="0 0 32 48" enable-background="new 0 0 32 48" xml:space="preserve">
<g>
	<g>
		<ellipse opacity="0.3" cx="15.5" cy="39" rx="5.6" ry="3"/>
		<path fill="#825012" d="M16,26L16,26c0.6,0,1,0.4,1,1v12c0,0.6-0.4,1-1,1h0c-0.6,0-1-0.4-1-1V27C15,26.4,15.4,26,16,26z"/>
		<path fill="#539B00" d="M17.5,36L17.5,36c-1.4,0-2.5-1.1-2.5-2.5v-16c0-1.4,1.1-2.5,2.5-2.5h0c1.4,0,2.5,1.1,2.5,2.5v16
			C20,34.9,18.9,36,17.5,36z"/>
		<path fill="#539B00" d="M20.5,31L20.5,31c-1.4,0-2.5-1.1-2.5-2.5v-16c0-1.4,1.1-2.5,2.5-2.5h0c1.4,0,2.5,1.1,2.5,2.5v16
			C23,29.9,21.9,31,20.5,31z"/>
		<path fill="#539B00" d="M19.5,28L19.5,28c-1.4,0-2.5-1.1-2.5-2.5v-16C17,8.1,18.1,7,19.5,7h0C20.9,7,22,8.1,22,9.5v16
			C22,26.9,20.9,28,19.5,28z"/>
		<path fill="#539B00" d="M17.2,1C15.9,1.1,15,2.3,15,3.6c0,0.3-0.2,0.5-0.5,0.4c-0.5-0.1-1-0.1-1.6,0.2C11.7,4.7,11,6,11,7.3l0,1.3
			C11,8.8,10.8,9,10.6,9c-0.2,0-0.4,0-0.6,0.1C8.8,9.3,8,10.4,8,11.6l0,15.8c0,0.8,0.4,1.6,1,2.1c0.6,0.5,1,1.3,1,2.1v0.9
			c0,1.4,1.1,2.5,2.5,2.5h1c1.4,0,2.5-1.1,2.5-2.5v-5.1c0.6-0.6,1-1.5,1-2.4v-8.1c0.3,0.1,0.6,0.1,1,0c1.2-0.2,2-1.4,2-2.6l0-10.9
			C20,2,18.7,0.8,17.2,1z"/>
		<path fill="#539B00" d="M16,27.4c0.6-0.6,1-1.5,1-2.4v-2c0,0.9-0.4,1.8-1,2.4V27.4z"/>
		<g opacity="0.3">
			<path d="M17.5,34c-1.1,0-2-0.7-2.3-1.6c-0.4,0.4-1,0.6-1.7,0.6h-1c-1.4,0-2.5-1.1-2.5-2.5v2c0,1.4,1.1,2.5,2.5,2.5h1
				c0.6,0,1.2-0.2,1.7-0.6c0.4,1,1.3,1.6,2.3,1.6c1.4,0,2.5-1.1,2.5-2.5v-2C20,32.9,18.9,34,17.5,34z"/>
			<path d="M20.5,29c-0.2,0-0.3,0-0.5-0.1v2c0.2,0,0.3,0.1,0.5,0.1c1.4,0,2.5-1.1,2.5-2.5v-2C23,27.9,21.9,29,20.5,29z"/>
		</g>
		<g opacity="0.3">
			<path d="M17.5,25h-1c0,0,0,0,0,0c-0.5,0.6-1.2,1-2,1c-1.4,0-2.5-1.1-2.5-2.5v2c0,1.4,1.1,2.5,2.5,2.5c0.8,0,1.5-0.4,2-1
				c0,0,0,0,0,0h1c1.4,0,2.5-1.1,2.5-2.5v-2C20,23.9,18.9,25,17.5,25z"/>
			<path d="M17.5,17c-0.2,0-0.3,0-0.5-0.1v2c0.2,0,0.3,0.1,0.5,0.1c1.4,0,2.5-1.1,2.5-2.5v-2C20,15.9,18.9,17,17.5,17z"/>
		</g>
		<path opacity="0.2" fill="#FFFFFF" d="M17,6c-1.1,0-2,0.9-2,2v0.3c-0.1,0-0.3,0-0.4,0h-0.8c-1.1,0-2,0.9-2,2v1.4
			c-0.9,0.2-1.6,1-1.6,2v2c0-1,0.7-1.8,1.6-2v-1.4c0-1.1,0.9-2,2-2h0.8c0.1,0,0.3,0,0.4,0V10c0-1.1,0.9-2,2-2s2,0.9,2,2V8
			C19,6.9,18.1,6,17,6z"/>
		<path opacity="0.3" d="M10,30.5v-0.9c0-0.8-0.3-1.6-1-2.1c-0.6-0.5-1-1.3-1-2.1v2c0,0.8,0.4,1.6,1,2.1c0.6,0.5,1,1.3,1,2.1V30.5z"
			/>
	</g>
</g>
</svg>
