<?xml version="1.0" encoding="utf-8"?>
<!-- Generator: Adobe Illustrator 18.1.0, SVG Export Plug-In . SVG Version: 6.00 Build 0)  -->
<svg version="1.1" id="Layer_1" xmlns="http://www.w3.org/2000/svg" xmlns:xlink="http://www.w3.org/1999/xlink" x="0px" y="0px"
	 viewBox="0 0 48 32" enable-background="new 0 0 48 32" xml:space="preserve">
<g>
	<path fill="#CC291F" d="M35,8l1.2-0.4c0.2-0.1,0.4,0,0.5,0.1v0c0.2,0.2,0.2,0.4,0,0.6L36.3,9L35,8z"/>
	<path opacity="0.39" d="M35,8l1.2-0.4c0.2-0.1,0.4,0,0.5,0.1v0c0.2,0.2,0.2,0.4,0,0.6L36.3,9"/>
	<polygon opacity="0.3" fill="#262626" points="30,26 44,19 18,6 4,13 	"/>
	<polygon fill="#2D3134" points="30.5,21.8 42,16.3 17,3.7 5.5,9.2 	"/>
	<g>
		<path fill="#2D3134" d="M26.1,16.1c-0.8-0.4-1.5-0.4-2-0.2l0,0l-1.1,0.6l0,0c-0.6,0.3-0.9,0.8-0.9,1.7c0,1.6,1.3,3.6,2.9,4.4
			c0.8,0.4,1.5,0.4,2.1,0.2c0,0,1.1-0.6,1.2-0.7c0.5-0.3,0.8-0.8,0.8-1.6C29,18.9,27.7,17,26.1,16.1z"/>
		<path opacity="0.39" d="M27,22.8c0.2-0.1,1.1-0.6,1.2-0.6c0.5-0.3,0.8-0.8,0.8-1.6c0-0.7-0.2-1.4-0.6-2l-1.1,0.6
			c0.4,0.7,0.6,1.4,0.6,2C27.9,22,27.6,22.5,27,22.8z"/>
		<path fill="#C4C6CC" d="M24.9,17.5c-1.2-0.6-2.2-0.1-2.2,1.1c0,1.2,1,2.7,2.2,3.3s2.2,0.1,2.2-1.1C27.2,19.6,26.2,18.1,24.9,17.5z
			 M26.4,19c0.2,0.3,0.3,0.6,0.1,0.7c-0.1,0.1-0.8,0-1.1-0.1c0-0.1-0.1-0.1-0.1-0.2c0.1-0.3,0.3-0.8,0.5-0.9
			C25.9,18.4,26.2,18.6,26.4,19z M24.9,17.7c0.3,0.2,0.6,0.4,0.6,0.6c0,0.2-0.3,0.7-0.5,0.9c0,0-0.1,0-0.1-0.1c0,0-0.1,0-0.1,0
			c-0.2-0.4-0.5-1.1-0.5-1.3C24.4,17.5,24.6,17.5,24.9,17.7z M23.5,17.5c0.2-0.1,0.5-0.1,0.7,0.2c0.1,0.2,0.4,1,0.5,1.3
			c-0.1,0-0.1,0-0.1,0.1c-0.3-0.3-1-0.8-1.1-1C23.2,17.8,23.3,17.6,23.5,17.5z M22.9,18.7c0-0.3,0.1-0.5,0.4-0.4
			c0.2,0.1,0.8,0.7,1.1,1c0,0,0,0.1,0,0.1s0,0.1,0,0.1c-0.3,0-0.9,0-1.1-0.1C23,19.3,22.9,19,22.9,18.7z M23.5,20.4
			c-0.2-0.3-0.3-0.6-0.1-0.7c0.1-0.1,0.8,0,1.1,0.1c0,0.1,0.1,0.1,0.1,0.2c-0.1,0.3-0.3,0.8-0.5,0.9C24,21,23.7,20.7,23.5,20.4z
			 M24.9,21.7c-0.3-0.2-0.6-0.4-0.6-0.6c0-0.2,0.3-0.7,0.5-0.9c0,0,0.1,0,0.1,0.1c0,0,0.1,0,0.1,0c0.2,0.4,0.5,1.1,0.5,1.3
			C25.5,21.9,25.3,21.9,24.9,21.7z M26.4,21.8c-0.2,0.1-0.5,0.1-0.7-0.2c-0.1-0.2-0.4-1-0.5-1.3c0.1,0,0.1,0,0.1-0.1
			c0.3,0.3,1,0.8,1.1,1C26.7,21.5,26.6,21.7,26.4,21.8z M26.6,21.1c-0.2-0.1-0.8-0.7-1.1-1c0,0,0-0.1,0-0.1s0-0.1,0-0.1
			c0.3,0,0.9,0,1.1,0.1c0.3,0.1,0.4,0.4,0.4,0.7C27,21,26.9,21.2,26.6,21.1z"/>
		<path opacity="0.06" d="M25.1,21.8c-1.2-0.6-2.2-2.1-2.2-3.3c0-0.6,0.2-1,0.6-1.2c-0.5,0.2-0.8,0.6-0.8,1.3
			c0,1.2,1,2.7,2.2,3.3c0.6,0.3,1.2,0.3,1.6,0.1C26.1,22.1,25.7,22.1,25.1,21.8z"/>
		<path opacity="0.06" d="M27.9,21.2c0,1.6-1.3,2.3-2.9,1.5c-1.6-0.8-2.9-2.8-2.9-4.4s1.3-2.3,2.9-1.5
			C26.6,17.5,27.9,19.5,27.9,21.2z"/>
	</g>
	<g>
		<path fill="#2D3134" d="M11.1,8.7c-0.8-0.4-1.5-0.4-2-0.2l0,0L7.9,9.1l0,0C7.4,9.3,7,9.9,7,10.7c0,1.6,1.3,3.6,2.9,4.4
			c0.8,0.4,1.5,0.4,2.1,0.2c0,0,1.1-0.6,1.2-0.7c0.5-0.3,0.8-0.8,0.8-1.6C14,11.5,12.7,9.5,11.1,8.7z"/>
		<path opacity="0.39" d="M12,15.3c0.2-0.1,1.1-0.6,1.2-0.6c0.5-0.3,0.8-0.8,0.8-1.6c0-0.7-0.2-1.4-0.6-2l-1.1,0.6
			c0.4,0.7,0.6,1.4,0.6,2C12.9,14.5,12.6,15.1,12,15.3z"/>
		<path fill="#C4C6CC" d="M9.9,10c-1.2-0.6-2.2-0.1-2.2,1.1c0,1.2,1,2.7,2.2,3.3s2.2,0.1,2.2-1.1C12.2,12.1,11.2,10.6,9.9,10z
			 M11.4,11.5c0.2,0.3,0.3,0.6,0.1,0.7c-0.1,0.1-0.8,0-1.1-0.1c0-0.1-0.1-0.1-0.1-0.2c0.1-0.3,0.3-0.8,0.5-0.9
			C10.9,10.9,11.2,11.2,11.4,11.5z M9.9,10.2c0.3,0.2,0.6,0.4,0.6,0.6c0,0.2-0.3,0.7-0.5,0.9c0,0-0.1,0-0.1-0.1c0,0-0.1,0-0.1,0
			c-0.2-0.4-0.5-1.1-0.5-1.3C9.4,10,9.6,10,9.9,10.2z M8.5,10.1C8.7,10,9,10,9.2,10.3c0.1,0.2,0.4,1,0.5,1.3c-0.1,0-0.1,0-0.1,0.1
			c-0.3-0.3-1-0.8-1.1-1C8.2,10.4,8.3,10.2,8.5,10.1z M7.9,11.2c0-0.3,0.1-0.5,0.4-0.4c0.2,0.1,0.8,0.7,1.1,1c0,0,0,0.1,0,0.1
			c0,0,0,0.1,0,0.1c-0.3,0-0.9,0-1.1-0.1C8,11.8,7.9,11.5,7.9,11.2z M8.5,12.9c-0.2-0.3-0.3-0.6-0.1-0.7c0.1-0.1,0.8,0,1.1,0.1
			c0,0.1,0.1,0.1,0.1,0.2c-0.1,0.3-0.3,0.8-0.5,0.9C9,13.5,8.7,13.2,8.5,12.9z M9.9,14.2c-0.3-0.2-0.6-0.4-0.6-0.6
			c0-0.2,0.3-0.7,0.5-0.9c0,0,0.1,0,0.1,0.1c0,0,0.1,0,0.1,0c0.2,0.4,0.5,1.1,0.5,1.3C10.5,14.4,10.3,14.4,9.9,14.2z M11.4,14.4
			c-0.2,0.1-0.5,0.1-0.7-0.2c-0.1-0.2-0.4-1-0.5-1.3c0.1,0,0.1,0,0.1-0.1c0.3,0.3,1,0.8,1.1,1C11.7,14.1,11.6,14.3,11.4,14.4z
			 M11.6,13.6c-0.2-0.1-0.8-0.7-1.1-1c0,0,0-0.1,0-0.1c0,0,0-0.1,0-0.1c0.3,0,0.9,0,1.1,0.1c0.3,0.1,0.4,0.4,0.4,0.7
			S11.9,13.7,11.6,13.6z"/>
		<path opacity="0.06" d="M10.1,14.3c-1.2-0.6-2.2-2.1-2.2-3.3c0-0.6,0.2-1,0.6-1.2c-0.5,0.2-0.8,0.6-0.8,1.3
			c0,1.2,1,2.7,2.2,3.3c0.6,0.3,1.2,0.3,1.6,0.1C11.1,14.7,10.7,14.6,10.1,14.3z"/>
		<path opacity="0.06" d="M12.9,13.7c0,1.6-1.3,2.3-2.9,1.5S7,12.4,7,10.7s1.3-2.3,2.9-1.5C11.6,10.1,12.9,12.1,12.9,13.7z
			"/>
	</g>
	<path fill="#CC291F" d="M37.3,10L32,4l-8-4l-5.8,0.5l-3.8-0.3l-9,4.5v4l1.1,0.7C7,8.3,8.4,7.9,9.9,8.7c1.8,0.9,3.2,2.9,3.5,4.7
		l8,4.1c0.2-1.7,1.7-2.3,3.5-1.4c1.8,0.9,3.3,3,3.5,4.9l4,1.7L43,17.5v-4L37.3,10z"/>
	<polygon fill="#3399CC" points="22.8,9.2 32,4.5 36.6,9.8 27.4,14.4 	"/>
	<polygon fill="#2D3134" points="36.3,9.5 27.1,14.1 27.4,14.4 36.6,9.8 	"/>
	<polygon opacity="0.15" points="24.8,8.2 32,4.5 36.6,9.8 	"/>
	<polygon fill="#3399CC" points="19,0.8 22,0.5 13.9,4.5 10.8,4.8 	"/>
	<polygon opacity="0.39" fill="#FFFFFF" points="18.9,2 13.9,4.5 10.8,4.8 	"/>
	<path fill="#FFFFFF" d="M43,14v1.8l-1.5,0.7v-0.8c0-0.3,0.1-0.6,0.3-0.9v0c0.2-0.2,0.4-0.4,0.6-0.5L43,14z"/>
	<path fill="#FFFFFF" d="M32.5,19.3l1.1-0.5c0.2-0.1,0.5-0.1,0.7,0.1v0c0.1,0.1,0.2,0.3,0.2,0.4V20l-2,1V19.3z"/>
	<polygon fill="#FFCC00" points="32.5,19.3 32,19 32,20.8 32.5,21 	"/>
	
		<ellipse transform="matrix(-0.6313 0.7756 -0.7756 -0.6313 70.2325 6.0406)" opacity="0.39" fill="#2D3134" cx="33.7" cy="19.7" rx="0.6" ry="0.4"/>
	
		<ellipse transform="matrix(-0.6313 0.7756 -0.7756 -0.6313 69.6122 6.3356)" opacity="0.39" fill="#2D3134" cx="33.3" cy="19.7" rx="0.6" ry="0.4"/>
	
		<ellipse transform="matrix(-0.6313 0.7756 -0.7756 -0.6313 81.0162 -8.0862)" opacity="0.39" fill="#2D3134" cx="42.4" cy="15.2" rx="0.6" ry="0.4"/>
	
		<ellipse transform="matrix(-0.6313 0.7756 -0.7756 -0.6313 80.5897 -7.3835)" opacity="0.39" fill="#2D3134" cx="42.1" cy="15.5" rx="0.6" ry="0.4"/>
	<polygon fill="#2D3134" points="35.5,18.3 40.5,15.8 40.5,17 35.5,19.5 	"/>
	<polygon fill="#FF9900" points="6,5.5 5.5,5.3 5.5,6.5 6,6.8 	"/>
	<polygon fill="#3399CC" points="17.3,10.3 26.3,14.8 21.7,9.4 17.3,7.2 	"/>
	<polygon fill="#3399CC" points="16.5,6.9 14.3,5.8 9.8,6.5 16.5,9.9 	"/>
	<polygon opacity="0.15" points="17.8,10.3 17.8,7.5 17.3,7.2 17.3,10.3 26.3,14.8 25.9,14.3 	"/>
	<polygon opacity="0.15" points="10.3,6.5 14.4,5.8 14.3,5.8 9.8,6.5 16.5,9.9 16.5,9.6 	"/>
	<path opacity="0.06" d="M27.3,15L22,9l-8.3-4L8.3,5.5L5.5,4.8v4l1.1,0.7C7,8.3,8.4,7.9,9.9,8.7c1.8,0.9,3.2,2.9,3.5,4.7
		l0.2,0.1l7.8,4.1c0.2-1.7,1.7-2.3,3.5-1.4c1.8,0.9,3.3,3,3.5,4.9l4,1.7v-4L27.3,15z"/>
	<g>
		<polygon fill="#CC291F" points="5.3,7.8 6.3,8.3 6.3,9.8 5.3,9.3 		"/>
		<polygon opacity="0.39" points="5.3,7.8 6.3,8.3 6.3,9.8 5.3,9.3 		"/>
		<polygon fill="#CC291F" points="6.3,8.3 6.3,9.8 6.5,9.5 6.5,8 5.5,7.5 5.3,7.8 		"/>
	</g>
	<g>
		<polygon fill="#CC291F" points="32.3,23 43.8,17.3 43.8,16.3 32.3,22 31.3,21.5 31.3,22.5 		"/>
		<polygon opacity="0.39" points="32.3,23 43.8,17.3 43.8,16.3 32.3,22 31.3,21.5 31.3,22.5 		"/>
		<polygon fill="#CC291F" points="32.3,21.5 43.3,16 43.8,16.3 32.3,22 31.3,21.5 31.8,21.3 		"/>
	</g>
	<polygon opacity="0.39" fill="#FFFFFF" points="32.5,19.3 34.5,20 32.5,21 	"/>
	<polygon opacity="0.39" fill="#FFFFFF" points="43,14 43,15.8 41.5,16.5 	"/>
	<path fill="#CC291F" d="M25.8,14.5l-1-1.4c-0.2-0.2-0.4-0.3-0.7-0.3l-1.2,0.1c-0.2,0-0.4,0.2-0.4,0.4v0c0,0.2,0.2,0.4,0.4,0.4
		l1.4,0.2L25.8,14.5z"/>
	<path opacity="0.39" d="M25.8,14.5l-1-1.4c-0.2-0.2-0.4-0.3-0.7-0.3l-1.2,0.1c-0.2,0-0.4,0.2-0.4,0.4v0c0,0.2,0.2,0.4,0.4,0.4
		l1.4,0.2L25.8,14.5z"/>
	<path d="M29.7,11.9c0,0.1,0.1,0.1,0.2,0.1l4.5-1.2c0.1,0,0.1-0.1,0.1-0.2c0-0.1-0.1-0.1-0.2-0.1l-4.5,1.2
		C29.7,11.7,29.7,11.8,29.7,11.9z"/>
	<path d="M27.2,13.2c0,0.1,0.1,0.1,0.2,0.1l4.5-1.2c0.1,0,0.1-0.1,0.1-0.2c0-0.1-0.1-0.1-0.2-0.1L27.3,13
		C27.2,13,27.2,13.1,27.2,13.2z"/>
	<path opacity="0.5" d="M35.3,10.4c0.1-0.6,0-1.2-0.4-1.5c-0.7-0.5-1.8-0.2-2.6,0.8c-0.7,0.8-0.9,1.8-0.5,2.4l0.7-0.3
		c-0.3-0.4-0.2-1.2,0.3-1.8c0.6-0.7,1.4-1,1.9-0.6c0.3,0.2,0.3,0.7,0.1,1.2L35.3,10.4z"/>
	<polygon opacity="0.39" points="37.3,10 27.3,15 22,9 32,4 	"/>
	<polygon opacity="0.39" points="43,13.5 32.5,18.8 32.5,21.3 43,16.1 	"/>
</g>
</svg>
