<?xml version="1.0" encoding="utf-8"?>
<!-- Generator: Adobe Illustrator 18.1.0, SVG Export Plug-In . SVG Version: 6.00 Build 0)  -->
<svg version="1.1" id="Layer_1" xmlns="http://www.w3.org/2000/svg" xmlns:xlink="http://www.w3.org/1999/xlink" x="0px" y="0px"
	 viewBox="0 0 480 400" enable-background="new 0 0 480 400" xml:space="preserve">
<polygon opacity="0.3" fill="#262626" points="330,355 470,285 150,125 10,195 "/>
<g>
	<polygon fill="#2D3134" points="255.9,299.3 306.1,285.4 271.5,265.5 254,282.4 	"/>
	<polygon opacity="0.29" points="255.9,299.3 306.1,285.4 271.5,265.5 254,282.4 	"/>
	<polygon fill="#2D3134" points="64.5,202 114.7,188 80,168.1 62.5,185 	"/>
	<polygon opacity="0.29" points="64.5,202 114.7,188 80,168.1 62.5,185 	"/>
	<g>
		<path fill="#2D3134" d="M293.4,276.3c-6.7-3.4-12.8-3.8-17.3-1.7l0,0l-9.5,5.1l0,0c-4.8,2.2-7.9,7.1-7.9,14.3
			c0,13.9,11.3,30.9,25.2,37.8c6.9,3.4,13.1,3.8,17.7,1.6c0,0,9.4-5,10.4-5.6c4.1-2.4,6.6-7.1,6.6-13.6
			C318.6,300.2,307.3,283.3,293.4,276.3z"/>
		<path opacity="0.29" d="M301.9,333.3c1.8-0.9,9.2-4.9,10.1-5.5c4.1-2.4,6.6-7.1,6.6-13.6c0-5.6-1.8-11.7-4.9-17.4l-9.5,5.1
			c3.1,5.7,4.9,11.8,4.9,17.4C309.2,326.1,306.4,331,301.9,333.3z"/>
		<g>
			<path fill="#2D3134" d="M309.2,319.3c0,13.9-11.3,19.6-25.2,12.6c-13.9-7-25.2-23.9-25.2-37.8s11.3-19.6,25.2-12.6
				C297.9,288.4,309.2,305.4,309.2,319.3z"/>
			<path fill="#E5E5E5" d="M303.7,316.5c0,10.9-8.8,15.3-19.7,9.9c-10.9-5.4-19.7-18.7-19.7-29.6c0-10.9,8.8-15.3,19.7-9.9
				C294.8,292.4,303.7,305.6,303.7,316.5z"/>
			<g>
				<path fill="#2D3134" d="M296.9,325.3c3-1.7,4.8-5,4.8-9.7c0-0.4,0-0.8,0-1.1l-11-1.7L296.9,325.3z"/>
				<path fill="#2D3134" d="M288.1,303.6l11.5,2.5c-2.4-5.7-6.7-11.3-11.9-14.9L288.1,303.6z"/>
				<path fill="#2D3134" d="M279.9,299.5l0.4-12c-5.2-1.5-9.5-0.3-11.9,3L279.9,299.5z"/>
				<path fill="#2D3134" d="M266.3,296.7c0,0.4,0,0.7,0,1.1c0,4.7,1.8,9.8,4.8,14.5l6.3-6.2L266.3,296.7z"/>
				<path fill="#2D3134" d="M284,314.2l-6.8,5.5c2.1,1.9,4.4,3.5,6.8,4.7c2.4,1.2,4.7,1.9,6.8,2L284,314.2z"/>
			</g>
		</g>
		<path opacity="0.11" d="M309.2,319.3c0,13.9-11.3,19.6-25.2,12.6c-13.9-7-25.2-23.9-25.2-37.8s11.3-19.6,25.2-12.6
			C297.9,288.4,309.2,305.4,309.2,319.3z"/>
	</g>
	<g>
		<path fill="#2D3134" d="M101.3,179.6c-6.7-3.4-12.8-3.8-17.3-1.7l0,0l-9.5,5.1l0,0c-4.8,2.2-7.9,7.1-7.9,14.3
			c0,13.9,11.3,30.9,25.2,37.8c6.9,3.4,13.1,3.8,17.7,1.6c0,0,9.4-5,10.4-5.6c4.1-2.4,6.6-7.1,6.6-13.6
			C126.5,203.5,115.2,186.6,101.3,179.6z"/>
		<path opacity="0.29" d="M109.8,236.6c1.8-0.9,9.2-4.9,10.1-5.5c4.1-2.4,6.6-7.1,6.6-13.6c0-5.6-1.8-11.7-4.9-17.4l-9.5,5.1
			c3.1,5.7,4.9,11.8,4.9,17.4C117,229.4,114.3,234.2,109.8,236.6z"/>
		<g>
			<path fill="#2D3134" d="M117,222.5c0,13.9-11.3,19.6-25.2,12.6c-13.9-7-25.2-23.9-25.2-37.8c0-13.9,11.3-19.6,25.2-12.6
				C105.8,191.7,117,208.6,117,222.5z"/>
			<path fill="#E5E5E5" d="M111.5,219.8c0,10.9-8.8,15.3-19.7,9.9s-19.7-18.7-19.7-29.6c0-10.9,8.8-15.3,19.7-9.9
				S111.5,208.9,111.5,219.8z"/>
			<g>
				<path fill="#2D3134" d="M104.8,228.5c3-1.7,4.8-5,4.8-9.7c0-0.4,0-0.8,0-1.1l-11-1.7L104.8,228.5z"/>
				<path fill="#2D3134" d="M95.9,206.8l11.5,2.5c-2.4-5.7-6.7-11.3-11.9-14.9L95.9,206.8z"/>
				<path fill="#2D3134" d="M87.7,202.7l0.4-12c-5.2-1.5-9.5-0.3-11.9,3L87.7,202.7z"/>
				<path fill="#2D3134" d="M74.1,199.9c0,0.4,0,0.7,0,1.1c0,4.7,1.8,9.8,4.8,14.5l6.3-6.2L74.1,199.9z"/>
				<path fill="#2D3134" d="M91.8,217.5l-6.8,5.5c2.1,1.9,4.4,3.5,6.8,4.7c2.4,1.2,4.7,1.9,6.8,2L91.8,217.5z"/>
			</g>
		</g>
		<path opacity="0.11" d="M117,222.5c0,13.9-11.3,19.6-25.2,12.6s-25.2-23.9-25.2-37.8c0-13.9,11.3-19.6,25.2-12.6
			C105.8,191.7,117,208.6,117,222.5z"/>
	</g>
	<path fill="#FFCC00" d="M447.1,214c-4.5-4.7-57.2-46.1-66.7-53.4c-9.5-7.2-80.5-55.4-114.2-57.4c-33.7-2-40.5-0.9-54.3-4.5
		c-13.8-3.6-44.5-11.3-91.3,4.1S43.9,147.3,43.9,171c0,8,1.6,16.1,12.4,24.9c1.8,1.5,4.6,3.4,7.9,5.5c-0.2-1.5-0.4-3-0.4-4.5
		c0-10.6,6.2-17.4,15.8-17.4c3.8,0,7.9,1.1,12.1,3.2c14.5,7.2,26.2,24.9,26.2,39.4c0,3.2-0.6,6.1-1.7,8.6l140.3,68.7
		c-0.4-2-0.6-3.9-0.6-5.8c0-10.6,6.2-17.4,15.8-17.4c3.8,0,7.9,1.1,12.1,3.2c14.5,7.2,26.2,24.9,26.2,39.4c0,1.8-0.2,3.5-0.5,5.1
		c5.4,1.6,12.9,3.3,22,4.2c20.3,2,53.6-4.1,83.4-19.9c34-18,47.3-35.3,48.8-44.3C465.4,254.9,451.6,218.7,447.1,214z"/>
	<path opacity="0.2" d="M196.1,215.1c0,2.9-2.4,4.1-5.3,2.7c-2.9-1.5-5.3-5-5.3-8c0-2.9,2.4-4.1,5.3-2.7
		C193.7,208.6,196.1,212.1,196.1,215.1z"/>
	<path fill="#FFCC00" d="M196.1,217.6l2.3-2.6c0,0-16.7-10.9-18.2-8.7C178.6,208.4,196.1,217.6,196.1,217.6z"/>
	<path opacity="0.2" d="M270.3,246.6c0,2.9-2.4,4.1-5.3,2.7c-2.9-1.5-5.3-5-5.3-8s2.4-4.1,5.3-2.7
		C267.9,240.1,270.3,243.7,270.3,246.6z"/>
	<path fill="#FFCC00" d="M270.3,249.2l2.3-2.6c0,0-16.7-10.9-18.2-8.7C252.9,240,270.3,249.2,270.3,249.2z"/>
	<path fill="#2D3134" d="M126.4,172.1l169.8,70.8c0,0-16.5-60-71.2-82.1C166.2,137.1,126.4,172.1,126.4,172.1z"/>
	<path fill="#656565" d="M145,176l60.7,25.3l21.1-35.7c-1-0.5-2.1-0.9-3.2-1.3c-13.1-5.3-26.3-8-39.3-8c-13.1,0-24.3,2.8-33.2,6.2
		L145,176z"/>
	<path fill="#656565" d="M218.1,206.4l66.9,27.9l1.8-5.8c-2.2-4.9-5.2-10.6-8.9-16.6c-8.4-13.5-22.3-30.9-43.4-42.5L218.1,206.4z"/>
	<path fill="#2D3134" d="M262.5,105.4c1.5-2.4-46.1-2.4-58.6-0.8c-12.5,1.7-33.3,6.2-52.2,16.6c-16,8.8-40.4,30-27.6,32.6
		c12.8,2.6,63-10.7,64.8-11.8c1.8-1.1,17.8-15.2,35.1-23.4S261.7,106.6,262.5,105.4z"/>
	<path fill="#656565" d="M254.8,106c0.2-0.1,0.5-0.1,0.7-0.2c-4.6-0.3-11.7-0.5-20.9-0.5c-5.8,0-11.5,0.1-16.4,0.3
		c-18.8,4.8-39.3,12.1-51.4,17.9c-15.5,7.4-30.2,16.4-37.5,28.8c17.1-0.4,56.4-10.8,58.8-11.9c0.3-0.2,1.4-1.1,2.6-2
		c5.6-4.5,18.7-14.9,32.7-21.4C234.6,111.7,247.2,108.1,254.8,106z"/>
	<path fill="#2D3134" d="M374,162.8c8.6,0.6,22.6,13.6,28,17.9c5.4,4.4,23.1,15.8,11.2,29.7c-11.9,13.9-31.4,22.6-49.4,27.3
		c-18.1,4.7-33.5,7.2-44.2-1.8c-10.7-9-17.6-23.4-19.4-26.8s-4.7-7.7,4.4-15.1C315.1,185.4,353.5,161.4,374,162.8z"/>
	<path fill="#656565" d="M374,164.5c8.2,0.5,21.5,12.9,26.7,17.1c5.2,4.2,22,15.1,10.6,28.3c-11.3,13.2-29.8,21.5-47.1,26
		c-17.2,4.4-31.9,6.9-42-1.7s-16.8-22.2-18.5-25.5s-4.5-7.3,4.2-14.3C317.9,186.1,354.4,163.3,374,164.5z"/>
	<path opacity="0.2" d="M415,198.9c-1.3-8.1-10.7-14.3-14.3-17.2c-5.2-4.2-18.5-16.5-26.7-17.1c-19.5-1.3-56.1,21.5-66.1,29.7
		c-4.8,3.9-6.1,6.9-6,9.3C338.7,193,377.5,191.4,415,198.9z"/>
	<path fill="#CC291F" d="M343.9,298.9c0,0,5,2,8.7,1.1c3.8-0.9,19.6-6.3,19.6-6.3s-6.6-23.2-13.9-29.2c-7.2-6-15.5-5.1-17.2-4.1
		C339.5,261.4,341.8,296,343.9,298.9z"/>
	<path fill="#CC291F" d="M446.8,256.1c0,0,12.4-6.9,12.4-9.8c0-2.9-5.4-24.9-9.3-29.5s-7.2-7.2-8.7-6.3
		C439.6,211.3,446.7,254.7,446.8,256.1z"/>
	<path fill="#2D3134" d="M388.9,265.1c1.5-2.9,36.5-20.2,38.6-19.4s3,15.5,0.5,18.8c-2.6,3.3-27.7,17.3-32.6,16.4
		S387.6,267.7,388.9,265.1z"/>
	<polygon fill="#E5E5E5" points="395.1,263.5 397.8,277.2 423.6,263.9 420.9,250.4 	"/>
	<path fill="#2D3134" d="M372.2,293.6l2.9,5c0,0,19.9-6.3,38.4-16c18.5-9.6,33.9-21,33.9-21l-0.6-5.6c0,0-13.6,10.9-34.2,21.4
		C393,287.5,372.2,293.6,372.2,293.6z"/>
	<path opacity="0.3" fill="#FFFFFF" d="M65.4,158.1l61,14l169.8,70.8l44.3,30.8c0,0-72.8-24.2-137.5-54.3S65.4,158.1,65.4,158.1z"/>
	<path opacity="0.2" d="M285.3,238.6c-9.5,12.7-34.7,45.9-37.6,47.1c-0.8,0.1-6.9-1.6-44.4-19.4l0,0c-1-1.5-3.1-14.4-1.7-30.5
		c1.4-17.5,9-28.2,9.1-28.3l-0.7-0.5c-0.1,0.1-7.8,11-9.3,28.8c-1.2,14.3,0.3,26.2,1.5,30c-4.8-2.3-10.1-4.8-16-7.6
		c-29.9-14.4-58.9-28.8-59.9-29.5c-1.9-1.3-7.5-12.8-6.8-29.9c0.7-16.6,7.3-26.1,7.3-26.2l-0.7-0.5c-0.1,0.1-6.8,9.8-7.5,26.7
		c-0.7,17.3,4.9,29.1,7.2,30.7c1.2,0.9,31.6,15.9,60.5,29.8c52.4,25.2,60,27.5,61.5,27.5c0.2,0,0.3,0,0.4-0.1
		c3.7-1.6,36.5-45.5,37.9-47.4L285.3,238.6z"/>
	<path fill="#2D3134" d="M298.5,204.9c-9.2-21.2-67.9-69.4-112-62.3l-0.2-1.3c26.7-4.3,55.5,11.2,70.2,20.8
		c20.1,13.1,38.2,30.8,43.2,42.3L298.5,204.9z"/>
	<path fill="#2D3134" d="M379.1,165.7c-39.5-27-92.3-59.3-119.3-59.9l0-1.4c27.3,0.6,80.4,33,120.1,60.1L379.1,165.7z"/>
	<path fill="#2D3134" d="M141,179.4l2.9-11.5c0,0-5.1-2.6-6.9-1.2c-1.8,1.4-5.7,12.8-2.7,16.3s3.9,3.6,3.9,3.6L141,179.4z"/>
	<path opacity="0.29" d="M463.8,263.9c0.4-2.3-0.2-6.2-1.3-10.9c-9.3,10.1-25.8,24.2-52.3,36.3c-28.3,12.9-46.6,18-56.6,20.1
		c0.5,5,0.3,13.4,0.5,18.2c18.4-2.2,40.4-8.5,60.8-19.3C448.9,290.2,462.2,273,463.8,263.9z"/>
	<path fill="#E5E5E5" d="M62.2,157.2c0,0-0.5-8.8,1.8-12.4c2.3-3.6,0.8-8.9-1.9-8.3c-3.2,0.7-12.6,13.5-13.1,16.4
		C48.7,155.9,62.2,157.2,62.2,157.2z"/>
	<path opacity="0.2" d="M63.5,142.8c0,2.5-2,5.6-4.5,6.8c-2.5,1.3-4.5,0.2-4.5-2.3s2-5.6,4.5-6.8C61.5,139.3,63.5,140.3,63.5,142.8z
		"/>
	<path opacity="0.4" fill="#FFFFFF" d="M60.5,144.3c0,1.3-1.1,3-2.4,3.6c-1.3,0.7-2.4,0.1-2.4-1.2c0-1.3,1.1-3,2.4-3.6
		C59.4,142.4,60.5,142.9,60.5,144.3z"/>
	<path opacity="0.4" fill="#FFFFFF" d="M60.8,150.6c0,1.3-1.1,3-2.4,3.6s-2.4,0.1-2.4-1.2s1.1-3,2.4-3.6S60.8,149.3,60.8,150.6z"/>
	<polygon opacity="0.8" fill="#FFFFFF" points="344.5,279.2 345.6,285.5 350.7,286.1 365.8,281 363.3,275.1 350.1,280 	"/>
	<polygon opacity="0.8" fill="#FFFFFF" points="445,234.1 454.2,227.8 456.1,233.1 446.4,240.6 	"/>
	<g>
		<polygon fill="#2D3134" points="140,205 140,215 150,220 150,210 		"/>
		<polygon fill="#2D3134" points="160,205 150,200 150,210 160,215 		"/>
		<polygon fill="#2D3134" points="150,230 160,235 160,225 150,220 		"/>
		<polygon fill="#2D3134" points="160,215 160,225 170,230 170,220 		"/>
		<polygon fill="#2D3134" points="180,215 170,210 170,220 180,225 		"/>
		<polygon fill="#2D3134" points="170,240 180,245 180,235 170,230 		"/>
		<polygon fill="#2D3134" points="180,225 180,235 190,240 190,230 		"/>
		<polygon fill="#2D3134" points="200,225 190,220 190,230 200,235 		"/>
		<polygon fill="#2D3134" points="190,250 200,255 200,245 190,240 		"/>
		<polygon fill="#2D3134" points="200,235 200,245 210,250 210,240 		"/>
		<polygon fill="#2D3134" points="220,245 220,255 230,260 230,250 		"/>
		<polygon fill="#2D3134" points="220,235 210,230 210,240 220,245 		"/>
		<polygon fill="#2D3134" points="210,260 220,265 220,255 210,250 		"/>
		<polygon fill="#2D3134" points="240,255 240,265 250,270 250,260 		"/>
		<polygon fill="#2D3134" points="240,245 230,240 230,250 240,255 		"/>
		<polygon fill="#2D3134" points="230,270 240,275 240,265 230,260 		"/>
	</g>
	<g>
		<g>
			<polygon fill="#2D3134" points="266,155 314,131 296,122 249,146 			"/>
			<path fill="#E5E5E5" d="M292.1,112.4l-31,15.5c-1.4,0.7-2.5,1.8-3.2,3.3l-6,12.8l14,7l44-22l-6.9-12.9c-0.7-1.4-1.9-2.5-3.4-3.1
				l-1.8-0.8C296.1,111.5,294,111.5,292.1,112.4z"/>
			<path opacity="0.11" d="M264.5,131.3l-5-2.2c-0.6,0.6-1.1,1.2-1.4,2l-6,12.8l14,7v-17.3C266,132.7,265.4,131.7,264.5,131.3z"/>
			<path opacity="0.29" d="M303.1,116.1c-0.4-0.7-0.9-1.4-1.5-1.9l-32.8,16.4c-1.7,0.8-2.7,2.6-2.7,4.4V151l44-22L303.1,116.1z"/>
		</g>
		<polygon fill="#2D3134" points="302,129 272,144 272,134 298,121 		"/>
	</g>
	<path opacity="0.11" d="M346.6,266.9c-2.3-8.1-20.5-12.8-35.3-26.7c-13.5-12.6-30.3-58.9-80.9-80.2c-51.5-21.6-85.8-0.3-112.6,2.7
		c-18.3,2-46.3-6.3-66.9-12.8c-4.5,7.2-6.9,14.4-6.9,21.1c0,8,1.6,16.1,12.4,24.9c1.8,1.5,4.6,3.4,7.9,5.5c-0.2-1.5-0.4-3-0.4-4.5
		c0-10.6,6.2-17.4,15.8-17.4c3.8,0,7.9,1.1,12.1,3.2c14.5,7.2,26.2,24.9,26.2,39.4c0,3.2-0.6,6.1-1.7,8.6l140.3,68.7
		c-0.4-2-0.6-3.9-0.6-5.8c0-10.6,6.2-17.4,15.8-17.4c3.8,0,7.9,1.1,12.1,3.2c14.5,7.2,26.2,24.9,26.2,39.4c0,1.8-0.2,3.5-0.5,5.1
		c5.4,1.6,12.9,3.3,22,4.2c6.4,0.6,14,0.5,22.4-0.5C353.2,287.8,348.3,272.7,346.6,266.9z"/>
</g>
</svg>
