<?xml version="1.0" encoding="utf-8"?>
<!-- Generator: Adobe Illustrator 18.1.0, SVG Export Plug-In . SVG Version: 6.00 Build 0)  -->
<svg version="1.1" id="Layer_1" xmlns="http://www.w3.org/2000/svg" xmlns:xlink="http://www.w3.org/1999/xlink" x="0px" y="0px"
	 viewBox="0 0 480 400" enable-background="new 0 0 480 400" xml:space="preserve">
<polygon opacity="0.3" fill="#262626" points="150,355 10,285 330,125 470,195 "/>
<g>
	<polygon fill="#2D3134" points="410.7,196.4 360.5,182.4 395.1,162.5 412.6,179.4 	"/>
	<polygon fill="#2D3134" points="218.3,296.2 168.1,282.2 202.8,262.3 220.3,279.2 	"/>
	<polygon opacity="0.29" points="410.7,196.4 360.5,182.4 395.1,162.5 412.6,179.4 	"/>
	<polygon opacity="0.29" points="218.3,296.2 168.1,282.2 202.8,262.3 220.3,279.2 	"/>
	<g>
		<path fill="#2D3134" d="M181.6,276.3c6.7-3.4,12.8-3.8,17.3-1.7l0,0l9.5,5.1l0,0c4.8,2.2,7.9,7.1,7.9,14.3
			c0,13.9-11.3,30.9-25.2,37.8c-6.9,3.4-13.1,3.8-17.7,1.6c0,0-9.4-5-10.4-5.6c-4.1-2.4-6.6-7.1-6.6-13.6
			C156.4,300.2,167.7,283.3,181.6,276.3z"/>
		<path opacity="0.29" d="M173.1,333.3c-1.8-0.9-9.2-4.9-10.1-5.5c-4.1-2.4-6.6-7.1-6.6-13.6c0-5.6,1.8-11.7,4.9-17.4l9.5,5.1
			c-3.1,5.7-4.9,11.8-4.9,17.4C165.8,326.1,168.6,331,173.1,333.3z"/>
		<g>
			<path fill="#2D3134" d="M165.8,319.3c0,13.9,11.3,19.6,25.2,12.6c13.9-7,25.2-23.9,25.2-37.8s-11.3-19.6-25.2-12.6
				C177.1,288.4,165.8,305.4,165.8,319.3z"/>
			<path fill="#E5E5E5" d="M171.4,316.5c0,10.9,8.8,15.3,19.7,9.9s19.7-18.7,19.7-29.6c0-10.9-8.8-15.3-19.7-9.9
				C180.2,292.4,171.4,305.6,171.4,316.5z"/>
			<g>
				<path fill="#2D3134" d="M178.1,325.3c-3-1.7-4.8-5-4.8-9.7c0-0.4,0-0.8,0-1.1l11-1.7L178.1,325.3z"/>
				<path fill="#2D3134" d="M186.9,303.6l-11.5,2.5c2.4-5.7,6.7-11.3,11.9-14.9L186.9,303.6z"/>
				<path fill="#2D3134" d="M195.2,299.5l-0.4-12c5.2-1.5,9.5-0.3,11.9,3L195.2,299.5z"/>
				<path fill="#2D3134" d="M208.8,296.7c0,0.4,0,0.7,0,1.1c0,4.7-1.8,9.8-4.8,14.5l-6.3-6.2L208.8,296.7z"/>
				<path fill="#2D3134" d="M191.1,314.2l6.8,5.5c-2.1,1.9-4.4,3.5-6.8,4.7s-4.7,1.9-6.8,2L191.1,314.2z"/>
			</g>
		</g>
		<path opacity="0.11" d="M165.8,319.3c0,13.9,11.3,19.6,25.2,12.6s25.2-23.9,25.2-37.8s-11.3-19.6-25.2-12.6
			C177.1,288.4,165.8,305.4,165.8,319.3z"/>
	</g>
	<g>
		<path fill="#2D3134" d="M373.8,179.6c6.7-3.4,12.8-3.8,17.3-1.7l0,0l9.5,5.1l0,0c4.8,2.2,7.9,7.1,7.9,14.3
			c0,13.9-11.3,30.9-25.2,37.8c-6.9,3.4-13.1,3.8-17.7,1.6c0,0-9.4-5-10.4-5.6c-4.1-2.4-6.6-7.1-6.6-13.6
			C348.5,203.5,359.8,186.6,373.8,179.6z"/>
		<path opacity="0.29" d="M365.2,236.6c-1.8-0.9-9.2-4.9-10.1-5.5c-4.1-2.4-6.6-7.1-6.6-13.6c0-5.6,1.8-11.7,4.9-17.4l9.5,5.1
			c-3.1,5.7-4.9,11.8-4.9,17.4C358,229.4,360.8,234.2,365.2,236.6z"/>
		<g>
			<path fill="#2D3134" d="M358,222.5c0,13.9,11.3,19.6,25.2,12.6c13.9-7,25.2-23.9,25.2-37.8c0-13.9-11.3-19.6-25.2-12.6
				C369.3,191.7,358,208.6,358,222.5z"/>
			<path fill="#E5E5E5" d="M363.5,219.8c0,10.9,8.8,15.3,19.7,9.9c10.9-5.4,19.7-18.7,19.7-29.6c0-10.9-8.8-15.3-19.7-9.9
				C372.3,195.7,363.5,208.9,363.5,219.8z"/>
			<g>
				<path fill="#2D3134" d="M370.2,228.5c-3-1.7-4.8-5-4.8-9.7c0-0.4,0-0.8,0-1.1l11-1.7L370.2,228.5z"/>
				<path fill="#2D3134" d="M379.1,206.8l-11.5,2.5c2.4-5.7,6.7-11.3,11.9-14.9L379.1,206.8z"/>
				<path fill="#2D3134" d="M387.3,202.7l-0.4-12c5.2-1.5,9.5-0.3,11.9,3L387.3,202.7z"/>
				<path fill="#2D3134" d="M400.9,199.9c0,0.4,0,0.7,0,1.1c0,4.7-1.8,9.8-4.8,14.5l-6.3-6.2L400.9,199.9z"/>
				<path fill="#2D3134" d="M383.2,217.5l6.8,5.5c-2.1,1.9-4.4,3.5-6.8,4.7c-2.4,1.2-4.7,1.9-6.8,2L383.2,217.5z"/>
			</g>
		</g>
		<path opacity="0.11" d="M358,222.5c0,13.9,11.3,19.6,25.2,12.6s25.2-23.9,25.2-37.8c0-13.9-11.3-19.6-25.2-12.6
			C369.3,191.7,358,208.6,358,222.5z"/>
	</g>
	<path fill="#333399" d="M39,221c19.3-17.2,102.5-82.6,116.4-92.9c13.9-10.3,64.2-41.9,98-50.6c33.8-8.7,38-3.6,44.9-5.1
		c6.9-1.5,27.4-6.3,57.6,3c12.9,4,28.2,8.4,40.7,19.6c16.6,14.8,29.4,37.8,35.6,50.3l1.3,4.2c2.3,7.5,1.3,15.7-2.7,22.4
		c-3.4,5.7-7.7,12.3-10.9,15.9c-2.8,3.1-6.2,6.4-9.1,9.2c0-0.2,0-0.5,0-0.7c0-10.6-6.2-17.4-15.8-17.4c-3.8,0-7.9,1.1-12.1,3.2
		c-14.5,7.2-26.2,24.9-26.2,39.4c0,1.9,0.2,3.7,0.6,5.4l-138.9,69.4c0.1-1.1,0.2-2.2,0.2-3.2c0-10.6-6.2-17.4-15.8-17.4
		c-3.8,0-7.9,1.1-12.1,3.2c-14.5,7.2-26.2,24.9-26.2,39.4c0,1.7,0.2,3.2,0.5,4.7l-11.1,5.5c0,0-20.8,5.4-34.1,4.2
		c-13.3-1.2-40.7-10.2-62.7-21.1c-22-10.9-40.6-30.1-41-40.1C15.9,267.7,19.7,238.2,39,221z"/>
	<path fill="#E5E5E5" d="M216.1,237.2c0,0.1,83-47.9,82.9-48l0.9-0.2c0,0.2,69.4-40.6,69.4-40.9l0.9-0.1c0,0.3,2.4,26.5-7.4,47.3
		c-9.9,20.8-20,34.3-20.1,34.4l-0.1,0.1L221,291.4l0-0.7c0-0.3-0.9-29.6-2.4-37.9c-1.5-8.3-3.3-15.3-3.3-15.3L216.1,237.2z"/>
	<path fill="#2D3134" d="M116.2,162.5c0,0,1.2-8.4,0-10.6c-1.2-2.1-3.3-5.4-6-3c-2.7,2.4-5.7,9.3-3,15.7
		C109.9,171,116.2,162.5,116.2,162.5z"/>
	<path opacity="0.3" fill="#FFFFFF" d="M421.2,129.7c0,0-64.4,44.5-138.4,84.3s-112.9,62.4-112.9,62.4l45.7-39.2l163.9-95.6
		L421.2,129.7z"/>
	<path fill="#2D3134" d="M377.9,142.6l-162.2,94.7c0,0,15.7-69,71.1-96.8S377.9,142.6,377.9,142.6z"/>
	<path fill="#2D3134" d="M310.3,91.4c-21.6-10.2-39.2-13.3-39.2-15.4c0-2.1,55.5-4.8,89.8,12.4s32.6,32,19.6,30.4s-30.4-3-35.9-5.7
		S328.7,100.1,310.3,91.4z"/>
	<path fill="#656565" d="M381.1,116.5c1.3,0,4.4-0.3,4.9-2.6c0.8-3.4-3.8-12.9-27.1-24.5c-25.5-12.7-61.4-13.7-71.8-13.7
		c-5.3,0-9.3,0.2-12,0.5c1.4,0.5,2.9,1,4.5,1.5c7.2,2.3,18.1,5.8,30.2,11.6c12.3,5.8,21.3,12.5,27.2,16.8c3.1,2.2,5.5,4,7.2,4.9
		c4.2,2.1,17.2,3.5,28.6,4.8c2.3,0.3,4.6,0.5,6.7,0.7C380.1,116.5,380.6,116.5,381.1,116.5L381.1,116.5z"/>
	<path fill="#2D3134" d="M235.6,169.5c2,5.5-30.1,59.7-40.1,62.4c-9.9,2.7-39.8,1.8-69.3-14.5s-35-28.9-33.5-33.5
		c1.5-4.5,58.2-52.2,67.5-53.1S233.2,162.8,235.6,169.5z"/>
	<path opacity="0.2" fill="#FFFFFF" d="M156.9,287c0,0-4.2-5.6-15.5-6.9c-11.3-1.2-25.1-0.1-35.4,9.1c-7.7,6.9-10.5,9.8-10.5,9.8
		s21.8,7.1,32.6,5.6C138.8,303.1,156.9,287,156.9,287z"/>
	<path fill="#E5E5E5" d="M154.8,285.1c0,0-3.9-5.2-14.3-6.3c-10.4-1.1-23.2-0.1-32.7,8.4c-7.1,6.3-9.7,9-9.7,9s20.1,6.6,30.1,5.2
		C138.1,300,154.8,285.1,154.8,285.1z"/>
	<path opacity="0.2" fill="#FFFFFF" d="M35.6,267.4c0,0-15.2-14.2-14.4-18.2c0.8-4.1,12.5-24.3,14-21.3c1.5,3,4.7,7.8,3.5,11.9
		C37.5,243.9,35.3,263.8,35.6,267.4z"/>
	<path fill="#E5E5E5" d="M35.7,264.6c0,0-14.3-14.2-13.6-18.2c0.8-4.1,12.5-24.3,14-21.3c1.5,3,4.7,7.8,3.5,11.9
		C38.4,241,35.4,260.9,35.7,264.6z"/>
	<path fill="#2D3134" d="M126.3,324.5l0.5,4.4c0,0-44.7-5.7-72.8-23C26,288.5,19.2,275,19.2,275s21.6,23.4,48,34.2
		C94.9,320.5,126.3,324.5,126.3,324.5z"/>
	<path fill="#656565" d="M99.1,180.2c5.1-4.9,14.8-13.5,27.1-23.4c20-16.2,31.7-23.7,34.5-23.9c0,0,0.1,0,0.1,0
		c4.1,0,20.4,6.8,38.6,16.2c20.9,10.7,32.1,18.3,33.7,20.6c-0.2,2.8-5.7,14.7-15.9,31.1c-11.3,18.1-19.5,27.1-22.2,27.9
		c-1.5,0.4-3.4,0.7-5.6,0.9c-13.2-2-36-7.1-58.2-20.2C112.4,198.3,103.4,187.6,99.1,180.2z"/>
	<path fill="#656565" d="M364.2,138.8l2.1,6.3l-62.4,36.4l-10-40.2l0.3-0.4c13.2-5.8,26.2-8.7,38.9-8.7
		C346.4,132.3,357,135.6,364.2,138.8z"/>
	<path fill="#656565" d="M232.7,223.1l-2.5-15.3c1.1-2.3,2.2-4.6,3.5-7c9.4-17.8,26-41.7,52.3-55.8l0,0l6.2,43.3L232.7,223.1z"/>
	<path opacity="0.2" d="M353.8,169.6c0,2.9,2.4,4.1,5.3,2.7c2.9-1.5,5.3-5,5.3-8s-2.4-4.1-5.3-2.7
		C356.2,163.1,353.8,166.6,353.8,169.6z"/>
	<path fill="#E5E5E5" d="M367.6,160.6l2.3,2.6c0,0-16.7,10.9-18.2,8.7C350.1,169.8,367.6,160.6,367.6,160.6z"/>
	<path opacity="0.2" d="M282.6,210.1c0,2.9,2.4,4.1,5.3,2.7c2.9-1.5,5.3-5,5.3-8c0-2.9-2.4-4.1-5.3-2.7
		C285,203.6,282.6,207.1,282.6,210.1z"/>
	<path fill="#E5E5E5" d="M296.4,201l2.3,2.6c0,0-16.7,10.9-18.2,8.7C278.9,210.2,296.4,201,296.4,201z"/>
	<path opacity="0.2" d="M216.1,237.2c0,0.1,1.8,7,3.3,15.4c1.4,7.6,2.2,32.8,2.4,37.3l79.6-40.3c0.1-1.6,1.2-16.5,1.2-30.1
		c0-14.3-3.6-30.2-3.6-30.3l0.9-0.2c0,0.2,3.6,16.2,3.6,30.5c0,12.6-0.9,26.4-1.2,29.6l39.6-20c0.9-1.2,10.5-14.3,19.9-34.2
		c9.7-20.5,7.4-46.5,7.3-46.8l0.9-0.1c0,0.3,2.4,26.5-7.4,47.3c-9.9,20.8-20,34.3-20.1,34.4l-0.1,0.1L221,291.4l0-0.7
		c0-0.3-0.9-29.6-2.4-37.9c-1.5-8.3-3.3-15.3-3.3-15.3L216.1,237.2z"/>
	<path opacity="0.3" d="M120.9,286.2c0,3.6,2.9,7.9,6.5,9.7s6.5,0.3,6.5-3.2c0-3.6-2.9-7.9-6.5-9.7S120.9,282.6,120.9,286.2z"/>
	<path opacity="0.3" d="M110.9,288.8c0,2.5,2,5.5,4.5,6.8c2.5,1.2,4.5,0.2,4.5-2.3c0-2.5-2-5.5-4.5-6.8
		C112.9,285.3,110.9,286.3,110.9,288.8z"/>
	<path fill="#FFFFFF" d="M135.3,292.1c0,1.3,1.1,3,2.4,3.6c1.3,0.7,2.4,0.1,2.4-1.2s-1.1-3-2.4-3.6
		C136.4,290.2,135.3,290.7,135.3,292.1z"/>
	<path opacity="0.4" fill="#FFFFFF" d="M123.6,288.9c0,1.8,1.5,4,3.2,4.9c1.8,0.9,3.2,0.2,3.2-1.6s-1.5-4-3.2-4.9
		C125.1,286.4,123.6,287.1,123.6,288.9z"/>
	<path opacity="0.4" fill="#FFFFFF" d="M112.6,290.6c0,1.3,1.1,3,2.4,3.6c1.3,0.7,2.4,0.1,2.4-1.2s-1.1-3-2.4-3.6
		C113.7,288.7,112.6,289.3,112.6,290.6z"/>
	<path fill="#FFFFFF" d="M138.9,284c0,1.3,1.1,3,2.4,3.6s2.4,0.1,2.4-1.2s-1.1-3-2.4-3.6S138.9,282.7,138.9,284z"/>
	<path fill="#FFFFFF" d="M32,231.4c0,1.3,1.1,3,2.4,3.6c1.3,0.7,2.4,0.1,2.4-1.2c0-1.3-1.1-3-2.4-3.6C33.1,229.5,32,230,32,231.4z"
		/>
	<path fill="#FFFFFF" d="M27.5,237.7c0,1.3,1.1,3,2.4,3.6c1.3,0.7,2.4,0.1,2.4-1.2s-1.1-3-2.4-3.6C28.6,235.8,27.5,236.4,27.5,237.7
		z"/>
	<path opacity="0.3" d="M26.1,241.9c0,3.1,2.5,6.8,5.6,8.3s5.6,0.3,5.6-2.8s-2.5-6.8-5.6-8.3C28.6,237.6,26.1,238.9,26.1,241.9z"/>
	<path opacity="0.4" fill="#FFFFFF" d="M29.4,245.2c0,1.6,1.3,3.5,2.8,4.3c1.6,0.8,2.8,0.1,2.8-1.4s-1.3-3.5-2.8-4.3
		C30.7,243,29.4,243.6,29.4,245.2z"/>
	<path opacity="0.3" d="M30.6,250.3c0-2.5,2-3.5,4.5-2.3c0.8,0.4,1.5,0.9,2.1,1.6c-0.4,2.7-0.8,5.5-1.1,7.9
		c-0.3-0.1-0.7-0.2-1.1-0.4C32.6,255.9,30.6,252.8,30.6,250.3z"/>
	<path opacity="0.3" d="M154.8,285c-4.9-0.4-18.7-1.1-27.4,1c-8.7,2.1-23.8,7.9-29.2,10.1c0.6-0.6,3.4-3.4,9.6-8.9
		c9.5-8.5,22.3-9.5,32.7-8.4C150,279.8,154.1,284.2,154.8,285z"/>
	<path fill="#2D3134" d="M238.3,212.9c0,0-7.5,3.6-10.9,8.1c-3.3,4.5-3.3,6.9-3.3,6.9s20.8,4.5,31.1-2.1
		C266.1,218.7,238.3,212.9,238.3,212.9z"/>
	<polygon fill="#2D3134" points="183.6,230.3 179.8,230 144.8,213 142.9,209.5 121.6,199.6 122.5,197.9 163.2,216 162,217.5 
		146.2,210.5 147.1,211.5 181.3,227.9 	"/>
	<polygon fill="#2D3134" points="146.6,220.9 143.3,220.9 115.4,200.2 112,192.2 101.3,178.6 102,177.6 122.1,200.5 121.3,201.7 
		115.9,196.9 117.4,199.6 145.7,219.2 	"/>
	<path fill="#2D3134" d="M104.4,286.9l-11.6,10.4c0,0-16.8-3.2-31.8-10.9c-15-7.7-24-18.1-24-18.1l1.2-15.2c0,0,6.8,12.3,26.4,22
		C82,283.8,104.4,286.9,104.4,286.9z"/>
	<path opacity="0.29" d="M57.8,308.9c-21.9-11-40.6-29.6-41-39.6c-0.1-1.7-0.2-4.5,2.2-12.4c0.2-0.7,1.1-0.8,1.5-0.2
		c7.7,11,20.8,25.3,41.2,35.1c21.2,10.2,47.2,18.9,67.2,17.9c4.7-0.2,5.5,4.5,5.9,11.9c0.2,4.8-3.8,8.8-8.6,8.3
		C109,328.2,81.4,320.7,57.8,308.9z"/>
	<path fill="#CC291F" d="M430.6,148.5c0,0-6.3-16.1-9.8-21.1c-3.5-5-7.4-9.5-7.4-9.5l1.1-3c0,0,7.4,2.6,8.7,4.8
		c1.4,2.3,8.9,25.6,8.9,25.6L430.6,148.5z"/>
	<path opacity="0.2" d="M101,183.1c-0.7-1-1.3-2-1.8-2.9c5.1-4.9,14.8-13.5,27.1-23.4c20-16.2,31.7-23.7,34.5-23.9c0,0,0.1,0,0.1,0
		c4.1,0,20.4,6.8,38.6,16.2c20.9,10.7,32.1,18.3,33.7,20.6c-0.1,0.9-0.7,2.9-1.9,5.6C188.6,161.5,141.9,164.2,101,183.1z"/>
	<polygon fill="#E5E5E5" points="71.6,303.2 71.6,317.8 45.3,304.7 45.3,290.2 	"/>
	<path opacity="0.2" d="M35.7,264.6c0,0-14.3-14.2-13.6-18.2c0.8-4.1,12.5-24.3,14-21.3c1.5,3,4.7,7.8,3.5,11.9
		C38.4,241,35.4,260.9,35.7,264.6z"/>
	<path fill="#2D3134" d="M234.2,173.9c3.2-7.9,25.4-33.1,50-45.2c31-15.2,58-15.2,63.5-14.4l0.2-1.3c-5.6-0.8-33-0.8-64.3,14.5
		c-10.9,5.3-22.7,14-33.4,24.4c-8.5,8.2-15.4,16.9-17.3,21.5L234.2,173.9z"/>
	<path fill="#2D3134" d="M154.9,135l0.1-0.1c10-7.3,36.7-26.7,61.3-38.7c30.9-15.1,55-19.8,60.3-19.8V75c-5.4,0-29.8,4.7-60.9,20
		c-24.7,12.1-51.4,31.5-61.5,38.8l-0.1,0.1L154.9,135z"/>
	<g>
		<path fill="#2D3134" d="M245.9,260v-18.6l6-3.1c2.3-1.2,3.8-1.8,4.5-2c1.1-0.3,2-0.1,2.7,0.5c0.7,0.6,1.1,1.6,1.1,3.1
			c0,1.1-0.2,2.2-0.6,3.2c-0.4,1-0.9,1.9-1.6,2.6c-0.6,0.8-1.3,1.4-1.9,1.9c-0.9,0.6-2.2,1.4-3.9,2.3l-2.5,1.2v7L245.9,260z
			 M249.6,242.7v5.3l2.1-1c1.5-0.8,2.5-1.4,3-1.8c0.5-0.4,0.9-1,1.2-1.5c0.3-0.6,0.4-1.1,0.4-1.7c0-0.7-0.2-1.1-0.6-1.4
			c-0.4-0.2-0.9-0.3-1.5-0.1c-0.4,0.1-1.4,0.6-2.7,1.3L249.6,242.7z"/>
		<path fill="#2D3134" d="M262.5,242.4c0-1.9,0.3-3.6,0.9-5.2c0.4-1.2,1-2.3,1.7-3.4c0.7-1.1,1.5-2.1,2.4-2.9c1.2-1.1,2.5-2,4-2.8
			c2.7-1.4,4.9-1.7,6.6-0.8c1.6,0.9,2.5,2.8,2.5,5.8c0,3-0.8,5.8-2.5,8.3c-1.6,2.5-3.8,4.5-6.6,5.9c-2.8,1.4-5,1.7-6.6,0.8
			C263.3,247.3,262.5,245.4,262.5,242.4z M266.3,240.3c0,2.1,0.5,3.5,1.5,4c1,0.6,2.2,0.5,3.7-0.3c1.5-0.8,2.7-1.9,3.7-3.5
			c1-1.6,1.4-3.4,1.4-5.6c0-2.1-0.5-3.5-1.4-4.1c-0.9-0.6-2.2-0.5-3.7,0.3s-2.8,2-3.7,3.5S266.3,238.2,266.3,240.3z"/>
		<path fill="#2D3134" d="M283.6,240.8v-18.5l3.8-1.9v15.3l9.3-4.8v3.1L283.6,240.8z"/>
		<path fill="#2D3134" d="M299.2,232.9v-18.6l3.8-1.9v18.6L299.2,232.9z"/>
		<path fill="#2D3134" d="M318.5,216.2l3.6-0.7c-0.6,2.3-1.5,4.3-2.8,5.9c-1.3,1.6-2.9,3-4.9,4c-2.5,1.3-4.5,1.5-6.1,0.6
			c-1.6-0.9-2.4-2.8-2.4-5.7c0-3.1,0.8-5.9,2.4-8.4c1.6-2.5,3.7-4.5,6.3-5.8c2.3-1.2,4.1-1.4,5.5-0.8c0.8,0.4,1.5,1.2,1.9,2.5
			l-3.7,2.8c-0.2-0.9-0.7-1.4-1.4-1.6c-0.7-0.2-1.5-0.1-2.5,0.5c-1.4,0.7-2.5,1.8-3.4,3.2c-0.9,1.4-1.3,3.3-1.3,5.5
			c0,2.4,0.4,3.8,1.3,4.4c0.8,0.6,1.9,0.5,3.3-0.2c1-0.5,1.9-1.3,2.6-2.3C317.6,219,318.2,217.7,318.5,216.2z"/>
		<path fill="#2D3134" d="M325.3,219.6v-18.6l13.8-7v3.1l-10,5.1v4.1l9.3-4.8v3.1l-9.3,4.8v5.1l10.4-5.3v3.1L325.3,219.6z"/>
	</g>
	<path opacity="0.11" d="M151.8,295.8c7-7.9,47-49.9,57.4-66.3c13.6-21.3,35.8-73.4,76.7-92.9c41-19.5,87.4-11.2,101.4-10.2
		c8.5,0.5,21.7-2.6,30.9-5.2c6,9.1,10.7,17.9,13.8,24.2l1.3,4.2c2.3,7.5,1.3,15.7-2.7,22.4c-3.4,5.7-7.7,12.3-10.9,15.9
		c-2.8,3.1-6.2,6.4-9.1,9.2c0-0.2,0-0.5,0-0.7c0-10.6-6.2-17.4-15.8-17.4c-3.8,0-7.9,1.1-12.1,3.2c-14.5,7.2-26.2,24.9-26.2,39.4
		c0,1.9,0.2,3.7,0.6,5.4l-138.9,69.4c0.1-1.1,0.2-2.2,0.2-3.2c0-10.6-6.2-17.4-15.8-17.4c-3.8,0-7.9,1.1-12.1,3.2
		c-14.5,7.2-26.2,24.9-26.2,39.4c0,1.7,0.2,3.2,0.5,4.7l-11.1,5.5c0,0-5.8,1.5-13.2,2.8C142.3,316.7,146,302.4,151.8,295.8z"/>
	<g>
		<polygon fill="#2D3134" points="268,131 210,101 232,90 291,119 		"/>
		<g>
			<path fill="#3399CC" d="M270,100l15.5,7.8c2.7,1.4,4.5,4.2,4.5,7.2v0c0,3.1-1.7,5.9-4.5,7.2l-11.9,6c-2.3,1.1-5,1.1-7.2,0
				L250,120v-10L270,100z"/>
			<path fill="#CC291F" d="M214.5,87.8l11.9-6c2.3-1.1,5-1.1,7.2,0L250,90l-20,10v10l-15.5-7.8c-2.7-1.4-4.5-4.2-4.5-7.2v0
				C210,91.9,211.7,89.1,214.5,87.8z"/>
			<polygon fill="#E5E5E5" points="250,90 270,100 250,110 250,120 230,110 230,100 			"/>
			<polygon opacity="0.29" points="250,110 250,120 230,110 230,100 			"/>
		</g>
		<path opacity="0.29" d="M230,100v10l-15.5-7.8c-2.7-1.4-4.5-4.2-4.5-7.2c0-1.6,0.5-3.1,1.3-4.4L230,100z"/>
		<path opacity="0.29" d="M270,120v9c-1.2,0-2.5-0.3-3.6-0.9L250,120v-10L270,120z"/>
		<path opacity="0.11" d="M288.7,110.6c0.8,1.3,1.3,2.8,1.3,4.4c0,3.1-1.7,5.9-4.5,7.2l-11.9,6c-1.1,0.6-2.4,0.9-3.6,0.9v-9
			L288.7,110.6z"/>
		<polygon opacity="0.8" fill="#FFFFFF" points="288,111 270,120 250,110 270,118 		"/>
		<polygon opacity="0.8" fill="#FFFFFF" points="230,100 213,91 212,90 229,81 214,90 		"/>
	</g>
</g>
</svg>
