<?xml version="1.0" encoding="utf-8"?>
<!-- Generator: Adobe Illustrator 18.1.0, SVG Export Plug-In . SVG Version: 6.00 Build 0)  -->
<svg version="1.1" id="Layer_1" xmlns="http://www.w3.org/2000/svg" xmlns:xlink="http://www.w3.org/1999/xlink" x="0px" y="0px"
	 viewBox="0 0 480 400" enable-background="new 0 0 480 400" xml:space="preserve">
<polygon opacity="0.3" fill="#262626" points="150,355 10,285 330,125 470,195 "/>
<g>
	<polygon fill="#2D3134" points="224.1,299.3 173.9,285.4 208.5,265.5 226,282.4 	"/>
	<polygon opacity="0.29" points="224.1,299.3 173.9,285.4 208.5,265.5 226,282.4 	"/>
	<polygon fill="#2D3134" points="415.5,202 365.3,188 400,168.1 417.5,185 	"/>
	<polygon opacity="0.29" points="415.5,202 365.3,188 400,168.1 417.5,185 	"/>
	<g>
		<path fill="#2D3134" d="M186.6,276.3c6.7-3.4,12.8-3.8,17.3-1.7l0,0l9.5,5.1l0,0c4.8,2.2,7.9,7.1,7.9,14.3
			c0,13.9-11.3,30.9-25.2,37.8c-6.9,3.4-13.1,3.8-17.7,1.6c0,0-9.4-5-10.4-5.6c-4.1-2.4-6.6-7.1-6.6-13.6
			C161.4,300.2,172.7,283.3,186.6,276.3z"/>
		<path opacity="0.29" d="M178.1,333.3c-1.8-0.9-9.2-4.9-10.1-5.5c-4.1-2.4-6.6-7.1-6.6-13.6c0-5.6,1.8-11.7,4.9-17.4l9.5,5.1
			c-3.1,5.7-4.9,11.8-4.9,17.4C170.8,326.1,173.6,331,178.1,333.3z"/>
		<g>
			<path fill="#2D3134" d="M170.8,319.3c0,13.9,11.3,19.6,25.2,12.6c13.9-7,25.2-23.9,25.2-37.8S210,274.5,196,281.5
				C182.1,288.4,170.8,305.4,170.8,319.3z"/>
			<path fill="#E5E5E5" d="M176.3,316.5c0,10.9,8.8,15.3,19.7,9.9s19.7-18.7,19.7-29.6c0-10.9-8.8-15.3-19.7-9.9
				C185.2,292.4,176.3,305.6,176.3,316.5z"/>
			<g>
				<path fill="#2D3134" d="M183.1,325.3c-3-1.7-4.8-5-4.8-9.7c0-0.4,0-0.8,0-1.1l11-1.7L183.1,325.3z"/>
				<path fill="#2D3134" d="M191.9,303.6l-11.5,2.5c2.4-5.7,6.7-11.3,11.9-14.9L191.9,303.6z"/>
				<path fill="#2D3134" d="M200.1,299.5l-0.4-12c5.2-1.5,9.5-0.3,11.9,3L200.1,299.5z"/>
				<path fill="#2D3134" d="M213.7,296.7c0,0.4,0,0.7,0,1.1c0,4.7-1.8,9.8-4.8,14.5l-6.3-6.2L213.7,296.7z"/>
				<path fill="#2D3134" d="M196,314.2l6.8,5.5c-2.1,1.9-4.4,3.5-6.8,4.7s-4.7,1.9-6.8,2L196,314.2z"/>
			</g>
		</g>
		<path opacity="0.11" d="M170.8,319.3c0,13.9,11.3,19.6,25.2,12.6s25.2-23.9,25.2-37.8S210,274.5,196,281.5
			C182.1,288.4,170.8,305.4,170.8,319.3z"/>
	</g>
	<g>
		<path fill="#2D3134" d="M378.7,179.6c6.7-3.4,12.8-3.8,17.3-1.7l0,0l9.5,5.1l0,0c4.8,2.2,7.9,7.1,7.9,14.3
			c0,13.9-11.3,30.9-25.2,37.8c-6.9,3.4-13.1,3.8-17.7,1.6c0,0-9.4-5-10.4-5.6c-4.1-2.4-6.6-7.1-6.6-13.6
			C353.5,203.5,364.8,186.6,378.7,179.6z"/>
		<path opacity="0.29" d="M370.2,236.6c-1.8-0.9-9.2-4.9-10.1-5.5c-4.1-2.4-6.6-7.1-6.6-13.6c0-5.6,1.8-11.7,4.9-17.4l9.5,5.1
			c-3.1,5.7-4.9,11.8-4.9,17.4C363,229.4,365.7,234.2,370.2,236.6z"/>
		<g>
			<path fill="#2D3134" d="M363,222.5c0,13.9,11.3,19.6,25.2,12.6c13.9-7,25.2-23.9,25.2-37.8c0-13.9-11.3-19.6-25.2-12.6
				C374.2,191.7,363,208.6,363,222.5z"/>
			<path fill="#E5E5E5" d="M368.5,219.8c0,10.9,8.8,15.3,19.7,9.9c10.9-5.4,19.7-18.7,19.7-29.6c0-10.9-8.8-15.3-19.7-9.9
				C377.3,195.7,368.5,208.9,368.5,219.8z"/>
			<g>
				<path fill="#2D3134" d="M375.2,228.5c-3-1.7-4.8-5-4.8-9.7c0-0.4,0-0.8,0-1.1l11-1.7L375.2,228.5z"/>
				<path fill="#2D3134" d="M384.1,206.8l-11.5,2.5c2.4-5.7,6.7-11.3,11.9-14.9L384.1,206.8z"/>
				<path fill="#2D3134" d="M392.3,202.7l-0.4-12c5.2-1.5,9.5-0.3,11.9,3L392.3,202.7z"/>
				<path fill="#2D3134" d="M405.9,199.9c0,0.4,0,0.7,0,1.1c0,4.7-1.8,9.8-4.8,14.5l-6.3-6.2L405.9,199.9z"/>
				<path fill="#2D3134" d="M388.2,217.5l6.8,5.5c-2.1,1.9-4.4,3.5-6.8,4.7c-2.4,1.2-4.7,1.9-6.8,2L388.2,217.5z"/>
			</g>
		</g>
		<path opacity="0.11" d="M363,222.5c0,13.9,11.3,19.6,25.2,12.6s25.2-23.9,25.2-37.8c0-13.9-11.3-19.6-25.2-12.6
			C374.2,191.7,363,208.6,363,222.5z"/>
	</g>
	<path fill="#333399" d="M32.9,214c4.5-4.7,57.2-46.1,66.7-53.4c9.5-7.2,80.5-55.4,114.2-57.4c33.7-2,40.5-0.9,54.3-4.5
		c13.8-3.6,44.5-11.3,91.3,4.1s76.6,44.5,76.6,68.3c0,8-1.6,16.1-12.4,24.9c-1.8,1.5-4.6,3.4-7.9,5.5c0.2-1.5,0.4-3,0.4-4.5
		c0-10.6-6.2-17.4-15.8-17.4c-3.8,0-7.9,1.1-12.1,3.2c-14.5,7.2-26.2,24.9-26.2,39.4c0,3.2,0.6,6.1,1.7,8.6l-140.3,68.7
		c0.4-2,0.6-3.9,0.6-5.8c0-10.6-6.2-17.4-15.8-17.4c-3.8,0-7.9,1.1-12.1,3.2c-14.5,7.2-26.2,24.9-26.2,39.4c0,1.8,0.2,3.5,0.5,5.1
		c-5.4,1.6-12.9,3.3-22,4.2c-20.3,2-53.6-4.1-83.4-19.9c-34-18-47.3-35.3-48.8-44.3C14.6,254.9,28.4,218.7,32.9,214z"/>
	<path fill="#E5E5E5" d="M353.2,172.4l0.7-0.5c0.1,0.1,6.8,9.8,7.5,26.7c0.7,17.3-4.9,29.1-7.2,30.7c-1.2,0.9-31.6,15.9-60.5,29.8
		c-52.4,25.2-60,27.5-61.5,27.5c-0.2,0-0.3,0-0.4-0.1c-3.7-1.6-36.5-45.5-37.9-47.4C194,239.1,353.3,172.5,353.2,172.4z"/>
	<path opacity="0.2" d="M283.9,215.1c0,2.9,2.4,4.1,5.3,2.7c2.9-1.5,5.3-5,5.3-8c0-2.9-2.4-4.1-5.3-2.7
		C286.3,208.6,283.9,212.1,283.9,215.1z"/>
	<path fill="#E5E5E5" d="M283.9,217.6l-2.3-2.6c0,0,16.7-10.9,18.2-8.7C301.4,208.4,283.9,217.6,283.9,217.6z"/>
	<path opacity="0.2" d="M209.7,246.6c0,2.9,2.4,4.1,5.3,2.7c2.9-1.5,5.3-5,5.3-8s-2.4-4.1-5.3-2.7
		C212.1,240.1,209.7,243.7,209.7,246.6z"/>
	<path fill="#E5E5E5" d="M209.7,249.2l-2.3-2.6c0,0,16.7-10.9,18.2-8.7C227.1,240,209.7,249.2,209.7,249.2z"/>
	<path fill="#2D3134" d="M353.6,172.1l-169.8,70.8c0,0,16.5-60,71.2-82.1C313.8,137.1,353.6,172.1,353.6,172.1z"/>
	<path fill="#656565" d="M335,176l-60.7,25.3l-21.1-35.7c1-0.5,2.1-0.9,3.2-1.3c13.1-5.3,26.3-8,39.3-8c13.1,0,24.3,2.8,33.2,6.2
		L335,176z"/>
	<path fill="#656565" d="M261.9,206.4L195,234.3l-1.8-5.8c2.2-4.9,5.2-10.6,8.9-16.6c8.4-13.5,22.3-30.9,43.4-42.5L261.9,206.4z"/>
	<path fill="#2D3134" d="M217.5,105.4c-1.5-2.4,46.1-2.4,58.6-0.8c12.5,1.7,33.3,6.2,52.2,16.6c16,8.8,40.4,30,27.6,32.6
		c-12.8,2.6-63-10.7-64.8-11.8c-1.8-1.1-17.8-15.2-35.1-23.4S218.3,106.6,217.5,105.4z"/>
	<path fill="#656565" d="M225.2,106c-0.2-0.1-0.5-0.1-0.7-0.2c4.6-0.3,11.7-0.5,20.9-0.5c5.8,0,11.5,0.1,16.4,0.3
		c18.8,4.8,39.3,12.1,51.4,17.9c15.5,7.4,30.2,16.4,37.5,28.8c-17.1-0.4-56.4-10.8-58.8-11.9c-0.3-0.2-1.4-1.1-2.6-2
		c-5.6-4.5-18.7-14.9-32.7-21.4C245.4,111.7,232.8,108.1,225.2,106z"/>
	<path fill="#2D3134" d="M106,162.8c-8.6,0.6-22.6,13.6-28,17.9c-5.4,4.4-23.1,15.8-11.2,29.7c11.9,13.9,31.4,22.6,49.4,27.3
		s33.5,7.2,44.2-1.8c10.7-9,17.6-23.4,19.4-26.8s4.7-7.7-4.4-15.1C164.9,185.4,126.5,161.4,106,162.8z"/>
	<path fill="#656565" d="M106,164.5c-8.2,0.5-21.5,12.9-26.7,17.1c-5.2,4.2-22,15.1-10.6,28.3c11.3,13.2,29.8,21.5,47.1,26
		c17.2,4.4,31.9,6.9,42-1.7c10.2-8.6,16.8-22.2,18.5-25.5c1.7-3.3,4.5-7.3-4.2-14.3C162.1,186.1,125.6,163.3,106,164.5z"/>
	<path opacity="0.2" d="M65,198.9c1.3-8.1,10.7-14.3,14.3-17.2c5.2-4.2,18.5-16.5,26.7-17.1c19.5-1.3,56.1,21.5,66.1,29.7
		c4.8,3.9,6.1,6.9,6,9.3C141.3,193,102.5,191.4,65,198.9z"/>
	<path fill="#CC291F" d="M136.1,298.9c0,0-5,2-8.7,1.1c-3.8-0.9-19.6-6.3-19.6-6.3s6.6-23.2,13.9-29.2c7.2-6,15.5-5.1,17.2-4.1
		S138.2,296,136.1,298.9z"/>
	<path fill="#CC291F" d="M33.2,256.1c0,0-12.4-6.9-12.4-9.8c0-2.9,5.4-24.9,9.3-29.5s7.2-7.2,8.7-6.3
		C40.4,211.3,33.3,254.7,33.2,256.1z"/>
	<path fill="#2D3134" d="M91.1,265.1c-1.5-2.9-36.5-20.2-38.6-19.4c-2.1,0.8-3,15.5-0.5,18.8c2.6,3.3,27.7,17.3,32.6,16.4
		S92.4,267.7,91.1,265.1z"/>
	<polygon fill="#E5E5E5" points="84.9,263.5 82.2,277.2 56.4,263.9 59.1,250.4 	"/>
	<path fill="#2D3134" d="M107.8,293.6l-2.9,5c0,0-19.9-6.3-38.4-16c-18.5-9.6-33.9-21-33.9-21l0.6-5.6c0,0,13.6,10.9,34.2,21.4
		C87,287.5,107.8,293.6,107.8,293.6z"/>
	<path opacity="0.3" fill="#FFFFFF" d="M414.6,158.1l-61,14l-169.8,70.8l-44.3,30.8c0,0,72.8-24.2,137.5-54.3
		S414.6,158.1,414.6,158.1z"/>
	<path opacity="0.2" d="M194.7,238.6c9.5,12.7,34.7,45.9,37.6,47.1c0.8,0.1,6.9-1.6,44.4-19.4l0,0c1-1.5,3.1-14.4,1.7-30.5
		c-1.4-17.5-9-28.2-9.1-28.3l0.7-0.5c0.1,0.1,7.8,11,9.3,28.8c1.2,14.3-0.3,26.2-1.5,30c4.8-2.3,10.1-4.8,16-7.6
		c29.9-14.4,58.9-28.8,59.9-29.5c1.9-1.3,7.5-12.8,6.8-29.9c-0.7-16.6-7.3-26.1-7.3-26.2l0.7-0.5c0.1,0.1,6.8,9.8,7.5,26.7
		c0.7,17.3-4.9,29.1-7.2,30.7c-1.2,0.9-31.6,15.9-60.5,29.8c-52.4,25.2-60,27.5-61.5,27.5c-0.2,0-0.3,0-0.4-0.1
		c-3.7-1.6-36.5-45.5-37.9-47.4L194.7,238.6z"/>
	<path fill="#2D3134" d="M181.5,204.9c9.2-21.2,67.9-69.4,112-62.3l0.2-1.3c-26.7-4.3-55.5,11.2-70.2,20.8
		c-20.1,13.1-38.2,30.8-43.2,42.3L181.5,204.9z"/>
	<path fill="#2D3134" d="M100.9,165.7c39.5-27,92.3-59.3,119.3-59.9l0-1.4c-27.3,0.6-80.4,33-120.1,60.1L100.9,165.7z"/>
	<path fill="#2D3134" d="M339,179.4l-2.9-11.5c0,0,5.1-2.6,6.9-1.2c1.8,1.4,5.7,12.8,2.7,16.3c-3,3.5-3.9,3.6-3.9,3.6L339,179.4z"/>
	<path opacity="0.29" d="M16.2,263.9c-0.4-2.3,0.2-6.2,1.3-10.9c9.3,10.1,25.8,24.2,52.3,36.3c28.3,12.9,46.6,18,56.6,20.1
		c-0.5,5-0.3,13.4-0.5,18.2c-18.4-2.2-40.4-8.5-60.8-19.3C31.1,290.2,17.8,273,16.2,263.9z"/>
	<path fill="#E5E5E5" d="M417.8,157.2c0,0,0.5-8.8-1.8-12.4c-2.3-3.6-0.8-8.9,1.9-8.3c3.2,0.7,12.6,13.5,13.1,16.4
		C431.3,155.9,417.8,157.2,417.8,157.2z"/>
	<path opacity="0.2" d="M416.5,142.8c0,2.5,2,5.6,4.5,6.8c2.5,1.3,4.5,0.2,4.5-2.3s-2-5.6-4.5-6.8
		C418.5,139.3,416.5,140.3,416.5,142.8z"/>
	<path opacity="0.4" fill="#FFFFFF" d="M419.5,144.3c0,1.3,1.1,3,2.4,3.6c1.3,0.7,2.4,0.1,2.4-1.2c0-1.3-1.1-3-2.4-3.6
		C420.6,142.4,419.5,142.9,419.5,144.3z"/>
	<path opacity="0.4" fill="#FFFFFF" d="M419.2,150.6c0,1.3,1.1,3,2.4,3.6s2.4,0.1,2.4-1.2s-1.1-3-2.4-3.6S419.2,149.3,419.2,150.6z"
		/>
	<polygon opacity="0.8" fill="#FFFFFF" points="135.5,279.2 134.4,285.5 129.3,286.1 114.2,281 116.7,275.1 129.9,280 	"/>
	<polygon opacity="0.8" fill="#FFFFFF" points="35,234.1 25.8,227.8 23.9,233.1 33.6,240.6 	"/>
	<g>
		<polygon fill="#2D3134" points="218,161 160,131 182,120 241,149 		"/>
		<g>
			<path fill="#3399CC" d="M220,130l15.5,7.8c2.7,1.4,4.5,4.2,4.5,7.2v0c0,3.1-1.7,5.9-4.5,7.2l-11.9,6c-2.3,1.1-5,1.1-7.2,0
				L200,150v-10L220,130z"/>
			<path fill="#CC291F" d="M164.5,117.8l11.9-6c2.3-1.1,5-1.1,7.2,0L200,120l-20,10v10l-15.5-7.8c-2.7-1.4-4.5-4.2-4.5-7.2v0
				C160,122,161.7,119.2,164.5,117.8z"/>
			<polygon fill="#E5E5E5" points="200,120 220,130 200,140 200,150 180,140 180,130 			"/>
			<polygon opacity="0.29" points="200,140 200,150 180,140 180,130 			"/>
		</g>
		<path opacity="0.29" d="M180,130v10l-15.5-7.8c-2.7-1.4-4.5-4.2-4.5-7.2c0-1.6,0.5-3.1,1.3-4.4L180,130z"/>
		<path opacity="0.29" d="M220,150v9c-1.2,0-2.5-0.3-3.6-0.9L200,150v-10L220,150z"/>
		<path opacity="0.11" d="M238.7,140.7c0.8,1.3,1.3,2.8,1.3,4.4c0,3.1-1.7,5.9-4.5,7.2l-11.9,6c-1.1,0.6-2.4,0.9-3.6,0.9v-9
			L238.7,140.7z"/>
		<polygon opacity="0.8" fill="#FFFFFF" points="238,141 220,150 200,140 220,148 		"/>
		<polygon opacity="0.8" fill="#FFFFFF" points="180,130 163,121 162,120 179,111 164,120 		"/>
	</g>
	<g>
		<path fill="#2D3134" d="M243.6,263.9v-18.6l6-3.1c2.3-1.2,3.8-1.8,4.5-2c1.1-0.3,2-0.1,2.7,0.5c0.7,0.6,1.1,1.6,1.1,3.1
			c0,1.1-0.2,2.2-0.6,3.2c-0.4,1-0.9,1.9-1.6,2.6c-0.6,0.8-1.3,1.4-1.9,1.9c-0.9,0.6-2.2,1.4-3.9,2.3l-2.5,1.2v7L243.6,263.9z
			 M247.3,246.5v5.3l2.1-1c1.5-0.8,2.5-1.4,3-1.8c0.5-0.4,0.9-1,1.2-1.5s0.4-1.1,0.4-1.7c0-0.7-0.2-1.1-0.6-1.4
			c-0.4-0.2-0.9-0.3-1.5-0.1c-0.4,0.1-1.4,0.6-2.7,1.3L247.3,246.5z"/>
		<path fill="#2D3134" d="M260.1,246.2c0-1.9,0.3-3.6,0.9-5.2c0.4-1.2,1-2.3,1.7-3.4s1.5-2.1,2.4-2.9c1.2-1.1,2.5-2,4-2.8
			c2.7-1.4,4.9-1.7,6.6-0.8c1.6,0.9,2.5,2.8,2.5,5.8c0,3-0.8,5.8-2.5,8.3c-1.6,2.5-3.8,4.5-6.6,5.9c-2.8,1.4-5,1.7-6.6,0.8
			C261,251.1,260.1,249.2,260.1,246.2z M264,244.1c0,2.1,0.5,3.5,1.5,4c1,0.6,2.2,0.5,3.7-0.3c1.5-0.8,2.7-1.9,3.7-3.5
			c1-1.6,1.4-3.4,1.4-5.6c0-2.1-0.5-3.5-1.4-4.1c-0.9-0.6-2.2-0.5-3.7,0.3s-2.8,2-3.7,3.5C264.5,240.1,264,242,264,244.1z"/>
		<path fill="#2D3134" d="M281.2,244.7v-18.5l3.8-1.9v15.3l9.3-4.8v3.1L281.2,244.7z"/>
		<path fill="#2D3134" d="M296.9,236.7v-18.6l3.8-1.9v18.6L296.9,236.7z"/>
		<path fill="#2D3134" d="M316.1,220l3.6-0.7c-0.6,2.3-1.5,4.3-2.8,5.9c-1.3,1.6-2.9,3-4.9,4c-2.5,1.3-4.5,1.4-6.1,0.6
			c-1.6-0.9-2.4-2.8-2.4-5.7c0-3.1,0.8-5.9,2.4-8.4c1.6-2.5,3.7-4.5,6.3-5.8c2.3-1.2,4.1-1.4,5.5-0.8c0.8,0.4,1.5,1.2,1.9,2.5
			l-3.7,2.8c-0.2-0.9-0.7-1.4-1.4-1.6c-0.7-0.2-1.5,0-2.5,0.5c-1.4,0.7-2.5,1.8-3.4,3.2c-0.9,1.4-1.3,3.3-1.3,5.5
			c0,2.4,0.4,3.8,1.3,4.4c0.8,0.6,1.9,0.5,3.3-0.2c1-0.5,1.9-1.3,2.6-2.3C315.3,222.8,315.8,221.6,316.1,220z"/>
		<path fill="#2D3134" d="M323,223.4v-18.6l13.8-7v3.1l-10,5.1v4.1l9.3-4.8v3.1l-9.3,4.8v5.1l10.4-5.3v3.1L323,223.4z"/>
	</g>
	<path opacity="0.11" d="M133.4,266.9c2.3-8.1,20.5-12.8,35.3-26.7c13.5-12.6,30.3-58.9,80.9-80.2c51.5-21.6,85.8-0.3,112.6,2.7
		c18.3,2,46.3-6.3,66.9-12.8c4.5,7.2,6.9,14.4,6.9,21.1c0,8-1.6,16.1-12.4,24.9c-1.8,1.5-4.6,3.4-7.9,5.5c0.2-1.5,0.4-3,0.4-4.5
		c0-10.6-6.2-17.4-15.8-17.4c-3.8,0-7.9,1.1-12.1,3.2c-14.5,7.2-26.2,24.9-26.2,39.4c0,3.2,0.6,6.1,1.7,8.6l-140.3,68.7
		c0.4-2,0.6-3.9,0.6-5.8c0-10.6-6.2-17.4-15.8-17.4c-3.8,0-7.9,1.1-12.1,3.2c-14.5,7.2-26.2,24.9-26.2,39.4c0,1.8,0.2,3.5,0.5,5.1
		c-5.4,1.6-12.9,3.3-22,4.2c-6.4,0.6-14,0.5-22.4-0.5C126.8,287.8,131.7,272.7,133.4,266.9z"/>
</g>
</svg>
