<?xml version="1.0" encoding="utf-8"?>
<!-- Generator: Adobe Illustrator 18.1.0, SVG Export Plug-In . SVG Version: 6.00 Build 0)  -->
<svg version="1.1" id="Layer_1" xmlns="http://www.w3.org/2000/svg" xmlns:xlink="http://www.w3.org/1999/xlink" x="0px" y="0px"
	 viewBox="0 0 160 136" enable-background="new 0 0 160 136" xml:space="preserve">
<g>
	<g>
		<polygon fill="#BAA794" points="160,80 48,136 48,88 160,32 		"/>
		<polygon fill="#F8EBCB" points="160,34 48,90 48,88 160,32 		"/>
		<g opacity="0.4">
			<polygon fill="#762C07" points="52,131 49,132.5 49,134.5 52,133 			"/>
			<polygon fill="#762C07" points="56,129 53,130.5 53,132.5 56,131 			"/>
			<polygon fill="#762C07" points="60,127 57,128.5 57,130.5 60,129 			"/>
			<polygon fill="#762C07" points="64,125 61,126.5 61,128.5 64,127 			"/>
			<polygon fill="#762C07" points="68,123 65,124.5 65,126.5 68,125 			"/>
			<polygon fill="#762C07" points="72,121 69,122.5 69,124.5 72,123 			"/>
			<polygon fill="#762C07" points="76,119 73,120.5 73,122.5 76,121 			"/>
			<polygon fill="#762C07" points="80,117 77,118.5 77,120.5 80,119 			"/>
			<polygon fill="#762C07" points="84,115 81,116.5 81,118.5 84,117 			"/>
			<polygon fill="#762C07" points="88,113 85,114.5 85,116.5 88,115 			"/>
			<polygon fill="#762C07" points="92,111 89,112.5 89,114.5 92,113 			"/>
			<polygon fill="#762C07" points="96,109 93,110.5 93,112.5 96,111 			"/>
			<polygon fill="#762C07" points="100,107 97,108.5 97,110.5 100,109 			"/>
			<polygon fill="#762C07" points="104,105 101,106.5 101,108.5 104,107 			"/>
			<polygon fill="#762C07" points="108,103 105,104.5 105,106.5 108,105 			"/>
			<polygon fill="#762C07" points="50,129 48,130 48,132 50,131 			"/>
			<polygon fill="#762C07" points="54,127 51,128.5 51,130.5 54,129 			"/>
			<polygon fill="#762C07" points="58,125 55,126.5 55,128.5 58,127 			"/>
			<polygon fill="#762C07" points="62,123 59,124.5 59,126.5 62,125 			"/>
			<polygon fill="#762C07" points="66,121 63,122.5 63,124.5 66,123 			"/>
			<polygon fill="#762C07" points="70,119 67,120.5 67,122.5 70,121 			"/>
			<polygon fill="#762C07" points="74,117 71,118.5 71,120.5 74,119 			"/>
			<polygon fill="#762C07" points="78,115 75,116.5 75,118.5 78,117 			"/>
			<polygon fill="#762C07" points="82,113 79,114.5 79,116.5 82,115 			"/>
			<polygon fill="#762C07" points="86,111 83,112.5 83,114.5 86,113 			"/>
			<polygon fill="#762C07" points="90,109 87,110.5 87,112.5 90,111 			"/>
			<polygon fill="#762C07" points="94,107 91,108.5 91,110.5 94,109 			"/>
			<polygon fill="#762C07" points="98,105 95,106.5 95,108.5 98,107 			"/>
			<polygon fill="#762C07" points="102,103 99,104.5 99,106.5 102,105 			"/>
			<polygon fill="#762C07" points="106,101 103,102.5 103,104.5 106,103 			"/>
			<polygon fill="#762C07" points="52,125 49,126.5 49,128.5 52,127 			"/>
			<polygon fill="#762C07" points="56,123 53,124.5 53,126.5 56,125 			"/>
			<polygon fill="#762C07" points="60,121 57,122.5 57,124.5 60,123 			"/>
			<polygon fill="#762C07" points="64,119 61,120.5 61,122.5 64,121 			"/>
			<polygon fill="#762C07" points="68,117 65,118.5 65,120.5 68,119 			"/>
			<polygon fill="#762C07" points="72,115 69,116.5 69,118.5 72,117 			"/>
			<polygon fill="#762C07" points="76,113 73,114.5 73,116.5 76,115 			"/>
			<polygon fill="#762C07" points="80,111 77,112.5 77,114.5 80,113 			"/>
			<polygon fill="#762C07" points="84,109 81,110.5 81,112.5 84,111 			"/>
			<polygon fill="#762C07" points="88,107 85,108.5 85,110.5 88,109 			"/>
			<polygon fill="#762C07" points="92,105 89,106.5 89,108.5 92,107 			"/>
			<polygon fill="#762C07" points="96,103 93,104.5 93,106.5 96,105 			"/>
			<polygon fill="#762C07" points="100,101 97,102.5 97,104.5 100,103 			"/>
			<polygon fill="#762C07" points="104,99 101,100.5 101,102.5 104,101 			"/>
			<polygon fill="#762C07" points="108,97 105,98.5 105,100.5 108,99 			"/>
			<polygon fill="#762C07" points="50,123 48,124 48,126 50,125 			"/>
			<polygon fill="#762C07" points="54,121 51,122.5 51,124.5 54,123 			"/>
			<polygon fill="#762C07" points="58,119 55,120.5 55,122.5 58,121 			"/>
			<polygon fill="#762C07" points="62,117 59,118.5 59,120.5 62,119 			"/>
			<polygon fill="#762C07" points="66,115 63,116.5 63,118.5 66,117 			"/>
			<polygon fill="#762C07" points="70,113 67,114.5 67,116.5 70,115 			"/>
			<polygon fill="#762C07" points="74,111 71,112.5 71,114.5 74,113 			"/>
			<polygon fill="#762C07" points="78,109 75,110.5 75,112.5 78,111 			"/>
			<polygon fill="#762C07" points="82,107 79,108.5 79,110.5 82,109 			"/>
			<polygon fill="#762C07" points="86,105 83,106.5 83,108.5 86,107 			"/>
			<polygon fill="#762C07" points="90,103 87,104.5 87,106.5 90,105 			"/>
			<polygon fill="#762C07" points="94,101 91,102.5 91,104.5 94,103 			"/>
			<polygon fill="#762C07" points="98,99 95,100.5 95,102.5 98,101 			"/>
			<polygon fill="#762C07" points="102,97 99,98.5 99,100.5 102,99 			"/>
			<polygon fill="#762C07" points="106,95 103,96.5 103,98.5 106,97 			"/>
			<polygon fill="#762C07" points="52,119 49,120.5 49,122.5 52,121 			"/>
			<polygon fill="#762C07" points="56,117 53,118.5 53,120.5 56,119 			"/>
			<polygon fill="#762C07" points="60,115 57,116.5 57,118.5 60,117 			"/>
			<polygon fill="#762C07" points="64,113 61,114.5 61,116.5 64,115 			"/>
			<polygon fill="#762C07" points="68,111 65,112.5 65,114.5 68,113 			"/>
			<polygon fill="#762C07" points="72,109 69,110.5 69,112.5 72,111 			"/>
			<polygon fill="#762C07" points="76,107 73,108.5 73,110.5 76,109 			"/>
			<polygon fill="#762C07" points="80,105 77,106.5 77,108.5 80,107 			"/>
			<polygon fill="#762C07" points="84,103 81,104.5 81,106.5 84,105 			"/>
			<polygon fill="#762C07" points="88,101 85,102.5 85,104.5 88,103 			"/>
			<polygon fill="#762C07" points="92,99 89,100.5 89,102.5 92,101 			"/>
			<polygon fill="#762C07" points="96,97 93,98.5 93,100.5 96,99 			"/>
			<polygon fill="#762C07" points="100,95 97,96.5 97,98.5 100,97 			"/>
			<polygon fill="#762C07" points="104,93 101,94.5 101,96.5 104,95 			"/>
			<polygon fill="#762C07" points="108,91 105,92.5 105,94.5 108,93 			"/>
			<polygon fill="#762C07" points="50,117 48,118 48,120 50,119 			"/>
			<polygon fill="#762C07" points="54,115 51,116.5 51,118.5 54,117 			"/>
			<polygon fill="#762C07" points="58,113 55,114.5 55,116.5 58,115 			"/>
			<polygon fill="#762C07" points="62,111 59,112.5 59,114.5 62,113 			"/>
			<polygon fill="#762C07" points="66,109 63,110.5 63,112.5 66,111 			"/>
			<polygon fill="#762C07" points="70,107 67,108.5 67,110.5 70,109 			"/>
			<polygon fill="#762C07" points="74,105 71,106.5 71,108.5 74,107 			"/>
			<polygon fill="#762C07" points="78,103 75,104.5 75,106.5 78,105 			"/>
			<polygon fill="#762C07" points="82,101 79,102.5 79,104.5 82,103 			"/>
			<polygon fill="#762C07" points="86,99 83,100.5 83,102.5 86,101 			"/>
			<polygon fill="#762C07" points="90,97 87,98.5 87,100.5 90,99 			"/>
			<polygon fill="#762C07" points="94,95 91,96.5 91,98.5 94,97 			"/>
			<polygon fill="#762C07" points="98,93 95,94.5 95,96.5 98,95 			"/>
			<polygon fill="#762C07" points="102,91 99,92.5 99,94.5 102,93 			"/>
			<polygon fill="#762C07" points="106,89 103,90.5 103,92.5 106,91 			"/>
			<polygon fill="#762C07" points="52,113 49,114.5 49,116.5 52,115 			"/>
			<polygon fill="#762C07" points="56,111 53,112.5 53,114.5 56,113 			"/>
			<polygon fill="#762C07" points="60,109 57,110.5 57,112.5 60,111 			"/>
			<polygon fill="#762C07" points="64,107 61,108.5 61,110.5 64,109 			"/>
			<polygon fill="#762C07" points="68,105 65,106.5 65,108.5 68,107 			"/>
			<polygon fill="#762C07" points="72,103 69,104.5 69,106.5 72,105 			"/>
			<polygon fill="#762C07" points="76,101 73,102.5 73,104.5 76,103 			"/>
			<polygon fill="#762C07" points="80,99 77,100.5 77,102.5 80,101 			"/>
			<polygon fill="#762C07" points="84,97 81,98.5 81,100.5 84,99 			"/>
			<polygon fill="#762C07" points="88,95 85,96.5 85,98.5 88,97 			"/>
			<polygon fill="#762C07" points="92,93 89,94.5 89,96.5 92,95 			"/>
			<polygon fill="#762C07" points="96,91 93,92.5 93,94.5 96,93 			"/>
			<polygon fill="#762C07" points="100,89 97,90.5 97,92.5 100,91 			"/>
			<polygon fill="#762C07" points="104,87 101,88.5 101,90.5 104,89 			"/>
			<polygon fill="#762C07" points="108,85 105,86.5 105,88.5 108,87 			"/>
			<polygon fill="#762C07" points="50,111 48,112 48,114 50,113 			"/>
			<polygon fill="#762C07" points="54,109 51,110.5 51,112.5 54,111 			"/>
			<polygon fill="#762C07" points="58,107 55,108.5 55,110.5 58,109 			"/>
			<polygon fill="#762C07" points="62,105 59,106.5 59,108.5 62,107 			"/>
			<polygon fill="#762C07" points="66,103 63,104.5 63,106.5 66,105 			"/>
			<polygon fill="#762C07" points="70,101 67,102.5 67,104.5 70,103 			"/>
			<polygon fill="#762C07" points="74,99 71,100.5 71,102.5 74,101 			"/>
			<polygon fill="#762C07" points="78,97 75,98.5 75,100.5 78,99 			"/>
			<polygon fill="#762C07" points="82,95 79,96.5 79,98.5 82,97 			"/>
			<polygon fill="#762C07" points="86,93 83,94.5 83,96.5 86,95 			"/>
			<polygon fill="#762C07" points="90,91 87,92.5 87,94.5 90,93 			"/>
			<polygon fill="#762C07" points="94,89 91,90.5 91,92.5 94,91 			"/>
			<polygon fill="#762C07" points="98,87 95,88.5 95,90.5 98,89 			"/>
			<polygon fill="#762C07" points="102,85 99,86.5 99,88.5 102,87 			"/>
			<polygon fill="#762C07" points="106,83 103,84.5 103,86.5 106,85 			"/>
			<polygon fill="#762C07" points="52,107 49,108.5 49,110.5 52,109 			"/>
			<polygon fill="#762C07" points="56,105 53,106.5 53,108.5 56,107 			"/>
			<polygon fill="#762C07" points="60,103 57,104.5 57,106.5 60,105 			"/>
			<polygon fill="#762C07" points="64,101 61,102.5 61,104.5 64,103 			"/>
			<polygon fill="#762C07" points="68,99 65,100.5 65,102.5 68,101 			"/>
			<polygon fill="#762C07" points="72,97 69,98.5 69,100.5 72,99 			"/>
			<polygon fill="#762C07" points="76,95 73,96.5 73,98.5 76,97 			"/>
			<polygon fill="#762C07" points="80,93 77,94.5 77,96.5 80,95 			"/>
			<polygon fill="#762C07" points="84,91 81,92.5 81,94.5 84,93 			"/>
			<polygon fill="#762C07" points="88,89 85,90.5 85,92.5 88,91 			"/>
			<polygon fill="#762C07" points="92,87 89,88.5 89,90.5 92,89 			"/>
			<polygon fill="#762C07" points="96,85 93,86.5 93,88.5 96,87 			"/>
			<polygon fill="#762C07" points="100,83 97,84.5 97,86.5 100,85 			"/>
			<polygon fill="#762C07" points="104,81 101,82.5 101,84.5 104,83 			"/>
			<polygon fill="#762C07" points="108,79 105,80.5 105,82.5 108,81 			"/>
			<polygon fill="#762C07" points="50,105 48,106 48,108 50,107 			"/>
			<polygon fill="#762C07" points="54,103 51,104.5 51,106.5 54,105 			"/>
			<polygon fill="#762C07" points="58,101 55,102.5 55,104.5 58,103 			"/>
			<polygon fill="#762C07" points="62,99 59,100.5 59,102.5 62,101 			"/>
			<polygon fill="#762C07" points="66,97 63,98.5 63,100.5 66,99 			"/>
			<polygon fill="#762C07" points="70,95 67,96.5 67,98.5 70,97 			"/>
			<polygon fill="#762C07" points="74,93 71,94.5 71,96.5 74,95 			"/>
			<polygon fill="#762C07" points="78,91 75,92.5 75,94.5 78,93 			"/>
			<polygon fill="#762C07" points="82,89 79,90.5 79,92.5 82,91 			"/>
			<polygon fill="#762C07" points="86,87 83,88.5 83,90.5 86,89 			"/>
			<polygon fill="#762C07" points="90,85 87,86.5 87,88.5 90,87 			"/>
			<polygon fill="#762C07" points="94,83 91,84.5 91,86.5 94,85 			"/>
			<polygon fill="#762C07" points="98,81 95,82.5 95,84.5 98,83 			"/>
			<polygon fill="#762C07" points="102,79 99,80.5 99,82.5 102,81 			"/>
			<polygon fill="#762C07" points="106,77 103,78.5 103,80.5 106,79 			"/>
			<polygon fill="#762C07" points="52,101 49,102.5 49,104.5 52,103 			"/>
			<polygon fill="#762C07" points="56,99 53,100.5 53,102.5 56,101 			"/>
			<polygon fill="#762C07" points="60,97 57,98.5 57,100.5 60,99 			"/>
			<polygon fill="#762C07" points="64,95 61,96.5 61,98.5 64,97 			"/>
			<polygon fill="#762C07" points="68,93 65,94.5 65,96.5 68,95 			"/>
			<polygon fill="#762C07" points="72,91 69,92.5 69,94.5 72,93 			"/>
			<polygon fill="#762C07" points="76,89 73,90.5 73,92.5 76,91 			"/>
			<polygon fill="#762C07" points="80,87 77,88.5 77,90.5 80,89 			"/>
			<polygon fill="#762C07" points="84,85 81,86.5 81,88.5 84,87 			"/>
			<polygon fill="#762C07" points="88,83 85,84.5 85,86.5 88,85 			"/>
			<polygon fill="#762C07" points="92,81 89,82.5 89,84.5 92,83 			"/>
			<polygon fill="#762C07" points="96,79 93,80.5 93,82.5 96,81 			"/>
			<polygon fill="#762C07" points="100,77 97,78.5 97,80.5 100,79 			"/>
			<polygon fill="#762C07" points="104,75 101,76.5 101,78.5 104,77 			"/>
			<polygon fill="#762C07" points="108,73 105,74.5 105,76.5 108,75 			"/>
			<polygon fill="#762C07" points="50,99 48,100 48,102 50,101 			"/>
			<polygon fill="#762C07" points="54,97 51,98.5 51,100.5 54,99 			"/>
			<polygon fill="#762C07" points="58,95 55,96.5 55,98.5 58,97 			"/>
			<polygon fill="#762C07" points="62,93 59,94.5 59,96.5 62,95 			"/>
			<polygon fill="#762C07" points="66,91 63,92.5 63,94.5 66,93 			"/>
			<polygon fill="#762C07" points="70,89 67,90.5 67,92.5 70,91 			"/>
			<polygon fill="#762C07" points="74,87 71,88.5 71,90.5 74,89 			"/>
			<polygon fill="#762C07" points="78,85 75,86.5 75,88.5 78,87 			"/>
			<polygon fill="#762C07" points="82,83 79,84.5 79,86.5 82,85 			"/>
			<polygon fill="#762C07" points="86,81 83,82.5 83,84.5 86,83 			"/>
			<polygon fill="#762C07" points="90,79 87,80.5 87,82.5 90,81 			"/>
			<polygon fill="#762C07" points="94,77 91,78.5 91,80.5 94,79 			"/>
			<polygon fill="#762C07" points="98,75 95,76.5 95,78.5 98,77 			"/>
			<polygon fill="#762C07" points="102,73 99,74.5 99,76.5 102,75 			"/>
			<polygon fill="#762C07" points="106,71 103,72.5 103,74.5 106,73 			"/>
			<polygon fill="#762C07" points="52,95 49,96.5 49,98.5 52,97 			"/>
			<polygon fill="#762C07" points="56,93 53,94.5 53,96.5 56,95 			"/>
			<polygon fill="#762C07" points="60,91 57,92.5 57,94.5 60,93 			"/>
			<polygon fill="#762C07" points="64,89 61,90.5 61,92.5 64,91 			"/>
			<polygon fill="#762C07" points="68,87 65,88.5 65,90.5 68,89 			"/>
			<polygon fill="#762C07" points="72,85 69,86.5 69,88.5 72,87 			"/>
			<polygon fill="#762C07" points="76,83 73,84.5 73,86.5 76,85 			"/>
			<polygon fill="#762C07" points="80,81 77,82.5 77,84.5 80,83 			"/>
			<polygon fill="#762C07" points="84,79 81,80.5 81,82.5 84,81 			"/>
			<polygon fill="#762C07" points="88,77 85,78.5 85,80.5 88,79 			"/>
			<polygon fill="#762C07" points="92,75 89,76.5 89,78.5 92,77 			"/>
			<polygon fill="#762C07" points="96,73 93,74.5 93,76.5 96,75 			"/>
			<polygon fill="#762C07" points="100,71 97,72.5 97,74.5 100,73 			"/>
			<polygon fill="#762C07" points="104,69 101,70.5 101,72.5 104,71 			"/>
			<polygon fill="#762C07" points="108,67 105,68.5 105,70.5 108,69 			"/>
			<polygon fill="#762C07" points="50,93 48,94 48,96 50,95 			"/>
			<polygon fill="#762C07" points="54,91 51,92.5 51,94.5 54,93 			"/>
			<polygon fill="#762C07" points="58,89 55,90.5 55,92.5 58,91 			"/>
			<polygon fill="#762C07" points="62,87 59,88.5 59,90.5 62,89 			"/>
			<polygon fill="#762C07" points="66,85 63,86.5 63,88.5 66,87 			"/>
			<polygon fill="#762C07" points="70,83 67,84.5 67,86.5 70,85 			"/>
			<polygon fill="#762C07" points="74,81 71,82.5 71,84.5 74,83 			"/>
			<polygon fill="#762C07" points="78,79 75,80.5 75,82.5 78,81 			"/>
			<polygon fill="#762C07" points="82,77 79,78.5 79,80.5 82,79 			"/>
			<polygon fill="#762C07" points="86,75 83,76.5 83,78.5 86,77 			"/>
			<polygon fill="#762C07" points="90,73 87,74.5 87,76.5 90,75 			"/>
			<polygon fill="#762C07" points="94,71 91,72.5 91,74.5 94,73 			"/>
			<polygon fill="#762C07" points="98,69 95,70.5 95,72.5 98,71 			"/>
			<polygon fill="#762C07" points="102,67 99,68.5 99,70.5 102,69 			"/>
			<polygon fill="#762C07" points="106,65 103,66.5 103,68.5 106,67 			"/>
			<polygon fill="#762C07" points="52,89 49,90.5 49,92.5 52,91 			"/>
			<polygon fill="#762C07" points="56,87 53,88.5 53,90.5 56,89 			"/>
			<polygon fill="#762C07" points="60,85 57,86.5 57,88.5 60,87 			"/>
			<polygon fill="#762C07" points="64,83 61,84.5 61,86.5 64,85 			"/>
			<polygon fill="#762C07" points="68,81 65,82.5 65,84.5 68,83 			"/>
			<polygon fill="#762C07" points="72,79 69,80.5 69,82.5 72,81 			"/>
			<polygon fill="#762C07" points="76,77 73,78.5 73,80.5 76,79 			"/>
			<polygon fill="#762C07" points="80,75 77,76.5 77,78.5 80,77 			"/>
			<polygon fill="#762C07" points="84,73 81,74.5 81,76.5 84,75 			"/>
			<polygon fill="#762C07" points="88,71 85,72.5 85,74.5 88,73 			"/>
			<polygon fill="#762C07" points="92,69 89,70.5 89,72.5 92,71 			"/>
			<polygon fill="#762C07" points="96,67 93,68.5 93,70.5 96,69 			"/>
			<polygon fill="#762C07" points="100,65 97,66.5 97,68.5 100,67 			"/>
			<polygon fill="#762C07" points="104,63 101,64.5 101,66.5 104,65 			"/>
			<polygon fill="#762C07" points="108,61 105,62.5 105,64.5 108,63 			"/>
			<polygon fill="#762C07" points="112,101 109,102.5 109,104.5 112,103 			"/>
			<polygon fill="#762C07" points="116,99 113,100.5 113,102.5 116,101 			"/>
			<polygon fill="#762C07" points="120,97 117,98.5 117,100.5 120,99 			"/>
			<polygon fill="#762C07" points="124,95 121,96.5 121,98.5 124,97 			"/>
			<polygon fill="#762C07" points="128,93 125,94.5 125,96.5 128,95 			"/>
			<polygon fill="#762C07" points="132,91 129,92.5 129,94.5 132,93 			"/>
			<polygon fill="#762C07" points="136,89 133,90.5 133,92.5 136,91 			"/>
			<polygon fill="#762C07" points="140,87 137,88.5 137,90.5 140,89 			"/>
			<polygon fill="#762C07" points="144,85 141,86.5 141,88.5 144,87 			"/>
			<polygon fill="#762C07" points="148,83 145,84.5 145,86.5 148,85 			"/>
			<polygon fill="#762C07" points="152,81 149,82.5 149,84.5 152,83 			"/>
			<polygon fill="#762C07" points="156,79 153,80.5 153,82.5 156,81 			"/>
			<polygon fill="#762C07" points="160,77 157,78.5 157,80.5 160,79 			"/>
			<polygon fill="#762C07" points="110,99 107,100.5 107,102.5 110,101 			"/>
			<polygon fill="#762C07" points="114,97 111,98.5 111,100.5 114,99 			"/>
			<polygon fill="#762C07" points="118,95 115,96.5 115,98.5 118,97 			"/>
			<polygon fill="#762C07" points="122,93 119,94.5 119,96.5 122,95 			"/>
			<polygon fill="#762C07" points="126,91 123,92.5 123,94.5 126,93 			"/>
			<polygon fill="#762C07" points="130,89 127,90.5 127,92.5 130,91 			"/>
			<polygon fill="#762C07" points="134,87 131,88.5 131,90.5 134,89 			"/>
			<polygon fill="#762C07" points="138,85 135,86.5 135,88.5 138,87 			"/>
			<polygon fill="#762C07" points="142,83 139,84.5 139,86.5 142,85 			"/>
			<polygon fill="#762C07" points="146,81 143,82.5 143,84.5 146,83 			"/>
			<polygon fill="#762C07" points="150,79 147,80.5 147,82.5 150,81 			"/>
			<polygon fill="#762C07" points="154,77 151,78.5 151,80.5 154,79 			"/>
			<polygon fill="#762C07" points="158,75 155,76.5 155,78.5 158,77 			"/>
			<polygon fill="#762C07" points="112,95 109,96.5 109,98.5 112,97 			"/>
			<polygon fill="#762C07" points="116,93 113,94.5 113,96.5 116,95 			"/>
			<polygon fill="#762C07" points="120,91 117,92.5 117,94.5 120,93 			"/>
			<polygon fill="#762C07" points="124,89 121,90.5 121,92.5 124,91 			"/>
			<polygon fill="#762C07" points="128,87 125,88.5 125,90.5 128,89 			"/>
			<polygon fill="#762C07" points="132,85 129,86.5 129,88.5 132,87 			"/>
			<polygon fill="#762C07" points="136,83 133,84.5 133,86.5 136,85 			"/>
			<polygon fill="#762C07" points="140,81 137,82.5 137,84.5 140,83 			"/>
			<polygon fill="#762C07" points="144,79 141,80.5 141,82.5 144,81 			"/>
			<polygon fill="#762C07" points="148,77 145,78.5 145,80.5 148,79 			"/>
			<polygon fill="#762C07" points="152,75 149,76.5 149,78.5 152,77 			"/>
			<polygon fill="#762C07" points="156,73 153,74.5 153,76.5 156,75 			"/>
			<polygon fill="#762C07" points="160,71 157,72.5 157,74.5 160,73 			"/>
			<polygon fill="#762C07" points="110,93 107,94.5 107,96.5 110,95 			"/>
			<polygon fill="#762C07" points="114,91 111,92.5 111,94.5 114,93 			"/>
			<polygon fill="#762C07" points="118,89 115,90.5 115,92.5 118,91 			"/>
			<polygon fill="#762C07" points="122,87 119,88.5 119,90.5 122,89 			"/>
			<polygon fill="#762C07" points="126,85 123,86.5 123,88.5 126,87 			"/>
			<polygon fill="#762C07" points="130,83 127,84.5 127,86.5 130,85 			"/>
			<polygon fill="#762C07" points="134,81 131,82.5 131,84.5 134,83 			"/>
			<polygon fill="#762C07" points="138,79 135,80.5 135,82.5 138,81 			"/>
			<polygon fill="#762C07" points="142,77 139,78.5 139,80.5 142,79 			"/>
			<polygon fill="#762C07" points="146,75 143,76.5 143,78.5 146,77 			"/>
			<polygon fill="#762C07" points="150,73 147,74.5 147,76.5 150,75 			"/>
			<polygon fill="#762C07" points="154,71 151,72.5 151,74.5 154,73 			"/>
			<polygon fill="#762C07" points="158,69 155,70.5 155,72.5 158,71 			"/>
			<polygon fill="#762C07" points="112,89 109,90.5 109,92.5 112,91 			"/>
			<polygon fill="#762C07" points="116,87 113,88.5 113,90.5 116,89 			"/>
			<polygon fill="#762C07" points="120,85 117,86.5 117,88.5 120,87 			"/>
			<polygon fill="#762C07" points="124,83 121,84.5 121,86.5 124,85 			"/>
			<polygon fill="#762C07" points="128,81 125,82.5 125,84.5 128,83 			"/>
			<polygon fill="#762C07" points="132,79 129,80.5 129,82.5 132,81 			"/>
			<polygon fill="#762C07" points="136,77 133,78.5 133,80.5 136,79 			"/>
			<polygon fill="#762C07" points="140,75 137,76.5 137,78.5 140,77 			"/>
			<polygon fill="#762C07" points="144,73 141,74.5 141,76.5 144,75 			"/>
			<polygon fill="#762C07" points="148,71 145,72.5 145,74.5 148,73 			"/>
			<polygon fill="#762C07" points="152,69 149,70.5 149,72.5 152,71 			"/>
			<polygon fill="#762C07" points="156,67 153,68.5 153,70.5 156,69 			"/>
			<polygon fill="#762C07" points="160,65 157,66.5 157,68.5 160,67 			"/>
			<polygon fill="#762C07" points="110,87 107,88.5 107,90.5 110,89 			"/>
			<polygon fill="#762C07" points="114,85 111,86.5 111,88.5 114,87 			"/>
			<polygon fill="#762C07" points="118,83 115,84.5 115,86.5 118,85 			"/>
			<polygon fill="#762C07" points="122,81 119,82.5 119,84.5 122,83 			"/>
			<polygon fill="#762C07" points="126,79 123,80.5 123,82.5 126,81 			"/>
			<polygon fill="#762C07" points="130,77 127,78.5 127,80.5 130,79 			"/>
			<polygon fill="#762C07" points="134,75 131,76.5 131,78.5 134,77 			"/>
			<polygon fill="#762C07" points="138,73 135,74.5 135,76.5 138,75 			"/>
			<polygon fill="#762C07" points="142,71 139,72.5 139,74.5 142,73 			"/>
			<polygon fill="#762C07" points="146,69 143,70.5 143,72.5 146,71 			"/>
			<polygon fill="#762C07" points="150,67 147,68.5 147,70.5 150,69 			"/>
			<polygon fill="#762C07" points="154,65 151,66.5 151,68.5 154,67 			"/>
			<polygon fill="#762C07" points="158,63 155,64.5 155,66.5 158,65 			"/>
			<polygon fill="#762C07" points="112,83 109,84.5 109,86.5 112,85 			"/>
			<polygon fill="#762C07" points="116,81 113,82.5 113,84.5 116,83 			"/>
			<polygon fill="#762C07" points="120,79 117,80.5 117,82.5 120,81 			"/>
			<polygon fill="#762C07" points="124,77 121,78.5 121,80.5 124,79 			"/>
			<polygon fill="#762C07" points="128,75 125,76.5 125,78.5 128,77 			"/>
			<polygon fill="#762C07" points="132,73 129,74.5 129,76.5 132,75 			"/>
			<polygon fill="#762C07" points="136,71 133,72.5 133,74.5 136,73 			"/>
			<polygon fill="#762C07" points="140,69 137,70.5 137,72.5 140,71 			"/>
			<polygon fill="#762C07" points="144,67 141,68.5 141,70.5 144,69 			"/>
			<polygon fill="#762C07" points="148,65 145,66.5 145,68.5 148,67 			"/>
			<polygon fill="#762C07" points="152,63 149,64.5 149,66.5 152,65 			"/>
			<polygon fill="#762C07" points="156,61 153,62.5 153,64.5 156,63 			"/>
			<polygon fill="#762C07" points="160,59 157,60.5 157,62.5 160,61 			"/>
			<polygon fill="#762C07" points="110,81 107,82.5 107,84.5 110,83 			"/>
			<polygon fill="#762C07" points="114,79 111,80.5 111,82.5 114,81 			"/>
			<polygon fill="#762C07" points="118,77 115,78.5 115,80.5 118,79 			"/>
			<polygon fill="#762C07" points="122,75 119,76.5 119,78.5 122,77 			"/>
			<polygon fill="#762C07" points="126,73 123,74.5 123,76.5 126,75 			"/>
			<polygon fill="#762C07" points="130,71 127,72.5 127,74.5 130,73 			"/>
			<polygon fill="#762C07" points="134,69 131,70.5 131,72.5 134,71 			"/>
			<polygon fill="#762C07" points="138,67 135,68.5 135,70.5 138,69 			"/>
			<polygon fill="#762C07" points="142,65 139,66.5 139,68.5 142,67 			"/>
			<polygon fill="#762C07" points="146,63 143,64.5 143,66.5 146,65 			"/>
			<polygon fill="#762C07" points="150,61 147,62.5 147,64.5 150,63 			"/>
			<polygon fill="#762C07" points="154,59 151,60.5 151,62.5 154,61 			"/>
			<polygon fill="#762C07" points="158,57 155,58.5 155,60.5 158,59 			"/>
			<polygon fill="#762C07" points="112,77 109,78.5 109,80.5 112,79 			"/>
			<polygon fill="#762C07" points="116,75 113,76.5 113,78.5 116,77 			"/>
			<polygon fill="#762C07" points="120,73 117,74.5 117,76.5 120,75 			"/>
			<polygon fill="#762C07" points="124,71 121,72.5 121,74.5 124,73 			"/>
			<polygon fill="#762C07" points="128,69 125,70.5 125,72.5 128,71 			"/>
			<polygon fill="#762C07" points="132,67 129,68.5 129,70.5 132,69 			"/>
			<polygon fill="#762C07" points="136,65 133,66.5 133,68.5 136,67 			"/>
			<polygon fill="#762C07" points="140,63 137,64.5 137,66.5 140,65 			"/>
			<polygon fill="#762C07" points="144,61 141,62.5 141,64.5 144,63 			"/>
			<polygon fill="#762C07" points="148,59 145,60.5 145,62.5 148,61 			"/>
			<polygon fill="#762C07" points="152,57 149,58.5 149,60.5 152,59 			"/>
			<polygon fill="#762C07" points="156,55 153,56.5 153,58.5 156,57 			"/>
			<polygon fill="#762C07" points="160,53 157,54.5 157,56.5 160,55 			"/>
			<polygon fill="#762C07" points="110,75 107,76.5 107,78.5 110,77 			"/>
			<polygon fill="#762C07" points="114,73 111,74.5 111,76.5 114,75 			"/>
			<polygon fill="#762C07" points="118,71 115,72.5 115,74.5 118,73 			"/>
			<polygon fill="#762C07" points="122,69 119,70.5 119,72.5 122,71 			"/>
			<polygon fill="#762C07" points="126,67 123,68.5 123,70.5 126,69 			"/>
			<polygon fill="#762C07" points="130,65 127,66.5 127,68.5 130,67 			"/>
			<polygon fill="#762C07" points="134,63 131,64.5 131,66.5 134,65 			"/>
			<polygon fill="#762C07" points="138,61 135,62.5 135,64.5 138,63 			"/>
			<polygon fill="#762C07" points="142,59 139,60.5 139,62.5 142,61 			"/>
			<polygon fill="#762C07" points="146,57 143,58.5 143,60.5 146,59 			"/>
			<polygon fill="#762C07" points="150,55 147,56.5 147,58.5 150,57 			"/>
			<polygon fill="#762C07" points="154,53 151,54.5 151,56.5 154,55 			"/>
			<polygon fill="#762C07" points="158,51 155,52.5 155,54.5 158,53 			"/>
			<polygon fill="#762C07" points="112,71 109,72.5 109,74.5 112,73 			"/>
			<polygon fill="#762C07" points="116,69 113,70.5 113,72.5 116,71 			"/>
			<polygon fill="#762C07" points="120,67 117,68.5 117,70.5 120,69 			"/>
			<polygon fill="#762C07" points="124,65 121,66.5 121,68.5 124,67 			"/>
			<polygon fill="#762C07" points="128,63 125,64.5 125,66.5 128,65 			"/>
			<polygon fill="#762C07" points="132,61 129,62.5 129,64.5 132,63 			"/>
			<polygon fill="#762C07" points="136,59 133,60.5 133,62.5 136,61 			"/>
			<polygon fill="#762C07" points="140,57 137,58.5 137,60.5 140,59 			"/>
			<polygon fill="#762C07" points="144,55 141,56.5 141,58.5 144,57 			"/>
			<polygon fill="#762C07" points="148,53 145,54.5 145,56.5 148,55 			"/>
			<polygon fill="#762C07" points="152,51 149,52.5 149,54.5 152,53 			"/>
			<polygon fill="#762C07" points="156,49 153,50.5 153,52.5 156,51 			"/>
			<polygon fill="#762C07" points="160,47 157,48.5 157,50.5 160,49 			"/>
			<polygon fill="#762C07" points="110,69 107,70.5 107,72.5 110,71 			"/>
			<polygon fill="#762C07" points="114,67 111,68.5 111,70.5 114,69 			"/>
			<polygon fill="#762C07" points="118,65 115,66.5 115,68.5 118,67 			"/>
			<polygon fill="#762C07" points="122,63 119,64.5 119,66.5 122,65 			"/>
			<polygon fill="#762C07" points="126,61 123,62.5 123,64.5 126,63 			"/>
			<polygon fill="#762C07" points="130,59 127,60.5 127,62.5 130,61 			"/>
			<polygon fill="#762C07" points="134,57 131,58.5 131,60.5 134,59 			"/>
			<polygon fill="#762C07" points="138,55 135,56.5 135,58.5 138,57 			"/>
			<polygon fill="#762C07" points="142,53 139,54.5 139,56.5 142,55 			"/>
			<polygon fill="#762C07" points="146,51 143,52.5 143,54.5 146,53 			"/>
			<polygon fill="#762C07" points="150,49 147,50.5 147,52.5 150,51 			"/>
			<polygon fill="#762C07" points="154,47 151,48.5 151,50.5 154,49 			"/>
			<polygon fill="#762C07" points="158,45 155,46.5 155,48.5 158,47 			"/>
			<polygon fill="#762C07" points="112,65 109,66.5 109,68.5 112,67 			"/>
			<polygon fill="#762C07" points="116,63 113,64.5 113,66.5 116,65 			"/>
			<polygon fill="#762C07" points="120,61 117,62.5 117,64.5 120,63 			"/>
			<polygon fill="#762C07" points="124,59 121,60.5 121,62.5 124,61 			"/>
			<polygon fill="#762C07" points="128,57 125,58.5 125,60.5 128,59 			"/>
			<polygon fill="#762C07" points="132,55 129,56.5 129,58.5 132,57 			"/>
			<polygon fill="#762C07" points="136,53 133,54.5 133,56.5 136,55 			"/>
			<polygon fill="#762C07" points="140,51 137,52.5 137,54.5 140,53 			"/>
			<polygon fill="#762C07" points="144,49 141,50.5 141,52.5 144,51 			"/>
			<polygon fill="#762C07" points="148,47 145,48.5 145,50.5 148,49 			"/>
			<polygon fill="#762C07" points="152,45 149,46.5 149,48.5 152,47 			"/>
			<polygon fill="#762C07" points="156,43 153,44.5 153,46.5 156,45 			"/>
			<polygon fill="#762C07" points="160,41 157,42.5 157,44.5 160,43 			"/>
			<polygon fill="#762C07" points="110,63 107,64.5 107,66.5 110,65 			"/>
			<polygon fill="#762C07" points="114,61 111,62.5 111,64.5 114,63 			"/>
			<polygon fill="#762C07" points="118,59 115,60.5 115,62.5 118,61 			"/>
			<polygon fill="#762C07" points="122,57 119,58.5 119,60.5 122,59 			"/>
			<polygon fill="#762C07" points="126,55 123,56.5 123,58.5 126,57 			"/>
			<polygon fill="#762C07" points="130,53 127,54.5 127,56.5 130,55 			"/>
			<polygon fill="#762C07" points="134,51 131,52.5 131,54.5 134,53 			"/>
			<polygon fill="#762C07" points="138,49 135,50.5 135,52.5 138,51 			"/>
			<polygon fill="#762C07" points="142,47 139,48.5 139,50.5 142,49 			"/>
			<polygon fill="#762C07" points="146,45 143,46.5 143,48.5 146,47 			"/>
			<polygon fill="#762C07" points="150,43 147,44.5 147,46.5 150,45 			"/>
			<polygon fill="#762C07" points="154,41 151,42.5 151,44.5 154,43 			"/>
			<polygon fill="#762C07" points="158,39 155,40.5 155,42.5 158,41 			"/>
			<polygon fill="#762C07" points="112,59 109,60.5 109,62.5 112,61 			"/>
			<polygon fill="#762C07" points="116,57 113,58.5 113,60.5 116,59 			"/>
			<polygon fill="#762C07" points="120,55 117,56.5 117,58.5 120,57 			"/>
			<polygon fill="#762C07" points="124,53 121,54.5 121,56.5 124,55 			"/>
			<polygon fill="#762C07" points="128,51 125,52.5 125,54.5 128,53 			"/>
			<polygon fill="#762C07" points="132,49 129,50.5 129,52.5 132,51 			"/>
			<polygon fill="#762C07" points="136,47 133,48.5 133,50.5 136,49 			"/>
			<polygon fill="#762C07" points="140,45 137,46.5 137,48.5 140,47 			"/>
			<polygon fill="#762C07" points="144,43 141,44.5 141,46.5 144,45 			"/>
			<polygon fill="#762C07" points="148,41 145,42.5 145,44.5 148,43 			"/>
			<polygon fill="#762C07" points="152,39 149,40.5 149,42.5 152,41 			"/>
			<polygon fill="#762C07" points="156,37 153,38.5 153,40.5 156,39 			"/>
			<polygon fill="#762C07" points="160,35 157,36.5 157,38.5 160,37 			"/>
			<polygon fill="#762C07" points="160,40 159,40.5 159,38.5 160,38 			"/>
			<polygon fill="#762C07" points="160,46 159,46.5 159,44.5 160,44 			"/>
			<polygon fill="#762C07" points="160,52 159,52.5 159,50.5 160,50 			"/>
			<polygon fill="#762C07" points="160,58 159,58.5 159,56.5 160,56 			"/>
			<polygon fill="#762C07" points="160,64 159,64.5 159,62.5 160,62 			"/>
			<polygon fill="#762C07" points="160,70 159,70.5 159,68.5 160,68 			"/>
			<polygon fill="#762C07" points="160,76 159,76.5 159,74.5 160,74 			"/>
		</g>
		<g>
			<polygon fill="#BAA794" points="62,119 52,124 52,111 62,106 			"/>
			<polygon fill="#3399CC" points="61,118.5 53,122.5 53,111.5 61,107.5 			"/>
			<polygon opacity="0.15" fill="#262626" points="61,114.5 53,111.5 61,107.5 			"/>
			<polygon opacity="0.15" fill="#262626" points="61,109.5 53,113.5 53,111.5 61,107.5 			"/>
			<polygon opacity="0.15" fill="#262626" points="61,108.5 53,112.5 53,111.5 61,107.5 			"/>
			<polygon fill="#F8EBCB" points="62,106 52,111 52,110 62,105 			"/>
			<polygon fill="#F8EBCB" points="62,120 52,125 52,124 62,119 			"/>
			<polygon fill="#BAA794" points="56,121 55,121.5 55,110.5 56,110 			"/>
			<polygon fill="#BAA794" points="59,119.5 58,120 58,109 59,108.5 			"/>
			<polygon fill="#BAA794" points="61,111.5 53,115.5 53,114.5 61,110.5 			"/>
			<polygon fill="#BAA794" points="61,115.5 53,119.5 53,118.5 61,114.5 			"/>
		</g>
		<g>
			<polygon fill="#BAA794" points="77,111.5 67,116.5 67,103.5 77,98.5 			"/>
			<polygon fill="#3399CC" points="76,111 68,115 68,104 76,100 			"/>
			<polygon opacity="0.15" fill="#262626" points="76,110 68,104 76,100 			"/>
			<polygon opacity="0.15" fill="#262626" points="76,102 68,106 68,104 76,100 			"/>
			<polygon opacity="0.15" fill="#262626" points="76,101 68,105 68,104 76,100 			"/>
			<polygon fill="#F8EBCB" points="77,98.5 67,103.5 67,102.5 77,97.5 			"/>
			<polygon fill="#F8EBCB" points="77,112.5 67,117.5 67,116.5 77,111.5 			"/>
			<polygon fill="#BAA794" points="71,113.5 70,114 70,103 71,102.5 			"/>
			<polygon fill="#BAA794" points="74,112 73,112.5 73,101.5 74,101 			"/>
			<polygon fill="#BAA794" points="76,104 68,108 68,107 76,103 			"/>
			<polygon fill="#BAA794" points="76,108 68,112 68,111 76,107 			"/>
		</g>
		<g>
			<polygon fill="#BAA794" points="94,103 84,108 84,95 94,90 			"/>
			<polygon fill="#3399CC" points="93,102.5 85,106.5 85,95.5 93,91.5 			"/>
			<polygon opacity="0.15" fill="#262626" points="93,96.5 85,95.5 93,91.5 			"/>
			<polygon opacity="0.15" fill="#262626" points="93,93.5 85,97.5 85,95.5 93,91.5 			"/>
			<polygon opacity="0.15" fill="#262626" points="93,92.5 85,96.5 85,95.5 93,91.5 			"/>
			<polygon fill="#F8EBCB" points="94,90 84,95 84,94 94,89 			"/>
			<polygon fill="#F8EBCB" points="94,104 84,109 84,108 94,103 			"/>
			<polygon fill="#BAA794" points="88,105 87,105.5 87,94.5 88,94 			"/>
			<polygon fill="#BAA794" points="91,103.5 90,104 90,93 91,92.5 			"/>
			<polygon fill="#BAA794" points="93,95.5 85,99.5 85,98.5 93,94.5 			"/>
			<polygon fill="#BAA794" points="93,99.5 85,103.5 85,102.5 93,98.5 			"/>
		</g>
		<g>
			<polygon fill="#BAA794" points="124,88 114,93 114,80 124,75 			"/>
			<polygon fill="#3399CC" points="123,87.5 115,91.5 115,80.5 123,76.5 			"/>
			<polygon opacity="0.15" fill="#262626" points="123,83.5 115,80.5 123,76.5 			"/>
			<polygon opacity="0.15" fill="#262626" points="123,78.5 115,82.5 115,80.5 123,76.5 			"/>
			<polygon opacity="0.15" fill="#262626" points="123,77.5 115,81.5 115,80.5 123,76.5 			"/>
			<polygon fill="#F8EBCB" points="124,75 114,80 114,79 124,74 			"/>
			<polygon fill="#F8EBCB" points="124,89 114,94 114,93 124,88 			"/>
			<polygon fill="#BAA794" points="118,90 117,90.5 117,79.5 118,79 			"/>
			<polygon fill="#BAA794" points="121,88.5 120,89 120,78 121,77.5 			"/>
			<polygon fill="#BAA794" points="123,80.5 115,84.5 115,83.5 123,79.5 			"/>
			<polygon fill="#BAA794" points="123,84.5 115,88.5 115,87.5 123,83.5 			"/>
		</g>
		<g>
			<polygon fill="#BAA794" points="139,80.5 129,85.5 129,72.5 139,67.5 			"/>
			<polygon fill="#3399CC" points="138,80 130,84 130,73 138,69 			"/>
			<polygon opacity="0.15" fill="#262626" points="138,79 130,73 138,69 			"/>
			<polygon opacity="0.15" fill="#262626" points="138,71 130,75 130,73 138,69 			"/>
			<polygon opacity="0.15" fill="#262626" points="138,70 130,74 130,73 138,69 			"/>
			<polygon fill="#F8EBCB" points="139,67.5 129,72.5 129,71.5 139,66.5 			"/>
			<polygon fill="#F8EBCB" points="139,81.5 129,86.5 129,85.5 139,80.5 			"/>
			<polygon fill="#BAA794" points="133,82.5 132,83 132,72 133,71.5 			"/>
			<polygon fill="#BAA794" points="136,81 135,81.5 135,70.5 136,70 			"/>
			<polygon fill="#BAA794" points="138,73 130,77 130,76 138,72 			"/>
			<polygon fill="#BAA794" points="138,77 130,81 130,80 138,76 			"/>
		</g>
		<g>
			<polygon fill="#BAA794" points="156,72 146,77 146,64 156,59 			"/>
			<polygon fill="#3399CC" points="155,71.5 147,75.5 147,64.5 155,60.5 			"/>
			<polygon opacity="0.15" fill="#262626" points="155,65.5 147,64.5 155,60.5 			"/>
			<polygon opacity="0.15" fill="#262626" points="155,62.5 147,66.5 147,64.5 155,60.5 			"/>
			<polygon opacity="0.15" fill="#262626" points="155,61.5 147,65.5 147,64.5 155,60.5 			"/>
			<polygon fill="#F8EBCB" points="156,59 146,64 146,63 156,58 			"/>
			<polygon fill="#F8EBCB" points="156,73 146,78 146,77 156,72 			"/>
			<polygon fill="#BAA794" points="150,74 149,74.5 149,63.5 150,63 			"/>
			<polygon fill="#BAA794" points="153,72.5 152,73 152,62 153,61.5 			"/>
			<polygon fill="#BAA794" points="155,64.5 147,68.5 147,67.5 155,63.5 			"/>
			<polygon fill="#BAA794" points="155,68.5 147,72.5 147,71.5 155,67.5 			"/>
		</g>
		<g>
			<polygon fill="#BAA794" points="62,99 52,104 52,91 62,86 			"/>
			<polygon fill="#3399CC" points="61,98.5 53,102.5 53,91.5 61,87.5 			"/>
			<polygon opacity="0.2" fill="#FFFFFF" points="61,98.5 53,91.5 53,102.5 			"/>
			<polygon opacity="0.15" fill="#262626" points="61,89.5 53,93.5 53,91.5 61,87.5 			"/>
			<polygon opacity="0.15" fill="#262626" points="61,88.5 53,92.5 53,91.5 61,87.5 			"/>
			<polygon fill="#F8EBCB" points="62,86 52,91 52,90 62,85 			"/>
			<polygon fill="#F8EBCB" points="62,100 52,105 52,104 62,99 			"/>
			<polygon fill="#BAA794" points="56,101 55,101.5 55,90.5 56,90 			"/>
			<polygon fill="#BAA794" points="59,99.5 58,100 58,89 59,88.5 			"/>
			<polygon fill="#BAA794" points="61,91.5 53,95.5 53,94.5 61,90.5 			"/>
			<polygon fill="#BAA794" points="61,95.5 53,99.5 53,98.5 61,94.5 			"/>
		</g>
		<g>
			<polygon fill="#BAA794" points="77,91.5 67,96.5 67,83.5 77,78.5 			"/>
			<polygon fill="#3399CC" points="76,91 68,95 68,84 76,80 			"/>
			<polygon opacity="0.2" fill="#FFFFFF" points="76,91 68,88 68,95 			"/>
			<polygon opacity="0.15" fill="#262626" points="76,82 68,86 68,84 76,80 			"/>
			<polygon opacity="0.15" fill="#262626" points="76,81 68,85 68,84 76,80 			"/>
			<polygon fill="#F8EBCB" points="77,78.5 67,83.5 67,82.5 77,77.5 			"/>
			<polygon fill="#F8EBCB" points="77,92.5 67,97.5 67,96.5 77,91.5 			"/>
			<polygon fill="#BAA794" points="71,93.5 70,94 70,83 71,82.5 			"/>
			<polygon fill="#BAA794" points="74,92 73,92.5 73,81.5 74,81 			"/>
			<polygon fill="#BAA794" points="76,84 68,88 68,87 76,83 			"/>
			<polygon fill="#BAA794" points="76,88 68,92 68,91 76,87 			"/>
		</g>
		<g>
			<polygon fill="#BAA794" points="109,75.5 99,80.5 99,67.5 109,62.5 			"/>
			<polygon fill="#3399CC" points="108,75 100,79 100,68 108,64 			"/>
			<polygon opacity="0.2" fill="#FFFFFF" points="108,75 100,72 100,79 			"/>
			<polygon opacity="0.15" fill="#262626" points="108,66 100,70 100,68 108,64 			"/>
			<polygon opacity="0.15" fill="#262626" points="108,65 100,69 100,68 108,64 			"/>
			<polygon fill="#F8EBCB" points="109,62.5 99,67.5 99,66.5 109,61.5 			"/>
			<polygon fill="#F8EBCB" points="109,76.5 99,81.5 99,80.5 109,75.5 			"/>
			<polygon fill="#BAA794" points="103,77.5 102,78 102,67 103,66.5 			"/>
			<polygon fill="#BAA794" points="106,76 105,76.5 105,65.5 106,65 			"/>
			<polygon fill="#BAA794" points="108,68 100,72 100,71 108,67 			"/>
			<polygon fill="#BAA794" points="108,72 100,76 100,75 108,71 			"/>
		</g>
		<g>
			<polygon fill="#BAA794" points="94,83 84,88 84,75 94,70 			"/>
			<polygon fill="#3399CC" points="93,82.5 85,86.5 85,75.5 93,71.5 			"/>
			<polygon opacity="0.2" fill="#FFFFFF" points="85,81.5 93,82.5 85,86.5 			"/>
			<polygon opacity="0.15" fill="#262626" points="93,73.5 85,77.5 85,75.5 93,71.5 			"/>
			<polygon opacity="0.15" fill="#262626" points="93,72.5 85,76.5 85,75.5 93,71.5 			"/>
			<polygon fill="#F8EBCB" points="94,70 84,75 84,74 94,69 			"/>
			<polygon fill="#F8EBCB" points="94,84 84,89 84,88 94,83 			"/>
			<polygon fill="#BAA794" points="88,85 87,85.5 87,74.5 88,74 			"/>
			<polygon fill="#BAA794" points="91,83.5 90,84 90,73 91,72.5 			"/>
			<polygon fill="#BAA794" points="93,75.5 85,79.5 85,78.5 93,74.5 			"/>
			<polygon fill="#BAA794" points="93,79.5 85,83.5 85,82.5 93,78.5 			"/>
		</g>
		<g>
			<polygon fill="#BAA794" points="124,68 114,73 114,60 124,55 			"/>
			<polygon fill="#3399CC" points="123,67.5 115,71.5 115,60.5 123,56.5 			"/>
			<polygon opacity="0.2" fill="#FFFFFF" points="123,67.5 115,60.5 115,71.5 			"/>
			<polygon opacity="0.15" fill="#262626" points="123,58.5 115,62.5 115,60.5 123,56.5 			"/>
			<polygon opacity="0.15" fill="#262626" points="123,57.5 115,61.5 115,60.5 123,56.5 			"/>
			<polygon fill="#F8EBCB" points="124,55 114,60 114,59 124,54 			"/>
			<polygon fill="#F8EBCB" points="124,69 114,74 114,73 124,68 			"/>
			<polygon fill="#BAA794" points="118,70 117,70.5 117,59.5 118,59 			"/>
			<polygon fill="#BAA794" points="121,68.5 120,69 120,58 121,57.5 			"/>
			<polygon fill="#BAA794" points="123,60.5 115,64.5 115,63.5 123,59.5 			"/>
			<polygon fill="#BAA794" points="123,64.5 115,68.5 115,67.5 123,63.5 			"/>
		</g>
		<g>
			<polygon fill="#BAA794" points="139,60.5 129,65.5 129,52.5 139,47.5 			"/>
			<polygon fill="#3399CC" points="138,60 130,64 130,53 138,49 			"/>
			<polygon opacity="0.2" fill="#FFFFFF" points="138,60 130,57 130,64 			"/>
			<polygon opacity="0.15" fill="#262626" points="138,51 130,55 130,53 138,49 			"/>
			<polygon opacity="0.15" fill="#262626" points="138,50 130,54 130,53 138,49 			"/>
			<polygon fill="#F8EBCB" points="139,47.5 129,52.5 129,51.5 139,46.5 			"/>
			<polygon fill="#F8EBCB" points="139,61.5 129,66.5 129,65.5 139,60.5 			"/>
			<polygon fill="#BAA794" points="133,62.5 132,63 132,52 133,51.5 			"/>
			<polygon fill="#BAA794" points="136,61 135,61.5 135,50.5 136,50 			"/>
			<polygon fill="#BAA794" points="138,53 130,57 130,56 138,52 			"/>
			<polygon fill="#BAA794" points="138,57 130,61 130,60 138,56 			"/>
		</g>
		<g>
			<polygon fill="#BAA794" points="156,52 146,57 146,44 156,39 			"/>
			<polygon fill="#3399CC" points="155,51.5 147,55.5 147,44.5 155,40.5 			"/>
			<polygon opacity="0.2" fill="#FFFFFF" points="147,50.5 155,51.5 147,55.5 			"/>
			<polygon opacity="0.15" fill="#262626" points="155,42.5 147,46.5 147,44.5 155,40.5 			"/>
			<polygon opacity="0.15" fill="#262626" points="155,41.5 147,45.5 147,44.5 155,40.5 			"/>
			<polygon fill="#F8EBCB" points="156,39 146,44 146,43 156,38 			"/>
			<polygon fill="#F8EBCB" points="156,53 146,58 146,57 156,52 			"/>
			<polygon fill="#BAA794" points="150,54 149,54.5 149,43.5 150,43 			"/>
			<polygon fill="#BAA794" points="153,52.5 152,53 152,42 153,41.5 			"/>
			<polygon fill="#BAA794" points="155,44.5 147,48.5 147,47.5 155,43.5 			"/>
			<polygon fill="#BAA794" points="155,48.5 147,52.5 147,51.5 155,47.5 			"/>
		</g>
		<g>
			<polygon fill="#F8EBCB" points="110,101 98,107 98,86 110,80 			"/>
			<polygon fill="#BAA794" points="109,101.5 99,106.5 99,87.5 109,82.5 			"/>
			<polygon fill="#3399CC" points="103,97.5 100,99 100,88 103,86.5 			"/>
			<polygon fill="#3399CC" points="108,95 105,96.5 105,85.5 108,84 			"/>
			<polygon opacity="0.15" fill="#262626" points="108,86 105,87.5 105,85.5 108,84 			"/>
			<polygon opacity="0.15" fill="#262626" points="108,85 105,86.5 105,85.5 108,84 			"/>
			<polygon opacity="0.15" fill="#262626" points="103,88.5 100,90 100,88 103,86.5 			"/>
			<polygon opacity="0.15" fill="#262626" points="103,87.5 100,89 100,88 103,86.5 			"/>
			<polygon fill="#BAA794" points="102,98 101,98.5 101,87.5 102,87 			"/>
			<polygon fill="#BAA794" points="107,95.5 106,96 106,85 107,84.5 			"/>
			<polygon fill="#BAA794" points="108,88 100,92 100,91 108,87 			"/>
			<polygon fill="#BAA794" points="108,92 100,96 100,95 108,91 			"/>
		</g>
		<polygon opacity="0.39" points="160,80 48,136 48,88 160,32 		"/>
	</g>
	<g>
		<polygon fill="#BAA794" points="48,136 0,112 0,64 48,88 		"/>
		<polygon fill="#F8EBCB" points="48,90 0,66 0,64 48,88 		"/>
		<g opacity="0.4">
			<polygon fill="#762C07" points="2,110 0,109 0,111 2,112 			"/>
			<polygon fill="#762C07" points="6,112 3,110.5 3,112.5 6,114 			"/>
			<polygon fill="#762C07" points="10,114 7,112.5 7,114.5 10,116 			"/>
			<polygon fill="#762C07" points="14,116 11,114.5 11,116.5 14,118 			"/>
			<polygon fill="#762C07" points="18,118 15,116.5 15,118.5 18,120 			"/>
			<polygon fill="#762C07" points="22,120 19,118.5 19,120.5 22,122 			"/>
			<polygon fill="#762C07" points="26,122 23,120.5 23,122.5 26,124 			"/>
			<polygon fill="#762C07" points="30,124 27,122.5 27,124.5 30,126 			"/>
			<polygon fill="#762C07" points="34,126 31,124.5 31,126.5 34,128 			"/>
			<polygon fill="#762C07" points="38,128 35,126.5 35,128.5 38,130 			"/>
			<polygon fill="#762C07" points="42,130 39,128.5 39,130.5 42,132 			"/>
			<polygon fill="#762C07" points="46,132 43,130.5 43,132.5 46,134 			"/>
			<polygon fill="#762C07" points="4,108 1,106.5 1,108.5 4,110 			"/>
			<polygon fill="#762C07" points="8,110 5,108.5 5,110.5 8,112 			"/>
			<polygon fill="#762C07" points="12,112 9,110.5 9,112.5 12,114 			"/>
			<polygon fill="#762C07" points="16,114 13,112.5 13,114.5 16,116 			"/>
			<polygon fill="#762C07" points="20,116 17,114.5 17,116.5 20,118 			"/>
			<polygon fill="#762C07" points="24,118 21,116.5 21,118.5 24,120 			"/>
			<polygon fill="#762C07" points="28,120 25,118.5 25,120.5 28,122 			"/>
			<polygon fill="#762C07" points="32,122 29,120.5 29,122.5 32,124 			"/>
			<polygon fill="#762C07" points="36,124 33,122.5 33,124.5 36,126 			"/>
			<polygon fill="#762C07" points="40,126 37,124.5 37,126.5 40,128 			"/>
			<polygon fill="#762C07" points="44,128 41,126.5 41,128.5 44,130 			"/>
			<polygon fill="#762C07" points="48,130 45,128.5 45,130.5 48,132 			"/>
			<polygon fill="#762C07" points="2,104 0,103 0,105 2,106 			"/>
			<polygon fill="#762C07" points="6,106 3,104.5 3,106.5 6,108 			"/>
			<polygon fill="#762C07" points="10,108 7,106.5 7,108.5 10,110 			"/>
			<polygon fill="#762C07" points="14,110 11,108.5 11,110.5 14,112 			"/>
			<polygon fill="#762C07" points="18,112 15,110.5 15,112.5 18,114 			"/>
			<polygon fill="#762C07" points="22,114 19,112.5 19,114.5 22,116 			"/>
			<polygon fill="#762C07" points="26,116 23,114.5 23,116.5 26,118 			"/>
			<polygon fill="#762C07" points="30,118 27,116.5 27,118.5 30,120 			"/>
			<polygon fill="#762C07" points="34,120 31,118.5 31,120.5 34,122 			"/>
			<polygon fill="#762C07" points="38,122 35,120.5 35,122.5 38,124 			"/>
			<polygon fill="#762C07" points="42,124 39,122.5 39,124.5 42,126 			"/>
			<polygon fill="#762C07" points="46,126 43,124.5 43,126.5 46,128 			"/>
			<polygon fill="#762C07" points="4,102 1,100.5 1,102.5 4,104 			"/>
			<polygon fill="#762C07" points="8,104 5,102.5 5,104.5 8,106 			"/>
			<polygon fill="#762C07" points="12,106 9,104.5 9,106.5 12,108 			"/>
			<polygon fill="#762C07" points="16,108 13,106.5 13,108.5 16,110 			"/>
			<polygon fill="#762C07" points="20,110 17,108.5 17,110.5 20,112 			"/>
			<polygon fill="#762C07" points="24,112 21,110.5 21,112.5 24,114 			"/>
			<polygon fill="#762C07" points="28,114 25,112.5 25,114.5 28,116 			"/>
			<polygon fill="#762C07" points="32,116 29,114.5 29,116.5 32,118 			"/>
			<polygon fill="#762C07" points="36,118 33,116.5 33,118.5 36,120 			"/>
			<polygon fill="#762C07" points="40,120 37,118.5 37,120.5 40,122 			"/>
			<polygon fill="#762C07" points="44,122 41,120.5 41,122.5 44,124 			"/>
			<polygon fill="#762C07" points="48,124 45,122.5 45,124.5 48,126 			"/>
			<polygon fill="#762C07" points="2,98 0,97 0,99 2,100 			"/>
			<polygon fill="#762C07" points="6,100 3,98.5 3,100.5 6,102 			"/>
			<polygon fill="#762C07" points="10,102 7,100.5 7,102.5 10,104 			"/>
			<polygon fill="#762C07" points="14,104 11,102.5 11,104.5 14,106 			"/>
			<polygon fill="#762C07" points="18,106 15,104.5 15,106.5 18,108 			"/>
			<polygon fill="#762C07" points="22,108 19,106.5 19,108.5 22,110 			"/>
			<polygon fill="#762C07" points="26,110 23,108.5 23,110.5 26,112 			"/>
			<polygon fill="#762C07" points="30,112 27,110.5 27,112.5 30,114 			"/>
			<polygon fill="#762C07" points="34,114 31,112.5 31,114.5 34,116 			"/>
			<polygon fill="#762C07" points="38,116 35,114.5 35,116.5 38,118 			"/>
			<polygon fill="#762C07" points="42,118 39,116.5 39,118.5 42,120 			"/>
			<polygon fill="#762C07" points="46,120 43,118.5 43,120.5 46,122 			"/>
			<polygon fill="#762C07" points="4,96 1,94.5 1,96.5 4,98 			"/>
			<polygon fill="#762C07" points="8,98 5,96.5 5,98.5 8,100 			"/>
			<polygon fill="#762C07" points="12,100 9,98.5 9,100.5 12,102 			"/>
			<polygon fill="#762C07" points="16,102 13,100.5 13,102.5 16,104 			"/>
			<polygon fill="#762C07" points="20,104 17,102.5 17,104.5 20,106 			"/>
			<polygon fill="#762C07" points="24,106 21,104.5 21,106.5 24,108 			"/>
			<polygon fill="#762C07" points="28,108 25,106.5 25,108.5 28,110 			"/>
			<polygon fill="#762C07" points="32,110 29,108.5 29,110.5 32,112 			"/>
			<polygon fill="#762C07" points="36,112 33,110.5 33,112.5 36,114 			"/>
			<polygon fill="#762C07" points="40,114 37,112.5 37,114.5 40,116 			"/>
			<polygon fill="#762C07" points="44,116 41,114.5 41,116.5 44,118 			"/>
			<polygon fill="#762C07" points="48,118 45,116.5 45,118.5 48,120 			"/>
			<polygon fill="#762C07" points="2,92 0,91 0,93 2,94 			"/>
			<polygon fill="#762C07" points="6,94 3,92.5 3,94.5 6,96 			"/>
			<polygon fill="#762C07" points="10,96 7,94.5 7,96.5 10,98 			"/>
			<polygon fill="#762C07" points="14,98 11,96.5 11,98.5 14,100 			"/>
			<polygon fill="#762C07" points="18,100 15,98.5 15,100.5 18,102 			"/>
			<polygon fill="#762C07" points="22,102 19,100.5 19,102.5 22,104 			"/>
			<polygon fill="#762C07" points="26,104 23,102.5 23,104.5 26,106 			"/>
			<polygon fill="#762C07" points="30,106 27,104.5 27,106.5 30,108 			"/>
			<polygon fill="#762C07" points="34,108 31,106.5 31,108.5 34,110 			"/>
			<polygon fill="#762C07" points="38,110 35,108.5 35,110.5 38,112 			"/>
			<polygon fill="#762C07" points="42,112 39,110.5 39,112.5 42,114 			"/>
			<polygon fill="#762C07" points="46,114 43,112.5 43,114.5 46,116 			"/>
			<polygon fill="#762C07" points="4,90 1,88.5 1,90.5 4,92 			"/>
			<polygon fill="#762C07" points="8,92 5,90.5 5,92.5 8,94 			"/>
			<polygon fill="#762C07" points="12,94 9,92.5 9,94.5 12,96 			"/>
			<polygon fill="#762C07" points="16,96 13,94.5 13,96.5 16,98 			"/>
			<polygon fill="#762C07" points="20,98 17,96.5 17,98.5 20,100 			"/>
			<polygon fill="#762C07" points="24,100 21,98.5 21,100.5 24,102 			"/>
			<polygon fill="#762C07" points="28,102 25,100.5 25,102.5 28,104 			"/>
			<polygon fill="#762C07" points="32,104 29,102.5 29,104.5 32,106 			"/>
			<polygon fill="#762C07" points="36,106 33,104.5 33,106.5 36,108 			"/>
			<polygon fill="#762C07" points="40,108 37,106.5 37,108.5 40,110 			"/>
			<polygon fill="#762C07" points="44,110 41,108.5 41,110.5 44,112 			"/>
			<polygon fill="#762C07" points="48,112 45,110.5 45,112.5 48,114 			"/>
			<polygon fill="#762C07" points="2,86 0,85 0,87 2,88 			"/>
			<polygon fill="#762C07" points="6,88 3,86.5 3,88.5 6,90 			"/>
			<polygon fill="#762C07" points="10,90 7,88.5 7,90.5 10,92 			"/>
			<polygon fill="#762C07" points="14,92 11,90.5 11,92.5 14,94 			"/>
			<polygon fill="#762C07" points="18,94 15,92.5 15,94.5 18,96 			"/>
			<polygon fill="#762C07" points="22,96 19,94.5 19,96.5 22,98 			"/>
			<polygon fill="#762C07" points="26,98 23,96.5 23,98.5 26,100 			"/>
			<polygon fill="#762C07" points="30,100 27,98.5 27,100.5 30,102 			"/>
			<polygon fill="#762C07" points="34,102 31,100.5 31,102.5 34,104 			"/>
			<polygon fill="#762C07" points="38,104 35,102.5 35,104.5 38,106 			"/>
			<polygon fill="#762C07" points="42,106 39,104.5 39,106.5 42,108 			"/>
			<polygon fill="#762C07" points="46,108 43,106.5 43,108.5 46,110 			"/>
			<polygon fill="#762C07" points="4,84 1,82.5 1,84.5 4,86 			"/>
			<polygon fill="#762C07" points="8,86 5,84.5 5,86.5 8,88 			"/>
			<polygon fill="#762C07" points="12,88 9,86.5 9,88.5 12,90 			"/>
			<polygon fill="#762C07" points="16,90 13,88.5 13,90.5 16,92 			"/>
			<polygon fill="#762C07" points="20,92 17,90.5 17,92.5 20,94 			"/>
			<polygon fill="#762C07" points="24,94 21,92.5 21,94.5 24,96 			"/>
			<polygon fill="#762C07" points="28,96 25,94.5 25,96.5 28,98 			"/>
			<polygon fill="#762C07" points="32,98 29,96.5 29,98.5 32,100 			"/>
			<polygon fill="#762C07" points="36,100 33,98.5 33,100.5 36,102 			"/>
			<polygon fill="#762C07" points="40,102 37,100.5 37,102.5 40,104 			"/>
			<polygon fill="#762C07" points="44,104 41,102.5 41,104.5 44,106 			"/>
			<polygon fill="#762C07" points="48,106 45,104.5 45,106.5 48,108 			"/>
			<polygon fill="#762C07" points="2,80 0,79 0,81 2,82 			"/>
			<polygon fill="#762C07" points="6,82 3,80.5 3,82.5 6,84 			"/>
			<polygon fill="#762C07" points="10,84 7,82.5 7,84.5 10,86 			"/>
			<polygon fill="#762C07" points="14,86 11,84.5 11,86.5 14,88 			"/>
			<polygon fill="#762C07" points="18,88 15,86.5 15,88.5 18,90 			"/>
			<polygon fill="#762C07" points="22,90 19,88.5 19,90.5 22,92 			"/>
			<polygon fill="#762C07" points="26,92 23,90.5 23,92.5 26,94 			"/>
			<polygon fill="#762C07" points="30,94 27,92.5 27,94.5 30,96 			"/>
			<polygon fill="#762C07" points="34,96 31,94.5 31,96.5 34,98 			"/>
			<polygon fill="#762C07" points="38,98 35,96.5 35,98.5 38,100 			"/>
			<polygon fill="#762C07" points="42,100 39,98.5 39,100.5 42,102 			"/>
			<polygon fill="#762C07" points="46,102 43,100.5 43,102.5 46,104 			"/>
			<polygon fill="#762C07" points="4,78 1,76.5 1,78.5 4,80 			"/>
			<polygon fill="#762C07" points="8,80 5,78.5 5,80.5 8,82 			"/>
			<polygon fill="#762C07" points="12,82 9,80.5 9,82.5 12,84 			"/>
			<polygon fill="#762C07" points="16,84 13,82.5 13,84.5 16,86 			"/>
			<polygon fill="#762C07" points="20,86 17,84.5 17,86.5 20,88 			"/>
			<polygon fill="#762C07" points="24,88 21,86.5 21,88.5 24,90 			"/>
			<polygon fill="#762C07" points="28,90 25,88.5 25,90.5 28,92 			"/>
			<polygon fill="#762C07" points="32,92 29,90.5 29,92.5 32,94 			"/>
			<polygon fill="#762C07" points="36,94 33,92.5 33,94.5 36,96 			"/>
			<polygon fill="#762C07" points="40,96 37,94.5 37,96.5 40,98 			"/>
			<polygon fill="#762C07" points="44,98 41,96.5 41,98.5 44,100 			"/>
			<polygon fill="#762C07" points="48,100 45,98.5 45,100.5 48,102 			"/>
			<polygon fill="#762C07" points="2,74 0,73 0,75 2,76 			"/>
			<polygon fill="#762C07" points="6,76 3,74.5 3,76.5 6,78 			"/>
			<polygon fill="#762C07" points="10,78 7,76.5 7,78.5 10,80 			"/>
			<polygon fill="#762C07" points="14,80 11,78.5 11,80.5 14,82 			"/>
			<polygon fill="#762C07" points="18,82 15,80.5 15,82.5 18,84 			"/>
			<polygon fill="#762C07" points="22,84 19,82.5 19,84.5 22,86 			"/>
			<polygon fill="#762C07" points="26,86 23,84.5 23,86.5 26,88 			"/>
			<polygon fill="#762C07" points="30,88 27,86.5 27,88.5 30,90 			"/>
			<polygon fill="#762C07" points="34,90 31,88.5 31,90.5 34,92 			"/>
			<polygon fill="#762C07" points="38,92 35,90.5 35,92.5 38,94 			"/>
			<polygon fill="#762C07" points="42,94 39,92.5 39,94.5 42,96 			"/>
			<polygon fill="#762C07" points="46,96 43,94.5 43,96.5 46,98 			"/>
			<polygon fill="#762C07" points="4,72 1,70.5 1,72.5 4,74 			"/>
			<polygon fill="#762C07" points="8,74 5,72.5 5,74.5 8,76 			"/>
			<polygon fill="#762C07" points="12,76 9,74.5 9,76.5 12,78 			"/>
			<polygon fill="#762C07" points="16,78 13,76.5 13,78.5 16,80 			"/>
			<polygon fill="#762C07" points="20,80 17,78.5 17,80.5 20,82 			"/>
			<polygon fill="#762C07" points="24,82 21,80.5 21,82.5 24,84 			"/>
			<polygon fill="#762C07" points="28,84 25,82.5 25,84.5 28,86 			"/>
			<polygon fill="#762C07" points="32,86 29,84.5 29,86.5 32,88 			"/>
			<polygon fill="#762C07" points="36,88 33,86.5 33,88.5 36,90 			"/>
			<polygon fill="#762C07" points="40,90 37,88.5 37,90.5 40,92 			"/>
			<polygon fill="#762C07" points="44,92 41,90.5 41,92.5 44,94 			"/>
			<polygon fill="#762C07" points="48,94 45,92.5 45,94.5 48,96 			"/>
			<polygon fill="#762C07" points="2,68 0,67 0,69 2,70 			"/>
			<polygon fill="#762C07" points="6,70 3,68.5 3,70.5 6,72 			"/>
			<polygon fill="#762C07" points="10,72 7,70.5 7,72.5 10,74 			"/>
			<polygon fill="#762C07" points="14,74 11,72.5 11,74.5 14,76 			"/>
			<polygon fill="#762C07" points="18,76 15,74.5 15,76.5 18,78 			"/>
			<polygon fill="#762C07" points="22,78 19,76.5 19,78.5 22,80 			"/>
			<polygon fill="#762C07" points="26,80 23,78.5 23,80.5 26,82 			"/>
			<polygon fill="#762C07" points="30,82 27,80.5 27,82.5 30,84 			"/>
			<polygon fill="#762C07" points="34,84 31,82.5 31,84.5 34,86 			"/>
			<polygon fill="#762C07" points="38,86 35,84.5 35,86.5 38,88 			"/>
			<polygon fill="#762C07" points="42,88 39,86.5 39,88.5 42,90 			"/>
			<polygon fill="#762C07" points="46,90 43,88.5 43,90.5 46,92 			"/>
			<polygon fill="#762C07" points="48,133 47,132.5 47,134.5 48,135 			"/>
			<polygon fill="#762C07" points="48,127 47,126.5 47,128.5 48,129 			"/>
			<polygon fill="#762C07" points="48,121 47,120.5 47,122.5 48,123 			"/>
			<polygon fill="#762C07" points="48,115 47,114.5 47,116.5 48,117 			"/>
			<polygon fill="#762C07" points="48,109 47,108.5 47,110.5 48,111 			"/>
			<polygon fill="#762C07" points="48,103 47,102.5 47,104.5 48,105 			"/>
			<polygon fill="#762C07" points="48,97 47,96.5 47,98.5 48,99 			"/>
			<polygon fill="#762C07" points="48,91 47,90.5 47,92.5 48,93 			"/>
		</g>
		<g>
			<polygon fill="#BAA794" points="15,109.5 5,104.5 5,91.5 15,96.5 			"/>
			<polygon fill="#3399CC" points="14,108 6,104 6,93 14,97 			"/>
			<polygon opacity="0.15" fill="#262626" points="14,104 6,93 14,97 			"/>
			<polygon opacity="0.15" fill="#262626" points="14,99 6,95 6,93 14,97 			"/>
			<polygon opacity="0.15" fill="#262626" points="14,98 6,94 6,93 14,97 			"/>
			<polygon fill="#F8EBCB" points="15,96.5 5,91.5 5,90.5 15,95.5 			"/>
			<polygon fill="#F8EBCB" points="15,110.5 5,105.5 5,104.5 15,109.5 			"/>
			<polygon fill="#BAA794" points="9,105.5 8,105 8,94 9,94.5 			"/>
			<polygon fill="#BAA794" points="12,107 11,106.5 11,95.5 12,96 			"/>
			<polygon fill="#BAA794" points="14,101 6,97 6,96 14,100 			"/>
			<polygon fill="#BAA794" points="14,105 6,101 6,100 14,104 			"/>
		</g>
		<g>
			<polygon fill="#BAA794" points="29,116.5 19,111.5 19,98.5 29,103.5 			"/>
			<polygon fill="#3399CC" points="28,115 20,111 20,100 28,104 			"/>
			<polygon opacity="0.15" fill="#262626" points="28,114 20,100 28,104 			"/>
			<polygon opacity="0.15" fill="#262626" points="28,106 20,102 20,100 28,104 			"/>
			<polygon opacity="0.15" fill="#262626" points="28,105 20,101 20,100 28,104 			"/>
			<polygon fill="#F8EBCB" points="29,103.5 19,98.5 19,97.5 29,102.5 			"/>
			<polygon fill="#F8EBCB" points="29,117.5 19,112.5 19,111.5 29,116.5 			"/>
			<polygon fill="#BAA794" points="23,112.5 22,112 22,101 23,101.5 			"/>
			<polygon fill="#BAA794" points="26,114 25,113.5 25,102.5 26,103 			"/>
			<polygon fill="#BAA794" points="28,108 20,104 20,103 28,107 			"/>
			<polygon fill="#BAA794" points="28,112 20,108 20,107 28,111 			"/>
		</g>
		<g>
			<polygon fill="#BAA794" points="43,123.5 33,118.5 33,105.5 43,110.5 			"/>
			<polygon fill="#3399CC" points="42,122 34,118 34,107 42,111 			"/>
			<polygon opacity="0.15" fill="#262626" points="42,116 34,107 42,111 			"/>
			<polygon opacity="0.15" fill="#262626" points="42,113 34,109 34,107 42,111 			"/>
			<polygon opacity="0.15" fill="#262626" points="42,112 34,108 34,107 42,111 			"/>
			<polygon fill="#F8EBCB" points="43,110.5 33,105.5 33,104.5 43,109.5 			"/>
			<polygon fill="#F8EBCB" points="43,124.5 33,119.5 33,118.5 43,123.5 			"/>
			<polygon fill="#BAA794" points="37,119.5 36,119 36,108 37,108.5 			"/>
			<polygon fill="#BAA794" points="40,121 39,120.5 39,109.5 40,110 			"/>
			<polygon fill="#BAA794" points="42,115 34,111 34,110 42,114 			"/>
			<polygon fill="#BAA794" points="42,119 34,115 34,114 42,118 			"/>
		</g>
		<g>
			<polygon fill="#BAA794" points="15,89.5 5,84.5 5,71.5 15,76.5 			"/>
			<polygon fill="#3399CC" points="14,88 6,84 6,73 14,77 			"/>
			<polygon opacity="0.2" fill="#FFFFFF" points="14,88 6,73 6,84 			"/>
			<polygon opacity="0.15" fill="#262626" points="14,79 6,75 6,73 14,77 			"/>
			<polygon opacity="0.15" fill="#262626" points="14,78 6,74 6,73 14,77 			"/>
			<polygon fill="#F8EBCB" points="15,76.5 5,71.5 5,70.5 15,75.5 			"/>
			<polygon fill="#F8EBCB" points="15,90.5 5,85.5 5,84.5 15,89.5 			"/>
			<polygon fill="#BAA794" points="9,85.5 8,85 8,74 9,74.5 			"/>
			<polygon fill="#BAA794" points="12,87 11,86.5 11,75.5 12,76 			"/>
			<polygon fill="#BAA794" points="14,81 6,77 6,76 14,80 			"/>
			<polygon fill="#BAA794" points="14,85 6,81 6,80 14,84 			"/>
		</g>
		<g>
			<polygon fill="#BAA794" points="29,96.5 19,91.5 19,78.5 29,83.5 			"/>
			<polygon fill="#3399CC" points="28,95 20,91 20,80 28,84 			"/>
			<polygon opacity="0.2" fill="#FFFFFF" points="28,95 20,84 20,91 			"/>
			<polygon opacity="0.15" fill="#262626" points="28,86 20,82 20,80 28,84 			"/>
			<polygon opacity="0.15" fill="#262626" points="28,85 20,81 20,80 28,84 			"/>
			<polygon fill="#F8EBCB" points="29,83.5 19,78.5 19,77.5 29,82.5 			"/>
			<polygon fill="#F8EBCB" points="29,97.5 19,92.5 19,91.5 29,96.5 			"/>
			<polygon fill="#BAA794" points="23,92.5 22,92 22,81 23,81.5 			"/>
			<polygon fill="#BAA794" points="26,94 25,93.5 25,82.5 26,83 			"/>
			<polygon fill="#BAA794" points="28,88 20,84 20,83 28,87 			"/>
			<polygon fill="#BAA794" points="28,92 20,88 20,87 28,91 			"/>
		</g>
		<g>
			<polygon fill="#BAA794" points="43,103.5 33,98.5 33,85.5 43,90.5 			"/>
			<polygon fill="#3399CC" points="42,102 34,98 34,87 42,91 			"/>
			<polygon opacity="0.2" fill="#FFFFFF" points="34,93 42,102 34,98 			"/>
			<polygon opacity="0.15" fill="#262626" points="42,93 34,89 34,87 42,91 			"/>
			<polygon opacity="0.15" fill="#262626" points="42,92 34,88 34,87 42,91 			"/>
			<polygon fill="#F8EBCB" points="43,90.5 33,85.5 33,84.5 43,89.5 			"/>
			<polygon fill="#F8EBCB" points="43,104.5 33,99.5 33,98.5 43,103.5 			"/>
			<polygon fill="#BAA794" points="37,99.5 36,99 36,88 37,88.5 			"/>
			<polygon fill="#BAA794" points="40,101 39,100.5 39,89.5 40,90 			"/>
			<polygon fill="#BAA794" points="42,95 34,91 34,90 42,94 			"/>
			<polygon fill="#BAA794" points="42,99 34,95 34,94 42,98 			"/>
		</g>
		<polygon opacity="0.06" points="48,136 0,112 0,64 48,88 		"/>
	</g>
	<polygon fill="#F8EBCB" points="128,92 122,95 122,99 138,107 144,104 144,100 	"/>
	<polygon opacity="0.39" points="138,103 138,107 144,104 144,100 	"/>
	<polygon opacity="0.06" points="138,103 138,106 136,105 136,104 134,103 134,102 132,101 132,100 	"/>
	<polygon fill="#999999" points="102,125 138,107 138,106 136,105 136,104 134,103 134,102 132,101 132,100 122,95 86,113 	"/>
	<polygon opacity="0.39" points="100,122 100,123 136,105 136,104 	"/>
	<polygon opacity="0.39" points="98,120 98,121 134,103 134,102 	"/>
	<polygon opacity="0.39" points="96,118 96,119 132,101 132,100 	"/>
	<polygon opacity="0.39" points="102,124 102,125 138,107 138,106 	"/>
	<polygon fill="#F8EBCB" points="86,113 80,116 80,120 96,128 102,125 102,121 	"/>
	<polygon opacity="0.39" points="96,124 96,128 102,125 102,121 	"/>
	<polygon opacity="0.06" points="96,124 96,128 80,120 80,116 	"/>
	<polygon opacity="0.39" points="96,80 96,84 102,81 102,77 	"/>
	<g>
		<path fill="#F8EBCB" d="M85,70c-1.1,0-2,0.4-2,1v44c0,0.6,0.9,1,2,1s2-0.4,2-1V71C87,70.5,86.1,70,85,70z"/>
		<path opacity="0.2" d="M85,72c-1.1,0-2-0.4-2-1v44c0,0.6,0.9,1,2,1s2-0.4,2-1V71C87,71.6,86.1,72,85,72z"/>
	</g>
	<g>
		<path fill="#F8EBCB" d="M127,49c-1.1,0-2,0.4-2,1v44c0,0.6,0.9,1,2,1s2-0.4,2-1V50C129,49.5,128.1,49,127,49z"/>
		<path opacity="0.2" d="M127,51c-1.1,0-2-0.4-2-1v44c0,0.6,0.9,1,2,1s2-0.4,2-1V50C129,50.6,128.1,51,127,51z"/>
	</g>
	<g>
		<path fill="#F8EBCB" d="M97,76c-1.1,0-2,0.4-2,1v44c0,0.6,0.9,1,2,1s2-0.4,2-1V77C99,76.5,98.1,76,97,76z"/>
		<path opacity="0.2" d="M97,78c-1.1,0-2-0.4-2-1v44c0,0.6,0.9,1,2,1s2-0.4,2-1V77C99,77.6,98.1,78,97,78z"/>
	</g>
	<g>
		<path fill="#F8EBCB" d="M139,55c-1.1,0-2,0.4-2,1v44c0,0.6,0.9,1,2,1s2-0.4,2-1V56C141,55.5,140.1,55,139,55z"/>
		<path opacity="0.2" d="M139,57c-1.1,0-2-0.4-2-1v44c0,0.6,0.9,1,2,1s2-0.4,2-1V56C141,56.6,140.1,57,139,57z"/>
	</g>
	<g>
		<path fill="#F8EBCB" d="M113,56c-1.1,0-2,0.4-2,1v44c0,0.6,0.9,1,2,1s2-0.4,2-1V57C115,56.5,114.1,56,113,56z"/>
		<path opacity="0.2" d="M113,58c-1.1,0-2-0.4-2-1v44c0,0.6,0.9,1,2,1s2-0.4,2-1V57C115,57.6,114.1,58,113,58z"/>
	</g>
	<g>
		<path fill="#F8EBCB" d="M99,63c-1.1,0-2,0.4-2,1v44c0,0.6,0.9,1,2,1s2-0.4,2-1V64C101,63.5,100.1,63,99,63z"/>
		<path opacity="0.2" d="M99,65c-1.1,0-2-0.4-2-1v44c0,0.6,0.9,1,2,1s2-0.4,2-1V64C101,64.6,100.1,65,99,65z"/>
	</g>
	<polygon fill="#F8EBCB" points="96,80 144,56 128,48 80,72 	"/>
	<polygon fill="#F8EBCB" points="96,80 96,84 80,76 80,72 	"/>
	<polygon opacity="0.06" points="96,80 96,84 80,76 80,72 	"/>
	<polygon fill="#F8EBCB" points="96,80 96,84 144,60 144,56 120,56 	"/>
	<path fill="#28896D" d="M134,1L134,1L134,1l-22,7L0,64l48,24l112-56L134,1z"/>
	<polygon opacity="0.06" points="0,64 48,88 32,52 	"/>
	<polyline opacity="0.39" points="134,1 32,52 32,52 32,52 48,88 160,32 134,1 	"/>
	<g>
		<polygon fill="#28896D" points="128,48 94,43 80,72 96,80 120,56 144,56 		"/>
		<polygon opacity="0.06" points="94,43 80,72 96,80 120,56 		"/>
		<polygon opacity="0.39" points="128,48 144,56 120,56 94,43 		"/>
	</g>
	<polygon opacity="0.3" fill="#202426" points="121.7,60 135.1,60 108.2,73.4 	"/>
	<polygon opacity="0.06" points="121.7,60 120.7,61 131.8,61 109.5,72.2 108.2,73.4 135.1,60 	"/>
	<polygon opacity="0.39" points="96,80 96,84 144,60 144,56 120,56 	"/>
</g>
</svg>
