<?xml version="1.0" encoding="utf-8"?>
<!-- Generator: Adobe Illustrator 18.1.0, SVG Export Plug-In . SVG Version: 6.00 Build 0)  -->
<svg version="1.1" id="Layer_1" xmlns="http://www.w3.org/2000/svg" xmlns:xlink="http://www.w3.org/1999/xlink" x="0px" y="0px"
	 viewBox="0 0 32 16" enable-background="new 0 0 32 16" xml:space="preserve">
<g>
	<g>
		<polygon fill="#99CC33" points="16,0 32,8 16,16 0,8 		"/>
		<polygon fill="#99CC33" points="16,0 32,8 16,16 0,8 		"/>
	</g>
	<g>
		<polygon fill="#99CC33" points="16,0 32,8 16,16 0,8 		"/>
		<polygon fill="#99CC33" points="16,0 32,8 16,16 0,8 		"/>
	</g>
</g>
<ellipse fill="#539B00" cx="10" cy="5" rx="2" ry="1"/>
<ellipse fill="#539B00" cx="7" cy="10" rx="2" ry="1"/>
<ellipse fill="#539B00" cx="16" cy="8" rx="2" ry="1"/>
<ellipse fill="#539B00" cx="18" cy="3" rx="2" ry="1"/>
<ellipse fill="#539B00" cx="24" cy="9" rx="2" ry="1"/>
<ellipse fill="#539B00" cx="16" cy="14" rx="2" ry="1"/>
<g>
	<ellipse fill="#CC291F" cx="8" cy="6.5" rx="3" ry="1.5"/>
	<ellipse fill="#FFCC00" cx="8" cy="6.5" rx="1" ry="0.5"/>
</g>
<g>
	<ellipse fill="#CC291F" cx="16" cy="2.5" rx="3" ry="1.5"/>
	<ellipse fill="#FFCC00" cx="16" cy="2.5" rx="1" ry="0.5"/>
</g>
<g>
	<ellipse fill="#CC291F" cx="19" cy="6.5" rx="3" ry="1.5"/>
	<ellipse fill="#FFCC00" cx="19" cy="6.5" rx="1" ry="0.5"/>
</g>
<g>
	<ellipse fill="#CC291F" cx="26" cy="8.5" rx="3" ry="1.5"/>
	<ellipse fill="#FFCC00" cx="26" cy="8.5" rx="1" ry="0.5"/>
</g>
<g>
	<ellipse fill="#CC291F" cx="18" cy="12.5" rx="3" ry="1.5"/>
	<ellipse fill="#FFCC00" cx="18" cy="12.5" rx="1" ry="0.5"/>
</g>
<g>
	<ellipse fill="#CC291F" cx="10" cy="10.5" rx="3" ry="1.5"/>
	<ellipse fill="#FFCC00" cx="10" cy="10.5" rx="1" ry="0.5"/>
</g>
</svg>
