<?xml version="1.0" encoding="utf-8"?>
<!-- Generator: Adobe Illustrator 18.1.0, SVG Export Plug-In . SVG Version: 6.00 Build 0)  -->
<svg version="1.1" id="Layer_1" xmlns="http://www.w3.org/2000/svg" xmlns:xlink="http://www.w3.org/1999/xlink" x="0px" y="0px"
	 viewBox="0 0 128 128" enable-background="new 0 0 128 128" xml:space="preserve">
<g>
	<g>
		<polygon fill="#99CC33" points="64,64 128,96 64,128 0,96 		"/>
		<polygon fill="#99CC33" points="64,64 128,96 64,128 0,96 		"/>
	</g>
	<g>
		<ellipse opacity="0.3" cx="62.5" cy="77" rx="7.5" ry="4"/>
		<path fill="#825012" d="M61,50v27c0,0.6,0.7,1,1.5,1s1.5-0.4,1.5-1V50H61z"/>
		<circle fill="#539B00" cx="55.5" cy="45.5" r="6.5"/>
		<circle fill="#539B00" cx="60" cy="37" r="9"/>
		<path fill="#825012" d="M63,65.4c2.6,0,3-0.9,3-3.4v-8h1v10c0,1.7-1.3,3-3,3h-1L63,65.4z"/>
		<path fill="#825012" d="M63,64.8c-1.7,0-3-0.4-3-2.1V53h-1v10c0,1.7,1.3,3,3,3h1L63,64.8z"/>
		<path fill="#825012" d="M61,43.8c-1.7,0-3-0.4-3-2.1V39h-1v3c0,1.7,1.3,3,3,3h1L61,43.8z"/>
		<circle fill="#539B00" cx="67.5" cy="52.5" r="7.5"/>
		<circle fill="#539B00" cx="72" cy="49" r="6"/>
		<path fill="#825012" d="M67,51.8c1.7,0,3-0.4,3-2.1V47h1v3c0,1.7-1.3,3-3,3h-1V51.8z"/>
		<rect x="60" y="36.4" fill="#825012" width="1" height="9.6"/>
		<circle fill="#539B00" cx="69" cy="39" r="8"/>
		<circle fill="#539B00" cx="64" cy="30" r="8"/>
		<path opacity="0.2" fill="#FFFFFF" d="M64.5,38c2.2,0,4.1,1.3,4.9,3.1c0.3-0.1,0.7-0.1,1.1-0.1c1.8,0,3.4,0.9,4.4,2.2
			c-0.4-1.8-2-3.2-3.9-3.2c0,0-0.1,0-0.1,0c-0.5-2.3-2.5-4-4.9-4c-2,0-3.7,1.2-4.5,2.9C62.3,38.3,63.4,38,64.5,38z"/>
		<circle fill="#539B00" cx="55" cy="37.4" r="3.6"/>
		<path opacity="0.2" fill="#FFFFFF" d="M55,37.5c0-2.5,1.7-4.6,4-5.3c0.2-2.9,2.5-5.2,5.5-5.2c1.7,0,3.3,0.8,4.3,2.1
			C68.2,26.7,66,25,63.5,25c-2.9,0-5.3,2.2-5.5,5.1c-2.3,0.5-4,2.5-4,4.9c0,1.1,0.4,2.2,1,3C55,37.8,55,37.7,55,37.5z"/>
		<circle fill="#539B00" cx="60.3" cy="52.8" r="9.3"/>
		<circle fill="#539B00" cx="72.3" cy="46.8" r="3.3"/>
		<path opacity="0.3" d="M78,49c0-0.4,0-0.8-0.1-1.2c-0.6,3.8-3.9,6.7-7.9,6.7c-0.1,0-0.3,0-0.4,0c0.7,0.3,1.6,0.5,2.4,0.5
			c0.7,0,1.3-0.1,1.9-0.3c-1.4,1.4-3.3,2.3-5.4,2.3c-1,0-2-0.2-2.9-0.6C64,58,61.7,59,59.3,59c-3.5,0-6.6-2-8.1-4.8
			c0.7,4.4,4.5,7.8,9.1,7.8c2.2,0,4.3-0.8,5.9-2.1C66.6,60,67,60,67.5,60c3.5,0,6.5-2.4,7.3-5.7C76.7,53.3,78,51.3,78,49z"/>
		<path opacity="0.2" fill="#FFFFFF" d="M57.5,48c0.8,0,1.5,0.1,2.2,0.4C60.6,47,62.2,46,64,46c1,0,1.9,0.3,2.7,0.8
			C66,45.1,64.4,44,62.5,44c-1.6,0-3,0.8-3.8,2c-0.2,0-0.5,0-0.7,0c-2.9,0-5.4,2.1-5.9,4.9C53.3,49.1,55.3,48,57.5,48z"/>
		<path opacity="0.3" d="M53,48.5c-1.9-0.8-3.4-2.4-3.9-4.5c-0.1,0.5-0.2,1-0.2,1.5c0,2.4,1.3,4.4,3.2,5.6
			C52.3,50.2,52.6,49.3,53,48.5z"/>
	</g>
	<g>
		<ellipse opacity="0.3" cx="35.5" cy="87" rx="7.5" ry="4"/>
		<path fill="#825012" d="M37,63v24c0,0.6-0.7,1-1.5,1S34,87.6,34,87V63H37z"/>
		<circle fill="#539B00" cx="44.5" cy="61.5" r="6.5"/>
		<circle fill="#539B00" cx="41" cy="53" r="9"/>
		<path fill="#825012" d="M35,75.4c-2.6,0-3-0.9-3-3.4v-8h-1v10c0,1.7,1.3,3,3,3h1L35,75.4z"/>
		<path fill="#825012" d="M36,76.8c1.7,0,3-0.4,3-2.1V65h1v10c0,1.7-1.3,3-3,3h-1L36,76.8z"/>
		<path fill="#825012" d="M32,73.8c-1.7,0-2-1.3-2-2.1V62h-1v10c0,1.7,1.3,3,3,3h0L32,73.8z"/>
		<circle fill="#539B00" cx="31" cy="63" r="9"/>
		<circle fill="#539B00" cx="26" cy="59" r="6"/>
		<path fill="#825012" d="M31,62.8c-1.7,0-3-0.4-3-2.1V58h-1v3c0,1.7,1.3,3,3,3h1L31,62.8z"/>
		<circle fill="#539B00" cx="30" cy="51" r="8"/>
		<circle fill="#539B00" cx="34" cy="47" r="8"/>
		<circle fill="#539B00" cx="40.5" cy="44.5" r="4.5"/>
		<path opacity="0.2" fill="#FFFFFF" d="M26.1,53c2.2,0,4.1,1.3,4.9,3.1c0.3-0.1,0.7-0.1,1.1-0.1c1.8,0,3.4,0.9,4.4,2.2
			c-0.4-1.8-2-3.2-3.9-3.2c0,0-0.1,0-0.1,0c-0.5-2.3-2.5-4-4.9-4c-2,0-3.7,1.2-4.5,2.9C23.9,53.3,25,53,26.1,53z"/>
		<path fill="#825012" d="M34,50.4c0.2,0.2,0.5,0.4,0.7,0.6H35v-3c-0.3,0-0.7-0.1-1-0.2V50.4z"/>
		<path opacity="0.2" fill="#FFFFFF" d="M34.5,43c2.4,0,4.3,1.9,4.5,4.2c0.5-0.1,1-0.2,1.5-0.2c2.5,0,4.6,1.6,5.3,3.9
			c0.1-0.4,0.2-0.9,0.2-1.4c0-2.5-2-4.5-4.5-4.5c-0.5,0-1,0.1-1.5,0.3c-0.1-1.8-1.6-3.3-3.5-3.3c-1,0-1.9,0.4-2.5,1
			C34.2,43,34.3,43,34.5,43z"/>
		<path opacity="0.3" d="M49.9,54.4c-1.7,1.9-4.1,3.1-6.8,3.1c-0.2,0-0.4,0-0.6,0c1,1.1,1.6,2.4,1.7,3.9
			C47.1,60.3,49.4,57.6,49.9,54.4z"/>
		<g>
			<path opacity="0.3" d="M47.5,64.7c0.3,0.7,0.4,1.5,0.5,2.3c1.7-1.1,2.9-2.9,3-5C50.2,63.3,48.9,64.2,47.5,64.7z"/>
		</g>
		<path opacity="0.3" d="M25.7,53c-1.6-1.4-2.7-3.5-2.7-5.9c-0.6,1.1-1,2.5-1,3.9c0,1.1,0.2,2.1,0.6,3.1
			C23.5,53.4,24.6,53.1,25.7,53z"/>
		<path fill="#825012" d="M41,54.6c0,1.7-1.3,2.1-3,2.1V58h1c1.7,0,3-1.3,3-3v-2c-0.3,0-0.7-0.1-1-0.2V54.6z"/>
		<circle fill="#539B00" cx="38.8" cy="65.8" r="9.3"/>
		<path opacity="0.2" fill="#FFFFFF" d="M35,63c1.2,0,2.3,0.3,3.3,0.8c1.2-1.1,2.9-1.8,4.7-1.8c1.6,0,3.1,0.5,4.2,1.4
			c-1.1-2-3.3-3.4-5.7-3.4c-1.6,0-3.1,0.6-4.2,1.6C36.6,61.2,35.8,61,35,61c-2.4,0-4.4,1.7-4.9,4C31.4,63.8,33.1,63,35,63z"/>
		<path opacity="0.3" d="M39.8,73c-3.8,0-7-2-8.8-5c-0.3,0-0.6,0-0.9,0c-3.5,0-6.5-2-8-4.9c0.1,4.9,4.1,8.9,9,8.9c0.3,0,0.6,0,0.9,0
			c1.7,1.9,4.1,3,6.8,3c3.6,0,6.6-2,8.2-4.9C45.1,71.9,42.5,73,39.8,73z"/>
	</g>
	<g>
		<polygon opacity="0.3" points="11.3,95 6,96.9 9.8,97.1 7.4,98.6 12.9,98.6 16,97.7 15.5,100.4 18.8,99.8 21.2,97.8 25.8,99.3 
			30.6,98.6 29.1,97.7 30.8,97.2 23.9,95.4 		"/>
		<path fill="#28896D" d="M13.4,75c3.9-0.5,5.8-8,5.8-8s0.8,7.4,5.8,9.4c0.1,0.7-1.7,1.3-3.3,0.6c-0.1,1.5,3.2,3.9,5.2,4.4
			c0.1,0.8-1.8,2-3.6,1.4c0.8,1.8,2.2,3.3,5.2,4.1c-1.4,0.8-3.6,0.1-5,0c0,1.2,4.4,2.3,6.6,2.2c-0.4,1.1-2.5,2.3-4.4,2.2
			c0,1.3,4.3,2.4,5.5,2.8c0.1,1.1-3,1.8-5.2,1.1c-0.1,1.3,2.2,2.5,3.3,3c0,1-7.1,0.7-8.3-1.4c-1.3,0.5-2.2,3.3-4.8,3.1
			c0.3-0.7,1.1-3.1-0.2-3.6c-1,1.4-5.4,2.5-7.2,1.7c0.5-0.5,3-0.8,2.2-2.5c-2.3-0.1-5.3-2.1-5.2-3c0.6,0.4,4.3,1,4.4,0
			c-1.7-0.1-2.7-1.4-2.8-2.5c0.6,0.3,4.3,0.9,4.4-0.3c-1.3-0.5-2.9-1.4-2.8-2.5c1.1,0.1,3.4,0.1,3.6-1.1c-1.4-0.5-2.7-2.5-2.8-3.3
			c1,0.3,5,0.1,5-0.8c-1.7-0.1-3.2-0.8-3-1.9c2.2-0.2,4.7-2.5,4.7-3.6C15.8,76.6,14,76.3,13.4,75z"/>
		<path opacity="0.2" fill="#FFFFFF" d="M28.6,86.8c0,0-2.8,0.1-5.2-2.2c-2.4-2.3-3-3.9-3-3.9s-0.6,0.8-2.5,1.9
			c-1.9,1.2-6.1,1.1-6.1,1.1s2.6,2,6.3,0.8c1.8-0.6,1.7-1,1.7-1s2.6,2.2,3.6,2.6C27.1,87.6,28.6,86.8,28.6,86.8z"/>
		<path opacity="0.2" fill="#FFFFFF" d="M13.2,80.2c3.3-1.8,5.4-3.2,6.1-6.1c-0.2,1.3,2.6,5,5.2,6.9c-1.9-0.2-4.4-3.4-5.5-3.3
			C18.7,78.7,15.4,80,13.2,80.2z"/>
		<path opacity="0.2" fill="#FFFFFF" d="M14.7,75.3c3.3-1.8,3.9-4.1,4.5-6.9c-0.2,1.3,1.5,5.5,4.1,7.4c-1.9-0.2-3.6-3-4.4-3.6
			C18.7,73.2,16.9,75.1,14.7,75.3z"/>
		<path opacity="0.2" fill="#FFFFFF" d="M9.8,87.6c0,0,4.1-0.1,7.2-1.6c1-0.1,2.3,2.9,3,3c0.8-0.2,1.2-0.4,2-0.9
			c0.7,2.8,5.7,5.3,8.5,6.1c-5.2,0-8.8-3.4-9.4-4.4c-0.6,0.5-0.8,1.9-1.9,1.9c-1-1.4-2.4-3.4-2.8-4.4C15.4,87.2,11.4,88.5,9.8,87.6z
			"/>
		<path opacity="0.2" fill="#FFFFFF" d="M7.3,93.2c5.8,0.6,7.9-2,8.9-3.1C15.6,94.1,9,95.2,7.3,93.2z"/>
		<path opacity="0.2" fill="#FFFFFF" d="M22.6,92.5c1.6,2.7,2.3,4.2,6,5.5C22.5,98.3,21.9,93.7,22.6,92.5z"/>
		<path opacity="0.2" fill="#FFFFFF" d="M17.1,99.1c0.3,0.2,3.9-5.5,1.3-6.5C17,93.4,18.2,96.3,17.1,99.1z"/>
		<path opacity="0.3" d="M21.2,75.7c-1.5-1.2-1.5-1.2-1.5-1.2s1.2,1.5,2,2.4c0,0,0,0,0,0c1.6,0.8,3.4,0.1,3.3-0.6
			C25,76.4,22.7,76.9,21.2,75.7z"/>
		<path opacity="0.3" d="M23.2,96.5c-1.8-1.9-2.3-4.8-2.3-4.8s-1.1,3.8-2,5.6c-0.6,1.1-1.1,2-2.5,2.4c0,0,0,0.1,0,0.1
			c2.6,0.2,3.5-2.6,4.8-3.1c1.2,2.1,8.3,2.4,8.3,1.4C29.4,98.1,25,98.4,23.2,96.5z"/>
		<path opacity="0.3" d="M26.4,89.9c-1.8-0.1-4.4-3.5-4.4-3.5s-1.3,0.6-2,0.1s-1.4-1.1-1.4-1.1s0.7,3.2,1.7,3.1c1-0.1,1.6-0.4,2-0.9
			c0.5,2.5,3.7,3.8,3.7,3.8c1.9,0.1,4-1.1,4.4-2.2C30.2,89,28.2,90,26.4,89.9z"/>
		<path opacity="0.3" d="M15.1,81.9C15.1,81.9,15.1,81.9,15.1,81.9c0.5,0,1.1,0,1.6-0.1c1.4-0.2,3.8-1.5,3.8-1.5l-1.8,0.2l0.7-1.6
			c0,0-2.1,1.7-4,2c-1.9,0.2-3.3-0.9-3.3-0.9C11.9,81,13.4,81.7,15.1,81.9z"/>
		<g>
			<path opacity="0.3" d="M12.1,89.6c-0.1,1.2-3.8,0.6-4.4,0.3c2.7,1.8,7.8-0.3,7.8-0.3l-2.5,0l2.8-1.4c0,0-6.3,0.4-6.5-1.2
				C9.2,88.2,10.8,89.1,12.1,89.6z"/>
			<path opacity="0.3" d="M14.7,90.9c0,0-2,0.6-3.3,0.6c-1.3,0-3.6-1.2-3.7-1.6c0.1,1,1.1,2.3,2.7,2.4
				C13.6,92.6,14.7,90.9,14.7,90.9z"/>
		</g>
		<path opacity="0.3" d="M17.2,96.8c0-1.1-0.3-7.6-0.3-7.6s-0.1,3.9-3.6,7.2C12.1,97.5,9,97.8,9,97.8c1.8,0.8,6.1-0.2,7.2-1.7
			c1,0.4,0.7,1.9,0.4,2.9C16.9,98.5,17.2,97.5,17.2,96.8z"/>
	</g>
	<g>
		<polygon opacity="0.3" points="66.2,89.1 56.8,92.4 63.5,92.8 59.4,95.6 69,95.4 74.6,94 73.7,98.7 79.6,97.7 83.8,94.1 92,96.7 
			100.5,95.6 97.8,93.9 100.8,93.1 88.5,89.7 		"/>
		<path fill="#28896D" d="M101.8,87.3c-2.1-0.6-9.8-2.6-9.8-4.9c3.3,0.2,7.1-1.9,7.8-3.9c-2.5,0.2-6.4-0.6-9.1-1.7
			c-0.4-0.5-0.7-1-0.8-1.5c2.3,0.6,5,0.4,6.9-0.7c-1.1-0.3-2.1-0.6-2.9-1c1.2-1,2-2.3,2.5-3.1c-2.4,0.7-6.9-0.1-6.9-2.2
			c2.6,0.2,5.5-1.8,6.1-3.7c-0.9,0.1-2.1-0.1-3.3-0.3c-1.7-0.8-3.7-2-5.2-3.3c1.8,0.3,4.5,1.1,6.2-0.1c-2.4-0.8-4-1.9-5.2-3.3
			c1.4-0.2,2.5-0.9,2.4-1.6c-1.1-0.4-2.1-1.1-3-1.8c2,0,3.6-1.5,3.5-2.6c-2.8-0.9-7.5-4.8-7.3-7.4c2.2,1.3,4.7,0.2,4.6-0.9
			c-6.9-3.3-8-15.7-8-15.7s-2.6,13.7-8.1,14.4c0.8,2.2,3.4,2.3,4.6,1.2c0,1.7-3.4,5.7-6.5,6c-0.1,1.4,1,2.4,2.7,2.9
			c-0.9,0.7-2,1.1-3.1,1.3c0.1,0.2,0.2,0.4,0.3,0.6c-1.1,0.1-2.1,0-2.6-0.2c0.1,1.3,1.9,4.7,3.8,5.5c-0.2,2-3.4,2.1-5,1.8
			c-0.1,1.3,0.8,2.3,2.1,3.2c0,0,0,0,0,0c0.6,0.4,1.2,0.7,1.7,1c-0.2,2-5.3,1-6.1,0.5c0,0.6,0.2,1.2,0.5,1.8c0.4,1,0.9,2.2,1.7,3.2
			c-1.6,0.1-4-0.4-4.5-0.9c-0.1,1.3,2.7,3.7,5.4,4.7c-1.4,0.5-3.5,0.5-4.7,0.3c-0.2,2,2.6,3.5,4.9,4.4c-0.2,2.1-6.8,1.1-7.8,0.5
			c0.1,1.8,2,4.2,4.9,4.4c-0.2,1.7-6.9,0.7-7.8,0c-0.1,1.7,5.3,5.3,9.3,5.4c1.3,2.9-3.1,3.5-3.9,4.4c3.2,1.5,10.9-0.4,12.7-2.9
			c2.2,1,0.9,5.2,0.3,6.4c4.6,0.3,6.2-4.6,8.5-5.5c2.1,3.7,14.7,4.3,14.7,2.4c-2-1-6-3.1-5.9-5.4C96.4,90.5,102.1,89.3,101.8,87.3z"
			/>
		<path opacity="0.2" fill="#FFFFFF" d="M96.9,74.6c0,0-5,0.2-9.3-3.9c-4.3-4.2-5.4-6.9-5.4-6.9s-1,1.3-4.4,3.4
			c-3.4,2.1-10.8,2-10.8,2s4.7,3.5,11.3,1.5c3.2-1,2.9-1.7,2.9-1.7s4.6,3.9,6.4,4.6C94.2,76,96.9,74.6,96.9,74.6z"/>
		<path opacity="0.2" fill="#FFFFFF" d="M68.5,54.4c5.5-0.1,8.8-2,11-3.9c0.4,1.4,2.5,6.6,10.6,9.6c-3.4-0.4-11.4-3.8-11.2-5.9
			C78.5,55.9,72.1,58.4,68.5,54.4z"/>
		<path opacity="0.2" fill="#FFFFFF" d="M75.1,41.3c5.1-3.2,4.3-4.9,5.2-8.9c-0.4,2.3,1.7,7.5,6.3,11c-4.4-0.9-5.7-3.7-6.6-5.8
			C79.7,39.2,78,40.4,75.1,41.3z"/>
		<path opacity="0.2" fill="#FFFFFF" d="M72.8,49.9c5.9-3.2,7.6-3.4,8.8-8.4c-0.4,2.3,2,5.9,6.6,9.3c-3.4-0.4-4.9-3.6-6.3-4.7
			C81.6,47.8,76.9,49.5,72.8,49.9z"/>
		<path opacity="0.2" fill="#FFFFFF" d="M63.5,75.9c0,0,7.3-0.1,12.9-2.8c1.7-0.1,4.2,5.1,5.4,5.4c1.3-0.4,2.1-0.7,3.5-1.6
			c1.2,5,10.1,9.4,15.1,10.9c-9.2,0-15.7-6-16.6-7.8c-1.1,0.9-1.3,3.4-3.4,3.4c-1.7-2.4-4.3-6-4.9-7.8
			C73.6,75.2,66.3,77.6,63.5,75.9z"/>
		<path opacity="0.2" fill="#FFFFFF" d="M59.1,85.9c10.3,1.1,14-3.6,15.8-5.5C73.8,87.6,62.2,89.5,59.1,85.9z"/>
		<path opacity="0.2" fill="#FFFFFF" d="M86.3,84.6c2.9,4.8,4,7.5,10.7,9.7C86.2,95,85.1,86.9,86.3,84.6z"/>
		<path opacity="0.2" fill="#FFFFFF" d="M76.6,96.3c0.6,0.3,6.9-9.7,2.3-11.5C76.3,86.2,78.5,91.4,76.6,96.3z"/>
		<path opacity="0.3" d="M83.9,54.9c-2.6-2.1-2.6-2.1-2.6-2.1s2.1,2.6,3.5,4.3c0,0,0,0,0,0c2.8,1.4,6,0.2,5.9-1
			C90.6,56,86.5,57,83.9,54.9z"/>
		<path opacity="0.3" d="M87.3,91.8c-3.3-3.4-4-8.5-4-8.5s-2,6.8-3.5,9.9c-1,2-1.9,3.6-4.5,4.3c0,0.1,0,0.1-0.1,0.2
			c4.6,0.3,6.2-4.6,8.5-5.5c2.1,3.7,14.7,4.3,14.7,2.4C98.4,94.7,90.6,95.2,87.3,91.8z"/>
		<path opacity="0.3" d="M93,80c-3.3-0.2-7.8-6.3-7.8-6.3s-2.3,1.1-3.6,0.2c-1.3-0.9-2.5-2-2.5-2s1.2,5.7,2.9,5.4
			c1.8-0.3,2.8-0.8,3.5-1.6c0.8,4.4,6.5,6.8,6.5,6.7c3.3,0.2,7.1-1.9,7.8-3.9C99.9,78.5,96.3,80.2,93,80z"/>
		<path opacity="0.3" d="M72.7,65.8c0,0,0-0.6,0-0.6c1,0,1.9,0.5,2.8,0.4c2.5-0.3,6.7-3.3,6.7-3.3L79,62.7l1.3-2.8
			c0,0-3.8,3.1-7.1,3.5c-3.4,0.4-6.4-1.8-6.4-1.8C66.5,63.5,69.6,65.5,72.7,65.8z"/>
		<g>
			<path opacity="0.3" d="M67.6,79.5c-0.2,2.1-6.8,1.1-7.8,0.5c4.8,3.1,13.9-0.5,13.9-0.5l-4.4,0.1l5-2.4c0,0-11.1,0.7-11.6-2.1
				C62.4,77,65.2,78.6,67.6,79.5z"/>
			<path opacity="0.3" d="M72.2,81.8c0,0-3.5,1-5.9,1c-2.2,0-6.4-2.2-6.6-2.8c0.2,1.8,2,4.1,4.9,4.3C70.3,84.9,72.2,81.8,72.2,81.8z
				"/>
		</g>
		<path opacity="0.3" d="M76.7,92.2c0-2-0.5-13.5-0.5-13.5s-0.3,6.9-6.5,12.8c-2.1,2-7.5,2.6-7.5,2.6c3.2,1.5,10.9-0.4,12.7-2.9
			c1.7,0.8,1.3,3.4,0.8,5.2C76.1,95.2,76.7,93.5,76.7,92.2z"/>
		<path opacity="0.3" d="M95.7,64.5c0,0-3.3,1.8-6.6,1c-3.3-0.8-5.7-3-5.7-3s1.3,3.7,2.8,6c1.6,2.4,7.5,4.5,10.3,2
			c-2.4,0.7-6.9-0.1-6.9-2.2C92.2,68.4,95.1,66.4,95.7,64.5z"/>
		<path opacity="0.3" d="M87.4,51.8c-2.8-0.4-5.6-3.9-5.6-3.9s-2.8,1.5-0.1,3.3c2.7,1.7,0.3,2.2,5.8,3.1c2,0,3.6-1.5,3.5-2.6
			C91.1,51.6,90.1,52.1,87.4,51.8z"/>
		<path opacity="0.3" d="M70.4,49.3c0,0,2,0.5,6.6-2.4c4.6-2.9,3-8,3-8s-1.7,2.3-3.5,2.6c-1.5,0.2-3.1,0.7-4,0.6c-0.2,0-0.3,0-0.3,0
			c0.8,2.2,3.4,2.3,4.6,1.2C76.9,45.1,73.5,49,70.4,49.3z"/>
	</g>
	<g>
		<ellipse opacity="0.3" cx="51.5" cy="110" rx="7.5" ry="4"/>
		<path fill="#825012" d="M50,83v27c0,0.6,0.7,1,1.5,1s1.5-0.4,1.5-1V83H50z"/>
		<circle fill="#539B00" cx="44.5" cy="78.5" r="6.5"/>
		<circle fill="#539B00" cx="49" cy="70" r="9"/>
		<path fill="#825012" d="M52,98.4c2.6,0,3-0.9,3-3.4v-8h1v10c0,1.7-1.3,3-3,3h-1L52,98.4z"/>
		<path fill="#825012" d="M52,97.8c-1.7,0-3-0.4-3-2.1V86h-1v10c0,1.7,1.3,3,3,3h1L52,97.8z"/>
		<path fill="#825012" d="M50,76.8c-1.7,0-3-0.4-3-2.1V72h-1v3c0,1.7,1.3,3,3,3h1L50,76.8z"/>
		<circle fill="#539B00" cx="56.5" cy="85.5" r="7.5"/>
		<circle fill="#539B00" cx="61" cy="82" r="6"/>
		<path fill="#825012" d="M56,84.8c1.7,0,3-0.4,3-2.1V80h1v3c0,1.7-1.3,3-3,3h-1L56,84.8z"/>
		<rect x="49" y="69.4" fill="#825012" width="1" height="9.6"/>
		<circle fill="#539B00" cx="58" cy="72" r="8"/>
		<circle fill="#539B00" cx="53" cy="63" r="8"/>
		<path opacity="0.2" fill="#FFFFFF" d="M53.5,71c2.2,0,4.1,1.3,4.9,3.1c0.3-0.1,0.7-0.1,1.1-0.1c1.8,0,3.4,0.9,4.4,2.2
			c-0.4-1.8-2-3.2-3.9-3.2c0,0-0.1,0-0.1,0c-0.5-2.3-2.5-4-4.9-4c-2,0-3.7,1.2-4.5,2.9C51.3,71.3,52.4,71,53.5,71z"/>
		<circle fill="#539B00" cx="44" cy="70.4" r="3.6"/>
		<path opacity="0.2" fill="#FFFFFF" d="M44,70.5c0-2.5,1.7-4.6,4-5.3c0.2-2.9,2.5-5.2,5.5-5.2c1.7,0,3.3,0.8,4.3,2.1
			C57.2,59.7,55,58,52.5,58c-2.9,0-5.3,2.2-5.5,5.1c-2.3,0.5-4,2.5-4,4.9c0,1.1,0.4,2.2,1,3C44,70.8,44,70.7,44,70.5z"/>
		<circle fill="#539B00" cx="49.3" cy="85.8" r="9.3"/>
		<circle fill="#539B00" cx="61.3" cy="79.8" r="3.3"/>
		<path opacity="0.3" d="M67,82c0-0.4,0-0.8-0.1-1.2c-0.6,3.8-3.9,6.7-7.9,6.7c-0.1,0-0.3,0-0.4,0c0.7,0.3,1.6,0.5,2.4,0.5
			c0.7,0,1.3-0.1,1.9-0.3c-1.4,1.4-3.3,2.3-5.4,2.3c-1,0-2-0.2-2.9-0.6C53,91,50.7,92,48.3,92c-3.5,0-6.6-2-8.1-4.8
			c0.7,4.4,4.5,7.8,9.1,7.8c2.2,0,4.3-0.8,5.9-2.1C55.6,93,56,93,56.5,93c3.5,0,6.5-2.4,7.3-5.7C65.7,86.3,67,84.3,67,82z"/>
		<path opacity="0.2" fill="#FFFFFF" d="M46.5,81c0.8,0,1.5,0.1,2.2,0.4C49.6,80,51.2,79,53,79c1,0,1.9,0.3,2.7,0.8
			C55,78.1,53.4,77,51.5,77c-1.6,0-3,0.8-3.8,2c-0.2,0-0.5,0-0.7,0c-2.9,0-5.4,2.1-5.9,4.9C42.3,82.1,44.3,81,46.5,81z"/>
		<path opacity="0.3" d="M42,81.5c-1.9-0.8-3.4-2.4-3.9-4.5c-0.1,0.5-0.2,1-0.2,1.5c0,2.4,1.3,4.4,3.2,5.6
			C41.3,83.2,41.6,82.3,42,81.5z"/>
	</g>
	<g>
		<ellipse opacity="0.3" cx="101.5" cy="99" rx="7.5" ry="4"/>
		<path fill="#825012" d="M103,75v24c0,0.6-0.7,1-1.5,1s-1.5-0.4-1.5-1V75H103z"/>
		<circle fill="#539B00" cx="110.5" cy="73.5" r="6.5"/>
		<circle fill="#539B00" cx="107" cy="65" r="9"/>
		<path fill="#825012" d="M101,87.4c-2.6,0-3-0.9-3-3.4v-8h-1v10c0,1.7,1.3,3,3,3h1V87.4z"/>
		<path fill="#825012" d="M102,88.8c1.7,0,3-0.4,3-2.1V77h1v10c0,1.7-1.3,3-3,3h-1V88.8z"/>
		<path fill="#825012" d="M98,85.8c-1.7,0-2-1.3-2-2.1V74h-1v10c0,1.7,1.3,3,3,3l0,0V85.8z"/>
		<circle fill="#539B00" cx="97" cy="75" r="9"/>
		<circle fill="#539B00" cx="92" cy="71" r="6"/>
		<path fill="#825012" d="M97,74.8c-1.7,0-3-0.4-3-2.1V70h-1v3c0,1.7,1.3,3,3,3h1V74.8z"/>
		<circle fill="#539B00" cx="96" cy="63" r="8"/>
		<circle fill="#539B00" cx="100" cy="59" r="8"/>
		<circle fill="#539B00" cx="106.5" cy="56.5" r="4.5"/>
		<path opacity="0.2" fill="#FFFFFF" d="M92.1,65c2.2,0,4.1,1.3,4.9,3.1c0.3-0.1,0.7-0.1,1.1-0.1c1.8,0,3.4,0.9,4.4,2.2
			c-0.4-1.8-2-3.2-3.9-3.2c0,0-0.1,0-0.1,0c-0.5-2.3-2.5-4-4.9-4c-2,0-3.7,1.2-4.5,2.9C89.9,65.3,91,65,92.1,65z"/>
		<path fill="#825012" d="M100,62.4c0.2,0.2,0.5,0.4,0.7,0.6h0.3v-3c-0.3,0-0.7-0.1-1-0.2V62.4z"/>
		<path opacity="0.2" fill="#FFFFFF" d="M100.5,55c2.4,0,4.3,1.9,4.5,4.2c0.5-0.1,1-0.2,1.5-0.2c2.5,0,4.6,1.6,5.3,3.9
			c0.1-0.4,0.2-0.9,0.2-1.4c0-2.5-2-4.5-4.5-4.5c-0.5,0-1,0.1-1.5,0.3c-0.1-1.8-1.6-3.3-3.5-3.3c-1,0-1.9,0.4-2.5,1
			C100.2,55,100.3,55,100.5,55z"/>
		<path opacity="0.3" d="M115.9,66.4c-1.7,1.9-4.1,3.1-6.8,3.1c-0.2,0-0.4,0-0.6,0c1,1.1,1.6,2.4,1.7,3.9
			C113.1,72.3,115.4,69.6,115.9,66.4z"/>
		<g>
			<path opacity="0.3" d="M113.5,76.7c0.3,0.7,0.4,1.5,0.5,2.3c1.7-1.1,2.9-2.9,3-5C116.2,75.3,114.9,76.2,113.5,76.7z"/>
		</g>
		<path opacity="0.3" d="M91.7,65c-1.6-1.4-2.7-3.5-2.7-5.9c-0.6,1.1-1,2.5-1,3.9c0,1.1,0.2,2.1,0.6,3.1
			C89.5,65.4,90.6,65.1,91.7,65z"/>
		<path fill="#825012" d="M107,66.6c0,1.7-1.3,2.1-3,2.1V70h1c1.7,0,3-1.3,3-3v-2c-0.3,0-0.7-0.1-1-0.2V66.6z"/>
		<circle fill="#539B00" cx="104.8" cy="77.8" r="9.3"/>
		<path opacity="0.2" fill="#FFFFFF" d="M101,75c1.2,0,2.3,0.3,3.3,0.8c1.2-1.1,2.9-1.8,4.7-1.8c1.6,0,3.1,0.5,4.2,1.4
			c-1.1-2-3.3-3.4-5.7-3.4c-1.6,0-3.1,0.6-4.2,1.6c-0.7-0.4-1.4-0.6-2.3-0.6c-2.4,0-4.4,1.7-4.9,4C97.4,75.8,99.1,75,101,75z"/>
		<path opacity="0.3" d="M105.8,85c-3.8,0-7-2-8.8-5c-0.3,0-0.6,0-0.9,0c-3.5,0-6.5-2-8-4.9c0.1,4.9,4.1,8.9,9,8.9
			c0.3,0,0.6,0,0.9,0c1.7,1.9,4.1,3,6.8,3c3.6,0,6.6-2,8.2-4.9C111.1,83.9,108.5,85,105.8,85z"/>
	</g>
	<g>
		<polygon opacity="0.3" points="71.4,109.2 65.7,111.2 69.8,111.4 67.3,113.1 73.1,113 76.5,112.2 75.9,115 79.5,114.4 82.1,112.2 
			87,113.8 92.2,113.1 90.6,112.1 92.4,111.6 84.9,109.6 		"/>
		<path fill="#28896D" d="M73.7,87.7c4.2-0.5,6.2-8.6,6.2-8.6s0.9,8,6.2,10.1c0.1,0.7-1.9,1.4-3.6,0.6c-0.1,1.6,3.5,4.1,5.6,4.7
			c0.1,0.9-1.9,2.1-3.9,1.5c0.9,1.9,2.3,3.6,5.6,4.4c-1.5,0.9-3.9,0.1-5.3,0c0,1.3,4.7,2.5,7.1,2.4c-0.4,1.2-2.7,2.5-4.7,2.4
			c0,1.4,4.7,2.6,5.9,3c0.1,1.2-3.3,1.9-5.6,1.2c-0.1,1.4,2.4,2.7,3.6,3.3c0,1.1-7.6,0.7-8.9-1.5c-1.4,0.5-2.4,3.5-5.1,3.3
			c0.4-0.8,1.1-3.3-0.2-3.9c-1.1,1.6-5.8,2.7-7.7,1.8c0.5-0.5,3.2-0.9,2.4-2.7c-2.4-0.1-5.7-2.2-5.6-3.3c0.6,0.4,4.6,1,4.7,0
			c-1.8-0.1-2.9-1.6-3-2.7c0.6,0.3,4.6,1,4.7-0.3c-1.4-0.5-3.1-1.5-3-2.7c1.2,0.1,3.7,0.1,3.9-1.2c-1.5-0.5-2.9-2.7-3-3.6
			c1.1,0.3,5.4,0.1,5.3-0.9c-1.9-0.1-3.4-0.9-3.3-2.1c2.4-0.2,5-2.7,5-3.9C76.3,89.4,74.4,89.1,73.7,87.7z"/>
		<path opacity="0.2" fill="#FFFFFF" d="M90,100.4c0,0-3,0.1-5.6-2.4c-2.6-2.5-3.3-4.1-3.3-4.1s-0.6,0.8-2.7,2.1
			c-2.1,1.3-6.5,1.2-6.5,1.2s2.8,2.1,6.8,0.9c2-0.6,1.8-1,1.8-1s2.8,2.4,3.8,2.8C88.4,101.3,90,100.4,90,100.4z"/>
		<path opacity="0.2" fill="#FFFFFF" d="M73.4,93.3c3.6-1.9,5.8-3.5,6.5-6.5c-0.2,1.4,2.8,5.3,5.6,7.4c-2.1-0.2-4.7-3.7-5.9-3.6
			C79.4,91.7,75.9,93.1,73.4,93.3z"/>
		<path opacity="0.2" fill="#FFFFFF" d="M75.1,88c3.6-1.9,4.2-4.4,4.9-7.5c-0.2,1.4,1.6,5.9,4.4,8c-2.1-0.2-3.9-3.2-4.7-3.9
			C79.4,85.7,77.5,87.8,75.1,88z"/>
		<path opacity="0.2" fill="#FFFFFF" d="M69.8,101.2c0,0,4.4-0.1,7.8-1.7c1-0.1,2.5,3.1,3.3,3.3c0.8-0.2,1.3-0.4,2.1-1
			c0.7,3.1,6.1,5.7,9.1,6.6c-5.5,0-9.5-3.6-10.1-4.7c-0.7,0.5-0.8,2.1-2.1,2.1c-1-1.5-2.6-3.6-3-4.7
			C75.9,100.8,71.5,102.2,69.8,101.2z"/>
		<path opacity="0.2" fill="#FFFFFF" d="M67.1,107.3c6.2,0.7,8.5-2.2,9.5-3.3C76,108.3,69,109.5,67.1,107.3z"/>
		<path opacity="0.2" fill="#FFFFFF" d="M83.6,106.5c1.8,2.9,2.4,4.6,6.5,5.9C83.5,112.8,82.8,107.8,83.6,106.5z"/>
		<path opacity="0.2" fill="#FFFFFF" d="M77.7,113.6c0.4,0.2,4.2-5.9,1.4-7C77.5,107.4,78.9,110.6,77.7,113.6z"/>
		<path opacity="0.3" d="M82.1,88.5c-1.6-1.3-1.6-1.3-1.6-1.3s1.3,1.6,2.1,2.6c0,0,0,0,0,0c1.7,0.8,3.7,0.1,3.6-0.6
			C86.2,89.1,83.7,89.8,82.1,88.5z"/>
		<path opacity="0.3" d="M84.2,110.8c-2-2-2.4-5.1-2.4-5.1s-1.2,4.1-2.1,6c-0.6,1.2-1.2,2.2-2.7,2.6c0,0,0,0.1,0,0.1
			c2.8,0.2,3.7-2.8,5.1-3.3c1.3,2.2,8.9,2.6,8.9,1.5C90.9,112.6,86.2,112.9,84.2,110.8z"/>
		<path opacity="0.3" d="M87.6,103.7c-2-0.1-4.7-3.8-4.7-3.8s-1.4,0.7-2.2,0.1c-0.8-0.6-1.5-1.2-1.5-1.2s0.7,3.5,1.8,3.3
			c1.1-0.2,1.7-0.5,2.1-1c0.5,2.6,3.9,4.1,3.9,4.1c2,0.1,4.3-1.1,4.7-2.4C91.8,102.8,89.6,103.8,87.6,103.7z"/>
		<path opacity="0.3" d="M75.5,95.1C75.5,95.1,75.5,95.1,75.5,95.1c0.6,0,1.2,0,1.7-0.1c1.5-0.2,4.1-1.6,4.1-1.6l-2,0.2l0.8-1.7
			c0,0-2.3,1.9-4.3,2.1c-2,0.3-3.5-1-3.5-1C72.1,94.2,73.7,94.9,75.5,95.1z"/>
		<g>
			<path opacity="0.3" d="M72.2,103.4c-0.1,1.3-4.1,0.6-4.7,0.3c2.9,1.9,8.4-0.3,8.4-0.3l-2.6,0.1l3-1.5c0,0-6.7,0.4-7-1.3
				C69.1,101.9,70.8,102.9,72.2,103.4z"/>
			<path opacity="0.3" d="M75.1,104.8c0,0-2.1,0.6-3.6,0.6c-1.4,0-3.8-1.3-4-1.7c0.1,1.1,1.2,2.5,3,2.6
				C73.9,106.6,75.1,104.8,75.1,104.8z"/>
		</g>
		<path opacity="0.3" d="M77.7,111.1c0-1.2-0.3-8.2-0.3-8.2s-0.2,4.2-3.9,7.8c-1.3,1.2-4.6,1.6-4.6,1.6c1.9,0.9,6.6-0.2,7.7-1.8
			c1,0.5,0.8,2.1,0.5,3.2C77.4,112.9,77.7,111.8,77.7,111.1z"/>
	</g>
	<g>
		<polygon opacity="0.3" points="60.5,118.4 57,119.7 59.5,119.8 58,120.8 61.5,120.8 63.6,120.3 63.3,122 65.4,121.6 67,120.3 
			70,121.3 73.2,120.8 72.2,120.2 73.3,119.9 68.8,118.7 		"/>
		<path fill="#28896D" d="M61.9,105.3c2.6-0.3,3.8-5.3,3.8-5.3s0.5,4.9,3.8,6.2c0.1,0.5-1.1,0.9-2.2,0.4c-0.1,1,2.1,2.5,3.4,2.9
			c0,0.5-1.2,1.3-2.4,0.9c0.5,1.2,1.4,2.2,3.4,2.7c-0.9,0.5-2.4,0-3.3,0c0,0.8,2.9,1.5,4.4,1.5c-0.3,0.8-1.7,1.5-2.9,1.5
			c0,0.9,2.9,1.6,3.6,1.8c0.1,0.7-2,1.2-3.4,0.7c0,0.9,1.5,1.6,2.2,2c0,0.7-4.7,0.5-5.4-0.9c-0.9,0.3-1.4,2.2-3.1,2
			c0.2-0.5,0.7-2-0.1-2.4c-0.7,1-3.5,1.6-4.7,1.1c0.3-0.3,2-0.5,1.5-1.6c-1.5,0-3.5-1.4-3.4-2c0.4,0.3,2.8,0.6,2.9,0
			c-1.1-0.1-1.8-1-1.8-1.6c0.4,0.2,2.8,0.6,2.9-0.2c-0.9-0.3-1.9-0.9-1.8-1.6c0.7,0.1,2.3,0,2.4-0.7c-0.9-0.3-1.8-1.7-1.8-2.2
			c0.7,0.2,3.3,0,3.3-0.5c-1.1-0.1-2.1-0.5-2-1.3c1.5-0.1,3.1-1.7,3.1-2.4C63.5,106.3,62.3,106.1,61.9,105.3z"/>
		<path opacity="0.2" fill="#FFFFFF" d="M71.9,113.1c0,0-1.9,0.1-3.4-1.5c-1.6-1.5-2-2.5-2-2.5s-0.4,0.5-1.6,1.3
			c-1.3,0.8-4,0.7-4,0.7s1.7,1.3,4.2,0.5c1.2-0.4,1.1-0.6,1.1-0.6s1.7,1.5,2.4,1.7C70.9,113.6,71.9,113.1,71.9,113.1z"/>
		<path opacity="0.2" fill="#FFFFFF" d="M61.7,108.7c2.2-1.2,3.5-2.1,4-4c-0.1,0.9,1.7,3.3,3.4,4.5c-1.3-0.1-2.9-2.3-3.6-2.2
			C65.4,107.7,63.2,108.6,61.7,108.7z"/>
		<path opacity="0.2" fill="#FFFFFF" d="M62.7,105.5c2.2-1.2,2.5-2.7,3-4.6c-0.1,0.9,1,3.6,2.7,4.9c-1.3-0.1-2.4-1.9-2.9-2.4
			C65.4,104.1,64.2,105.3,62.7,105.5z"/>
		<path opacity="0.2" fill="#FFFFFF" d="M59.5,113.6c0,0,2.7,0,4.8-1c0.6,0,1.5,1.9,2,2c0.5-0.1,0.8-0.3,1.3-0.6
			c0.4,1.9,3.7,3.5,5.6,4c-3.4,0-5.8-2.2-6.2-2.9c-0.4,0.3-0.5,1.3-1.3,1.3c-0.6-0.9-1.6-2.2-1.8-2.9
			C63.2,113.3,60.5,114.2,59.5,113.6z"/>
		<path opacity="0.2" fill="#FFFFFF" d="M57.9,117.3c3.8,0.4,5.2-1.3,5.8-2C63.3,117.9,59,118.6,57.9,117.3z"/>
		<path opacity="0.2" fill="#FFFFFF" d="M67.9,116.8c1.1,1.8,1.5,2.8,4,3.6C67.9,120.6,67.5,117.6,67.9,116.8z"/>
		<path opacity="0.2" fill="#FFFFFF" d="M64.3,121.1c0.2,0.1,2.6-3.6,0.8-4.3C64.2,117.4,65.1,119.3,64.3,121.1z"/>
		<path opacity="0.3" d="M67,105.8c-1-0.8-1-0.8-1-0.8s0.8,1,1.3,1.6c0,0,0,0,0,0c1,0.5,2.2,0.1,2.2-0.4
			C69.5,106.2,68,106.5,67,105.8z"/>
		<path opacity="0.3" d="M68.3,119.5c-1.2-1.2-1.5-3.1-1.5-3.1s-0.7,2.5-1.3,3.7c-0.4,0.7-0.7,1.3-1.7,1.6c0,0,0,0,0,0.1
			c1.7,0.1,2.3-1.7,3.1-2c0.8,1.4,5.4,1.6,5.4,0.9C72.4,120.5,69.5,120.7,68.3,119.5z"/>
		<path opacity="0.3" d="M70.4,115.1c-1.2-0.1-2.9-2.3-2.9-2.3s-0.8,0.4-1.3,0.1s-0.9-0.7-0.9-0.7s0.4,2.1,1.1,2
			c0.7-0.1,1-0.3,1.3-0.6c0.3,1.6,2.4,2.5,2.4,2.5c1.2,0.1,2.6-0.7,2.9-1.5C73,114.5,71.6,115.1,70.4,115.1z"/>
		<path opacity="0.3" d="M63,109.8C63,109.8,63,109.8,63,109.8c0.4,0,0.7,0,1.1-0.1c0.9-0.1,2.5-1,2.5-1l-1.2,0.1l0.5-1.1
			c0,0-1.4,1.1-2.6,1.3c-1.2,0.2-2.2-0.6-2.2-0.6C60.9,109.3,61.9,109.7,63,109.8z"/>
		<g>
			<path opacity="0.3" d="M61,114.9c-0.1,0.8-2.5,0.4-2.9,0.2c1.8,1.2,5.2-0.2,5.2-0.2l-1.6,0l1.9-0.9c0,0-4.1,0.2-4.3-0.8
				C59.1,114,60.1,114.6,61,114.9z"/>
			<path opacity="0.3" d="M62.7,115.8c0,0-1.3,0.4-2.2,0.4c-0.8,0-2.4-0.8-2.4-1c0.1,0.7,0.7,1.5,1.8,1.6
				C62,116.9,62.7,115.8,62.7,115.8z"/>
		</g>
		<path opacity="0.3" d="M64.4,119.6c0-0.7-0.2-5-0.2-5s-0.1,2.5-2.4,4.8c-0.8,0.7-2.8,1-2.8,1c1.2,0.5,4-0.1,4.7-1.1
			c0.6,0.3,0.5,1.3,0.3,1.9C64.2,120.7,64.4,120.1,64.4,119.6z"/>
	</g>
</g>
</svg>
