<?xml version="1.0" encoding="utf-8"?>
<!-- Generator: Adobe Illustrator 18.1.0, SVG Export Plug-In . SVG Version: 6.00 Build 0)  -->
<svg version="1.1" id="Layer_1" xmlns="http://www.w3.org/2000/svg" xmlns:xlink="http://www.w3.org/1999/xlink" x="0px" y="0px"
	 viewBox="0 0 112 112" enable-background="new 0 0 112 112" xml:space="preserve">
<g>
	<g>
		<polygon fill="#F8EBCB" points="0,52 48,76 48,112 0,88 		"/>
		<polygon fill="#FFFFFF" points="0,88 2,89 2,53 0,52 		"/>
		<polygon fill="#FFFFFF" points="46,111 48,112 48,76 46,75 		"/>
		<polygon opacity="0.3" points="46,111 2,89 2,88 46,110 		"/>
		<g>
			<polygon fill="#FFFFFF" points="15,90.5 6,86 6,73 15,77.5 			"/>
			<polygon fill="#825012" points="14,89 7,85.5 7,74.5 14,78 			"/>
			<polygon fill="#3399CC" points="8,85 13,87.5 13,78.5 8,76 			"/>
			<polygon opacity="0.15" points="13,85.5 13,78.5 8,76 			"/>
			<polygon fill="#825012" points="8,79 13,81.5 13,82.5 8,80 			"/>
			<polygon opacity="0.15" points="13,79.5 8,77 8,76 13,78.5 			"/>
			<polygon fill="#825012" points="10,76 11,76.5 11,86.5 10,86 			"/>
			<polygon opacity="0.3" points="8,85 8,75 7,74.5 7,85.5 14,89 14,88 			"/>
		</g>
		<g>
			<polygon fill="#FFFFFF" points="29,97.5 20,93 20,80 29,84.5 			"/>
			<polygon fill="#825012" points="28,96 21,92.5 21,81.5 28,85 			"/>
			<polygon fill="#3399CC" points="22,92 27,94.5 27,85.5 22,83 			"/>
			<polygon opacity="0.15" points="27,92.5 27,85.5 22,83 			"/>
			<polygon fill="#825012" points="22,86 27,88.5 27,89.5 22,87 			"/>
			<polygon opacity="0.15" points="27,86.5 22,84 22,83 27,85.5 			"/>
			<polygon fill="#825012" points="24,83 25,83.5 25,93.5 24,93 			"/>
			<polygon opacity="0.3" points="22,92 22,82 21,81.5 21,92.5 28,96 28,95 			"/>
		</g>
		<g>
			<polygon fill="#FFFFFF" points="15,75.5 6,71 6,58 15,62.5 			"/>
			<polygon fill="#825012" points="14,74 7,70.5 7,59.5 14,63 			"/>
			<polygon fill="#3399CC" points="8,70 13,72.5 13,63.5 8,61 			"/>
			<polygon opacity="0.15" points="13,70.5 13,63.5 8,61 			"/>
			<polygon fill="#825012" points="8,64 13,66.5 13,67.5 8,65 			"/>
			<polygon opacity="0.15" points="13,64.5 8,62 8,61 13,63.5 			"/>
			<polygon fill="#825012" points="10,61 11,61.5 11,71.5 10,71 			"/>
			<polygon opacity="0.3" points="8,70 8,60 7,59.5 7,70.5 14,74 14,73 			"/>
		</g>
		<g>
			<polygon fill="#FFFFFF" points="29,82.5 20,78 20,65 29,69.5 			"/>
			<polygon fill="#825012" points="28,81 21,77.5 21,66.5 28,70 			"/>
			<polygon fill="#3399CC" points="22,77 27,79.5 27,70.5 22,68 			"/>
			<polygon opacity="0.15" points="27,77.5 27,70.5 22,68 			"/>
			<polygon fill="#825012" points="22,71 27,73.5 27,74.5 22,72 			"/>
			<polygon opacity="0.15" points="27,71.5 22,69 22,68 27,70.5 			"/>
			<polygon fill="#825012" points="24,68 25,68.5 25,78.5 24,78 			"/>
			<polygon opacity="0.3" points="22,77 22,67 21,66.5 21,77.5 28,81 28,80 			"/>
		</g>
		<g>
			<polygon fill="#FFFFFF" points="43,89.5 34,85 34,72 43,76.5 			"/>
			<polygon fill="#825012" points="42,88 35,84.5 35,73.5 42,77 			"/>
			<polygon fill="#3399CC" points="36,84 41,86.5 41,77.5 36,75 			"/>
			<polygon opacity="0.15" points="41,84.5 41,77.5 36,75 			"/>
			<polygon fill="#825012" points="36,78 41,80.5 41,81.5 36,79 			"/>
			<polygon opacity="0.15" points="41,78.5 36,76 36,75 41,77.5 			"/>
			<polygon fill="#825012" points="38,75 39,75.5 39,85.5 38,85 			"/>
			<polygon opacity="0.3" points="36,84 36,74 35,73.5 35,84.5 42,88 42,87 			"/>
		</g>
		<g>
			<polygon fill="#FFFFFF" points="43,104.5 34,100 34,87 43,91.5 			"/>
			<polygon fill="#825012" points="42,103 35,99.5 35,88.5 42,92 			"/>
			<polygon fill="#3399CC" points="36,99 41,101.5 41,92.5 36,90 			"/>
			<polygon opacity="0.15" points="41,99.5 41,92.5 36,90 			"/>
			<polygon fill="#825012" points="36,93 41,95.5 41,96.5 36,94 			"/>
			<polygon opacity="0.15" points="41,93.5 36,91 36,90 41,92.5 			"/>
			<polygon fill="#825012" points="38,90 39,90.5 39,100.5 38,100 			"/>
			<polygon opacity="0.3" points="36,99 36,89 35,88.5 35,99.5 42,103 42,102 			"/>
		</g>
		<polygon opacity="0.06" points="0,52 48,76 48,112 0,88 		"/>
	</g>
	<g>
		<polygon fill="#F8EBCB" points="112,44 80,28 48,76 48,112 112,80 		"/>
		<polygon fill="#FFFFFF" points="112,80 110,81 110,43 112,44 		"/>
		<g>
			<polygon fill="#FFFFFF" points="89,86.5 101,80.5 101,67.5 89,73.5 			"/>
			<polygon fill="#825012" points="90,85 100,80 100,69 90,74 			"/>
			<polygon fill="#3399CC" points="99,79.5 91,83.5 91,74.5 99,70.5 			"/>
			<polygon opacity="0.15" points="91,81.5 91,74.5 99,70.5 			"/>
			<polygon fill="#825012" points="99,73.5 91,77.5 91,78.5 99,74.5 			"/>
			<polygon opacity="0.15" points="91,75.5 99,71.5 99,70.5 91,74.5 			"/>
			<polygon fill="#825012" points="97,70.5 96,71 96,81 97,80.5 			"/>
			<polygon fill="#825012" points="94,72 93,72.5 93,82.5 94,82 			"/>
			<polygon opacity="0.3" points="99,79.5 99,69.5 100,69 100,80 90,85 90,84 			"/>
		</g>
		<g>
			<polygon fill="#FFFFFF" points="89,71.5 101,65.5 101,52.5 89,58.5 			"/>
			<polygon fill="#825012" points="90,70 100,65 100,54 90,59 			"/>
			<polygon fill="#3399CC" points="99,64.5 91,68.5 91,59.5 99,55.5 			"/>
			<polygon opacity="0.15" points="91,66.5 91,59.5 99,55.5 			"/>
			<polygon fill="#825012" points="99,58.5 91,62.5 91,63.5 99,59.5 			"/>
			<polygon opacity="0.15" points="91,60.5 99,56.5 99,55.5 91,59.5 			"/>
			<polygon fill="#825012" points="97,55.5 96,56 96,66 97,65.5 			"/>
			<polygon fill="#825012" points="94,57 93,57.5 93,67.5 94,67 			"/>
			<polygon opacity="0.3" points="99,64.5 99,54.5 100,54 100,65 90,70 90,69 			"/>
		</g>
		<g>
			<polygon fill="#FFFFFF" points="59,101.5 71,95.5 71,82.5 59,88.5 			"/>
			<polygon fill="#825012" points="60,100 70,95 70,84 60,89 			"/>
			<polygon fill="#3399CC" points="69,94.5 61,98.5 61,89.5 69,85.5 			"/>
			<polygon opacity="0.15" points="61,96.5 61,89.5 69,85.5 			"/>
			<polygon fill="#825012" points="69,88.5 61,92.5 61,93.5 69,89.5 			"/>
			<polygon opacity="0.15" points="61,90.5 69,86.5 69,85.5 61,89.5 			"/>
			<polygon fill="#825012" points="67,85.5 66,86 66,96 67,95.5 			"/>
			<polygon fill="#825012" points="64,87 63,87.5 63,97.5 64,97 			"/>
			<polygon opacity="0.3" points="69,94.5 69,84.5 70,84 70,95 60,100 60,99 			"/>
		</g>
		<g>
			<polygon fill="#FFFFFF" points="59,86.5 71,80.5 71,67.5 59,73.5 			"/>
			<polygon fill="#825012" points="60,85 70,80 70,69 60,74 			"/>
			<polygon fill="#3399CC" points="69,79.5 61,83.5 61,74.5 69,70.5 			"/>
			<polygon opacity="0.15" points="61,81.5 61,74.5 69,70.5 			"/>
			<polygon fill="#825012" points="69,73.5 61,77.5 61,78.5 69,74.5 			"/>
			<polygon opacity="0.15" points="61,75.5 69,71.5 69,70.5 61,74.5 			"/>
			<polygon fill="#825012" points="67,70.5 66,71 66,81 67,80.5 			"/>
			<polygon fill="#825012" points="64,72 63,72.5 63,82.5 64,82 			"/>
			<polygon opacity="0.3" points="69,79.5 69,69.5 70,69 70,80 60,85 60,84 			"/>
		</g>
		<polygon fill="#FFFFFF" points="50,111 48,112 48,76 50,73 		"/>
		<polygon opacity="0.3" points="50,111 110,81 110,80 50,110 		"/>
		<polygon fill="#FFFFFF" points="75,80.5 85,75.5 85,93.5 75,98.5 		"/>
		<polygon fill="#825012" points="76,98 84,94 84,77 76,81 		"/>
		<polygon opacity="0.3" points="83,93.5 83,77.5 84,77 84,94 76,98 76,97 		"/>
		<g>
			<polygon fill="#FFFFFF" points="76,65 84,61 84,74 76,78 			"/>
			<polygon fill="#825012" points="77,76.5 83,73.5 83,62.5 77,65.5 			"/>
			<polygon opacity="0.3" points="82,73 82,63 83,62.5 83,73.5 77,76.5 77,75.5 			"/>
			<polygon fill="#3399CC" points="78,75 82,73 82,64 78,66 			"/>
			<polygon fill="#825012" points="78,70 82,68 82,67 78,69 			"/>
			<polygon opacity="0.15" points="78,67 82,65 82,64 78,66 			"/>
		</g>
		<g>
			<polygon fill="#FFFFFF" points="76,50 84,46 84,59 76,63 			"/>
			<polygon fill="#825012" points="77,61.5 83,58.5 83,47.5 77,50.5 			"/>
			<polygon opacity="0.3" points="82,58 82,48 83,47.5 83,58.5 77,61.5 77,60.5 			"/>
			<polygon fill="#3399CC" points="78,60 82,58 82,49 78,51 			"/>
			<polygon fill="#825012" points="78,55 82,53 82,52 78,54 			"/>
			<polygon opacity="0.15" points="78,52 82,50 82,49 78,51 			"/>
		</g>
		<polygon opacity="0.3" points="80,84 82,83 82,82 80,83 		"/>
		<polygon opacity="0.3" points="77,85.5 79,84.5 79,83.5 77,84.5 		"/>
		<polygon opacity="0.3" points="80,88 82,87 82,86 80,87 		"/>
		<polygon opacity="0.3" points="77,89.5 79,88.5 79,87.5 77,88.5 		"/>
		<polygon opacity="0.3" points="80,92 82,91 82,90 80,91 		"/>
		<polygon opacity="0.3" points="77,93.5 79,92.5 79,91.5 77,92.5 		"/>
	</g>
	<polygon fill="#762C07" points="48,76 80,28 110,43 109,43 80,29 49,76 	"/>
	<g>
		<polygon fill="#762C07" points="48,76 0,52 32,4 80,28 		"/>
		<polygon opacity="0.06" points="48,76 0,52 32,4 80,28 		"/>
		<polygon opacity="0.2" fill="#FFFFFF" points="30.9,5.6 78.9,29.6 80,28 32,4 		"/>
	</g>
	<polygon opacity="0.39" points="48,76 80,28 112,44 112,80 48,112 	"/>
</g>
</svg>
