<?xml version="1.0" encoding="utf-8"?>
<!-- Generator: Adobe Illustrator 18.1.0, SVG Export Plug-In . SVG Version: 6.00 Build 0)  -->
<svg version="1.1" id="Layer_1" xmlns="http://www.w3.org/2000/svg" xmlns:xlink="http://www.w3.org/1999/xlink" x="0px" y="0px"
	 viewBox="0 0 80 160" enable-background="new 0 0 80 160" xml:space="preserve">
<path opacity="0.2" d="M28.9,138.2c-7.1,4.9-7.6,8.8,0,12.9c8.3,4.5,14.5,2.5,20.9-1.2s6.6-8.6-2.9-12.4
	C39.2,134.4,32.9,135.5,28.9,138.2z"/>
<path fill="#262626" d="M26.2,143.4c-0.6,0.6-0.7,2.1,0.5,3.1c1.2,1,5.5-0.2,7.1-0.5c2.2-0.5,7.6-1.1,8.7-3.1c0.5-1,0.1-3.6-3.5-3.6
	C36.1,139.3,26.2,143.4,26.2,143.4z"/>
<path fill="#262626" d="M34.9,147.4c-0.6,0.6-1.3,2.3-0.1,3.3c1.2,1,6-0.3,8.9-0.9c1.6-0.3,5.9-1.5,6.8-2.9c0.6-0.9,0.7-2.8-2.4-3.1
	C41.6,143.3,34.9,147.4,34.9,147.4z"/>
<path fill="#FBD7C7" d="M25.4,41c-1.8,1-3.1,2.7-2.8,7c0.2,4.3-0.6,6.3-1.5,10.1c-0.9,3.7-1.6,6.9-0.7,9.1c0.8,2.2,4,7.2,4.8,9.8
	c0.8,2.6,2,4.7,2,4.7l3.2-3.4c0,0-1.6-6.5-2.3-9.2s-2-4.9-2-4.9s1.4-3.5,2-6.3C28.5,54.9,25.4,41,25.4,41z"/>
<path fill="#FFFFFF" d="M38.7,149.6c0,0,2.4-0.2,4.9-0.8c2.2-0.5,5.5-1.2,6.1-2.8c0.7-2-2.2-1.9-3.8-2.3c-1.6-0.4-4-1.6-4.4-1.3
	c-0.1,0.4,1.6,0.9,0.3,3.6C40.5,148.4,38.7,149.6,38.7,149.6z"/>
<path fill="#06547A" d="M39.8,68.4l-10.5-0.8c0,0-4.2,6.6-4.7,10.6c-1.1,8.6,3.4,19,3.1,25.4c-0.3,6.4-1.3,9.3-1.8,14.8
	c-0.5,5.5,0.6,15.3,0,19c-0.6,3.7-1.8,7.2,0.6,8s8.5-0.3,9.3-2.9c0.9-2.6,0.9-3.8,0-7.4c-0.9-3.6,0-10.3,0.2-14.4
	c0.2-4.1,0.5-7.2,1.9-11.4c1.4-4.3,3.8-13.2,3.3-18.3C40.5,85.7,39.8,68.4,39.8,68.4z"/>
<path opacity="0.2" d="M39.8,68.4l-10.5-0.8c0,0-4.2,6.6-4.7,10.6c-1.1,8.6,3.4,19,3.1,25.4c-0.3,6.4-1.3,9.3-1.8,14.8
	c-0.5,5.5,0.6,15.3,0,19c-0.6,3.7-1.8,7.2,0.6,8s8.5-0.3,9.3-2.9c0.9-2.6,0.9-3.8,0-7.4c-0.9-3.6,0-10.3,0.2-14.4
	c0.2-4.1,0.5-7.2,1.9-11.4c1.4-4.3,3.8-13.2,3.3-18.3C40.5,85.7,39.8,68.4,39.8,68.4z"/>
<path fill="#06547A" d="M48.7,70c0,0,2.3,10.3,2.2,18.2c-0.2,7.9-3.1,19.1-3.5,24.8c-0.6,7.8-2.3,11.8-2.9,16.7
	c-0.6,4.8-1.9,9.7-1.1,11.2c0.8,1.4,2.3,1.5,1.7,3.7c-0.5,1.9-2.8,4.7-6.3,5.1s-4.8-0.1-4.9-1.8c-0.2-1.8,0.2-3.6,0.2-7.1
	c0-3.5,0-13.8,0.7-18.1c0.7-4.3,3.1-16.5,3-22.4c-0.2-6-3-10.7-3.1-17.5C34.3,75.7,36.7,68,36.7,68L48.7,70z"/>
<path fill="#CC291F" d="M29.2,38.7c0,0,1.6,2.8,5.4,3.7s7.7-0.6,7.7-0.6s3,2.4,4.1,3c1.1,0.6,3.9,2.8,4.3,5.9
	c0.4,3.1-0.4,9-0.6,11.2c-0.2,2.2-1,6.5-0.7,8.5c0.4,2,0.7,4,0.7,4S43,76.8,35.9,75c-8.9-2.3-9.6-3.3-9.6-3.3s2.2-3.6,2-6.8
	c-0.1-3.1-0.6-8.7-0.6-8.7l-6.1-2.3c0,0,0.5-2.7,0.4-4.4c-0.1-1.7,0-7.2,2.4-8.2C27.7,39.9,29.2,38.7,29.2,38.7z"/>
<path fill="#FBD7C7" d="M54,80.4c-0.5-2.7-2.7-7.8-3.3-8.5c-0.6-0.7-0.4-1.6-0.4-4.3c-0.1-2.8-0.4-8.6-0.8-10.4c-1,0-2.3,0-3.5,0.2
	c-0.9,0.2-2.1,0.3-3.2,0.5c0.1,0.5,0.2,1.1,0.3,1.8c0.6,3.7,1,10.5,1,12.2s1,4.4,2.4,6.6c1.4,2.2,5.9,10.9,5.9,10.9
	s-0.3,0.4-0.4,1.8s1,2.8,1.3,4c0.2,1.2-0.9,1.8-0.8,2.1s0.7,1.4,2.8,0.7c1.9-0.6,2.8-3.5,3-5.6s-0.5-2.7-1.4-4.2S54.6,83,54,80.4z"
	/>
<path fill="#825012" d="M35.3,14.5c6.3-0.8,11.8,2.9,11.8,10.6c0,8.6-1.9,12.7-0.2,18.2c1.1,3.4-0.7,8.4-10.8,8.2
	c-9.7-0.2-11.2-4.5-11.7-6c-1-3.4,1.4-8.2,1-15.6C25.1,24.3,25.4,15.7,35.3,14.5z"/>
</svg>
