<?xml version="1.0" encoding="utf-8"?>
<!-- Generator: Adobe Illustrator 18.1.0, SVG Export Plug-In . SVG Version: 6.00 Build 0)  -->
<svg version="1.1" id="Layer_1" xmlns="http://www.w3.org/2000/svg" xmlns:xlink="http://www.w3.org/1999/xlink" x="0px" y="0px"
	 viewBox="0 0 80 160" enable-background="new 0 0 80 160" xml:space="preserve">
<path opacity="0.2" d="M27.3,135c-8.2,5.7-5.6,8.7,3.2,13.4c9.6,5.2,13.5,4.5,21,0.2c7.5-4.3,7.6-10-3.4-14.4
	C39.3,130.5,32,131.8,27.3,135z"/>
<path fill="#FBD7C7" d="M22,52.7c-0.4,2.5-1.2,6.7-0.9,8.5c0.2,1.8,1.5,7.2,2.2,9.9s1.6,6.9,2,8.3c0.4,1.5,0.7,2.7,0.7,2.7l2.4-4.5
	c0,0-0.8-10.9-1-15.3c-0.2-4.5,1.7-8.7,1.7-8.7L22,52.7z"/>
<path fill="#262626" d="M35.2,147.3c0,1.2,0.3,2.9,2.5,3s6.2-1.8,8.5-2.5c2.3-0.7,6.8-2.3,7.2-5.4c0.4-3.1-5.2-3.5-8.3-1.6
	C41.9,142.5,35.2,147.3,35.2,147.3z"/>
<path fill="#FFFFFF" d="M36.5,147.4c1.2,0.7,5.7-0.2,8.2-0.9s6.9-2.3,7.5-4.6c0.6-2.4-4-2.4-5.3-1.8S36.5,147.4,36.5,147.4z"/>
<path fill="#262626" d="M26.9,141.9c-0.3,1.1-0.7,3,1.2,3.7c1.8,0.7,3.6-0.1,6.1-1.1c2.5-1,10.5-3.1,11.2-5.3c0.7-2.2-3.2-4.1-7-3.2
	C34.5,136.9,26.9,141.9,26.9,141.9z"/>
<path fill="#06547A" d="M26.3,75.8c-0.9,1.6-1.5,6.1-0.7,9.4c0.8,3.3,2.3,16.6,0.9,23.7c-1.4,7.1-2.3,25.8-2.2,28.2
	c0.1,3.8,0.7,6.5,2.6,6.8c6.8,1.1,11.2-3.7,11.2-3.7l1.7-62L26.3,75.8z"/>
<path opacity="0.2" d="M26.3,75.8c-0.9,1.6-1.5,6.1-0.7,9.4c0.8,3.3,2.3,16.6,0.9,23.7c-1.4,7.1-2.3,25.8-2.2,28.2
	c0.1,3.8,0.7,6.5,2.6,6.8c6.8,1.1,11.2-3.7,11.2-3.7l1.7-62L26.3,75.8z"/>
<path fill="#06547A" d="M33.4,78.6c-0.4,2-1.9,5.2-0.9,7.9c0.9,2.7,2.3,4.8,3.3,5.8s2.4,6.5,1.8,15.2c-0.5,8.7-3.2,19.6-3.9,25
	c-0.7,5.4-1.2,14.4,0.9,15.7c2.2,1.3,10.6,0.2,12.5-2.7c2.9-4.3,0.7-7.5,1-13.1c0.2-3.2,1.4-11.5,2.7-20.2s1.6-21.7,0.5-27.8
	c-1.1-6.1-1.2-6.5-1.2-6.5L33.4,78.6z"/>
<path fill="#FBD7C7" d="M36.5,10.2c-5.1,1.8-9.4,6.5-6.9,13.1s5.2,8.1,3.3,10.5s-4.2,1.6-4.2,1.6s0.9,3.3,5.9,4.7
	c5,1.4,10.8-0.4,10.8-0.4s-2.1-1.1-2.3-2.5s0.2-4.9,1.5-5.7s4.5-3.6,4.9-6.8c0.4-3.3,0.7-9.9-2.2-12.3S41.3,8.5,36.5,10.2z"/>
<path fill="#825012" d="M46,26.6c0,0,1.3-0.7,1.3-2.9s0-4.1,1.3-4.6c1.3-0.4,2.4-1.6,1.6-4.6c-0.8-3-8.8-10.3-17.7-4.7
	c-7.8,4.9-4.8,14-2.9,17.3s3.6,4.9,6,5c2.4,0.1,6.5-1.8,7.3-4.5s1.2-3.4,2.2-3.3C46.3,24.3,46,26.6,46,26.6z"/>
<path fill="#99CC33" d="M31.7,34.8c0,0-3.6,1.6,3.5,3.8c7.1,2.2,9,0.1,9,0.1s5.6,3.7,7.3,6.2s2,4.7,2,8.2s-0.5,10.2-0.5,10.2l-2,0.9
	l0.2,16.2c0,0-7.4,2.5-15.6,0.8S26.2,76,26.2,76s1.3-7.7,1.3-11.5c0-3.9-0.4-7.8-0.4-7.8s-2.1-0.4-3.5-1.2c-1.5-0.8-2.3-1.6-2.3-1.6
	s-0.6-12.2,2-15.4S31.7,34.8,31.7,34.8z"/>
<path fill="#FBD7C7" d="M45.8,64.6c0,0,1.3,0,3.1-0.1c1.8-0.1,3.2-0.8,3.2-0.8s0.4,5.7,0.6,6.2c0.2,0.5,2.4,3.6,3,8s0.9,6.5,1.4,7.8
	c0.5,1.3,1.5,5.7,1.2,7.4c-0.4,1.7-2.8,5.3-4.6,5.7c-1.8,0.4-2.3,0-2.1-0.7c0.1-0.8,1.4-1.3,1.4-2.9s-1.2-3.6-0.6-5.3
	c0.5-1.6,1-1.4,0.5-2.7c-0.5-1.3-1.8-4.4-3.6-8.1c-1.8-3.7-3-6.5-3.2-8.6C45.8,68.5,45.8,64.6,45.8,64.6z"/>
</svg>
