<?xml version="1.0" encoding="utf-8"?>
<!-- Generator: Adobe Illustrator 18.1.0, SVG Export Plug-In . SVG Version: 6.00 Build 0)  -->
<svg version="1.1" id="Layer_1" xmlns="http://www.w3.org/2000/svg" xmlns:xlink="http://www.w3.org/1999/xlink" x="0px" y="0px"
	 viewBox="0 0 80 240" enable-background="new 0 0 80 240" xml:space="preserve">
<path opacity="0.2" d="M27.5,215.9c-8.3,5.8-8.9,10.4,0,15.2c9.8,5.2,17,2.9,24.6-1.5c7.6-4.3,7.7-10.2-3.4-14.6
	C39.6,211.4,32.2,212.7,27.5,215.9z"/>
<path fill="#262626" d="M24.4,222c-0.7,0.7-0.8,2.3,0.7,3.5c1.5,1.2,6.5-0.2,8.3-0.6c2.6-0.6,8.5-1,9.9-3.5c0.6-1.1,0.6-4.5-3.6-4.5
	C36.1,216.8,24.4,222,24.4,222z"/>
<path fill="#FF9900" d="M29.4,223.6c0,0,3.5-0.7,6-1.1c2.4-0.4,6.8-1.1,7.3-2.2c0.6-1.2,0.4-3.9-3.4-4c-3.1,0-3.6-0.4-5.7-0.5
	c0,0.6,1.9,0.8,0.7,2.8C33,220.6,29.4,223.6,29.4,223.6z"/>
<path fill="#262626" d="M34.5,226.7c-0.7,0.7-1.6,2.7-0.1,3.9c1.5,1.2,7,0.3,10.3-0.9c1.8-0.7,6.4-1.1,7.6-3.1
	c0.7-1.1,1.1-4.2-2.5-4.5C42.2,221.5,34.5,226.7,34.5,226.7z"/>
<path fill="#FBD7C7" d="M23.4,95.9c-2.1,1.2-3.6,3.1-3.3,8.2c0.3,5-0.7,8-1.8,12.4c-1.1,4.4-1.8,8.1-0.9,10.6
	c1,2.6,4.7,9.4,5.6,12.4s1.6,7.1,1.6,7.1l3.8-4c0,0-1.1-9.2-2-12.3s-2.3-6.7-2.3-6.7s1.7-4.1,2.3-7.4
	C27.1,112.9,23.4,95.9,23.4,95.9z"/>
<path fill="#FBD7C7" d="M30.2,84.9c0,0,1.4,5.4,0.3,6.5c-1.1,1.1-4.6,3.7-5.9,4s-3.7,2.7-3.5,5c0.2,2.3,1.6,5.7,2,8.4
	c0.4,2.6,1.8,5,3.2,9.4s4,8.1,2,11.6s-6.9,9.6-5.9,16.4s3.9,15.7,4.3,24.2c0.4,8.5,1.1,8.9-0.6,14.2c-1.8,5.3-2,10.8-1.1,19
	c0.9,8.2,2.3,12.3,0.8,14.4c-1.5,2.1-2.1,4.5-0.6,5.5c0.9,0.6,2.4,0.7,4.3,0.2c2.1-2.2,6.8-5.6,4.4-7.6c-0.5-0.4-0.6-0.4-1-1.4
	c-0.6-1.6-0.9-6.2-0.2-9.4c0.7-3.2,1.3-6.3,1.7-11.7c0.4-5.4,0.6-6.4,1-7.3c0.4-0.9,1.6-6.5,1.6-6.5s-0.4,5.3-0.1,7.3
	c0.2,2.1,0.4,3.2-0.3,6.2c-0.6,3-2.4,7.2-2.1,10.5c0.4,3.3,2.3,13.2,2.1,15.6s-2.1,5.3-2.4,6.4c-0.3,1.1-0.8,3.7,2.4,3.7
	c3.2,0,13.7-1.9,14.1-4c0.4-2.1-5.4-2.6-6.7-3c-1.3-0.4-2.5-1.3-2-5.2s4.1-18,4.4-19.4s0.6-5.9,0.6-8.7s4.5-21.4,5.1-25.3
	c0.6-3.9,0.3-14,0.1-18.9c-0.1-4.9-2-11.1-2-13.3c0-2.2,3.1-18,2.6-21.1c-0.5-3.1-0.7-7-3.5-8.7c-2.8-1.8-7.3-5-7.8-7.2
	c-0.5-2.2-0.2-7.2,0.5-8.1c0.7-0.9,4-0.4,4.6-2.5c0.6-2.1,2.8-10.1-1.3-17s-16.8-5.2-19.3,1.8C23.7,75.9,26.8,83.5,30.2,84.9z"/>
<path fill="#825012" d="M49.9,84.9c-2.1,3.1-9.9,4.6-16.1,4s-13.7-6.7-10.9-18.7S39,59.4,43.6,62.3c3.8,2.4,7.5,6,6,11.1
	C48,78.8,45.7,83.8,49.9,84.9z"/>
<path fill="#FF9900" d="M39,229.3c0,0,2.8-0.3,5.8-1c2.6-0.6,6.5-1.4,7.1-3.3c0.8-2.3-2.2-3.2-4.6-3.3c-1.9,0-3.6-0.1-4.7-0.2
	c0,0.3,1.5,0.3-0.1,3.4C41.2,228,39,229.3,39,229.3z"/>
<path fill="#CC291F" d="M51.8,131.1c0.1,4.4,11.1,26.3,8.9,32c-0.6,1.6-2.7,3.1-8.8,4.8c-6.1,1.7-13.5,2-17.5-2.1
	c-4-4.1-13.8-5.1-15.8-6.2s-0.6-10.9,1-16.6c1.5-5.6,7.7-13.9,7.7-13.9c1-2.7-0.4-8.6-1.9-12c-1.5-3.4-3.4-11.5-3.6-12.3
	c-0.2-0.8-1.6-4.5-0.7-6.5c0.9-1.9,3.3-3.3,4.3-3.7c1-0.4,3.3-2.1,3.3-2.1s0.3,3,4.8,4c4.5,1.1,8.8-1.2,8.8-1.2s3.3,3.8,5.3,4.9
	c2,1.1,5.7,4.3,5.5,11.2C53,118.5,51.7,126.7,51.8,131.1z"/>
<path fill="#FBD7C7" d="M42.7,108.5c-0.5-3.8,4.8-8.7,7.6-6.1s2.8,5,2.4,7.4c-0.4,2.4-1.3,3.5-0.9,5.6c0.4,2.1,0.9,9,0.9,12.3
	s-0.2,5.1,0.5,6c0.7,0.9,3.2,6.9,3.8,10c0.6,3.1,2.3,7,3.5,8.9c1.1,1.8,1.9,2.5,1.7,5c-0.2,2.5-1.3,5.9-3.5,6.6
	c-2.5,0.8-3.3-0.5-3.3-0.9s1.3-1,1-2.4c-0.3-1.4-1.6-3-1.5-4.7c0.1-1.7,0.4-2.1,0.4-2.1s-5.3-10.2-7-12.8c-1.7-2.6-2.8-5.7-2.8-7.7
	c0-2-0.4-10.8-1.1-15.2C43.7,114,43.1,112.1,42.7,108.5z"/>
<path fill="#FBD7C7" d="M44.5,222.1c0,0.2,0.3,1,0,2.2c-0.3,1.3-1.4,2.5-1.4,2.5s5.7-0.1,5.3-3.5C48.3,222.1,45.3,222.1,44.5,222.1z
	"/>
<path fill="#FBD7C7" d="M35.6,216.5c0.2,0.3,0.5,0.4,0.1,2c-0.3,1.3-1.3,2.2-1.3,2.2s5.1-0.3,5.1-2.3
	C39.4,216.9,36.3,216.5,35.6,216.5z"/>
</svg>
