<?xml version="1.0" encoding="utf-8"?>
<!-- Generator: Adobe Illustrator 18.1.0, SVG Export Plug-In . SVG Version: 6.00 Build 0)  -->
<svg version="1.1" id="Layer_1" xmlns="http://www.w3.org/2000/svg" xmlns:xlink="http://www.w3.org/1999/xlink" x="0px" y="0px"
	 viewBox="0 0 80 160" enable-background="new 0 0 80 160" xml:space="preserve">
<path opacity="0.2" d="M27.6,136.2c-7.4,5.1-7.2,10.7,0.7,15c8.7,4.7,14.4,1.1,21.2-2.8s6.9-9-3-13
	C38.4,132.2,31.8,133.3,27.6,136.2z"/>
<path fill="#262626" d="M39.9,135.5c1.3,0.4,1.6,0.7,1.6,1.7c0,1-0.8,2.5-2.4,3.9c-1.6,1.4-5.3,6.1-9.7,6.2c-4.4,0.2-5.4-2.2-4.6-4
	C26,140.2,36.3,134.4,39.9,135.5z"/>
<path fill="#262626" d="M48.8,140.4c0.7,0.4,1.2,1.7,0.6,2.7c-0.6,1.1-2.4,2-4.5,4.3c-2.1,2.3-5.6,5.3-9.8,4.1
	c-4.2-1.1-1.6-5-0.8-5.8C35.1,145,43.4,137.4,48.8,140.4z"/>
<path fill="#FBD7C7" d="M26.3,56.9c-1.6,2.7-3.3,5.6-4.3,10.4c-1,4.8-2,8.2-2.9,9.9s-2.7,4.3-1.8,7.4c0.9,3.1,2,3.4,3.3,3.1
	c1.2-0.4,2-1.4,2-2.1s-0.8-2.3-0.4-3.5c0.4-1.2,1.4-2.5,1.4-3.5s-0.5-1.7-0.4-2.1s3.9-7.8,4.6-8.9s3.1-4.3,3.1-4.9
	C31,62.1,26.3,56.9,26.3,56.9z"/>
<path fill="#FFFFFF" d="M39.8,137.6c0,0-2,2.1-3.3,3.4c-1.3,1.3-4.5,5.1-8.4,4.7c-3.8-0.4-3.7-2-2.8-3.2c0.9-1.2,4.3-4.5,5.1-5.5
	c0.7-1,1.4-2.6,2.9-1.8c1.5,0.8,2.4,2.3,4,2.5C39.1,137.9,39.8,137.6,39.8,137.6z"/>
<path fill="#FFFFFF" d="M48.4,142.1c0,0-1.4,1.6-3.6,3.7c-2.2,2.1-4.4,4.1-7.1,4.3c-2.7,0.2-5-0.7-4.3-2.7s2.7-3.3,4-5.1
	s2.3-4,4.1-2.7c1.8,1.3,3.1,2.7,4.7,2.8C47.8,142.5,48.4,142.1,48.4,142.1z"/>
<path fill="#06547A" d="M25.9,71.1c0,0-2,9.1-1.2,16.3c0.7,7.2,4,21.8,4.1,23.3c0.1,1.6,0.5,5.3,1.3,8.1s2.4,10.9,1.7,12.9
	c-0.7,2.1-1.8,4-0.5,5c1.3,1,5.1,1.8,7.7,1.5c2.4-0.3,2.9-1.8,3.3-3c0.4-1.2-1.9-7.1-2.2-12.1c-0.2-4.9-2.1-28.1-1.2-31.9
	c0.8-3.7-0.6-20.6-0.6-20.6L25.9,71.1z"/>
<path opacity="0.2" d="M25.9,71.1c0,0-2,9.1-1.2,16.3c0.7,7.2,4,21.8,4.1,23.3c0.1,1.6,0.5,5.3,1.3,8.1s2.4,10.9,1.7,12.9
	c-0.7,2.1-1.8,4-0.5,5c1.3,1,5.1,1.8,7.7,1.5c2.4-0.3,2.9-1.8,3.3-3c0.4-1.2-1.9-7.1-2.2-12.1c-0.2-4.9-2.1-28.1-1.2-31.9
	c0.8-3.7-0.6-20.6-0.6-20.6L25.9,71.1z"/>
<path fill="#06547A" d="M35.3,72.5c0,0-0.5,13-0.5,18.5s2.1,19.3,3.1,23.7c1.1,4.3,2.5,12.8,2.7,15.1s-0.7,7.7-1.6,8.6
	c-0.8,0.8-0.4,2.9,1.8,4.1c2.2,1.2,7.5,1,8.3-1c0.8-1.9-0.4-4.3-0.1-7.5c0.4-3.3,1.2-9.1,1-13.6c-0.2-5.4-3.4-10-3.1-12.7
	s5.4-21.1,4.8-26.2c-0.6-5.1-5.6-10.9-5.6-10.9L35.3,72.5z"/>
<path fill="#CC291F" d="M35.4,35.6c0,0-5.6-0.2-7.5,1.3s-3,4.1-2.7,5.7c0.4,1.6,1,2.7,1,2.7s-1.3,3.9-1.3,6.3
	c-0.1,4.2,0.8,11.6,0.8,14.6c0,3-1.4,12.1-1.4,12.1s5.6,2.9,13.4,2.3c10.4-0.7,13.4-3.8,13.4-3.8S48,73,47.8,69.3
	c-0.3-4,2.5-11.4,2.5-11.4l3.5-0.7c0,0,0.1-4.7-0.2-6.6c-0.3-1.9-1.6-5.1-3.9-7.8c-2.4-2.7-5.6-5.7-5.6-5.7L35.4,35.6z"/>
<path fill="#FBD7C7" d="M53.4,57.2c-0.8,0.1-2.1,0.3-3.4,0.7c-1.2,0.3-2.5,0.8-3.4,1.1c0.6,2.9,1,5.9,1.6,8c0.6,2.2,1.6,5.4,1.6,5.4
	s-1.1,4.7-2,8.7c-0.9,4-1.9,8.2-1.9,8.2s-3.9,1.9-4.4,2.5c-0.5,0.6-1,2.2-1.4,3c-0.4,0.8,0.1,1.5,0.8,0.9c0.7-0.6,1.4-1.8,1.6-2
	s0.6,0.5,0.6,1.8s-0.2,1-0.6,1.5c-0.4,0.5-1.4,1-1.6,1.1c-0.3,0.2,0.3,1.1,1.9,1.1c1.6,0,3.4-1,4.3-1.9s2.1-2.7,2.5-4.5
	s0-1.5,0.5-2.8s5.4-14.2,5.8-16.3s0.3-3.1,0-4.8C55.5,67.6,53.6,60.5,53.4,57.2z"/>
<path fill="#825012" d="M46.6,14.8c0,0-4-3.5-10.6-0.5s-7.4,8-7.2,11c0.2,3,1.6,11.8-1.9,16.1c-1.1,1.3,2.5,2,5.2,1.2
	c5-1.4,7.9-9.9,7.9-9.9L46.6,14.8z"/>
<path fill="#FBD7C7" d="M35.4,19c-2,1.3-5.9,1.4-5.7,7.4c0.2,5.9,1.1,9.7,2.5,10.4c1.4,0.6,2.9,0.2,2.9,0.2s0.2,0.7-0.2,2
	s-2,3.1-0.5,4.5c1.5,1.4,6.2,0.7,8.5-0.9c2.4-1.6,2.5-3.5,2.5-3.5s-1.3,0.1-1.4-1.4c-0.1-1.6,0.4-4.3,1.1-5.9c0.8-1.6,4.1-3.6,4.1-9
	C49.2,17.4,43.1,14,35.4,19z"/>
<path fill="#825012" d="M34.4,19c-1.6,1.3-0.8,5.4,1.4,8.5c2,2.7,4.7,2.3,5.6,8.5c0.4,3-0.7,7.8-3.3,13.2c-1,2.1,7.2,1.1,9.9,0.4
	c2.4-0.6,6.2-1.5,5.3-4.1c-2.8-8.5-2.6-13.2-2.4-17.1c0.2-3.6,1.1-7.9-1.5-11.3C45.3,11.9,39.5,14.9,34.4,19z"/>
</svg>
