<?xml version="1.0" encoding="utf-8"?>
<!-- Generator: Adobe Illustrator 18.1.0, SVG Export Plug-In . SVG Version: 6.00 Build 0)  -->
<svg version="1.1" id="Layer_1" xmlns="http://www.w3.org/2000/svg" xmlns:xlink="http://www.w3.org/1999/xlink" x="0px" y="0px"
	 viewBox="0 0 80 240" enable-background="new 0 0 80 240" xml:space="preserve">
<path opacity="0.2" d="M26.4,213.6c-8.7,6-8.5,12.6,0.8,17.6c10.2,5.5,16.9,1.3,24.9-3.3s8.1-10.6-3.6-15.3
	C39,208.9,31.3,210.2,26.4,213.6z"/>
<path fill="#262626" d="M40.8,212.8c1.6,0.5,1.8,0.8,1.8,2s-1,2.9-2.9,4.6c-1.9,1.7-6.2,7.1-11.4,7.3c-5.2,0.2-6.3-2.6-5.5-4.6
	C24.5,218.3,36.6,211.4,40.8,212.8z"/>
<path fill="#262626" d="M51.3,218.6c0.8,0.4,1.4,2,0.7,3.2s-2.8,2.3-5.3,5s-6.6,6.2-11.6,4.8c-4.9-1.3-1.8-5.9-1-6.8
	C35.1,224,44.9,215,51.3,218.6z"/>
<path fill="#FBD7C7" d="M24.9,115.3c-1.8,3.2-3.9,7.4-5.1,13.1c-1.2,5.7-2.3,9.6-3.4,11.6c-1.1,2-3.2,5.1-2.1,8.7
	c1.1,3.6,2.4,4,3.8,3.6c1.5-0.4,2.3-1.7,2.3-2.5c0-0.8-0.9-2.6-0.4-4.1c0.5-1.4,1.6-2.9,1.6-4.1c0-1.2-0.6-2-0.4-2.5
	s4.5-9.1,5.4-10.4s3.6-5.9,3.7-6.7S24.9,115.3,24.9,115.3z"/>
<path fill="#FBD7C7" d="M36.1,89.1c-3.2,0.3-6.9-0.5-9.3,1.9s-3,5-2.8,6.2c0.2,1.2,1.1,3.8,1.1,3.8s-1.7,5.1-1.9,8.6
	c-0.3,3.5,1.8,12.1,1.8,16c0,3.9-0.7,12.5-1.3,18.6s0.1,13,1.7,20.4c1.6,7.4,3.4,17.1,3.7,18.4c0.3,1.3-0.3,3.9,1.3,8.9
	s4.1,14.6,3.4,17.5c-0.7,2.9-1.9,4.9-3.6,6.9c-1.7,2-6,4.5-4,6.6c2,2.1,8.4-2,10-3.5s5.6-4.9,5.8-5.8c0.2-0.9-0.6-2.9-1.3-4.1
	c-0.7-1.2-0.9-1.9-0.8-4.1s0.2-8.1,0.6-10.9c0.4-2.6,0.2-5.3,0.2-5.3s0.7,4,1.1,7.2c0.5,3.2,1.9,8.8,1.8,11.6
	c-0.1,2.8,0,5.8-1.7,8.5s-9.8,9.6-7.3,11.4s9.6-1.6,11.7-3.5s5.1-4,5.1-5.3c0-1.3-2-3.3-1.8-5.9c0.2-2.6,3-16.4,2.4-20.5
	c-0.9-5.7-3.8-10.1-3.8-14.7c0-4.5,6.1-26.4,6-33.4s-6.5-11.3-6.6-13.8c-0.1-2.6,3.8-13.7,5.5-16.6s4.4-5,3.4-8.1
	c-1-3.1-2.3-5.7-4.9-8.1c-2.6-2.5-5.3-6.1-5.8-6.6C45.3,91,36.1,89.1,36.1,89.1z"/>
<path fill="#FF9900" d="M40.7,215.2c0,0-2.3,2.5-3.9,4c-1.6,1.5-5.3,6-9.8,5.5c-4.5-0.5-4.3-2.3-3.3-3.8c1-1.4,5.1-5.3,6-6.5
	s1.6-3.1,3.4-2.1c1.8,1,2.8,2.7,4.8,2.9C39.8,215.6,40.7,215.2,40.7,215.2z"/>
<path fill="#FF9900" d="M50.8,220.5c0,0-1.7,1.9-4.2,4.3s-5.2,4.8-8.3,5.1s-5.9-0.8-5.1-3.2s3.1-3.8,4.8-6c1.1-1.5,2.4-3.4,3.1-3.5
	c0.6-0.1,1.6-0.1,2.3,0.3c2.6,1.6,3.1,3.1,5,3.3C50.1,221,50.8,220.5,50.8,220.5z"/>
<path fill="#CC291F" d="M30.4,89.1c-1.9,1.5-4,7.4-4.7,9.5c-0.7,2.1-3.7,8-3.1,13.3c0.5,4.1,1.7,13.1,1.7,13.1s-5.3,15.3-6.4,19.2
	c-1.6,5.8-3.1,11.9-2.4,12.5c0.7,0.7,3.6,0.1,6.1,3.2s4.7-0.5,8.8,3.3c4.1,3.8,15.7,5.1,21,3.3s8-4.9,7.9-5.6
	c-4-15.9-8.7-26.5-9.8-31.2c-0.5-1.9,0.5-6,0-8.8c-1-5.1-3.3-12.5-1.9-15.2c2.5-5,6.9-4.2,6.9-4.2s-2.5-3.3-3.4-4.3
	s-3.4-3.9-3.4-3.9s-7.1,12.3-13.1,10c-5.9-2.2,1.8-14.4,1.8-14.4L30.4,89.1z"/>
<path fill="#FBD7C7" d="M34.5,65.7c-2.4,1.5-5.9,4.6-5.7,11.6c0.2,7,1.3,12.3,2.9,12.7c1.6,0.5,3.4,0.2,3.4,0.2s0.3,1.7-0.2,3.2
	s-2.3,3.7-0.6,5.3c1.7,1.6,8.6,0.2,10-1c1.4-1.2,2.9-4.1,2.9-4.1s-1.5-0.7-1.7-2.5c-0.1-1.8,0.4-5,1.3-6.9c0.9-1.8,4.9-4.8,4.8-11.1
	C51.7,66.8,43.6,59.9,34.5,65.7z"/>
<path fill="#825012" d="M32.3,71c0,0,3.5-1.2,7.3,2.6c2.7,2.7,3.3,5.9,4.7,6.3c1.4,0.3,2.7-2,3.8-0.6s-2.9,5.1-2.9,5.1
	s0,3.9,3.7,2.9c5.9-1.6,6.7-13.2,4.7-17.8c-3.9-9.3-11.3-7-12.1-7.3c-0.8-0.3-4.3-2-8,0.4c-3.6,2.4-5.9,6.2-5.8,10.4
	c0.1,5.3,0.3,8.9-2.1,9.3c1.1,1.7,3.6,1,3.6,0.2c-0.1-1.5-0.5-5.9-0.2-8C29.2,72.3,29.9,70.4,32.3,71z"/>
<path fill="#FBD7C7" d="M47.4,109.7c0.1,2.4,0.6,5.1,1.2,7.6c0.8,3.4,1.2,8.1,2,10.7c0.8,2.6,1.9,6.3,1.9,6.3s-1.3,5.5-2.3,10.2
	c-1,4.7-2.3,9.6-2.3,9.6s-4.6,2.3-5.2,2.9c-0.6,0.7-1.2,2.6-1.6,3.6s0.1,1.8,0.9,1.1c0.8-0.7,1.6-2.1,1.9-2.3
	c0.3-0.2,0.7,0.6,0.7,2.1c0,1.5-0.2,1.2-0.7,1.8c-0.5,0.6-1.6,1.1-1.9,1.3c-0.3,0.2,0.4,1.3,2.2,1.3s4-1.2,5.1-2.3
	c1.1-1.1,2.5-3.1,3-5.3c0.5-2.1,0-1.7,0.5-3.3s6.4-16.7,6.8-19.1s0.4-3.7,0-5.6c-0.4-2-3.1-12.8-2.9-15.7s0.8-7-0.1-9.2
	c-0.9-2.2-1.6-3.6-4.1-3.3C50.1,102.6,47.3,104.1,47.4,109.7z"/>
<path fill="#FBD7C7" d="M40.4,218.6c0,0,0.9,0,1.9,0.6s1.6,1.9,2.7,2.4c1.2,0.5,2.1,0.6,2.1,0.6s-2.6,3-4.9,3.3
	c-2.6,0.4-4.5-0.5-5-1.3c-0.3-0.4-0.5-1.2,0-1.9C38,221.4,40.4,218.6,40.4,218.6z"/>
<path fill="#FBD7C7" d="M31,214c0,0,0.3-0.4,1.3,0.2s2,1.9,3.2,2.4c0.8,0.3,1.8,0.5,1.8,0.5s-2.4,3-4.6,3.5
	c-2.7,0.5-4.7-0.7-5.2-1.4c-0.5-0.6-0.1-1.4,0.5-2.1C29.2,215.9,31,214,31,214z"/>
</svg>
