<?xml version="1.0" encoding="utf-8"?>
<!-- Generator: Adobe Illustrator 18.1.0, SVG Export Plug-In . SVG Version: 6.00 Build 0)  -->
<svg version="1.1" id="Layer_1" xmlns="http://www.w3.org/2000/svg" xmlns:xlink="http://www.w3.org/1999/xlink" x="0px" y="0px"
	 viewBox="0 0 16 48" enable-background="new 0 0 16 48" xml:space="preserve">
<g>
	<ellipse fill="#999999" cx="8" cy="34.3" rx="1.5" ry="0.8"/>
	<polygon fill="#999999" points="8,7 12,5 8,1 4,5 	"/>
	<path fill="#999999" d="M9,10.7H7c0,0,0,23.4,0,23.5c0,0.3,0.4,0.5,1,0.5s1-0.2,1-0.5C9,34.1,9,10.7,9,10.7z"/>
	<path opacity="0.2" d="M9,10.7H7c0,0,0,23.4,0,23.5c0,0.3,0.4,0.5,1,0.5s1-0.2,1-0.5C9,34.1,9,10.7,9,10.7z"/>
	<path fill="#999999" d="M8,35c-0.8,0-1.5-0.3-1.5-0.8c0,4.4,0,9.9,0,10C6.5,44.7,7.2,45,8,45s1.5-0.3,1.5-0.8c0-0.1,0-5.6,0-10
		C9.5,34.7,8.8,35,8,35z"/>
	<path opacity="0.2" d="M8,35c-0.8,0-1.5-0.3-1.5-0.8c0,4.4,0,9.9,0,10C6.5,44.7,7.2,45,8,45s1.5-0.3,1.5-0.8c0-0.1,0-5.6,0-10
		C9.5,34.7,8.8,35,8,35z"/>
	<polygon fill="#999999" points="8,7 4,5 6,12 8,13 10,12 12,5 	"/>
	<polygon fill="#FFCC00" points="8.5,7.3 11.2,6 9.6,11.7 8.5,12.2 	"/>
	<polygon opacity="0.15" points="9,7 11.2,6 9.6,11.7 	"/>
	<polygon fill="#FFCC00" points="6.4,11.7 4.8,6 7.5,7.3 7.5,12.2 	"/>
	<polygon opacity="0.2" fill="#FFFFFF" points="6.4,11.7 4.8,6 7.5,12.2 	"/>
	<polygon opacity="0.39" points="8,13 10,12 12,5 8,7 	"/>
	<polygon opacity="0.06" points="8,13 6,12 4,5 8,7 	"/>
	<circle fill="#999999" cx="8" cy="1" r="1"/>
</g>
</svg>
