<?xml version="1.0" encoding="utf-8"?>
<!-- Generator: Adobe Illustrator 18.1.0, SVG Export Plug-In . SVG Version: 6.00 Build 0)  -->
<svg version="1.1" id="Layer_1" xmlns="http://www.w3.org/2000/svg" xmlns:xlink="http://www.w3.org/1999/xlink" x="0px" y="0px"
	 viewBox="0 0 80 240" enable-background="new 0 0 80 240" xml:space="preserve">
<path opacity="0.2" d="M65.7,233.1c21.2-5.9,7.4-23.7-17.8-25.9c-8.7-0.8-12.5-13.3-34,0.4c-17.3,11-1.3,16.3,7.5,20.5
	C33.5,233.7,44.8,238.9,65.7,233.1z"/>
<path fill="#FBD7C7" d="M9,65c-1.4,5.7-3.5,18-3,20.4c0.5,2.4,4.6,18.3,5.2,21.1c0.5,2.8,0.5,6.4,0.5,6.4l10-9.1l-5.2-29.3L9,65z"/>
<g>
	<path fill="#825012" d="M11.5,211.3c-0.6,2-2.9,7.7,1.6,9c5.2,1.5,7.6-0.7,12.3-2.5s11.9-3.3,14.8-5.9c2.2-2-1.8-5.9-6-6.4
		s-5.3,1.4-6.5,1c-1.2-0.3-1.9-1.2-1.9-1.2s-1.3,4.9-5.9,5.8C15.3,212.1,11.5,211.3,11.5,211.3z"/>
	<path fill="#06547A" d="M15.1,104.6C12.3,108,9.2,112,9.5,121c0.3,9.1,0.3,23.9,1.4,30.2s0.6,13.2-0.2,20.7
		c-0.8,7.5-2.5,20-2.3,25.3c0.2,6.6,0.9,14.3,1,17.4c0.1,2.5,3.3,4,6.8,3.1s9.5-4.9,10.5-5.6c0.9-0.7,3-2.8,2-5.1
		s-0.9-14.1-0.1-19.3c0.8-5.2,2.8-20.8,2.8-25.3c0-4.4,7.8-15.2,8.1-24.2s0.3-32.2,0.3-32.2L15.1,104.6z"/>
	<path opacity="0.2" d="M15.1,104.6C12.3,108,9.2,112,9.5,121c0.3,9.1,0.3,23.9,1.4,30.2s0.6,13.2-0.2,20.7
		c-0.8,7.5-2.5,20-2.3,25.3c0.2,6.6,0.9,14.3,1,17.4c0.1,2.5,3.3,4,6.8,3.1s9.5-4.9,10.5-5.6c0.9-0.7,3-2.8,2-5.1
		s-0.9-14.1-0.1-19.3c0.8-5.2,2.8-20.8,2.8-25.3c0-4.4,7.8-15.2,8.1-24.2s0.3-32.2,0.3-32.2L15.1,104.6z"/>
	<path opacity="0.4" d="M31.5,213.5c-4.4,1.1-11.2,4.2-15,5c-2.4,0.5-4.7-0.5-6.1-1.4c0.2,1.4,0.9,2.7,2.7,3.2
		c5.2,1.5,7.6-0.7,12.3-2.5s11.9-3.3,14.8-5.9c1.3-1.2,0.5-3-1.3-4.4c0.2,0.3,0.4,0.7,0.6,1.2C40.7,211.3,35.9,212.4,31.5,213.5z"/>
</g>
<g>
	<path fill="#825012" d="M37.1,222.6c-1.1,2.7-1.9,7.9,2,8.7s12.2-1.1,16.1-1.2s13.2-1.6,14.4-4.4s-1.2-6.4-6.8-6s-8.2-1.2-8.2-1.2
		s-4.5,4.1-8.7,4.7S37.1,222.6,37.1,222.6z"/>
	<path opacity="0.4" d="M69.5,225.7c0.6-1.3,0.3-2.8-0.6-3.9c0.4,1.2,0.4,2.4-0.6,3.5c-2.9,3.1-7.6,1.9-17.5,3.1
		c-8.2,1-12.1,0.8-14.6-0.3c0.2,1.6,1,2.9,2.8,3.3c3.9,0.9,12.2-1.1,16.1-1.2C59,230,68.3,228.5,69.5,225.7z"/>
	<path fill="#06547A" d="M24.5,105.5c0,0-1.8,13.4,0.4,19.3s6.4,13.8,7,20.8c0.6,7,3.3,19.3,2.3,26.7s-1.1,19-0.7,27.9
		c0.4,7.7,1.7,23.6,1.8,25.9c0.1,3.8,7.4,4,11.4,2.4c5.2-2.1,10.7-6.2,10-7.8c-0.6-1.6-1.5-8-1.8-14.5c-0.3-6.5-1.1-29.3,0-34.5
		c1.1-5.1,3-16.2,3.5-33.3c0.4-16.3,0.9-23.6,0.5-26.7C58.5,108.6,24.5,105.5,24.5,105.5z"/>
</g>
<path fill="#999999" d="M26,48.5c-3.8-1.3-9.2-3.6-15.5,2s-0.7,23.2,1.1,27.6c1.8,4.4,2.8,10.5,2.7,13c-0.1,2.5-1.4,3.3-1.9,5.9
	c-0.5,2.6-0.5,7.9-1.4,9.6s-1.9,5-0.1,5.6c1.8,0.6,21.6,6.4,31.2,6.3s14.8-3.8,16.2-4.8c1.4-0.9,2.2-18.3,1.7-23.4
	S59.6,78.2,59.7,75c0.2-4.3-1.7-10.3-4.9-12.5c-3.1-2.1-7.4-5.6-12.2-8S26,48.5,26,48.5z"/>
<path fill="#FBD7C7" d="M20.2,48.1c1.2-0.3,4.8-3.3,4.8-5.4s-4-9.4-2.4-14.1c1.6-4.7,9.2-11.4,18.2-8.6S48,30.8,47,37.3
	c-1,6.5-1.7,7.3-2.9,8.1c-1.3,0.8-2.9,1.4-2.9,3.1c0.1,1.7,0.3,4.6,0.9,5.8c0.6,1.2-9.1,2.2-14.9-0.1S20.2,48.1,20.2,48.1z"/>
<path fill="#2D3134" d="M22.7,39.8c0.5,1.6,1.8,4.9,5.6,5.8s8.7-3.4,9.4-5.5s1-4.1,2.9-4.4c1.9-0.3,1.7,2.2,1.7,2.2s2.5-1.3,2.9-5.4
	c0.2-1.7-0.1-4.6,1.7-5.8c1.8-1.1-1.8-8.4-10.1-8.3c-9.4,0.1-12.7,4.3-14.4,8.7C20.6,31.9,21.8,37,22.7,39.8z"/>
<path fill="#FBD7C7" d="M62.9,121.5c-0.8-2.5-5.1-15.8-6.2-18.6c-1.1-2.7-0.7-6-0.7-10.6c0-1.8-0.1-5.7-0.4-10
	c-1.9,0.2-6.5,0.8-12.2,2.5c-1.5,0.4-2.9,0.9-4.1,1.3c0.3,1.2,0.7,2.3,0.8,3.1c1,4.4,4.8,14.1,5.8,16c1,1.9,1.1,4.4,3.5,9.6
	c2.3,5.2,8.2,13.5,8.8,14.8c0.5,1.3-1.3,4.6-1.3,6c0,1.4-0.1,8.7-0.1,9.6c-0.1,0.9-3.6,2.1-3.1,3.3c0.5,1.1,4.4-0.5,5.8-1.4
	c1.4-0.9,3.3-5.4,4-7.3c0.7-1.9,1.3-9.4,1.3-11.2C64.8,126.9,63.7,124,62.9,121.5z"/>
<path fill="#999999" d="M7.7,57.9c-0.3,3-0.6,12.6-0.6,12.6L13,75L7.7,57.9z"/>
<path fill="#3399CC" d="M10.6,216.4"/>
</svg>
