<?xml version="1.0" encoding="utf-8"?>
<!-- Generator: Adobe Illustrator 18.1.0, SVG Export Plug-In . SVG Version: 6.00 Build 0)  -->
<svg version="1.1" id="Layer_1" xmlns="http://www.w3.org/2000/svg" xmlns:xlink="http://www.w3.org/1999/xlink" x="0px" y="0px"
	 viewBox="0 0 80 240" enable-background="new 0 0 80 240" xml:space="preserve">
<g>
	<path fill="#FBD7C7" d="M58.8,116.4c0,0-0.5,4.7-2.1,7c-1.6,2.3-3.4,3.5-3.4,3.5l0.1-8.3l1.1-4.3L58.8,116.4z"/>
	<path fill="#FBD7C7" d="M8.6,113c0,0-0.7,6.3-1.1,7.5c-0.3,1.2,0.7,3.3,2.1,4c3.1,1.6,5.5,1.1,6.3,0.8c1.2-0.4-2.6-12.7-2.6-12.7
		L8.6,113z"/>
	<path fill="#FFCC00" d="M14.4,50.6c0,0-7,1.1-9.7,5.3S4.5,70.1,4.4,76.6S4.2,94,4.6,98.3c0.5,4.3,2.2,10.6,2.2,12.4
		c0,1.8-0.4,3.3,2.4,3.5c2.8,0.3,5.6-0.6,5.6-0.6s2.7-23.8,2.3-28.9S14.4,50.6,14.4,50.6z"/>
	<path opacity="0.2" d="M10.8,63.9c0,0-1.2,11.1,0.1,16.2c1.3,5,2.5,9.9,1.8,13.6c-0.7,3.7-2,9.6-1.3,14.2s2.2,7,2.2,7l5.9-25.3
		L14,73.2L10.8,63.9z"/>
	<path opacity="0.3" fill="#262626" d="M19.2,214.2c-3.1,3.1-9.5,10.6-2.8,14.2s13.8,3.5,20.9,3.2s25.2-3.2,28-6.3
		c2.8-3.2,3.9-7.9-2.8-9.1s-11-5.9-20.1-5.5C33.4,211.1,20,213.4,19.2,214.2z"/>
	<path fill="#262626" d="M18.6,218.2c0,0,1.4,6.3,5.7,6.3s18.7-2.2,18.7-2.2l-11.4-8.7L18.6,218.2z"/>
	<path fill="#762C07" d="M25.6,223.1c0,0-0.8,6.5,2.4,6.9s14.4-1,17.6-1c3.2,0,14.8-2.4,15.8-5.1c1-2.8-0.4-5.7-4.7-5.7
		s-12.2,0.2-13.6-0.2C41.5,217.6,25.6,223.1,25.6,223.1z"/>
	<path fill="#262626" d="M61.4,221.1c0,0.5-0.1,0.9-0.3,1.4c-1,2.8-13,5.3-16.2,5.3s-14.8,1.4-18.1,1c-0.2,0-0.5-0.1-0.7-0.2
		c0.4,0.7,0.9,1.3,1.8,1.4c3.2,0.4,14.4-1,17.6-1c3.2,0,14.8-2.4,15.8-5.1C61.6,222.9,61.6,222,61.4,221.1z"/>
	<path fill="#3399CC" d="M13.5,112.3c-0.8,2.6,3.5,29.6,3.5,32.7s1.8,17,1.4,21.5s-1.4,27.2-1.8,34.5s0.4,18.9,2.4,20.1
		s8.7,1.2,10.6,0.8s3.9-105.5,3.9-105.5L13.5,112.3z"/>
	<path opacity="0.2" d="M13.5,112.3c-0.8,2.6,3.5,29.6,3.5,32.7s1.8,17,1.4,21.5s-1.4,27.2-1.8,34.5s0.4,18.9,2.4,20.1
		s8.7,1.2,10.6,0.8s3.9-105.5,3.9-105.5L13.5,112.3z"/>
	<path fill="#3399CC" d="M26.9,118.2c0,0,1,11.8,1,17.2s-2.8,45-3.4,52.7c-0.6,7.7-1.4,33.9-0.2,36.5c1.2,2.6,3.4,3.5,7.4,2.6
		s9.1-2.4,12.1-6.1c0.8-1,2.9-2.7,2.9-2.7s-3.2-5-2.6-10.5c0.6-5.5,1.2-15.4,1-19.7c-0.2-4.3-0.2-10.6,1.4-16.4s5.7-17.9,6.9-35.9
		s0.8-21.5,0.8-21.5L26.9,118.2z"/>
	<path fill="#FBD7C7" d="M21.7,49.1c0,0,4.9,0.4,4.9-3.7s-0.1-6.7-0.1-6.7S24,37.6,24.2,34s1.3-2.8,1.3-2.8L44.9,33
		c0,0,1.3,0.4,0.3,3.9c-0.4,1.3-1.4,3-1.4,3.5s-1,3.5-1.7,3.9c-0.7,0.4-1.9,4.8-1.9,6.3s0.7,3.5,0.7,3.5s-8.1,0.1-12.8-1
		C23.4,52,21.7,49.1,21.7,49.1z"/>
	<path fill="#825012" d="M26.9,43.1c-0.4-0.2-0.6-4.3-0.9-6.6c-0.3-2.3-2.8-10,1.2-14.9s15.2-4.5,17.3,2.4c1.9,6.2,0.7,10-1,13.5
		c-1.7,3.5-3.5,5.2-4.1,6c-0.6,0.7-6.2,1.5-7.5,1.4C30.7,44.9,28.3,43.7,26.9,43.1z"/>
	<path fill="#FFCC00" d="M40.6,52.1c-0.6-0.2-6,0.6-10.5-0.7s-6.5-3.3-6.5-3.3s-9.3,1.8-11.7,3c-2.7,1.3-3.1,3.4-3.5,5.5
		C7.9,59.2,7.7,62,8,65c0.9,9.1,4.1,11.7,5,14c0.9,2.4,2.9,10.9,1.5,17.9s-2,15.4-1.8,17.6s2.4,7.7,14.7,8.3
		c14.5,0.7,26.8-4.6,26.8-4.6l0-1.1c0,0,0.7,1.3,2.6,1.2s4-2.3,4-3s0.4-7.8,0.7-9.4c0.3-1.6,1.2-2.5,0-6.6
		C60.4,95.2,57.7,81.5,57,75c-0.7-6.5-0.9-8.8-4.1-12.6C49.6,58.5,40.6,52.1,40.6,52.1z"/>
	<path opacity="0.2" d="M54.3,117.1c0,0-2.1-3.1-2.4-5.1c-0.3-2-1-9.3-1.6-10.9c-0.6-1.7-0.8-4.8-1.9-7.1C47.3,91.6,41,77.7,41,77.7
		s0.9,6.4,3,11.3c0.8,1.9,2.5,3.9,2.5,9.6c0,5.6,2.8,11.4,3.4,12.7c1.6,3.4,1.5,7,1.5,8c1.8-0.6,2.9-1.1,2.9-1.1L54.3,117.1
		C54.2,117.1,54.3,117.1,54.3,117.1L54.3,117.1z"/>
</g>
</svg>
