<?xml version="1.0" encoding="utf-8"?>
<!-- Generator: Adobe Illustrator 18.1.0, SVG Export Plug-In . SVG Version: 6.00 Build 0)  -->
<svg version="1.1" id="Layer_1" xmlns="http://www.w3.org/2000/svg" xmlns:xlink="http://www.w3.org/1999/xlink" x="0px" y="0px"
	 viewBox="0 0 80 240" enable-background="new 0 0 80 240" xml:space="preserve">
<g>
	<path fill="#FBD7C7" d="M15.3,80.5c-0.1,5.9-1.4,12.4-2.9,17.4s-1,10.6-0.5,11.7c0.5,1,1.8,4.7,2,5.5c0.3,0.8,1.6,0.8,1.8-0.8
		c0.3-1.6-0.4-4.9,0.2-5.9c0.6-1,2.3-0.1,2.7-2.3c0.4-2.2-0.6-5.8-0.1-7.5c0.5-1.7,2.9-5.6,2.8-8.3c-0.1-2.7,0.1-9.2,0.1-9.2
		L15.3,80.5z"/>
	<path opacity="0.2" d="M63.8,231.3c26.8-13.1,1-17.8-14.1-26.2c-20.7-11.6-27.3-15.6-42.8-6.1c-17,10.5,0.2,17.8,16,25.2
		C41,232.7,47.9,239.1,63.8,231.3z"/>
	<path fill="#762C07" d="M16.3,194.8c-2.1,2.2-5.1,5.4-8.1,6.9c-3,1.6-5.8,3.8-5.3,6c0.5,2.1,3.8,4.6,10.1,3
		c3.7-0.9,5.3-4.4,7.8-5.1s6.4-2.2,6.7-3.6c0.3-1.4,0.3-5.2,0.3-5.2L16.3,194.8z"/>
	<path fill="#762C07" d="M54.6,214.2c-1,2.4-2.6,5.6-5.3,8.1c-2.6,2.5-4.7,6.2-3.2,8.1s8.1,2.4,11.3,0.6s10-7.6,10.4-8.8
		c0.5-1.2-0.1-6.2-0.1-6.2L54.6,214.2z"/>
	<path opacity="0.5" d="M27.6,202c0.1-0.4,0.1-0.9,0.2-1.5c-1.3,1.1-4.3,2.5-7,3.3c-3.4,0.9-5.7,4.8-9.3,5.9
		c-3.2,0.9-7.9-0.5-8.4-3.3c-0.2,0.5-0.2,0.9-0.1,1.4c0.5,2.1,3.8,4.6,10.1,3c3.7-0.9,5.3-4.4,7.8-5.1S27.3,203.4,27.6,202z"/>
	<path opacity="0.5" d="M67.9,222.3c0.2-0.4,0.2-1.2,0.2-2.2c-1.1,1.5-3.5,3.6-5.4,5.3c-2.1,2.1-5.5,5-9.5,5.5
		c-3.2,0.4-6.3-0.2-7.5-2.5c-0.1,0.8,0,1.5,0.4,2c1.5,1.9,8.1,2.4,11.3,0.6C60.7,229.2,67.4,223.4,67.9,222.3z"/>
	<path fill="#656565" d="M17.2,102.8c0,0-3,9.5-4,23.1s0.6,35.5,0.6,46.4s1.1,19.2,0.4,21.3c-0.7,2.1-1.2,3.3,0,3.3s5.9,2.1,8.7,2.7
		s5.1,1,5.7-0.9s3-23.6,2.7-31c-0.3-7.4,0.2-12.7,2-19.2c1.8-6.5,5.3-26.8,5.3-26.8l0.3-13.9L17.2,102.8z"/>
	<path opacity="0.2" d="M17.2,102.8c0,0-3,9.5-4,23.1s0.6,35.5,0.6,46.4s1.1,19.2,0.4,21.3c-0.7,2.1-1.2,3.3,0,3.3s5.9,2.1,8.7,2.7
		s5.1,1,5.7-0.9s3-23.6,2.7-31c-0.3-7.4,0.2-12.7,2-19.2c1.8-6.5,5.3-26.8,5.3-26.8l0.3-13.9L17.2,102.8z"/>
	<path fill="#656565" d="M26.1,105.9c-0.1,1.4,0.3,19.9,1.5,23.3c1.2,3.4,5.1,5.3,7.8,13.2c2.7,7.9,3.5,15.2,6.2,23.6
		s10.1,36,10.5,41.7c0.5,5.7-0.5,8.7,0.4,9.2c1.6,1,3.6,1.7,5.8,2.4c2.3,0.7,7.4,1.1,9.6-0.1c2.1-1.3,2.5-2.2,1.8-7.2
		c-0.8-5-3.2-25.1-5.2-32.1c-2-7-6.2-33.4-6.4-41.9c-0.3-8.5,0.5-17.1-2.8-24.1c-3.3-7-6.3-9.4-6.3-9.4L26.1,105.9z"/>
	<path fill="#762C07" d="M16.6,100.7l-0.1,3.6c0,0,1.1,5.9,13.8,7.1c12.7,1.2,20.4-4.8,20.4-4.8l-0.7-3.1c0,0-11,5.3-21.5,3.6
		S16.6,100.7,16.6,100.7z"/>
	<path fill="#E5E5E5" d="M30.6,45.8c-4.5,1.6-11,1.3-12.9,6.8S12.8,67.3,13.5,73c0.7,5.7,2.4,12,2.5,15.2c0.1,3.2-0.6,8.2,0.1,10.7
		c0.7,2.5,0.8,5,4.9,6.8c6.1,2.7,11.6,3.4,18.6,2.4c8-1.1,10.6-3.3,11.3-5.3c0.7-2.1,1.2-5.5,2-10s2.3-10.4,2.3-10.4
		s3.1,4.6,4.5,5.2c1.5,0.7,3.2,0.6,3.2,0.6s1.6,1.4,2.2,1.4c0.7,0,4.5-1,7.2-2.7c2.7-1.6,3.9-2.8,3.9-3.2c0-0.4-1.1-2.3-1.1-2.3
		s1.2-1.1,0.5-2.1c-0.7-1-6.5-8.3-8.4-11.7c-1.9-3.4-4.8-10-9-12.1s-9.3-1.9-10.9-2.6c-1.6-0.7,0.3-3.3-0.4-4.2
		C46.2,47.8,37.1,43.4,30.6,45.8z"/>
	<path fill="#FBD7C7" d="M25,67.3l3.9-7.9c0,0,3.3-0.8,6.2-3.4c2.9-2.6,8.5-5.3,8.5-5.3s-2.9-2.7-3.3-5.5c-0.3-2.9,3.1-7.1,1.8-13.9
		c-1.2-6.6-7.1-11.5-16.3-7.4s-8.5,19.1-6.5,25.6c1.9,6.5,7.3,4.3,7.3,4.3s-1.1,5.1-1.2,7C25.3,62.6,25,67.3,25,67.3z"/>
	<path fill="#FBD7C7" d="M76,84c0,0,3,3.9,3.9,6.7s-3,8.6-9.7,13.2c-6.7,4.6-15.3,8.9-17.2,10.2c-1.9,1.4-8.5,6.7-11.1,7.3
		c-5.4,1.4-8.1-0.6-8.7-2.7c-0.6-2.1,6.3-5.3,7.1-6.2s0-2.8-0.8-3c-0.8-0.3-2.8-0.6-3.3-2c-0.5-1.4,1.2-0.9,2.6-0.6s4.5,1.1,5.5,1.5
		c1,0.3,1.6,1.5,3.2,0.9s8.7-9.1,12.7-12.4c3.6-3.1,7.5-4.1,7.5-4.1l-2-3.3c0,0,2.6-0.5,6.1-2.3C73.8,86,76,84,76,84z"/>
	<path fill="#825012" d="M19.1,31.1C19,32.3,20,33.6,23,34.4c3.8,0.9,7.8-2.1,11-0.2c1.7,1.1,2.3,7.2,3.3,7.2
		c0.4-1.9,1.1-3.8,2.8-3.5c1.5,0.3,1.3,2.2,1.2,2.9c0.9,0.4,3.7-7.9,0.2-13.9c-3.5-5.9-11.5-6.1-16.3-3.4S19.2,29.9,19.1,31.1z"/>
</g>
</svg>
