<?xml version="1.0" encoding="utf-8"?>
<!-- Generator: Adobe Illustrator 18.1.0, SVG Export Plug-In . SVG Version: 6.00 Build 0)  -->
<svg version="1.1" id="Layer_1" xmlns="http://www.w3.org/2000/svg" xmlns:xlink="http://www.w3.org/1999/xlink" x="0px" y="0px"
	 viewBox="0 0 80 240" enable-background="new 0 0 80 240" xml:space="preserve">
<g>
	<path opacity="0.2" d="M68.8,230C86,220.3,73,213,57,205.3c-17.8-8.5-24.9-11.7-40.5-1.6c-9.5,6.1-2.4,15.9,13.8,23.5
		C48.7,235.9,56.6,236.8,68.8,230z"/>
	<path fill="#262626" d="M16.8,213.2c0,2.1-0.1,5.9,3.8,5.9s5.9-2.9,6.2-3.8c0.3-1-0.1-3,1.3-3.8c1.3-0.8,6.3-2.5,6.6-7.1
		c0.4-4.9-1.8-5-3.5-5c-1.7,0-5.9,0.3-5.9,0.3L16.8,213.2z"/>
	<path opacity="0.5" d="M33.2,199.7c1.2,1.5,1,3.9,0.1,5.7c-1.9,3.6-6.4,3.1-6.8,5.2c-0.4,2.1-2.7,5.6-5.4,6c-2,0.3-3.2-0.3-4.2-1.2
		c0.2,1.8,1,3.6,3.8,3.6c4,0,5.9-2.9,6.2-3.8c0.3-1-0.1-3,1.3-3.8c1.3-0.8,6.3-2.5,6.6-7.1C35,201.4,34.2,200.2,33.2,199.7z"/>
	<path fill="#656565" d="M16.2,125.3c-0.3,6,1.4,21.3,1.2,32.8c-0.2,11.5-2.8,43.8-2.5,47.6s-0.3,8.8,3.8,9.6c3.2,0.6,7.4-1.8,9-4.3
		c1.6-2.5,2.6-6.2,2.7-10.5c0.1-4.3,9.4-58.4,9.5-60.6c0.1-2.2-1-13.8-1-13.8L16.2,125.3z"/>
	<path opacity="0.3" d="M16.2,125.3c-0.3,6,1.4,21.3,1.2,32.8c-0.2,11.5-2.8,43.8-2.5,47.6s-0.3,8.8,3.8,9.6c3.2,0.6,7.4-1.8,9-4.3
		c1.6-2.5,2.6-6.2,2.7-10.5c0.1-4.3,9.4-58.4,9.5-60.6c0.1-2.2-1-13.8-1-13.8L16.2,125.3z"/>
	<path fill="#FBD7C7" d="M45.1,27.4c2.5,1,4.3,3.8,4.7,10.3c0.4,6.5,0,11.6-1.5,12.3c-1.5,0.7-2.5,0.4-2.5,0.4l1.1,7.1l-16.8-4.7
		c0,0,0.3-3.9-0.6-6.4c-0.9-2.4-3.5-11.2-0.8-15.2S37.1,24.3,45.1,27.4z"/>
	<path fill="#FBD7C7" d="M5.4,113.6c0,0-0.8,7-0.5,8.7c0.3,1.7,3.5,9.6,5.3,10c1.8,0.4,3.6-1,3.4-2.3c-0.2-1.2-2-3.3-2.1-5.4
		c-0.2-2.1-0.1-5.3,0.8-5.7c0.9-0.5,2.9,2,3.8,3.1c0.9,1.1,2.5,0.7,2.5-0.2c0-0.8-1.9-2.6-2.3-4.1c-0.4-1.5-1.2-2.7-2.3-4
		c-1.1-1.4-1.5-2.3-1.5-2.3L5.4,113.6z"/>
	<path fill="#FFFFFF" d="M4.2,111.5c0,0-0.6,3.1,0.5,3.8c0.9,0.5,4.5,1.2,6.8,0.3c2-0.8,3.1-1.5,3.2-2.2c0.1-0.7-0.8-2-0.8-2
		L4.2,111.5z"/>
	<path fill="#262626" d="M43.9,224c0,2,0,3.3,0,4.1c0,0.8,0.1,2.9,4.3,2.6s6.4-1.2,6.6-1.5s0.7-1.1,0.7-1.1s7.2,0.6,12.4-1.6
		c5.4-2.3,8.6-7.3,4-9.4c-2.8-1.3-4.4,0.3-8.6-0.2c-4.5-0.5-7.1-2.7-7.1-2.7L43.9,224z"/>
	<path opacity="0.5" d="M68,226.3c5.4-2.3,8.6-7.3,4-9.4c4.8,4.5-4.5,8.7-8.6,9c-2.7,0.2-8.6,0.5-12.4,1.3c-3.1,0.6-6.2,0.4-7.1-0.8
		c0,0.7,0,1.3,0,1.7c0,0.8,0.1,2.9,4.3,2.6c4.3-0.3,6.4-1.2,6.6-1.5c0.2-0.3,0.7-1.1,0.7-1.1S62.8,228.5,68,226.3z"/>
	<path fill="#656565" d="M33.3,128.3c-0.4,6.2,2.3,19.4,3.4,26.8s2.9,38.7,3.7,46.5c0.6,6.3,2.7,23.4,3.9,24.3
		c1.2,0.9,9.6-0.3,13.1-2.6c2.3-1.6,4.9-4.7,4.5-6.8c-0.4-2.1-3.1-4.1-3.5-14.9c-0.3-10.8,0.9-30.2,0.6-44.9
		c-0.3-14.8-1-31.5-1-31.5L33.3,128.3z"/>
	<path opacity="0.15" d="M33.3,128.3c-0.4,6.2,2.3,19.4,3.4,26.8s2.9,38.7,3.7,46.5c0.6,6.3,2.7,23.4,3.9,24.3
		c1.2,0.9,9.6-0.3,13.1-2.6c2.3-1.6,4.9-4.7,4.5-6.8c-0.4-2.1-3.1-4.1-3.5-14.9c-0.3-10.8,0.9-30.2,0.6-44.9
		c-0.3-14.8-1-31.5-1-31.5L33.3,128.3z"/>
	<path fill="#656565" d="M12.6,55.9c-1.2,1.4-2,5.5-2.3,7.6C10,65.6,4.5,82.9,3.6,86.2c-0.9,3.4-0.8,9.1-0.6,14.4
		c0.2,5.3,0.2,11.7,0.3,12.6c0.1,1,4,2,6.9,1.6c2.9-0.4,4.6-1.2,4.9-3.6s1.8-13.9,3.8-18.1c2-4.2,4.9-11.7,4.9-11.7L12.6,55.9z"/>
	<path opacity="0.15" d="M12.6,55.9c-1.2,1.4-2,5.5-2.3,7.6C10,65.6,4.5,82.9,3.6,86.2c-0.9,3.4-0.8,9.1-0.6,14.4
		c0.2,5.3,0.2,11.7,0.3,12.6c0.1,1,4,2,6.9,1.6c2.9-0.4,4.6-1.2,4.9-3.6s1.8-13.9,3.8-18.1c2-4.2,4.9-11.7,4.9-11.7L12.6,55.9z"/>
	<path fill="#FBD7C7" d="M65.7,103.2l0.1,8.8c0,0,4.1,1.1,7.1-0.5c3-1.6,5.2-4.7,5.2-5.8c0-1.1-0.3-2.4-1.3-2.4
		c-1.1,0-2,1.6-3.2,0.3s-0.4-2.2,0.6-2.9c0.9-0.7,1.3-2.5-0.8-2.3c-1,0.1-1.9,0.8-2.5,1.3c-0.9,0.8-1.8,1.8-3,2.8
		C66.6,103.7,65.7,103.2,65.7,103.2z"/>
	<path fill="#656565" d="M30.2,49.3l-3.6,0.8l0.1,0.9c0,0-5.5-0.7-9.4,1.4c-4,2.1-6.1,4-5.6,7.3c0.6,3.4,3.9,15.1,6.1,21.1
		c2.2,6,3.5,9.3,2.9,14.2s-7.1,27.7-6.7,31.2s5.8,6.1,12.5,7.9c6.9,1.8,31.9,3.2,32.4-1.9c0.5-5,0.5-18.9,0.5-18.9s7.1,1.3,8.4-0.4
		c1.3-1.7,2.8-4.5,1.2-7.9c-1.5-3.4-2.1-3.5-3.1-3.8s-5.5-1-6.8-2.7c-1.3-1.6-0.3-7.8-0.3-15.7s0.3-13.6-3.2-17.3
		c-3.5-3.7-7.5-8.9-10.8-10.1C40.4,54,29.5,54.3,30.2,49.3z"/>
	<path opacity="0.2" d="M27.5,49.9c0,0,0.1,5.2,7.4,6.1c6.9,0.9,19,8.5,19,8.5s-13-7.3-18.9-7.8c-8.8-0.7-8.4-6.8-8.4-6.8L27.5,49.9
		z"/>
	<path fill="#762C07" d="M43.7,42.8c0.1,0.8,1-1.3,1.7-3.1c0.7-1.9,2-4.3,2.7-7c0.7-2.7,1.3-1.7,1.4-2.9s-5.7-8.9-16.3-5.2
		S25,40.6,26,44c1,3.4,4.1,7.3,7.1,7.3c3-0.1,6.5-2.4,6.8-6.8C40.3,40.1,43.5,41,43.7,42.8z"/>
</g>
</svg>
