<?xml version="1.0" encoding="utf-8"?>
<!-- Generator: Adobe Illustrator 18.1.0, SVG Export Plug-In . SVG Version: 6.00 Build 0)  -->
<svg version="1.1" id="Layer_1" xmlns="http://www.w3.org/2000/svg" xmlns:xlink="http://www.w3.org/1999/xlink" x="0px" y="0px"
	 viewBox="0 0 80 240" enable-background="new 0 0 80 240" xml:space="preserve">
<path opacity="0.2" d="M64.8,232c19.4-9.4,1.8-21.9-17.4-25.3c-8.4-1.5-13.5-14.9-34.6-1.6c-16.9,10.8,0,17.9,8.6,22
	C33.4,232.6,46.7,240.7,64.8,232z"/>
<path fill="#FBD7C7" d="M23.3,93.5c0,0-2,9.7-3.1,12.8c-1.2,3-2,7.7-1.5,11.1s2.1,10.4,2.7,11.5c0.7,1.1,3.2,3.6,4,4
	c0.8,0.4,2.4-14.9,2.4-14.9L23.3,93.5z"/>
<path fill="#E5E5E5" d="M19,108.7l4.1,2.2l1.6-12L23.8,84c0,0-2.3,5.6-3.2,11.5c-0.9,5.8-0.7,9.1-0.7,9.1L19,108.7z"/>
<path fill="#825012" d="M27.2,201.6c0,0,2.2,2.9,6.2,2.3c4-0.5,7.9-2.1,7.9-2.1s1.1,6.3-0.7,7.9c-1.8,1.6-8.5,1.9-11.4,3.3
	c-2.9,1.4-6.9,4.2-11.2,4.5c-9.2,0.7-7.8-6.8-3.6-8.7c3.3-1.4,6.7-3,8.8-4.2C25.3,203.5,27.2,201.6,27.2,201.6z"/>
<path opacity="0.4" d="M41.6,207.4c-2.7,1.3-8.3,2.4-11.1,3c-3.4,0.6-9.7,5.7-14.1,5.8c-3.1,0.1-4.9-1.3-4.9-4
	c-1,2.7,0.4,5.9,6.6,5.5c4.3-0.3,8.3-3.1,11.2-4.5c2.9-1.4,9.6-1.6,11.4-3.3C41.2,209.3,41.4,208.4,41.6,207.4z"/>
<path fill="#825012" d="M53.9,214.6c0,0,2.4,2.1,5.7,1.7c3.3-0.4,7.9-3.8,8.2-2.1c0.3,1.7,2,5.2,0.6,6.3c-1.4,1.1-9.1,5.7-10.4,7.1
	c-1.4,1.4-5.6,4.8-9.9,5.3c-4.8,0.5-9.2-1.3-9.2-4.8c0-4.1,6.6-6.9,9.4-8.8C51,217.2,53.9,214.6,53.9,214.6z"/>
<path opacity="0.4" d="M57.9,227.5c1.4-1.4,9.1-6,10.4-7.1c0.7-0.5,0.6-1.6,0.4-2.7c-2,1.7-5.9,3.7-9.5,5.9
	c-5.2,3.3-6.2,7.4-13.4,7.7c-5,0.2-6.9-2.2-6.9-4.6c-0.1,0.4-0.2,0.8-0.2,1.2c0,3.5,4.4,5.4,9.2,4.8
	C52.3,232.3,56.5,228.9,57.9,227.5z"/>
<path fill="#BAA794" d="M22.9,109.3c-1,3.9-0.6,15.3,0.2,21.4c0.8,6,1.7,19.1,3.2,31.7c1,8.5-0.7,31.9-1.9,37.4
	c-0.7,3.7-3.4,6.2,1,7.7c4.8,1.7,10,2,15.1,0.5c2.2-0.6,1.7-2.8,1.8-6.3c0.1-4.7,1.5-15.8,1.9-19.9s0.7-9.4,0.9-14
	c0.3-4.6,1.7-20.7,2.2-24.4c0.5-3.7,0.5-32.6,0.5-32.6L22.9,109.3z"/>
<path opacity="0.2" d="M22.9,109.3c-1,3.9-0.6,15.3,0.2,21.4c0.8,6,1.7,19.1,3.2,31.7c1,8.5-0.7,31.9-1.9,37.4
	c-0.7,3.7-3.4,6.2,1,7.7c4.8,1.7,10,2,15.1,0.5c2.2-0.6,1.7-2.8,1.8-6.3c0.1-4.7,1.5-15.8,1.9-19.9s0.7-9.4,0.9-14
	c0.3-4.6,1.7-20.7,2.2-24.4c0.5-3.7,0.5-32.6,0.5-32.6L22.9,109.3z"/>
<path fill="#BAA794" d="M30.4,109.5c0,0-1.5,8.2,2.2,12.8c3.7,4.6,8.6,6.7,8.5,9.9c-0.1,3.3,2.9,21.3,5,27.4s2.6,14.4,3.3,20.2
	c0.7,5.8,1.5,21.9,1.2,26.2c-0.3,5.6-1.8,10.8-2.2,12.8c-0.3,1.4,5,3.5,8.2,3.7c5.4,0.3,8.3-1.5,10.4-3c1.9-1.3,1.8-1.5,1.7-4.6
	c-0.1-3.1-0.7-31.8-1.2-39s2.4-38.8,2.2-45.2c-0.5-11.6-4.1-22.1-4.1-22.1L30.4,109.5z"/>
<path fill="#E5E5E5" d="M49.1,46.1c-8.4-0.5-15.3-2.4-18.2,2.4s-2.7,7.9-4.1,10.2s-4.3,8.8-4.2,13.4c0.1,4.6,1.4,7.3,0.8,9.9
	c-0.7,2.6-1.5,11.7-1.6,15.2c-0.2,6.8-0.6,13.1,0.5,14.8c1.7,2.6,16.6,4.1,27.2,2.8c12-1.4,19.9-5.1,19.9-6.2s-4.7-13.4-5.5-15
	c-6.6-13.8,10.1-18.4,10-19.1c-0.1-2,0.7-8.6,0.2-11.5c-0.5-2.9-4.1-7.6-6.7-10c-2.6-2.5-6.8-6.5-9.7-7.3
	C55,44.9,49.1,46.1,49.1,46.1z"/>
<path fill="#FBD7C7" d="M58.1,78.2c0,0,5.2,0.4,9.1-0.8s6-2.4,6-2.4s1.3,12.9,2.3,15.6c1,2.7,0.9,7.3-0.5,12.6
	c-1.4,5.3-4.1,23.6-4,26.4c0.1,2.8-0.2,6.3-0.7,8.3s-1.9,5.8-4.5,7.3c-3,1.7-6.4,1.4-7.6,0.4c-1.9-1.5,1.9-7.3,1.1-8.1
	c-0.8-0.8-2.4-0.6-2.9,0.7s-2.4,2.7-3.4,2c-1-0.7,0.2-1.8,0.8-2.9c0.6-1.2,2-3.9,3.4-4.8s4-1.4,4.6-3.8c0.6-2.5,0-13,0.6-18.5
	c0.6-5.5,2.9-10.5,2.8-11.6c-0.1-1.1-3.6-9.2-5.2-14.1C58.5,80.1,58.1,78.2,58.1,78.2z"/>
<path fill="#FBD7C7" d="M35.5,24.5c-2.8,4.3-1.3,14.8-0.9,17.5c0.4,2.6,1.1,5.4,3,6.2c1.9,0.7,3.6,1.5,3.6,2.7c0,1.2-3,3.9-1.7,4.7
	c1.3,0.8,8.5,0.9,14.5-1.5c5.6-2.3,7.2-5,6.4-6c-0.7-0.9-4.2-2.9-4.2-5.9c0.1-3.1,3.1-7.8,3.2-12.4c0.1-9.1-13.3-14.6-21.1-8.3
	C37.3,22.2,36.3,23.2,35.5,24.5z"/>
<path fill="#999999" d="M49.1,20.1c5.6,3.1-3.8,6.8-1.6,9c1.9,1.8,1.9,7.3,2.9,9c1.2,2.1,2.4-2.3,3.5-3.4c1-1,2.8-1.2,3.3,0.3
	c0.5,1.5-0.4,3.7-0.5,4.3c1.6-0.3,3.7-5.7,3.3-11.4c-0.4-6.8-10.1-13.2-20.6-7.3c-2.1,1.2-2.8,2.5-1.7,1.6
	C39.7,20.6,45.6,18.1,49.1,20.1z"/>
<path opacity="0.2" d="M57.6,78.2c0,0,2.8,13.9,2.7,17.9S56,113.8,56,113.8l9.9-2.4l2.9-15.8L57.6,78.2z"/>
<path fill="#E5E5E5" d="M61.2,120.9c0.2,1.6,0.6,5.3,0.6,5.3l-0.8,3.3c0,0,5.2-0.1,6.9,0.8c1.6,0.9,3.4,2.1,3.4,2.1V127
	c0,0,4.1-14,5.2-18.9c1.1-4.8,0.3-13.7,0.1-15.3c-0.3-1.6-2.2-19.6-2.2-22.8S74,63.5,74,63.5l-19.5,6.5c0,0,7.2,18.5,7.9,23
	C63.1,97.6,60.3,112.2,61.2,120.9z"/>
</svg>
