<?xml version="1.0" encoding="utf-8"?>
<!-- Generator: Adobe Illustrator 18.1.0, SVG Export Plug-In . SVG Version: 6.00 Build 0)  -->
<svg version="1.1" id="Layer_1" xmlns="http://www.w3.org/2000/svg" xmlns:xlink="http://www.w3.org/1999/xlink" x="0px" y="0px"
	 viewBox="0 0 80 240" enable-background="new 0 0 80 240" xml:space="preserve">
<g>
	<path fill="#FBD7C7" d="M13.4,105c0,0,1,9.1,1.3,12.3s1.3,5.5,2.1,7.3s4.5,6.2,5,5.9c0.5-0.3-0.3-2.1-0.3-2.5
		c0-0.4,0.4-1.7-0.2-2.5c-0.6-0.7-1.7-4-1.6-4.7c0.1-0.7,1.4-0.9,1.5-1.4c0.1-0.5,0.1-0.5,0.1-0.5s-3.6-6-3.6-8.6
		c0-2.7-0.1-6.1-0.1-6.1s-0.6-0.3-2,0C14.2,104.4,13.4,105,13.4,105z"/>
	<path opacity="0.3" fill="#262626" d="M28.1,216.9c0.6,1.8-6.7,11.8,7.1,13.5c20.6,2.7,21.6-13.7,29.3-18.2
		c13.9-8.1-3.1-14.1-22.5-14.1c-16.3,0.1-30.5,1.9-29.4,10.1C13.3,214.3,27.2,213.8,28.1,216.9z"/>
	<path fill="#762C07" d="M34,200.2c0,0-1.6,1.2-5.5,1.1s-7.3-0.8-11.4,1.5c-4.8,2.7-1.2,7,0.1,7.4c1.3,0.4,18.1,0.9,21.2,0.7
		s2.1-8.2,2.1-8.2L34,200.2z"/>
	<path fill="#262626" d="M39.4,209.1c-1.5,0.1-9,0.6-13.5,0.5c-5-0.1-6.4-0.5-7.8-1c-1.7-0.6-3.2-1.4-3.3-3.1
		c-0.5,2.2,0.9,4.1,2.5,4.6c1.5,0.5,3.3,0.9,8.6,1.1c4.2,0.1,11.3-0.3,12.6-0.4c0.8-0.1,1.4-0.7,1.7-1.6
		C39.8,209.5,39.7,209.1,39.4,209.1z"/>
	<path fill="#762C07" d="M39.7,211c0,0-3.9,4.4-6.6,7.6c-2.7,3.2-3.8,5.6-3.6,7.9s3.5,3.4,8,3.4s9.3-2.8,11.5-5.9
		c2.3-3.1,5.6-5.9,5.6-7.4c0-1.5-0.1-6.2-0.1-6.2L39.7,211z"/>
	<path fill="#262626" d="M54.6,210.4l-0.5,0c0,1.5,0.1,3.3,0.1,4.1c0,1.5-3.4,4.3-5.6,7.4c-2.3,3.1-7,5.9-11.5,5.9
		c-3.5,0-6.3-0.6-7.4-2c0,0.2,0,0.4,0,0.6c0.1,2.3,3.5,3.4,8,3.4c4.6,0,9.3-2.8,11.5-5.9c2.3-3.1,5.6-5.9,5.6-7.4
		C54.7,215.1,54.6,210.4,54.6,210.4z"/>
	<path fill="#3399CC" d="M19.7,114.3c0,0-0.5,13,1.6,23.9c2.1,10.9,9.5,26.4,9.5,31.1s2.3,19,2.1,22.8c-0.1,3.8-0.9,8.6-0.9,8.6
		s2.7,5,6.2,6.7c3.5,1.7,7.2-0.4,7.2-0.4l-6.4-90.5L19.7,114.3z"/>
	<path opacity="0.2" d="M19.7,114.3c0,0-0.5,13,1.6,23.9c2.1,10.9,9.5,26.4,9.5,31.1s2.3,19,2.1,22.8c-0.1,3.8-0.9,8.6-0.9,8.6
		s2.7,5,6.2,6.7c3.5,1.7,7.2-0.4,7.2-0.4l-6.4-90.5L19.7,114.3z"/>
	<path fill="#3399CC" d="M31.1,119.4c0,0,0.3,14.3-0.3,25.6c-0.5,11.3,2.3,21.7,3.4,25.3c1.1,3.6,1.5,9.7,1.5,15.2
		c0,5.5,0.2,26.2,1,27c0.8,0.8,5.2,3.6,10.9,4c4.3,0.3,9-2.4,9-3.1s1.5-16.4,0.3-29.1c-1.2-12.7-3.8-19.3-3.6-21.3
		c0.1-2,3.1-29.1,2.8-34.7c-0.3-5.6-2-18.4-2-18.4L31.1,119.4z"/>
	<path fill="#FFCC00" d="M17.9,69.4c0,0-2.2,7.4-3.6,17.6c-1.5,10.7-0.7,25.3-0.7,25.3s2.1-1.6,6.2-1.6S17.9,69.4,17.9,69.4z"/>
	<path opacity="0.2" d="M17.9,69.4c0,0-2.2,7.4-3.6,17.6c-1.5,10.7-0.7,25.3-0.7,25.3s2.1-1.6,6.2-1.6S17.9,69.4,17.9,69.4z"/>
	<path fill="#FBD7C7" d="M51.5,127c0,0-0.4,2.9-2.3,5.1c-1.9,2.1-3.5,5.8-3.5,7.3c0,2.1,0,3.9,0.9,4c1.8,0.2,1.1-1.3,1.7-1.3
		s0.3,2.6,3,2.7c3.5,0.1,8.5-2.3,8.5-4.6c0-1.2-0.5-4.4-0.9-6.2c-0.5-1.9-0.5-4.5-0.5-4.5L51.5,127z"/>
	<path fill="#FFCC00" d="M38.8,44c9.5,2.5,20.1,4.6,23.7,12.3c3.1,6.6,2.9,8.7,2.7,14.9c-0.3,6.2-0.8,18.5-0.5,22.5
		c0.3,4-1.1,20.8-2.3,26.4s-1.6,10.3-2.5,10.6c-0.9,0.3-10.2-0.9-9.5-2.3c0.9-2,1.2-7.6,1.2-7.6s-4.4,5.4-14.2,4
		c-9.8-1.3-18.2-6.1-19.1-8.6c-0.4-1.2-0.6-19.8,0.3-24.8s-2-15.7-2.1-20.4c-0.1-4.7,2.9-17.4,3.1-19.7C19.7,47.9,23.8,40.1,38.8,44
		z"/>
	<path opacity="0.2" d="M51.5,120.9c0,0,0.7-5.2,0.7-9.8c0-4.6,0.1-11.3-0.4-13.9c-0.5-2.7-2.2-12.2-2.5-14.7
		c-0.7-6.1-0.3-9.8,0.2-11.1c-2.4,4.1-1,19-0.3,25.2c0.9,8.7-0.3,25.8-0.6,26.6C48.3,123.9,51.5,120.9,51.5,120.9z"/>
	<path fill="#FBD7C7" d="M42.5,38.2c0,0,0,5.2,0.9,6.1s3,1.3,2.3,2.6c-0.7,1.3-8.1,9.7-13.5,9.2c-5.3-0.5-4-9.4-4-9.4L42.5,38.2z"/>
	<path fill="#FBD7C7" d="M22.8,26.5c-2.2,2.8-1.3,11-0.3,14.7s2.2,5.9,2.7,7.3c0.4,1.4,1.9,3.6,3.9,3.5s8.2-4.1,10.1-7.1
		c1.8-3,4.4-5.9,4.8-7.9c0.4-2,0.6-2.9-1.1-3.3c-1.7-0.4-5.3-7.8-9.9-8.1S24.1,24.8,22.8,26.5z"/>
	<path fill="#825012" d="M21.5,28.4c-0.4,1.6,0.8,3.3,5.5,3.3s7.6-2.3,8.1-0.8c0.5,1.5,1.8,5.7,2.2,6.6c0.4,0.9,1,2,1.3,1.6
		s1.8-3.9,2.9-4.7c1.1-0.8,1.7-0.8,1.7-0.8s1.6-8.3-2-12.6C37.6,16.7,25,15.6,21.5,28.4z"/>
	<path fill="#825012" d="M25,46.6c0,0,0.7-0.7,1.6-0.8c0.4,0,1.3,0.1,1.9,0.2c0.8,0.2,2.7,1.1,2.7,1.1s-2.8,0-3.7-0.1
		C26.4,46.9,25,46.6,25,46.6z"/>
	<path fill="#825012" d="M26.8,49l1.2,0.1c0,0-0.2,0.6,0.6,1.3s2.9,0.8,2.9,0.8s-1.7,1.3-3.2,0.9c-1.5-0.4-2.3-1.8-2.3-1.8
		s0.5-0.1,0.6-0.5C26.8,49.4,26.8,49,26.8,49z"/>
</g>
</svg>
