<?xml version="1.0" encoding="utf-8"?>
<!-- Generator: Adobe Illustrator 18.1.0, SVG Export Plug-In . SVG Version: 6.00 Build 0)  -->
<svg version="1.1" id="Layer_1" xmlns="http://www.w3.org/2000/svg" xmlns:xlink="http://www.w3.org/1999/xlink" x="0px" y="0px"
	 viewBox="0 0 160 240" enable-background="new 0 0 160 240" xml:space="preserve">
<g>
	<path opacity="0.2" d="M43.1,231.8c10.3,5.6,32.9-3.3,48.4-10.8c13.4-6.4,41.7-18.9,31.3-25.2c-10.4-6.3-28,1.4-44.7,9.1
		C63.6,211.5,28.6,223.9,43.1,231.8z"/>
	<path fill="#825012" d="M55.5,214.7c-1.7,2.5-6,6.6-8.2,7.6c-2.2,0.9-6.1,0.4-6.8,2.8c-0.7,2.4,0.6,4.5,4.5,5.2
		c3.9,0.7,7.7,0,9.7-1c2-1,7.8-2.9,11-2.7c3.1,0.2,4.2-1.4,4.3-3.1s-0.7-8.2-0.7-8.2L55.5,214.7z"/>
	<path opacity="0.4" d="M54.7,229.2c2-1,7.8-2.9,11-2.7c3.1,0.2,4.2-1.4,4.3-3.1c0-0.3,0-0.7,0-1.1c-0.6,1.2-1.7,2.3-3.2,2.4
		c-3.2,0.1-4.2,0.3-7.4,1.3c-3.2,0.9-7.8,3.7-13.3,2.9c-4-0.5-5-2.1-5.3-4.2c-0.1,0.1-0.1,0.3-0.2,0.4c-0.7,2.4,0.6,4.5,4.5,5.2
		S52.7,230.2,54.7,229.2z"/>
	<path fill="#825012" d="M111.4,188.3c0,0-0.4,1.2-2.3,4.6c-1.9,3.4-4.8,5.4-6.3,6.5c-1.5,1.1-3.3,2.7-2.9,4.3
		c1.6,7.1,15.9,5,19.6-3.5c1.5-3.5,7.5-9.9,6.6-12.5c-0.8-2.4-2.3-4.9-3.7-5.3S111.4,188.3,111.4,188.3z"/>
	<path opacity="0.4" d="M119.4,200.1c1.5-3.5,7.5-9.9,6.6-12.5c-0.1-0.4-0.3-0.8-0.5-1.2c-0.9,3.1-4.7,7.4-6,10.5
		c-4.6,11.2-16.1,11.3-19.7,6.1c0,0.2,0,0.5,0,0.7C101.4,210.8,115.8,208.7,119.4,200.1z"/>
	<path fill="#BAA794" d="M61.1,118.4c0,0-3.2,5.9-4.4,13.1c-1.2,7.2-2.7,31.4-2.5,39.1c0.4,20.2-1.3,44.2-1.9,45.9
		c-0.5,1.6,6.8,2.5,10.2,2.5c3.4,0,8.6,0.3,8.7-1.4c0.1-1.7,0.6-22.6,0.9-30.7c0.3-8.1-1.6-15.2,0.7-20.5s8.3-20.5,8.9-26.4
		c0.7-5.9-0.9-15.5-0.9-15.5L61.1,118.4z"/>
	<path opacity="0.2" d="M61.1,118.4c0,0-3.2,5.9-4.4,13.1c-1.2,7.2-2.7,31.4-2.5,39.1c0.4,20.2-1.3,44.2-1.9,45.9
		c-0.5,1.6,6.8,2.5,10.2,2.5c3.4,0,8.6,0.3,8.7-1.4c0.1-1.7,0.6-22.6,0.9-30.7c0.3-8.1-1.6-15.2,0.7-20.5s8.3-20.5,8.9-26.4
		c0.7-5.9-0.9-15.5-0.9-15.5L61.1,118.4z"/>
	<path fill="#BAA794" d="M71.2,121.6c0.9,3.4,6.6,9.4,8.3,14.4s2.8,12.6,4.3,17.2c1.6,5.1,5,9.8,6.3,14.8s3.8,7.2,6.8,9.2
		c3,2,7.6,5.1,9.8,9c1.7,3.1,1.2,4.5,3.2,5.6c2,1.2,7.6,0.2,10.6-2.1c3.3-2.4,5.1-4.4,4.4-6.4c-0.7-1.8-3.4-10.4-11.1-18.1
		c-3.4-3.4-5.1-4.9-5.5-5.9c-0.4-1,1-12.3,1.4-18.5c0.3-5.2,0.1-20.3-3.7-25c-2.5-3.1-3.8-4.4-3.8-4.4s-6.9,3.2-13.9,6.6
		C80.2,121.8,71.2,121.6,71.2,121.6z"/>
	<path fill="#E5E5E5" d="M80.9,51c-5.8-1-14.8-0.9-16.8,4.2s-7,20.6-7.2,24c-0.3,3.4,1.1,7.9,1.4,11.7c0.6,6.6,1,16.7,0.7,24.4
		c-0.2,4.2-1.9,8.8-0.5,9.3c1.3,0.5,12.6,3.1,23.2,1.6c13.1-1.8,25-4.8,26-7.5c0.7-2-2.4-31.6-1.7-36.4c0.6-4.2,0.4-8.9-1.4-12.9
		c-1.8-3.9-5.9-7.9-11.4-12.2C89.1,54.1,80.9,51,80.9,51z"/>
	<path fill="#FBD7C7" d="M90.6,86.8c0,0,2.9,0,7.7-1.2c4.9-1.2,6.3-2.1,6.3-2.1s1.6,6.7,2.1,10.1c0.5,3.4,0.5,8.7,1,10.5
		c0.5,1.8,0.8,5.2-2.4,9.7c-3.1,4.5-17.3,21.1-20.1,24.5c-2.8,3.4-7.7,7.9-10.7,7.9c-3,0-6.6-1-7.9-2.3s-1.6-4.1-0.4-4.9
		c1.1-0.8,4-1.4,4-1.4l0.7-1.6c0,0-0.7,0-1.3,0s-1.4,1.4-2.5,1.6s0-2.5,0.3-3.1c0.3-0.7,2.5-2,5.4-2.4s6.2,1,7.6-1.2
		c1.4-2.2,6.2-12.2,9.2-15.9c3-3.7,7-7.5,7-8c0-0.5-2.7-5.1-4-10.8C91.5,91.7,90.6,86.8,90.6,86.8z"/>
	<path fill="#FBD7C7" d="M68.1,34.6c-2.8,4.4-1.3,14.9-0.9,17.5c0.4,2.6,1.1,5.5,3,6.2c1.9,0.7,3.6,1.5,3.6,2.7s-3,3.9-1.7,4.7
		c1.3,0.8,8.5,0.9,14.5-1.5c5.6-2.3,7.2-5,6.5-6c-0.8-0.9-4.2-2.9-4.2-5.9c0.1-3.1,3.1-7.9,3.2-12.4c0.1-9.1-13.3-14.6-21.2-8.3
		C69.9,32.3,68.9,33.3,68.1,34.6z"/>
	<path fill="#999999" d="M81.7,30.2c5.6,3.1-3.8,6.9-1.6,9c1.9,1.8,1.9,7.3,2.9,9c1.2,2.1,2.4-2.3,3.5-3.4c1-1,2.8-1.2,3.3,0.3
		c0.5,1.5-0.4,3.7-0.5,4.3c1.6-0.3,3.7-5.7,3.3-11.4c-0.4-6.8-10.1-13.3-20.7-7.3c-2.1,1.2-2.8,2.5-1.7,1.6
		C72.3,30.7,78.2,28.2,81.7,30.2z"/>
	<path opacity="0.2" d="M91.6,101.5c0.2,1.9,1,4.9-1.8,8.4c-4,5-9.3,12.6-12.2,16.7c1.3-0.1,2.7-0.2,4-0.4c13.1-1.8,25-4.8,26-7.5
		c0.4-1.1-0.3-9.7-0.9-18.4L90,87.2C90,87.2,91.5,100.1,91.6,101.5z"/>
	<path fill="#E5E5E5" d="M106.1,77.3c0.2,2.7,1.7,13.1,2.5,17.7s2.4,9.2,2.1,11.4s-1.8,8.7-5.2,12.8c-3.9,4.7-9.6,11.1-12.7,13.7
		c-1.8,1.5-4.4,2.4-4.4,2.4l-2.6,3.1l-6.5-7.1l2-2.1c0,0,4.3-9.8,6.9-13.2c2.6-3.3,7.1-9.2,7.1-9.2S92,98.1,91.3,95
		s-1.6-9.7-1.6-9.7L106.1,77.3z"/>
</g>
</svg>
