<?xml version="1.0" encoding="utf-8"?>
<!-- Generator: Adobe Illustrator 18.1.0, SVG Export Plug-In . SVG Version: 6.00 Build 0)  -->
<svg version="1.1" id="Layer_1" xmlns="http://www.w3.org/2000/svg" xmlns:xlink="http://www.w3.org/1999/xlink" x="0px" y="0px"
	 viewBox="0 0 160 240" enable-background="new 0 0 160 240" xml:space="preserve">
<g>
	<path opacity="0.2" d="M93.5,228c13.8-9.3,1.8-19.8-17.5-23.2c-8.4-1.5-31.9-23-53-9.7c-17,10.8,18.3,26.1,27,30.1
		C62,230.8,76.8,239.2,93.5,228z"/>
	<path fill="#825012" d="M80,207.5l12.3-0.4c0,0,2.4,3.3,1.8,5.9s-4.4,6.8-5.3,8.6c-0.9,1.8-2.6,7.5-7.7,8.8
		c-5.1,1.3-11.7,0.9-12.6-2.4c-0.7-2.6,9.9-15,10.4-16.1C79.3,210.9,80,207.5,80,207.5z"/>
	<path opacity="0.4" d="M88.8,221.6c0.9-1.8,4.6-5.9,5.3-8.6c0.2-0.9,0.1-2-0.2-2.9c-0.5,1.3-1.2,3.2-2.1,4.2
		c-1.5,1.6-4.5,7.9-6.2,10.9c-2.2,3.9-12.7,6.7-17,2.2c-0.1,0.3-0.1,0.5,0,0.7c0.9,3.3,7.5,3.7,12.6,2.4
		C86.2,229.1,87.9,223.4,88.8,221.6z"/>
	<path fill="#825012" d="M39.7,193.9c-4.5,2.8-12.6,4.8-15.2,6.2c-2.9,1.6-4.7,7.5,1.3,7.9c6,0.4,15.9-3.9,19.3-3.9s9.7-1.1,10.5-3
		c0.9-1.9-0.4-6.9-0.4-6.9L39.7,193.9z"/>
	<path fill="#BAA794" d="M94.7,124.4c0,0-15,4.7-22.2,7.9s-18.3,6.7-21.7,11.4c-3.3,4.7-4.6,14.6-5.6,19.9c-1,5.4-4.3,18.5-6.4,24.6
		c-1.1,3.3-3,6.1-2.8,7.1c0.2,1,8.7,1.8,13.1,2c5.1,0.2,7,0.2,8.6-1.2c1-0.9,3.3-14.5,5.2-21.8c2-7.3,4.1-16.5,4.1-16.5
		s5.2-0.6,11.9-1.7c7-1.2,25.5-6.2,28.8-8.1c3.3-2,3.1-17.9,3.1-17.9L94.7,124.4z"/>
	<path opacity="0.2" d="M94.7,124.4c0,0-15,4.7-22.2,7.9s-18.3,6.7-21.7,11.4c-3.3,4.7-4.6,14.6-5.6,19.9c-1,5.4-4.3,18.5-6.4,24.6
		c-1.1,3.3-3,6.1-2.8,7.1c0.2,1,8.7,1.8,13.1,2c5.1,0.2,7,0.2,8.6-1.2c1-0.9,3.3-14.5,5.2-21.8c2-7.3,4.1-16.5,4.1-16.5
		s5.2-0.6,11.9-1.7c7-1.2,25.5-6.2,28.8-8.1c3.3-2,3.1-17.9,3.1-17.9L94.7,124.4z"/>
	<path fill="#FBD7C7" d="M95.3,81.3l7.2,3.9c0,0-5.8,15.3-7.3,18.8c-0.8,1.9-2.5,6.5-5.8,11.6c-3.4,5.2-7.6,9.8-8.1,11.6
		c-0.5,1.8-0.9,2.2-2.4,3.5c-1.6,1.3-2.5,1.7-4.1,2.6c-0.9,0.5-3,3.4-4.2,4.5c-1.2,1.1-6.3,1.6-6.9-0.9c-0.4-1.8,3.4-6.5,4.5-7.9
		c1.2-1.4,5.3-1.8,6.3-3.2c1-1.4,5.9-11.6,7.6-15.6c1.7-4.1,3.7-10.9,7-15.8S95.3,81.3,95.3,81.3z"/>
	<path fill="#BAA794" d="M102,130l-0.1,7.5c0,0-4.3,3.7-9.3,8.5c-4.9,4.7-10.7,10.4-12.5,12.2c-1.8,1.8-3.3,2.6-3.9,6.5
		s0.2,31.2,0.1,36c-0.1,4.5-0.1,10.7,1,11.7c1.2,1,6.2,1.3,10.6,0.7c5-0.7,7.6-1.6,8-2.6s0.5-15.6,0.9-21.9
		c0.4-6.3-0.3-16.7-0.3-16.7s9-3.3,14.3-5.5s22.7-7,26.3-13.7c3.5-6.7,2.3-14.3,1.4-19c-0.7-3.9-2.9-5.9-2.9-5.9L102,130z"/>
	<path opacity="0.4" d="M55.6,201.2c0.1-0.2,0.2-0.5,0.2-0.8c-2.9,1.3-7.8,2.1-11.3,2.2c-3,0.1-13.1,4-18,4c-2.3,0-3.8-0.8-4.8-1.6
		c0.2,1.5,1.3,2.8,4,3c6,0.4,15.9-3.9,19.3-3.9C48.5,204.2,54.8,203.1,55.6,201.2z"/>
	<path fill="#FBD7C7" d="M119.6,136.2c-0.7,1.3-1.2,2.2-1.7,2.4c-1.5,0.5-7.8,1.1-9.9,3.1c-2.2,2-4.2,3.8-4.5,5
		c-0.3,1.2-1.9,4.7-1.1,5.8c0.7,1.1,1-1.1,2.3-1.9c1.3-0.8,5.2-3.4,9.3-3.9s6-1.2,7.4-2.8c0.5-0.5,2.2-2.3,4.4-4.6L119.6,136.2z"/>
	<path fill="#E5E5E5" d="M142.6,94c-0.3-3.8,0.1-7.1-0.3-9.2c-1.2-6.4-7.4-14.2-15.7-16.3c-5.7-1.4-23.4-0.3-23.4-0.3
		c-0.4,0.1-3.9,3.7-5.8,6.8c-1.8,3-4.2,9.3-4.2,9.3c-1,1.9-4.7,9.4-5.9,11.7c-1.2,2.4-5.8,10.6-6.9,13.4c-1.1,2.8-3.6,11-4.4,12.3
		c-0.8,1.3-2,3-2,3l8.3,3.3l1.1-2.1c0,0,5.6-7.1,7.7-10.2c2-2.9,3-7.2,3.9-9.2c-1.1,3.6-2.7,9.8-3.5,14c-0.9,4.9-1.3,7-0.7,8.1
		c0.7,1.2,3.3,5.4,14.3,6c4.1,0.2,9.1,0.2,13.8,0.1l-0.5,1.6l-1.1,1.6c0,0,2.9,2,3.8,3.3c0.9,1.3,1.3,2.9,1.3,2.9l1.7-1.7
		c0,0,5.4-4.4,7.3-6c0.9-0.7,1.8-1.8,2.2-2.4c1.1-0.1,1.3-0.1,1.7-0.1c2.6-0.2,3.8-0.7,3.8-0.7s0.2-3.4,0.5-7.9
		c2.3-2.1,4.8-4.9,5.2-8.9C145.2,113,142.8,96.8,142.6,94z"/>
	<path opacity="0.2" d="M126.1,98.1c-0.4,5.1,0.8,12.1,0.8,13.8c0,1.7-2,3.4-5.8,8.1c-3.7,4.6-7.2,14-7.6,14.9c1.8,0,3.6,0,5.4-0.1
		c0.3-0.9,2.1-6.3,4-10.2c2.1-4.3,6.8-10.8,6.8-10.8s-0.9-2.5-1.4-4.9C127.6,106.2,126.1,98.1,126.1,98.1z"/>
	<path opacity="0.2" d="M139.1,133.3c0,0,0.2-3.4,0.5-7.9c0,0-1.4,2.2-2.2,3.5c-0.8,1.2-3.8,5.2-3.8,5.2c1.1-0.1,1.3-0.1,1.7-0.1
		C138,133.7,139.1,133.3,139.1,133.3z"/>
	<path fill="#FBD7C7" d="M102.6,46.8c-3.1,4.2-1.7,14.9-1.3,17.6c0.4,2.6,1.1,5.5,3,6.2c1.9,0.7,3.2,1.5,3.6,2.7
		c0.7,2.3-0.7,5.8,0.7,6.6s6.5-0.4,12.2-3.4c5.3-2.8,8.1-6.3,7.3-7.2c-0.8-0.9-5.1-1.6-5-4.7c0.1-3.1,3.1-7.9,3.2-12.4
		C126.2,41.9,109.7,37.1,102.6,46.8z"/>
	<path fill="#999999" d="M115.8,43c5.6,3.1-3.8,6.9-1.6,9c1.9,1.8,1.9,7.3,2.9,9c1.2,2.1,2.4-2.3,3.5-3.4c1-1,2.8-1.2,3.3,0.3
		c0.5,1.5-0.4,3.7-0.5,4.3c1.6-0.3,3.7-5.7,3.3-11.4c-0.4-6.8-10.1-13.3-20.7-7.3c-2.1,1.2-2.8,2.5-1.7,1.6
		C106.4,43.5,112.3,41,115.8,43z"/>
</g>
</svg>
