<?xml version="1.0" encoding="utf-8"?>
<!-- Generator: Adobe Illustrator 18.1.0, SVG Export Plug-In . SVG Version: 6.00 Build 0)  -->
<svg version="1.1" id="Layer_1" xmlns="http://www.w3.org/2000/svg" xmlns:xlink="http://www.w3.org/1999/xlink" x="0px" y="0px"
	 viewBox="0 0 160 240" enable-background="new 0 0 160 240" xml:space="preserve">
<g>
	<path fill="#FFFFFF" d="M117.7,78.7c0,0-3.2,0.8-7.1,6.8c-3.9,6-7.5,20.7-7.2,27s2.4,11.1,2.4,11.1s11.7-26,16.5-30.2
		c4.8-4.3,10.3-11.7,10-13.5C132.1,77.9,129.5,73.4,117.7,78.7z"/>
	<path fill="#CC291F" d="M115.6,86.3l-0.1,2.5c0,0-5.1,6.1-7.1,9.7s-6.5,14.2-6.5,14.2l3.8,10.3l6.2-14.4c0,0,2.6-9.1,3.7-12.5
		s1.8-6.5,1.8-6.5l1.5-0.4l-0.2-2.7l-1.6-0.7L115.6,86.3z"/>
	<path fill="#656565" d="M110.2,80.1c-3.2,1.5-6.1,3.6-8.2,6.6c-2,2.9-8.9,10-15.3,14.7c-6.4,4.7-27.6,21-28.2,21.5
		c-0.7,0.5-2.1,3.6,1.1,6.5c3.2,2.9,5.7,3.6,8.5,2s13.8-8.7,17.2-11.1c3.3-2.3,11.2-8.3,14.4-10.2C103,108.2,110.2,80.1,110.2,80.1z
		"/>
	<path fill="#656565" d="M120.8,77.9c0,0-4.5-2.2-8-0.7c-3.5,1.5-6.7,10-7.8,14.2c-1.1,4.1-4.5,10.5-5.2,13.2
		c-0.8,2.7-2.2,10.8-5.7,16.6c-3.5,5.8-9.8,13.5-9.8,13.5l15.3,7.8l7.3-21.8c0,0-3.3-9.9-0.2-19.4c3.1-9.5,4.1-15.3,6.9-18.1
		C116.3,80.3,120.8,77.9,120.8,77.9z"/>
	<polygon opacity="0.2" points="111.5,87.2 111.8,89.2 115.6,86.3 117.2,85.7 118.8,86.4 119.2,92 121.1,91.5 118.5,93.3 
		118.5,86.8 116.7,86.2 111.4,90.6 	"/>
	<path opacity="0.2" d="M69.1,229.6c11.1-5.9,10.1-9,5.8-11.5c-4.3-2.4-13.4,0-19.3,2.9c-5.9,2.9-16,8.3-7.3,11.9
		C57,236.4,63.9,232.3,69.1,229.6z"/>
	<path fill="#262626" d="M54.5,139.2c-3.7-1-8.4-4.7-15.6-3.7s-7.3,5.9-3.6,9.6c3.9,3.9,8.7,5.1,13.4,5.2c4.7,0.1,12-0.7,12-0.7
		L54.5,139.2z"/>
	<path opacity="0.5" d="M57.5,149.1c0,0-11.2,1.5-16.5-1.3s-6.9-5.4-6-8.8c0.8-2.8,2.9-3.1,6-3.7c-0.7,0-1.4,0.1-2.1,0.2
		c-7.2,1-7.3,5.9-3.6,9.6c3.9,3.9,8.7,5.1,13.4,5.2c2.7,0.1,6.4-0.2,8.9-0.4L57.5,149.1z"/>
	<g>
		<path fill="#262626" d="M55.4,208.3c-0.6,2.8-2.8,8.1-3.8,11.7c-1.1,3.6-3.2,9.9,0.4,12.3c4.7,3.1,10.7-2.2,11.6-7.5
			c0.8-4.6,1-8,2-10.3c1-2.3,3.3-6.9,3.3-6.9L55.4,208.3z"/>
		<path opacity="0.5" d="M67.3,207.7c-1,2.1-2.8,6.3-3.8,10.6c-0.8,3.3-0.8,8.4-4.5,12c-2.7,2.6-5.9,2.1-8.5,0.2
			c0.3,0.8,0.8,1.4,1.5,1.9c4.7,3.1,10.7-2.2,11.6-7.5c0.8-4.6,1-8,2-10.3s3.3-6.9,3.3-6.9L67.3,207.7z"/>
	</g>
	<path fill="#656565" d="M88.4,134.4C85,138.5,75,149,72.2,151.8c-2.8,2.8-6.1,5.8-8.2,16.5s-6.6,26.4-8.8,33
		c-2,5.9-3.7,10.6-1.7,10.8c2,0.3,6.6,0.7,9.2,1.6c2.6,0.9,6,1.6,6.9-0.3s6-17.7,8.7-26c2.6-8.3,4.7-16.6,5.4-17.9s7.4-8,12.5-9.6
		c4-1.2,8.5-1.2,10.7-3.4s5.4-19.4,5.4-19.4L88.4,134.4z"/>
	<path opacity="0.3" d="M88.4,134.4C85,138.5,75,149,72.2,151.8c-2.8,2.8-6.1,5.8-8.2,16.5s-6.6,26.4-8.8,33
		c-2,5.9-3.7,10.6-1.7,10.8c2,0.3,6.6,0.7,9.2,1.6c2.6,0.9,6,1.6,6.9-0.3s6-17.7,8.7-26c2.6-8.3,4.7-16.6,5.4-17.9s7.4-8,12.5-9.6
		c4-1.2,8.5-1.2,10.7-3.4s5.4-19.4,5.4-19.4L88.4,134.4z"/>
	<path fill="#656565" d="M52,137.1c1.6,0.1,5.7,1.2,13.7-1.6s27.8-9.8,29.6-10c1.7-0.3,5.4-0.1,9.2,4.2c3.8,4.4,14.7,16.3,17.2,17
		s7,0.1,7,0.1s-2,14.3-12.7,15c-10.6,0.7-17.3-5-19.4-8.2c-2-3.2-3.8-7.4-4.5-7.7c-0.7-0.3-13.1,3.2-20.5,4.8
		c-7.4,1.6-10.8,2.6-13.1,2.2s-8.7-2.9-9.3-7.3C48.5,141.3,52,137.1,52,137.1z"/>
	<path opacity="0.15" d="M52,137.1c1.6,0.1,5.7,1.2,13.7-1.6s27.8-9.8,29.6-10c1.7-0.3,5.4-0.1,9.2,4.2c3.8,4.4,14.7,16.3,17.2,17
		s7,0.1,7,0.1s-2,14.3-12.7,15c-10.6,0.7-17.3-5-19.4-8.2c-2-3.2-3.8-7.4-4.5-7.7c-0.7-0.3-13.1,3.2-20.5,4.8
		c-7.4,1.6-10.8,2.6-13.1,2.2s-8.7-2.9-9.3-7.3C48.5,141.3,52,137.1,52,137.1z"/>
	<path fill="#FFFFFF" d="M91.5,133.4c-0.4,0,0.6,3.5,1.3,5.2c0.7,1.7,2.1,5,3,4.8s0.2-4.4-0.6-6.1S93,133.4,91.5,133.4z"/>
	<path fill="#FBD7C7" d="M92.5,133.7c0,0,1.9,1.5,2.7,3.6c0.8,2.2,1.1,3.5-0.7,4.4c-1.8,0.8-4.1,0.9-7.4,2.3s-3.8,2.7-5.9,2.7
		s-6.6-3.1-6.5-5.2s4.4-6.3,8.4-7S92.5,133.7,92.5,133.7z"/>
	<path fill="#FBD7C7" d="M117.1,57.2c-3,2.8-3.3,6.9-3.5,13.4c-0.3,6.5-0.4,9.4,0.8,10.5c1.3,1,2.2,1.1,2.2,1.1s0.3,3.4,0.8,3.8
		s8.8-1.6,10.9-4c2.1-2.4,2.6-3.5,2.6-3.5s-0.2-2,1.1-3.3c1.3-1.3,5.2-4.5,3.3-13C133.2,53.8,123.5,51.2,117.1,57.2z"/>
	<path fill="#762C07" d="M114.6,59.2c0,0,1.8,0.2,3.9,3.6c2.1,3.3,6.3,3.8,8.2,3.1c-0.3,4,2.5,6.8,2.6,7.1c0.1,0.2,1.7-3.4,3.6-2.6
		c1.8,0.8-1.5,5-1.3,5.8c0.2,0.8,5.6-3,5.8-12.1C137.7,54.2,120.7,45.6,114.6,59.2z"/>
	<path fill="#FFFFFF" d="M93.9,132.8l-2.4,0.5c0,0,1.5,0.4,3.1,3.8c1.6,3.3,1.2,6.2,1.2,6.2l5.1-2L93.9,132.8z"/>
	<path fill="#656565" d="M103.3,128.5c0,0,8-22.3,13.1-29.9s12-13.7,13.7-15.6c1.6-2,1.2-6.1,1.2-6.1s2.7,1.1,5.8,5.9
		s10,12.9,9.8,18.5c-0.2,5.6-1.2,5.9-4.1,10.3s-9,14-9.9,18.7c-1,4.7,0,18.7-4.3,25.4c-5,7.6-9.8,6.7-9.8,6.7s2.4-5.8,2.9-9.7
		c0.5-4.1-2.4-7-2.4-7l-5.8-5.1L98,144.1c0,0-0.8-4.2-2.3-7.4c-1.5-3.2-4-4.1-4-4.1L103.3,128.5z"/>
	<path fill="#FFFFFF" d="M58.4,125.8c-0.5,0.6,1,2.6,3,4.1s2.9,1.9,3.4,1.6c0.5-0.3,0.4-3.6-1.7-4.7C61,125.5,58.9,125.1,58.4,125.8
		z"/>
	<path fill="#FBD7C7" d="M59.7,125.6c0,0,1.8-1,3.3,0.3s1.7,2.1,1.5,2.6s-0.6,4.3-3.3,6.2c-2.7,1.9-6.2,3.4-7.3,5.1s-2,4.3-4.2,4.4
		c-2.1,0.2-3.7-2.8-3.1-6s1.9-6.1,4.5-7.3c2.6-1.2,4.8-2,6.4-3.2C59.1,126.6,59.7,125.6,59.7,125.6z"/>
	<path fill="#FFFFFF" d="M59.3,124.7l-1,1.1c0,0,2.2-0.5,4,0.8c1.8,1.2,2,1.9,2.3,2.7c0.3,0.7,0.2,2.2,0.2,2.2s0.6-0.4,1-0.8
		c0.5-0.5,0.3-3.2-2.1-4.8C61.4,124.1,59.3,124.7,59.3,124.7z"/>
	<path opacity="0.2" d="M107.3,121.4c0,0,8.4-14,10.8-17c2.4-3,5.2-6.3,5.2-6.3l0.1-2.6l4.4-0.9c0,0,2.4-5.4,4.4-7.8
		c2-2.4,3.3-6,3.3-6s-0.8,4.1-2.5,6.6c-1.7,2.5-4,8-4,8l-5.1,0.6l0.4,3c0,0-2.5,1.9-5.8,6.2C116,108.4,107.3,121.4,107.3,121.4z"/>
</g>
</svg>
