<?xml version="1.0" encoding="utf-8"?>
<!-- Generator: Adobe Illustrator 18.1.0, SVG Export Plug-In . SVG Version: 6.00 Build 0)  -->
<svg version="1.1" id="Layer_1" xmlns="http://www.w3.org/2000/svg" xmlns:xlink="http://www.w3.org/1999/xlink" x="0px" y="0px"
	 viewBox="0 0 160 240" enable-background="new 0 0 160 240" xml:space="preserve">
<g>
	<path opacity="0.2" d="M96.4,228c13.8-9.3,1.8-19.8-17.5-23.2c-8.4-1.5-31.9-23-53-9.7c-17,10.8,18.3,26.1,27,30.1
		C64.9,230.8,79.7,239.2,96.4,228z"/>
	<path fill="#825012" d="M82.9,207.5l12.3-0.4c0,0,2.4,3.3,1.8,5.9c-0.7,2.6-4.4,6.8-5.3,8.6s-2.6,7.5-7.7,8.8
		c-5.1,1.3-11.7,0.9-12.6-2.4c-0.7-2.6,9.9-15,10.4-16.1C82.2,210.9,82.9,207.5,82.9,207.5z"/>
	<path opacity="0.4" d="M91.7,221.6c0.9-1.8,4.6-5.9,5.3-8.6c0.2-0.9,0.1-2-0.2-2.9c-0.5,1.3-1.2,3.2-2.1,4.2
		c-1.5,1.6-4.5,7.9-6.2,10.9c-2.2,3.9-12.7,6.7-17,2.2c-0.1,0.3-0.1,0.5,0,0.7c0.9,3.3,7.5,3.7,12.6,2.4
		C89,229.1,90.8,223.4,91.7,221.6z"/>
	<path fill="#825012" d="M42.6,193.9c-4.5,2.8-12.6,4.8-15.2,6.2c-2.9,1.6-4.7,7.5,1.3,7.9c6,0.4,15.9-3.9,19.3-3.9
		c3.4,0,9.7-1.1,10.5-3s-0.4-6.9-0.4-6.9L42.6,193.9z"/>
	<path fill="#06547A" d="M97.6,124.4c0,0-15,4.7-22.2,7.9c-7.3,3.1-18.3,6.7-21.7,11.4c-3.3,4.7-4.6,14.6-5.6,19.9
		c-1,5.4-4.3,18.5-6.4,24.6c-1.1,3.3-3,6.1-2.8,7.1c0.2,1,8.7,1.8,13.1,2c5.1,0.2,7,0.2,8.6-1.2c1-0.9,3.3-14.5,5.2-21.8
		c2-7.3,4.1-16.5,4.1-16.5s5.2-0.6,11.9-1.7c7-1.2,25.5-6.2,28.8-8.1c3.3-2,3.1-17.9,3.1-17.9L97.6,124.4z"/>
	<path opacity="0.2" d="M97.6,124.4c0,0-15,4.7-22.2,7.9c-7.3,3.1-18.3,6.7-21.7,11.4c-3.3,4.7-4.6,14.6-5.6,19.9
		c-1,5.4-4.3,18.5-6.4,24.6c-1.1,3.3-3,6.1-2.8,7.1c0.2,1,8.7,1.8,13.1,2c5.1,0.2,7,0.2,8.6-1.2c1-0.9,3.3-14.5,5.2-21.8
		c2-7.3,4.1-16.5,4.1-16.5s5.2-0.6,11.9-1.7c7-1.2,25.5-6.2,28.8-8.1c3.3-2,3.1-17.9,3.1-17.9L97.6,124.4z"/>
	<path fill="#FBD7C7" d="M98.2,81.3l7.2,3.9c0,0-5.8,15.3-7.3,18.8c-0.8,1.9-2.5,6.5-5.8,11.6c-3.4,5.2-7.6,9.8-8.1,11.6
		c-0.5,1.8-0.9,2.2-2.4,3.5c-1.6,1.3-2.5,1.7-4.1,2.6c-0.9,0.5-3,3.4-4.2,4.5c-1.2,1.1-6.3,1.6-6.9-0.9c-0.4-1.8,3.4-6.5,4.5-7.9
		c1.2-1.4,5.3-1.8,6.3-3.2c1-1.4,5.9-11.6,7.6-15.6c1.7-4.1,3.7-10.9,7-15.8S98.2,81.3,98.2,81.3z"/>
	<path fill="#06547A" d="M104.9,130l-0.1,7.5c0,0-4.3,3.7-9.3,8.5c-4.9,4.7-10.7,10.4-12.5,12.2c-1.8,1.8-3.3,2.6-3.9,6.5
		c-0.6,3.9,0.2,31.2,0.1,36c-0.1,4.5-0.1,10.7,1,11.7s6.2,1.3,10.6,0.7c5-0.7,7.6-1.6,8-2.6c0.4-1,0.5-15.6,0.9-21.9
		c0.4-6.3-0.3-16.7-0.3-16.7s9-3.3,14.3-5.5c5.3-2.2,22.7-7,26.3-13.7c3.5-6.7,2.3-14.3,1.4-19c-0.7-3.9-2.9-5.9-2.9-5.9L104.9,130z
		"/>
	<path fill="#999999" d="M106.1,68.3c-0.4,0.1-3.9,3.7-5.8,6.8c-1.8,3-4.7,9-4.7,9l5.2,1.8c0,0-1.4,1.4-2,5.1
		c-0.5,3.7,2.1,8.8,1,11.9c-1,3.1-4.6,12.7-5.5,17.6s-1.3,7-0.7,8.1c0.7,1.2,3.3,5.4,14.3,6c11,0.7,27.7-0.6,30.2-0.8
		c2.6-0.2,3.8-0.7,3.8-0.7s1.3-20.7,2-27.4c0.7-6.7,2-16.7,1.2-21c-1.2-6.4-7.4-14.2-15.7-16.3C123.7,67.1,106.1,68.3,106.1,68.3z"
		/>
	<path opacity="0.4" d="M58.5,201.2c0.1-0.2,0.2-0.5,0.2-0.8c-2.9,1.3-7.8,2.1-11.3,2.2c-3,0.1-13.1,4-18,4c-2.3,0-3.8-0.8-4.8-1.6
		c0.2,1.5,1.3,2.8,4,3c6,0.4,15.9-3.9,19.3-3.9S57.6,203.1,58.5,201.2z"/>
	<path fill="#FBD7C7" d="M129.6,97.6c0,0,1.9,9.4,3.1,12.4c1.3,3,1.2,4,1.2,4s-3.5,5.5-6.5,11.2c-3,5.8-5.3,12.8-6.8,13.4
		c-1.5,0.5-7.8,1.1-9.9,3.1c-2.2,2-4.2,3.8-4.5,5c-0.3,1.2-1.9,4.7-1.1,5.8c0.7,1.1,1-1.1,2.3-1.9c1.3-0.8,5.2-3.4,9.3-3.9
		s6-1.2,7.4-2.8s14.8-15,16.5-17.7c1.7-2.7,5.8-7.6,6.2-10.3c0.4-2.8-0.7-9.5-1.2-14.6c-0.5-5.2-0.8-6.8-0.8-6.8L129.6,97.6z"/>
	<path fill="#FBD7C7" d="M105.5,46.8c-2.8,4.4-1.7,14.9-1.3,17.6c0.4,2.6,1.1,5.5,3,6.2s3.2,1.5,3.6,2.7c0.7,2.3-0.7,5.8,0.7,6.6
		c1.3,0.8,6.5-0.4,12.2-3.4c5.3-2.8,8.1-6.3,7.3-7.2c-0.8-0.9-5.1-1.6-5-4.7c0.1-3.1,3.1-7.9,3.2-12.4
		C129.1,41.9,112.5,36.1,105.5,46.8z"/>
	<path fill="#2D3134" d="M104.2,49.3c2.5,3,10.7,0,12.9,2.2c1.9,1.8,1.9,7.3,2.9,9c1.2,2.1,2.4-2.3,3.5-3.4c1-1,2.8-1.2,3.3,0.3
		c0.5,1.5-0.4,3.7-0.5,4.3c1.6-0.3,3.7-5.7,3.3-11.4c-0.4-6.8-10.5-13.6-21-7.6C103,45.8,104.2,49.3,104.2,49.3z"/>
</g>
</svg>
