<?xml version="1.0" encoding="utf-8"?>
<!-- Generator: Adobe Illustrator 18.1.0, SVG Export Plug-In . SVG Version: 6.00 Build 0)  -->
<svg version="1.1" id="Layer_1" xmlns="http://www.w3.org/2000/svg" xmlns:xlink="http://www.w3.org/1999/xlink" x="0px" y="0px"
	 viewBox="0 0 192 168" enable-background="new 0 0 192 168" xml:space="preserve">
<g>
	<polygon fill="#999999" points="128,168 192,136 64,72 0,104 	"/>
	<polygon fill="#825012" points="64,0 0,32 0,104 64,136 128,104 128,32 	"/>
	<polygon opacity="0.3" points="64,108 68,134 102,151 91,115 	"/>
	<polygon opacity="0.29" points="128,47 128,104 64,136 64,79 	"/>
	<polygon fill="#E5E5E5" points="187.5,118 173,78 173,78.1 128,50 64,82 64,108 84,118 104,156 152,156 174,145 187.5,118 	"/>
	<g opacity="0.1">
		<g>
			<path d="M172.1,141.1c-0.6,0.3-1.1,1-1.1,1.6c0,0.6,0.5,0.8,1.1,0.5c0.6-0.3,1.1-1,1.1-1.6S172.7,140.8,172.1,141.1z"/>
			<path d="M162.7,144.4c0.7-0.4,1.3-1.2,1.3-1.9c0-0.7-0.6-1-1.3-0.6c-0.7,0.4-1.3,1.2-1.3,1.9S162,144.8,162.7,144.4z"/>
			<path d="M169,134.7c0.5-0.2,0.9-0.8,0.9-1.3s-0.4-0.7-0.9-0.4c-0.5,0.2-0.9,0.8-0.9,1.3C168.1,134.8,168.5,135,169,134.7z"/>
			<path d="M163.3,109.4c0-0.7-0.6-1-1.3-0.6c-0.7,0.4-1.3,1.2-1.3,1.9c0,0.7,0.6,1,1.3,0.6C162.7,110.9,163.3,110.1,163.3,109.4z"
				/>
			<path d="M166.4,121.8c0-1.3-1.1-1.8-2.4-1.2s-2.4,2.3-2.4,3.6c0,1.3,1.1,1.8,2.4,1.2C165.3,124.7,166.4,123.1,166.4,121.8z"/>
			<path d="M162.1,132.6c0-0.1-0.1-0.2-0.2-0.1c-0.1,0.1-0.2,0.2-0.2,0.3s0.1,0.2,0.2,0.1C162,132.9,162.1,132.8,162.1,132.6z"/>
			<path d="M153.2,151.4c0-0.1-0.1-0.2-0.2-0.1c-0.1,0.1-0.2,0.2-0.2,0.3s0.1,0.2,0.2,0.1C153.1,151.7,153.2,151.6,153.2,151.4z"/>
			<path d="M174.8,115.6c-0.4,0.2-0.6,0.6-0.6,1s0.3,0.5,0.6,0.3c0.4-0.2,0.6-0.6,0.6-1C175.5,115.6,175.2,115.5,174.8,115.6z"/>
			<path d="M180.7,125.1c-0.6,0.3-1.1,1-1.1,1.6c0,0.6,0.5,0.8,1.1,0.5c0.6-0.3,1.1-1,1.1-1.6C181.8,125,181.3,124.8,180.7,125.1z"
				/>
			<path d="M155.4,114c0,0.1,0.1,0.2,0.2,0.1c0.1-0.1,0.2-0.2,0.2-0.3c0-0.1-0.1-0.2-0.2-0.1C155.5,113.7,155.4,113.8,155.4,114z"/>
			<path d="M147.3,115.5c0.7-0.4,1.3-1.2,1.3-1.9c0-0.7-0.6-1-1.3-0.6c-0.7,0.4-1.3,1.2-1.3,1.9C146,115.6,146.6,115.9,147.3,115.5z
				"/>
			<path d="M147.8,128.7c0.7-0.4,1.3-1.2,1.3-1.9c0-0.7-0.6-1-1.3-0.6c-0.7,0.4-1.3,1.2-1.3,1.9C146.5,128.8,147,129.1,147.8,128.7z
				"/>
			<path d="M142.3,134.2c-0.7,0.4-1.3,1.2-1.3,1.9s0.6,1,1.3,0.6c0.7-0.4,1.3-1.2,1.3-1.9C143.6,134.1,143,133.8,142.3,134.2z"/>
			<path d="M136.2,123.4c-0.7,0.4-1.3,1.2-1.3,1.9s0.6,1,1.3,0.6c0.7-0.4,1.3-1.2,1.3-1.9S136.9,123,136.2,123.4z"/>
			<path d="M175.3,132.7c0-0.6-0.5-0.8-1.1-0.5s-1.1,1-1.1,1.6s0.5,0.8,1.1,0.5C174.8,134.1,175.3,133.3,175.3,132.7z"/>
			<path d="M154.3,135.9c0-0.6-0.5-0.8-1.1-0.5s-1.1,1-1.1,1.6s0.5,0.8,1.1,0.5C153.8,137.2,154.3,136.5,154.3,135.9z"/>
			<path d="M170.7,123.8c0.7-0.4,1.3-1.2,1.3-1.9c0-0.7-0.6-1-1.3-0.6c-0.7,0.4-1.3,1.2-1.3,1.9C169.4,123.8,170,124.1,170.7,123.8z
				"/>
			<path d="M169,137.7c-0.4,0.2-0.6,0.6-0.6,1s0.3,0.5,0.6,0.3c0.4-0.2,0.6-0.6,0.6-1S169.4,137.5,169,137.7z"/>
			<path d="M154.9,124.7c-0.6,0.3-1.1,1-1.1,1.6s0.5,0.8,1.1,0.5c0.6-0.3,1.1-1,1.1-1.6C156,124.7,155.5,124.4,154.9,124.7z"/>
			<path d="M167.2,106.2c0,0.6,0.5,0.8,1.1,0.5s1.1-1,1.1-1.6c0-0.6-0.5-0.8-1.1-0.5S167.2,105.6,167.2,106.2z"/>
			<path d="M154.5,146.4c0.5-0.2,0.9-0.8,0.9-1.3c0-0.5-0.4-0.7-0.9-0.4c-0.5,0.2-0.9,0.8-0.9,1.3
				C153.6,146.4,154,146.6,154.5,146.4z"/>
			<path d="M155.1,117.3c0-0.7-0.6-1-1.3-0.6c-0.7,0.4-1.3,1.2-1.3,1.9c0,0.7,0.6,1,1.3,0.6C154.5,118.9,155.1,118,155.1,117.3z"/>
			<path d="M166.8,113.8c-0.2,0.1-0.3,0.3-0.3,0.5c0,0.2,0.1,0.2,0.3,0.2c0.2-0.1,0.3-0.3,0.3-0.5
				C167.1,113.8,167,113.7,166.8,113.8z"/>
			<path d="M163.2,139.8c-0.2,0.1-0.3,0.3-0.3,0.5c0,0.2,0.1,0.2,0.3,0.2c0.2-0.1,0.3-0.3,0.3-0.5S163.3,139.7,163.2,139.8z"/>
			<path d="M166.8,116.9c0-0.2-0.2-0.3-0.4-0.2c-0.2,0.1-0.4,0.3-0.4,0.5c0,0.2,0.2,0.3,0.4,0.2
				C166.6,117.3,166.8,117.1,166.8,116.9z"/>
			<path d="M181.7,117.3c0-0.2-0.2-0.3-0.4-0.2c-0.2,0.1-0.4,0.3-0.4,0.5c0,0.2,0.2,0.3,0.4,0.2
				C181.5,117.8,181.7,117.5,181.7,117.3z"/>
			<path d="M150.3,130.9c0-0.2-0.2-0.3-0.4-0.2c-0.2,0.1-0.4,0.3-0.4,0.5s0.2,0.3,0.4,0.2C150.2,131.4,150.3,131.1,150.3,130.9z"/>
			<path d="M145.6,119.4c-0.5,0.2-0.9,0.8-0.9,1.3s0.4,0.7,0.9,0.4s0.9-0.8,0.9-1.3S146.1,119.2,145.6,119.4z"/>
		</g>
	</g>
	<g opacity="0.1">
		<path d="M148.3,113.5c0,0.7-0.6,1.6-1.3,1.9c-0.2,0.1-0.4,0.2-0.6,0.1c0.2,0.1,0.6,0.1,0.9-0.1c0.7-0.4,1.3-1.2,1.3-1.9
			c0-0.5-0.3-0.8-0.7-0.8C148.2,112.9,148.3,113.2,148.3,113.5z"/>
		<path d="M154.8,117.2c0,0.7-0.6,1.6-1.3,1.9c-0.2,0.1-0.4,0.2-0.6,0.1c0.2,0.1,0.6,0.1,0.9-0.1c0.7-0.4,1.3-1.2,1.3-1.9
			c0-0.5-0.3-0.8-0.7-0.8C154.7,116.6,154.8,116.8,154.8,117.2z"/>
		<path d="M150,130.7c0,0,0,0.1,0,0.1c0,0.2-0.2,0.4-0.4,0.5c0,0,0,0,0,0c0,0.1,0.2,0.2,0.3,0.1c0.2-0.1,0.4-0.3,0.4-0.5
			C150.3,130.7,150.2,130.7,150,130.7z"/>
		<path d="M148.4,126c0.2,0.1,0.4,0.4,0.4,0.7c0,0.7-0.6,1.6-1.3,1.9c-0.2,0.1-0.4,0.2-0.6,0.1c0.2,0.1,0.6,0.1,0.9-0.1
			c0.7-0.4,1.3-1.2,1.3-1.9C149.1,126.3,148.8,126,148.4,126z"/>
		<path d="M145.9,119.3c0.1,0.1,0.2,0.2,0.2,0.4c0,0.5-0.4,1.1-0.9,1.3c-0.1,0.1-0.2,0.1-0.3,0.1c0.2,0.1,0.4,0.1,0.7,0
			c0.5-0.2,0.9-0.8,0.9-1.3C146.5,119.5,146.2,119.3,145.9,119.3z"/>
		<path d="M142.9,134c0.2,0.1,0.4,0.4,0.4,0.7c0,0.7-0.6,1.6-1.3,1.9c-0.2,0.1-0.4,0.2-0.6,0.1c0.2,0.1,0.6,0.1,0.9-0.1
			c0.7-0.4,1.3-1.2,1.3-1.9C143.6,134.3,143.3,134,142.9,134z"/>
		<path d="M136.8,123.2c0.2,0.1,0.4,0.4,0.4,0.7c0,0.7-0.6,1.6-1.3,1.9c-0.2,0.1-0.4,0.2-0.6,0.1c0.2,0.1,0.6,0.1,0.9-0.1
			c0.7-0.4,1.3-1.2,1.3-1.9C137.5,123.5,137.2,123.2,136.8,123.2z"/>
		<path d="M153.6,135.3c0.2,0.1,0.3,0.3,0.3,0.6c0,0.6-0.5,1.3-1.1,1.6c-0.2,0.1-0.3,0.1-0.5,0.1c0.2,0.1,0.5,0.1,0.8,0
			c0.6-0.3,1.1-1,1.1-1.6C154.3,135.5,154,135.2,153.6,135.3z"/>
		<path d="M181.3,117.3c0,0.2-0.2,0.4-0.4,0.5c0,0,0,0,0,0c0,0.1,0.2,0.2,0.3,0.1c0.2-0.1,0.4-0.3,0.4-0.5c0-0.2-0.2-0.3-0.4-0.2
			C181.3,117.2,181.3,117.2,181.3,117.3z"/>
		<path d="M161.8,132.5c-0.1,0.1-0.2,0.2-0.2,0.3s0.1,0.2,0.2,0.1c0.1-0.1,0.2-0.2,0.2-0.3S162,132.5,161.8,132.5z"/>
		<path d="M169.1,105.1c0,0.6-0.5,1.3-1.1,1.6c-0.2,0.1-0.3,0.1-0.5,0.1c0.2,0.1,0.5,0.1,0.8,0c0.6-0.3,1.1-1,1.1-1.6
			c0-0.4-0.3-0.7-0.6-0.7C169,104.6,169.1,104.8,169.1,105.1z"/>
		<path d="M163.5,140c0-0.2-0.1-0.2-0.3-0.2c0,0,0,0,0,0c0,0,0,0,0,0c0,0.2-0.1,0.3-0.3,0.4c0,0.1,0.1,0.2,0.3,0.1
			C163.3,140.4,163.5,140.2,163.5,140z"/>
		<path d="M155.4,114c0,0.1,0.1,0.2,0.2,0.1c0.1-0.1,0.2-0.2,0.2-0.3c0-0.1-0.1-0.2-0.2-0.1C155.5,113.7,155.4,113.8,155.4,114z"/>
		<path d="M163,109.3c0,0.7-0.6,1.6-1.3,1.9c-0.2,0.1-0.4,0.2-0.6,0.1c0.2,0.1,0.6,0.1,0.9-0.1c0.7-0.4,1.3-1.2,1.3-1.9
			c0-0.5-0.3-0.8-0.7-0.8C162.8,108.7,163,108.9,163,109.3z"/>
		<path d="M166.4,116.7c0,0,0,0.1,0,0.1c0,0.2-0.2,0.4-0.4,0.5c0,0,0,0,0,0c0,0.1,0.2,0.2,0.3,0.1c0.2-0.1,0.4-0.3,0.4-0.5
			C166.8,116.7,166.6,116.6,166.4,116.7z"/>
		<path d="M174.6,132.1c0.2,0.1,0.3,0.3,0.3,0.6c0,0.6-0.5,1.3-1.1,1.6c-0.2,0.1-0.3,0.1-0.5,0.1c0.2,0.1,0.5,0.1,0.8,0
			c0.6-0.3,1.1-1,1.1-1.6C175.3,132.3,175,132.1,174.6,132.1z"/>
		<path d="M172.5,141c0.2,0.1,0.3,0.3,0.3,0.6c0,0.6-0.5,1.3-1.1,1.6c-0.2,0.1-0.3,0.1-0.5,0.1c0.2,0.1,0.5,0.1,0.8,0
			c0.6-0.3,1.1-1,1.1-1.6C173.2,141.2,172.9,141,172.5,141z"/>
		<path d="M172,121.8c0-0.5-0.3-0.8-0.7-0.8c0.2,0.1,0.4,0.4,0.4,0.7c0,0.7-0.6,1.6-1.3,1.9c-0.2,0.1-0.4,0.2-0.6,0.1
			c0.2,0.1,0.6,0.1,0.9-0.1C171.4,123.4,172,122.5,172,121.8z"/>
		<path d="M175,115.6c0.1,0.1,0.1,0.2,0.1,0.3c0,0.4-0.3,0.8-0.6,1c-0.1,0-0.1,0-0.2,0.1c0.1,0.1,0.3,0.1,0.5,0
			c0.4-0.2,0.6-0.6,0.6-1C175.5,115.7,175.3,115.5,175,115.6z"/>
		<path d="M153,151.3c-0.1,0.1-0.2,0.2-0.2,0.3s0.1,0.2,0.2,0.1c0.1-0.1,0.2-0.2,0.2-0.3S153.1,151.3,153,151.3z"/>
		<path d="M169.3,132.9c0.1,0.1,0.2,0.2,0.2,0.4c0,0.5-0.4,1.1-0.9,1.3c-0.1,0.1-0.2,0.1-0.3,0.1c0.2,0.1,0.4,0.1,0.7,0
			c0.5-0.2,0.9-0.8,0.9-1.3C169.9,133.1,169.6,132.9,169.3,132.9z"/>
		<path d="M181.1,124.9c0.2,0.1,0.3,0.3,0.3,0.6c0,0.6-0.5,1.3-1.1,1.6c-0.2,0.1-0.3,0.1-0.5,0.1c0.2,0.1,0.5,0.1,0.8,0
			c0.6-0.3,1.1-1,1.1-1.6C181.8,125.2,181.5,124.9,181.1,124.9z"/>
		<path d="M155.4,124.6c0.2,0.1,0.3,0.3,0.3,0.6c0,0.6-0.5,1.3-1.1,1.6c-0.2,0.1-0.3,0.1-0.5,0.1c0.2,0.1,0.5,0.1,0.8,0
			c0.6-0.3,1.1-1,1.1-1.6C156,124.8,155.7,124.6,155.4,124.6z"/>
		<path d="M163.3,141.7c0.2,0.1,0.4,0.4,0.4,0.7c0,0.7-0.6,1.6-1.3,1.9c-0.2,0.1-0.4,0.2-0.6,0.1c0.2,0.1,0.6,0.1,0.9-0.1
			c0.7-0.4,1.3-1.2,1.3-1.9C164,142,163.7,141.7,163.3,141.7z"/>
		<path d="M169.2,137.6c0.1,0.1,0.1,0.2,0.1,0.3c0,0.4-0.3,0.8-0.6,1c-0.1,0-0.1,0-0.2,0.1c0.1,0.1,0.3,0.1,0.5,0
			c0.4-0.2,0.6-0.6,0.6-1C169.6,137.7,169.5,137.6,169.2,137.6z"/>
		<path d="M154.8,144.6c0.1,0.1,0.2,0.2,0.2,0.4c0,0.5-0.4,1.1-0.9,1.3c-0.1,0.1-0.2,0.1-0.3,0.1c0.2,0.1,0.4,0.1,0.7,0
			c0.5-0.2,0.9-0.8,0.9-1.3C155.3,144.7,155.1,144.5,154.8,144.6z"/>
		<path d="M165.2,120.4c0.5,0.2,0.8,0.7,0.8,1.4c0,1.3-1.1,2.9-2.4,3.6c-0.5,0.2-0.9,0.3-1.2,0.3c0.4,0.2,1,0.1,1.6-0.2
			c1.3-0.7,2.4-2.3,2.4-3.6C166.4,121,165.9,120.4,165.2,120.4z"/>
		<path d="M166.8,113.8C166.8,113.8,166.8,113.9,166.8,113.8C166.8,113.9,166.8,113.9,166.8,113.8c0,0.2-0.1,0.4-0.3,0.5
			c0,0.1,0.1,0.2,0.3,0.1c0.2-0.1,0.3-0.3,0.3-0.5S167,113.7,166.8,113.8z"/>
	</g>
	<path opacity="0.1" d="M144,97.5c-0.6,0-1,0.3-1,0.6c0,0.3,0.4,0.6,1,0.6s1-0.3,1-0.6C145,97.8,144.5,97.5,144,97.5z M146,93.4
		c-0.8,0-1.5,0.4-1.5,0.9s0.7,0.9,1.5,0.9s1.5-0.4,1.5-0.9S146.8,93.4,146,93.4z M158.9,103.1c-0.8,0-1.5,0.4-1.5,0.9
		s0.7,0.9,1.5,0.9s1.5-0.4,1.5-0.9S159.7,103.1,158.9,103.1z M145.7,79.8c0.7,0,1.3-0.4,1.3-0.8s-0.6-0.8-1.3-0.8
		c-0.7,0-1.3,0.4-1.3,0.8S145,79.8,145.7,79.8z M119.7,103.8c0-0.3-0.3-0.5-0.8-0.5c-0.4,0-0.8,0.2-0.8,0.5c0,0.3,0.3,0.5,0.8,0.5
		C119.4,104.3,119.7,104.1,119.7,103.8z M140.2,110.5c-0.4,0-0.8,0.2-0.8,0.5c0,0.3,0.3,0.5,0.8,0.5s0.8-0.2,0.8-0.5
		C141,110.7,140.7,110.5,140.2,110.5z M138.8,81c-1.5,0-2.8,0.8-2.8,1.7s1.2,1.7,2.8,1.7s2.8-0.8,2.8-1.7S140.3,81,138.8,81z
		 M130,75.4c0.8,0,1.5-0.4,1.5-0.9c0-0.5-0.7-0.9-1.5-0.9s-1.5,0.4-1.5,0.9C128.5,74.9,129.1,75.4,130,75.4z M119.5,82
		c0.6,0,1-0.3,1-0.6s-0.4-0.6-1-0.6s-1,0.3-1,0.6S118.9,82,119.5,82z M122,88.3c0.8,0,1.5-0.4,1.5-0.9s-0.7-0.9-1.5-0.9
		s-1.5,0.4-1.5,0.9S121.1,88.3,122,88.3z M133.2,98.5c-0.4,0-0.8,0.2-0.8,0.5c0,0.3,0.3,0.5,0.8,0.5c0.4,0,0.8-0.2,0.8-0.5
		C134,98.7,133.6,98.5,133.2,98.5z M133.2,91.8c-0.7,0-1.3,0.4-1.3,0.8c0,0.4,0.6,0.8,1.3,0.8s1.3-0.4,1.3-0.8
		C134.5,92.2,133.9,91.8,133.2,91.8z M132.2,108.1c-0.8,0-1.5,0.4-1.5,0.9s0.7,0.9,1.5,0.9c0.8,0,1.5-0.4,1.5-0.9
		S133.1,108.1,132.2,108.1z M144.5,71c0-0.5-0.7-0.9-1.5-0.9s-1.5,0.4-1.5,0.9s0.7,0.9,1.5,0.9S144.5,71.5,144.5,71z M160.7,82
		c1.5,0,2.8-0.8,2.8-1.7s-1.2-1.7-2.8-1.7c-1.5,0-2.8,0.8-2.8,1.7S159.2,82,160.7,82z M158.2,86.8c0.1,0,0.3-0.1,0.3-0.2
		c0-0.1-0.1-0.2-0.3-0.2s-0.3,0.1-0.3,0.2C158,86.7,158.1,86.8,158.2,86.8z M166,85.5c0.8,0,1.5-0.4,1.5-0.9s-0.7-0.9-1.5-0.9
		s-1.5,0.4-1.5,0.9S165.2,85.5,166,85.5z M160,97.7c-0.7,0-1.3,0.4-1.3,0.8s0.6,0.8,1.3,0.8c0.7,0,1.3-0.4,1.3-0.8
		S160.7,97.7,160,97.7z M138.2,96.6c0.1,0,0.3-0.1,0.3-0.2s-0.1-0.2-0.3-0.2c-0.1,0-0.3,0.1-0.3,0.2S138.1,96.6,138.2,96.6z
		 M164,87.7c-0.6,0-1,0.3-1,0.6c0,0.3,0.4,0.6,1,0.6s1-0.3,1-0.6C165,88,164.5,87.7,164,87.7z M153.2,88.7c-0.4,0-0.8,0.2-0.8,0.5
		c0,0.3,0.3,0.5,0.8,0.5s0.8-0.2,0.8-0.5C154,88.9,153.7,88.7,153.2,88.7z M140.7,104.3c0-0.5-0.7-0.9-1.5-0.9s-1.5,0.4-1.5,0.9
		s0.7,0.9,1.5,0.9S140.7,104.8,140.7,104.3z M153.2,75.4c-0.7,0-1.3,0.4-1.3,0.8s0.6,0.8,1.3,0.8s1.3-0.4,1.3-0.8
		S153.9,75.4,153.2,75.4z M152.5,100.5c-0.7,0-1.3,0.4-1.3,0.8s0.6,0.8,1.3,0.8s1.3-0.4,1.3-0.8S153.2,100.5,152.5,100.5z M153.2,82
		c-0.7,0-1.3,0.4-1.3,0.8s0.6,0.8,1.3,0.8s1.3-0.4,1.3-0.8S153.9,82,153.2,82z M103.1,85.2c0.8,0,1.5-0.4,1.5-0.9s-0.7-0.9-1.5-0.9
		c-0.8,0-1.5,0.4-1.5,0.9S102.3,85.2,103.1,85.2z M73.7,84.6c-0.7,0-1.3,0.4-1.3,0.8s0.6,0.8,1.3,0.8c0.7,0,1.3-0.4,1.3-0.8
		S74.4,84.6,73.7,84.6z M90.3,75c-0.7,0-1.3,0.4-1.3,0.8s0.6,0.8,1.3,0.8s1.3-0.4,1.3-0.8S91,75,90.3,75z M90.1,93.8
		c-0.4,0-0.8,0.2-0.8,0.5c0,0.3,0.3,0.5,0.8,0.5s0.8-0.2,0.8-0.5C90.8,94,90.5,93.8,90.1,93.8z M81.4,90c-0.7,0-1.3,0.4-1.3,0.8
		s0.6,0.8,1.3,0.8c0.7,0,1.3-0.4,1.3-0.8S82.1,90,81.4,90z M103.6,93.1c-0.8,0-1.5,0.4-1.5,0.9s0.7,0.9,1.5,0.9s1.5-0.4,1.5-0.9
		S104.4,93.1,103.6,93.1z M166.5,93.4c-0.8,0-1.5,0.4-1.5,0.9s0.7,0.9,1.5,0.9c0.8,0,1.5-0.4,1.5-0.9S167.3,93.4,166.5,93.4z
		 M161.2,72.8c0.4,0,0.8-0.2,0.8-0.5c0,0,0,0,0,0l-0.6-0.4c0,0-0.1,0-0.1,0c-0.4,0-0.8,0.2-0.8,0.5
		C160.5,72.6,160.8,72.8,161.2,72.8z M129.7,102.4c-0.6,0-1,0.3-1,0.6c0,0.3,0.4,0.6,1,0.6c0.6,0,1-0.3,1-0.6
		C130.7,102.7,130.3,102.4,129.7,102.4z M130.5,82.6c0-0.5-0.7-0.9-1.5-0.9c-0.8,0-1.5,0.4-1.5,0.9s0.7,0.9,1.5,0.9
		C129.8,83.6,130.5,83.2,130.5,82.6z M126,69c-0.6,0-1,0.3-1,0.6c0,0.3,0.4,0.6,1,0.6c0.6,0,1-0.3,1-0.6C127,69.3,126.5,69,126,69z
		 M111.6,82c0.8,0,1.5-0.4,1.5-0.9s-0.7-0.9-1.5-0.9c-0.8,0-1.5,0.4-1.5,0.9S110.8,82,111.6,82z M112.1,89.3c0-0.5-0.7-0.9-1.5-0.9
		c-0.8,0-1.5,0.4-1.5,0.9c0,0.5,0.7,0.9,1.5,0.9C111.4,90.2,112.1,89.8,112.1,89.3z M125.5,95.3c-0.8,0-1.5,0.4-1.5,0.9
		c0,0.5,0.7,0.9,1.5,0.9c0.8,0,1.5-0.4,1.5-0.9C127,95.7,126.3,95.3,125.5,95.3z M154.8,103.3c-0.1,0-0.2,0-0.2,0.1
		c0,0.1,0.1,0.1,0.2,0.1s0.2,0,0.2-0.1C155,103.4,154.9,103.3,154.8,103.3z M156.1,95.2c-0.1,0-0.3,0.1-0.3,0.2s0.1,0.2,0.3,0.2
		c0.1,0,0.3-0.1,0.3-0.2S156.2,95.2,156.1,95.2z M143.9,89.3c0,0.1,0.2,0.3,0.4,0.3c0.2,0,0.4-0.1,0.4-0.3c0-0.1-0.2-0.3-0.4-0.3
		C144.1,89.1,143.9,89.2,143.9,89.3z M141,90.6c-0.1,0-0.3,0.1-0.3,0.2s0.1,0.2,0.3,0.2s0.3-0.1,0.3-0.2S141.1,90.6,141,90.6z
		 M115.9,92.7c-0.2,0-0.4,0.1-0.4,0.3c0,0.1,0.2,0.3,0.4,0.3s0.4-0.1,0.4-0.3C116.3,92.8,116.1,92.7,115.9,92.7z M106.2,102.6
		c-0.2,0-0.4,0.1-0.4,0.3s0.2,0.3,0.4,0.3c0.2,0,0.4-0.1,0.4-0.3S106.4,102.6,106.2,102.6z M112.3,94.3c0,0.1,0.1,0.2,0.3,0.2
		s0.3-0.1,0.3-0.2s-0.1-0.2-0.3-0.2S112.3,94.2,112.3,94.3z M151,106.4c-0.1,0-0.2,0.1-0.2,0.1c0,0.1,0.1,0.1,0.2,0.1
		c0.1,0,0.2-0.1,0.2-0.1C151.2,106.5,151.1,106.4,151,106.4z M147,103.6c-0.2,0-0.3,0.1-0.3,0.2c0,0.1,0.1,0.2,0.3,0.2
		s0.3-0.1,0.3-0.2C147.3,103.7,147.2,103.6,147,103.6z M122.2,109.5c-1.5,0-2.8,0.8-2.8,1.7s1.2,1.7,2.8,1.7s2.8-0.8,2.8-1.7
		S123.8,109.5,122.2,109.5z M112.3,99.2c0-0.4-0.6-0.8-1.3-0.8s-1.3,0.4-1.3,0.8s0.6,0.8,1.3,0.8S112.3,99.6,112.3,99.2z M97.9,81.7
		c1.5,0,2.8-0.8,2.8-1.7s-1.2-1.7-2.8-1.7c-1.5,0-2.8,0.8-2.8,1.7S96.3,81.7,97.9,81.7z M111.7,108.1c-0.8,0-1.5,0.4-1.5,0.9
		s0.7,0.9,1.5,0.9c0.8,0,1.5-0.4,1.5-0.9S112.5,108.1,111.7,108.1z M95.3,86.1c-0.1,0-0.3,0.1-0.3,0.2c0,0.1,0.1,0.2,0.3,0.2
		s0.3-0.1,0.3-0.2C95.6,86.2,95.5,86.1,95.3,86.1z M97.1,97.3c-0.7,0-1.3,0.4-1.3,0.8s0.6,0.8,1.3,0.8c0.7,0,1.3-0.4,1.3-0.8
		S97.8,97.3,97.1,97.3z M101.1,87.4c-0.6,0-1,0.3-1,0.6c0,0.3,0.4,0.6,1,0.6c0.6,0,1-0.3,1-0.6C102.1,87.7,101.7,87.4,101.1,87.4z
		 M107.6,75.7c-0.6,0-1,0.3-1,0.6s0.4,0.6,1,0.6s1-0.3,1-0.6S108.2,75.7,107.6,75.7z"/>
	<g>
		<path opacity="0.1" d="M111,98.4c-0.7,0-1.3,0.4-1.3,0.8c0,0.1,0,0.1,0.1,0.2c0.1-0.4,0.6-0.6,1.2-0.6s1.1,0.3,1.2,0.6
			c0-0.1,0.1-0.1,0.1-0.2C112.3,98.8,111.7,98.4,111,98.4z"/>
		<path opacity="0.1" d="M110.6,88.7c0.7,0,1.3,0.3,1.5,0.8c0-0.1,0-0.1,0-0.2c0-0.5-0.7-0.9-1.5-0.9c-0.8,0-1.5,0.4-1.5,0.9
			c0,0.1,0,0.1,0,0.2C109.3,89,109.9,88.7,110.6,88.7z"/>
		<path opacity="0.1" d="M103.1,83.6c0.7,0,1.3,0.3,1.5,0.8c0-0.1,0-0.1,0-0.2c0-0.5-0.7-0.9-1.5-0.9c-0.8,0-1.5,0.4-1.5,0.9
			c0,0.1,0,0.1,0,0.2C101.8,83.9,102.4,83.6,103.1,83.6z"/>
		<path opacity="0.1" d="M112.6,94.2c-0.1,0-0.3,0.1-0.3,0.2c0,0.1,0.1,0.2,0.3,0.2c0,0,0,0,0,0s0,0,0,0c0.1,0,0.3-0.1,0.3-0.2
			C112.8,94.2,112.7,94.2,112.6,94.2z"/>
		<path opacity="0.1" d="M119,103.7c0.3,0,0.6,0.1,0.7,0.3c0-0.1,0.1-0.1,0.1-0.2c0-0.3-0.3-0.5-0.8-0.5c-0.4,0-0.8,0.2-0.8,0.5
			c0,0.1,0,0.1,0.1,0.2C118.4,103.8,118.6,103.7,119,103.7z"/>
		<path opacity="0.1" d="M111.6,80.4c0.7,0,1.3,0.3,1.5,0.8c0-0.1,0-0.1,0-0.2c0-0.5-0.7-0.9-1.5-0.9c-0.8,0-1.5,0.4-1.5,0.9
			c0,0.1,0,0.1,0,0.2C110.3,80.8,110.9,80.4,111.6,80.4z"/>
		<path opacity="0.1" d="M90.3,75c-0.7,0-1.3,0.4-1.3,0.8c0,0.1,0,0.1,0.1,0.2c0.1-0.4,0.6-0.6,1.2-0.6s1.1,0.3,1.2,0.6
			c0-0.1,0.1-0.1,0.1-0.2C91.6,75.4,91,75,90.3,75z"/>
		<path opacity="0.1" d="M100.1,88c0,0.1,0,0.1,0.1,0.2c0.1-0.3,0.5-0.5,0.9-0.5c0.5,0,0.8,0.2,0.9,0.5c0-0.1,0.1-0.1,0.1-0.2
			c0-0.3-0.4-0.6-1-0.6C100.6,87.4,100.1,87.7,100.1,88z"/>
		<path opacity="0.1" d="M90.1,93.8c-0.4,0-0.8,0.2-0.8,0.5c0,0.1,0,0.1,0.1,0.2c0.1-0.2,0.4-0.3,0.7-0.3s0.6,0.1,0.7,0.3
			c0-0.1,0.1-0.1,0.1-0.2C90.8,94,90.5,93.8,90.1,93.8z"/>
		<ellipse opacity="0.1" cx="95.3" cy="86.3" rx="0.3" ry="0.2"/>
		<path opacity="0.1" d="M119.5,81.1c0.5,0,0.8,0.2,0.9,0.5c0-0.1,0.1-0.1,0.1-0.2c0-0.3-0.4-0.6-1-0.6s-1,0.3-1,0.6
			c0,0.1,0,0.1,0.1,0.2C118.6,81.3,119,81.1,119.5,81.1z"/>
		<path opacity="0.1" d="M81.4,90c-0.7,0-1.3,0.4-1.3,0.8c0,0.1,0,0.1,0.1,0.2c0.1-0.4,0.6-0.6,1.2-0.6c0.6,0,1.1,0.3,1.2,0.6
			c0-0.1,0.1-0.1,0.1-0.2C82.7,90.4,82.1,90,81.4,90z"/>
		<path opacity="0.1" d="M97.1,97.3c-0.7,0-1.3,0.4-1.3,0.8c0,0.1,0,0.1,0.1,0.2c0.1-0.4,0.6-0.6,1.2-0.6c0.6,0,1.1,0.3,1.2,0.6
			c0-0.1,0.1-0.1,0.1-0.2C98.4,97.7,97.8,97.3,97.1,97.3z"/>
		<path opacity="0.1" d="M73.7,84.6c-0.7,0-1.3,0.4-1.3,0.8c0,0.1,0,0.1,0.1,0.2c0.1-0.4,0.6-0.6,1.2-0.6c0.6,0,1.1,0.3,1.2,0.6
			c0-0.1,0.1-0.1,0.1-0.2C74.9,85,74.4,84.6,73.7,84.6z"/>
		<path opacity="0.1" d="M97.9,78.5c1.4,0,2.6,0.7,2.7,1.6c0-0.1,0-0.1,0-0.2c0-1-1.2-1.7-2.8-1.7c-1.5,0-2.8,0.8-2.8,1.7
			c0,0.1,0,0.1,0,0.2C95.3,79.2,96.4,78.5,97.9,78.5z"/>
		<path opacity="0.1" d="M163,88.3c0,0.1,0,0.1,0.1,0.2c0.1-0.3,0.5-0.5,0.9-0.5s0.8,0.2,0.9,0.5c0-0.1,0.1-0.1,0.1-0.2
			c0-0.3-0.4-0.6-1-0.6S163,88,163,88.3z"/>
		<ellipse opacity="0.1" cx="158.2" cy="86.6" rx="0.3" ry="0.2"/>
		<path opacity="0.1" d="M160.7,78.9c1.4,0,2.6,0.7,2.7,1.6c0-0.1,0-0.1,0-0.2c0-1-1.2-1.7-2.8-1.7c-1.5,0-2.8,0.8-2.8,1.7
			c0,0.1,0,0.1,0,0.2C158.2,79.6,159.3,78.9,160.7,78.9z"/>
		<path opacity="0.1" d="M161.2,72.2c0,0,0.1,0,0.1,0l0.5,0.4c0.1-0.1,0.1-0.1,0.1-0.2c0,0,0,0,0,0l-0.6-0.4c0,0-0.1,0-0.1,0
			c-0.4,0-0.8,0.2-0.8,0.5c0,0.1,0,0.1,0.1,0.2C160.7,72.4,160.9,72.2,161.2,72.2z"/>
		<path opacity="0.1" d="M166,83.9c0.7,0,1.3,0.3,1.5,0.8c0-0.1,0-0.1,0-0.2c0-0.5-0.7-0.9-1.5-0.9s-1.5,0.4-1.5,0.9
			c0,0.1,0,0.1,0,0.2C164.6,84.3,165.3,83.9,166,83.9z"/>
		<path opacity="0.1" d="M165,94.3c0,0.1,0,0.1,0,0.2c0.1-0.4,0.7-0.8,1.5-0.8c0.7,0,1.3,0.3,1.5,0.8c0-0.1,0-0.1,0-0.2
			c0-0.5-0.7-0.9-1.5-0.9C165.7,93.4,165,93.8,165,94.3z"/>
		<path opacity="0.1" d="M144.3,89.1c-0.2,0-0.4,0.1-0.4,0.3c0,0.1,0,0.1,0.1,0.2c0.1-0.1,0.2-0.1,0.3-0.1c0.1,0,0.2,0,0.3,0.1
			c0.1,0,0.1-0.1,0.1-0.2C144.7,89.2,144.6,89.1,144.3,89.1z"/>
		<path opacity="0.1" d="M129.7,102.4c-0.6,0-1,0.3-1,0.6c0,0.1,0,0.1,0.1,0.2c0.1-0.3,0.5-0.5,0.9-0.5c0.5,0,0.8,0.2,0.9,0.5
			c0-0.1,0.1-0.1,0.1-0.2C130.7,102.7,130.3,102.4,129.7,102.4z"/>
		<path opacity="0.1" d="M130,73.8c0.7,0,1.3,0.3,1.5,0.8c0-0.1,0-0.1,0-0.2c0-0.5-0.7-0.9-1.5-0.9s-1.5,0.4-1.5,0.9
			c0,0.1,0,0.1,0,0.2C128.6,74.1,129.2,73.8,130,73.8z"/>
		<path opacity="0.1" d="M129,82c0.7,0,1.3,0.3,1.5,0.8c0-0.1,0-0.1,0-0.2c0-0.5-0.7-0.9-1.5-0.9c-0.8,0-1.5,0.4-1.5,0.9
			c0,0.1,0,0.1,0,0.2C127.6,82.4,128.2,82,129,82z"/>
		<path opacity="0.1" d="M143,70.4c0.7,0,1.3,0.3,1.5,0.8c0-0.1,0-0.1,0-0.2c0-0.5-0.7-0.9-1.5-0.9s-1.5,0.4-1.5,0.9
			c0,0.1,0,0.1,0,0.2C141.7,70.7,142.3,70.4,143,70.4z"/>
		<path opacity="0.1" d="M144.5,79.2c0.1-0.4,0.6-0.6,1.2-0.6c0.6,0,1.1,0.3,1.2,0.6c0-0.1,0.1-0.1,0.1-0.2c0-0.4-0.6-0.8-1.3-0.8
			c-0.7,0-1.3,0.4-1.3,0.8C144.5,79.1,144.5,79.1,144.5,79.2z"/>
		<path opacity="0.1" d="M120.5,87.6c0.1-0.4,0.7-0.8,1.5-0.8s1.3,0.3,1.5,0.8c0-0.1,0-0.1,0-0.2c0-0.5-0.7-0.9-1.5-0.9
			s-1.5,0.4-1.5,0.9C120.5,87.4,120.5,87.5,120.5,87.6z"/>
		<path opacity="0.1" d="M152.5,100.5c-0.7,0-1.3,0.4-1.3,0.8c0,0.1,0,0.1,0.1,0.2c0.1-0.4,0.6-0.6,1.2-0.6s1.1,0.3,1.2,0.6
			c0-0.1,0.1-0.1,0.1-0.2C153.7,100.9,153.2,100.5,152.5,100.5z"/>
		<path opacity="0.1" d="M146,93.4c-0.8,0-1.5,0.4-1.5,0.9c0,0.1,0,0.1,0,0.2c0.1-0.4,0.7-0.8,1.5-0.8s1.3,0.3,1.5,0.8
			c0-0.1,0-0.1,0-0.2C147.5,93.8,146.8,93.4,146,93.4z"/>
		<path opacity="0.1" d="M147,103.6c-0.2,0-0.3,0.1-0.3,0.2c0,0.1,0.1,0.1,0.2,0.2c0,0,0.1,0,0.1,0s0.1,0,0.1,0
			c0.1,0,0.2-0.1,0.2-0.2C147.3,103.7,147.2,103.6,147,103.6z"/>
		<ellipse opacity="0.1" cx="151" cy="106.5" rx="0.2" ry="0.1"/>
		<path opacity="0.1" d="M138.8,81c-1.5,0-2.8,0.8-2.8,1.7c0,0.1,0,0.1,0,0.2c0.1-0.9,1.3-1.6,2.7-1.6s2.6,0.7,2.7,1.6
			c0-0.1,0-0.1,0-0.2C141.5,81.8,140.3,81,138.8,81z"/>
		<path opacity="0.1" d="M103.6,93.1c-0.8,0-1.5,0.4-1.5,0.9c0,0.1,0,0.1,0,0.2c0.1-0.4,0.7-0.8,1.5-0.8s1.3,0.3,1.5,0.8
			c0-0.1,0-0.1,0-0.2C105.1,93.5,104.4,93.1,103.6,93.1z"/>
		<path opacity="0.1" d="M144,97.5c-0.6,0-1,0.3-1,0.6c0,0.1,0,0.1,0.1,0.2c0.1-0.3,0.5-0.5,0.9-0.5s0.8,0.2,0.9,0.5
			c0-0.1,0.1-0.1,0.1-0.2C145,97.8,144.5,97.5,144,97.5z"/>
		<path opacity="0.1" d="M141,90.6c-0.1,0-0.3,0.1-0.3,0.2c0,0.1,0.1,0.2,0.3,0.2c0,0,0,0,0,0s0,0,0,0c0.1,0,0.3-0.1,0.3-0.2
			C141.3,90.7,141.1,90.6,141,90.6z"/>
		<path opacity="0.1" d="M158.9,103.1c-0.8,0-1.5,0.4-1.5,0.9c0,0.1,0,0.1,0,0.2c0.1-0.4,0.7-0.8,1.5-0.8s1.3,0.3,1.5,0.8
			c0-0.1,0-0.1,0-0.2C160.4,103.6,159.7,103.1,158.9,103.1z"/>
		<path opacity="0.1" d="M156.1,95.2c-0.1,0-0.3,0.1-0.3,0.2c0,0.1,0.1,0.2,0.3,0.2c0,0,0,0,0,0s0,0,0,0c0.1,0,0.3-0.1,0.3-0.2
			C156.3,95.2,156.2,95.2,156.1,95.2z"/>
		<path opacity="0.1" d="M160,97.7c-0.7,0-1.3,0.4-1.3,0.8c0,0.1,0,0.1,0.1,0.2c0.1-0.4,0.6-0.6,1.2-0.6c0.6,0,1.1,0.3,1.2,0.6
			c0-0.1,0.1-0.1,0.1-0.2C161.2,98,160.7,97.7,160,97.7z"/>
		<path opacity="0.1" d="M153.2,82c-0.7,0-1.3,0.4-1.3,0.8c0,0.1,0,0.1,0.1,0.2c0.1-0.4,0.6-0.6,1.2-0.6s1.1,0.3,1.2,0.6
			c0-0.1,0.1-0.1,0.1-0.2C154.5,82.4,153.9,82,153.2,82z"/>
		<ellipse opacity="0.1" cx="154.8" cy="103.4" rx="0.2" ry="0.1"/>
		<path opacity="0.1" d="M153.2,75.4c-0.7,0-1.3,0.4-1.3,0.8c0,0.1,0,0.1,0.1,0.2c0.1-0.4,0.6-0.6,1.2-0.6s1.1,0.3,1.2,0.6
			c0-0.1,0.1-0.1,0.1-0.2C154.5,75.7,153.9,75.4,153.2,75.4z"/>
		<path opacity="0.1" d="M153.2,88.7c-0.4,0-0.8,0.2-0.8,0.5c0,0.1,0,0.1,0.1,0.2c0.1-0.2,0.4-0.3,0.7-0.3s0.6,0.1,0.7,0.3
			c0-0.1,0.1-0.1,0.1-0.2C154,88.9,153.7,88.7,153.2,88.7z"/>
		<path opacity="0.1" d="M111.7,108.1c-0.8,0-1.5,0.4-1.5,0.9c0,0.1,0,0.1,0,0.2c0.1-0.4,0.7-0.8,1.5-0.8c0.7,0,1.3,0.3,1.5,0.8
			c0-0.1,0-0.1,0-0.2C113.2,108.5,112.5,108.1,111.7,108.1z"/>
		<path opacity="0.1" d="M115.9,92.7c-0.2,0-0.4,0.1-0.4,0.3c0,0.1,0,0.1,0.1,0.2c0.1-0.1,0.2-0.1,0.3-0.1s0.2,0,0.3,0.1
			c0.1,0,0.1-0.1,0.1-0.2C116.3,92.8,116.1,92.7,115.9,92.7z"/>
		<path opacity="0.1" d="M122.2,109.5c-1.5,0-2.8,0.8-2.8,1.7c0,0.1,0,0.1,0,0.2c0.1-0.9,1.3-1.6,2.7-1.6s2.6,0.7,2.7,1.6
			c0-0.1,0-0.1,0-0.2C125,110.3,123.8,109.5,122.2,109.5z"/>
		<path opacity="0.1" d="M140.2,110.5c-0.4,0-0.8,0.2-0.8,0.5c0,0.1,0,0.1,0.1,0.2c0.1-0.2,0.4-0.3,0.7-0.3s0.6,0.1,0.7,0.3
			c0-0.1,0.1-0.1,0.1-0.2C141,110.7,140.7,110.5,140.2,110.5z"/>
		<path opacity="0.1" d="M106.2,102.6c-0.2,0-0.4,0.1-0.4,0.3c0,0.1,0,0.1,0.1,0.2c0.1-0.1,0.2-0.1,0.3-0.1s0.2,0,0.3,0.1
			c0.1,0,0.1-0.1,0.1-0.2C106.6,102.7,106.4,102.6,106.2,102.6z"/>
		<path opacity="0.1" d="M125.5,95.3c-0.8,0-1.5,0.4-1.5,0.9c0,0.1,0,0.1,0,0.2c0.1-0.4,0.7-0.8,1.5-0.8c0.7,0,1.3,0.3,1.5,0.8
			c0-0.1,0-0.1,0-0.2C127,95.7,126.3,95.3,125.5,95.3z"/>
		<path opacity="0.1" d="M107.6,75.7c-0.6,0-1,0.3-1,0.6c0,0.1,0,0.1,0.1,0.2c0.1-0.3,0.5-0.5,0.9-0.5s0.8,0.2,0.9,0.5
			c0-0.1,0.1-0.1,0.1-0.2C108.6,76,108.2,75.7,107.6,75.7z"/>
		<path opacity="0.1" d="M133.2,91.8c-0.7,0-1.3,0.4-1.3,0.8c0,0.1,0,0.1,0.1,0.2c0.1-0.4,0.6-0.6,1.2-0.6s1.1,0.3,1.2,0.6
			c0-0.1,0.1-0.1,0.1-0.2C134.5,92.2,133.9,91.8,133.2,91.8z"/>
		<path opacity="0.1" d="M139.2,103.4c-0.8,0-1.5,0.4-1.5,0.9c0,0.1,0,0.1,0,0.2c0.1-0.4,0.7-0.8,1.5-0.8s1.3,0.3,1.5,0.8
			c0-0.1,0-0.1,0-0.2C140.7,103.8,140.1,103.4,139.2,103.4z"/>
		<ellipse opacity="0.1" cx="138.2" cy="96.4" rx="0.3" ry="0.2"/>
		<path opacity="0.1" d="M132.2,108.1c-0.8,0-1.5,0.4-1.5,0.9c0,0.1,0,0.1,0,0.2c0.1-0.4,0.7-0.8,1.5-0.8c0.7,0,1.3,0.3,1.5,0.8
			c0-0.1,0-0.1,0-0.2C133.7,108.5,133.1,108.1,132.2,108.1z"/>
		<path opacity="0.1" d="M133.2,98.5c-0.4,0-0.8,0.2-0.8,0.5c0,0.1,0,0.1,0.1,0.2c0.1-0.2,0.4-0.3,0.7-0.3c0.3,0,0.6,0.1,0.7,0.3
			c0-0.1,0.1-0.1,0.1-0.2C134,98.7,133.6,98.5,133.2,98.5z"/>
		<path opacity="0.1" d="M126,69c-0.6,0-1,0.3-1,0.6c0,0.1,0,0.1,0.1,0.2c0.1-0.3,0.5-0.5,0.9-0.5c0.5,0,0.8,0.2,0.9,0.5
			c0-0.1,0.1-0.1,0.1-0.2C127,69.3,126.5,69,126,69z"/>
	</g>
	<polygon opacity="0.4" points="91,98 154.2,66.4 128,50 64,82 	"/>
	<polygon fill="#825012" points="128,32 64,64 64,80 92,94 156,62 156,46 	"/>
	<path opacity="0.1" d="M99.1,106.7c0.7,0.3,1.2,0.1,1.2-0.6s-0.5-1.5-1.2-1.8s-1.2-0.1-1.2,0.6S98.4,106.4,99.1,106.7z M67.6,94.2
		c0.7,0.3,1.2,0.1,1.2-0.6c0-0.7-0.5-1.5-1.2-1.8c-0.7-0.3-1.2-0.1-1.2,0.6S66.9,93.9,67.6,94.2z M92.6,117.7
		c-0.7-0.3-1.2-0.1-1.2,0.6s0.5,1.5,1.2,1.8c0.7,0.3,1.2,0.1,1.2-0.6C93.8,118.8,93.3,118,92.6,117.7z M92.2,105.1
		c0.7,0.3,1.2,0.1,1.2-0.6s-0.5-1.5-1.2-1.8s-1.2-0.1-1.2,0.6S91.5,104.7,92.2,105.1z M99.2,140.3c-0.7-0.3-1.2-0.1-1.2,0.6
		s0.5,1.5,1.2,1.8s1.2,0.1,1.2-0.6S99.9,140.6,99.2,140.3z M104.1,143.8c-0.2-0.1-0.3,0-0.3,0.1s0.1,0.4,0.3,0.4
		c0.2,0.1,0.3,0,0.3-0.1S104.3,143.9,104.1,143.8z M113.4,122.2c-0.2-0.1-0.3,0-0.3,0.1c0,0.2,0.1,0.4,0.3,0.4
		c0.2,0.1,0.3,0,0.3-0.1C113.7,122.5,113.5,122.3,113.4,122.2z M96,132c-0.6-0.3-1-0.1-1,0.5c0,0.6,0.5,1.2,1,1.5
		c0.6,0.3,1,0.1,1-0.5C97,132.9,96.6,132.2,96,132z M96.3,119.6c-0.6-0.3-1-0.1-1,0.5s0.5,1.2,1,1.5c0.6,0.3,1,0.1,1-0.5
		S96.9,119.8,96.3,119.6z M65.5,102.1c-0.6-0.3-1-0.1-1,0.5c0,0.6,0.5,1.2,1,1.5s1,0.1,1-0.5S66.1,102.4,65.5,102.1z M87.3,120.5
		c-0.6-0.3-1-0.1-1,0.5c0,0.6,0.5,1.2,1,1.5c0.6,0.3,1,0.1,1-0.5C88.3,121.5,87.9,120.8,87.3,120.5z M69.6,109.9
		c-0.1-0.1-0.2,0-0.2,0.1c0,0.1,0.1,0.2,0.2,0.3c0.1,0.1,0.2,0,0.2-0.1C69.8,110,69.7,109.9,69.6,109.9z M75.9,109.3
		c-0.7-0.3-1.2-0.1-1.2,0.6s0.5,1.5,1.2,1.8s1.2,0.1,1.2-0.6S76.6,109.7,75.9,109.3z M69.2,98.3C68,97.6,67,98.1,67,99.4
		s1,2.7,2.2,3.4c1.2,0.6,2.2,0.1,2.2-1.1C71.5,100.4,70.5,98.9,69.2,98.3z M84.7,96.5c-0.6-0.3-1-0.1-1,0.5c0,0.6,0.5,1.2,1,1.5
		c0.6,0.3,1,0.1,1-0.5C85.7,97.4,85.3,96.7,84.7,96.5z M81.8,106.2c-0.3-0.2-0.6,0-0.6,0.3c0,0.3,0.3,0.7,0.6,0.9
		c0.3,0.2,0.6,0,0.6-0.3C82.4,106.8,82.1,106.4,81.8,106.2z M74,105.5c-0.1-0.1-0.2,0-0.2,0.1c0,0.1,0.1,0.2,0.2,0.3s0.2,0,0.2-0.1
		C74.2,105.7,74.1,105.6,74,105.5z M81.8,97.6c-0.6-0.3-1-0.1-1,0.5c0,0.6,0.5,1.2,1,1.5c0.6,0.3,1,0.1,1-0.5
		C82.8,98.6,82.4,97.9,81.8,97.6z M95.3,107.6c0-0.4-0.4-1-0.8-1.2c-0.4-0.2-0.8,0-0.8,0.4s0.4,1,0.8,1.2
		C94.9,108.2,95.3,108,95.3,107.6z M104.1,127c0.3,0.2,0.6,0,0.6-0.3c0-0.3-0.3-0.7-0.6-0.9c-0.3-0.2-0.6,0-0.6,0.3
		S103.7,126.8,104.1,127z M116.7,128.1c-0.6-0.3-1-0.1-1,0.5c0,0.6,0.5,1.2,1,1.5c0.6,0.3,1,0.1,1-0.5
		C117.7,129.1,117.2,128.4,116.7,128.1z M113.2,113.4c-0.7-0.3-1.2-0.1-1.2,0.6s0.5,1.5,1.2,1.8s1.2,0.1,1.2-0.6
		S113.9,113.7,113.2,113.4z M111.6,131.3c0-0.7-0.5-1.5-1.2-1.8c-0.7-0.3-1.2-0.1-1.2,0.6s0.5,1.5,1.2,1.8
		C111,132.2,111.6,131.9,111.6,131.3z M105.5,108.3c-0.4-0.2-0.8,0-0.8,0.4s0.4,1,0.8,1.2c0.4,0.2,0.8,0,0.8-0.4
		S105.9,108.5,105.5,108.3z M111.9,137.6c-0.4-0.2-0.8,0-0.8,0.4s0.4,1,0.8,1.2c0.4,0.2,0.8,0,0.8-0.4S112.4,137.9,111.9,137.6z
		 M107.5,116.6c-0.7-0.3-1.2-0.1-1.2,0.6c0,0.7,0.5,1.5,1.2,1.8c0.7,0.3,1.2,0.1,1.2-0.6S108.2,116.9,107.5,116.6z M104.7,139
		c-0.3-0.2-0.6,0-0.6,0.3c0,0.3,0.3,0.7,0.6,0.9c0.3,0.2,0.6,0,0.6-0.3C105.3,139.6,105,139.2,104.7,139z M120,120.8
		c-1.2-0.6-2.2-0.1-2.2,1.1c0,1.2,1,2.7,2.2,3.4c1.2,0.6,2.2,0.1,2.2-1.1C122.2,122.9,121.2,121.4,120,120.8z M102.9,147.9
		c-0.1-0.1-0.2,0-0.2,0.1c0,0.1,0.1,0.2,0.2,0.3c0.1,0.1,0.2,0,0.2-0.1C103.1,148.1,103,148,102.9,147.9z"/>
	<g>
		<path opacity="0.1" d="M92.2,105.1c0.2,0.1,0.3,0.1,0.5,0.1c-0.7-0.3-1.2-1.1-1.2-1.8c0-0.5,0.3-0.8,0.8-0.7c0,0,0,0,0,0
			c-0.7-0.3-1.2-0.1-1.2,0.6S91.5,104.7,92.2,105.1z"/>
		<path opacity="0.1" d="M75.2,110.1c0-0.5,0.3-0.8,0.8-0.7c0,0,0,0,0,0c-0.7-0.3-1.2-0.1-1.2,0.6s0.5,1.5,1.2,1.8
			c0.2,0.1,0.3,0.1,0.5,0.1C75.7,111.6,75.2,110.8,75.2,110.1z"/>
		<path opacity="0.1" d="M74,105.5c-0.1-0.1-0.2,0-0.2,0.1c0,0.1,0.1,0.2,0.2,0.3s0.2,0,0.2-0.1C74.2,105.7,74.1,105.6,74,105.5z"/>
		<path opacity="0.1" d="M81.7,106.7c0-0.2,0.1-0.3,0.3-0.4c-0.1,0-0.1-0.1-0.2-0.1c-0.3-0.2-0.6,0-0.6,0.3c0,0.3,0.3,0.7,0.6,0.9
			c0.1,0.1,0.2,0.1,0.3,0.1C81.9,107.3,81.7,106.9,81.7,106.7z"/>
		<path opacity="0.1" d="M86.8,121.2c0-0.4,0.2-0.6,0.6-0.6c0,0,0,0-0.1-0.1c-0.6-0.3-1-0.1-1,0.5c0,0.6,0.5,1.2,1,1.5
			c0.2,0.1,0.3,0.1,0.4,0.1C87.2,122.4,86.8,121.7,86.8,121.2z"/>
		<path opacity="0.1" d="M69.6,109.9c-0.1-0.1-0.2,0-0.2,0.1c0,0.1,0.1,0.2,0.2,0.3c0.1,0.1,0.2,0,0.2-0.1
			C69.8,110,69.7,109.9,69.6,109.9z"/>
		<path opacity="0.1" d="M84.2,97.1c0-0.4,0.2-0.6,0.6-0.6c0,0,0,0-0.1-0.1c-0.6-0.3-1-0.1-1,0.5c0,0.6,0.5,1.2,1,1.5
			c0.2,0.1,0.3,0.1,0.4,0.1C84.6,98.3,84.2,97.7,84.2,97.1z"/>
		<path opacity="0.1" d="M65,102.8c0-0.4,0.2-0.6,0.6-0.6c0,0,0,0-0.1-0.1c-0.6-0.3-1-0.1-1,0.5c0,0.6,0.5,1.2,1,1.5
			c0.2,0.1,0.3,0.1,0.4,0.1C65.4,104,65,103.3,65,102.8z"/>
		<path opacity="0.1" d="M69.7,102.9c-1.2-0.6-2.2-2.1-2.2-3.4c0-1,0.7-1.5,1.6-1.3c-1.2-0.5-2.1,0-2.1,1.2c0,1.2,1,2.7,2.2,3.4
			c0.2,0.1,0.4,0.2,0.6,0.2C69.8,102.9,69.8,102.9,69.7,102.9z"/>
		<path opacity="0.1" d="M104.1,127c0.1,0.1,0.2,0.1,0.3,0.1c-0.3-0.2-0.4-0.5-0.4-0.8c0-0.2,0.1-0.3,0.3-0.4
			c-0.1,0-0.1-0.1-0.2-0.1c-0.3-0.2-0.6,0-0.6,0.3S103.7,126.8,104.1,127z"/>
		<path opacity="0.1" d="M113.2,115.8c0.2,0.1,0.3,0.1,0.5,0.1c-0.7-0.3-1.2-1.1-1.2-1.8c0-0.5,0.3-0.8,0.8-0.7c0,0,0,0,0,0
			c-0.7-0.3-1.2-0.1-1.2,0.6S112.5,115.5,113.2,115.8z"/>
		<path opacity="0.1" d="M104.5,139.5c0-0.2,0.1-0.3,0.3-0.4c-0.1,0-0.1-0.1-0.2-0.1c-0.3-0.2-0.6,0-0.6,0.3c0,0.3,0.3,0.7,0.6,0.9
			c0.1,0.1,0.2,0.1,0.3,0.1C104.7,140.1,104.5,139.7,104.5,139.5z"/>
		<path opacity="0.1" d="M95.3,120.1c0,0.6,0.5,1.2,1,1.5c0.2,0.1,0.3,0.1,0.4,0.1c-0.5-0.3-0.9-0.9-0.9-1.5c0-0.4,0.2-0.6,0.6-0.6
			c0,0,0,0-0.1-0.1C95.8,119.3,95.3,119.5,95.3,120.1z"/>
		<path opacity="0.1" d="M67.6,94.2c0.2,0.1,0.3,0.1,0.5,0.1c-0.7-0.3-1.2-1.1-1.2-1.8c0-0.5,0.3-0.8,0.8-0.7c0,0,0,0,0,0
			c-0.7-0.3-1.2-0.1-1.2,0.6S66.9,93.9,67.6,94.2z"/>
		<path opacity="0.1" d="M81.8,99.7c0.2,0.1,0.3,0.1,0.4,0.1c-0.5-0.3-0.9-0.9-0.9-1.5c0-0.4,0.2-0.6,0.6-0.6c0,0,0,0-0.1-0.1
			c-0.6-0.3-1-0.1-1,0.5C80.8,98.7,81.2,99.4,81.8,99.7z"/>
		<path opacity="0.1" d="M109.6,130.2c0-0.5,0.3-0.8,0.8-0.7c0,0,0,0,0,0c-0.7-0.3-1.2-0.1-1.2,0.6s0.5,1.5,1.2,1.8
			c0.2,0.1,0.3,0.1,0.5,0.1C110.2,131.7,109.6,130.9,109.6,130.2z"/>
		<path opacity="0.1" d="M106.8,117.4c0-0.5,0.3-0.8,0.8-0.7c0,0,0,0,0,0c-0.7-0.3-1.2-0.1-1.2,0.6c0,0.7,0.5,1.5,1.2,1.8
			c0.2,0.1,0.3,0.1,0.5,0.1C107.3,118.8,106.8,118,106.8,117.4z"/>
		<path opacity="0.1" d="M111.6,138.2c0-0.3,0.2-0.5,0.4-0.5c0,0-0.1-0.1-0.1-0.1c-0.4-0.2-0.8,0-0.8,0.4s0.4,1,0.8,1.2
			c0.1,0.1,0.3,0.1,0.4,0.1C111.9,139.1,111.6,138.6,111.6,138.2z"/>
		<path opacity="0.1" d="M116.2,128.8c0-0.4,0.2-0.6,0.6-0.6c0,0,0,0-0.1-0.1c-0.6-0.3-1-0.1-1,0.5c0,0.6,0.5,1.2,1,1.5
			c0.2,0.1,0.3,0.1,0.4,0.1C116.6,129.9,116.2,129.3,116.2,128.8z"/>
		<path opacity="0.1" d="M113.6,122.5C113.6,122.5,113.6,122.5,113.6,122.5c0-0.2-0.1-0.3-0.2-0.3c-0.2-0.1-0.3,0-0.3,0.1
			c0,0.2,0.1,0.4,0.3,0.4c0.1,0.1,0.2,0,0.3-0.1C113.6,122.7,113.6,122.6,113.6,122.5z"/>
		<path opacity="0.1" d="M120.5,125.4c-1.2-0.6-2.2-2.1-2.2-3.4c0-1,0.7-1.5,1.6-1.3c-1.2-0.5-2.1,0-2.1,1.2c0,1.2,1,2.7,2.2,3.4
			c0.2,0.1,0.4,0.2,0.6,0.2C120.6,125.4,120.5,125.4,120.5,125.4z"/>
		<path opacity="0.1" d="M105.2,108.8c0-0.3,0.2-0.5,0.4-0.5c0,0-0.1-0.1-0.1-0.1c-0.4-0.2-0.8,0-0.8,0.4s0.4,1,0.8,1.2
			c0.1,0.1,0.3,0.1,0.4,0.1C105.5,109.7,105.2,109.3,105.2,108.8z"/>
		<path opacity="0.1" d="M98.5,141.1c0-0.5,0.3-0.8,0.8-0.7c0,0,0,0,0,0c-0.7-0.3-1.2-0.1-1.2,0.6s0.5,1.5,1.2,1.8
			c0.2,0.1,0.3,0.1,0.5,0.1C99,142.5,98.5,141.7,98.5,141.1z"/>
		<path opacity="0.1" d="M95.5,132.6c0-0.4,0.2-0.6,0.6-0.6c0,0,0,0-0.1-0.1c-0.6-0.3-1-0.1-1,0.5c0,0.6,0.5,1.2,1,1.5
			c0.2,0.1,0.3,0.1,0.4,0.1C95.9,133.8,95.5,133.2,95.5,132.6z"/>
		<path opacity="0.1" d="M94.2,106.9c0-0.3,0.2-0.5,0.4-0.5c0,0-0.1-0.1-0.1-0.1c-0.4-0.2-0.8,0-0.8,0.4s0.4,1,0.8,1.2
			c0.1,0.1,0.3,0.1,0.4,0.1C94.5,107.8,94.2,107.3,94.2,106.9z"/>
		<path opacity="0.1" d="M99.1,106.7c0.2,0.1,0.3,0.1,0.5,0.1c-0.7-0.3-1.2-1.1-1.2-1.8c0-0.5,0.3-0.8,0.8-0.7c0,0,0,0,0,0
			c-0.7-0.3-1.2-0.1-1.2,0.6S98.4,106.4,99.1,106.7z"/>
		<path opacity="0.1" d="M91.9,118.5c0-0.5,0.3-0.8,0.8-0.7c0,0,0,0,0,0c-0.7-0.3-1.2-0.1-1.2,0.6s0.5,1.5,1.2,1.8
			c0.2,0.1,0.3,0.1,0.5,0.1C92.4,119.9,91.9,119.1,91.9,118.5z"/>
		<path opacity="0.1" d="M102.9,147.9c-0.1-0.1-0.2,0-0.2,0.1c0,0.1,0.1,0.2,0.2,0.3c0.1,0.1,0.2,0,0.2-0.1
			C103.1,148.1,103,148,102.9,147.9z"/>
		<path opacity="0.1" d="M104.3,144.1C104.3,144.1,104.3,144.1,104.3,144.1c0-0.2-0.1-0.3-0.2-0.3c-0.2-0.1-0.3,0-0.3,0.1
			s0.1,0.4,0.3,0.4c0.1,0.1,0.2,0,0.3-0.1C104.4,144.2,104.3,144.1,104.3,144.1z"/>
	</g>
	<g opacity="0.3">
		<polygon fill="#D8D8D8" points="109,69.5 108,70 108,86 109,85.5 		"/>
		<polygon fill="#D8D8D8" points="112,68 111,68.5 111,84.5 112,84 		"/>
		<polygon fill="#D8D8D8" points="118,65 117,65.5 117,81.5 118,81 		"/>
		<polygon fill="#D8D8D8" points="115,66.5 114,67 114,83 115,82.5 		"/>
		<polygon fill="#D8D8D8" points="106,71 105,71.5 105,87.5 106,87 		"/>
		<polygon fill="#D8D8D8" points="103,72.5 102,73 102,89 103,88.5 		"/>
		<polygon fill="#D8D8D8" points="97,75.5 96,76 96,92 97,91.5 		"/>
		<polygon fill="#D8D8D8" points="154,47 153,47.5 153,63.5 154,63 		"/>
		<polygon fill="#D8D8D8" points="93,93.5 94,93 94,77 93,77.5 		"/>
		<polygon fill="#D8D8D8" points="100,74 99,74.5 99,90.5 100,90 		"/>
		<polygon fill="#D8D8D8" points="121,63.5 120,64 120,80 121,79.5 		"/>
		<polygon fill="#D8D8D8" points="145,51.5 144,52 144,68 145,67.5 		"/>
		<polygon fill="#D8D8D8" points="139,54.5 138,55 138,71 139,70.5 		"/>
		<polygon fill="#D8D8D8" points="142,53 141,53.5 141,69.5 142,69 		"/>
		<polygon fill="#D8D8D8" points="148,50 147,50.5 147,66.5 148,66 		"/>
		<polygon fill="#D8D8D8" points="151,48.5 150,49 150,65 151,64.5 		"/>
		<polygon fill="#D8D8D8" points="130,59 129,59.5 129,75.5 130,75 		"/>
		<polygon fill="#D8D8D8" points="124,62 123,62.5 123,78.5 124,78 		"/>
		<polygon fill="#D8D8D8" points="136,56 135,56.5 135,72.5 136,72 		"/>
		<polygon fill="#D8D8D8" points="127,60.5 126,61 126,77 127,76.5 		"/>
		<polygon fill="#D8D8D8" points="133,57.5 132,58 132,74 133,73.5 		"/>
	</g>
	<g opacity="0.3">
		<polygon fill="#D8D8D8" points="6,35 5,34.5 5,106.5 6,107 		"/>
		<polygon fill="#D8D8D8" points="90,77 89,76.5 89,92.5 90,93 		"/>
		<polygon fill="#D8D8D8" points="18,41 17,40.5 17,112.5 18,113 		"/>
		<polygon fill="#D8D8D8" points="15,39.5 14,39 14,111 15,111.5 		"/>
		<polygon fill="#D8D8D8" points="9,36.5 8,36 8,108 9,108.5 		"/>
		<polygon fill="#D8D8D8" points="87,75.5 86,75 86,91 87,91.5 		"/>
		<polygon fill="#D8D8D8" points="12,38 11,37.5 11,109.5 12,110 		"/>
		<polygon fill="#D8D8D8" points="2,105 3,105.5 3,33.5 2,33 		"/>
		<polygon fill="#D8D8D8" points="65,80.5 66,81 66,65 65,64.5 		"/>
		<polygon fill="#D8D8D8" points="69,66.5 68,66 68,82 69,82.5 		"/>
		<polygon fill="#D8D8D8" points="72,68 71,67.5 71,83.5 72,84 		"/>
		<polygon fill="#D8D8D8" points="75,69.5 74,69 74,85 75,85.5 		"/>
		<polygon fill="#D8D8D8" points="84,74 83,73.5 83,89.5 84,90 		"/>
		<polygon fill="#D8D8D8" points="81,72.5 80,72 80,88 81,88.5 		"/>
		<polygon fill="#D8D8D8" points="78,71 77,70.5 77,86.5 78,87 		"/>
		<polygon fill="#D8D8D8" points="57,60.5 56,60 56,132 57,132.5 		"/>
		<polygon fill="#D8D8D8" points="42,53 41,52.5 41,124.5 42,125 		"/>
		<polygon fill="#D8D8D8" points="48,56 47,55.5 47,127.5 48,128 		"/>
		<polygon fill="#D8D8D8" points="21,42.5 20,42 20,114 21,114.5 		"/>
		<polygon fill="#D8D8D8" points="51,57.5 50,57 50,129 51,129.5 		"/>
		<polygon fill="#D8D8D8" points="63,63.5 62,63 62,135 63,135.5 		"/>
		<polygon fill="#D8D8D8" points="54,59 53,58.5 53,130.5 54,131 		"/>
		<polygon fill="#D8D8D8" points="60,62 59,61.5 59,133.5 60,134 		"/>
		<polygon fill="#D8D8D8" points="45,54.5 44,54 44,126 45,126.5 		"/>
		<polygon fill="#D8D8D8" points="39,51.5 38,51 38,123 39,123.5 		"/>
		<polygon fill="#D8D8D8" points="30,47 29,46.5 29,118.5 30,119 		"/>
		<polygon fill="#D8D8D8" points="24,44 23,43.5 23,115.5 24,116 		"/>
		<polygon fill="#D8D8D8" points="27,45.5 26,45 26,117 27,117.5 		"/>
		<polygon fill="#D8D8D8" points="33,48.5 32,48 32,120 33,120.5 		"/>
		<polygon fill="#D8D8D8" points="36,50 35,49.5 35,121.5 36,122 		"/>
	</g>
	<polygon opacity="0.29" points="156,46 156,62 92,94 92,78 	"/>
	<polygon opacity="0.11" points="64,64 0,32 0,104 64,136 64,80 92,94 92,78 	"/>
	<g>
		<polygon fill="#3399CC" points="186.6,116.6 173.1,79.4 168.5,101.7 		"/>
		<polygon opacity="0.15" points="186.6,116.6 170.7,91.8 168.8,101.7 		"/>
		<path fill="#FFFFFF" d="M173.3,81.6l12.1,33.3l-16.2-13.3L173.3,81.6 M173,78l-5,24l19.5,16L173,78L173,78z"/>
	</g>
	<g>
		<polygon fill="#3399CC" points="105.4,155 150.6,155 128,123 		"/>
		<polygon opacity="0.15" points="150.6,155 128,123 125.6,126.6 		"/>
		<path fill="#FFFFFF" d="M128,123.7l22.1,31.3h-44.1L128,123.7 M128,122l-24,34h48L128,122L128,122z"/>
	</g>
	<g opacity="0.15">
		<polygon points="128,123.7 127.3,124.7 148.1,154.3 106.4,154.3 105.9,155 150.1,155 		"/>
	</g>
	<path fill="#FFFFFF" d="M138.1,140L128,154.3L117.9,140H138.1 M140,139h-24l12,17L140,139L140,139z"/>
	<polygon opacity="0.11" points="128,122 64,82 64,108 84,118 104,156 	"/>
	<polygon opacity="0.29" points="128,122 145.6,147 152,156 174,145 187.5,118 168,102 	"/>
	<path fill="#FFFFFF" d="M172.4,91.7l6.2,6.4l-2,7.9L172.4,91.7 M170.8,89l5.9,19.9l2.8-11L170.8,89L170.8,89z"/>
	<polygon opacity="0.2" fill="#FFFFFF" points="150,155 134,146 128.3,139.3 119.1,136.1 133,149 	"/>
	<polygon opacity="0.15" points="113,146 110,150 138,155 	"/>
	<g opacity="0.25">
		<polygon points="187.5,118 173,78 168,102 		"/>
	</g>
	<g opacity="0.25">
		<polygon points="104,156 152,156 128,122 		"/>
	</g>
</g>
</svg>
