<?xml version="1.0" encoding="utf-8"?>
<!-- Generator: Adobe Illustrator 18.1.0, SVG Export Plug-In . SVG Version: 6.00 Build 0)  -->
<svg version="1.1" id="Layer_1" xmlns="http://www.w3.org/2000/svg" xmlns:xlink="http://www.w3.org/1999/xlink" x="0px" y="0px"
	 viewBox="0 0 224 208" enable-background="new 0 0 224 208" xml:space="preserve">
<polygon fill="#999999" points="7.7,152 9.7,164 28,167 35,182 60,175 62,182 79,182 88,200 103,202 130,186 139,190 172,190 
	192,179 213,171 217,167 207,146 199,138 194,109 183,106 159,53 145,47 133,25 113,5 97.8,20.3 88,36 79,42 71,63 50,83 45,104 
	24,132 "/>
<polygon opacity="0.8" fill="#FFFFFF" points="79,42 105,48 113,56 132,47 130,63 159,53 145,47 133,25 113,5 97.8,20.3 88,36 "/>
<polygon opacity="0.25" points="139,190 130,186 134.4,147 130.4,126 137,97 133,128.4 139,152 "/>
<polygon opacity="0.15" fill="#FFFFFF" points="183,106 194,109 171,122 "/>
<polygon opacity="0.15" points="88,200 79,182 100.5,152.3 95,126 120,111.2 100,131 102.5,161.5 "/>
<polygon opacity="0.25" points="172,190 167,159 171,135 160,159 157,190 "/>
<polygon opacity="0.25" points="103,202 130,186 116,158 125,112 119,72 123,113 109,148 108,176 "/>
<polygon opacity="0.15" points="171,122 183,106 171.2,103.2 158.3,96 151.8,72.5 155,101 "/>
<polygon opacity="0.15" fill="#FFFFFF" points="160,159 156,144 146,145 171,135 "/>
<polygon opacity="0.25" points="146,145 156,144 152,159 153,173 149,158 149,149 "/>
<polygon opacity="0.15" fill="#FFFFFF" points="79,42 88,36 105,48 "/>
<polygon opacity="0.25" points="60,175 62,182 75,168 71,148 72,118 66,147 65,165 "/>
<polygon opacity="0.15" fill="#FFFFFF" points="145,47 159,53 130,63 "/>
<polygon opacity="0.15" points="145,47 127.5,38.3 124.8,25.5 123,45 132,47 130,63 "/>
<polygon opacity="0.25" points="28,167 35,182 41,145 53,115 50,83 49,114 35,143 35,160 "/>
<polygon opacity="0.15" fill="#FFFFFF" points="50,83 89,82 67,76 71,63 "/>
<polygon opacity="0.15" fill="#FFFFFF" points="120,111 95,126 84,111 95,115 "/>
<polygon opacity="0.15" points="84,111 95,115 97,80 113,56 94,74 93,97 "/>
<polygon opacity="0.15" fill="#FFFFFF" points="24,132 35,142 25,142 "/>
<polygon opacity="0.15" points="25,142 9.7,164 7.7,152 24,132 "/>
<polygon opacity="0.15" fill="#FFFFFF" points="194,156 207,146 199,138 193,151 177,156 "/>
<polygon opacity="0.25" points="213,171 217,167 207,146 194,156 "/>
<polygon opacity="0.15" points="192,179 172,190 180.9,169.9 177,156 "/>
<polygon opacity="0.15" points="193,151 189.3,118.3 194,109 171,122 185.5,129.5 "/>
<polygon opacity="0.15" fill="#FFFFFF" points="155,101 137,97 154.3,94.3 "/>
<polygon opacity="0.15" points="171,122 155,101 154.3,94.3 "/>
<polygon opacity="0.15" points="71,63 67,76 89,82 75.3,61 79,42 "/>
<polygon opacity="0.1" points="88,36 105,48 104.5,30.8 112.5,7 98,33.8 "/>
<polygon opacity="0.6" fill="#FFFFFF" points="113,5 97.8,20.3 98,33.8 104.5,30.8 117.3,36.7 133,25 "/>
<polygon opacity="0.6" fill="#FFFFFF" points="113,5 97.8,20.3 108.9,17.9 111.3,29 115.3,22.5 124.8,25.5 133,25 "/>
<polygon opacity="0.1" points="24,132 7.7,152 9.7,164 28,167 35,182 60,175 62,182 79,182 88,200 103,202 130,186 139,190 172,190 
	192,179 213,171 217,167 207,146 199,138 194,109 183,106 172.2,82.1 151.8,72.5 154.3,94.3 137,97 119,72 97,80 93,97 87.3,81.7 
	50,83 45,104 "/>
<polygon opacity="0.1" points="7.7,152 9.7,164 28,167 35,182 60,175 62,182 79,182 88,200 103,202 130,186 139,190 172,190 
	192,179 213,171 217,167 207,146 199,138 194,109 171,122 133,128.4 130.4,126 125,112 123,113 120,111 95,126 71,148 66,147 
	53,115 49,114 45,104 24,132 "/>
<polygon opacity="0.1" points="9.7,164 28,167 35,182 60,175 62,182 79,182 88,200 103,202 130,186 139,190 172,190 192,179 
	213,171 217,167 207,146 194,156 177,156 167,159 160,159 156,144 146,145 139,152 134.4,147 116,158 108,176 102.5,161.5 
	100.5,152.3 75,168 65,165 41,145 35,142 25,142 24,132 7.7,152 "/>
<polygon opacity="0.1" points="113,56 123,45 120.5,34.3 117,30.9 115.3,22.5 113.8,32.8 117.3,36.7 "/>
</svg>
