<?xml version="1.0" encoding="utf-8"?>
<!-- Generator: Adobe Illustrator 18.1.0, SVG Export Plug-In . SVG Version: 6.00 Build 0)  -->
<svg version="1.1" id="Layer_1" xmlns="http://www.w3.org/2000/svg" xmlns:xlink="http://www.w3.org/1999/xlink" x="0px" y="0px"
	 viewBox="0 0 160 320" enable-background="new 0 0 160 320" xml:space="preserve">
<g>
	<path fill="#762C07" d="M101.2,67.5c-0.6,1.9-0.5,9.7-1.2,14c-0.8,5.2-7.1,24,2.1,18.1s7-33.5,3.1-33.7
		C102.2,65.6,101.8,65.6,101.2,67.5z"/>
	<path opacity="0.2" d="M92.3,238.8c-11.8,7.6-12.4,14.4,0,21c13.5,7.2,22.4,3.3,32.9-2.7c10.5-6,11.8-13.4-3.6-19.6
		C109,232.6,101.1,233.1,92.3,238.8z"/>
	<path fill="#FBD7C7" d="M96.3,114.8c0,0-3.2,10.8-5.9,19.1s-4.4,13.8-5.3,15.9c-0.9,2.1-1.3,5.7-0.8,7.3s2.3,5,3,5.7
		c1.7,1.6,4.4,1.2,4.8,0.8c0.4-0.5,0.4-2.2-0.3-2.9c-0.7-0.7-2.6-3-1.4-6s1-4.2,1-6c0-1.5-0.5-1.7,0.7-4.1s6.9-14.5,7.5-16.2
		C100.1,126.7,96.3,114.8,96.3,114.8z"/>
	<path fill="#FBD7C7" d="M110.2,87.3c0,0-9.1-4-12.3,0.3c-3.1,4.3-1.7,11-1.7,11s-5.4,6.1-5.4,9.4c0,3.3,5.1,6.5,5.1,6.5
		s0.6,15.8-0.3,22.3c-0.9,6.5-3.8,23.3-3.1,33.9c0.7,10.6,1.6,25,1.9,29.2c0.3,4.1,2.2,10,3,14.8c0.9,4.8,4.1,13.2,0.9,19.6
		c-3.2,6.5-6.1,9.3-7.4,10.5s0.2,5.2,3,4.5c2.8-0.7,7.2-7.1,9.9-8.1c2.7-1.1,7.2-4,6-7.7s-1.7-2.2-2-5.3c-0.3-3.1,2.2-16.7,1.3-22.8
		s-3.2-7.8-3.6-8.8c-0.4-1.1,5.7-29.5,5.7-29.5s1.2,27.3,1.1,30.2c-0.1,2.9,2.1,17.7,2.7,24.6s1,18.8-2,22.9c-2.9,4.1-8,10.3-6,11.7
		c2,1.4,8.3,2.7,9.8-0.9c1.5-3.6,5.3-11.1,6.7-13.1c1.4-2,1.9-3.1,1-5c-0.9-1.9-1.5-5-0.5-10.3c1-5.3,4.1-14.7,3.3-19.7
		c-0.8-5-3.2-8.1-2.9-11.7c0.3-3.5,8.1-24.8,6.6-39.7c-1.6-14.8-9-17.5-10.3-23.5c-1.3-6,3-13.9,5.2-18.2c2.2-4.2,5.3-11.6,2.6-14.2
		c-2.7-2.7-5.9-4.4-7.1-6.4s-2.5-8.2-2.5-8.2L110.2,87.3z"/>
	<path fill="#CC291F" d="M92.9,242.9c0,0-4.9,1.7-5.9,3.9c-0.8,1.8-0.5,3.9,1.2,5s5.2,1.3,8.2-0.4c2.9-1.7,6.8-8.4,7.5-8.7
		c0.7-0.3,0.2,3.7,0.2,3.7l2.1,1.1l2.3-0.9c0,0-0.2-4.5,0.7-6c0.9-1.6,2.6-3.9,2-6.9c-0.7-3-2.6-3.3-2.6-3.3s0,3.5-4,7.3
		c-3.8,3.6-5.9,9.6-9.2,9.3C90.8,246.3,92.9,242.9,92.9,242.9z"/>
	<path fill="#CC291F" d="M109.7,249.7c0,0-4.6,3.5-4.9,5.7s-0.2,3.7,2.9,4.7c3.1,1,7.1-0.2,9-1.8c1.8-1.6,4.4-5.8,4.4-5.8l2,1.1
		l2.3-1.1c0,0-0.3-2.7,0.4-5.1s1.4-4.4,1.4-7.4s-2.8-3.3-2.8-3.3s1.7,1.6-0.8,5.1s-4.4,11.3-8.1,11.5
		C108.5,253.8,109.7,249.7,109.7,249.7z"/>
	<path fill="#262626" d="M128.2,143.4c-2.3-3.6-4.4-5.6-5.1-6.4c-4.4-6.7,1.9-20.2,3-22.4c2.2-4.2,5.3-11.6,2.6-14.2
		c-2.7-2.7-5.9-4.4-7.1-6.4c-1.2-2-2.5-8.2-2.5-8.2l-8.9,1.6c0,0-3.6-1.6-7-1.7c-2.2,2.1-4.9,9.8-7.4,12.7c-2.5,2.8-5.4,5.4-5.4,9.6
		c0,3.3,4.3,6.6,4.8,7.5c0.3,0.6,2.4,6,2.3,12.3c0,2.9-6.2,26.5-7.1,30c-1.9,6.8-6.1,18-5.6,19c2.1,4.2,12.6,3.2,17.4,7.6
		s17.8,3.7,24,1.6c6.2-2.1,9.4-5.8,9.2-6.5C130.6,160.7,133.6,151.8,128.2,143.4z"/>
	<path fill="#FBD7C7" d="M105.4,86.5c0,0-8.9,14.8-2.4,16.5c6.3,1.7,16-8.7,16-8.7l-7.8-8.7L105.4,86.5z"/>
	<path fill="#FBD7C7" d="M107.7,87.6c0,0-4.3,0.7-4.9-0.9c-0.7-1.7-4.4-15.5,2.4-24.1c6.8-8.5,20.5-3.1,20.5,6
		c0,8.1-3.2,10.5-4.7,14.5c-0.9,2.5-1.6,5.8-0.1,8.4s2.7,4,2.7,4s-7.6,4.6-13.3,3.2c-5.7-1.4-0.2-4.2-1-6.6
		C108.6,89.9,107.7,87.6,107.7,87.6z"/>
	<path opacity="0.15" d="M90.5,108.7c3.1,5.9,12.5,10.5,26.6,7.4C116.2,118.4,96,123.6,90.5,108.7z"/>
	<path fill="#FBD7C7" d="M118.5,107.4c-1.1-2.9-0.7-10.2,5.3-10.5c6-0.3,6.7,5.7,7.2,13.6s3.5,20.7,3.7,23.3c0.2,2.6-1.5,9.7-5.6,16
		c-4.1,6.3-6.9,11.4-7.1,12.3c-0.2,1-1.4,4.9-3.1,6.1c-0.7,0.5-1.5,1.2-1.9,2.5c-0.4,1.3,0.5,2.4,0.7,2.7c0.3,0.7-0.2,1.5-1.4,2.2
		c-1.3,0.8-3.2-0.5-4.2-1.3c-0.7-0.5-2.5-2.1-2-4.3c0.4-1.6,1.7-6.6,3.7-7.8c2-1.2,3.9-2.7,4.6-4.1c0.7-1.4,2.2-11.9,4.8-17.2
		c1.4-2.9,3.1-4.8,3.1-5.9C126.2,134.1,119.6,110.3,118.5,107.4z"/>
	<path fill="#762C07" d="M101.2,67.5c0,0,3.5-11.5,16.4-9.1c8.1,1.5,10.4,10.5,9.6,16.7c-0.7,6.2-3.3,9.9-2.1,12.9
		c2.3,5.6,1,9.4-1.6,12.7c-4.3,5.5-13.1,8.2-12.1-2.9c0.7-8.6-5.1-12.4-3.1-21.5c1.2-5.7-1.1-8.2-3.6-7.7
		C103.9,66.7,102.9,66,101.2,67.5z"/>
</g>
<g>
	<path opacity="0.2" d="M19.4,262.3c-17.2-9.6-4.2-17,11.8-24.6c17.8-8.5,24.2-10.6,40.5-1.6c13.9,7.6,1.6,14.9-14.6,22.5
		C38.6,267.1,31.5,269.1,19.4,262.3z"/>
	<path fill="#262626" d="M60.1,233.9c3.4,2.5,6.8,4,9.8,5.6c3,1.6,4.5,3.1,4.1,4.5c-0.3,1.5-3,3.2-7.6,3c-4.6-0.2-12-4.4-13.4-4.5
		c-1.4-0.1-1.1,0.8-2.1,0.8s-6.4-1-7-1.7c-0.6-0.7,0.1-5.7,0.1-5.7L60.1,233.9z"/>
	<path opacity="0.5" d="M43.9,241.6c-0.3-0.4-0.3-1.8-0.2-3.1c1.3,1.2,3.5,1.9,5.7,2c2.6,0.1,5.7,0.6,9.3,2.9s16,4.2,14.6-1.4
		c0.6,0.7,0.9,1.4,0.7,2.1c-0.3,1.5-3,3.2-7.6,3s-12-4.4-13.4-4.5c-1.4-0.1-1.1,0.8-2.1,0.8C49.9,243.4,44.5,242.3,43.9,241.6z"/>
	<path fill="#656565" d="M57.9,155.3c0.9,6.6,1.3,29.8,0.4,40.3c-0.8,10.6-0.7,25.9,0.1,31.2c0.6,3.9,2.5,6,2,7.4s-5,4.6-10.2,5.2
		s-7.2-0.2-7.9-2.2c-0.6-2-2.8-23.5-3.5-37c-0.6-12-1.7-45.1-1.7-45.1H57.9z"/>
	<path opacity="0.3" d="M57.9,155.3c0.9,6.6,1.3,29.8,0.4,40.3c-0.8,10.6-0.7,25.9,0.1,31.2c0.6,3.9,2.5,6,2,7.4s-5,4.6-10.2,5.2
		s-7.2-0.2-7.9-2.2c-0.6-2-2.8-23.5-3.5-37c-0.6-12-1.7-45.1-1.7-45.1H57.9z"/>
	<path fill="#262626" d="M29.1,246c0.8,2.3,4.3,8,5,9.4c0.8,1.4,2.3,3.3,1.3,4.7c-1,1.5-5.7,3.3-10.4,1c-4.7-2.2-5.5-7.7-5.5-7.7
		h-0.8c0,0-1-2.3-1-3.9c0-1.6,0.3-2.6,0.3-2.6L29.1,246z"/>
	<path opacity="0.5" d="M19.5,253.4h-0.8c0,0-1-2.3-1-3.9c0-1.6,0.3-2.6,0.3-2.6l0.1,0c0.1,0.2,0.1,0.4,0.1,0.6
		c0.2,1.3,2.5,8.3,3.8,10c3.4,4.4,12.6,5.4,13.5,0.3c0.3,0.8,0.4,1.6-0.1,2.2c-1,1.5-5.7,3.3-10.4,1
		C20.3,258.9,19.5,253.4,19.5,253.4z"/>
	<path fill="#656565" d="M46,156c-0.1,4.3-4.5,9.3-5.8,15.4c-1.3,6.1-5.3,36.3-6.3,45.2c-1.5,12.9-2.8,31.7-3.2,31.9
		c-0.4,0.1-3.7-1.9-6.9-0.2c-3.2,1.7-6.8,1-7.9,0.2c-1-0.8-0.6-9.4-0.2-14.6c0.3-5.1,1.9-43.6,1.8-48.8c-0.1-5.2-1.8-19.3-1.4-22.6
		c0.4-3.4,2.3-7.3,2.3-7.3L46,156z"/>
	<path opacity="0.15" d="M46,156c-0.1,4.3-4.5,9.3-5.8,15.4c-1.3,6.1-5.3,36.3-6.3,45.2c-1.5,12.9-2.8,31.7-3.2,31.9
		c-0.4,0.1-3.7-1.9-6.9-0.2c-3.2,1.7-6.8,1-7.9,0.2c-1-0.8-0.6-9.4-0.2-14.6c0.3-5.1,1.9-43.6,1.8-48.8c-0.1-5.2-1.8-19.3-1.4-22.6
		c0.4-3.4,2.3-7.3,2.3-7.3L46,156z"/>
	<path fill="#656565" d="M56.2,108.8c2.5,4,5.1,10.3,6.6,14.5c1.5,4.2,5.4,11.7,5.7,12.7c0.2,0.9,0.1,4.6-3.4,5.7
		c-3.5,1-5.2,1.8-5.8,0.9c-0.5-0.8-4.2-5-4.2-5L56.2,108.8z"/>
	<path opacity="0.15" d="M56.2,108.8c2.5,4,5.1,10.3,6.6,14.5c1.5,4.2,5.4,11.7,5.7,12.7c0.2,0.9,0.1,4.6-3.4,5.7
		c-3.5,1-5.2,1.8-5.8,0.9c-0.5-0.8-4.2-5-4.2-5L56.2,108.8z"/>
	<path fill="#FFFFFF" d="M43.4,81c2,1.6,10.2,13.3,10.6,27.7c0.4,14.4-3.2,21.1-3.2,21.1s-10.9-29.1-16.9-35.5s-5.6-11.5-5.6-11.5
		s3.8-2.6,7.9-2.9S43.4,81,43.4,81z"/>
	<path opacity="0.2" d="M43.7,91l-2.3,6.4l-6.4-4.3l6.8,6l2.1-7.8l1-0.2l3.8,4.3c0,0,0-4.1,0-3.8c0,0.3-0.3,1.9-0.3,1.9l-3.5-3.4
		L43.7,91z"/>
	<path fill="#CC291F" d="M46.6,95.7l0.1-3.8l-1.5-1.6L43.7,91l-1,2.7l2.3,2.3c0,0,2.1,18.1,2.3,20.4s3.1,13,3.1,13
		s4.5-12.5,4.3-12.7S46.6,95.7,46.6,95.7z"/>
	<path fill="#FBD7C7" d="M10.4,164.3c0.3,1,0.2,2,2,3.2c1.7,1.3,3.1,3.6,3.5,5.2c0.4,1.6,1.7,3.5,1.9,4.7s-0.8,2-1.8,1.1
		c-1-0.8-2.9-4.5-3.9-4.8c-1-0.3-1.3,2.9-1.4,4c-0.1,1,1.5,3,2.2,4c0.8,1,0.1,1.9-1,1.6s-5.9-2.9-7.1-7.9s-0.7-12-0.7-12L10.4,164.3
		z"/>
	<path fill="#FFFFFF" d="M12.6,163.5l0.1,2c0,0-3.8,0.9-6.9,0.6s-3.8-1-3.8-1l0.3-3L12.6,163.5z"/>
	<path fill="#656565" d="M39.8,80.2c2.1,0.3,9.2-2,13.2,4.1c4.1,6,4.7,12.6,4.9,18.3c0.2,5.7,1.2,43,1.2,49.5c0,6.6-0.1,9.5-3,10.4
		c-3.4,1.1-5.9-1.9-6-3.8c-0.1-2,0.3-30.7,0.3-30.7s5.1-12,1.8-25.8s-8.5-18.4-8.5-18.4l-4.1-3.5L39.8,80.2z"/>
	<path fill="#656565" d="M29.5,81.8c0,0-4,3.3-6.2,5.1S11.3,97.4,10.3,98.6s-2.2,2.4-2.2,5.7s-0.4,8.4-1.7,11.9
		c-4.1,10.6-4.3,15.2-4.6,19.8c-0.3,4.6-0.9,26.6-0.9,26.6s1.3,1.2,6.4,1.8s6.4-0.1,6.4-0.1s1.5-14.2,2.3-19.3
		c1.3-7.8,5-16.1,5-16.1s0.6,3.5,0.3,5.6c-0.3,2.1-4.1,19.3-4.9,22.1c-0.8,2.7-1.7,6.1-1.7,6.1s4.2,6.6,15.6,6.1
		c11.4-0.4,18.2-4,19.6-11c1.4-7,1.7-24.5-0.1-34.3s-9.7-25.6-14.9-31.4S29.5,81.8,29.5,81.8z"/>
	<path opacity="0.2" d="M49.5,128c0,0-3.5-8.9-8.9-16.5c-3.8-5.2-7.8-8.6-7.8-8.6l0.3-3.4L29.1,98l-2.5-13.7l-0.5,0.5l1.7,14.1
		l4.6,1l-1,3.5c0,0,5.4,4.7,9,9.2C44.2,117.4,49.5,128,49.5,128z"/>
	<path fill="#FBD7C7" d="M45.3,60.1c3.8,2.8,4,10.3,3.9,15.4c-0.1,5.1-0.7,9.3-1.5,9.7c-0.8,0.4-2.4,0.6-2.4,0.6s0.1,4.9-1.1,5.1
		c-1.2,0.3-7.8-2.8-10.9-6c-3.1-3.1-3.5-3.8-3.5-3.8s-4.3-7.9-3.6-14.1S34.6,52.4,45.3,60.1z"/>
	<path fill="#762C07" d="M48.5,63.2c0.6,1-1.5,0.8-4.5,5.4c-3.1,4.6-6.6,2.6-7.6,2.6c-0.3,2.5-2.4,2.1-4.3,4.3c0,0-0.7-2.5-2.1-2.6
		c-1.4-0.1-0.9,4.2-0.9,4.2s-0.2,1.7-1.2,2s-4.7-8.8-2.8-14.7C28,55,41.6,51.8,48.5,63.2z"/>
	<path fill="#FFFFFF" d="M67.6,136.4c-0.5-0.5-3.6-0.4-5.3,1.3c-1.7,1.7-2.2,3.6-1.9,4.1s2.4,0.2,4.9-1.5
		C67.7,138.6,68.1,137,67.6,136.4z"/>
	<path fill="#FBD7C7" d="M67,136.8c-1.2-0.4-3.1,0.1-4.3,1.3c-1.2,1.1-1.7,2.2-1.6,3c0,0.8,1,2.7,1.2,3.6c0.2,0.8,2.7,4.2,3.5,5.3
		c0.7,1.2,1.6,1.7,1.8,3.5c0.2,1.8,0.8,2.7,2.1,2.8c1.3,0.1,6.1-2.9,5.2-7.2c-0.9-4.2-2.6-6.7-3.6-8.1c-0.5-0.7-2.6-1.8-3.3-2.3
		C67.2,138.1,67.5,136.9,67,136.8z"/>
</g>
<g>
	<path fill="#CC291F" d="M29.8,141.3c0,0-6.9,8.5-9.2,11.7c-2.1,2.9-3.9,6-4.4,7.9c-0.5,1.9,1.2,4.9,3.5,7.2
		c2.7,2.7,6.8,8.4,8.3,10.8s3.1,5.5,3.1,5.5l11.2-6.3c0,0-7.3-6.6-9.7-10s-5-6.7-5-6.7l6.8-3.5L29.8,141.3z"/>
	<path opacity="0.15" d="M29.8,141.3c0,0-6.9,8.5-9.2,11.7c-2.1,2.9-3.9,6-4.4,7.9c-0.5,1.9,1.2,4.9,3.5,7.2
		c2.7,2.7,6.8,8.4,8.3,10.8s3.1,5.5,3.1,5.5l11.2-6.3c0,0-7.3-6.6-9.7-10s-5-6.7-5-6.7l6.8-3.5L29.8,141.3z"/>
	<path fill="#CC291F" d="M53.8,145.1c2.9,1.3,12.3,6.7,13,10.6s-1.5,9.8-2,13.8c-1.6,11.8,0.9,20.5,0.9,20.5s-3.6,2.1-5.4,2.1
		S53.8,145.1,53.8,145.1z"/>
	<path opacity="0.2" d="M33.9,291.9c-9.2,5.6-9.9,12.4,2,18.7c13,7,20.7,5.5,30.8-0.4c8.9-5.1,6.9-12.1-8.1-18.1
		C46.5,287.3,40.4,287.9,33.9,291.9z"/>
	<g>
		<path fill="#FBD7C7" d="M35.6,181.9c-2.4,3.1-11.4,14.1-8.8,29.7s7,23.9,6.3,27.6c-0.8,3.7-3.6,10.7-2.9,18.5
			c0.8,9.6,3.6,19.5,3.8,22.7s1.3,6.2,0.4,8.7c-0.9,2.5-3,4.3-0.9,6c1.8,1.4,1-0.6,10.1,2.7c12.1,4.5,9.6-1.8,3.6-2.9
			c-2.1-0.4-4.1-4.7-4.7-7.6c-0.3-1.2-1.2-15.7-0.4-22.3c0.8-6.6,0.9-16.9,0.8-19.9c-0.1-3,2.4-14.3,3.3-19.8c1.4-8.4,4-38.1,4-38.1
			L35.6,181.9z"/>
		<path fill="#656565" d="M33.8,290.2c0,0-2.3,2.5-2.2,4.8c0.1,2.3,1.8,5.6,1.8,6.9s0,3.2,0,3.2l1.7,0.9l1.6-0.8
			c0,0-0.7-5.3,0.5-6.1s4.7,1.9,7.2,2.5c2.4,0.6,8.2-0.1,10.3-0.9c2.2-0.9,0.4-3.6-1.5-4.7c-2.6-1.4-6.6-1.1-6.6-1.1
			s1.3,0.4,2.8,1.9c2.7,2.7-4.7,3.2-11.5-2.6C35.2,291.8,33.8,290.2,33.8,290.2z"/>
	</g>
	<g>
		<path fill="#FBD7C7" d="M44,186.2c0,0-5.3,12.7-5.3,18.9s4.1,8.4,4.8,10.4c0.8,2,1,8.4,2.9,16s4.2,12.4,2,17.9
			c-3.5,8.7-2.9,16.3-1.8,26.9c1,10.6,0.2,16.6-0.1,18.4c-0.4,2-3.5,3-1.9,5.4c2.2,3.2,8.3,3.6,11,4.9c3.2,1.5,7.2,2,8.1,0.4
			c0.9-1.5,0.2-3.9-3.4-3.7c-3,0.1-5.2-5-6.1-7.2c-0.9-2.2,1-9.5,2.6-21s2.1-24,2.9-28.7c0.8-4.7,3.1-8.9,3.8-30.2
			c0.7-21.4-1.6-27.4-1.6-27.4L44,186.2z"/>
		<path fill="#656565" d="M45.7,295.9c0,0-2.3,2-2.3,4.5c0,2.5,2.1,5.3,2.4,7.3c0.3,2,0.2,3.4,0.2,3.4l1.9,0.9l1.9-0.8
			c0,0-1.6-5.6,0.1-6.1s6.7,3.6,9.8,3.6s7.2-3.9,7.2-5.3c0-1.5-3.4-3-5.4-2.9c-2,0.1-2.8,0.6-2.8,0.6s3,1.3,3.5,2.3
			c0.4,1-0.6,1.7-1.8,2c-2.6,0.5-5-1.8-9.2-5.1C47.3,297.5,45.7,295.9,45.7,295.9z"/>
	</g>
	<path fill="#262626" d="M37.1,180.7c0,0-9.2,9.7-10.3,18.3c-2.2,17.6-1.7,49.9-1.7,49.9s7.8,7.7,20,7.3c9.7-0.3,16.6-3.3,16.6-3.3
		s3-35.7,2.9-44.9c-0.1-8.1-2.5-19.7-2.5-19.7s-13-2-17.8-3.8C39.5,182.8,37.1,180.7,37.1,180.7z"/>
	<path fill="#FBD7C7" d="M60.6,150.6c0,0,1.5,1.1,0.6,7.5c-0.9,6.4-0.9,19.5,0.9,25.7c1.8,6.3,5.2,20,6.3,22.6s2.3,3.2,2.9,4.2
		c0.5,0.7,1.3,4.8,0.9,6.2c-0.5,1.4-2.8,5-4.7,5.6c-2,0.6-4.3,0.6-4.6-0.3c-0.3-0.9,1.7-1.2,2-2.6s0.5-6,0.5-7.3s-1.1-4.6-4.9-10.7
		c-3.8-6.2-7-11.3-8.1-18.1c-1-6.8-3.1-26.4-2.7-30.1C50.3,148.2,56.8,145.6,60.6,150.6z"/>
	<path fill="#CC291F" d="M40.7,138.8c-3.5-0.2-8.1-0.7-10.3,1.5c-2.2,2.2-2.8,4.6-1.6,9s8.1,21.8,7.5,25.4c-1.2,7.7-5.9,13-5.9,13
		s3.7,2.4,13.3,3.6c2.6,0.3,9.3,0.8,9.3,0.8s2.2,7.3,2.7,9.2c1.4,5.3,1.8,10.1,1.8,10.1s5.4,1.4,8.9-0.9c2.2-1.4,3.7-3.2,3.4-4
		s-3-8.7-4.3-13.1c-1.3-4.4-4.8-18.3-4.7-25s3.5-13.8-0.1-18.5c-3.6-4.7-12-8.6-12-8.6L40.7,138.8z"/>
	<path fill="#FBD7C7" d="M50.8,111.8c3.3,1.2,4.6,4,5.1,10s-0.2,9.7-0.6,10.8c-0.5,1-4.1,2.2-5,3.8c-0.9,1.5-1.6,4.7-1.1,5.3
		c0.9,1.2,1.7,1.2,1.7,1.2s-8.3,2-11.2,0.7c-2.9-1.3-2.8-3-2.3-3.6c0.6-0.7,1.6-3.4,1.1-5c-0.6-1.5-7.4-7.7-5.3-14.9
		C35.9,111.5,44,109.4,50.8,111.8z"/>
	<path fill="#825012" d="M49.5,136.7c2.5-1.4,4.8-9.9,4.8-9.9s0.6,1.1,0.7,4.2c1.6-1.1,3.2-13.2-1.5-17.3c-8.7-7.7-16.3-4.9-18.9-2
		c2.7-1,3.3-0.5,3.4-0.6c0,0-8.3,2.4-9.5,11.2c-1.1,7.9,2.4,12,4.1,13.7c0-1.1,0.4-3.3,0.4-3.3s0.3,8,6.5,9.7
		c8.2-2.5,9.2-10.4,9.2-10.4S49.7,133.4,49.5,136.7z"/>
</g>
<g>
	<path fill="#FBD7C7" d="M104.4,193.7c0,0,0.5,4.7,2.1,7s3.4,3.5,3.4,3.5l-0.1-8.3l-1.1-4.3L104.4,193.7z"/>
	<path fill="#FBD7C7" d="M154.6,190.3c0,0,0.7,6.3,1.1,7.5c0.3,1.2-0.7,3.3-2.1,4c-3.1,1.6-5.5,1.1-6.3,0.8
		c-1.2-0.4,2.6-12.7,2.6-12.7L154.6,190.3z"/>
	<path fill="#E5E5E5" d="M148.8,127.9c0,0,7,1.1,9.7,5.3c2.7,4.2,0.2,14.2,0.4,20.6c0.2,6.4,0.2,17.5-0.3,21.8
		c-0.5,4.3-2.2,10.6-2.2,12.4s0.4,3.3-2.4,3.5s-5.6-0.6-5.6-0.6s-2.7-23.8-2.3-28.9C146.6,157,148.8,127.9,148.8,127.9z"/>
	<path opacity="0.2" d="M152.5,141.2c0,0,1.2,11.1-0.1,16.2c-1.3,5-2.5,9.9-1.8,13.6s2,9.6,1.3,14.2c-0.7,4.6-2.2,7-2.2,7l-5.9-25.3
		l5.4-16.4L152.5,141.2z"/>
	<path opacity="0.3" fill="#262626" d="M144,291.5c3.1,3.1,9.5,10.6,2.8,14.2c-6.7,3.5-13.8,3.5-20.9,3.2s-25.2-3.2-28-6.3
		c-2.8-3.2-3.9-7.9,2.8-9.1c6.7-1.2,11-5.9,20.1-5.5S143.2,290.7,144,291.5z"/>
	<path fill="#262626" d="M144.6,295.5c0,0-1.4,6.3-5.7,6.3s-18.7-2.2-18.7-2.2l11.4-8.7L144.6,295.5z"/>
	<path fill="#262626" d="M137.7,300.4c0,0,0.8,6.5-2.4,6.9s-14.4-1-17.6-1c-3.2,0-14.8-2.4-15.8-5.1s0.4-5.7,4.7-5.7
		s12.2,0.2,13.6-0.2S137.7,300.4,137.7,300.4z"/>
	<path fill="#262626" d="M101.8,298.4c0,0.5,0.1,0.9,0.3,1.4c1,2.8,13,5.3,16.2,5.3s14.8,1.4,18.1,1c0.2,0,0.5-0.1,0.7-0.2
		c-0.4,0.7-0.9,1.3-1.8,1.4c-3.2,0.4-14.4-1-17.6-1c-3.2,0-14.8-2.4-15.8-5.1C101.7,300.2,101.6,299.3,101.8,298.4z"/>
	<path fill="#656565" d="M149.7,189.5c0.8,2.6-3.5,29.6-3.5,32.7s-1.8,17-1.4,21.5s1.4,27.2,1.8,34.5s-0.4,18.9-2.4,20.1
		c-2,1.2-8.7,1.2-10.6,0.8c-2-0.4-3.9-105.5-3.9-105.5L149.7,189.5z"/>
	<path opacity="0.2" d="M149.7,189.5c0.8,2.6-3.5,29.6-3.5,32.7s-1.8,17-1.4,21.5s1.4,27.2,1.8,34.5s-0.4,18.9-2.4,20.1
		c-2,1.2-8.7,1.2-10.6,0.8c-2-0.4-3.9-105.5-3.9-105.5L149.7,189.5z"/>
	<path fill="#656565" d="M136.3,195.5c0,0-1,11.8-1,17.2c0,5.3,2.8,45,3.4,52.7s1.4,33.9,0.2,36.5s-3.4,3.5-7.4,2.6
		c-3.9-1-9.1-2.4-12.1-6.1c-0.8-1-2.9-2.7-2.9-2.7s3.2-5,2.6-10.5c-0.6-5.5-1.2-15.4-1-19.7c0.2-4.3,0.2-10.6-1.4-16.4
		s-5.7-17.9-6.9-35.9c-1.2-17.9-0.8-21.5-0.8-21.5L136.3,195.5z"/>
	<path fill="#FBD7C7" d="M141.5,126.4c0,0-4.9,0.4-4.9-3.7c0-4.1,0.1-6.7,0.1-6.7s2.6-1.1,2.4-4.7s-1.3-2.8-1.3-2.8l-19.4,1.8
		c0,0-1.3,0.4-0.3,3.9c0.4,1.3,1.4,3,1.4,3.5s1,3.5,1.7,3.9c0.7,0.4,1.9,4.8,1.9,6.3s-0.7,3.5-0.7,3.5s8.1,0.1,12.8-1
		C139.9,129.3,141.5,126.4,141.5,126.4z"/>
	<path fill="#825012" d="M136.3,120.4c0.4-0.2,0.6-4.3,0.9-6.6c0.3-2.3,2.8-10-1.2-14.9c-3.9-4.9-15.2-4.5-17.3,2.4
		c-1.9,6.2-0.7,10,1,13.5c1.7,3.5,3.5,5.2,4.1,6c0.6,0.7,6.2,1.5,7.5,1.4C132.5,122.2,134.9,120.9,136.3,120.4z"/>
	<path fill="#E5E5E5" d="M122.6,129.4c0.6-0.2,6,0.6,10.5-0.7c4.4-1.3,6.5-3.3,6.5-3.3s9.3,1.8,11.7,3c2.7,1.3,3.1,3.4,3.5,5.5
		c0.5,2.6,0.7,5.4,0.4,8.3c-0.9,9.1-4.1,11.7-5,14c-0.9,2.4-2.9,10.9-1.5,17.9c1.4,7,2,15.4,1.8,17.6c-0.2,2.2-2.4,7.7-14.7,8.3
		c-14.5,0.7-26.8-4.6-26.8-4.6l0-1.1c0,0-0.7,1.3-2.6,1.2c-1.9-0.1-4-2.3-4-3s-0.4-7.8-0.7-9.4c-0.3-1.6-1.2-2.5,0-6.6
		c1.2-4.1,3.8-17.8,4.5-24.4c0.7-6.5,0.9-8.8,4.1-12.6C113.6,135.8,122.6,129.4,122.6,129.4z"/>
	<path opacity="0.2" d="M109,194.4c0,0,2.1-3.1,2.4-5.1c0.3-2,1-9.3,1.6-10.9c0.6-1.7,0.8-4.8,1.9-7.1c1.1-2.3,7.4-16.2,7.4-16.2
		s-0.9,6.4-3,11.3c-0.8,1.9-2.5,3.9-2.5,9.6c0,5.6-2.8,11.4-3.4,12.7c-1.6,3.4-1.5,7-1.5,8c-1.8-0.6-2.9-1.1-2.9-1.1L109,194.4
		C109,194.4,109,194.4,109,194.4L109,194.4z"/>
</g>
</svg>
