<?xml version="1.0" encoding="utf-8"?>
<!-- Generator: Adobe Illustrator 18.1.0, SVG Export Plug-In . SVG Version: 6.00 Build 0)  -->
<svg version="1.1" id="Layer_1" xmlns="http://www.w3.org/2000/svg" xmlns:xlink="http://www.w3.org/1999/xlink" x="0px" y="0px"
	 viewBox="0 0 160 240" enable-background="new 0 0 160 240" xml:space="preserve">
<g>
	<path fill="#762C07" d="M105.4,33.5c-0.6,1.9-0.5,9.7-1.2,14c-0.8,5.2-7.1,24,2.1,18.1s7-33.5,3.1-33.7
		C106.3,31.7,106,31.6,105.4,33.5z"/>
	<path opacity="0.2" d="M96.4,204.8c-11.8,7.6-12.4,14.4,0,21c13.5,7.2,22.4,3.3,32.9-2.7c10.5-6,11.8-13.4-3.6-19.6
		C113.1,198.6,105.3,199.1,96.4,204.8z"/>
	<path fill="#FBD7C7" d="M100.4,80.9c0,0-3.2,10.8-5.9,19.1c-2.7,8.3-4,10.8-6.2,10.6c-2.2-0.2-5.8,0.7-7.1,1.7
		c-1.3,1-4,3.9-4.3,4.7c-0.9,2.2,0.3,4.6,0.9,4.8c0.6,0.2,2.2-0.4,2.7-1.2s2-3.5,5.1-3.3s4.3-0.4,6-1.1c1.4-0.5,3.5-3.1,4.7-5.6
		c1.2-2.5,6.9-14.5,7.5-16.2C104.3,92.8,100.4,80.9,100.4,80.9z"/>
	<path fill="#FBD7C7" d="M114.4,53.3c0,0-9.1-4-12.3,0.3s-1.7,11-1.7,11S95,70.7,95,74c0,3.3,5.1,6.5,5.1,6.5s0.6,15.8-0.3,22.3
		c-0.9,6.5-3.8,23.3-3.1,33.9c0.7,10.6,1.6,25,1.9,29.2c0.3,4.1,2.2,10,3,14.8c0.9,4.8,4.1,13.2,0.9,19.6s-6.1,9.3-7.4,10.5
		c-1.3,1.2,0.2,5.2,3,4.5c2.8-0.7,7.2-7.1,9.9-8.1s7.2-4,6-7.7c-1.2-3.6-1.7-2.2-2-5.3c-0.3-3.1,2.2-16.7,1.3-22.8
		c-0.9-6.1-3.2-7.8-3.6-8.8c-0.4-1.1,5.7-29.5,5.7-29.5s1.2,27.3,1.1,30.2c-0.1,2.9,2.1,17.7,2.7,24.6c0.7,7,1,18.8-2,22.9
		c-2.9,4.1-8,10.3-6,11.7c2,1.4,8.3,2.7,9.8-0.9c1.5-3.6,5.3-11.1,6.7-13.1c1.4-2,1.9-3.1,1-5s-1.5-5-0.5-10.3s4.1-14.7,3.3-19.7
		c-0.8-5-3.2-8.1-2.9-11.7c0.3-3.5,8.1-24.8,6.6-39.7s-9-17.5-10.3-23.5c-1.3-6,3-13.9,5.2-18.2c2.2-4.2,5.3-11.6,2.6-14.2
		c-2.7-2.7-5.9-4.4-7.1-6.4c-1.2-2-2.5-8.2-2.5-8.2L114.4,53.3z"/>
	<path fill="#CC291F" d="M97,209c0,0-4.9,1.7-5.9,3.9c-0.8,1.8-0.5,3.9,1.2,5c1.8,1,5.2,1.3,8.2-0.4c2.9-1.7,6.8-8.4,7.5-8.7
		c0.7-0.3,0.2,3.7,0.2,3.7l2.1,1.1l2.3-0.9c0,0-0.2-4.5,0.7-6c0.9-1.6,2.6-3.9,2-6.9c-0.7-3-2.6-3.3-2.6-3.3s0,3.5-4,7.3
		c-3.8,3.6-5.9,9.6-9.2,9.3C95,212.4,97,209,97,209z"/>
	<path fill="#CC291F" d="M113.9,215.7c0,0-4.6,3.5-4.9,5.7c-0.3,2.2-0.2,3.7,2.9,4.7c3.1,1,7.1-0.2,9-1.8c1.8-1.6,4.4-5.8,4.4-5.8
		l2,1.1l2.3-1.1c0,0-0.3-2.7,0.4-5.1c0.7-2.4,1.4-4.4,1.4-7.4s-2.8-3.3-2.8-3.3s1.7,1.6-0.8,5.1s-4.4,11.3-8.1,11.5
		C112.7,219.8,113.9,215.7,113.9,215.7z"/>
	<path fill="#262626" d="M132.4,109.4c-2.3-3.6-4.4-5.6-5.1-6.4c-4.4-6.7,1.9-20.2,3-22.4c2.2-4.2,5.3-11.6,2.6-14.2
		s-5.9-4.4-7.1-6.4c-1.2-2-2.5-8.2-2.5-8.2l-8.9,1.6c0,0-3.6-1.6-7-1.7c-2.2,2.1-4.9,9.8-7.4,12.7c-2.5,2.8-5.4,5.4-5.4,9.6
		c0,3.3,4.3,6.6,4.8,7.5c0.3,0.6,2.4,6,2.3,12.3c0,2.9-6.2,26.5-7.1,30c-1.9,6.8-6.1,18-5.6,19c2.1,4.2,12.6,3.2,17.4,7.6
		s17.8,3.7,24,1.6c6.2-2.1,9.4-5.8,9.2-6.5C134.7,126.7,137.7,117.8,132.4,109.4z"/>
	<path fill="#FBD7C7" d="M109.5,52.5c0,0-8.9,14.8-2.4,16.5c6.3,1.7,16-8.7,16-8.7l-7.8-8.7L109.5,52.5z"/>
	<path fill="#FBD7C7" d="M111.8,53.6c0,0-4.3,0.7-4.9-0.9c-0.7-1.7-4.4-15.5,2.4-24.1c6.8-8.5,20.5-3.1,20.5,6
		c0,8.1-3.2,10.5-4.7,14.5c-0.9,2.5-1.6,5.8-0.1,8.4c1.5,2.7,2.7,4,2.7,4s-7.6,4.6-13.3,3.2c-5.7-1.4-0.2-4.2-1-6.6
		C112.7,56,111.8,53.6,111.8,53.6z"/>
	<path opacity="0.15" d="M94.7,74.7c3.1,5.9,12.5,10.5,26.6,7.4C120.4,84.4,100.1,89.6,94.7,74.7z"/>
	<path fill="#FBD7C7" d="M122.7,73.4c-1.1-2.9-0.7-10.2,5.3-10.5c6-0.3,6.7,5.7,7.2,13.6s3.5,20.7,3.7,23.3c0.2,2.6-1.5,9.7-5.6,16
		c-4.1,6.3-6.9,11.4-7.1,12.3c-0.2,1-1.4,4.9-3.1,6.1c-0.7,0.5-1.5,1.2-1.9,2.5c-0.4,1.3,0.5,2.4,0.7,2.7c0.3,0.7-0.2,1.5-1.4,2.2
		c-1.3,0.8-3.2-0.5-4.2-1.3c-0.7-0.5-2.5-2.1-2-4.3c0.4-1.6,1.7-6.6,3.7-7.8c2-1.2,3.9-2.7,4.6-4.1c0.7-1.4,2.2-11.9,4.8-17.2
		c1.4-2.9,3.1-4.8,3.1-5.9C130.3,100.1,123.7,76.4,122.7,73.4z"/>
	<path fill="#762C07" d="M105.4,33.5c0,0,3.5-11.5,16.4-9.1c8.1,1.5,10.4,10.5,9.6,16.7c-0.7,6.2-3.3,9.9-2.1,12.9
		c2.3,5.6,1,9.4-1.6,12.7c-4.3,5.5-13.1,8.2-12.1-2.9c0.7-8.6-5.1-12.4-3.1-21.5c1.2-5.7-1.1-8.2-3.6-7.7
		C108,32.7,107,32,105.4,33.5z"/>
</g>
<g>
	<path opacity="0.2" d="M30.9,227.7c-17.2-9.6-4.2-17,11.8-24.6c17.8-8.5,24.2-10.6,40.5-1.6c13.9,7.6,1.6,14.9-14.6,22.5
		C50.1,232.6,43,234.5,30.9,227.7z"/>
	<path fill="#656565" d="M71.6,199.3c3.4,2.5,6.8,4,9.8,5.6c3,1.6,4.5,3.1,4.1,4.5s-3,3.2-7.6,3c-4.6-0.2-12-4.4-13.4-4.5
		c-1.4-0.1-1.1,0.8-2.1,0.8s-6.4-1-7-1.7c-0.6-0.7,0.1-5.7,0.1-5.7L71.6,199.3z"/>
	<path opacity="0.5" d="M55.4,207c-0.3-0.4-0.3-1.8-0.2-3.1c1.3,1.2,3.5,1.9,5.7,2c2.6,0.1,5.7,0.6,9.3,2.9c3.6,2.3,16,4.2,14.6-1.4
		c0.6,0.7,0.9,1.4,0.7,2.1c-0.3,1.5-3,3.2-7.6,3c-4.6-0.2-12-4.4-13.4-4.5c-1.4-0.1-1.1,0.8-2.1,0.8C61.4,208.8,56,207.7,55.4,207z"
		/>
	<path fill="#2D3134" d="M69.4,120.7c0.9,6.6,1.3,29.8,0.4,40.3c-0.8,10.6-0.7,25.9,0.1,31.2c0.6,3.9,2.5,6,2,7.4
		c-0.5,1.5-5,4.6-10.2,5.2s-7.2-0.2-7.9-2.2c-0.6-2-2.8-23.5-3.5-37c-0.6-12-1.7-45.1-1.7-45.1H69.4z"/>
	<path opacity="0.3" d="M69.4,120.7c0.9,6.6,1.3,29.8,0.4,40.3c-0.8,10.6-0.7,25.9,0.1,31.2c0.6,3.9,2.5,6,2,7.4
		c-0.5,1.5-5,4.6-10.2,5.2s-7.2-0.2-7.9-2.2c-0.6-2-2.8-23.5-3.5-37c-0.6-12-1.7-45.1-1.7-45.1H69.4z"/>
	<path fill="#656565" d="M40.6,211.4c0.8,2.3,4.3,8,5,9.4c0.8,1.4,2.3,3.3,1.3,4.7s-5.7,3.3-10.4,1c-4.7-2.2-5.5-7.7-5.5-7.7h-0.8
		c0,0-1-2.3-1-3.9c0-1.6,0.3-2.6,0.3-2.6L40.6,211.4z"/>
	<path opacity="0.5" d="M31,218.9h-0.8c0,0-1-2.3-1-3.9c0-1.6,0.3-2.6,0.3-2.6l0.1,0c0.1,0.2,0.1,0.4,0.1,0.6
		c0.2,1.3,2.5,8.3,3.8,10c3.4,4.4,12.6,5.4,13.5,0.3c0.3,0.8,0.4,1.6-0.1,2.2c-1,1.5-5.7,3.3-10.4,1C31.8,224.3,31,218.9,31,218.9z"
		/>
	<path fill="#2D3134" d="M57.5,121.5c-0.1,4.3-4.5,9.3-5.8,15.4c-1.3,6.1-5.3,36.3-6.3,45.2c-1.5,12.9-2.8,31.7-3.2,31.9
		c-0.4,0.1-3.7-1.9-6.9-0.2c-3.2,1.7-6.8,1-7.9,0.2c-1-0.8-0.6-9.4-0.2-14.6c0.3-5.1,1.9-43.6,1.8-48.8c-0.1-5.2-1.8-19.3-1.4-22.6
		c0.4-3.4,2.3-7.3,2.3-7.3L57.5,121.5z"/>
	<path opacity="0.15" d="M57.5,121.5c-0.1,4.3-4.5,9.3-5.8,15.4c-1.3,6.1-5.3,36.3-6.3,45.2c-1.5,12.9-2.8,31.7-3.2,31.9
		c-0.4,0.1-3.7-1.9-6.9-0.2c-3.2,1.7-6.8,1-7.9,0.2c-1-0.8-0.6-9.4-0.2-14.6c0.3-5.1,1.9-43.6,1.8-48.8c-0.1-5.2-1.8-19.3-1.4-22.6
		c0.4-3.4,2.3-7.3,2.3-7.3L57.5,121.5z"/>
	<path fill="#2D3134" d="M67.7,74.2c2.5,4,5.1,10.3,6.6,14.5s5.4,11.7,5.7,12.7c0.2,0.9,0.1,4.6-3.4,5.7c-3.5,1-5.2,1.8-5.8,0.9
		c-0.5-0.8-4.2-5-4.2-5L67.7,74.2z"/>
	<path opacity="0.15" d="M67.7,74.2c2.5,4,5.1,10.3,6.6,14.5s5.4,11.7,5.7,12.7c0.2,0.9,0.1,4.6-3.4,5.7c-3.5,1-5.2,1.8-5.8,0.9
		c-0.5-0.8-4.2-5-4.2-5L67.7,74.2z"/>
	<path fill="#FFFFFF" d="M54.9,46.4c2,1.6,10.2,13.3,10.6,27.7s-3.2,21.1-3.2,21.1S51.3,66,45.4,59.6s-5.6-11.5-5.6-11.5
		s3.8-2.6,7.9-2.9C51.8,44.9,54.9,46.4,54.9,46.4z"/>
	<path opacity="0.2" d="M55.2,56.4l-2.3,6.4l-6.4-4.3l6.8,6l2.1-7.8l1-0.2l3.8,4.3c0,0,0-4.1,0-3.8c0,0.3-0.3,1.9-0.3,1.9l-3.5-3.4
		L55.2,56.4z"/>
	<path fill="#CC291F" d="M58.1,61.1l0.1-3.8l-1.5-1.6l-1.5,0.7l-1,2.7l2.3,2.3c0,0,2.1,18.1,2.3,20.4s3.1,13,3.1,13
		s4.5-12.5,4.3-12.7S58.1,61.1,58.1,61.1z"/>
	<path fill="#FBD7C7" d="M21.9,129.7c0.3,1,0.2,2,2,3.2s3.1,3.6,3.5,5.2c0.4,1.6,1.7,3.5,1.9,4.7s-0.8,2-1.8,1.1s-2.9-4.5-3.9-4.8
		c-1-0.3-1.3,2.9-1.4,4c-0.1,1,1.5,3,2.2,4c0.8,1,0.1,1.9-1,1.6s-5.9-2.9-7.1-7.9s-0.7-12-0.7-12L21.9,129.7z"/>
	<path fill="#FFFFFF" d="M24.1,128.9l0.1,2c0,0-3.8,0.9-6.9,0.6s-3.8-1-3.8-1l0.3-3L24.1,128.9z"/>
	<path fill="#2D3134" d="M51.2,45.6c2.1,0.3,9.2-2,13.2,4.1s4.7,12.6,4.9,18.3c0.2,5.7,1.2,43,1.2,49.5s-0.1,9.5-3,10.4
		c-3.4,1.1-5.9-1.9-6-3.8c-0.1-2,0.3-30.7,0.3-30.7s5.1-12,1.8-25.8s-8.5-18.4-8.5-18.4L51,45.7L51.2,45.6z"/>
	<path fill="#2D3134" d="M41,47.2c0,0-4,3.3-6.2,5.1C32.5,54.1,22.8,62.9,21.8,64c-1,1.2-2.2,2.4-2.2,5.7s-0.4,8.4-1.7,11.9
		c-4.1,10.6-4.3,15.2-4.6,19.8s-0.9,26.6-0.9,26.6s1.3,1.2,6.4,1.8s6.4-0.1,6.4-0.1s1.5-14.2,2.3-19.3c1.3-7.8,5-16.1,5-16.1
		s0.6,3.5,0.3,5.6s-4.1,19.3-4.9,22.1s-1.7,6.1-1.7,6.1s4.2,6.6,15.6,6.1c11.4-0.4,18.2-4,19.6-11c1.4-7,1.7-24.5-0.1-34.3
		s-9.7-25.6-14.9-31.4S41,47.2,41,47.2z"/>
	<path opacity="0.2" d="M61,93.4c0,0-3.5-8.9-8.9-16.5c-3.8-5.2-7.8-8.6-7.8-8.6l0.3-3.4l-4.1-1.5L38,49.7l-0.5,0.5l1.7,14.1l4.6,1
		l-1,3.5c0,0,5.4,4.7,9,9.2C55.7,82.9,61,93.4,61,93.4z"/>
	<path fill="#FBD7C7" d="M56.7,25.5c3.8,2.8,4,10.3,3.9,15.4c-0.1,5.1-0.7,9.3-1.5,9.7c-0.8,0.4-2.4,0.6-2.4,0.6s0.1,4.9-1.1,5.1
		c-1.2,0.3-7.8-2.8-10.9-6c-3.1-3.1-3.5-3.8-3.5-3.8s-4.3-7.9-3.6-14.1S46.1,17.8,56.7,25.5z"/>
	<path fill="#762C07" d="M60,28.6c0.6,1-1.5,0.8-4.5,5.4c-3.1,4.6-6.6,2.6-7.6,2.6c-0.3,2.5-2.4,2.1-4.3,4.3c0,0-0.7-2.5-2.1-2.6
		s-0.9,4.2-0.9,4.2s-0.2,1.7-1.2,2c-1,0.3-4.7-8.8-2.8-14.7C39.5,20.5,53.1,17.2,60,28.6z"/>
	<path fill="#FFFFFF" d="M79.1,101.8c-0.5-0.5-3.6-0.4-5.3,1.3c-1.7,1.7-2.2,3.6-1.9,4.1c0.2,0.4,2.4,0.2,4.9-1.5
		S79.6,102.4,79.1,101.8z"/>
	<path fill="#FBD7C7" d="M78.5,102.2c-1.2-0.4-3.1,0.1-4.3,1.3c-1.2,1.1-1.7,2.2-1.6,3c0,0.8,1,2.7,1.2,3.6c0.2,0.8,2.7,4.2,3.5,5.3
		c0.7,1.2,1.6,1.7,1.8,3.5s0.8,2.7,2.1,2.8c1.3,0.1,6.1-2.9,5.2-7.2c-0.9-4.2-2.6-6.7-3.6-8.1c-0.5-0.7-2.6-1.8-3.3-2.3
		C78.7,103.5,79,102.4,78.5,102.2z"/>
</g>
</svg>
