<?xml version="1.0" encoding="utf-8"?>
<!-- Generator: Adobe Illustrator 18.1.0, SVG Export Plug-In . SVG Version: 6.00 Build 0)  -->
<svg version="1.1" id="Layer_1" xmlns="http://www.w3.org/2000/svg" xmlns:xlink="http://www.w3.org/1999/xlink" x="0px" y="0px"
	 viewBox="0 0 116 96" enable-background="new 0 0 116 96" xml:space="preserve">
<g>
	<polygon fill="#E5E5E5" points="4,78 31,92 35,90 8,76 	"/>
	<polygon fill="#E5E5E5" points="36,62 63,76 67,74 40,60 	"/>
	<g>
		<polygon fill="#999999" points="55,54 53,55 53,70 61,74 61,59 63,58 		"/>
		<polygon fill="#E5E5E5" points="63,44 61,43 61,74 63,75 65,74 65,43 		"/>
		<polygon opacity="0.39" points="65,74 63,75 63,44 65,43 		"/>
		<polygon opacity="0.06" points="61,74 63,75 63,44 61,43 		"/>
		<polygon fill="#CC291F" points="54,61 54,69 60,72 60,64 		"/>
		<polygon fill="#262626" points="54,57 54,61 60,64 60,60 		"/>
		<polygon fill="#262626" points="55,64 55,66 56,66.5 56,64.5 		"/>
		<polygon fill="#3399CC" points="55,59 55,61 57,62 57,60 		"/>
		<path fill="none" stroke="#262626" stroke-width="0.5" stroke-linecap="round" stroke-miterlimit="10" d="M54.3,59.2
			c0,1.2-0.2,4.4-0.8,6.7c-0.6,2.2-0.7,3.6,0.6,3.8c1.7,0.3,1.3-3.1,1.3-3.9"/>
		<polygon fill="#E5E5E5" points="57.6,60.3 57.6,61.3 59,62 59,61 		"/>
		<polygon opacity="0.06" points="61,74 53,70 53,55 61,59 		"/>
	</g>
	<g>
		<polygon fill="#999999" points="23,70 21,71 21,86 29,90 29,75 31,74 		"/>
		<polygon fill="#E5E5E5" points="31,60 29,59 29,90 31,91 33,90 33,59 		"/>
		<polygon opacity="0.39" points="33,90 31,91 31,60 33,59 		"/>
		<polygon opacity="0.06" points="29,90 31,91 31,60 29,59 		"/>
		<polygon fill="#CC291F" points="22,77 22,85 28,88 28,80 		"/>
		<polygon fill="#262626" points="22,73 22,77 28,80 28,76 		"/>
		<polygon fill="#262626" points="23,80 23,82 24,82.5 24,80.5 		"/>
		<polygon fill="#3399CC" points="23,75 23,77 25,78 25,76 		"/>
		<path fill="none" stroke="#262626" stroke-width="0.5" stroke-linecap="round" stroke-miterlimit="10" d="M22.3,75.2
			c0,1.2-0.2,4.4-0.8,6.7c-0.6,2.2-0.7,3.6,0.6,3.8c1.7,0.3,1.3-3.1,1.3-3.9"/>
		<polygon fill="#E5E5E5" points="25.6,76.3 25.6,77.3 27,78 27,77 		"/>
		<polygon opacity="0.06" points="29,90 21,86 21,71 29,75 		"/>
	</g>
	<g>
		<polygon fill="#E5E5E5" points="40,32 38,31 38,62 40,63 42,62 42,31 		"/>
		<polygon opacity="0.39" points="42,62 40,63 40,32 42,31 		"/>
		<polygon opacity="0.06" points="38,62 40,63 40,32 38,31 		"/>
	</g>
	<g>
		<polygon fill="#E5E5E5" points="8,48 6,47 6,78 8,79 10,78 10,47 		"/>
		<polygon opacity="0.39" points="10,78 8,79 8,48 10,47 		"/>
		<polygon opacity="0.06" points="6,78 8,79 8,48 6,47 		"/>
	</g>
	<g>
		<polygon fill="#E5E5E5" points="84,0 0,42 0,46 32,62 116,20 116,16 		"/>
		<polygon fill="#CC291F" points="32,58 0,42 0,48 32,64 116,22 116,16 		"/>
		<polygon opacity="0.39" points="116,22 32,64 32,58 116,16 		"/>
		<polygon opacity="0.06" points="0,48 32,64 32,58 0,42 		"/>
		<polygon opacity="0.4" points="8.9,42 84,4.5 107.1,16 32,53.5 		"/>
		<polygon opacity="0.39" points="84,6.5 84,4.5 8.9,42 10.9,43 		"/>
		<polygon opacity="0.06" points="84,6.5 105.1,17 107.1,16 84,4.5 		"/>
	</g>
</g>
</svg>
