<?xml version="1.0" encoding="utf-8"?>
<!-- Generator: Adobe Illustrator 18.1.0, SVG Export Plug-In . SVG Version: 6.00 Build 0)  -->
<svg version="1.1" id="Layer_1" xmlns="http://www.w3.org/2000/svg" xmlns:xlink="http://www.w3.org/1999/xlink" x="0px" y="0px"
	 viewBox="0 0 56 56" enable-background="new 0 0 56 56" xml:space="preserve">
<g>
	<polygon fill="#CC291F" points="34,17 19.8,24.1 20.2,25 23,23.6 23,31.6 24,31.6 24,23.1 25,22.6 25,30.6 26,30.6 26,22.1 
		27,21.6 27,29.9 28,29.9 28,21.1 29,20.6 29,28.8 30,28.8 30,20.1 31,19.6 31,27.8 32,27.8 32,19.1 34,18.1 	"/>
	<polygon opacity="0.39" points="34,17 19.8,24.1 20.2,25 23,23.6 23,31.6 24,31.6 24,23.1 25,22.6 25,30.6 26,30.6 26,22.1 
		27,21.6 27,29.9 28,29.9 28,21.1 29,20.6 29,28.8 30,28.8 30,20.1 31,19.6 31,27.8 32,27.8 32,19.1 34,18.1 	"/>
	<polygon fill="#CC291F" points="44,23 32,17 32,18.1 34,19.1 34,27.8 35,27.8 35,19.6 36,20.1 36,28.9 37,28.9 37,20.6 38,21.1 
		38,29.6 39,29.6 39,21.6 40,22.1 40,30.6 41,30.6 41,22.6 42,23.1 42,31.6 43,31.6 43,23.6 44,24 	"/>
	<polygon opacity="0.06" points="44,23 32,17 32,18.1 34,19.1 34,27.8 35,27.8 35,19.6 36,20.1 36,28.9 37,28.9 37,20.6 
		38,21.1 38,29.6 39,29.6 39,21.6 40,22.1 40,30.6 41,30.6 41,22.6 42,23.1 42,31.6 43,31.6 43,23.6 44,24 	"/>
	<polygon opacity="0.3" points="52,46 42,51 28,44 12,52 8,50 24,42 20,40 30,35 	"/>
	<g>
		<polygon fill="#825012" points="44,13 42,14 42,41 44,42 46,41 46,14 		"/>
		<polygon opacity="0.39" points="46,41 44,42 44,15 46,14 		"/>
		<polygon opacity="0.06" points="42,41 44,42 44,15 42,14 		"/>
	</g>
	<g>
		<polygon fill="#825012" points="44,31 32,25 20,31 20,32 32,38 44,32 		"/>
		<polygon opacity="0.39" points="32,37 32,38 44,32 44,31 		"/>
		<polygon opacity="0.06" points="32,37 20,31 20,32 32,38 		"/>
	</g>
	<g>
		<g>
			<polygon fill="#825012" points="52,33 50,34 50,45 52,46 54,45 54,34 			"/>
			<polygon opacity="0.39" points="54,45 52,46 52,35 54,34 			"/>
			<polygon opacity="0.06" points="50,45 52,46 52,35 50,34 			"/>
		</g>
		<g>
			<g>
				<polygon fill="#FF9900" points="52,40.9 43,27.5 42.6,27.7 42.6,30.7 51.6,44.2 52,44 				"/>
				<polygon opacity="0.39" points="51.6,41.1 52,40.9 52,44 51.6,44.2 				"/>
				<path fill="#CC291F" d="M51.4,41.9c0,0.1-0.1,0.2-0.2,0.1c-0.1-0.1-0.2-0.2-0.2-0.4s0.1-0.2,0.2-0.1
					C51.3,41.7,51.4,41.8,51.4,41.9z"/>
				<path fill="#CC291F" d="M43.2,30c0,0.1-0.1,0.2-0.2,0.1c-0.1-0.1-0.2-0.2-0.2-0.4s0.1-0.2,0.2-0.1C43.1,29.8,43.2,29.9,43.2,30z
					"/>
				<polygon opacity="0.06" points="42.6,27.7 42.6,30.7 51.6,44.2 51.6,41.1 				"/>
			</g>
			<g>
				<polygon fill="#FF9900" points="52,35.3 43,21.9 42.6,22.1 42.6,25.1 51.6,38.6 52,38.4 				"/>
				<polygon opacity="0.39" points="51.6,35.5 52,35.3 52,38.4 51.6,38.6 				"/>
				<path fill="#CC291F" d="M51.4,36.3c0,0.1-0.1,0.2-0.2,0.1c-0.1-0.1-0.2-0.2-0.2-0.4c0-0.1,0.1-0.2,0.2-0.1
					C51.3,36.1,51.4,36.2,51.4,36.3z"/>
				<path fill="#CC291F" d="M43.2,24.4c0,0.1-0.1,0.2-0.2,0.1c-0.1-0.1-0.2-0.2-0.2-0.4c0-0.1,0.1-0.2,0.2-0.1
					C43.1,24.2,43.2,24.3,43.2,24.4z"/>
				<polygon opacity="0.06" points="42.6,22.1 42.6,25.1 51.6,38.6 51.6,35.5 				"/>
			</g>
		</g>
		<g>
			<polygon fill="#825012" points="34,38 34,39 36,40 45.6,35.2 45.6,34.2 43.6,33.2 			"/>
			<polygon opacity="0.39" points="36,39 36,40 45.6,35.2 45.6,34.2 			"/>
			<polygon opacity="0.06" points="34,38 34,39 36,40 36,39 			"/>
		</g>
		<g>
			<polygon fill="#825012" points="36,41 36,42 38,43 47.6,38.2 47.6,37.2 45.6,36.2 			"/>
			<polygon opacity="0.39" points="38,42 38,43 47.6,38.2 47.6,37.2 			"/>
			<polygon opacity="0.06" points="36,41 36,42 38,43 38,42 			"/>
		</g>
		<g>
			<polygon fill="#825012" points="38,44 38,45 40,46 49.6,41.2 49.6,40.2 47.6,39.2 			"/>
			<polygon opacity="0.39" points="40,45 40,46 49.6,41.2 49.6,40.2 			"/>
			<polygon opacity="0.06" points="38,44 38,45 40,46 40,45 			"/>
		</g>
		<g>
			<polygon fill="#825012" points="40,47 40,48 42,49 51.6,44.2 51.6,43.2 49.6,42.2 			"/>
			<polygon opacity="0.39" points="42,48 42,49 51.6,44.2 51.6,43.2 			"/>
			<polygon opacity="0.06" points="40,47 40,48 42,49 42,48 			"/>
		</g>
		<g>
			<g>
				<polygon fill="#FF9900" points="42.4,45.7 33.4,32.3 33,32.5 33,35.5 42,49 42.4,48.8 				"/>
				<polygon opacity="0.39" points="42,45.9 42.4,45.7 42.4,48.8 42,49 				"/>
				<path fill="#CC291F" d="M41.8,46.7c0,0.1-0.1,0.2-0.2,0.1c-0.1-0.1-0.2-0.2-0.2-0.4c0-0.1,0.1-0.2,0.2-0.1
					C41.7,46.5,41.8,46.6,41.8,46.7z"/>
				<path fill="#CC291F" d="M33.6,34.8c0,0.1-0.1,0.2-0.2,0.1c-0.1-0.1-0.2-0.2-0.2-0.4c0-0.1,0.1-0.2,0.2-0.1S33.6,34.7,33.6,34.8z
					"/>
				<polygon opacity="0.06" points="33,32.5 33,35.5 42,49 42,45.9 				"/>
			</g>
			<g>
				<polygon fill="#FF9900" points="42.4,40.1 33.4,26.7 33,26.9 33,29.9 42,43.4 42.4,43.2 				"/>
				<polygon opacity="0.39" points="42,40.3 42.4,40.1 42.4,43.2 42,43.4 				"/>
				<path fill="#CC291F" d="M41.8,41.1c0,0.1-0.1,0.2-0.2,0.1c-0.1-0.1-0.2-0.2-0.2-0.4s0.1-0.2,0.2-0.1
					C41.7,40.9,41.8,41,41.8,41.1z"/>
				<path fill="#CC291F" d="M33.6,29.2c0,0.1-0.1,0.2-0.2,0.1s-0.2-0.2-0.2-0.4c0-0.1,0.1-0.2,0.2-0.1S33.6,29.1,33.6,29.2z"/>
				<polygon opacity="0.06" points="33,26.9 33,29.9 42,43.4 42,40.3 				"/>
			</g>
		</g>
		<g>
			<polygon fill="#825012" points="40,39 38,40 38,51 40,52 42,51 42,40 			"/>
			<polygon opacity="0.39" points="42,51 40,52 40,41 42,40 			"/>
			<polygon opacity="0.06" points="38,51 40,52 40,41 38,40 			"/>
		</g>
	</g>
	<g>
		<polygon fill="#825012" points="32,17 30,18 30,47 32,48 34,47 34,18 		"/>
		<polygon opacity="0.39" points="34,47 32,48 32,19 34,18 		"/>
		<polygon opacity="0.06" points="30,47 32,48 32,19 30,18 		"/>
	</g>
	<g>
		<polygon fill="#825012" points="20,13 18,14 18,41 20,42 22,41 22,14 		"/>
		<polygon opacity="0.39" points="22,41 20,42 20,15 22,14 		"/>
		<polygon opacity="0.06" points="18,41 20,42 20,15 18,14 		"/>
	</g>
	<g>
		<polygon fill="#CC291F" points="20,34.2 18,35.2 17.6,35 17.6,24 19.6,23 20,23.2 		"/>
		<polygon opacity="0.06" points="17.6,35 18,35.2 18,24.2 17.6,24 		"/>
		<path fill="#FF9900" d="M18.7,27c0,0.1,0.1,0.2,0.2,0.1c0.1-0.1,0.2-0.2,0.2-0.4c0-0.1-0.1-0.2-0.2-0.1
			C18.8,26.7,18.7,26.9,18.7,27z"/>
		<path fill="#FF9900" d="M18.7,31.2c0,0.1,0.1,0.2,0.2,0.1c0.1-0.1,0.2-0.2,0.2-0.4s-0.1-0.2-0.2-0.1
			C18.8,30.9,18.7,31.1,18.7,31.2z"/>
		<polygon opacity="0.39" points="20,34.2 18,35.2 18,24.2 20,23.2 		"/>
	</g>
	<g>
		<polygon fill="#FFCC00" points="18,14 33,6 39,0 25,7 		"/>
		<polygon fill="#FF9900" points="39,0 25,7 32,21 32,22 46,15 46,14 		"/>
		<polygon opacity="0.39" points="32,21 46,14 46,15 32,22 		"/>
		<polygon fill="#CC291F" points="25,7 18,14 18,15 32,22 32,21 		"/>
		<path fill="#FF9900" d="M19.2,15c0,0.1-0.1,0.2-0.2,0.1c-0.1-0.1-0.2-0.2-0.2-0.4s0.1-0.2,0.2-0.1C19.1,14.7,19.2,14.9,19.2,15z"
			/>
		<path fill="#FF9900" d="M31.3,21c0,0.1-0.1,0.2-0.2,0.1c-0.1-0.1-0.2-0.2-0.2-0.4s0.1-0.2,0.2-0.1C31.2,20.7,31.3,20.9,31.3,21z"
			/>
		<polygon opacity="0.06" points="25,7 18,14 18,15 32,22 32,21 		"/>
	</g>
	<g>
		<g>
			<path fill="#CC291F" d="M22,31l-2.7,1.3c-0.9,0.4-1.6,1.1-2,1.9l-5.5,9.4c-0.5,0.8-1.2,1.5-2,1.9l-2,1C6,47.5,5,49.2,5,51l0,0
				l0.4,0.1l0,0l4.7-2.3c0.9-0.4,1.6-1.1,2-1.9l5.5-9.4c0.5-0.8,1.2-1.5,2-1.9l2.7-1.3v-3L22,31z"/>
			<path opacity="0.39" d="M22.4,31.1v3l-2.7,1.3c-0.9,0.4-1.6,1.1-2,1.9l-5.5,9.4c-0.5,0.8-1.2,1.5-2,1.9l-4.7,2.3l0,0
				c0-1.8,1-3.5,2.7-4.3l2-1c0.9-0.4,1.6-1.1,2-1.9l5.5-9.4c0.5-0.8,1.2-1.5,2-1.9L22.4,31.1z"/>
		</g>
		<path fill="#999999" d="M22,33l6,3l-2.7,1.3c-0.9,0.4-1.6,1.1-2,1.9l-5.5,9.4c-0.5,0.8-1.2,1.5-2,1.9l-1.8,0.9
			C13.3,51.8,13,52.4,13,53l0,0l-6-3l0,0c0-0.6,0.3-1.2,0.9-1.4l1.8-0.9c0.9-0.4,1.6-1.1,2-1.9l5.5-9.4c0.5-0.8,1.2-1.5,2-1.9L22,33
			z"/>
		<g>
			<path fill="#CC291F" d="M27.6,33.9l-2.7,1.3c-0.9,0.4-1.6,1.1-2,1.9l-5.5,9.4c-0.5,0.8-1.2,1.5-2,1.9l-2,1
				c-1.6,0.8-2.7,2.5-2.7,4.3l0,0L11,54l0,0l4.7-2.3c0.9-0.4,1.6-1.1,2-1.9l5.5-9.4c0.5-0.8,1.2-1.5,2-1.9L28,37v-3L27.6,33.9z"/>
			<path opacity="0.39" d="M28,34v3l-2.7,1.3c-0.9,0.4-1.6,1.1-2,1.9l-5.5,9.4c-0.5,0.8-1.2,1.5-2,1.9L11,54v0c0-1.8,1-3.5,2.7-4.3
				l2-1c0.9-0.4,1.6-1.1,2-1.9l5.5-9.4c0.5-0.8,1.2-1.5,2-1.9L28,34z"/>
		</g>
	</g>
	<path fill="#CC291F" d="M29,32.5c-0.1,0-0.2,0-0.2-0.1l-10-5c-0.2-0.1-0.3-0.4-0.2-0.7c0.1-0.2,0.4-0.3,0.7-0.2l10,5
		c0.2,0.1,0.3,0.4,0.2,0.7C29.4,32.4,29.2,32.5,29,32.5z"/>
	<g>
		<polygon fill="#CC291F" points="30,39 28,40 27.6,39.8 27.6,28.8 29.6,27.8 30,28 		"/>
		<polygon opacity="0.06" points="27.6,39.8 28,40 28,29 27.6,28.8 		"/>
		<path fill="#FF9900" d="M28.7,31.8c0,0.1,0.1,0.2,0.2,0.1c0.1-0.1,0.2-0.2,0.2-0.4s-0.1-0.2-0.2-0.1
			C28.8,31.5,28.7,31.7,28.7,31.8z"/>
		<path fill="#FF9900" d="M28.7,36c0,0.1,0.1,0.2,0.2,0.1c0.1-0.1,0.2-0.2,0.2-0.4c0-0.1-0.1-0.2-0.2-0.1
			C28.8,35.7,28.7,35.9,28.7,36z"/>
		<polygon opacity="0.39" points="30,39 28,40 28,29 30,28 		"/>
	</g>
</g>
</svg>
