<?xml version="1.0" encoding="utf-8"?>
<!-- Generator: Adobe Illustrator 18.1.0, SVG Export Plug-In . SVG Version: 6.00 Build 0)  -->
<svg version="1.1" id="Layer_1" xmlns="http://www.w3.org/2000/svg" xmlns:xlink="http://www.w3.org/1999/xlink" x="0px" y="0px"
	 viewBox="0 0 224 160" enable-background="new 0 0 224 160" xml:space="preserve">
<g>
	<g>
		<g>
			<polygon fill="#762C07" points="128,80 160,96 160,55 128,39 			"/>
			<g opacity="0.2">
				<polygon fill="#D8D8D8" points="132,79 129,77.5 129,79.5 132,81 				"/>
				<polygon fill="#D8D8D8" points="136,81 133,79.5 133,81.5 136,83 				"/>
				<polygon fill="#D8D8D8" points="140,83 137,81.5 137,83.5 140,85 				"/>
				<polygon fill="#D8D8D8" points="144,85 141,83.5 141,85.5 144,87 				"/>
				<polygon fill="#D8D8D8" points="148,87 145,85.5 145,87.5 148,89 				"/>
				<polygon fill="#D8D8D8" points="152,89 149,87.5 149,89.5 152,91 				"/>
				<polygon fill="#D8D8D8" points="156,91 153,89.5 153,91.5 156,93 				"/>
				<polygon fill="#D8D8D8" points="160,93 157,91.5 157,93.5 160,95 				"/>
				<polygon fill="#D8D8D8" points="130,75 128,74 128,76 130,77 				"/>
				<polygon fill="#D8D8D8" points="134,77 131,75.5 131,77.5 134,79 				"/>
				<polygon fill="#D8D8D8" points="138,79 135,77.5 135,79.5 138,81 				"/>
				<polygon fill="#D8D8D8" points="142,81 139,79.5 139,81.5 142,83 				"/>
				<polygon fill="#D8D8D8" points="146,83 143,81.5 143,83.5 146,85 				"/>
				<polygon fill="#D8D8D8" points="150,85 147,83.5 147,85.5 150,87 				"/>
				<polygon fill="#D8D8D8" points="154,87 151,85.5 151,87.5 154,89 				"/>
				<polygon fill="#D8D8D8" points="158,89 155,87.5 155,89.5 158,91 				"/>
				<polygon fill="#D8D8D8" points="132,73 129,71.5 129,73.5 132,75 				"/>
				<polygon fill="#D8D8D8" points="136,75 133,73.5 133,75.5 136,77 				"/>
				<polygon fill="#D8D8D8" points="140,77 137,75.5 137,77.5 140,79 				"/>
				<polygon fill="#D8D8D8" points="144,79 141,77.5 141,79.5 144,81 				"/>
				<polygon fill="#D8D8D8" points="148,81 145,79.5 145,81.5 148,83 				"/>
				<polygon fill="#D8D8D8" points="152,83 149,81.5 149,83.5 152,85 				"/>
				<polygon fill="#D8D8D8" points="156,85 153,83.5 153,85.5 156,87 				"/>
				<polygon fill="#D8D8D8" points="160,87 157,85.5 157,87.5 160,89 				"/>
				<polygon fill="#D8D8D8" points="130,69 128,68 128,70 130,71 				"/>
				<polygon fill="#D8D8D8" points="134,71 131,69.5 131,71.5 134,73 				"/>
				<polygon fill="#D8D8D8" points="138,73 135,71.5 135,73.5 138,75 				"/>
				<polygon fill="#D8D8D8" points="142,75 139,73.5 139,75.5 142,77 				"/>
				<polygon fill="#D8D8D8" points="146,77 143,75.5 143,77.5 146,79 				"/>
				<polygon fill="#D8D8D8" points="150,79 147,77.5 147,79.5 150,81 				"/>
				<polygon fill="#D8D8D8" points="154,81 151,79.5 151,81.5 154,83 				"/>
				<polygon fill="#D8D8D8" points="158,83 155,81.5 155,83.5 158,85 				"/>
				<polygon fill="#D8D8D8" points="132,67 129,65.5 129,67.5 132,69 				"/>
				<polygon fill="#D8D8D8" points="136,69 133,67.5 133,69.5 136,71 				"/>
				<polygon fill="#D8D8D8" points="140,71 137,69.5 137,71.5 140,73 				"/>
				<polygon fill="#D8D8D8" points="144,73 141,71.5 141,73.5 144,75 				"/>
				<polygon fill="#D8D8D8" points="148,75 145,73.5 145,75.5 148,77 				"/>
				<polygon fill="#D8D8D8" points="152,77 149,75.5 149,77.5 152,79 				"/>
				<polygon fill="#D8D8D8" points="156,79 153,77.5 153,79.5 156,81 				"/>
				<polygon fill="#D8D8D8" points="160,81 157,79.5 157,81.5 160,83 				"/>
				<polygon fill="#D8D8D8" points="130,63 128,62 128,64 130,65 				"/>
				<polygon fill="#D8D8D8" points="134,65 131,63.5 131,65.5 134,67 				"/>
				<polygon fill="#D8D8D8" points="138,67 135,65.5 135,67.5 138,69 				"/>
				<polygon fill="#D8D8D8" points="142,69 139,67.5 139,69.5 142,71 				"/>
				<polygon fill="#D8D8D8" points="146,71 143,69.5 143,71.5 146,73 				"/>
				<polygon fill="#D8D8D8" points="150,73 147,71.5 147,73.5 150,75 				"/>
				<polygon fill="#D8D8D8" points="154,75 151,73.5 151,75.5 154,77 				"/>
				<polygon fill="#D8D8D8" points="158,77 155,75.5 155,77.5 158,79 				"/>
				<polygon fill="#D8D8D8" points="132,61 129,59.5 129,61.5 132,63 				"/>
				<polygon fill="#D8D8D8" points="136,63 133,61.5 133,63.5 136,65 				"/>
				<polygon fill="#D8D8D8" points="140,65 137,63.5 137,65.5 140,67 				"/>
				<polygon fill="#D8D8D8" points="144,67 141,65.5 141,67.5 144,69 				"/>
				<polygon fill="#D8D8D8" points="148,69 145,67.5 145,69.5 148,71 				"/>
				<polygon fill="#D8D8D8" points="152,71 149,69.5 149,71.5 152,73 				"/>
				<polygon fill="#D8D8D8" points="156,73 153,71.5 153,73.5 156,75 				"/>
				<polygon fill="#D8D8D8" points="160,75 157,73.5 157,75.5 160,77 				"/>
				<polygon fill="#D8D8D8" points="130,57 128,56 128,58 130,59 				"/>
				<polygon fill="#D8D8D8" points="134,59 131,57.5 131,59.5 134,61 				"/>
				<polygon fill="#D8D8D8" points="138,61 135,59.5 135,61.5 138,63 				"/>
				<polygon fill="#D8D8D8" points="142,63 139,61.5 139,63.5 142,65 				"/>
				<polygon fill="#D8D8D8" points="146,65 143,63.5 143,65.5 146,67 				"/>
				<polygon fill="#D8D8D8" points="150,67 147,65.5 147,67.5 150,69 				"/>
				<polygon fill="#D8D8D8" points="154,69 151,67.5 151,69.5 154,71 				"/>
				<polygon fill="#D8D8D8" points="158,71 155,69.5 155,71.5 158,73 				"/>
				<polygon fill="#D8D8D8" points="132,55 129,53.5 129,55.5 132,57 				"/>
				<polygon fill="#D8D8D8" points="136,57 133,55.5 133,57.5 136,59 				"/>
				<polygon fill="#D8D8D8" points="140,59 137,57.5 137,59.5 140,61 				"/>
				<polygon fill="#D8D8D8" points="144,61 141,59.5 141,61.5 144,63 				"/>
				<polygon fill="#D8D8D8" points="148,63 145,61.5 145,63.5 148,65 				"/>
				<polygon fill="#D8D8D8" points="152,65 149,63.5 149,65.5 152,67 				"/>
				<polygon fill="#D8D8D8" points="156,67 153,65.5 153,67.5 156,69 				"/>
				<polygon fill="#D8D8D8" points="160,69 157,67.5 157,69.5 160,71 				"/>
				<polygon fill="#D8D8D8" points="130,51 128,50 128,52 130,53 				"/>
				<polygon fill="#D8D8D8" points="134,53 131,51.5 131,53.5 134,55 				"/>
				<polygon fill="#D8D8D8" points="138,55 135,53.5 135,55.5 138,57 				"/>
				<polygon fill="#D8D8D8" points="142,57 139,55.5 139,57.5 142,59 				"/>
				<polygon fill="#D8D8D8" points="146,59 143,57.5 143,59.5 146,61 				"/>
				<polygon fill="#D8D8D8" points="150,61 147,59.5 147,61.5 150,63 				"/>
				<polygon fill="#D8D8D8" points="154,63 151,61.5 151,63.5 154,65 				"/>
				<polygon fill="#D8D8D8" points="158,65 155,63.5 155,65.5 158,67 				"/>
				<polygon fill="#D8D8D8" points="132,49 129,47.5 129,49.5 132,51 				"/>
				<polygon fill="#D8D8D8" points="136,51 133,49.5 133,51.5 136,53 				"/>
				<polygon fill="#D8D8D8" points="140,53 137,51.5 137,53.5 140,55 				"/>
				<polygon fill="#D8D8D8" points="144,55 141,53.5 141,55.5 144,57 				"/>
				<polygon fill="#D8D8D8" points="148,57 145,55.5 145,57.5 148,59 				"/>
				<polygon fill="#D8D8D8" points="152,59 149,57.5 149,59.5 152,61 				"/>
				<polygon fill="#D8D8D8" points="156,61 153,59.5 153,61.5 156,63 				"/>
				<polygon fill="#D8D8D8" points="160,63 157,61.5 157,63.5 160,65 				"/>
				<polygon fill="#D8D8D8" points="130,45 128,44 128,46 130,47 				"/>
				<polygon fill="#D8D8D8" points="134,47 131,45.5 131,47.5 134,49 				"/>
				<polygon fill="#D8D8D8" points="138,49 135,47.5 135,49.5 138,51 				"/>
				<polygon fill="#D8D8D8" points="142,51 139,49.5 139,51.5 142,53 				"/>
				<polygon fill="#D8D8D8" points="146,53 143,51.5 143,53.5 146,55 				"/>
				<polygon fill="#D8D8D8" points="150,55 147,53.5 147,55.5 150,57 				"/>
				<polygon fill="#D8D8D8" points="154,57 151,55.5 151,57.5 154,59 				"/>
				<polygon fill="#D8D8D8" points="158,59 155,57.5 155,59.5 158,61 				"/>
				<polygon fill="#D8D8D8" points="132,43 129,41.5 129,43.5 132,45 				"/>
				<polygon fill="#D8D8D8" points="136,45 133,43.5 133,45.5 136,47 				"/>
				<polygon fill="#D8D8D8" points="140,47 137,45.5 137,47.5 140,49 				"/>
				<polygon fill="#D8D8D8" points="144,49 141,47.5 141,49.5 144,51 				"/>
				<polygon fill="#D8D8D8" points="148,51 145,49.5 145,51.5 148,53 				"/>
				<polygon fill="#D8D8D8" points="152,53 149,51.5 149,53.5 152,55 				"/>
				<polygon fill="#D8D8D8" points="156,55 153,53.5 153,55.5 156,57 				"/>
				<polygon fill="#D8D8D8" points="160,57 157,55.5 157,57.5 160,59 				"/>
				<polygon fill="#D8D8D8" points="130,39 128,38 128,40 130,41 				"/>
				<polygon fill="#D8D8D8" points="134,41 131,39.5 131,41.5 134,43 				"/>
				<polygon fill="#D8D8D8" points="138,43 135,41.5 135,43.5 138,45 				"/>
				<polygon fill="#D8D8D8" points="142,45 139,43.5 139,45.5 142,47 				"/>
				<polygon fill="#D8D8D8" points="146,47 143,45.5 143,47.5 146,49 				"/>
				<polygon fill="#D8D8D8" points="150,49 147,47.5 147,49.5 150,51 				"/>
				<polygon fill="#D8D8D8" points="154,51 151,49.5 151,51.5 154,53 				"/>
				<polygon fill="#D8D8D8" points="158,53 155,51.5 155,53.5 158,55 				"/>
				<polygon fill="#D8D8D8" points="160,60 159,59.5 159,61.5 160,62 				"/>
				<polygon fill="#D8D8D8" points="160,66 159,65.5 159,67.5 160,68 				"/>
				<polygon fill="#D8D8D8" points="160,72 159,71.5 159,73.5 160,74 				"/>
				<polygon fill="#D8D8D8" points="160,78 159,77.5 159,79.5 160,80 				"/>
				<polygon fill="#D8D8D8" points="160,84 159,83.5 159,85.5 160,86 				"/>
				<polygon fill="#D8D8D8" points="160,90 159,89.5 159,91.5 160,92 				"/>
			</g>
		</g>
		<g>
			<polygon fill="#D8D8D8" points="148,65 139,60.5 139,49.5 148,54 			"/>
			<g>
				<polygon fill="#3399CC" points="140,51 140,60 143,61.5 143,52.5 				"/>
				<polygon opacity="0.2" fill="#FFFFFF" points="140,53 140,60 143,61.5 				"/>
				<polygon fill="#3399CC" points="144,53 144,62 147,63.5 147,54.5 				"/>
			</g>
			<polygon opacity="0.15" points="143,53.5 140,52 140,51 143,52.5 			"/>
			<polygon opacity="0.15" points="147,55.5 144,54 144,53 147,54.5 			"/>
		</g>
	</g>
	<g>
		<polygon fill="#762C07" points="32,75 64,91 64,71 32,55 		"/>
		<g opacity="0.2">
			<polygon fill="#D8D8D8" points="34,73 32,72 32,74 34,75 			"/>
			<polygon fill="#D8D8D8" points="38,75 35,73.5 35,75.5 38,77 			"/>
			<polygon fill="#D8D8D8" points="42,77 39,75.5 39,77.5 42,79 			"/>
			<polygon fill="#D8D8D8" points="46,79 43,77.5 43,79.5 46,81 			"/>
			<polygon fill="#D8D8D8" points="50,81 47,79.5 47,81.5 50,83 			"/>
			<polygon fill="#D8D8D8" points="54,83 51,81.5 51,83.5 54,85 			"/>
			<polygon fill="#D8D8D8" points="58,85 55,83.5 55,85.5 58,87 			"/>
			<polygon fill="#D8D8D8" points="62,87 59,85.5 59,87.5 62,89 			"/>
			<polygon fill="#D8D8D8" points="36,71 33,69.5 33,71.5 36,73 			"/>
			<polygon fill="#D8D8D8" points="40,73 37,71.5 37,73.5 40,75 			"/>
			<polygon fill="#D8D8D8" points="44,75 41,73.5 41,75.5 44,77 			"/>
			<polygon fill="#D8D8D8" points="48,77 45,75.5 45,77.5 48,79 			"/>
			<polygon fill="#D8D8D8" points="52,79 49,77.5 49,79.5 52,81 			"/>
			<polygon fill="#D8D8D8" points="56,81 53,79.5 53,81.5 56,83 			"/>
			<polygon fill="#D8D8D8" points="60,83 57,81.5 57,83.5 60,85 			"/>
			<polygon fill="#D8D8D8" points="64,85 61,83.5 61,85.5 64,87 			"/>
			<polygon fill="#D8D8D8" points="34,67 32,66 32,68 34,69 			"/>
			<polygon fill="#D8D8D8" points="38,69 35,67.5 35,69.5 38,71 			"/>
			<polygon fill="#D8D8D8" points="42,71 39,69.5 39,71.5 42,73 			"/>
			<polygon fill="#D8D8D8" points="46,73 43,71.5 43,73.5 46,75 			"/>
			<polygon fill="#D8D8D8" points="50,75 47,73.5 47,75.5 50,77 			"/>
			<polygon fill="#D8D8D8" points="54,77 51,75.5 51,77.5 54,79 			"/>
			<polygon fill="#D8D8D8" points="58,79 55,77.5 55,79.5 58,81 			"/>
			<polygon fill="#D8D8D8" points="62,81 59,79.5 59,81.5 62,83 			"/>
			<polygon fill="#D8D8D8" points="36,65 33,63.5 33,65.5 36,67 			"/>
			<polygon fill="#D8D8D8" points="40,67 37,65.5 37,67.5 40,69 			"/>
			<polygon fill="#D8D8D8" points="44,69 41,67.5 41,69.5 44,71 			"/>
			<polygon fill="#D8D8D8" points="48,71 45,69.5 45,71.5 48,73 			"/>
			<polygon fill="#D8D8D8" points="52,73 49,71.5 49,73.5 52,75 			"/>
			<polygon fill="#D8D8D8" points="56,75 53,73.5 53,75.5 56,77 			"/>
			<polygon fill="#D8D8D8" points="60,77 57,75.5 57,77.5 60,79 			"/>
			<polygon fill="#D8D8D8" points="64,79 61,77.5 61,79.5 64,81 			"/>
			<polygon fill="#D8D8D8" points="34,61 32,60 32,62 34,63 			"/>
			<polygon fill="#D8D8D8" points="38,63 35,61.5 35,63.5 38,65 			"/>
			<polygon fill="#D8D8D8" points="42,65 39,63.5 39,65.5 42,67 			"/>
			<polygon fill="#D8D8D8" points="46,67 43,65.5 43,67.5 46,69 			"/>
			<polygon fill="#D8D8D8" points="50,69 47,67.5 47,69.5 50,71 			"/>
			<polygon fill="#D8D8D8" points="54,71 51,69.5 51,71.5 54,73 			"/>
			<polygon fill="#D8D8D8" points="58,73 55,71.5 55,73.5 58,75 			"/>
			<polygon fill="#D8D8D8" points="62,75 59,73.5 59,75.5 62,77 			"/>
			<polygon fill="#D8D8D8" points="36,59 33,57.5 33,59.5 36,61 			"/>
			<polygon fill="#D8D8D8" points="40,61 37,59.5 37,61.5 40,63 			"/>
			<polygon fill="#D8D8D8" points="44,63 41,61.5 41,63.5 44,65 			"/>
			<polygon fill="#D8D8D8" points="48,65 45,63.5 45,65.5 48,67 			"/>
			<polygon fill="#D8D8D8" points="52,67 49,65.5 49,67.5 52,69 			"/>
			<polygon fill="#D8D8D8" points="56,69 53,67.5 53,69.5 56,71 			"/>
			<polygon fill="#D8D8D8" points="60,71 57,69.5 57,71.5 60,73 			"/>
			<polygon fill="#D8D8D8" points="64,73 61,71.5 61,73.5 64,75 			"/>
			<polygon fill="#D8D8D8" points="34,55 32,54 32,56 34,57 			"/>
			<polygon fill="#D8D8D8" points="38,57 35,55.5 35,57.5 38,59 			"/>
			<polygon fill="#D8D8D8" points="42,59 39,57.5 39,59.5 42,61 			"/>
			<polygon fill="#D8D8D8" points="46,61 43,59.5 43,61.5 46,63 			"/>
			<polygon fill="#D8D8D8" points="50,63 47,61.5 47,63.5 50,65 			"/>
			<polygon fill="#D8D8D8" points="54,65 51,63.5 51,65.5 54,67 			"/>
			<polygon fill="#D8D8D8" points="58,67 55,65.5 55,67.5 58,69 			"/>
			<polygon fill="#D8D8D8" points="62,69 59,67.5 59,69.5 62,71 			"/>
			<polygon fill="#D8D8D8" points="64,76 63,75.5 63,77.5 64,78 			"/>
			<polygon fill="#D8D8D8" points="64,82 63,81.5 63,83.5 64,84 			"/>
			<polygon fill="#D8D8D8" points="64,88 63,87.5 63,89.5 64,90 			"/>
		</g>
	</g>
	<g>
		<polygon fill="#762C07" points="128,144 221,97.5 221,56.5 128,103 		"/>
		<g opacity="0.2">
			<polygon fill="#D8D8D8" points="132,139 129,140.5 129,142.5 132,141 			"/>
			<polygon fill="#D8D8D8" points="136,137 133,138.5 133,140.5 136,139 			"/>
			<polygon fill="#D8D8D8" points="140,135 137,136.5 137,138.5 140,137 			"/>
			<polygon fill="#D8D8D8" points="144,133 141,134.5 141,136.5 144,135 			"/>
			<polygon fill="#D8D8D8" points="148,131 145,132.5 145,134.5 148,133 			"/>
			<polygon fill="#D8D8D8" points="152,129 149,130.5 149,132.5 152,131 			"/>
			<polygon fill="#D8D8D8" points="156,127 153,128.5 153,130.5 156,129 			"/>
			<polygon fill="#D8D8D8" points="160,125 157,126.5 157,128.5 160,127 			"/>
			<polygon fill="#D8D8D8" points="164,123 161,124.5 161,126.5 164,125 			"/>
			<polygon fill="#D8D8D8" points="168,121 165,122.5 165,124.5 168,123 			"/>
			<polygon fill="#D8D8D8" points="172,119 169,120.5 169,122.5 172,121 			"/>
			<polygon fill="#D8D8D8" points="176,117 173,118.5 173,120.5 176,119 			"/>
			<polygon fill="#D8D8D8" points="180,115 177,116.5 177,118.5 180,117 			"/>
			<polygon fill="#D8D8D8" points="184,113 181,114.5 181,116.5 184,115 			"/>
			<polygon fill="#D8D8D8" points="188,111 185,112.5 185,114.5 188,113 			"/>
			<polygon fill="#D8D8D8" points="130,137 128,138 128,140 130,139 			"/>
			<polygon fill="#D8D8D8" points="134,135 131,136.5 131,138.5 134,137 			"/>
			<polygon fill="#D8D8D8" points="138,133 135,134.5 135,136.5 138,135 			"/>
			<polygon fill="#D8D8D8" points="142,131 139,132.5 139,134.5 142,133 			"/>
			<polygon fill="#D8D8D8" points="146,129 143,130.5 143,132.5 146,131 			"/>
			<polygon fill="#D8D8D8" points="150,127 147,128.5 147,130.5 150,129 			"/>
			<polygon fill="#D8D8D8" points="154,125 151,126.5 151,128.5 154,127 			"/>
			<polygon fill="#D8D8D8" points="158,123 155,124.5 155,126.5 158,125 			"/>
			<polygon fill="#D8D8D8" points="162,121 159,122.5 159,124.5 162,123 			"/>
			<polygon fill="#D8D8D8" points="166,119 163,120.5 163,122.5 166,121 			"/>
			<polygon fill="#D8D8D8" points="170,117 167,118.5 167,120.5 170,119 			"/>
			<polygon fill="#D8D8D8" points="174,115 171,116.5 171,118.5 174,117 			"/>
			<polygon fill="#D8D8D8" points="178,113 175,114.5 175,116.5 178,115 			"/>
			<polygon fill="#D8D8D8" points="182,111 179,112.5 179,114.5 182,113 			"/>
			<polygon fill="#D8D8D8" points="186,109 183,110.5 183,112.5 186,111 			"/>
			<polygon fill="#D8D8D8" points="190,107 187,108.5 187,110.5 190,109 			"/>
			<polygon fill="#D8D8D8" points="132,133 129,134.5 129,136.5 132,135 			"/>
			<polygon fill="#D8D8D8" points="136,131 133,132.5 133,134.5 136,133 			"/>
			<polygon fill="#D8D8D8" points="140,129 137,130.5 137,132.5 140,131 			"/>
			<polygon fill="#D8D8D8" points="144,127 141,128.5 141,130.5 144,129 			"/>
			<polygon fill="#D8D8D8" points="148,125 145,126.5 145,128.5 148,127 			"/>
			<polygon fill="#D8D8D8" points="152,123 149,124.5 149,126.5 152,125 			"/>
			<polygon fill="#D8D8D8" points="156,121 153,122.5 153,124.5 156,123 			"/>
			<polygon fill="#D8D8D8" points="160,119 157,120.5 157,122.5 160,121 			"/>
			<polygon fill="#D8D8D8" points="164,117 161,118.5 161,120.5 164,119 			"/>
			<polygon fill="#D8D8D8" points="168,115 165,116.5 165,118.5 168,117 			"/>
			<polygon fill="#D8D8D8" points="172,113 169,114.5 169,116.5 172,115 			"/>
			<polygon fill="#D8D8D8" points="176,111 173,112.5 173,114.5 176,113 			"/>
			<polygon fill="#D8D8D8" points="180,109 177,110.5 177,112.5 180,111 			"/>
			<polygon fill="#D8D8D8" points="184,107 181,108.5 181,110.5 184,109 			"/>
			<polygon fill="#D8D8D8" points="188,105 185,106.5 185,108.5 188,107 			"/>
			<polygon fill="#D8D8D8" points="130,131 128,132 128,134 130,133 			"/>
			<polygon fill="#D8D8D8" points="134,129 131,130.5 131,132.5 134,131 			"/>
			<polygon fill="#D8D8D8" points="138,127 135,128.5 135,130.5 138,129 			"/>
			<polygon fill="#D8D8D8" points="142,125 139,126.5 139,128.5 142,127 			"/>
			<polygon fill="#D8D8D8" points="146,123 143,124.5 143,126.5 146,125 			"/>
			<polygon fill="#D8D8D8" points="150,121 147,122.5 147,124.5 150,123 			"/>
			<polygon fill="#D8D8D8" points="154,119 151,120.5 151,122.5 154,121 			"/>
			<polygon fill="#D8D8D8" points="158,117 155,118.5 155,120.5 158,119 			"/>
			<polygon fill="#D8D8D8" points="162,115 159,116.5 159,118.5 162,117 			"/>
			<polygon fill="#D8D8D8" points="166,113 163,114.5 163,116.5 166,115 			"/>
			<polygon fill="#D8D8D8" points="170,111 167,112.5 167,114.5 170,113 			"/>
			<polygon fill="#D8D8D8" points="174,109 171,110.5 171,112.5 174,111 			"/>
			<polygon fill="#D8D8D8" points="178,107 175,108.5 175,110.5 178,109 			"/>
			<polygon fill="#D8D8D8" points="182,105 179,106.5 179,108.5 182,107 			"/>
			<polygon fill="#D8D8D8" points="186,103 183,104.5 183,106.5 186,105 			"/>
			<polygon fill="#D8D8D8" points="190,101 187,102.5 187,104.5 190,103 			"/>
			<polygon fill="#D8D8D8" points="132,127 129,128.5 129,130.5 132,129 			"/>
			<polygon fill="#D8D8D8" points="136,125 133,126.5 133,128.5 136,127 			"/>
			<polygon fill="#D8D8D8" points="140,123 137,124.5 137,126.5 140,125 			"/>
			<polygon fill="#D8D8D8" points="144,121 141,122.5 141,124.5 144,123 			"/>
			<polygon fill="#D8D8D8" points="148,119 145,120.5 145,122.5 148,121 			"/>
			<polygon fill="#D8D8D8" points="152,117 149,118.5 149,120.5 152,119 			"/>
			<polygon fill="#D8D8D8" points="156,115 153,116.5 153,118.5 156,117 			"/>
			<polygon fill="#D8D8D8" points="160,113 157,114.5 157,116.5 160,115 			"/>
			<polygon fill="#D8D8D8" points="164,111 161,112.5 161,114.5 164,113 			"/>
			<polygon fill="#D8D8D8" points="168,109 165,110.5 165,112.5 168,111 			"/>
			<polygon fill="#D8D8D8" points="172,107 169,108.5 169,110.5 172,109 			"/>
			<polygon fill="#D8D8D8" points="176,105 173,106.5 173,108.5 176,107 			"/>
			<polygon fill="#D8D8D8" points="180,103 177,104.5 177,106.5 180,105 			"/>
			<polygon fill="#D8D8D8" points="184,101 181,102.5 181,104.5 184,103 			"/>
			<polygon fill="#D8D8D8" points="188,99 185,100.5 185,102.5 188,101 			"/>
			<polygon fill="#D8D8D8" points="130,125 128,126 128,128 130,127 			"/>
			<polygon fill="#D8D8D8" points="134,123 131,124.5 131,126.5 134,125 			"/>
			<polygon fill="#D8D8D8" points="138,121 135,122.5 135,124.5 138,123 			"/>
			<polygon fill="#D8D8D8" points="142,119 139,120.5 139,122.5 142,121 			"/>
			<polygon fill="#D8D8D8" points="146,117 143,118.5 143,120.5 146,119 			"/>
			<polygon fill="#D8D8D8" points="150,115 147,116.5 147,118.5 150,117 			"/>
			<polygon fill="#D8D8D8" points="154,113 151,114.5 151,116.5 154,115 			"/>
			<polygon fill="#D8D8D8" points="158,111 155,112.5 155,114.5 158,113 			"/>
			<polygon fill="#D8D8D8" points="162,109 159,110.5 159,112.5 162,111 			"/>
			<polygon fill="#D8D8D8" points="166,107 163,108.5 163,110.5 166,109 			"/>
			<polygon fill="#D8D8D8" points="170,105 167,106.5 167,108.5 170,107 			"/>
			<polygon fill="#D8D8D8" points="174,103 171,104.5 171,106.5 174,105 			"/>
			<polygon fill="#D8D8D8" points="178,101 175,102.5 175,104.5 178,103 			"/>
			<polygon fill="#D8D8D8" points="182,99 179,100.5 179,102.5 182,101 			"/>
			<polygon fill="#D8D8D8" points="186,97 183,98.5 183,100.5 186,99 			"/>
			<polygon fill="#D8D8D8" points="190,95 187,96.5 187,98.5 190,97 			"/>
			<polygon fill="#D8D8D8" points="132,121 129,122.5 129,124.5 132,123 			"/>
			<polygon fill="#D8D8D8" points="136,119 133,120.5 133,122.5 136,121 			"/>
			<polygon fill="#D8D8D8" points="140,117 137,118.5 137,120.5 140,119 			"/>
			<polygon fill="#D8D8D8" points="144,115 141,116.5 141,118.5 144,117 			"/>
			<polygon fill="#D8D8D8" points="148,113 145,114.5 145,116.5 148,115 			"/>
			<polygon fill="#D8D8D8" points="152,111 149,112.5 149,114.5 152,113 			"/>
			<polygon fill="#D8D8D8" points="156,109 153,110.5 153,112.5 156,111 			"/>
			<polygon fill="#D8D8D8" points="160,107 157,108.5 157,110.5 160,109 			"/>
			<polygon fill="#D8D8D8" points="164,105 161,106.5 161,108.5 164,107 			"/>
			<polygon fill="#D8D8D8" points="168,103 165,104.5 165,106.5 168,105 			"/>
			<polygon fill="#D8D8D8" points="172,101 169,102.5 169,104.5 172,103 			"/>
			<polygon fill="#D8D8D8" points="176,99 173,100.5 173,102.5 176,101 			"/>
			<polygon fill="#D8D8D8" points="180,97 177,98.5 177,100.5 180,99 			"/>
			<polygon fill="#D8D8D8" points="184,95 181,96.5 181,98.5 184,97 			"/>
			<polygon fill="#D8D8D8" points="188,93 185,94.5 185,96.5 188,95 			"/>
			<polygon fill="#D8D8D8" points="130,119 128,120 128,122 130,121 			"/>
			<polygon fill="#D8D8D8" points="134,117 131,118.5 131,120.5 134,119 			"/>
			<polygon fill="#D8D8D8" points="138,115 135,116.5 135,118.5 138,117 			"/>
			<polygon fill="#D8D8D8" points="142,113 139,114.5 139,116.5 142,115 			"/>
			<polygon fill="#D8D8D8" points="146,111 143,112.5 143,114.5 146,113 			"/>
			<polygon fill="#D8D8D8" points="150,109 147,110.5 147,112.5 150,111 			"/>
			<polygon fill="#D8D8D8" points="154,107 151,108.5 151,110.5 154,109 			"/>
			<polygon fill="#D8D8D8" points="158,105 155,106.5 155,108.5 158,107 			"/>
			<polygon fill="#D8D8D8" points="162,103 159,104.5 159,106.5 162,105 			"/>
			<polygon fill="#D8D8D8" points="166,101 163,102.5 163,104.5 166,103 			"/>
			<polygon fill="#D8D8D8" points="170,99 167,100.5 167,102.5 170,101 			"/>
			<polygon fill="#D8D8D8" points="174,97 171,98.5 171,100.5 174,99 			"/>
			<polygon fill="#D8D8D8" points="178,95 175,96.5 175,98.5 178,97 			"/>
			<polygon fill="#D8D8D8" points="182,93 179,94.5 179,96.5 182,95 			"/>
			<polygon fill="#D8D8D8" points="186,91 183,92.5 183,94.5 186,93 			"/>
			<polygon fill="#D8D8D8" points="190,89 187,90.5 187,92.5 190,91 			"/>
			<polygon fill="#D8D8D8" points="132,115 129,116.5 129,118.5 132,117 			"/>
			<polygon fill="#D8D8D8" points="136,113 133,114.5 133,116.5 136,115 			"/>
			<polygon fill="#D8D8D8" points="140,111 137,112.5 137,114.5 140,113 			"/>
			<polygon fill="#D8D8D8" points="144,109 141,110.5 141,112.5 144,111 			"/>
			<polygon fill="#D8D8D8" points="148,107 145,108.5 145,110.5 148,109 			"/>
			<polygon fill="#D8D8D8" points="152,105 149,106.5 149,108.5 152,107 			"/>
			<polygon fill="#D8D8D8" points="156,103 153,104.5 153,106.5 156,105 			"/>
			<polygon fill="#D8D8D8" points="160,101 157,102.5 157,104.5 160,103 			"/>
			<polygon fill="#D8D8D8" points="164,99 161,100.5 161,102.5 164,101 			"/>
			<polygon fill="#D8D8D8" points="168,97 165,98.5 165,100.5 168,99 			"/>
			<polygon fill="#D8D8D8" points="172,95 169,96.5 169,98.5 172,97 			"/>
			<polygon fill="#D8D8D8" points="176,93 173,94.5 173,96.5 176,95 			"/>
			<polygon fill="#D8D8D8" points="180,91 177,92.5 177,94.5 180,93 			"/>
			<polygon fill="#D8D8D8" points="184,89 181,90.5 181,92.5 184,91 			"/>
			<polygon fill="#D8D8D8" points="188,87 185,88.5 185,90.5 188,89 			"/>
			<polygon fill="#D8D8D8" points="130,113 128,114 128,116 130,115 			"/>
			<polygon fill="#D8D8D8" points="134,111 131,112.5 131,114.5 134,113 			"/>
			<polygon fill="#D8D8D8" points="138,109 135,110.5 135,112.5 138,111 			"/>
			<polygon fill="#D8D8D8" points="142,107 139,108.5 139,110.5 142,109 			"/>
			<polygon fill="#D8D8D8" points="146,105 143,106.5 143,108.5 146,107 			"/>
			<polygon fill="#D8D8D8" points="150,103 147,104.5 147,106.5 150,105 			"/>
			<polygon fill="#D8D8D8" points="154,101 151,102.5 151,104.5 154,103 			"/>
			<polygon fill="#D8D8D8" points="158,99 155,100.5 155,102.5 158,101 			"/>
			<polygon fill="#D8D8D8" points="162,97 159,98.5 159,100.5 162,99 			"/>
			<polygon fill="#D8D8D8" points="166,95 163,96.5 163,98.5 166,97 			"/>
			<polygon fill="#D8D8D8" points="170,93 167,94.5 167,96.5 170,95 			"/>
			<polygon fill="#D8D8D8" points="174,91 171,92.5 171,94.5 174,93 			"/>
			<polygon fill="#D8D8D8" points="178,89 175,90.5 175,92.5 178,91 			"/>
			<polygon fill="#D8D8D8" points="182,87 179,88.5 179,90.5 182,89 			"/>
			<polygon fill="#D8D8D8" points="186,85 183,86.5 183,88.5 186,87 			"/>
			<polygon fill="#D8D8D8" points="190,83 187,84.5 187,86.5 190,85 			"/>
			<polygon fill="#D8D8D8" points="132,109 129,110.5 129,112.5 132,111 			"/>
			<polygon fill="#D8D8D8" points="136,107 133,108.5 133,110.5 136,109 			"/>
			<polygon fill="#D8D8D8" points="140,105 137,106.5 137,108.5 140,107 			"/>
			<polygon fill="#D8D8D8" points="144,103 141,104.5 141,106.5 144,105 			"/>
			<polygon fill="#D8D8D8" points="148,101 145,102.5 145,104.5 148,103 			"/>
			<polygon fill="#D8D8D8" points="152,99 149,100.5 149,102.5 152,101 			"/>
			<polygon fill="#D8D8D8" points="156,97 153,98.5 153,100.5 156,99 			"/>
			<polygon fill="#D8D8D8" points="160,95 157,96.5 157,98.5 160,97 			"/>
			<polygon fill="#D8D8D8" points="164,93 161,94.5 161,96.5 164,95 			"/>
			<polygon fill="#D8D8D8" points="168,91 165,92.5 165,94.5 168,93 			"/>
			<polygon fill="#D8D8D8" points="172,89 169,90.5 169,92.5 172,91 			"/>
			<polygon fill="#D8D8D8" points="176,87 173,88.5 173,90.5 176,89 			"/>
			<polygon fill="#D8D8D8" points="180,85 177,86.5 177,88.5 180,87 			"/>
			<polygon fill="#D8D8D8" points="184,83 181,84.5 181,86.5 184,85 			"/>
			<polygon fill="#D8D8D8" points="188,81 185,82.5 185,84.5 188,83 			"/>
			<polygon fill="#D8D8D8" points="130,107 128,108 128,110 130,109 			"/>
			<polygon fill="#D8D8D8" points="134,105 131,106.5 131,108.5 134,107 			"/>
			<polygon fill="#D8D8D8" points="138,103 135,104.5 135,106.5 138,105 			"/>
			<polygon fill="#D8D8D8" points="142,101 139,102.5 139,104.5 142,103 			"/>
			<polygon fill="#D8D8D8" points="146,99 143,100.5 143,102.5 146,101 			"/>
			<polygon fill="#D8D8D8" points="150,97 147,98.5 147,100.5 150,99 			"/>
			<polygon fill="#D8D8D8" points="154,95 151,96.5 151,98.5 154,97 			"/>
			<polygon fill="#D8D8D8" points="158,93 155,94.5 155,96.5 158,95 			"/>
			<polygon fill="#D8D8D8" points="162,91 159,92.5 159,94.5 162,93 			"/>
			<polygon fill="#D8D8D8" points="166,89 163,90.5 163,92.5 166,91 			"/>
			<polygon fill="#D8D8D8" points="170,87 167,88.5 167,90.5 170,89 			"/>
			<polygon fill="#D8D8D8" points="174,85 171,86.5 171,88.5 174,87 			"/>
			<polygon fill="#D8D8D8" points="178,83 175,84.5 175,86.5 178,85 			"/>
			<polygon fill="#D8D8D8" points="182,81 179,82.5 179,84.5 182,83 			"/>
			<polygon fill="#D8D8D8" points="186,79 183,80.5 183,82.5 186,81 			"/>
			<polygon fill="#D8D8D8" points="190,77 187,78.5 187,80.5 190,79 			"/>
			<polygon fill="#D8D8D8" points="132,103 129,104.5 129,106.5 132,105 			"/>
			<polygon fill="#D8D8D8" points="136,101 133,102.5 133,104.5 136,103 			"/>
			<polygon fill="#D8D8D8" points="140,99 137,100.5 137,102.5 140,101 			"/>
			<polygon fill="#D8D8D8" points="144,97 141,98.5 141,100.5 144,99 			"/>
			<polygon fill="#D8D8D8" points="148,95 145,96.5 145,98.5 148,97 			"/>
			<polygon fill="#D8D8D8" points="152,93 149,94.5 149,96.5 152,95 			"/>
			<polygon fill="#D8D8D8" points="156,91 153,92.5 153,94.5 156,93 			"/>
			<polygon fill="#D8D8D8" points="160,89 157,90.5 157,92.5 160,91 			"/>
			<polygon fill="#D8D8D8" points="164,87 161,88.5 161,90.5 164,89 			"/>
			<polygon fill="#D8D8D8" points="168,85 165,86.5 165,88.5 168,87 			"/>
			<polygon fill="#D8D8D8" points="172,83 169,84.5 169,86.5 172,85 			"/>
			<polygon fill="#D8D8D8" points="176,81 173,82.5 173,84.5 176,83 			"/>
			<polygon fill="#D8D8D8" points="180,79 177,80.5 177,82.5 180,81 			"/>
			<polygon fill="#D8D8D8" points="184,77 181,78.5 181,80.5 184,79 			"/>
			<polygon fill="#D8D8D8" points="188,75 185,76.5 185,78.5 188,77 			"/>
			<polygon fill="#D8D8D8" points="130,101 128,102 128,104 130,103 			"/>
			<polygon fill="#D8D8D8" points="134,99 131,100.5 131,102.5 134,101 			"/>
			<polygon fill="#D8D8D8" points="138,97 135,98.5 135,100.5 138,99 			"/>
			<polygon fill="#D8D8D8" points="142,95 139,96.5 139,98.5 142,97 			"/>
			<polygon fill="#D8D8D8" points="146,93 143,94.5 143,96.5 146,95 			"/>
			<polygon fill="#D8D8D8" points="150,91 147,92.5 147,94.5 150,93 			"/>
			<polygon fill="#D8D8D8" points="154,89 151,90.5 151,92.5 154,91 			"/>
			<polygon fill="#D8D8D8" points="158,87 155,88.5 155,90.5 158,89 			"/>
			<polygon fill="#D8D8D8" points="162,85 159,86.5 159,88.5 162,87 			"/>
			<polygon fill="#D8D8D8" points="166,83 163,84.5 163,86.5 166,85 			"/>
			<polygon fill="#D8D8D8" points="170,81 167,82.5 167,84.5 170,83 			"/>
			<polygon fill="#D8D8D8" points="174,79 171,80.5 171,82.5 174,81 			"/>
			<polygon fill="#D8D8D8" points="178,77 175,78.5 175,80.5 178,79 			"/>
			<polygon fill="#D8D8D8" points="182,75 179,76.5 179,78.5 182,77 			"/>
			<polygon fill="#D8D8D8" points="186,73 183,74.5 183,76.5 186,75 			"/>
			<polygon fill="#D8D8D8" points="190,71 187,72.5 187,74.5 190,73 			"/>
			<polygon fill="#D8D8D8" points="192,109 189,110.5 189,112.5 192,111 			"/>
			<polygon fill="#D8D8D8" points="196,107 193,108.5 193,110.5 196,109 			"/>
			<polygon fill="#D8D8D8" points="200,105 197,106.5 197,108.5 200,107 			"/>
			<polygon fill="#D8D8D8" points="204,103 201,104.5 201,106.5 204,105 			"/>
			<polygon fill="#D8D8D8" points="208,101 205,102.5 205,104.5 208,103 			"/>
			<polygon fill="#D8D8D8" points="212,99 209,100.5 209,102.5 212,101 			"/>
			<polygon fill="#D8D8D8" points="216,97 213,98.5 213,100.5 216,99 			"/>
			<polygon fill="#D8D8D8" points="220,95 217,96.5 217,98.5 220,97 			"/>
			<polygon fill="#D8D8D8" points="194,105 191,106.5 191,108.5 194,107 			"/>
			<polygon fill="#D8D8D8" points="198,103 195,104.5 195,106.5 198,105 			"/>
			<polygon fill="#D8D8D8" points="202,101 199,102.5 199,104.5 202,103 			"/>
			<polygon fill="#D8D8D8" points="206,99 203,100.5 203,102.5 206,101 			"/>
			<polygon fill="#D8D8D8" points="210,97 207,98.5 207,100.5 210,99 			"/>
			<polygon fill="#D8D8D8" points="214,95 211,96.5 211,98.5 214,97 			"/>
			<polygon fill="#D8D8D8" points="218,93 215,94.5 215,96.5 218,95 			"/>
			<polygon fill="#D8D8D8" points="222,91 219,92.5 219,94.5 222,93 			"/>
			<polygon fill="#D8D8D8" points="192,103 189,104.5 189,106.5 192,105 			"/>
			<polygon fill="#D8D8D8" points="196,101 193,102.5 193,104.5 196,103 			"/>
			<polygon fill="#D8D8D8" points="200,99 197,100.5 197,102.5 200,101 			"/>
			<polygon fill="#D8D8D8" points="204,97 201,98.5 201,100.5 204,99 			"/>
			<polygon fill="#D8D8D8" points="208,95 205,96.5 205,98.5 208,97 			"/>
			<polygon fill="#D8D8D8" points="212,93 209,94.5 209,96.5 212,95 			"/>
			<polygon fill="#D8D8D8" points="216,91 213,92.5 213,94.5 216,93 			"/>
			<polygon fill="#D8D8D8" points="220,89 217,90.5 217,92.5 220,91 			"/>
			<polygon fill="#D8D8D8" points="194,99 191,100.5 191,102.5 194,101 			"/>
			<polygon fill="#D8D8D8" points="198,97 195,98.5 195,100.5 198,99 			"/>
			<polygon fill="#D8D8D8" points="202,95 199,96.5 199,98.5 202,97 			"/>
			<polygon fill="#D8D8D8" points="206,93 203,94.5 203,96.5 206,95 			"/>
			<polygon fill="#D8D8D8" points="210,91 207,92.5 207,94.5 210,93 			"/>
			<polygon fill="#D8D8D8" points="214,89 211,90.5 211,92.5 214,91 			"/>
			<polygon fill="#D8D8D8" points="218,87 215,88.5 215,90.5 218,89 			"/>
			<polygon fill="#D8D8D8" points="222,85 219,86.5 219,88.5 222,87 			"/>
			<polygon fill="#D8D8D8" points="192,97 189,98.5 189,100.5 192,99 			"/>
			<polygon fill="#D8D8D8" points="196,95 193,96.5 193,98.5 196,97 			"/>
			<polygon fill="#D8D8D8" points="200,93 197,94.5 197,96.5 200,95 			"/>
			<polygon fill="#D8D8D8" points="204,91 201,92.5 201,94.5 204,93 			"/>
			<polygon fill="#D8D8D8" points="208,89 205,90.5 205,92.5 208,91 			"/>
			<polygon fill="#D8D8D8" points="212,87 209,88.5 209,90.5 212,89 			"/>
			<polygon fill="#D8D8D8" points="216,85 213,86.5 213,88.5 216,87 			"/>
			<polygon fill="#D8D8D8" points="220,83 217,84.5 217,86.5 220,85 			"/>
			<polygon fill="#D8D8D8" points="194,93 191,94.5 191,96.5 194,95 			"/>
			<polygon fill="#D8D8D8" points="198,91 195,92.5 195,94.5 198,93 			"/>
			<polygon fill="#D8D8D8" points="202,89 199,90.5 199,92.5 202,91 			"/>
			<polygon fill="#D8D8D8" points="206,87 203,88.5 203,90.5 206,89 			"/>
			<polygon fill="#D8D8D8" points="210,85 207,86.5 207,88.5 210,87 			"/>
			<polygon fill="#D8D8D8" points="214,83 211,84.5 211,86.5 214,85 			"/>
			<polygon fill="#D8D8D8" points="218,81 215,82.5 215,84.5 218,83 			"/>
			<polygon fill="#D8D8D8" points="222,79 219,80.5 219,82.5 222,81 			"/>
			<polygon fill="#D8D8D8" points="192,91 189,92.5 189,94.5 192,93 			"/>
			<polygon fill="#D8D8D8" points="196,89 193,90.5 193,92.5 196,91 			"/>
			<polygon fill="#D8D8D8" points="200,87 197,88.5 197,90.5 200,89 			"/>
			<polygon fill="#D8D8D8" points="204,85 201,86.5 201,88.5 204,87 			"/>
			<polygon fill="#D8D8D8" points="208,83 205,84.5 205,86.5 208,85 			"/>
			<polygon fill="#D8D8D8" points="212,81 209,82.5 209,84.5 212,83 			"/>
			<polygon fill="#D8D8D8" points="216,79 213,80.5 213,82.5 216,81 			"/>
			<polygon fill="#D8D8D8" points="220,77 217,78.5 217,80.5 220,79 			"/>
			<polygon fill="#D8D8D8" points="194,87 191,88.5 191,90.5 194,89 			"/>
			<polygon fill="#D8D8D8" points="198,85 195,86.5 195,88.5 198,87 			"/>
			<polygon fill="#D8D8D8" points="202,83 199,84.5 199,86.5 202,85 			"/>
			<polygon fill="#D8D8D8" points="206,81 203,82.5 203,84.5 206,83 			"/>
			<polygon fill="#D8D8D8" points="210,79 207,80.5 207,82.5 210,81 			"/>
			<polygon fill="#D8D8D8" points="214,77 211,78.5 211,80.5 214,79 			"/>
			<polygon fill="#D8D8D8" points="218,75 215,76.5 215,78.5 218,77 			"/>
			<polygon fill="#D8D8D8" points="222,73 219,74.5 219,76.5 222,75 			"/>
			<polygon fill="#D8D8D8" points="192,85 189,86.5 189,88.5 192,87 			"/>
			<polygon fill="#D8D8D8" points="196,83 193,84.5 193,86.5 196,85 			"/>
			<polygon fill="#D8D8D8" points="200,81 197,82.5 197,84.5 200,83 			"/>
			<polygon fill="#D8D8D8" points="204,79 201,80.5 201,82.5 204,81 			"/>
			<polygon fill="#D8D8D8" points="208,77 205,78.5 205,80.5 208,79 			"/>
			<polygon fill="#D8D8D8" points="212,75 209,76.5 209,78.5 212,77 			"/>
			<polygon fill="#D8D8D8" points="216,73 213,74.5 213,76.5 216,75 			"/>
			<polygon fill="#D8D8D8" points="220,71 217,72.5 217,74.5 220,73 			"/>
			<polygon fill="#D8D8D8" points="194,81 191,82.5 191,84.5 194,83 			"/>
			<polygon fill="#D8D8D8" points="198,79 195,80.5 195,82.5 198,81 			"/>
			<polygon fill="#D8D8D8" points="202,77 199,78.5 199,80.5 202,79 			"/>
			<polygon fill="#D8D8D8" points="206,75 203,76.5 203,78.5 206,77 			"/>
			<polygon fill="#D8D8D8" points="210,73 207,74.5 207,76.5 210,75 			"/>
			<polygon fill="#D8D8D8" points="214,71 211,72.5 211,74.5 214,73 			"/>
			<polygon fill="#D8D8D8" points="218,69 215,70.5 215,72.5 218,71 			"/>
			<polygon fill="#D8D8D8" points="222,67 219,68.5 219,70.5 222,69 			"/>
			<polygon fill="#D8D8D8" points="192,79 189,80.5 189,82.5 192,81 			"/>
			<polygon fill="#D8D8D8" points="196,77 193,78.5 193,80.5 196,79 			"/>
			<polygon fill="#D8D8D8" points="200,75 197,76.5 197,78.5 200,77 			"/>
			<polygon fill="#D8D8D8" points="204,73 201,74.5 201,76.5 204,75 			"/>
			<polygon fill="#D8D8D8" points="208,71 205,72.5 205,74.5 208,73 			"/>
			<polygon fill="#D8D8D8" points="212,69 209,70.5 209,72.5 212,71 			"/>
			<polygon fill="#D8D8D8" points="216,67 213,68.5 213,70.5 216,69 			"/>
			<polygon fill="#D8D8D8" points="220,65 217,66.5 217,68.5 220,67 			"/>
			<polygon fill="#D8D8D8" points="194,75 191,76.5 191,78.5 194,77 			"/>
			<polygon fill="#D8D8D8" points="198,73 195,74.5 195,76.5 198,75 			"/>
			<polygon fill="#D8D8D8" points="202,71 199,72.5 199,74.5 202,73 			"/>
			<polygon fill="#D8D8D8" points="206,69 203,70.5 203,72.5 206,71 			"/>
			<polygon fill="#D8D8D8" points="210,67 207,68.5 207,70.5 210,69 			"/>
			<polygon fill="#D8D8D8" points="214,65 211,66.5 211,68.5 214,67 			"/>
			<polygon fill="#D8D8D8" points="218,63 215,64.5 215,66.5 218,65 			"/>
			<polygon fill="#D8D8D8" points="222,61 219,62.5 219,64.5 222,63 			"/>
			<polygon fill="#D8D8D8" points="192,73 189,74.5 189,76.5 192,75 			"/>
			<polygon fill="#D8D8D8" points="196,71 193,72.5 193,74.5 196,73 			"/>
			<polygon fill="#D8D8D8" points="200,69 197,70.5 197,72.5 200,71 			"/>
			<polygon fill="#D8D8D8" points="204,67 201,68.5 201,70.5 204,69 			"/>
			<polygon fill="#D8D8D8" points="208,65 205,66.5 205,68.5 208,67 			"/>
			<polygon fill="#D8D8D8" points="212,63 209,64.5 209,66.5 212,65 			"/>
			<polygon fill="#D8D8D8" points="216,61 213,62.5 213,64.5 216,63 			"/>
			<polygon fill="#D8D8D8" points="220,59 217,60.5 217,62.5 220,61 			"/>
			<polygon fill="#D8D8D8" points="194,69 191,70.5 191,72.5 194,71 			"/>
			<polygon fill="#D8D8D8" points="198,67 195,68.5 195,70.5 198,69 			"/>
			<polygon fill="#D8D8D8" points="202,65 199,66.5 199,68.5 202,67 			"/>
			<polygon fill="#D8D8D8" points="206,63 203,64.5 203,66.5 206,65 			"/>
			<polygon fill="#D8D8D8" points="210,61 207,62.5 207,64.5 210,63 			"/>
			<polygon fill="#D8D8D8" points="214,59 211,60.5 211,62.5 214,61 			"/>
			<polygon fill="#D8D8D8" points="218,57 215,58.5 215,60.5 218,59 			"/>
			<polygon fill="#D8D8D8" points="222,55 219,56.5 219,58.5 222,57 			"/>
		</g>
		<g>
			<polygon fill="#D8D8D8" points="143,132.5 134,137 134,123 143,118.5 			"/>
			<g>
				<polygon fill="#3399CC" points="135,123.5 135,135.5 138,134 138,122 				"/>
				<polygon opacity="0.2" fill="#FFFFFF" points="135,132.5 135,135.5 138,134 				"/>
				<polygon fill="#3399CC" points="139,121.5 139,133.5 142,132 142,120 				"/>
			</g>
			<polygon opacity="0.15" points="138,123 135,124.5 135,123.5 138,122 			"/>
			<polygon opacity="0.15" points="142,121 139,122.5 139,121.5 142,120 			"/>
			<polygon opacity="0.15" points="142,131 139,122.5 139,121.5 142,120 			"/>
		</g>
		<g>
			<polygon fill="#D8D8D8" points="143,111.5 134,116 134,105 143,100.5 			"/>
			<g>
				<polygon fill="#3399CC" points="135,105.5 135,114.5 138,113 138,104 				"/>
				<polygon opacity="0.2" fill="#FFFFFF" points="135,110.5 135,114.5 138,113 				"/>
				<polygon fill="#3399CC" points="139,103.5 139,112.5 142,111 142,102 				"/>
			</g>
			<polygon opacity="0.15" points="138,105 135,106.5 135,105.5 138,104 			"/>
			<polygon opacity="0.15" points="142,103 139,104.5 139,103.5 142,102 			"/>
			<polygon opacity="0.15" points="142,110 139,104.5 139,103.5 142,102 			"/>
		</g>
		<g>
			<polygon fill="#D8D8D8" points="157,125.5 148,130 148,116 157,111.5 			"/>
			<g>
				<polygon fill="#3399CC" points="149,116.5 149,128.5 152,127 152,115 				"/>
				<polygon opacity="0.2" fill="#FFFFFF" points="149,118.5 149,128.5 152,127 				"/>
				<polygon fill="#3399CC" points="153,114.5 153,126.5 156,125 156,113 				"/>
			</g>
			<polygon opacity="0.15" points="152,116 149,117.5 149,116.5 152,115 			"/>
			<polygon opacity="0.15" points="156,114 153,115.5 153,114.5 156,113 			"/>
			<polygon opacity="0.15" points="156,121 153,115.5 153,114.5 156,113 			"/>
		</g>
		<g>
			<polygon fill="#D8D8D8" points="157,104.5 148,109 148,98 157,93.5 			"/>
			<g>
				<polygon fill="#3399CC" points="149,98.5 149,107.5 152,106 152,97 				"/>
				<polygon fill="#3399CC" points="153,96.5 153,105.5 156,104 156,95 				"/>
			</g>
			<polygon opacity="0.15" points="152,98 149,99.5 149,98.5 152,97 			"/>
			<polygon opacity="0.15" points="156,96 153,97.5 153,96.5 156,95 			"/>
			<polygon opacity="0.15" points="156,104 153,97.5 153,96.5 156,95 			"/>
		</g>
		<g>
			<polygon fill="#D8D8D8" points="171,118.5 162,123 162,109 171,104.5 			"/>
			<g>
				<polygon fill="#3399CC" points="163,109.5 163,121.5 166,120 166,108 				"/>
				<polygon opacity="0.2" fill="#FFFFFF" points="163,114.5 163,121.5 166,120 				"/>
				<polygon fill="#3399CC" points="167,107.5 167,119.5 170,118 170,106 				"/>
			</g>
			<polygon opacity="0.15" points="166,109 163,110.5 163,109.5 166,108 			"/>
			<polygon opacity="0.15" points="170,107 167,108.5 167,107.5 170,106 			"/>
			<polygon opacity="0.15" points="170,114 167,108.5 167,107.5 170,106 			"/>
		</g>
		<g>
			<polygon fill="#D8D8D8" points="171,97.5 162,102 162,91 171,86.5 			"/>
			<g>
				<polygon fill="#3399CC" points="163,91.5 163,100.5 166,99 166,90 				"/>
				<polygon opacity="0.2" fill="#FFFFFF" points="163,96.5 163,100.5 166,99 				"/>
				<polygon fill="#3399CC" points="167,89.5 167,98.5 170,97 170,88 				"/>
			</g>
			<polygon opacity="0.15" points="166,91 163,92.5 163,91.5 166,90 			"/>
			<polygon opacity="0.15" points="170,89 167,90.5 167,89.5 170,88 			"/>
			<polygon opacity="0.15" points="170,96 167,90.5 167,89.5 170,88 			"/>
		</g>
		<g>
			<polygon fill="#D8D8D8" points="185,111.5 176,116 176,102 185,97.5 			"/>
			<g>
				<polygon fill="#3399CC" points="177,102.5 177,114.5 180,113 180,101 				"/>
				<polygon opacity="0.2" fill="#FFFFFF" points="177,107.5 177,114.5 180,113 				"/>
				<polygon fill="#3399CC" points="181,100.5 181,112.5 184,111 184,99 				"/>
			</g>
			<polygon opacity="0.15" points="180,102 177,103.5 177,102.5 180,101 			"/>
			<polygon opacity="0.15" points="184,100 181,101.5 181,100.5 184,99 			"/>
		</g>
		<g>
			<polygon fill="#D8D8D8" points="185,90.5 176,95 176,84 185,79.5 			"/>
			<g>
				<polygon fill="#3399CC" points="177,84.5 177,93.5 180,92 180,83 				"/>
				<polygon opacity="0.2" fill="#FFFFFF" points="177,89.5 177,93.5 180,92 				"/>
				<polygon fill="#3399CC" points="181,82.5 181,91.5 184,90 184,81 				"/>
			</g>
			<polygon opacity="0.15" points="180,84 177,85.5 177,84.5 180,83 			"/>
			<polygon opacity="0.15" points="184,82 181,83.5 181,82.5 184,81 			"/>
			<polygon opacity="0.15" points="184,89 181,83.5 181,82.5 184,81 			"/>
		</g>
		<g>
			<polygon fill="#D8D8D8" points="199,104.5 190,109 190,95 199,90.5 			"/>
			<g>
				<polygon fill="#3399CC" points="191,95.5 191,107.5 194,106 194,94 				"/>
				<polygon fill="#3399CC" points="195,93.5 195,105.5 198,104 198,92 				"/>
			</g>
			<polygon opacity="0.15" points="194,95 191,96.5 191,95.5 194,94 			"/>
			<polygon opacity="0.15" points="198,93 195,94.5 195,93.5 198,92 			"/>
			<polygon opacity="0.15" points="198,103 195,94.5 195,93.5 198,92 			"/>
		</g>
		<g>
			<polygon fill="#D8D8D8" points="199,83.5 190,88 190,77 199,72.5 			"/>
			<g>
				<polygon fill="#3399CC" points="191,77.5 191,86.5 194,85 194,76 				"/>
				<polygon opacity="0.2" fill="#FFFFFF" points="191,79.5 191,86.5 194,85 				"/>
				<polygon fill="#3399CC" points="195,75.5 195,84.5 198,83 198,74 				"/>
			</g>
			<polygon opacity="0.15" points="194,77 191,78.5 191,77.5 194,76 			"/>
			<polygon opacity="0.15" points="198,75 195,76.5 195,75.5 198,74 			"/>
		</g>
		<g>
			<polygon fill="#D8D8D8" points="213,97.5 204,102 204,88 213,83.5 			"/>
			<g>
				<polygon fill="#3399CC" points="205,88.5 205,100.5 208,99 208,87 				"/>
				<polygon opacity="0.2" fill="#FFFFFF" points="205,89.5 205,100.5 208,99 				"/>
				<polygon fill="#3399CC" points="209,86.5 209,98.5 212,97 212,85 				"/>
			</g>
			<polygon opacity="0.15" points="208,88 205,89.5 205,88.5 208,87 			"/>
			<polygon opacity="0.15" points="212,86 209,87.5 209,86.5 212,85 			"/>
			<polygon opacity="0.15" points="212,93 209,87.5 209,86.5 212,85 			"/>
		</g>
		<g>
			<polygon fill="#D8D8D8" points="213,76.5 204,81 204,70 213,65.5 			"/>
			<g>
				<polygon fill="#3399CC" points="205,70.5 205,79.5 208,78 208,69 				"/>
				<polygon opacity="0.2" fill="#FFFFFF" points="205,75.5 205,79.5 208,78 				"/>
				<polygon fill="#3399CC" points="209,68.5 209,77.5 212,76 212,67 				"/>
			</g>
			<polygon opacity="0.15" points="208,70 205,71.5 205,70.5 208,69 			"/>
			<polygon opacity="0.15" points="212,68 209,69.5 209,68.5 212,67 			"/>
			<polygon opacity="0.15" points="212,76 209,69.5 209,68.5 212,67 			"/>
		</g>
	</g>
	<g>
		<polygon fill="#762C07" points="64,112 128,80 128,39 64,71 		"/>
		<g opacity="0.2">
			<polygon fill="#D8D8D8" points="68,107 65,108.5 65,110.5 68,109 			"/>
			<polygon fill="#D8D8D8" points="72,105 69,106.5 69,108.5 72,107 			"/>
			<polygon fill="#D8D8D8" points="76,103 73,104.5 73,106.5 76,105 			"/>
			<polygon fill="#D8D8D8" points="80,101 77,102.5 77,104.5 80,103 			"/>
			<polygon fill="#D8D8D8" points="84,99 81,100.5 81,102.5 84,101 			"/>
			<polygon fill="#D8D8D8" points="88,97 85,98.5 85,100.5 88,99 			"/>
			<polygon fill="#D8D8D8" points="92,95 89,96.5 89,98.5 92,97 			"/>
			<polygon fill="#D8D8D8" points="96,93 93,94.5 93,96.5 96,95 			"/>
			<polygon fill="#D8D8D8" points="100,91 97,92.5 97,94.5 100,93 			"/>
			<polygon fill="#D8D8D8" points="104,89 101,90.5 101,92.5 104,91 			"/>
			<polygon fill="#D8D8D8" points="108,87 105,88.5 105,90.5 108,89 			"/>
			<polygon fill="#D8D8D8" points="112,85 109,86.5 109,88.5 112,87 			"/>
			<polygon fill="#D8D8D8" points="116,83 113,84.5 113,86.5 116,85 			"/>
			<polygon fill="#D8D8D8" points="120,81 117,82.5 117,84.5 120,83 			"/>
			<polygon fill="#D8D8D8" points="124,79 121,80.5 121,82.5 124,81 			"/>
			<polygon fill="#D8D8D8" points="66,105 64,106 64,108 66,107 			"/>
			<polygon fill="#D8D8D8" points="70,103 67,104.5 67,106.5 70,105 			"/>
			<polygon fill="#D8D8D8" points="74,101 71,102.5 71,104.5 74,103 			"/>
			<polygon fill="#D8D8D8" points="78,99 75,100.5 75,102.5 78,101 			"/>
			<polygon fill="#D8D8D8" points="82,97 79,98.5 79,100.5 82,99 			"/>
			<polygon fill="#D8D8D8" points="86,95 83,96.5 83,98.5 86,97 			"/>
			<polygon fill="#D8D8D8" points="90,93 87,94.5 87,96.5 90,95 			"/>
			<polygon fill="#D8D8D8" points="94,91 91,92.5 91,94.5 94,93 			"/>
			<polygon fill="#D8D8D8" points="98,89 95,90.5 95,92.5 98,91 			"/>
			<polygon fill="#D8D8D8" points="102,87 99,88.5 99,90.5 102,89 			"/>
			<polygon fill="#D8D8D8" points="106,85 103,86.5 103,88.5 106,87 			"/>
			<polygon fill="#D8D8D8" points="110,83 107,84.5 107,86.5 110,85 			"/>
			<polygon fill="#D8D8D8" points="114,81 111,82.5 111,84.5 114,83 			"/>
			<polygon fill="#D8D8D8" points="118,79 115,80.5 115,82.5 118,81 			"/>
			<polygon fill="#D8D8D8" points="122,77 119,78.5 119,80.5 122,79 			"/>
			<polygon fill="#D8D8D8" points="126,75 123,76.5 123,78.5 126,77 			"/>
			<polygon fill="#D8D8D8" points="68,101 65,102.5 65,104.5 68,103 			"/>
			<polygon fill="#D8D8D8" points="72,99 69,100.5 69,102.5 72,101 			"/>
			<polygon fill="#D8D8D8" points="76,97 73,98.5 73,100.5 76,99 			"/>
			<polygon fill="#D8D8D8" points="80,95 77,96.5 77,98.5 80,97 			"/>
			<polygon fill="#D8D8D8" points="84,93 81,94.5 81,96.5 84,95 			"/>
			<polygon fill="#D8D8D8" points="88,91 85,92.5 85,94.5 88,93 			"/>
			<polygon fill="#D8D8D8" points="92,89 89,90.5 89,92.5 92,91 			"/>
			<polygon fill="#D8D8D8" points="96,87 93,88.5 93,90.5 96,89 			"/>
			<polygon fill="#D8D8D8" points="100,85 97,86.5 97,88.5 100,87 			"/>
			<polygon fill="#D8D8D8" points="104,83 101,84.5 101,86.5 104,85 			"/>
			<polygon fill="#D8D8D8" points="108,81 105,82.5 105,84.5 108,83 			"/>
			<polygon fill="#D8D8D8" points="112,79 109,80.5 109,82.5 112,81 			"/>
			<polygon fill="#D8D8D8" points="116,77 113,78.5 113,80.5 116,79 			"/>
			<polygon fill="#D8D8D8" points="120,75 117,76.5 117,78.5 120,77 			"/>
			<polygon fill="#D8D8D8" points="124,73 121,74.5 121,76.5 124,75 			"/>
			<polygon fill="#D8D8D8" points="66,99 64,100 64,102 66,101 			"/>
			<polygon fill="#D8D8D8" points="70,97 67,98.5 67,100.5 70,99 			"/>
			<polygon fill="#D8D8D8" points="74,95 71,96.5 71,98.5 74,97 			"/>
			<polygon fill="#D8D8D8" points="78,93 75,94.5 75,96.5 78,95 			"/>
			<polygon fill="#D8D8D8" points="82,91 79,92.5 79,94.5 82,93 			"/>
			<polygon fill="#D8D8D8" points="86,89 83,90.5 83,92.5 86,91 			"/>
			<polygon fill="#D8D8D8" points="90,87 87,88.5 87,90.5 90,89 			"/>
			<polygon fill="#D8D8D8" points="94,85 91,86.5 91,88.5 94,87 			"/>
			<polygon fill="#D8D8D8" points="98,83 95,84.5 95,86.5 98,85 			"/>
			<polygon fill="#D8D8D8" points="102,81 99,82.5 99,84.5 102,83 			"/>
			<polygon fill="#D8D8D8" points="106,79 103,80.5 103,82.5 106,81 			"/>
			<polygon fill="#D8D8D8" points="110,77 107,78.5 107,80.5 110,79 			"/>
			<polygon fill="#D8D8D8" points="114,75 111,76.5 111,78.5 114,77 			"/>
			<polygon fill="#D8D8D8" points="118,73 115,74.5 115,76.5 118,75 			"/>
			<polygon fill="#D8D8D8" points="122,71 119,72.5 119,74.5 122,73 			"/>
			<polygon fill="#D8D8D8" points="126,69 123,70.5 123,72.5 126,71 			"/>
			<polygon fill="#D8D8D8" points="68,95 65,96.5 65,98.5 68,97 			"/>
			<polygon fill="#D8D8D8" points="72,93 69,94.5 69,96.5 72,95 			"/>
			<polygon fill="#D8D8D8" points="76,91 73,92.5 73,94.5 76,93 			"/>
			<polygon fill="#D8D8D8" points="80,89 77,90.5 77,92.5 80,91 			"/>
			<polygon fill="#D8D8D8" points="84,87 81,88.5 81,90.5 84,89 			"/>
			<polygon fill="#D8D8D8" points="88,85 85,86.5 85,88.5 88,87 			"/>
			<polygon fill="#D8D8D8" points="92,83 89,84.5 89,86.5 92,85 			"/>
			<polygon fill="#D8D8D8" points="96,81 93,82.5 93,84.5 96,83 			"/>
			<polygon fill="#D8D8D8" points="100,79 97,80.5 97,82.5 100,81 			"/>
			<polygon fill="#D8D8D8" points="104,77 101,78.5 101,80.5 104,79 			"/>
			<polygon fill="#D8D8D8" points="108,75 105,76.5 105,78.5 108,77 			"/>
			<polygon fill="#D8D8D8" points="112,73 109,74.5 109,76.5 112,75 			"/>
			<polygon fill="#D8D8D8" points="116,71 113,72.5 113,74.5 116,73 			"/>
			<polygon fill="#D8D8D8" points="120,69 117,70.5 117,72.5 120,71 			"/>
			<polygon fill="#D8D8D8" points="124,67 121,68.5 121,70.5 124,69 			"/>
			<polygon fill="#D8D8D8" points="66,93 64,94 64,96 66,95 			"/>
			<polygon fill="#D8D8D8" points="70,91 67,92.5 67,94.5 70,93 			"/>
			<polygon fill="#D8D8D8" points="74,89 71,90.5 71,92.5 74,91 			"/>
			<polygon fill="#D8D8D8" points="78,87 75,88.5 75,90.5 78,89 			"/>
			<polygon fill="#D8D8D8" points="82,85 79,86.5 79,88.5 82,87 			"/>
			<polygon fill="#D8D8D8" points="86,83 83,84.5 83,86.5 86,85 			"/>
			<polygon fill="#D8D8D8" points="90,81 87,82.5 87,84.5 90,83 			"/>
			<polygon fill="#D8D8D8" points="94,79 91,80.5 91,82.5 94,81 			"/>
			<polygon fill="#D8D8D8" points="98,77 95,78.5 95,80.5 98,79 			"/>
			<polygon fill="#D8D8D8" points="102,75 99,76.5 99,78.5 102,77 			"/>
			<polygon fill="#D8D8D8" points="106,73 103,74.5 103,76.5 106,75 			"/>
			<polygon fill="#D8D8D8" points="110,71 107,72.5 107,74.5 110,73 			"/>
			<polygon fill="#D8D8D8" points="114,69 111,70.5 111,72.5 114,71 			"/>
			<polygon fill="#D8D8D8" points="118,67 115,68.5 115,70.5 118,69 			"/>
			<polygon fill="#D8D8D8" points="122,65 119,66.5 119,68.5 122,67 			"/>
			<polygon fill="#D8D8D8" points="126,63 123,64.5 123,66.5 126,65 			"/>
			<polygon fill="#D8D8D8" points="68,89 65,90.5 65,92.5 68,91 			"/>
			<polygon fill="#D8D8D8" points="72,87 69,88.5 69,90.5 72,89 			"/>
			<polygon fill="#D8D8D8" points="76,85 73,86.5 73,88.5 76,87 			"/>
			<polygon fill="#D8D8D8" points="80,83 77,84.5 77,86.5 80,85 			"/>
			<polygon fill="#D8D8D8" points="84,81 81,82.5 81,84.5 84,83 			"/>
			<polygon fill="#D8D8D8" points="88,79 85,80.5 85,82.5 88,81 			"/>
			<polygon fill="#D8D8D8" points="92,77 89,78.5 89,80.5 92,79 			"/>
			<polygon fill="#D8D8D8" points="96,75 93,76.5 93,78.5 96,77 			"/>
			<polygon fill="#D8D8D8" points="100,73 97,74.5 97,76.5 100,75 			"/>
			<polygon fill="#D8D8D8" points="104,71 101,72.5 101,74.5 104,73 			"/>
			<polygon fill="#D8D8D8" points="108,69 105,70.5 105,72.5 108,71 			"/>
			<polygon fill="#D8D8D8" points="112,67 109,68.5 109,70.5 112,69 			"/>
			<polygon fill="#D8D8D8" points="116,65 113,66.5 113,68.5 116,67 			"/>
			<polygon fill="#D8D8D8" points="120,63 117,64.5 117,66.5 120,65 			"/>
			<polygon fill="#D8D8D8" points="124,61 121,62.5 121,64.5 124,63 			"/>
			<polygon fill="#D8D8D8" points="66,87 64,88 64,90 66,89 			"/>
			<polygon fill="#D8D8D8" points="70,85 67,86.5 67,88.5 70,87 			"/>
			<polygon fill="#D8D8D8" points="74,83 71,84.5 71,86.5 74,85 			"/>
			<polygon fill="#D8D8D8" points="78,81 75,82.5 75,84.5 78,83 			"/>
			<polygon fill="#D8D8D8" points="82,79 79,80.5 79,82.5 82,81 			"/>
			<polygon fill="#D8D8D8" points="86,77 83,78.5 83,80.5 86,79 			"/>
			<polygon fill="#D8D8D8" points="90,75 87,76.5 87,78.5 90,77 			"/>
			<polygon fill="#D8D8D8" points="94,73 91,74.5 91,76.5 94,75 			"/>
			<polygon fill="#D8D8D8" points="98,71 95,72.5 95,74.5 98,73 			"/>
			<polygon fill="#D8D8D8" points="102,69 99,70.5 99,72.5 102,71 			"/>
			<polygon fill="#D8D8D8" points="106,67 103,68.5 103,70.5 106,69 			"/>
			<polygon fill="#D8D8D8" points="110,65 107,66.5 107,68.5 110,67 			"/>
			<polygon fill="#D8D8D8" points="114,63 111,64.5 111,66.5 114,65 			"/>
			<polygon fill="#D8D8D8" points="118,61 115,62.5 115,64.5 118,63 			"/>
			<polygon fill="#D8D8D8" points="122,59 119,60.5 119,62.5 122,61 			"/>
			<polygon fill="#D8D8D8" points="126,57 123,58.5 123,60.5 126,59 			"/>
			<polygon fill="#D8D8D8" points="68,83 65,84.5 65,86.5 68,85 			"/>
			<polygon fill="#D8D8D8" points="72,81 69,82.5 69,84.5 72,83 			"/>
			<polygon fill="#D8D8D8" points="76,79 73,80.5 73,82.5 76,81 			"/>
			<polygon fill="#D8D8D8" points="80,77 77,78.5 77,80.5 80,79 			"/>
			<polygon fill="#D8D8D8" points="84,75 81,76.5 81,78.5 84,77 			"/>
			<polygon fill="#D8D8D8" points="88,73 85,74.5 85,76.5 88,75 			"/>
			<polygon fill="#D8D8D8" points="92,71 89,72.5 89,74.5 92,73 			"/>
			<polygon fill="#D8D8D8" points="96,69 93,70.5 93,72.5 96,71 			"/>
			<polygon fill="#D8D8D8" points="100,67 97,68.5 97,70.5 100,69 			"/>
			<polygon fill="#D8D8D8" points="104,65 101,66.5 101,68.5 104,67 			"/>
			<polygon fill="#D8D8D8" points="108,63 105,64.5 105,66.5 108,65 			"/>
			<polygon fill="#D8D8D8" points="112,61 109,62.5 109,64.5 112,63 			"/>
			<polygon fill="#D8D8D8" points="116,59 113,60.5 113,62.5 116,61 			"/>
			<polygon fill="#D8D8D8" points="120,57 117,58.5 117,60.5 120,59 			"/>
			<polygon fill="#D8D8D8" points="124,55 121,56.5 121,58.5 124,57 			"/>
			<polygon fill="#D8D8D8" points="66,81 64,82 64,84 66,83 			"/>
			<polygon fill="#D8D8D8" points="70,79 67,80.5 67,82.5 70,81 			"/>
			<polygon fill="#D8D8D8" points="74,77 71,78.5 71,80.5 74,79 			"/>
			<polygon fill="#D8D8D8" points="78,75 75,76.5 75,78.5 78,77 			"/>
			<polygon fill="#D8D8D8" points="82,73 79,74.5 79,76.5 82,75 			"/>
			<polygon fill="#D8D8D8" points="86,71 83,72.5 83,74.5 86,73 			"/>
			<polygon fill="#D8D8D8" points="90,69 87,70.5 87,72.5 90,71 			"/>
			<polygon fill="#D8D8D8" points="94,67 91,68.5 91,70.5 94,69 			"/>
			<polygon fill="#D8D8D8" points="98,65 95,66.5 95,68.5 98,67 			"/>
			<polygon fill="#D8D8D8" points="102,63 99,64.5 99,66.5 102,65 			"/>
			<polygon fill="#D8D8D8" points="106,61 103,62.5 103,64.5 106,63 			"/>
			<polygon fill="#D8D8D8" points="110,59 107,60.5 107,62.5 110,61 			"/>
			<polygon fill="#D8D8D8" points="114,57 111,58.5 111,60.5 114,59 			"/>
			<polygon fill="#D8D8D8" points="118,55 115,56.5 115,58.5 118,57 			"/>
			<polygon fill="#D8D8D8" points="122,53 119,54.5 119,56.5 122,55 			"/>
			<polygon fill="#D8D8D8" points="126,51 123,52.5 123,54.5 126,53 			"/>
			<polygon fill="#D8D8D8" points="68,77 65,78.5 65,80.5 68,79 			"/>
			<polygon fill="#D8D8D8" points="72,75 69,76.5 69,78.5 72,77 			"/>
			<polygon fill="#D8D8D8" points="76,73 73,74.5 73,76.5 76,75 			"/>
			<polygon fill="#D8D8D8" points="80,71 77,72.5 77,74.5 80,73 			"/>
			<polygon fill="#D8D8D8" points="84,69 81,70.5 81,72.5 84,71 			"/>
			<polygon fill="#D8D8D8" points="88,67 85,68.5 85,70.5 88,69 			"/>
			<polygon fill="#D8D8D8" points="92,65 89,66.5 89,68.5 92,67 			"/>
			<polygon fill="#D8D8D8" points="96,63 93,64.5 93,66.5 96,65 			"/>
			<polygon fill="#D8D8D8" points="100,61 97,62.5 97,64.5 100,63 			"/>
			<polygon fill="#D8D8D8" points="104,59 101,60.5 101,62.5 104,61 			"/>
			<polygon fill="#D8D8D8" points="108,57 105,58.5 105,60.5 108,59 			"/>
			<polygon fill="#D8D8D8" points="112,55 109,56.5 109,58.5 112,57 			"/>
			<polygon fill="#D8D8D8" points="116,53 113,54.5 113,56.5 116,55 			"/>
			<polygon fill="#D8D8D8" points="120,51 117,52.5 117,54.5 120,53 			"/>
			<polygon fill="#D8D8D8" points="124,49 121,50.5 121,52.5 124,51 			"/>
			<polygon fill="#D8D8D8" points="66,75 64,76 64,78 66,77 			"/>
			<polygon fill="#D8D8D8" points="70,73 67,74.5 67,76.5 70,75 			"/>
			<polygon fill="#D8D8D8" points="74,71 71,72.5 71,74.5 74,73 			"/>
			<polygon fill="#D8D8D8" points="78,69 75,70.5 75,72.5 78,71 			"/>
			<polygon fill="#D8D8D8" points="82,67 79,68.5 79,70.5 82,69 			"/>
			<polygon fill="#D8D8D8" points="86,65 83,66.5 83,68.5 86,67 			"/>
			<polygon fill="#D8D8D8" points="90,63 87,64.5 87,66.5 90,65 			"/>
			<polygon fill="#D8D8D8" points="94,61 91,62.5 91,64.5 94,63 			"/>
			<polygon fill="#D8D8D8" points="98,59 95,60.5 95,62.5 98,61 			"/>
			<polygon fill="#D8D8D8" points="102,57 99,58.5 99,60.5 102,59 			"/>
			<polygon fill="#D8D8D8" points="106,55 103,56.5 103,58.5 106,57 			"/>
			<polygon fill="#D8D8D8" points="110,53 107,54.5 107,56.5 110,55 			"/>
			<polygon fill="#D8D8D8" points="114,51 111,52.5 111,54.5 114,53 			"/>
			<polygon fill="#D8D8D8" points="118,49 115,50.5 115,52.5 118,51 			"/>
			<polygon fill="#D8D8D8" points="122,47 119,48.5 119,50.5 122,49 			"/>
			<polygon fill="#D8D8D8" points="126,45 123,46.5 123,48.5 126,47 			"/>
			<polygon fill="#D8D8D8" points="68,71 65,72.5 65,74.5 68,73 			"/>
			<polygon fill="#D8D8D8" points="72,69 69,70.5 69,72.5 72,71 			"/>
			<polygon fill="#D8D8D8" points="76,67 73,68.5 73,70.5 76,69 			"/>
			<polygon fill="#D8D8D8" points="80,65 77,66.5 77,68.5 80,67 			"/>
			<polygon fill="#D8D8D8" points="84,63 81,64.5 81,66.5 84,65 			"/>
			<polygon fill="#D8D8D8" points="88,61 85,62.5 85,64.5 88,63 			"/>
			<polygon fill="#D8D8D8" points="92,59 89,60.5 89,62.5 92,61 			"/>
			<polygon fill="#D8D8D8" points="96,57 93,58.5 93,60.5 96,59 			"/>
			<polygon fill="#D8D8D8" points="100,55 97,56.5 97,58.5 100,57 			"/>
			<polygon fill="#D8D8D8" points="104,53 101,54.5 101,56.5 104,55 			"/>
			<polygon fill="#D8D8D8" points="108,51 105,52.5 105,54.5 108,53 			"/>
			<polygon fill="#D8D8D8" points="112,49 109,50.5 109,52.5 112,51 			"/>
			<polygon fill="#D8D8D8" points="116,47 113,48.5 113,50.5 116,49 			"/>
			<polygon fill="#D8D8D8" points="120,45 117,46.5 117,48.5 120,47 			"/>
			<polygon fill="#D8D8D8" points="124,43 121,44.5 121,46.5 124,45 			"/>
			<polygon fill="#D8D8D8" points="66,69 64,70 64,72 66,71 			"/>
			<polygon fill="#D8D8D8" points="70,67 67,68.5 67,70.5 70,69 			"/>
			<polygon fill="#D8D8D8" points="74,65 71,66.5 71,68.5 74,67 			"/>
			<polygon fill="#D8D8D8" points="78,63 75,64.5 75,66.5 78,65 			"/>
			<polygon fill="#D8D8D8" points="82,61 79,62.5 79,64.5 82,63 			"/>
			<polygon fill="#D8D8D8" points="86,59 83,60.5 83,62.5 86,61 			"/>
			<polygon fill="#D8D8D8" points="90,57 87,58.5 87,60.5 90,59 			"/>
			<polygon fill="#D8D8D8" points="94,55 91,56.5 91,58.5 94,57 			"/>
			<polygon fill="#D8D8D8" points="98,53 95,54.5 95,56.5 98,55 			"/>
			<polygon fill="#D8D8D8" points="102,51 99,52.5 99,54.5 102,53 			"/>
			<polygon fill="#D8D8D8" points="106,49 103,50.5 103,52.5 106,51 			"/>
			<polygon fill="#D8D8D8" points="110,47 107,48.5 107,50.5 110,49 			"/>
			<polygon fill="#D8D8D8" points="114,45 111,46.5 111,48.5 114,47 			"/>
			<polygon fill="#D8D8D8" points="118,43 115,44.5 115,46.5 118,45 			"/>
			<polygon fill="#D8D8D8" points="122,41 119,42.5 119,44.5 122,43 			"/>
			<polygon fill="#D8D8D8" points="126,39 123,40.5 123,42.5 126,41 			"/>
			<polygon fill="#D8D8D8" points="128,77 125,78.5 125,80.5 128,79 			"/>
			<polygon fill="#D8D8D8" points="128,71 125,72.5 125,74.5 128,73 			"/>
			<polygon fill="#D8D8D8" points="128,65 125,66.5 125,68.5 128,67 			"/>
			<polygon fill="#D8D8D8" points="128,59 125,60.5 125,62.5 128,61 			"/>
			<polygon fill="#D8D8D8" points="128,53 125,54.5 125,56.5 128,55 			"/>
			<polygon fill="#D8D8D8" points="128,47 125,48.5 125,50.5 128,49 			"/>
			<polygon fill="#D8D8D8" points="128,44 127,44.5 127,46.5 128,46 			"/>
			<polygon fill="#D8D8D8" points="128,50 127,50.5 127,52.5 128,52 			"/>
			<polygon fill="#D8D8D8" points="128,56 127,56.5 127,58.5 128,58 			"/>
			<polygon fill="#D8D8D8" points="128,62 127,62.5 127,64.5 128,64 			"/>
			<polygon fill="#D8D8D8" points="128,68 127,68.5 127,70.5 128,70 			"/>
			<polygon fill="#D8D8D8" points="128,74 127,74.5 127,76.5 128,76 			"/>
			<polygon fill="#D8D8D8" points="128,41 125,42.5 125,44.5 128,43 			"/>
		</g>
		<g>
			<polygon fill="#D8D8D8" points="80,79 71,83.5 71,72.5 80,68 			"/>
			<g>
				<polygon fill="#3399CC" points="72,73 72,82 75,80.5 75,71.5 				"/>
				<polygon opacity="0.2" fill="#FFFFFF" points="72,78 72,82 75,80.5 				"/>
				<polygon fill="#3399CC" points="76,71 76,80 79,78.5 79,69.5 				"/>
			</g>
			<polygon opacity="0.15" points="75,72.5 72,74 72,73 75,71.5 			"/>
			<polygon opacity="0.15" points="79,70.5 76,72 76,71 79,69.5 			"/>
			<polygon opacity="0.15" points="79,77.5 76,72 76,71 79,69.5 			"/>
		</g>
		<g>
			<polygon fill="#D8D8D8" points="94,72 85,76.5 85,65.5 94,61 			"/>
			<g>
				<polygon fill="#3399CC" points="86,66 86,75 89,73.5 89,64.5 				"/>
				<polygon fill="#3399CC" points="90,64 90,73 93,71.5 93,62.5 				"/>
			</g>
			<polygon opacity="0.15" points="89,65.5 86,67 86,66 89,64.5 			"/>
			<polygon opacity="0.15" points="93,63.5 90,65 90,64 93,62.5 			"/>
			<polygon opacity="0.15" points="93,71.5 90,65 90,64 93,62.5 			"/>
		</g>
		<g>
			<polygon fill="#D8D8D8" points="108,65 99,69.5 99,58.5 108,54 			"/>
			<g>
				<polygon fill="#3399CC" points="100,59 100,68 103,66.5 103,57.5 				"/>
				<polygon opacity="0.2" fill="#FFFFFF" points="100,64 100,68 103,66.5 				"/>
				<polygon fill="#3399CC" points="104,57 104,66 107,64.5 107,55.5 				"/>
			</g>
			<polygon opacity="0.15" points="103,58.5 100,60 100,59 103,57.5 			"/>
			<polygon opacity="0.15" points="107,56.5 104,58 104,57 107,55.5 			"/>
			<polygon opacity="0.15" points="107,63.5 104,58 104,57 107,55.5 			"/>
		</g>
		<g>
			<polygon fill="#D8D8D8" points="122,58 113,62.5 113,51.5 122,47 			"/>
			<g>
				<polygon fill="#3399CC" points="114,52 114,61 117,59.5 117,50.5 				"/>
				<polygon opacity="0.2" fill="#FFFFFF" points="114,57 114,61 117,59.5 				"/>
				<polygon fill="#3399CC" points="118,50 118,59 121,57.5 121,48.5 				"/>
			</g>
			<polygon opacity="0.15" points="117,51.5 114,53 114,52 117,50.5 			"/>
			<polygon opacity="0.15" points="121,49.5 118,51 118,50 121,48.5 			"/>
			<polygon opacity="0.15" points="121,56.5 118,51 118,50 121,48.5 			"/>
		</g>
	</g>
	<path fill="#E5E5E5" d="M128,96v8l92-46v40l4-2V48l-0.6,0.3L224,48L128,0L32,48v0v8l32,16v0l64-32v0l24,12L96,80L128,96"/>
	<polygon opacity="0.06" points="160,65 128,70 128,32 160,48 	"/>
	<polygon opacity="0.06" points="64,96 32,80 32,48 64,64 	"/>
	<g>
		<polygon fill="#762C07" points="64,144 0,112 0,87 64,119 		"/>
		<g opacity="0.2">
			<polygon fill="#D8D8D8" points="60,139 63,140.5 63,142.5 60,141 			"/>
			<polygon fill="#D8D8D8" points="56,137 59,138.5 59,140.5 56,139 			"/>
			<polygon fill="#D8D8D8" points="52,135 55,136.5 55,138.5 52,137 			"/>
			<polygon fill="#D8D8D8" points="48,133 51,134.5 51,136.5 48,135 			"/>
			<polygon fill="#D8D8D8" points="44,131 47,132.5 47,134.5 44,133 			"/>
			<polygon fill="#D8D8D8" points="40,129 43,130.5 43,132.5 40,131 			"/>
			<polygon fill="#D8D8D8" points="36,127 39,128.5 39,130.5 36,129 			"/>
			<polygon fill="#D8D8D8" points="32,125 35,126.5 35,128.5 32,127 			"/>
			<polygon fill="#D8D8D8" points="28,123 31,124.5 31,126.5 28,125 			"/>
			<polygon fill="#D8D8D8" points="24,121 27,122.5 27,124.5 24,123 			"/>
			<polygon fill="#D8D8D8" points="20,119 23,120.5 23,122.5 20,121 			"/>
			<polygon fill="#D8D8D8" points="16,117 19,118.5 19,120.5 16,119 			"/>
			<polygon fill="#D8D8D8" points="12,115 15,116.5 15,118.5 12,117 			"/>
			<polygon fill="#D8D8D8" points="8,113 11,114.5 11,116.5 8,115 			"/>
			<polygon fill="#D8D8D8" points="4,111 7,112.5 7,114.5 4,113 			"/>
			<polygon fill="#D8D8D8" points="62,137 64,138 64,140 62,139 			"/>
			<polygon fill="#D8D8D8" points="58,135 61,136.5 61,138.5 58,137 			"/>
			<polygon fill="#D8D8D8" points="54,133 57,134.5 57,136.5 54,135 			"/>
			<polygon fill="#D8D8D8" points="50,131 53,132.5 53,134.5 50,133 			"/>
			<polygon fill="#D8D8D8" points="46,129 49,130.5 49,132.5 46,131 			"/>
			<polygon fill="#D8D8D8" points="42,127 45,128.5 45,130.5 42,129 			"/>
			<polygon fill="#D8D8D8" points="38,125 41,126.5 41,128.5 38,127 			"/>
			<polygon fill="#D8D8D8" points="34,123 37,124.5 37,126.5 34,125 			"/>
			<polygon fill="#D8D8D8" points="30,121 33,122.5 33,124.5 30,123 			"/>
			<polygon fill="#D8D8D8" points="26,119 29,120.5 29,122.5 26,121 			"/>
			<polygon fill="#D8D8D8" points="22,117 25,118.5 25,120.5 22,119 			"/>
			<polygon fill="#D8D8D8" points="18,115 21,116.5 21,118.5 18,117 			"/>
			<polygon fill="#D8D8D8" points="14,113 17,114.5 17,116.5 14,115 			"/>
			<polygon fill="#D8D8D8" points="10,111 13,112.5 13,114.5 10,113 			"/>
			<polygon fill="#D8D8D8" points="6,109 9,110.5 9,112.5 6,111 			"/>
			<polygon fill="#D8D8D8" points="2,107 5,108.5 5,110.5 2,109 			"/>
			<polygon fill="#D8D8D8" points="60,133 63,134.5 63,136.5 60,135 			"/>
			<polygon fill="#D8D8D8" points="56,131 59,132.5 59,134.5 56,133 			"/>
			<polygon fill="#D8D8D8" points="52,129 55,130.5 55,132.5 52,131 			"/>
			<polygon fill="#D8D8D8" points="48,127 51,128.5 51,130.5 48,129 			"/>
			<polygon fill="#D8D8D8" points="44,125 47,126.5 47,128.5 44,127 			"/>
			<polygon fill="#D8D8D8" points="40,123 43,124.5 43,126.5 40,125 			"/>
			<polygon fill="#D8D8D8" points="36,121 39,122.5 39,124.5 36,123 			"/>
			<polygon fill="#D8D8D8" points="32,119 35,120.5 35,122.5 32,121 			"/>
			<polygon fill="#D8D8D8" points="28,117 31,118.5 31,120.5 28,119 			"/>
			<polygon fill="#D8D8D8" points="24,115 27,116.5 27,118.5 24,117 			"/>
			<polygon fill="#D8D8D8" points="20,113 23,114.5 23,116.5 20,115 			"/>
			<polygon fill="#D8D8D8" points="16,111 19,112.5 19,114.5 16,113 			"/>
			<polygon fill="#D8D8D8" points="12,109 15,110.5 15,112.5 12,111 			"/>
			<polygon fill="#D8D8D8" points="8,107 11,108.5 11,110.5 8,109 			"/>
			<polygon fill="#D8D8D8" points="4,105 7,106.5 7,108.5 4,107 			"/>
			<polygon fill="#D8D8D8" points="62,131 64,132 64,134 62,133 			"/>
			<polygon fill="#D8D8D8" points="58,129 61,130.5 61,132.5 58,131 			"/>
			<polygon fill="#D8D8D8" points="54,127 57,128.5 57,130.5 54,129 			"/>
			<polygon fill="#D8D8D8" points="50,125 53,126.5 53,128.5 50,127 			"/>
			<polygon fill="#D8D8D8" points="46,123 49,124.5 49,126.5 46,125 			"/>
			<polygon fill="#D8D8D8" points="42,121 45,122.5 45,124.5 42,123 			"/>
			<polygon fill="#D8D8D8" points="38,119 41,120.5 41,122.5 38,121 			"/>
			<polygon fill="#D8D8D8" points="34,117 37,118.5 37,120.5 34,119 			"/>
			<polygon fill="#D8D8D8" points="30,115 33,116.5 33,118.5 30,117 			"/>
			<polygon fill="#D8D8D8" points="26,113 29,114.5 29,116.5 26,115 			"/>
			<polygon fill="#D8D8D8" points="22,111 25,112.5 25,114.5 22,113 			"/>
			<polygon fill="#D8D8D8" points="18,109 21,110.5 21,112.5 18,111 			"/>
			<polygon fill="#D8D8D8" points="14,107 17,108.5 17,110.5 14,109 			"/>
			<polygon fill="#D8D8D8" points="10,105 13,106.5 13,108.5 10,107 			"/>
			<polygon fill="#D8D8D8" points="6,103 9,104.5 9,106.5 6,105 			"/>
			<polygon fill="#D8D8D8" points="2,101 5,102.5 5,104.5 2,103 			"/>
			<polygon fill="#D8D8D8" points="60,127 63,128.5 63,130.5 60,129 			"/>
			<polygon fill="#D8D8D8" points="56,125 59,126.5 59,128.5 56,127 			"/>
			<polygon fill="#D8D8D8" points="52,123 55,124.5 55,126.5 52,125 			"/>
			<polygon fill="#D8D8D8" points="48,121 51,122.5 51,124.5 48,123 			"/>
			<polygon fill="#D8D8D8" points="44,119 47,120.5 47,122.5 44,121 			"/>
			<polygon fill="#D8D8D8" points="40,117 43,118.5 43,120.5 40,119 			"/>
			<polygon fill="#D8D8D8" points="36,115 39,116.5 39,118.5 36,117 			"/>
			<polygon fill="#D8D8D8" points="32,113 35,114.5 35,116.5 32,115 			"/>
			<polygon fill="#D8D8D8" points="28,111 31,112.5 31,114.5 28,113 			"/>
			<polygon fill="#D8D8D8" points="24,109 27,110.5 27,112.5 24,111 			"/>
			<polygon fill="#D8D8D8" points="20,107 23,108.5 23,110.5 20,109 			"/>
			<polygon fill="#D8D8D8" points="16,105 19,106.5 19,108.5 16,107 			"/>
			<polygon fill="#D8D8D8" points="12,103 15,104.5 15,106.5 12,105 			"/>
			<polygon fill="#D8D8D8" points="8,101 11,102.5 11,104.5 8,103 			"/>
			<polygon fill="#D8D8D8" points="4,99 7,100.5 7,102.5 4,101 			"/>
			<polygon fill="#D8D8D8" points="62,125 64,126 64,128 62,127 			"/>
			<polygon fill="#D8D8D8" points="58,123 61,124.5 61,126.5 58,125 			"/>
			<polygon fill="#D8D8D8" points="54,121 57,122.5 57,124.5 54,123 			"/>
			<polygon fill="#D8D8D8" points="50,119 53,120.5 53,122.5 50,121 			"/>
			<polygon fill="#D8D8D8" points="46,117 49,118.5 49,120.5 46,119 			"/>
			<polygon fill="#D8D8D8" points="42,115 45,116.5 45,118.5 42,117 			"/>
			<polygon fill="#D8D8D8" points="38,113 41,114.5 41,116.5 38,115 			"/>
			<polygon fill="#D8D8D8" points="34,111 37,112.5 37,114.5 34,113 			"/>
			<polygon fill="#D8D8D8" points="30,109 33,110.5 33,112.5 30,111 			"/>
			<polygon fill="#D8D8D8" points="26,107 29,108.5 29,110.5 26,109 			"/>
			<polygon fill="#D8D8D8" points="22,105 25,106.5 25,108.5 22,107 			"/>
			<polygon fill="#D8D8D8" points="18,103 21,104.5 21,106.5 18,105 			"/>
			<polygon fill="#D8D8D8" points="14,101 17,102.5 17,104.5 14,103 			"/>
			<polygon fill="#D8D8D8" points="10,99 13,100.5 13,102.5 10,101 			"/>
			<polygon fill="#D8D8D8" points="6,97 9,98.5 9,100.5 6,99 			"/>
			<polygon fill="#D8D8D8" points="2,95 5,96.5 5,98.5 2,97 			"/>
			<polygon fill="#D8D8D8" points="60,121 63,122.5 63,124.5 60,123 			"/>
			<polygon fill="#D8D8D8" points="56,119 59,120.5 59,122.5 56,121 			"/>
			<polygon fill="#D8D8D8" points="52,117 55,118.5 55,120.5 52,119 			"/>
			<polygon fill="#D8D8D8" points="48,115 51,116.5 51,118.5 48,117 			"/>
			<polygon fill="#D8D8D8" points="44,113 47,114.5 47,116.5 44,115 			"/>
			<polygon fill="#D8D8D8" points="40,111 43,112.5 43,114.5 40,113 			"/>
			<polygon fill="#D8D8D8" points="36,109 39,110.5 39,112.5 36,111 			"/>
			<polygon fill="#D8D8D8" points="32,107 35,108.5 35,110.5 32,109 			"/>
			<polygon fill="#D8D8D8" points="28,105 31,106.5 31,108.5 28,107 			"/>
			<polygon fill="#D8D8D8" points="24,103 27,104.5 27,106.5 24,105 			"/>
			<polygon fill="#D8D8D8" points="20,101 23,102.5 23,104.5 20,103 			"/>
			<polygon fill="#D8D8D8" points="16,99 19,100.5 19,102.5 16,101 			"/>
			<polygon fill="#D8D8D8" points="12,97 15,98.5 15,100.5 12,99 			"/>
			<polygon fill="#D8D8D8" points="8,95 11,96.5 11,98.5 8,97 			"/>
			<polygon fill="#D8D8D8" points="4,93 7,94.5 7,96.5 4,95 			"/>
			<polygon fill="#D8D8D8" points="62,119 64,120 64,122 62,121 			"/>
			<polygon fill="#D8D8D8" points="58,117 61,118.5 61,120.5 58,119 			"/>
			<polygon fill="#D8D8D8" points="54,115 57,116.5 57,118.5 54,117 			"/>
			<polygon fill="#D8D8D8" points="50,113 53,114.5 53,116.5 50,115 			"/>
			<polygon fill="#D8D8D8" points="46,111 49,112.5 49,114.5 46,113 			"/>
			<polygon fill="#D8D8D8" points="42,109 45,110.5 45,112.5 42,111 			"/>
			<polygon fill="#D8D8D8" points="38,107 41,108.5 41,110.5 38,109 			"/>
			<polygon fill="#D8D8D8" points="34,105 37,106.5 37,108.5 34,107 			"/>
			<polygon fill="#D8D8D8" points="30,103 33,104.5 33,106.5 30,105 			"/>
			<polygon fill="#D8D8D8" points="26,101 29,102.5 29,104.5 26,103 			"/>
			<polygon fill="#D8D8D8" points="22,99 25,100.5 25,102.5 22,101 			"/>
			<polygon fill="#D8D8D8" points="18,97 21,98.5 21,100.5 18,99 			"/>
			<polygon fill="#D8D8D8" points="14,95 17,96.5 17,98.5 14,97 			"/>
			<polygon fill="#D8D8D8" points="10,93 13,94.5 13,96.5 10,95 			"/>
			<polygon fill="#D8D8D8" points="6,91 9,92.5 9,94.5 6,93 			"/>
			<polygon fill="#D8D8D8" points="2,89 5,90.5 5,92.5 2,91 			"/>
			<polygon fill="#D8D8D8" points="0,109 3,110.5 3,112.5 0,111 			"/>
			<polygon fill="#D8D8D8" points="0,106 1,106.5 1,108.5 0,108 			"/>
			<polygon fill="#D8D8D8" points="0,103 3,104.5 3,106.5 0,105 			"/>
			<polygon fill="#D8D8D8" points="0,100 1,100.5 1,102.5 0,102 			"/>
			<polygon fill="#D8D8D8" points="0,97 3,98.5 3,100.5 0,99 			"/>
			<polygon fill="#D8D8D8" points="0,94 1,94.5 1,96.5 0,96 			"/>
			<polygon fill="#D8D8D8" points="0,91 3,92.5 3,94.5 0,93 			"/>
			<polygon fill="#D8D8D8" points="0,88 1,88.5 1,90.5 0,90 			"/>
			<polygon fill="#D8D8D8" points="60,115 63,116.5 63,118.5 60,117 			"/>
			<polygon fill="#D8D8D8" points="56,113 59,114.5 59,116.5 56,115 			"/>
			<polygon fill="#D8D8D8" points="52,111 55,112.5 55,114.5 52,113 			"/>
			<polygon fill="#D8D8D8" points="48,109 51,110.5 51,112.5 48,111 			"/>
			<polygon fill="#D8D8D8" points="44,107 47,108.5 47,110.5 44,109 			"/>
			<polygon fill="#D8D8D8" points="40,105 43,106.5 43,108.5 40,107 			"/>
			<polygon fill="#D8D8D8" points="36,103 39,104.5 39,106.5 36,105 			"/>
			<polygon fill="#D8D8D8" points="32,101 35,102.5 35,104.5 32,103 			"/>
			<polygon fill="#D8D8D8" points="28,99 31,100.5 31,102.5 28,101 			"/>
			<polygon fill="#D8D8D8" points="24,97 27,98.5 27,100.5 24,99 			"/>
			<polygon fill="#D8D8D8" points="20,95 23,96.5 23,98.5 20,97 			"/>
			<polygon fill="#D8D8D8" points="16,93 19,94.5 19,96.5 16,95 			"/>
			<polygon fill="#D8D8D8" points="12,91 15,92.5 15,94.5 12,93 			"/>
			<polygon fill="#D8D8D8" points="8,89 11,90.5 11,92.5 8,91 			"/>
			<polygon fill="#D8D8D8" points="4,87 7,88.5 7,90.5 4,89 			"/>
		</g>
		<polygon fill="#E5E5E5" points="96,96 32,64 0,80 0,88 64,120 64,112 64,112 		"/>
		<g>
			<polygon fill="#FFFFFF" points="58,141 36,130 36,112 58,123 			"/>
			<polygon fill="#D8D8D8" points="37,113.5 57,123.5 57,140.5 37,130.5 			"/>
			<polygon opacity="0.25" fill="#FFFFFF" points="57,139.5 37,129.5 37,128.5 57,138.5 			"/>
			<polygon opacity="0.25" fill="#FFFFFF" points="57,137.5 37,127.5 37,126.5 57,136.5 			"/>
			<polygon opacity="0.25" fill="#FFFFFF" points="57,135.5 37,125.5 37,124.5 57,134.5 			"/>
			<polygon opacity="0.25" fill="#FFFFFF" points="57,133.5 37,123.5 37,122.5 57,132.5 			"/>
			<polygon opacity="0.25" fill="#FFFFFF" points="57,131.5 37,121.5 37,120.5 57,130.5 			"/>
			<polygon opacity="0.25" fill="#FFFFFF" points="57,129.5 37,119.5 37,118.5 57,128.5 			"/>
			<polygon opacity="0.25" fill="#FFFFFF" points="57,127.5 37,117.5 37,116.5 57,126.5 			"/>
			<polygon opacity="0.25" fill="#FFFFFF" points="57,125.5 37,115.5 37,114.5 57,124.5 			"/>
		</g>
		<g>
			<polygon fill="#FFFFFF" points="26,125 4,114 4,96 26,107 			"/>
			<polygon fill="#D8D8D8" points="5,97.5 25,107.5 25,124.5 5,114.5 			"/>
			<polygon opacity="0.25" fill="#FFFFFF" points="25,123.5 5,113.5 5,112.5 25,122.5 			"/>
			<polygon opacity="0.25" fill="#FFFFFF" points="25,121.5 5,111.5 5,110.5 25,120.5 			"/>
			<polygon opacity="0.25" fill="#FFFFFF" points="25,119.5 5,109.5 5,108.5 25,118.5 			"/>
			<polygon opacity="0.25" fill="#FFFFFF" points="25,117.5 5,107.5 5,106.5 25,116.5 			"/>
			<polygon opacity="0.25" fill="#FFFFFF" points="25,115.5 5,105.5 5,104.5 25,114.5 			"/>
			<polygon opacity="0.25" fill="#FFFFFF" points="25,113.5 5,103.5 5,102.5 25,112.5 			"/>
			<polygon opacity="0.25" fill="#FFFFFF" points="25,111.5 5,101.5 5,100.5 25,110.5 			"/>
			<polygon opacity="0.25" fill="#FFFFFF" points="25,109.5 5,99.5 5,98.5 25,108.5 			"/>
		</g>
	</g>
	<polygon opacity="0.39" points="64,97 128,65 128,32 64,64 	"/>
	<polygon opacity="0.39" points="128,144 224,96 224,48 128,96 	"/>
	<polygon fill="#E5E5E5" points="128,0 32,48 64,64 128,32 160,48 96,80 128,96 224,48 	"/>
	<polygon opacity="0.3" fill="#202426" points="104.9,80 168.9,48 128,27.5 64,59.5 40.9,48 128,4.4 215.1,48 128,91.5 	"/>
	<g>
		<polygon opacity="0.06" points="128,6.9 212.5,49.2 215.1,48 128,4.4 		"/>
		<polygon opacity="0.39" points="128,6.9 128,4.4 40.9,48 43.5,49.2 		"/>
		<polygon opacity="0.39" points="168.9,48 104.9,80 107.5,81.2 168.9,50.5 		"/>
	</g>
	<polygon opacity="0.06" points="32,70.9 84.5,97.2 87.1,96 32,68.4 	"/>
	<polygon opacity="0.3" fill="#202426" points="8.9,80 32,68.4 87.1,96 64,107.5 	"/>
	<polygon opacity="0.39" points="32,70.9 32,68.4 8.9,80 11.5,81.2 	"/>
	<polygon fill="#E5E5E5" points="96,64 64,80 64,112 96,128 128,112 128,80 	"/>
	<polygon opacity="0.3" fill="#202426" points="72.1,80 96,68 119.9,80 96,91.9 	"/>
	<g>
		<polygon opacity="0.39" points="72.1,80 74.1,81 96,70 96,68 		"/>
		<polygon opacity="0.06" points="119.9,80 96,68 96,70 117.9,81 		"/>
	</g>
	<g>
		<polygon fill="#3399CC" points="96,102 125,87.5 125,145.5 96,160 		"/>
		<polygon opacity="0.15" points="125,89.5 96,104 96,103 125,88.5 		"/>
		<polygon opacity="0.15" points="125,91.5 96,106 96,103 125,88.5 		"/>
		<g>
			<polygon opacity="0.15" points="120,132 101,141.5 101,140.5 120,131 			"/>
			<polygon opacity="0.15" points="120,134 101,143.5 101,140.5 120,131 			"/>
			<polygon opacity="0.15" points="120,139 101,140.5 101,140.5 120,131 			"/>
		</g>
		<polygon opacity="0.3" fill="#FFFFFF" points="126,98 96,113 96,112 126,97 		"/>
		<polygon opacity="0.3" fill="#FFFFFF" points="126,108 96,123 96,122 126,107 		"/>
		<polygon opacity="0.3" fill="#FFFFFF" points="126,118 96,133 96,132 126,117 		"/>
		<polygon opacity="0.3" fill="#FFFFFF" points="126,128 96,143 96,142 126,127 		"/>
		<polygon opacity="0.7" fill="#FFFFFF" points="101,157.5 100,158 100,99 101,98.5 		"/>
		<polygon opacity="0.7" fill="#FFFFFF" points="106,155 105,155.5 105,96.5 106,96 		"/>
		<polygon opacity="0.7" fill="#FFFFFF" points="111,152.5 110,153 110,94 111,93.5 		"/>
		<polygon opacity="0.7" fill="#FFFFFF" points="116,150 115,150.5 115,91.5 116,91 		"/>
		<polygon opacity="0.7" fill="#FFFFFF" points="121,147.5 120,148 120,89 121,88.5 		"/>
		<polygon fill="#E5E5E5" points="96,96 128,80 128,144 125,145.5 125,88.5 96,103 		"/>
		<polygon opacity="0.2" fill="#FFFFFF" points="115,132.5 111,134.5 111,125.5 115,123.5 		"/>
		<polygon opacity="0.2" fill="#FFFFFF" points="120,120 116,122 116,113 120,111 		"/>
		<polygon opacity="0.2" fill="#FFFFFF" points="125,107.5 121,109.5 121,100.5 125,98.5 		"/>
		<polygon opacity="0.1" fill="#FFFFFF" points="125,97.5 121,99.5 121,90.5 125,88.5 		"/>
		<polygon opacity="0.1" fill="#FFFFFF" points="120,110 116,112 116,103 120,101 		"/>
		<polygon opacity="0.1" fill="#FFFFFF" points="115,122.5 111,124.5 111,115.5 115,113.5 		"/>
		<polygon opacity="0.1" fill="#FFFFFF" points="110,135 106,137 106,128 110,126 		"/>
		<polygon opacity="0.2" fill="#FFFFFF" points="114,151 101,157.5 101,145.5 		"/>
		<polygon opacity="0.1" fill="#FFFFFF" points="105,117.5 101,119.5 101,110.5 105,108.5 		"/>
		<polygon opacity="0.1" fill="#FFFFFF" points="110,106 106,108 106,99 110,97 		"/>
		<polygon opacity="0.1" fill="#FFFFFF" points="100,130 96,132 96,123 100,121 		"/>
		<polygon fill="#D8D8D8" points="122,147 122,127 99,138.5 99,158.5 101,157.5 101,140.5 120,131 120,148 		"/>
		<polygon fill="#3366CC" points="125,123.5 96,138 96,125 125,110.5 		"/>
		<text transform="matrix(1 -0.4999 0 1 98.2008 133.4712)" fill="#FFFFFF" font-family="'ArialMT'" font-size="7">POLICE</text>
		<polygon opacity="0.39" points="96,96 128,80 128,144 96,160 		"/>
	</g>
	<g>
		<polygon fill="#3399CC" points="96,102 67,87.5 67,145.5 96,160 		"/>
		<polygon opacity="0.15" points="67,89.5 96,104 96,103 67,88.5 		"/>
		<polygon opacity="0.15" points="67,91.5 96,106 96,103 67,88.5 		"/>
		<polygon opacity="0.3" fill="#FFFFFF" points="66,98 96,113 96,112 66,97 		"/>
		<polygon opacity="0.3" fill="#FFFFFF" points="66,108 96,123 96,122 66,107 		"/>
		<polygon opacity="0.3" fill="#FFFFFF" points="66,118 96,133 96,132 66,117 		"/>
		<polygon opacity="0.3" fill="#FFFFFF" points="66,128 96,143 96,142 66,127 		"/>
		<polygon opacity="0.7" fill="#FFFFFF" points="91,157.5 92,158 92,99 91,98.5 		"/>
		<polygon opacity="0.7" fill="#FFFFFF" points="86,155 87,155.5 87,96.5 86,96 		"/>
		<polygon opacity="0.7" fill="#FFFFFF" points="81,152.5 82,153 82,94 81,93.5 		"/>
		<polygon opacity="0.7" fill="#FFFFFF" points="76,150 77,150.5 77,91.5 76,91 		"/>
		<polygon opacity="0.7" fill="#FFFFFF" points="71,147.5 72,148 72,89 71,88.5 		"/>
		<polygon opacity="0.2" fill="#FFFFFF" points="86,137 82,135 82,126 86,128 		"/>
		<polygon opacity="0.2" fill="#FFFFFF" points="91,129.5 87,127.5 87,118.5 91,120.5 		"/>
		<polygon opacity="0.2" fill="#FFFFFF" points="96,122 92,120 92,111 96,113 		"/>
		<polygon opacity="0.1" fill="#FFFFFF" points="96,112 92,110 92,101 96,103 		"/>
		<polygon opacity="0.1" fill="#FFFFFF" points="91,119.5 87,117.5 87,108.5 91,110.5 		"/>
		<polygon opacity="0.1" fill="#FFFFFF" points="86,127 82,125 82,116 86,118 		"/>
		<polygon opacity="0.1" fill="#FFFFFF" points="81,134.5 77,132.5 77,123.5 81,125.5 		"/>
		<polygon opacity="0.1" fill="#FFFFFF" points="76,112 72,110 72,101 76,103 		"/>
		<polygon opacity="0.1" fill="#FFFFFF" points="81,105.5 77,103.5 77,94.5 81,96.5 		"/>
		<polygon opacity="0.1" fill="#FFFFFF" points="71,119.5 67,117.5 67,108.5 71,110.5 		"/>
		<polygon fill="#E5E5E5" points="96,96 64,80 64,144 67,145.5 67,88.5 96,103 		"/>
		<polygon opacity="0.06" points="96,96 64,80 64,144 96,160 		"/>
	</g>
	<polygon opacity="0.06" points="64,144 0,112 0,80 64,112 	"/>
	<polygon fill="#E5E5E5" points="84,81 98,74 100,75 86,82 	"/>
	<polygon fill="#E5E5E5" points="92,85 106,78 108,79 94,86 	"/>
	<polygon fill="#E5E5E5" points="94,77 102,81 100,82 92,78 	"/>
	<g>
		<polygon fill="#E5E5E5" points="34,73 22,79 22,83 34,89 46,83 46,79 		"/>
		<polygon opacity="0.39" points="46,83 34,89 34,85 46,79 		"/>
		<polygon opacity="0.06" points="22,83 34,89 34,85 22,79 		"/>
	</g>
	<g>
		<polygon fill="#E5E5E5" points="48,80 36,86 36,90 48,96 60,90 60,86 		"/>
		<polygon opacity="0.39" points="60,90 48,96 48,92 60,86 		"/>
		<polygon opacity="0.06" points="36,90 48,96 48,92 36,86 		"/>
	</g>
</g>
</svg>
