<?xml version="1.0" encoding="utf-8"?>
<!-- Generator: Adobe Illustrator 18.1.0, SVG Export Plug-In . SVG Version: 6.00 Build 0)  -->
<svg version="1.1" id="Layer_1" xmlns="http://www.w3.org/2000/svg" xmlns:xlink="http://www.w3.org/1999/xlink" x="0px" y="0px"
	 viewBox="0 0 128 128" enable-background="new 0 0 128 128" xml:space="preserve">
<g>
	<polygon fill="#999999" points="64,128 128,96 64,64 0,96 	"/>
	<polygon fill="#999999" points="64,128 128,96 64,64 0,96 	"/>
	<g>
		<polygon fill="#F8EBCB" points="125,93.5 64,124 64,61 125,30.5 		"/>
		<polygon fill="#3399CC" points="124,94 65,123.5 65,105.5 124,76 		"/>
		<polygon opacity="0.15" points="87,112.5 66,123 66,119 87,108.5 		"/>
		<polygon opacity="0.15" points="122,95 102,105 102,101 122,91 		"/>
		<polygon fill="#F8EBCB" points="125,94.5 123,95.5 123,74.5 125,73.5 		"/>
		<polygon fill="#F8EBCB" points="122,95.1 123,95.5 123,65.5 122,66 		"/>
		<polygon opacity="0.1" points="122,95.1 123,95.5 123,74.5 122,75 		"/>
		<polygon fill="#F8EBCB" points="66,124 64,125 64,104 66,103 		"/>
		<polygon opacity="0.15" points="125,73.5 64,104 64,103 125,72.5 		"/>
		<polygon opacity="0.5" fill="#FFFFFF" points="125,72.5 64,103 64,102 125,71.5 		"/>
		<polygon opacity="0.15" points="125,32.5 64,63 64,62 125,31.5 		"/>
		<polygon opacity="0.5" fill="#FFFFFF" points="125,31.5 64,62 64,61 125,30.5 		"/>
		<polygon opacity="0.5" fill="#FFFFFF" points="87,96.5 87,112.5 88,112 88,97 94,94 94,109 95,108.5 95,93.5 101,90.5 101,105.5 
			102,105 102,89 		"/>
		<polygon opacity="0.15" points="66,103 67,102.5 67,122.5 66,123 		"/>
		<polygon opacity="0.15" points="66,62 67,61.5 67,100.5 66,101 		"/>
		<polygon opacity="0.15" points="122,34 123,33.5 123,72.5 122,73 		"/>
		<polygon opacity="0.15" points="121,81.5 122,81 122,95 121,95.5 		"/>
		<polygon opacity="0.15" points="116,94 116,84 115,84.5 115,94.5 109,97.5 109,87.5 108,88 108,98 103,100.5 103,101.5 121,92.5 
			121,91.5 		"/>
		<polygon opacity="0.15" points="80,112 80,102 79,102.5 79,112.5 73,115.5 73,105.5 72,106 72,116 66.8,118.6 67,119.5 86,110 
			86,109 		"/>
		<polygon opacity="0.15" points="102,91 103,90.5 103,104.5 102,105 		"/>
		<polygon opacity="0.15" points="86,99 87,98.5 87,112.5 86,113 		"/>
		<polygon opacity="0.2" fill="#FFFFFF" points="88,106 88,112 94,109 		"/>
		<polygon opacity="0.15" points="95,97.5 101,94.5 101,105.5 95,99.5 		"/>
		<polygon opacity="0.15" points="116,87 122,84 122,89 116,89 		"/>
		<polygon opacity="0.15" points="109,90.5 116,87 116,92 109,92.5 		"/>
		<polygon opacity="0.15" points="80,105 87,101.5 87,106.5 80,107 		"/>
		<g>
			<path fill="#FFFFFF" d="M73,107.5l-3,1.5c0,0,0,0.8,0,1c0,0.8,0.7,1.2,1.5,0.7s1.5-1.4,1.5-2.3C73,108.3,73,107.5,73,107.5z"/>
			<path fill="#CC291F" d="M76,105.5l-3,1.5c0,0,0,1.3,0,1.5c0,0.8,0.7,1.2,1.5,0.7c0.8-0.4,1.5-1.4,1.5-2.3
				C76,106.8,76,105.5,76,105.5z"/>
			<path fill="#FFFFFF" d="M79,104.5l-3,1.5c0,0,0,0.8,0,1c0,0.8,0.7,1.2,1.5,0.7s1.5-1.4,1.5-2.3C79,105.3,79,104.5,79,104.5z"/>
			<path fill="#CC291F" d="M82,102.5l-3,1.5c0,0,0,1.3,0,1.5c0,0.8,0.7,1.2,1.5,0.7c0.8-0.4,1.5-1.4,1.5-2.3
				C82,103.8,82,102.5,82,102.5z"/>
			<path fill="#FFFFFF" d="M85,101.5l-3,1.5c0,0,0,0.8,0,1c0,0.8,0.7,1.2,1.5,0.7s1.5-1.4,1.5-2.3C85,102.3,85,101.5,85,101.5z"/>
			<path fill="#CC291F" d="M88,99.5l-3,1.5c0,0,0,1.3,0,1.5c0,0.8,0.7,1.2,1.5,0.7c0.8-0.4,1.5-1.4,1.5-2.3
				C88,100.8,88,99.5,88,99.5z"/>
			<path fill="#FFFFFF" d="M91,98.5l-3,1.5c0,0,0,0.8,0,1c0,0.8,0.7,1.2,1.5,0.7c0.8-0.4,1.5-1.4,1.5-2.3C91,99.3,91,98.5,91,98.5z"
				/>
			<path fill="#CC291F" d="M94,96.5L91,98c0,0,0,1.3,0,1.5c0,0.8,0.7,1.2,1.5,0.7S94,98.8,94,98C94,97.8,94,96.5,94,96.5z"/>
			<path fill="#FFFFFF" d="M97,95.5L94,97c0,0,0,0.8,0,1c0,0.8,0.7,1.2,1.5,0.7c0.8-0.4,1.5-1.4,1.5-2.3C97,96.3,97,95.5,97,95.5z"
				/>
			<path fill="#CC291F" d="M100,93.5L97,95c0,0,0,1.3,0,1.5c0,0.8,0.7,1.2,1.5,0.7s1.5-1.4,1.5-2.3C100,94.8,100,93.5,100,93.5z"/>
			<path fill="#FFFFFF" d="M103,92.5l-3,1.5c0,0,0,0.8,0,1c0,0.8,0.7,1.2,1.5,0.7c0.8-0.4,1.5-1.4,1.5-2.3
				C103,93.3,103,92.5,103,92.5z"/>
			<path fill="#CC291F" d="M106,90.5l-3,1.5c0,0,0,1.3,0,1.5c0,0.8,0.7,1.2,1.5,0.7s1.5-1.4,1.5-2.3C106,91.8,106,90.5,106,90.5z"/>
			<path fill="#FFFFFF" d="M109,89.5l-3,1.5c0,0,0,0.8,0,1c0,0.8,0.7,1.2,1.5,0.7c0.8-0.4,1.5-1.4,1.5-2.3
				C109,90.3,109,89.5,109,89.5z"/>
			<path fill="#CC291F" d="M112,87.5l-3,1.5c0,0,0,1.3,0,1.5c0,0.8,0.7,1.2,1.5,0.7s1.5-1.4,1.5-2.3C112,88.8,112,87.5,112,87.5z"/>
			<path fill="#FFFFFF" d="M115,86.5l-3,1.5c0,0,0,0.8,0,1c0,0.8,0.7,1.2,1.5,0.7c0.8-0.4,1.5-1.4,1.5-2.3
				C115,87.3,115,86.5,115,86.5z"/>
			<path fill="#CC291F" d="M118,84.5l-3,1.5c0,0,0,1.3,0,1.5c0,0.8,0.7,1.2,1.5,0.7s1.5-1.4,1.5-2.3C118,85.8,118,84.5,118,84.5z"/>
			<path fill="#FFFFFF" d="M121,83.5l-3,1.5c0,0,0,0.8,0,1c0,0.8,0.7,1.2,1.5,0.7c0.8-0.4,1.5-1.4,1.5-2.3
				C121,84.3,121,83.5,121,83.5z"/>
			<path fill="#CC291F" d="M124,81.5l-3,1.5c0,0,0,1.3,0,1.5c0,0.8,0.7,1.2,1.5,0.7c0.8-0.4,1.5-1.4,1.5-2.3
				C124,82.8,124,81.5,124,81.5z"/>
			<path fill="#FFFFFF" d="M127,80.5l-3,1.5c0,0,0,0.8,0,1c0,0.8,0.7,1.2,1.5,0.7s1.5-1.4,1.5-2.3C127,81.3,127,80.5,127,80.5z"/>
		</g>
		<path opacity="0.39" d="M70,109c0,0,0,0.8,0,1c0,0.8,0.7,1.2,1.5,0.7s1.5-1.4,1.5-2.3c0,0.8,0.7,1.2,1.5,0.7s1.5-1.4,1.5-2.3
			c0,0.8,0.7,1.2,1.5,0.7s1.5-1.4,1.5-2.3c0,0.8,0.7,1.2,1.5,0.7s1.5-1.4,1.5-2.3c0,0.8,0.7,1.2,1.5,0.7s1.5-1.4,1.5-2.3
			c0,0.8,0.7,1.2,1.5,0.7s1.5-1.4,1.5-2.3c0,0.8,0.7,1.2,1.5,0.7s1.5-1.4,1.5-2.3c0,0.8,0.7,1.2,1.5,0.7S94,98.8,94,98
			c0,0.8,0.7,1.2,1.5,0.7s1.5-1.4,1.5-2.3c0,0.8,0.7,1.2,1.5,0.7s1.5-1.4,1.5-2.3c0,0.8,0.7,1.2,1.5,0.7s1.5-1.4,1.5-2.3
			c0,0.8,0.7,1.2,1.5,0.7s1.5-1.4,1.5-2.3c0,0.8,0.7,1.2,1.5,0.7s1.5-1.4,1.5-2.3c0,0.8,0.7,1.2,1.5,0.7s1.5-1.4,1.5-2.3
			c0,0.8,0.7,1.2,1.5,0.7s1.5-1.4,1.5-2.3c0,0.8,0.7,1.2,1.5,0.7s1.5-1.4,1.5-2.3c0,0.8,0.7,1.2,1.5,0.7s1.5-1.4,1.5-2.3
			c0,0.8,0.7,1.2,1.5,0.7s1.5-1.4,1.5-2.3c0,0.8,0.7,1.2,1.5,0.7s1.5-1.4,1.5-2.3c0-0.2,0-1,0-1L70,109z"/>
		<g>
			<polygon fill="#FFFFFF" points="73,107.5 70,109 66,104.7 69,103.2 			"/>
			<path fill="#CC291F" d="M70,109l-4-4.2v3.6l0,0c0,0.4,0,1,0,1.2c0,0.8,0.9,1.7,2,2c1.1,0.3,2-0.2,2-1C70,110.3,70,109,70,109
				L70,109L70,109z"/>
			<polygon fill="#CC291F" points="76,106 73,107.5 69,103.2 72,101.7 			"/>
			<polygon fill="#FFFFFF" points="79,104.5 76,106 72,101.7 75,100.2 			"/>
			<polygon fill="#CC291F" points="82,103 79,104.5 75,100.2 78,98.7 			"/>
			<polygon fill="#FFFFFF" points="85,101.5 82,103 78,98.7 81,97.2 			"/>
			<polygon fill="#CC291F" points="88,100 85,101.5 81,97.2 84,95.7 			"/>
			<polygon fill="#FFFFFF" points="91,98.5 88,100 84,95.7 87,94.2 			"/>
			<polygon fill="#CC291F" points="94,97 91,98.5 87,94.2 90,92.7 			"/>
			<polygon fill="#FFFFFF" points="97,95.5 94,97 90,92.7 93,91.2 			"/>
			<polygon fill="#CC291F" points="100,94 97,95.5 93,91.2 96,89.7 			"/>
			<polygon fill="#FFFFFF" points="103,92.5 100,94 96,89.7 99,88.2 			"/>
			<polygon fill="#CC291F" points="106,91 103,92.5 99,88.2 102,86.7 			"/>
			<polygon fill="#FFFFFF" points="109,89.5 106,91 102,86.7 105,85.2 			"/>
			<polygon fill="#CC291F" points="112,88 109,89.5 105,85.2 108,83.7 			"/>
			<polygon fill="#FFFFFF" points="115,86.5 112,88 108,83.7 111,82.2 			"/>
			<polygon fill="#CC291F" points="118,85 115,86.5 111,82.2 114,80.7 			"/>
			<polygon fill="#FFFFFF" points="121,83.5 118,85 114,80.7 117,79.2 			"/>
			<polygon fill="#FFFFFF" points="127,80.5 124,82 120,77.7 123,76.2 			"/>
			<polygon fill="#CC291F" points="124,82 121,83.5 117,79.2 120,77.7 			"/>
		</g>
		<g>
			<path fill="#7FADB9" d="M120,72l-5,2.5V66c0-1.4,1.1-3.1,2.5-3.8l0,0c1.4-0.7,2.5-0.1,2.5,1.2V72z"/>
			<path fill="#3399CC" d="M117.5,62.2c-1.4,0.7-2.5,2.4-2.5,3.8v8.5l2-1l1-0.5l2-1v-8.5C120,62.1,118.9,61.6,117.5,62.2z M116,65.5
				c0-0.7,0.4-1.4,1-1.9v2.9l-1,0.5V65.5z M116,68l1-0.5v2l-1,0.5V68z M116,73v-2l1-0.5v2L116,73z M119,71.5l-1,0.5v-2l1-0.5V71.5z
				 M119,68.5l-1,0.5v-2l1-0.5V68.5z M119,65.5l-1,0.5v-2.9c0.6-0.1,1,0.3,1,0.9V65.5z"/>
			<path opacity="0.4" d="M117.5,62.2c-0.2,0.1-0.4,0.3-0.6,0.4c1.2-0.5,2.1,0,2.1,1.2v7.7l-4,2v1l5-2.5v-8.5
				C120,62.1,118.9,61.6,117.5,62.2z"/>
			<polygon opacity="0.5" fill="#FFFFFF" points="121,72.5 114,76 114,75 121,71.5 			"/>
		</g>
		<g>
			<path fill="#7FADB9" d="M112,76l-5,2.5V70c0-1.4,1.1-3.1,2.5-3.8l0,0c1.4-0.7,2.5-0.1,2.5,1.2V76z"/>
			<path fill="#3399CC" d="M109.5,66.2c-1.4,0.7-2.5,2.4-2.5,3.8v8.5l2-1l1-0.5l2-1v-8.5C112,66.1,110.9,65.6,109.5,66.2z M108,69.5
				c0-0.7,0.4-1.4,1-1.9v2.9l-1,0.5V69.5z M108,72l1-0.5v2l-1,0.5V72z M108,77v-2l1-0.5v2L108,77z M111,75.5l-1,0.5v-2l1-0.5V75.5z
				 M111,72.5l-1,0.5v-2l1-0.5V72.5z M111,69.5l-1,0.5v-2.9c0.6-0.1,1,0.3,1,0.9V69.5z"/>
			<path opacity="0.4" d="M109.5,66.2c-0.2,0.1-0.4,0.3-0.6,0.4c1.2-0.5,2.1,0,2.1,1.2v7.7l-4,2v1l5-2.5v-8.5
				C112,66.1,110.9,65.6,109.5,66.2z"/>
			<polygon opacity="0.5" fill="#FFFFFF" points="113,76.5 106,80 106,79 113,75.5 			"/>
		</g>
		<g>
			<path fill="#7FADB9" d="M101,81.5L96,84v-8.5c0-1.4,1.1-3.1,2.5-3.8v0c1.4-0.7,2.5-0.1,2.5,1.2V81.5z"/>
			<path fill="#3399CC" d="M98.5,71.7c-1.4,0.7-2.5,2.4-2.5,3.8V84l2-1l1-0.5l2-1V73C101,71.6,99.9,71.1,98.5,71.7z M97,75
				c0-0.7,0.4-1.4,1-1.9V76l-1,0.5V75z M97,77.5l1-0.5v2l-1,0.5V77.5z M97,82.5v-2l1-0.5v2L97,82.5z M100,81l-1,0.5v-2l1-0.5V81z
				 M100,78l-1,0.5v-2l1-0.5V78z M100,75l-1,0.5v-2.9c0.6-0.1,1,0.3,1,0.9V75z"/>
			<path opacity="0.4" d="M98.5,71.7c-0.2,0.1-0.4,0.3-0.6,0.4c1.2-0.5,2.1,0,2.1,1.2V81l-4,2v1l5-2.5V73
				C101,71.6,99.9,71.1,98.5,71.7z"/>
			<polygon opacity="0.5" fill="#FFFFFF" points="102,82 95,85.5 95,84.5 102,81 			"/>
		</g>
		<g>
			<path fill="#7FADB9" d="M93,85.5L88,88v-8.5c0-1.4,1.1-3.1,2.5-3.8v0c1.4-0.7,2.5-0.1,2.5,1.2V85.5z"/>
			<path fill="#3399CC" d="M90.5,75.7c-1.4,0.7-2.5,2.4-2.5,3.8V88l2-1l1-0.5l2-1V77C93,75.6,91.9,75.1,90.5,75.7z M89,79
				c0-0.7,0.4-1.4,1-1.9V80l-1,0.5V79z M89,81.5l1-0.5v2l-1,0.5V81.5z M89,86.5v-2l1-0.5v2L89,86.5z M92,85l-1,0.5v-2l1-0.5V85z
				 M92,82l-1,0.5v-2l1-0.5V82z M92,79l-1,0.5v-2.9c0.6-0.1,1,0.3,1,0.9V79z"/>
			<path opacity="0.4" d="M90.5,75.7c-0.2,0.1-0.4,0.3-0.6,0.4c1.2-0.5,2.1,0,2.1,1.2V85l-4,2v1l5-2.5V77
				C93,75.6,91.9,75.1,90.5,75.7z"/>
			<polygon opacity="0.5" fill="#FFFFFF" points="94,86 87,89.5 87,88.5 94,85 			"/>
		</g>
		<g>
			<path fill="#7FADB9" d="M82,91l-5,2.5V85c0-1.4,1.1-3.1,2.5-3.8l0,0c1.4-0.7,2.5-0.1,2.5,1.2V91z"/>
			<path fill="#3399CC" d="M79.5,81.2C78.1,81.9,77,83.6,77,85v8.5l2-1l1-0.5l2-1v-8.5C82,81.1,80.9,80.6,79.5,81.2z M78,84.5
				c0-0.7,0.4-1.4,1-1.9v2.9L78,86V84.5z M78,87l1-0.5v2L78,89V87z M78,92v-2l1-0.5v2L78,92z M81,90.5L80,91v-2l1-0.5V90.5z
				 M81,87.5L80,88v-2l1-0.5V87.5z M81,84.5L80,85v-2.9c0.6-0.1,1,0.3,1,0.9V84.5z"/>
			<path opacity="0.4" d="M79.5,81.2c-0.2,0.1-0.4,0.3-0.6,0.4c1.2-0.5,2.1,0,2.1,1.2v7.7l-4,2v1l5-2.5v-8.5
				C82,81.1,80.9,80.6,79.5,81.2z"/>
			<polygon opacity="0.5" fill="#FFFFFF" points="83,91.5 76,95 76,94 83,90.5 			"/>
		</g>
		<g>
			<path fill="#7FADB9" d="M74,95l-5,2.5V89c0-1.4,1.1-3.1,2.5-3.8v0c1.4-0.7,2.5-0.1,2.5,1.2V95z"/>
			<path fill="#3399CC" d="M71.5,85.2C70.1,85.9,69,87.6,69,89v8.5l2-1l1-0.5l2-1v-8.5C74,85.1,72.9,84.6,71.5,85.2z M70,88.5
				c0-0.7,0.4-1.4,1-1.9v2.9L70,90V88.5z M70,91l1-0.5v2L70,93V91z M70,96v-2l1-0.5v2L70,96z M73,94.5L72,95v-2l1-0.5V94.5z
				 M73,91.5L72,92v-2l1-0.5V91.5z M73,88.5L72,89v-2.9c0.6-0.1,1,0.3,1,0.9V88.5z"/>
			<path opacity="0.4" d="M71.5,85.2c-0.2,0.1-0.4,0.3-0.6,0.4c1.2-0.5,2.1,0,2.1,1.2v7.7l-4,2v1l5-2.5v-8.5
				C74,85.1,72.9,84.6,71.5,85.2z"/>
			<polygon opacity="0.5" fill="#FFFFFF" points="75,95.5 68,99 68,98 75,94.5 			"/>
		</g>
		<g>
			<path fill="#7FADB9" d="M120,58l-5,2.5V52c0-1.4,1.1-3.1,2.5-3.8l0,0c1.4-0.7,2.5-0.1,2.5,1.2V58z"/>
			<path fill="#3399CC" d="M117.5,48.2c-1.4,0.7-2.5,2.4-2.5,3.8v8.5l2-1l1-0.5l2-1v-8.5C120,48.1,118.9,47.6,117.5,48.2z M116,51.5
				c0-0.7,0.4-1.4,1-1.9v2.9l-1,0.5V51.5z M116,54l1-0.5v2l-1,0.5V54z M116,59v-2l1-0.5v2L116,59z M119,57.5l-1,0.5v-2l1-0.5V57.5z
				 M119,54.5l-1,0.5v-2l1-0.5V54.5z M119,51.5l-1,0.5v-2.9c0.6-0.1,1,0.3,1,0.9V51.5z"/>
			<path opacity="0.4" d="M117.5,48.2c-0.2,0.1-0.4,0.3-0.6,0.4c1.2-0.5,2.1,0,2.1,1.2v7.7l-4,2v1l5-2.5v-8.5
				C120,48.1,118.9,47.6,117.5,48.2z"/>
			<polygon opacity="0.5" fill="#FFFFFF" points="121,58.5 114,62 114,61 121,57.5 			"/>
		</g>
		<g>
			<path fill="#7FADB9" d="M112,62l-5,2.5V56c0-1.4,1.1-3.1,2.5-3.8v0c1.4-0.7,2.5-0.1,2.5,1.2V62z"/>
			<path fill="#3399CC" d="M109.5,52.2c-1.4,0.7-2.5,2.4-2.5,3.8v8.5l2-1l1-0.5l2-1v-8.5C112,52.1,110.9,51.6,109.5,52.2z M108,55.5
				c0-0.7,0.4-1.4,1-1.9v2.9l-1,0.5V55.5z M108,58l1-0.5v2l-1,0.5V58z M108,63v-2l1-0.5v2L108,63z M111,61.5l-1,0.5v-2l1-0.5V61.5z
				 M111,58.5l-1,0.5v-2l1-0.5V58.5z M111,55.5l-1,0.5v-2.9c0.6-0.1,1,0.3,1,0.9V55.5z"/>
			<path opacity="0.4" d="M109.5,52.2c-0.2,0.1-0.4,0.3-0.6,0.4c1.2-0.5,2.1,0,2.1,1.2v7.7l-4,2v1l5-2.5v-8.5
				C112,52.1,110.9,51.6,109.5,52.2z"/>
			<polygon opacity="0.5" fill="#FFFFFF" points="113,62.5 106,66 106,65 113,61.5 			"/>
		</g>
		<g>
			<path fill="#7FADB9" d="M101,67.5L96,70v-8.5c0-1.4,1.1-3.1,2.5-3.8l0,0c1.4-0.7,2.5-0.1,2.5,1.2V67.5z"/>
			<path fill="#3399CC" d="M98.5,57.7c-1.4,0.7-2.5,2.4-2.5,3.8V70l2-1l1-0.5l2-1V59C101,57.6,99.9,57.1,98.5,57.7z M97,61
				c0-0.7,0.4-1.4,1-1.9V62l-1,0.5V61z M97,63.5l1-0.5v2l-1,0.5V63.5z M97,68.5v-2l1-0.5v2L97,68.5z M100,67l-1,0.5v-2l1-0.5V67z
				 M100,64l-1,0.5v-2l1-0.5V64z M100,61l-1,0.5v-2.9c0.6-0.1,1,0.3,1,0.9V61z"/>
			<path opacity="0.4" d="M98.5,57.7c-0.2,0.1-0.4,0.3-0.6,0.4c1.2-0.5,2.1,0,2.1,1.2V67l-4,2v1l5-2.5V59
				C101,57.6,99.9,57.1,98.5,57.7z"/>
			<polygon opacity="0.5" fill="#FFFFFF" points="102,68 95,71.5 95,70.5 102,67 			"/>
		</g>
		<g>
			<path fill="#7FADB9" d="M93,71.5L88,74v-8.5c0-1.4,1.1-3.1,2.5-3.8v0c1.4-0.7,2.5-0.1,2.5,1.2V71.5z"/>
			<path fill="#3399CC" d="M90.5,61.7c-1.4,0.7-2.5,2.4-2.5,3.8V74l2-1l1-0.5l2-1V63C93,61.6,91.9,61.1,90.5,61.7z M89,65
				c0-0.7,0.4-1.4,1-1.9V66l-1,0.5V65z M89,67.5l1-0.5v2l-1,0.5V67.5z M89,72.5v-2l1-0.5v2L89,72.5z M92,71l-1,0.5v-2l1-0.5V71z
				 M92,68l-1,0.5v-2l1-0.5V68z M92,65l-1,0.5v-2.9c0.6-0.1,1,0.3,1,0.9V65z"/>
			<path opacity="0.4" d="M90.5,61.7c-0.2,0.1-0.4,0.3-0.6,0.4c1.2-0.5,2.1,0,2.1,1.2V71l-4,2v1l5-2.5V63
				C93,61.6,91.9,61.1,90.5,61.7z"/>
			<polygon opacity="0.5" fill="#FFFFFF" points="94,72 87,75.5 87,74.5 94,71 			"/>
		</g>
		<g>
			<path fill="#7FADB9" d="M82,77l-5,2.5V71c0-1.4,1.1-3.1,2.5-3.8l0,0c1.4-0.7,2.5-0.1,2.5,1.2V77z"/>
			<path fill="#3399CC" d="M79.5,67.2C78.1,67.9,77,69.6,77,71v8.5l2-1l1-0.5l2-1v-8.5C82,67.1,80.9,66.6,79.5,67.2z M78,70.5
				c0-0.7,0.4-1.4,1-1.9v2.9L78,72V70.5z M78,73l1-0.5v2L78,75V73z M78,78v-2l1-0.5v2L78,78z M81,76.5L80,77v-2l1-0.5V76.5z
				 M81,73.5L80,74v-2l1-0.5V73.5z M81,70.5L80,71v-2.9c0.6-0.1,1,0.3,1,0.9V70.5z"/>
			<path opacity="0.4" d="M79.5,67.2c-0.2,0.1-0.4,0.3-0.6,0.4c1.2-0.5,2.1,0,2.1,1.2v7.7l-4,2v1l5-2.5v-8.5
				C82,67.1,80.9,66.6,79.5,67.2z"/>
			<polygon opacity="0.5" fill="#FFFFFF" points="83,77.5 76,81 76,80 83,76.5 			"/>
		</g>
		<g>
			<path fill="#7FADB9" d="M74,81l-5,2.5V75c0-1.4,1.1-3.1,2.5-3.8v0c1.4-0.7,2.5-0.1,2.5,1.2V81z"/>
			<path fill="#3399CC" d="M71.5,71.2C70.1,71.9,69,73.6,69,75v8.5l2-1l1-0.5l2-1v-8.5C74,71.1,72.9,70.6,71.5,71.2z M70,74.5
				c0-0.7,0.4-1.4,1-1.9v2.9L70,76V74.5z M70,77l1-0.5v2L70,79V77z M70,82v-2l1-0.5v2L70,82z M73,80.5L72,81v-2l1-0.5V80.5z
				 M73,77.5L72,78v-2l1-0.5V77.5z M73,74.5L72,75v-2.9c0.6-0.1,1,0.3,1,0.9V74.5z"/>
			<path opacity="0.4" d="M71.5,71.2c-0.2,0.1-0.4,0.3-0.6,0.4c1.2-0.5,2.1,0,2.1,1.2v7.7l-4,2v1l5-2.5v-8.5
				C74,71.1,72.9,70.6,71.5,71.2z"/>
			<polygon opacity="0.5" fill="#FFFFFF" points="75,81.5 68,85 68,84 75,80.5 			"/>
		</g>
		<g>
			<path fill="#7FADB9" d="M120,44l-5,2.5V41c0-1.4,1.1-3.1,2.5-3.8l0,0c1.4-0.7,2.5-0.1,2.5,1.2V44z"/>
			<path fill="#3399CC" d="M117.5,37.2c-1.4,0.7-2.5,2.4-2.5,3.8v5.5l2-1l1-0.5l2-1v-5.5C120,37.1,118.9,36.6,117.5,37.2z M116,40.5
				c0-0.7,0.4-1.4,1-1.9v2.9l-1,0.5V40.5z M116,43l1-0.5v2l-1,0.5V43z M119,43.5l-1,0.5v-2l1-0.5V43.5z M119,40.5l-1,0.5v-2.9
				c0.6-0.1,1,0.3,1,0.9V40.5z"/>
			<path opacity="0.4" d="M117.5,37.2c-0.2,0.1-0.4,0.3-0.6,0.4c1.2-0.5,2.1,0,2.1,1.2v4.7l-4,2v1l5-2.5v-5.5
				C120,37.1,118.9,36.6,117.5,37.2z"/>
			<polygon opacity="0.5" fill="#FFFFFF" points="121,44.5 114,48 114,47 121,43.5 			"/>
		</g>
		<g>
			<path fill="#7FADB9" d="M112,48l-5,2.5V45c0-1.4,1.1-3.1,2.5-3.8v0c1.4-0.7,2.5-0.1,2.5,1.2V48z"/>
			<path fill="#3399CC" d="M109.5,41.2c-1.4,0.7-2.5,2.4-2.5,3.8v5.5l2-1l1-0.5l2-1v-5.5C112,41.1,110.9,40.6,109.5,41.2z M108,44.5
				c0-0.7,0.4-1.4,1-1.9v2.9l-1,0.5V44.5z M108,47l1-0.5v2l-1,0.5V47z M111,47.5l-1,0.5v-2l1-0.5V47.5z M111,44.5l-1,0.5v-2.9
				c0.6-0.1,1,0.3,1,0.9V44.5z"/>
			<path opacity="0.4" d="M109.5,41.2c-0.2,0.1-0.4,0.3-0.6,0.4c1.2-0.5,2.1,0,2.1,1.2v4.7l-4,2v1l5-2.5v-5.5
				C112,41.1,110.9,40.6,109.5,41.2z"/>
			<polygon opacity="0.5" fill="#FFFFFF" points="113,48.5 106,52 106,51 113,47.5 			"/>
		</g>
		<g>
			<path fill="#7FADB9" d="M101,53.5L96,56v-5.5c0-1.4,1.1-3.1,2.5-3.8l0,0c1.4-0.7,2.5-0.1,2.5,1.2V53.5z"/>
			<path fill="#3399CC" d="M98.5,46.7c-1.4,0.7-2.5,2.4-2.5,3.8V56l2-1l1-0.5l2-1V48C101,46.6,99.9,46.1,98.5,46.7z M97,50
				c0-0.7,0.4-1.4,1-1.9V51l-1,0.5V50z M97,52.5l1-0.5v2l-1,0.5V52.5z M100,53l-1,0.5v-2l1-0.5V53z M100,50l-1,0.5v-2.9
				c0.6-0.1,1,0.3,1,0.9V50z"/>
			<path opacity="0.4" d="M98.5,46.7c-0.2,0.1-0.4,0.3-0.6,0.4c1.2-0.5,2.1,0,2.1,1.2V53l-4,2v1l5-2.5V48
				C101,46.6,99.9,46.1,98.5,46.7z"/>
			<polygon opacity="0.5" fill="#FFFFFF" points="102,54 95,57.5 95,56.5 102,53 			"/>
		</g>
		<g>
			<path fill="#7FADB9" d="M93,57.5L88,60v-5.5c0-1.4,1.1-3.1,2.5-3.8v0c1.4-0.7,2.5-0.1,2.5,1.2V57.5z"/>
			<path fill="#3399CC" d="M90.5,50.7c-1.4,0.7-2.5,2.4-2.5,3.8V60l2-1l1-0.5l2-1V52C93,50.6,91.9,50.1,90.5,50.7z M89,54
				c0-0.7,0.4-1.4,1-1.9V55l-1,0.5V54z M89,56.5l1-0.5v2l-1,0.5V56.5z M92,57l-1,0.5v-2l1-0.5V57z M92,54l-1,0.5v-2.9
				c0.6-0.1,1,0.3,1,0.9V54z"/>
			<path opacity="0.4" d="M90.5,50.7c-0.2,0.1-0.4,0.3-0.6,0.4c1.2-0.5,2.1,0,2.1,1.2V57l-4,2v1l5-2.5V52
				C93,50.6,91.9,50.1,90.5,50.7z"/>
			<polygon opacity="0.5" fill="#FFFFFF" points="94,58 87,61.5 87,60.5 94,57 			"/>
		</g>
		<g>
			<path fill="#7FADB9" d="M83,62.5L78,65v-5.5c0-1.4,1.1-3.1,2.5-3.8v0c1.4-0.7,2.5-0.1,2.5,1.2V62.5z"/>
			<path fill="#3399CC" d="M80.5,55.7c-1.4,0.7-2.5,2.4-2.5,3.8V65l2-1l1-0.5l2-1V57C83,55.6,81.9,55.1,80.5,55.7z M79,59
				c0-0.7,0.4-1.4,1-1.9V60l-1,0.5V59z M79,61.5l1-0.5v2l-1,0.5V61.5z M82,62l-1,0.5v-2l1-0.5V62z M82,59l-1,0.5v-2.9
				c0.6-0.1,1,0.3,1,0.9V59z"/>
			<path opacity="0.4" d="M80.5,55.7c-0.2,0.1-0.4,0.3-0.6,0.4c1.2-0.5,2.1,0,2.1,1.2V62l-4,2v1l5-2.5V57
				C83,55.6,81.9,55.1,80.5,55.7z"/>
			<polygon opacity="0.5" fill="#FFFFFF" points="84,63 77,66.5 77,65.5 84,62 			"/>
		</g>
		<g>
			<path fill="#7FADB9" d="M75,66.5L70,69v-5.5c0-1.4,1.1-3.1,2.5-3.8v0c1.4-0.7,2.5-0.1,2.5,1.2V66.5z"/>
			<path fill="#3399CC" d="M72.5,59.7c-1.4,0.7-2.5,2.4-2.5,3.8V69l2-1l1-0.5l2-1V61C75,59.6,73.9,59.1,72.5,59.7z M71,63
				c0-0.7,0.4-1.4,1-1.9V64l-1,0.5V63z M71,65.5l1-0.5v2l-1,0.5V65.5z M74,66l-1,0.5v-2l1-0.5V66z M74,63l-1,0.5v-2.9
				c0.6-0.1,1,0.3,1,0.9V63z"/>
			<path opacity="0.4" d="M72.5,59.7c-0.2,0.1-0.4,0.3-0.6,0.4c1.2-0.5,2.1,0,2.1,1.2V66l-4,2v1l5-2.5V61
				C75,59.6,73.9,59.1,72.5,59.7z"/>
			<polygon opacity="0.5" fill="#FFFFFF" points="76,67 69,70.5 69,69.5 76,66 			"/>
		</g>
		<g opacity="0.39">
			<path d="M124,83c0,0.8-0.7,1.8-1.5,2.3s-1.5,0.1-1.5-0.7c0,0.8-0.7,1.8-1.5,2.3S118,86.8,118,86c0,0.8-0.7,1.8-1.5,2.3
				s-1.5,0.1-1.5-0.7c0,0.8-0.7,1.8-1.5,2.3S112,89.8,112,89c0,0.8-0.7,1.8-1.5,2.3s-1.5,0.1-1.5-0.7c0,0.8-0.7,1.8-1.5,2.3
				S106,92.8,106,92c0,0.8-0.7,1.8-1.5,2.3s-1.5,0.1-1.5-0.7c0,0.8-0.7,1.8-1.5,2.3S100,95.8,100,95c0,0.8-0.7,1.8-1.5,2.3
				S97,97.3,97,96.5c0,0.8-0.7,1.8-1.5,2.3S94,98.8,94,98c0,0.8-0.7,1.8-1.5,2.3s-1.5,0.1-1.5-0.7c0,0.8-0.7,1.8-1.5,2.3
				S88,101.8,88,101c0,0.8-0.7,1.8-1.5,2.3s-1.5,0.1-1.5-0.7c0,0.8-0.7,1.8-1.5,2.3S82,104.8,82,104c0,0.8-0.7,1.8-1.5,2.3
				s-1.5,0.1-1.5-0.7c0,0.8-0.7,1.8-1.5,2.3S76,107.8,76,107c0,0.8-0.7,1.8-1.5,2.3s-1.5,0.1-1.5-0.7c0,0.8-0.7,1.8-1.5,2.3
				S70,110.8,70,110c0,0.2,0,0.4,0,0.5c0,0.6-0.5,1-1.2,1.1c-0.2,0-0.5,0-0.8-0.1c-1.1-0.3-2-1.2-2-2c0-0.1,0-0.8,0-1.2v0v-3.6
				l3-1.5l3-1.5l3-1.5l3-1.5l3-1.5l3-1.5l3-1.5l3-1.5l3-1.5l3-1.5l3-1.5l3-1.5l3-1.5l3-1.5l3-1.5l3-1.5l3-1.5l3-1.5l3-1.5l2,2.1
				V64.5v-34L64,61v34v29v1l2-1v-1l56-28v0.1l1,0.4l2-1v-1v-9.6C124.4,84,124,83.6,124,83z"/>
		</g>
		<path opacity="0.06" d="M70,109l-4-4.2v3.6v0c0,0.4,0,1,0,1.2c0,0.8,0.9,1.7,2,2c1.1,0.3,2-0.2,2-1
			C70,110.3,70,109,70,109L70,109L70,109z"/>
	</g>
	<g>
		<polygon fill="#F8EBCB" points="3,93.2 64,123.8 64,60.8 3,30.2 		"/>
		<polygon fill="#3399CC" points="4,93.7 63,123.3 63,105.3 4,75.7 		"/>
		<polygon opacity="0.15" points="41,112.3 62,122.8 62,118.8 41,108.3 		"/>
		<polygon opacity="0.15" points="6,94.7 26,104.7 26,100.7 6,90.7 		"/>
		<polygon fill="#F8EBCB" points="3,94.2 5,95.2 5,74.2 3,73.2 		"/>
		<polygon fill="#F8EBCB" points="6,94.8 5,95.2 5,74.2 6,74.7 		"/>
		<polygon opacity="0.1" points="6,94.8 5,95.2 5,74.2 6,74.7 		"/>
		<polygon fill="#F8EBCB" points="62,123.8 64,124.8 64,103.8 62,102.8 		"/>
		<polygon opacity="0.15" points="3,73.2 64,103.8 64,102.8 3,72.2 		"/>
		<polygon opacity="0.5" fill="#FFFFFF" points="3,72.2 64,102.8 64,101.8 3,71.2 		"/>
		<polygon opacity="0.15" points="3,32.2 64,62.8 64,61.8 3,31.2 		"/>
		<polygon opacity="0.5" fill="#FFFFFF" points="3,31.2 64,61.8 64,60.8 3,30.2 		"/>
		<polygon opacity="0.5" fill="#FFFFFF" points="41,96.3 41,112.3 40,111.8 40,96.8 34,93.8 34,108.8 33,108.3 33,93.3 27,90.2 
			27,105.2 26,104.7 26,88.7 		"/>
		<polygon opacity="0.15" points="62,102.8 61,102.3 61,122.3 62,122.8 		"/>
		<polygon opacity="0.15" points="62,61.8 61,61.3 61,100.3 62,100.8 		"/>
		<polygon opacity="0.15" points="6,33.7 5,33.2 5,72.2 6,72.7 		"/>
		<polygon opacity="0.15" points="7,81.2 6,80.7 6,94.7 7,95.2 		"/>
		<polygon opacity="0.15" points="12,93.7 12,83.7 13,84.2 13,94.2 19,97.2 19,87.2 20,87.7 20,97.7 25,100.2 25,101.2 7,92.2 
			7,91.2 		"/>
		<polygon opacity="0.15" points="48,111.8 48,101.8 49,102.3 49,112.3 55,115.3 55,105.3 56,105.8 56,115.8 61.2,118.3 61,119.3 
			42,109.8 42,108.8 		"/>
		<polygon opacity="0.15" points="26,90.7 25,90.2 25,104.2 26,104.7 		"/>
		<polygon opacity="0.15" points="42,98.8 41,98.3 41,112.3 42,112.8 		"/>
		<polygon opacity="0.2" fill="#FFFFFF" points="27,99.2 27,105.2 33,108.3 		"/>
		<polygon opacity="0.15" points="34,97.8 40,100.8 40,111.8 34,99.8 		"/>
		<polygon opacity="0.15" points="56,108.8 62,111.8 62,117 56,111 		"/>
		<polygon opacity="0.15" points="49,105.3 56,108.8 56,113.8 49,107.3 		"/>
		<polygon opacity="0.15" points="19,90.2 26,93.7 26,98.7 19,92.2 		"/>
		<g>
			<path fill="#FFFFFF" d="M55,107.3l3,1.5c0,0,0,0.8,0,1c0,0.8-0.7,1.2-1.5,0.7s-1.5-1.4-1.5-2.3C55,108.1,55,107.3,55,107.3z"/>
			<path fill="#CC291F" d="M52,105.3l3,1.5c0,0,0,1.3,0,1.5c0,0.8-0.7,1.2-1.5,0.7c-0.8-0.4-1.5-1.4-1.5-2.3
				C52,106.6,52,105.3,52,105.3z"/>
			<path fill="#CC291F" d="M58,108.8l4-1c0,0,0,1.3,0,1.5c0,0.8-0.9,1.7-2,2s-2-0.2-2-1C58,110.1,58,108.8,58,108.8z"/>
			<path fill="#FFFFFF" d="M49,104.3l3,1.5c0,0,0,0.8,0,1c0,0.8-0.7,1.2-1.5,0.7s-1.5-1.4-1.5-2.3C49,105.1,49,104.3,49,104.3z"/>
			<path fill="#CC291F" d="M46,102.3l3,1.5c0,0,0,1.3,0,1.5c0,0.8-0.7,1.2-1.5,0.7c-0.8-0.4-1.5-1.4-1.5-2.3
				C46,103.6,46,102.3,46,102.3z"/>
			<path fill="#FFFFFF" d="M43,101.3l3,1.5c0,0,0,0.8,0,1c0,0.8-0.7,1.2-1.5,0.7c-0.8-0.4-1.5-1.4-1.5-2.3
				C43,102.1,43,101.3,43,101.3z"/>
			<path fill="#CC291F" d="M40,99.3l3,1.5c0,0,0,1.3,0,1.5c0,0.8-0.7,1.2-1.5,0.7s-1.5-1.4-1.5-2.3C40,100.6,40,99.3,40,99.3z"/>
			<path fill="#FFFFFF" d="M37,98.3l3,1.5c0,0,0,0.8,0,1c0,0.8-0.7,1.2-1.5,0.7c-0.8-0.4-1.5-1.4-1.5-2.3C37,99.1,37,98.3,37,98.3z"
				/>
			<path fill="#CC291F" d="M34,96.3l3,1.5c0,0,0,1.3,0,1.5c0,0.8-0.7,1.2-1.5,0.7S34,98.6,34,97.8C34,97.6,34,96.3,34,96.3z"/>
			<path fill="#FFFFFF" d="M31,95.2l3,1.5c0,0,0,0.8,0,1c0,0.8-0.7,1.2-1.5,0.7c-0.8-0.4-1.5-1.4-1.5-2.3C31,96.1,31,95.2,31,95.2z"
				/>
			<path fill="#CC291F" d="M28,93.2l3,1.5c0,0,0,1.3,0,1.5c0,0.8-0.7,1.2-1.5,0.7S28,95.6,28,94.7C28,94.6,28,93.2,28,93.2z"/>
			<path fill="#FFFFFF" d="M25,92.2l3,1.5c0,0,0,0.8,0,1c0,0.8-0.7,1.2-1.5,0.7c-0.8-0.4-1.5-1.4-1.5-2.3C25,93.1,25,92.2,25,92.2z"
				/>
			<path fill="#CC291F" d="M22,90.2l3,1.5c0,0,0,1.3,0,1.5c0,0.8-0.7,1.2-1.5,0.7S22,92.6,22,91.7C22,91.6,22,90.2,22,90.2z"/>
			<path fill="#FFFFFF" d="M19,89.2l3,1.5c0,0,0,0.8,0,1c0,0.8-0.7,1.2-1.5,0.7c-0.8-0.4-1.5-1.4-1.5-2.3C19,90.1,19,89.2,19,89.2z"
				/>
			<path fill="#CC291F" d="M16,87.2l3,1.5c0,0,0,1.3,0,1.5c0,0.8-0.7,1.2-1.5,0.7S16,89.6,16,88.7C16,88.6,16,87.2,16,87.2z"/>
			<path fill="#FFFFFF" d="M13,86.2l3,1.5c0,0,0,0.8,0,1c0,0.8-0.7,1.2-1.5,0.7c-0.8-0.4-1.5-1.4-1.5-2.3C13,87.1,13,86.2,13,86.2z"
				/>
			<path fill="#CC291F" d="M10,84.2l3,1.5c0,0,0,1.3,0,1.5c0,0.8-0.7,1.2-1.5,0.7c-0.8-0.4-1.5-1.4-1.5-2.3C10,85.6,10,84.2,10,84.2
				z"/>
			<path fill="#FFFFFF" d="M7,83.2l3,1.5c0,0,0,0.8,0,1c0,0.8-0.7,1.2-1.5,0.7S7,85.1,7,84.2C7,84.1,7,83.2,7,83.2z"/>
			<path fill="#CC291F" d="M4,81.2l3,1.5c0,0,0,1.3,0,1.5c0,0.8-0.7,1.2-1.5,0.7C4.7,84.6,4,83.6,4,82.7C4,82.6,4,81.2,4,81.2z"/>
			<path fill="#FFFFFF" d="M1,80.2l3,1.5c0,0,0,0.8,0,1c0,0.8-0.7,1.2-1.5,0.7S1,82.1,1,81.2C1,81.1,1,80.2,1,80.2z"/>
		</g>
		<g>
			<polygon fill="#FFFFFF" points="55,107.3 58,108.8 62,104.5 59,103 			"/>
			<polygon fill="#CC291F" points="62,108.1 58,108.8 62,104.5 			"/>
			<polygon fill="#CC291F" points="52,105.8 55,107.3 59,103 56,101.5 			"/>
			<polygon fill="#FFFFFF" points="49,104.3 52,105.8 56,101.5 53,100 			"/>
			<polygon fill="#CC291F" points="46,102.8 49,104.3 53,100 50,98.5 			"/>
			<polygon fill="#FFFFFF" points="43,101.3 46,102.8 50,98.5 47,97 			"/>
			<polygon fill="#CC291F" points="40,99.8 43,101.3 47,97 44,95.5 			"/>
			<polygon fill="#FFFFFF" points="37,98.3 40,99.8 44,95.5 41,94 			"/>
			<polygon fill="#CC291F" points="34,96.8 37,98.3 41,94 38,92.5 			"/>
			<polygon fill="#FFFFFF" points="31,95.2 34,96.8 38,92.5 35,91 			"/>
			<polygon fill="#CC291F" points="28,93.7 31,95.2 35,91 32,89.5 			"/>
			<polygon fill="#FFFFFF" points="25,92.2 28,93.7 32,89.5 29,88 			"/>
			<polygon fill="#CC291F" points="22,90.7 25,92.2 29,88 26,86.5 			"/>
			<polygon fill="#FFFFFF" points="19,89.2 22,90.7 26,86.5 23,85 			"/>
			<polygon fill="#CC291F" points="16,87.7 19,89.2 23,85 20,83.5 			"/>
			<polygon fill="#FFFFFF" points="13,86.2 16,87.7 20,83.5 17,82 			"/>
			<polygon fill="#CC291F" points="10,84.7 13,86.2 17,82 14,80.5 			"/>
			<polygon fill="#FFFFFF" points="7,83.2 10,84.7 14,80.5 11,79 			"/>
			<polygon fill="#FFFFFF" points="1,80.2 4,81.7 8,77.5 5,76 			"/>
			<polygon fill="#CC291F" points="4,81.7 7,83.2 11,79 8,77.5 			"/>
		</g>
		<path opacity="0.06" d="M58,108.8c0,0,0,0.8,0,1c0,0.8-0.7,1.2-1.5,0.7s-1.5-1.4-1.5-2.3c0,0.8-0.7,1.2-1.5,0.7
			s-1.5-1.4-1.5-2.3c0,0.8-0.7,1.2-1.5,0.7s-1.5-1.4-1.5-2.3c0,0.8-0.7,1.2-1.5,0.7s-1.5-1.4-1.5-2.3c0,0.8-0.7,1.2-1.5,0.7
			s-1.5-1.4-1.5-2.3c0,0.8-0.7,1.2-1.5,0.7s-1.5-1.4-1.5-2.3c0,0.8-0.7,1.2-1.5,0.7s-1.5-1.4-1.5-2.3c0,0.8-0.7,1.2-1.5,0.7
			S34,98.6,34,97.8c0,0.8-0.7,1.2-1.5,0.7S31,97.1,31,96.3c0,0.8-0.7,1.2-1.5,0.7S28,95.6,28,94.7c0,0.8-0.7,1.2-1.5,0.7
			S25,94.1,25,93.2c0,0.8-0.7,1.2-1.5,0.7S22,92.6,22,91.7c0,0.8-0.7,1.2-1.5,0.7S19,91.1,19,90.2c0,0.8-0.7,1.2-1.5,0.7
			S16,89.6,16,88.7c0,0.8-0.7,1.2-1.5,0.7S13,88.1,13,87.2c0,0.8-0.7,1.2-1.5,0.7S10,86.6,10,85.7c0,0.8-0.7,1.2-1.5,0.7
			S7,85.1,7,84.2c0,0.8-0.7,1.2-1.5,0.7S4,83.6,4,82.7c0,0.8-0.7,1.2-1.5,0.7S1,82.1,1,81.2c0-0.2,0-1,0-1L58,108.8z"/>
		<path opacity="0.39" d="M58,108.8l4-4.2v3.6v0c0,0.4,0,1,0,1.2c0,0.8-0.9,1.7-2,2c-1.1,0.3-2-0.2-2-1C58,110.1,58,108.8,58,108.8
			L58,108.8L58,108.8z"/>
		<g>
			<path fill="#7FADB9" d="M59,97.3l-5-2.5v-8.5c0-1.4,1.1-1.9,2.5-1.2l0,0c1.4,0.7,2.5,2.4,2.5,3.8V97.3z"/>
			<path fill="#3399CC" d="M56.5,85c-1.4-0.7-2.5-0.1-2.5,1.2v8.5l2,1l1,0.5l2,1v-8.5C59,87.4,57.9,85.7,56.5,85z M55,86.8
				c0-0.7,0.4-1,1-0.9v2.9l-1-0.5V86.8z M55,89.3l1,0.5v2l-1-0.5V89.3z M55,94.3v-2l1,0.5v2L55,94.3z M58,95.8l-1-0.5v-2l1,0.5V95.8
				z M58,92.8l-1-0.5v-2l1,0.5V92.8z M58,89.8l-1-0.5v-2.9c0.6,0.5,1,1.3,1,1.9V89.8z"/>
			<path opacity="0.4" d="M56.5,85c-0.2-0.1-0.4-0.2-0.6-0.2c1.2,0.7,2.1,2.1,2.1,3.3v7.7l-4-2v1l5,2.5v-8.5
				C59,87.4,57.9,85.7,56.5,85z"/>
			<polygon opacity="0.5" fill="#FFFFFF" points="60,98.8 53,95.3 53,94.3 60,97.8 			"/>
		</g>
		<g>
			<path fill="#7FADB9" d="M51,93.3l-5-2.5v-8.5c0-1.4,1.1-1.9,2.5-1.2l0,0c1.4,0.7,2.5,2.4,2.5,3.8V93.3z"/>
			<path fill="#3399CC" d="M48.5,81c-1.4-0.7-2.5-0.1-2.5,1.2v8.5l2,1l1,0.5l2,1v-8.5C51,83.4,49.9,81.7,48.5,81z M47,82.8
				c0-0.7,0.4-1,1-0.9v2.9l-1-0.5V82.8z M47,85.3l1,0.5v2l-1-0.5V85.3z M47,90.3v-2l1,0.5v2L47,90.3z M50,91.8l-1-0.5v-2l1,0.5V91.8
				z M50,88.8l-1-0.5v-2l1,0.5V88.8z M50,85.8l-1-0.5v-2.9c0.6,0.5,1,1.3,1,1.9V85.8z"/>
			<path opacity="0.4" d="M48.5,81c-0.2-0.1-0.4-0.2-0.6-0.2c1.2,0.7,2.1,2.1,2.1,3.3v7.7l-4-2v1l5,2.5v-8.5
				C51,83.4,49.9,81.7,48.5,81z"/>
			<polygon opacity="0.5" fill="#FFFFFF" points="52,94.8 45,91.3 45,90.3 52,93.8 			"/>
		</g>
		<g>
			<path fill="#7FADB9" d="M40,87.8l-5-2.5v-8.5c0-1.4,1.1-1.9,2.5-1.2h0c1.4,0.7,2.5,2.4,2.5,3.8V87.8z"/>
			<path fill="#3399CC" d="M37.5,75.5c-1.4-0.7-2.5-0.1-2.5,1.2v8.5l2,1l1,0.5l2,1v-8.5C40,77.9,38.9,76.2,37.5,75.5z M36,77.3
				c0-0.7,0.4-1,1-0.9v2.9l-1-0.5V77.3z M36,79.8l1,0.5v2l-1-0.5V79.8z M36,84.8v-2l1,0.5v2L36,84.8z M39,86.3l-1-0.5v-2l1,0.5V86.3
				z M39,83.3l-1-0.5v-2l1,0.5V83.3z M39,80.3l-1-0.5v-2.9c0.6,0.5,1,1.3,1,1.9V80.3z"/>
			<path opacity="0.4" d="M37.5,75.5c-0.2-0.1-0.4-0.2-0.6-0.2c1.2,0.7,2.1,2.1,2.1,3.3v7.7l-4-2v1l5,2.5v-8.5
				C40,77.9,38.9,76.2,37.5,75.5z"/>
			<polygon opacity="0.5" fill="#FFFFFF" points="41,89.3 34,85.8 34,84.8 41,88.3 			"/>
		</g>
		<g>
			<path fill="#7FADB9" d="M32,83.7l-5-2.5v-8.5c0-1.4,1.1-1.9,2.5-1.2l0,0c1.4,0.7,2.5,2.4,2.5,3.8V83.7z"/>
			<path fill="#3399CC" d="M29.5,71.5c-1.4-0.7-2.5-0.1-2.5,1.2v8.5l2,1l1,0.5l2,1v-8.5C32,73.9,30.9,72.2,29.5,71.5z M28,73.2
				c0-0.7,0.4-1,1-0.9v2.9l-1-0.5V73.2z M28,75.7l1,0.5v2l-1-0.5V75.7z M28,80.7v-2l1,0.5v2L28,80.7z M31,82.2l-1-0.5v-2l1,0.5V82.2
				z M31,79.2l-1-0.5v-2l1,0.5V79.2z M31,76.2l-1-0.5v-2.9c0.6,0.5,1,1.3,1,1.9V76.2z"/>
			<path opacity="0.4" d="M29.5,71.5c-0.2-0.1-0.4-0.2-0.6-0.2c1.2,0.7,2.1,2.1,2.1,3.3v7.7l-4-2v1l5,2.5v-8.5
				C32,73.9,30.9,72.2,29.5,71.5z"/>
			<polygon opacity="0.5" fill="#FFFFFF" points="33,85.3 26,81.7 26,80.7 33,84.3 			"/>
		</g>
		<g>
			<path fill="#7FADB9" d="M21,78.2l-5-2.5v-8.5c0-1.4,1.1-1.9,2.5-1.2h0c1.4,0.7,2.5,2.4,2.5,3.8V78.2z"/>
			<path fill="#3399CC" d="M18.5,66c-1.4-0.7-2.5-0.1-2.5,1.2v8.5l2,1l1,0.5l2,1v-8.5C21,68.4,19.9,66.7,18.5,66z M17,67.7
				c0-0.7,0.4-1,1-0.9v2.9l-1-0.5V67.7z M17,70.2l1,0.5v2l-1-0.5V70.2z M17,75.2v-2l1,0.5v2L17,75.2z M20,76.7l-1-0.5v-2l1,0.5V76.7
				z M20,73.7l-1-0.5v-2l1,0.5V73.7z M20,70.7l-1-0.5v-2.9c0.6,0.5,1,1.3,1,1.9V70.7z"/>
			<path opacity="0.4" d="M18.5,66c-0.2-0.1-0.4-0.2-0.6-0.2c1.2,0.7,2.1,2.1,2.1,3.3v7.7l-4-2v1l5,2.5v-8.5
				C21,68.4,19.9,66.7,18.5,66z"/>
			<polygon opacity="0.5" fill="#FFFFFF" points="22,79.7 15,76.2 15,75.2 22,78.7 			"/>
		</g>
		<g>
			<path fill="#7FADB9" d="M13,74.2l-5-2.5v-8.5c0-1.4,1.1-1.9,2.5-1.2l0,0c1.4,0.7,2.5,2.4,2.5,3.8V74.2z"/>
			<path fill="#3399CC" d="M10.5,62C9.1,61.3,8,61.9,8,63.2v8.5l2,1l1,0.5l2,1v-8.5C13,64.4,11.9,62.7,10.5,62z M9,63.7
				c0-0.7,0.4-1,1-0.9v2.9l-1-0.5V63.7z M9,66.2l1,0.5v2l-1-0.5V66.2z M9,71.2v-2l1,0.5v2L9,71.2z M12,72.7l-1-0.5v-2l1,0.5V72.7z
				 M12,69.7l-1-0.5v-2l1,0.5V69.7z M12,66.7l-1-0.5v-2.9c0.6,0.5,1,1.3,1,1.9V66.7z"/>
			<path opacity="0.4" d="M10.5,62c-0.2-0.1-0.4-0.2-0.6-0.2c1.2,0.7,2.1,2.1,2.1,3.3v7.7l-4-2v1l5,2.5v-8.5
				C13,64.4,11.9,62.7,10.5,62z"/>
			<polygon opacity="0.5" fill="#FFFFFF" points="14,75.7 7,72.2 7,71.2 14,74.7 			"/>
		</g>
		<g>
			<path fill="#7FADB9" d="M59,83.3l-5-2.5v-8.5c0-1.4,1.1-1.9,2.5-1.2l0,0c1.4,0.7,2.5,2.4,2.5,3.8V83.3z"/>
			<path fill="#3399CC" d="M56.5,71c-1.4-0.7-2.5-0.1-2.5,1.2v8.5l2,1l1,0.5l2,1v-8.5C59,73.4,57.9,71.7,56.5,71z M55,72.8
				c0-0.7,0.4-1,1-0.9v2.9l-1-0.5V72.8z M55,75.3l1,0.5v2l-1-0.5V75.3z M55,80.3v-2l1,0.5v2L55,80.3z M58,81.8l-1-0.5v-2l1,0.5V81.8
				z M58,78.8l-1-0.5v-2l1,0.5V78.8z M58,75.8l-1-0.5v-2.9c0.6,0.5,1,1.3,1,1.9V75.8z"/>
			<path opacity="0.4" d="M56.5,71c-0.2-0.1-0.4-0.2-0.6-0.2c1.2,0.7,2.1,2.1,2.1,3.3v7.7l-4-2v1l5,2.5v-8.5
				C59,73.4,57.9,71.7,56.5,71z"/>
			<polygon opacity="0.5" fill="#FFFFFF" points="60,84.8 53,81.3 53,80.3 60,83.8 			"/>
		</g>
		<g>
			<path fill="#7FADB9" d="M51,79.3l-5-2.5v-8.5c0-1.4,1.1-1.9,2.5-1.2l0,0c1.4,0.7,2.5,2.4,2.5,3.8V79.3z"/>
			<path fill="#3399CC" d="M48.5,67c-1.4-0.7-2.5-0.1-2.5,1.2v8.5l2,1l1,0.5l2,1v-8.5C51,69.4,49.9,67.7,48.5,67z M47,68.8
				c0-0.7,0.4-1,1-0.9v2.9l-1-0.5V68.8z M47,71.3l1,0.5v2l-1-0.5V71.3z M47,76.3v-2l1,0.5v2L47,76.3z M50,77.8l-1-0.5v-2l1,0.5V77.8
				z M50,74.8l-1-0.5v-2l1,0.5V74.8z M50,71.8l-1-0.5v-2.9c0.6,0.5,1,1.3,1,1.9V71.8z"/>
			<path opacity="0.4" d="M48.5,67c-0.2-0.1-0.4-0.2-0.6-0.2c1.2,0.7,2.1,2.1,2.1,3.3v7.7l-4-2v1l5,2.5v-8.5
				C51,69.4,49.9,67.7,48.5,67z"/>
			<polygon opacity="0.5" fill="#FFFFFF" points="52,80.8 45,77.3 45,76.3 52,79.8 			"/>
		</g>
		<g>
			<path fill="#7FADB9" d="M40,73.8l-5-2.5v-8.5c0-1.4,1.1-1.9,2.5-1.2l0,0c1.4,0.7,2.5,2.4,2.5,3.8V73.8z"/>
			<path fill="#3399CC" d="M37.5,61.5c-1.4-0.7-2.5-0.1-2.5,1.2v8.5l2,1l1,0.5l2,1v-8.5C40,63.9,38.9,62.2,37.5,61.5z M36,63.3
				c0-0.7,0.4-1,1-0.9v2.9l-1-0.5V63.3z M36,65.8l1,0.5v2l-1-0.5V65.8z M36,70.8v-2l1,0.5v2L36,70.8z M39,72.3l-1-0.5v-2l1,0.5V72.3
				z M39,69.3l-1-0.5v-2l1,0.5V69.3z M39,66.3l-1-0.5v-2.9c0.6,0.5,1,1.3,1,1.9V66.3z"/>
			<path opacity="0.4" d="M37.5,61.5c-0.2-0.1-0.4-0.2-0.6-0.2c1.2,0.7,2.1,2.1,2.1,3.3v7.7l-4-2v1l5,2.5v-8.5
				C40,63.9,38.9,62.2,37.5,61.5z"/>
			<polygon opacity="0.5" fill="#FFFFFF" points="41,75.3 34,71.8 34,70.8 41,74.3 			"/>
		</g>
		<g>
			<path fill="#7FADB9" d="M32,69.7l-5-2.5v-8.5c0-1.4,1.1-1.9,2.5-1.2h0c1.4,0.7,2.5,2.4,2.5,3.8V69.7z"/>
			<path fill="#3399CC" d="M29.5,57.5c-1.4-0.7-2.5-0.1-2.5,1.2v8.5l2,1l1,0.5l2,1v-8.5C32,59.9,30.9,58.2,29.5,57.5z M28,59.2
				c0-0.7,0.4-1,1-0.9v2.9l-1-0.5V59.2z M28,61.7l1,0.5v2l-1-0.5V61.7z M28,66.7v-2l1,0.5v2L28,66.7z M31,68.2l-1-0.5v-2l1,0.5V68.2
				z M31,65.2l-1-0.5v-2l1,0.5V65.2z M31,62.2l-1-0.5v-2.9c0.6,0.5,1,1.3,1,1.9V62.2z"/>
			<path opacity="0.4" d="M29.5,57.5c-0.2-0.1-0.4-0.2-0.6-0.2c1.2,0.7,2.1,2.1,2.1,3.3v7.7l-4-2v1l5,2.5v-8.5
				C32,59.9,30.9,58.2,29.5,57.5z"/>
			<polygon opacity="0.5" fill="#FFFFFF" points="33,71.3 26,67.7 26,66.7 33,70.3 			"/>
		</g>
		<g>
			<path fill="#7FADB9" d="M21,64.2l-5-2.5v-8.5c0-1.4,1.1-1.9,2.5-1.2l0,0c1.4,0.7,2.5,2.4,2.5,3.8V64.2z"/>
			<path fill="#3399CC" d="M18.5,52c-1.4-0.7-2.5-0.1-2.5,1.2v8.5l2,1l1,0.5l2,1v-8.5C21,54.4,19.9,52.7,18.5,52z M17,53.7
				c0-0.7,0.4-1,1-0.9v2.9l-1-0.5V53.7z M17,56.2l1,0.5v2l-1-0.5V56.2z M17,61.2v-2l1,0.5v2L17,61.2z M20,62.7l-1-0.5v-2l1,0.5V62.7
				z M20,59.7l-1-0.5v-2l1,0.5V59.7z M20,56.7l-1-0.5v-2.9c0.6,0.5,1,1.3,1,1.9V56.7z"/>
			<path opacity="0.4" d="M18.5,52c-0.2-0.1-0.4-0.2-0.6-0.2c1.2,0.7,2.1,2.1,2.1,3.3v7.7l-4-2v1l5,2.5v-8.5
				C21,54.4,19.9,52.7,18.5,52z"/>
			<polygon opacity="0.5" fill="#FFFFFF" points="22,65.7 15,62.2 15,61.2 22,64.7 			"/>
		</g>
		<g>
			<path fill="#7FADB9" d="M13,60.2l-5-2.5v-8.5c0-1.4,1.1-1.9,2.5-1.2l0,0c1.4,0.7,2.5,2.4,2.5,3.8V60.2z"/>
			<path fill="#3399CC" d="M10.5,48C9.1,47.3,8,47.9,8,49.2v8.5l2,1l1,0.5l2,1v-8.5C13,50.4,11.9,48.7,10.5,48z M9,49.7
				c0-0.7,0.4-1,1-0.9v2.9l-1-0.5V49.7z M9,52.2l1,0.5v2l-1-0.5V52.2z M9,57.2v-2l1,0.5v2L9,57.2z M12,58.7l-1-0.5v-2l1,0.5V58.7z
				 M12,55.7l-1-0.5v-2l1,0.5V55.7z M12,52.7l-1-0.5v-2.9c0.6,0.5,1,1.3,1,1.9V52.7z"/>
			<path opacity="0.4" d="M10.5,48c-0.2-0.1-0.4-0.2-0.6-0.2c1.2,0.7,2.1,2.1,2.1,3.3v7.7l-4-2v1l5,2.5v-8.5
				C13,50.4,11.9,48.7,10.5,48z"/>
			<polygon opacity="0.5" fill="#FFFFFF" points="14,61.7 7,58.2 7,57.2 14,60.7 			"/>
		</g>
		<g>
			<path fill="#7FADB9" d="M59,69.3l-5-2.5v-5.5c0-1.4,1.1-1.9,2.5-1.2l0,0c1.4,0.7,2.5,2.4,2.5,3.8V69.3z"/>
			<path fill="#3399CC" d="M56.5,60c-1.4-0.7-2.5-0.1-2.5,1.2v5.5l2,1l1,0.5l2,1v-5.5C59,62.4,57.9,60.7,56.5,60z M55,61.8
				c0-0.7,0.4-1,1-0.9v2.9l-1-0.5V61.8z M55,64.3l1,0.5v2l-1-0.5V64.3z M58,67.8l-1-0.5v-2l1,0.5V67.8z M58,64.8l-1-0.5v-2.9
				c0.6,0.5,1,1.3,1,1.9V64.8z"/>
			<path opacity="0.4" d="M56.5,60c-0.2-0.1-0.4-0.2-0.6-0.2c1.2,0.7,2.1,2.1,2.1,3.3v4.7l-4-2v1l5,2.5v-5.5
				C59,62.4,57.9,60.7,56.5,60z"/>
			<polygon opacity="0.5" fill="#FFFFFF" points="60,70.8 53,67.3 53,66.3 60,69.8 			"/>
		</g>
		<g>
			<path fill="#7FADB9" d="M51,65.3l-5-2.5v-5.5c0-1.4,1.1-1.9,2.5-1.2h0c1.4,0.7,2.5,2.4,2.5,3.8V65.3z"/>
			<path fill="#3399CC" d="M48.5,56c-1.4-0.7-2.5-0.1-2.5,1.2v5.5l2,1l1,0.5l2,1v-5.5C51,58.4,49.9,56.7,48.5,56z M47,57.8
				c0-0.7,0.4-1,1-0.9v2.9l-1-0.5V57.8z M47,60.3l1,0.5v2l-1-0.5V60.3z M50,63.8l-1-0.5v-2l1,0.5V63.8z M50,60.8l-1-0.5v-2.9
				c0.6,0.5,1,1.3,1,1.9V60.8z"/>
			<path opacity="0.4" d="M48.5,56c-0.2-0.1-0.4-0.2-0.6-0.2c1.2,0.7,2.1,2.1,2.1,3.3v4.7l-4-2v1l5,2.5v-5.5
				C51,58.4,49.9,56.7,48.5,56z"/>
			<polygon opacity="0.5" fill="#FFFFFF" points="52,66.8 45,63.3 45,62.3 52,65.8 			"/>
		</g>
		<g>
			<path fill="#7FADB9" d="M40,59.8l-5-2.5v-5.5c0-1.4,1.1-1.9,2.5-1.2l0,0c1.4,0.7,2.5,2.4,2.5,3.8V59.8z"/>
			<path fill="#3399CC" d="M37.5,50.5c-1.4-0.7-2.5-0.1-2.5,1.2v5.5l2,1l1,0.5l2,1v-5.5C40,52.9,38.9,51.2,37.5,50.5z M36,52.3
				c0-0.7,0.4-1,1-0.9v2.9l-1-0.5V52.3z M36,54.8l1,0.5v2l-1-0.5V54.8z M39,58.3l-1-0.5v-2l1,0.5V58.3z M39,55.3l-1-0.5v-2.9
				c0.6,0.5,1,1.3,1,1.9V55.3z"/>
			<path opacity="0.4" d="M37.5,50.5c-0.2-0.1-0.4-0.2-0.6-0.2c1.2,0.7,2.1,2.1,2.1,3.3v4.7l-4-2v1l5,2.5v-5.5
				C40,52.9,38.9,51.2,37.5,50.5z"/>
			<polygon opacity="0.5" fill="#FFFFFF" points="41,61.3 34,57.8 34,56.8 41,60.3 			"/>
		</g>
		<g>
			<path fill="#7FADB9" d="M32,55.7l-5-2.5v-5.5c0-1.4,1.1-1.9,2.5-1.2h0c1.4,0.7,2.5,2.4,2.5,3.8V55.7z"/>
			<path fill="#3399CC" d="M29.5,46.5c-1.4-0.7-2.5-0.1-2.5,1.2v5.5l2,1l1,0.5l2,1v-5.5C32,48.9,30.9,47.2,29.5,46.5z M28,48.2
				c0-0.7,0.4-1,1-0.9v2.9l-1-0.5V48.2z M28,50.7l1,0.5v2l-1-0.5V50.7z M31,54.2l-1-0.5v-2l1,0.5V54.2z M31,51.2l-1-0.5v-2.9
				c0.6,0.5,1,1.3,1,1.9V51.2z"/>
			<path opacity="0.4" d="M29.5,46.5c-0.2-0.1-0.4-0.2-0.6-0.2c1.2,0.7,2.1,2.1,2.1,3.3v4.7l-4-2v1l5,2.5v-5.5
				C32,48.9,30.9,47.2,29.5,46.5z"/>
			<polygon opacity="0.5" fill="#FFFFFF" points="33,57.3 26,53.7 26,52.7 33,56.3 			"/>
		</g>
		<g>
			<path fill="#7FADB9" d="M22,50.7l-5-2.5v-5.5c0-1.4,1.1-1.9,2.5-1.2h0c1.4,0.7,2.5,2.4,2.5,3.8V50.7z"/>
			<path fill="#3399CC" d="M19.5,41.5c-1.4-0.7-2.5-0.1-2.5,1.2v5.5l2,1l1,0.5l2,1v-5.5C22,43.9,20.9,42.2,19.5,41.5z M18,43.2
				c0-0.7,0.4-1,1-0.9v2.9l-1-0.5V43.2z M18,45.7l1,0.5v2l-1-0.5V45.7z M21,49.2l-1-0.5v-2l1,0.5V49.2z M21,46.2l-1-0.5v-2.9
				c0.6,0.5,1,1.3,1,1.9V46.2z"/>
			<path opacity="0.4" d="M19.5,41.5c-0.2-0.1-0.4-0.2-0.6-0.2c1.2,0.7,2.1,2.1,2.1,3.3v4.7l-4-2v1l5,2.5v-5.5
				C22,43.9,20.9,42.2,19.5,41.5z"/>
			<polygon opacity="0.5" fill="#FFFFFF" points="23,52.2 16,48.7 16,47.7 23,51.2 			"/>
		</g>
		<g>
			<path fill="#7FADB9" d="M14,46.7l-5-2.5v-5.5c0-1.4,1.1-1.9,2.5-1.2l0,0c1.4,0.7,2.5,2.4,2.5,3.8V46.7z"/>
			<path fill="#3399CC" d="M11.5,37.5C10.1,36.8,9,37.4,9,38.7v5.5l2,1l1,0.5l2,1v-5.5C14,39.9,12.9,38.2,11.5,37.5z M10,39.2
				c0-0.7,0.4-1,1-0.9v2.9l-1-0.5V39.2z M10,41.7l1,0.5v2l-1-0.5V41.7z M13,45.2l-1-0.5v-2l1,0.5V45.2z M13,42.2l-1-0.5v-2.9
				c0.6,0.5,1,1.3,1,1.9V42.2z"/>
			<path opacity="0.4" d="M11.5,37.5c-0.2-0.1-0.4-0.2-0.6-0.2c1.2,0.7,2.1,2.1,2.1,3.3v4.7l-4-2v1l5,2.5v-5.5
				C14,39.9,12.9,38.2,11.5,37.5z"/>
			<polygon opacity="0.5" fill="#FFFFFF" points="15,48.2 8,44.7 8,43.7 15,47.2 			"/>
		</g>
		<g opacity="0.4">
			<polygon points="58,108.8 58,108.8 58,108.8 			"/>
			<path opacity="0.06" d="M4,82.7c0,0.8,0.7,1.8,1.5,2.3S7,85.1,7,84.2c0,0.8,0.7,1.8,1.5,2.3s1.5,0.1,1.5-0.7
				c0,0.8,0.7,1.8,1.5,2.3s1.5,0.1,1.5-0.7c0,0.8,0.7,1.8,1.5,2.3s1.5,0.1,1.5-0.7c0,0.8,0.7,1.8,1.5,2.3s1.5,0.1,1.5-0.7
				c0,0.8,0.7,1.8,1.5,2.3s1.5,0.1,1.5-0.7c0,0.8,0.7,1.8,1.5,2.3s1.5,0.1,1.5-0.7c0,0.8,0.7,1.8,1.5,2.3s1.5,0.1,1.5-0.7
				c0,0.8,0.7,1.8,1.5,2.3s1.5,0.1,1.5-0.7c0,0.8,0.7,1.8,1.5,2.3s1.5,0.1,1.5-0.7c0,0.8,0.7,1.8,1.5,2.3s1.5,0.1,1.5-0.7
				c0,0.8,0.7,1.8,1.5,2.3s1.5,0.1,1.5-0.7c0,0.8,0.7,1.8,1.5,2.3s1.5,0.1,1.5-0.7c0,0.8,0.7,1.8,1.5,2.3s1.5,0.1,1.5-0.7
				c0,0.8,0.7,1.8,1.5,2.3s1.5,0.1,1.5-0.7c0,0.8,0.7,1.8,1.5,2.3s1.5,0.1,1.5-0.7c0,0.8,0.7,1.8,1.5,2.3s1.5,0.1,1.5-0.7
				c0,0.8,0.7,1.8,1.5,2.3s1.5,0.1,1.5-0.7c0,0.2,0,0.4,0,0.5c0,0.6,0.5,1,1.2,1.1c0.2,0,0.5,0,0.8-0.1c1.1-0.3,2-1.2,2-2
				c0-0.1,0-0.8,0-1.2v0v-3.6l-3-1.5l-3-1.5l-3-1.5l-3-1.5L47,97l-3-1.5L41,94l-3-1.5L35,91l-3-1.5L29,88l-3-1.5L23,85l-3-1.5L17,82
				l-3-1.5L11,79l-3-1.5L5,76l-2,2.1V64.2v-34l61,30.5v34v29v1l-2-1v-1l-56-28v0.1l-1,0.4l-2-1v-1v-9.6C3.6,83.7,4,83.4,4,82.7z"/>
		</g>
	</g>
	<polygon fill="#F8EBCB" points="64,61 125,30.5 64,0 3,30.5 	"/>
	<polygon opacity="0.2" fill="#202426" points="9,30.5 64,3 119,30.5 64,58 	"/>
	<polygon opacity="0.39" points="64,5 64,3 9,30.5 11,31.5 	"/>
	<polygon opacity="0.06" points="64,5 117,31.5 119,30.5 64,3 	"/>
	<g>
		<polygon fill="#F8EBCB" points="66,10 42,22 42,24 54,30 78,18 78,16 		"/>
		<polygon opacity="0.39" points="78,18 54,30 54,28 78,16 		"/>
		<polygon opacity="0.06" points="42,24 54,30 54,28 42,22 		"/>
		<path fill="#656565" d="M65,14c-2.8,0-5,1.1-5,2.5s2.2,2.5,5,2.5s5-1.1,5-2.5S67.8,14,65,14z M65,18c-1.7,0-3-0.7-3-1.5
			s1.3-1.5,3-1.5s3,0.7,3,1.5S66.7,18,65,18z"/>
		<path fill="#656565" d="M55,19c-2.8,0-5,1.1-5,2.5s2.2,2.5,5,2.5s5-1.1,5-2.5S57.8,19,55,19z M55,23c-1.7,0-3-0.7-3-1.5
			s1.3-1.5,3-1.5s3,0.7,3,1.5S56.7,23,55,23z"/>
	</g>
	<g>
		<polygon fill="#F8EBCB" points="84,19 60,31 60,33 72,39 96,27 96,25 		"/>
		<polygon opacity="0.39" points="96,27 72,39 72,37 96,25 		"/>
		<polygon opacity="0.06" points="60,33 72,39 72,37 60,31 		"/>
		<path fill="#656565" d="M83,23c-2.8,0-5,1.1-5,2.5s2.2,2.5,5,2.5s5-1.1,5-2.5S85.8,23,83,23z M83,27c-1.7,0-3-0.7-3-1.5
			s1.3-1.5,3-1.5s3,0.7,3,1.5S84.7,27,83,27z"/>
		<path fill="#656565" d="M73,28c-2.8,0-5,1.1-5,2.5s2.2,2.5,5,2.5s5-1.1,5-2.5S75.8,28,73,28z M73,32c-1.7,0-3-0.7-3-1.5
			s1.3-1.5,3-1.5s3,0.7,3,1.5S74.7,32,73,32z"/>
	</g>
</g>
</svg>
