<?xml version="1.0" encoding="utf-8"?>
<!-- Generator: Adobe Illustrator 18.1.0, SVG Export Plug-In . SVG Version: 6.00 Build 0)  -->
<svg version="1.1" id="Layer_1" xmlns="http://www.w3.org/2000/svg" xmlns:xlink="http://www.w3.org/1999/xlink" x="0px" y="0px"
	 viewBox="0 0 64 32" enable-background="new 0 0 64 32" xml:space="preserve">
<g>
	<g>
		<path fill="#99CC33" d="M39.2,4.4L40,4l-8-4l-8,4l0.7,0.4C29.3,6.7,34.7,6.7,39.2,4.4z"/>
		<path fill="#99CC33" d="M56,12l-8.8,4.4c-9.6,4.8-20.9,4.8-30.5,0L8,12l-8,4l32,16l32-16L56,12z"/>
	</g>
	<path fill="#3399CC" d="M47.3,16.4L56,12L40,4l-0.8,0.4c-4.6,2.3-9.9,2.3-14.5,0L24,4L8,12l8.8,4.4C26.4,21.2,37.6,21.2,47.3,16.4z
		"/>
	<g>
		<path fill="#99CC33" d="M39.2,4.4L40,4l-8-4l-8,4l0.7,0.4C29.3,6.7,34.7,6.7,39.2,4.4z"/>
		<path fill="#99CC33" d="M56,12l-8.8,4.4c-9.6,4.8-20.9,4.8-30.5,0L8,12l-8,4l32,16l32-16L56,12z"/>
	</g>
	<path fill="#3399CC" d="M47.3,16.4L56,12L40,4l-0.8,0.4c-4.6,2.3-9.9,2.3-14.5,0L24,4L8,12l8.8,4.4C26.4,21.2,37.6,21.2,47.3,16.4z
		"/>
	<path opacity="0.15" d="M40,4l4,2l-4.6,2.3c-4.7,2.3-10.1,2.3-14.8,0L20,6l4-2l0.7,0.4c4.6,2.3,9.9,2.3,14.5,0L40,4z"/>
</g>
</svg>
