<?xml version="1.0" encoding="utf-8"?>
<!-- Generator: Adobe Illustrator 18.1.0, SVG Export Plug-In . SVG Version: 6.00 Build 0)  -->
<svg version="1.1" id="Layer_1" xmlns="http://www.w3.org/2000/svg" xmlns:xlink="http://www.w3.org/1999/xlink" x="0px" y="0px"
	 viewBox="0 0 64 32" enable-background="new 0 0 64 32" xml:space="preserve">
<g>
	<g>
		<path fill="#99CC33" d="M11.8,13.9L8,12l-8,4l8,4l3.8-1.9C13.5,17.2,13.5,14.8,11.8,13.9z"/>
		<path fill="#99CC33" d="M32,0l-8,4l8,4c6.6,3.3,6.6,12.7,0,16l-8,4l8,4l32-16L32,0z"/>
	</g>
	<path fill="#3399CC" d="M32,8l-8-4L8,12l3.8,1.9c1.7,0.9,1.7,3.3,0,4.2L8,20l16,8l8-4C38.6,20.7,38.6,11.3,32,8z"/>
	<g>
		<path fill="#99CC33" d="M11.8,13.9L8,12l-8,4l8,4l3.8-1.9C13.5,17.2,13.5,14.8,11.8,13.9z"/>
		<path fill="#99CC33" d="M32,0l-8,4l8,4c6.6,3.3,6.6,12.7,0,16l-8,4l8,4l32-16L32,0z"/>
	</g>
	<path fill="#3399CC" d="M32,8l-8-4L8,12l3.8,1.9c1.7,0.9,1.7,3.3,0,4.2L8,20l16,8l8-4C38.6,20.7,38.6,11.3,32,8z"/>
	<path opacity="0.15" d="M24,4l8,4c6.6,3.3,6.6,12.7,0,16l-8,4l6-4.5c4.6-3.5,4-10.6-1.2-13.1L20,6L24,4z"/>
	<path opacity="0.15" d="M8,12l3.8,1.9c1.7,0.9,1.7,3.3,0,4.2L8,20l4,2l2.9-1.5c3.1-1.6,2.6-6.1-0.8-7L8,12z"/>
</g>
</svg>
