<?xml version="1.0" encoding="utf-8"?>
<!-- Generator: Adobe Illustrator 18.1.0, SVG Export Plug-In . SVG Version: 6.00 Build 0)  -->
<svg version="1.1" id="Layer_1" xmlns="http://www.w3.org/2000/svg" xmlns:xlink="http://www.w3.org/1999/xlink" x="0px" y="0px"
	 viewBox="0 0 64 32" enable-background="new 0 0 64 32" xml:space="preserve">
<g>
	<g>
		<path fill="#99CC33" d="M24.6,27.7L24,28l8,4l8-4l-0.5-0.3C34.8,25.4,29.2,25.4,24.6,27.7z"/>
		<path fill="#99CC33" d="M32,0L0,16l8,4l8.8-4.4c9.6-4.8,20.9-4.8,30.5,0L56,20l8-4L32,0z"/>
	</g>
	<path fill="#3399CC" d="M16.8,15.6L8,20l16,8l0.6-0.3c4.7-2.3,10.2-2.3,14.9,0L40,28l16-8l-8.8-4.4C37.6,10.8,26.4,10.8,16.8,15.6z
		"/>
	<g>
		<path fill="#99CC33" d="M24.6,27.7L24,28l8,4l8-4l-0.5-0.3C34.8,25.4,29.2,25.4,24.6,27.7z"/>
		<path fill="#99CC33" d="M32,0L0,16l8,4l8.8-4.4c9.6-4.8,20.9-4.8,30.5,0L56,20l8-4L32,0z"/>
	</g>
	<path fill="#3399CC" d="M16.8,15.6L8,20l16,8l0.6-0.3c4.7-2.3,10.2-2.3,14.9,0L40,28l16-8l-8.8-4.4C37.6,10.8,26.4,10.8,16.8,15.6z
		"/>
	<path opacity="0.15" d="M46.6,19.3L52,22l4-2l-8.8-4.4c-9.6-4.8-20.9-4.8-30.5,0L8,20l4,2l5.4-2.7C26.6,14.7,37.4,14.7,46.6,19.3z"
		/>
</g>
</svg>
