<?xml version="1.0" encoding="utf-8"?>
<!-- Generator: Adobe Illustrator 18.1.0, SVG Export Plug-In . SVG Version: 6.00 Build 0)  -->
<svg version="1.1" id="Layer_1" xmlns="http://www.w3.org/2000/svg" xmlns:xlink="http://www.w3.org/1999/xlink" x="0px" y="0px"
	 viewBox="0 0 64 32" enable-background="new 0 0 64 32" xml:space="preserve">
<g>
	<g>
		<path fill="#999999" d="M9.9,15l-3.9-2L0,16l5.9,3l3.9-2C10.7,16.6,10.7,15.4,9.9,15z"/>
		<path fill="#999999" d="M58.1,13l-3.9,2c-0.8,0.4-0.8,1.6,0,2l3.9,2l5.9-3L58.1,13z"/>
		<path fill="#999999" d="M34.1,4.9L37.9,3L32,0l-5.9,3l3.9,1.9C31.2,5.6,32.8,5.6,34.1,4.9z"/>
		<path fill="#999999" d="M29.9,27.1L26.1,29l5.9,3l5.9-3l-3.9-1.9C32.8,26.4,31.2,26.4,29.9,27.1z"/>
	</g>
	<path fill="#656565" d="M54.1,15l3.9-2L37.9,3l-3.9,1.9c-1.3,0.7-2.8,0.7-4.2,0L26.1,3L5.9,13l3.9,2c0.8,0.4,0.8,1.6,0,2l-3.9,2
		L26.1,29l3.9-1.9c1.3-0.7,2.8-0.7,4.2,0l3.9,1.9L58.1,19l-3.9-2C53.3,16.6,53.3,15.4,54.1,15z"/>
	<g>
		<path fill="#999999" d="M9.9,15l-3.9-2L0,16l5.9,3l3.9-2C10.7,16.6,10.7,15.4,9.9,15z"/>
		<path fill="#999999" d="M58.1,13l-3.9,2c-0.8,0.4-0.8,1.6,0,2l3.9,2l5.9-3L58.1,13z"/>
		<path fill="#999999" d="M34.1,4.9L37.9,3L32,0l-5.9,3l3.9,1.9C31.2,5.6,32.8,5.6,34.1,4.9z"/>
		<path fill="#999999" d="M29.9,27.1L26.1,29l5.9,3l5.9-3l-3.9-1.9C32.8,26.4,31.2,26.4,29.9,27.1z"/>
	</g>
	<path fill="#656565" d="M54.1,15l3.9-2L37.9,3l-3.9,1.9c-1.3,0.7-2.8,0.7-4.2,0L26.1,3L5.9,13l3.9,2c0.8,0.4,0.8,1.6,0,2l-3.9,2
		L26.1,29l3.9-1.9c1.3-0.7,2.8-0.7,4.2,0l3.9,1.9L58.1,19l-3.9-2C53.3,16.6,53.3,15.4,54.1,15z"/>
	<path opacity="0.15" d="M39.1,3.5L37.9,3l-3.9,1.9c-1.3,0.7-2.8,0.7-4.2,0L26.1,3l-1.1,0.6l5,2.5c1.3,0.7,2.8,0.7,4.2,0L39.1,3.5z"
		/>
	<path opacity="0.15" d="M7.1,12.5L5.9,13l3.9,2c0.8,0.4,0.8,1.6,0,2l-3.9,2l1.1,0.6l5.1-2.5c0.8-0.4,0.8-1.6,0-2L7.1,12.5z"/>
	<path opacity="0.15" d="M24.9,28.5l1.1,0.6l3.9-1.9c1.3-0.7,2.8-0.7,4.2,0l3.9,1.9l1.1-0.6l-5-2.5c-1.3-0.7-2.8-0.7-4.2,0
		L24.9,28.5z"/>
	<path opacity="0.15" d="M58.1,13l-1.1-0.6L51.9,15c-0.8,0.4-0.8,1.6,0,2l5.1,2.5l1.1-0.6l-3.9-2c-0.8-0.4-0.8-1.6,0-2L58.1,13z"/>
</g>
</svg>
