<?xml version="1.0" encoding="utf-8"?>
<!-- Generator: Adobe Illustrator 18.1.0, SVG Export Plug-In . SVG Version: 6.00 Build 0)  -->
<svg version="1.1" id="Layer_1" xmlns="http://www.w3.org/2000/svg" xmlns:xlink="http://www.w3.org/1999/xlink" x="0px" y="0px"
	 viewBox="0 0 128 64" enable-background="new 0 0 128 64" xml:space="preserve">
<path fill="#656565" d="M67.1,56.5L122.1,29L69.9,3l-2.8,1.4c-2,1-4.3,1-6.3,0L58.1,3L5.9,29l54.9,27.5
	C62.8,57.5,65.2,57.5,67.1,56.5z"/>
<g>
	<path fill="#999999" d="M67.1,4.4L69.9,3L64,0l-5.9,3l2.8,1.4C62.8,5.4,65.2,5.4,67.1,4.4z"/>
	<path fill="#999999" d="M64,64l64-32l-5.9-3L67.1,56.5c-2,1-4.3,1-6.3,0L5.9,29L0,32L64,64z"/>
</g>
<path fill="#656565" d="M67.1,56.5L122.1,29L69.9,3l-2.8,1.4c-2,1-4.3,1-6.3,0L58.1,3L5.9,29l54.9,27.5
	C62.8,57.5,65.2,57.5,67.1,56.5z"/>
<g>
	<path fill="#999999" d="M67.1,4.4L69.9,3L64,0l-5.9,3l2.8,1.4C62.8,5.4,65.2,5.4,67.1,4.4z"/>
	<path fill="#999999" d="M64,64l64-32l-5.9-3L67.1,56.5c-2,1-4.3,1-6.3,0L5.9,29L0,32L64,64z"/>
</g>
<path opacity="0.15" d="M60.9,56.5c2,1,4.3,1,6.3,0L122.1,29l-1.1-0.6L67.1,55.4c-2,1-4.3,1-6.3,0L7.1,28.5L5.9,29L60.9,56.5z"/>
<polygon fill="#E5E5E5" points="64,32.6 96.6,16.3 95.4,15.7 64,31.4 32.6,15.7 31.4,16.3 63.8,32.4 "/>
</svg>
