<?xml version="1.0" encoding="utf-8"?>
<!-- Generator: Adobe Illustrator 18.1.0, SVG Export Plug-In . SVG Version: 6.00 Build 0)  -->
<svg version="1.1" id="Layer_1" xmlns="http://www.w3.org/2000/svg" xmlns:xlink="http://www.w3.org/1999/xlink" x="0px" y="0px"
	 viewBox="0 0 64 32" enable-background="new 0 0 64 32" xml:space="preserve">
<g>
	<path fill="#999999" d="M32,32l-5.9-3l24.4-12.2c0.7-0.3,0.7-1.3,0-1.6l-18.1-9c-0.3-0.1-0.6-0.1-0.8,0L5.9,19L0,16L32,0l32,16
		L32,32z"/>
	<path fill="#656565" d="M50.4,15.2l-18.1-9c-0.3-0.1-0.6-0.1-0.8,0L5.9,19L26.1,29l24.4-12.2C51.1,16.5,51.1,15.5,50.4,15.2z"/>
	<path fill="#999999" d="M32,32l-5.9-3l24.4-12.2c0.7-0.3,0.7-1.3,0-1.6l-18.1-9c-0.3-0.1-0.6-0.1-0.8,0L5.9,19L0,16L32,0l32,16
		L32,32z"/>
	<path fill="#656565" d="M50.4,15.2l-18.1-9c-0.3-0.1-0.6-0.1-0.8,0L5.9,19L26.1,29l24.4-12.2C51.1,16.5,51.1,15.5,50.4,15.2z"/>
	<path opacity="0.15" d="M31.5,6.2c0.3-0.1,0.6-0.1,0.8,0l18.1,9c0.7,0.3,0.7,1.3,0,1.6L26.1,29l-1.1-0.6L49.9,16L32,7.1L7.1,19.5
		L5.9,19L31.5,6.2z"/>
</g>
</svg>
