<?xml version="1.0" encoding="utf-8"?>
<!-- Generator: Adobe Illustrator 18.1.0, SVG Export Plug-In . SVG Version: 6.00 Build 0)  -->
<svg version="1.1" id="Layer_1" xmlns="http://www.w3.org/2000/svg" xmlns:xlink="http://www.w3.org/1999/xlink" x="0px" y="0px"
	 viewBox="0 0 64 32" enable-background="new 0 0 64 32" xml:space="preserve">
<g>
	<path fill="#656565" d="M26.1,3l4.2,2.1c1.1,0.6,2.4,0.6,3.6,0L37.9,3L58.1,13l-3.9,2c-0.8,0.4-0.8,1.6,0,2l3.9,2L37.9,29l-32-16
		L26.1,3z"/>
	<g>
		<path fill="#999999" d="M30.2,5.1L26.1,3L32,0l5.9,3l-4.2,2.1C32.7,5.6,31.3,5.6,30.2,5.1z"/>
		<polygon fill="#999999" points="5.9,13 37.9,29 32,32 0,16 		"/>
		<path fill="#999999" d="M54.1,15l3.9-2l5.9,3l-5.9,3l-3.9-2C53.3,16.6,53.3,15.4,54.1,15z"/>
	</g>
	<path fill="#656565" d="M26.1,3l4.2,2.1c1.1,0.6,2.4,0.6,3.6,0L37.9,3L58.1,13l-3.9,2c-0.8,0.4-0.8,1.6,0,2l3.9,2L37.9,29l-32-16
		L26.1,3z"/>
	<g>
		<path fill="#999999" d="M30.2,5.1L26.1,3L32,0l5.9,3l-4.2,2.1C32.7,5.6,31.3,5.6,30.2,5.1z"/>
		<polygon fill="#999999" points="5.9,13 37.9,29 32,32 0,16 		"/>
		<path fill="#999999" d="M54.1,15l3.9-2l5.9,3l-5.9,3l-3.9-2C53.3,16.6,53.3,15.4,54.1,15z"/>
	</g>
	<path opacity="0.15" d="M56.9,12.5l1.1,0.6l-3.9,2c-0.8,0.4-0.8,1.6,0,2l3.9,2l-1.1,0.6L51.9,17c-0.8-0.4-0.8-1.6,0-2L56.9,12.5z"
		/>
	<path opacity="0.15" d="M26.1,3l4.2,2.1c1.1,0.6,2.4,0.6,3.6,0L37.9,3l1.1,0.6l-5.3,2.6c-1.1,0.6-2.4,0.6-3.6,0l-5.3-2.6L26.1,3z"
		/>
	<polygon opacity="0.15" points="7.1,12.5 39.1,28.5 37.9,29 5.9,13 	"/>
</g>
</svg>
