<?xml version="1.0" encoding="utf-8"?>
<!-- Generator: Adobe Illustrator 18.1.0, SVG Export Plug-In . SVG Version: 6.00 Build 0)  -->
<svg version="1.1" id="Layer_1" xmlns="http://www.w3.org/2000/svg" xmlns:xlink="http://www.w3.org/1999/xlink" x="0px" y="0px"
	 viewBox="0 0 256 128" enable-background="new 0 0 256 128" xml:space="preserve">
<polygon fill="#999999" points="58,125 64,128 256,32 250,29 "/>
<polygon fill="#999999" points="58,125 64,128 256,32 250,29 "/>
<path fill="#999999" d="M0,96l6,3l67.9-34c0.8-0.4,0.8-1.6,0-2L6,29l-6,3l64,32L0,96z"/>
<path fill="#999999" d="M125.9,36.9c1.3,0.7,2.8,0.7,4.2,0L198,3l-6-3l-64,32L64,0l-6,3L125.9,36.9z"/>
<path fill="#999999" d="M0,96l6,3l67.9-34c0.8-0.4,0.8-1.6,0-2L6,29l-6,3l64,32L0,96z"/>
<path fill="#999999" d="M125.9,36.9c1.3,0.7,2.8,0.7,4.2,0L198,3l-6-3l-64,32L64,0l-6,3L125.9,36.9z"/>
<path fill="#656565" d="M73.9,63c0.8,0.4,0.8,1.6,0,2L5.9,99L58,125l192-96L198,3l-67.9,33.9c-1.3,0.7-2.8,0.7-4.2,0L58,3L6,29
	L73.9,63z"/>
<path fill="#656565" d="M73.9,63c0.8,0.4,0.8,1.6,0,2L5.9,99L58,125l192-96L198,3l-67.9,33.9c-1.3,0.7-2.8,0.7-4.2,0L58,3L6,29
	L73.9,63z"/>
<path opacity="0.15" d="M198,3l-67.9,33.9c-1.3,0.7-2.8,0.7-4.2,0L58,3l-1,0.5L125.9,38c1.3,0.7,2.8,0.7,4.2,0L199,3.5L198,3z"/>
<path opacity="0.15" d="M73.9,63c0.8,0.4,0.8,1.6,0,2L6,99l1.1,0.5L76.1,65c0.8-0.4,0.8-1.6,0-2L7.1,28.5L6,29L73.9,63z"/>
<g>
	<polygon fill="#E5E5E5" points="80.5,39.7 88.5,43.7 87.4,44.3 79.4,40.3 	"/>
	<polygon fill="#E5E5E5" points="39.4,20.3 31.4,16.3 32.6,15.7 40.6,19.7 	"/>
	<polygon fill="#E5E5E5" points="71.4,36.3 63.4,32.3 64.5,31.7 72.5,35.7 	"/>
	<polygon fill="#E5E5E5" points="55.4,28.3 47.4,24.3 48.5,23.7 56.5,27.7 	"/>
</g>
<polygon opacity="0.15" points="57,124.5 58,125 250,29 248.9,28.5 "/>
<g>
	<polygon fill="#E5E5E5" points="47.5,103.7 39.5,107.7 40.6,108.3 48.6,104.3 	"/>
	<polygon fill="#E5E5E5" points="88.6,84.3 96.6,80.3 95.4,79.7 87.4,83.7 	"/>
	<polygon fill="#E5E5E5" points="56.6,100.3 64.6,96.3 63.5,95.7 55.5,99.7 	"/>
	<polygon fill="#E5E5E5" points="72.6,92.3 80.6,88.3 79.5,87.7 71.5,91.7 	"/>
</g>
<g>
	<polygon fill="#E5E5E5" points="175.5,39.7 167.5,43.7 168.6,44.3 176.6,40.3 	"/>
	<polygon fill="#E5E5E5" points="216.6,20.3 224.6,16.3 223.4,15.7 215.4,19.7 	"/>
	<polygon fill="#E5E5E5" points="184.6,36.3 192.6,32.3 191.5,31.7 183.5,35.7 	"/>
	<polygon fill="#E5E5E5" points="200.6,28.3 208.6,24.3 207.5,23.7 199.5,27.7 	"/>
</g>
<g>
	<polygon fill="#E5E5E5" points="111.5,71.7 103.5,75.7 104.6,76.3 112.6,72.3 	"/>
	<polygon fill="#E5E5E5" points="152.6,52.3 160.6,48.3 159.4,47.7 151.4,51.7 	"/>
	<polygon fill="#E5E5E5" points="120.6,68.3 128.6,64.3 127.5,63.7 119.5,67.7 	"/>
	<polygon fill="#E5E5E5" points="136.6,60.3 144.6,56.3 143.5,55.7 135.5,59.7 	"/>
</g>
</svg>
