<?xml version="1.0" encoding="utf-8"?>
<!-- Generator: Adobe Illustrator 18.1.0, SVG Export Plug-In . SVG Version: 6.00 Build 0)  -->
<svg version="1.1" id="Layer_1" xmlns="http://www.w3.org/2000/svg" xmlns:xlink="http://www.w3.org/1999/xlink" x="0px" y="0px"
	 viewBox="0 0 128 64" enable-background="new 0 0 128 64" xml:space="preserve">
<g>
	<g>
		<polygon fill="#999999" points="64,0 128,32 122,35 58,3 		"/>
		<polygon fill="#999999" points="6,29 70,61 64,64 0,32 		"/>
		<polygon fill="#656565" points="58,3 122,35 70,61 5.9,29 		"/>
		<polygon fill="#999999" points="64,0 128,32 122,35 58,3 		"/>
		<polygon fill="#999999" points="6,29 70,61 64,64 0,32 		"/>
		<polygon fill="#656565" points="58,3 122,35 70,61 5.9,29 		"/>
		<polygon opacity="0.15" points="7.1,28.5 71,60.5 70,61 6,29 		"/>
		<polygon opacity="0.15" points="58,3 122,35 120.9,35.5 57,3.5 		"/>
		<g>
			<polygon fill="#E5E5E5" points="39.5,20.3 31.5,16.3 32.6,15.7 40.6,19.7 			"/>
			<polygon fill="#E5E5E5" points="48.6,23.7 56.6,27.7 55.5,28.3 47.5,24.3 			"/>
		</g>
	</g>
	<g>
		<polygon fill="#E5E5E5" points="70,57 72,56 48,44 46,45 		"/>
		<polygon fill="#E5E5E5" points="76,54 78,53 54,41 52,42 		"/>
		<polygon fill="#E5E5E5" points="82,51 84,50 60,38 58,39 		"/>
		<polygon fill="#E5E5E5" points="88,48 90,47 66,35 64,36 		"/>
		<polygon fill="#E5E5E5" points="94,45 96,44 72,32 70,33 		"/>
		<polygon fill="#E5E5E5" points="100,42 102,41 78,29 76,30 		"/>
		<polygon fill="#E5E5E5" points="106,39 108,38 84,26 82,27 		"/>
		<polygon fill="#E5E5E5" points="112,36 114,35 90,23 88,24 		"/>
	</g>
</g>
</svg>
