<?xml version="1.0" encoding="utf-8"?>
<!-- Generator: Adobe Illustrator 18.1.0, SVG Export Plug-In . SVG Version: 6.00 Build 0)  -->
<svg version="1.1" id="Layer_1" xmlns="http://www.w3.org/2000/svg" xmlns:xlink="http://www.w3.org/1999/xlink" x="0px" y="0px"
	 viewBox="0 0 128 64" enable-background="new 0 0 128 64" xml:space="preserve">
<g>
	<g>
		<path fill="#999999" d="M122.1,29l-4.1,2.1c-0.7,0.4-0.7,1.4,0,1.8l4.1,2.1l5.9-3L122.1,29z"/>
		<path fill="#999999" d="M13.7,31.1L69.9,3L64,0L0,32l64,32l5.9-3L13.7,32.9C12.9,32.5,12.9,31.5,13.7,31.1z"/>
	</g>
	<path fill="#656565" d="M122.1,29L69.9,3L13.7,31.1c-0.7,0.4-0.7,1.4,0,1.8L69.9,61L122.1,35l-4.1-2.1c-0.7-0.4-0.7-1.4,0-1.8
		L122.1,29z"/>
	<g>
		<path fill="#999999" d="M122.1,29l-4.1,2.1c-0.7,0.4-0.7,1.4,0,1.8l4.1,2.1l5.9-3L122.1,29z"/>
		<path fill="#999999" d="M13.7,31.1L69.9,3L64,0L0,32l64,32l5.9-3L13.7,32.9C12.9,32.5,12.9,31.5,13.7,31.1z"/>
	</g>
	<path fill="#656565" d="M122.1,29L69.9,3L13.7,31.1c-0.7,0.4-0.7,1.4,0,1.8L69.9,61L122.1,35l-4.1-2.1c-0.7-0.4-0.7-1.4,0-1.8
		L122.1,29z"/>
	<path opacity="0.15" d="M122.1,29l-1.1-0.6l-5.3,2.6c-0.7,0.4-0.7,1.4,0,1.8l5.3,2.6l1.1-0.6l-4.1-2.1c-0.7-0.4-0.7-1.4,0-1.8
		L122.1,29z"/>
	<path opacity="0.15" d="M15.9,32.9c-0.7-0.4-0.7-1.4,0-1.8L71.1,3.5L69.9,3L13.7,31.1c-0.7,0.4-0.7,1.4,0,1.8L69.9,61l1.1-0.6
		L15.9,32.9z"/>
	<polygon fill="#E5E5E5" points="95.5,15.7 63,32 95.5,48.3 96.6,47.7 65.1,32 96.6,16.3 	"/>
</g>
</svg>
