<?xml version="1.0" encoding="utf-8"?>
<!-- Generator: Adobe Illustrator 18.1.0, SVG Export Plug-In . SVG Version: 6.00 Build 0)  -->
<svg version="1.1" id="Layer_1" xmlns="http://www.w3.org/2000/svg" xmlns:xlink="http://www.w3.org/1999/xlink" x="0px" y="0px"
	 viewBox="0 0 256 128" enable-background="new 0 0 256 128" xml:space="preserve">
<polygon fill="#999999" points="198,3 192,0 0,96 6,99 "/>
<polygon fill="#999999" points="198,3 192,0 0,96 6,99 "/>
<path fill="#999999" d="M256,32l-6-3l-67.9,34c-0.8,0.4-0.8,1.6,0,2L250,99l6-3l-64-32L256,32z"/>
<path fill="#999999" d="M130.1,91.1c-1.3-0.7-2.8-0.7-4.2,0L58,125l6,3l64-32l64,32l6-3L130.1,91.1z"/>
<path fill="#999999" d="M256,32l-6-3l-67.9,34c-0.8,0.4-0.8,1.6,0,2L250,99l6-3l-64-32L256,32z"/>
<path fill="#999999" d="M130.1,91.1c-1.3-0.7-2.8-0.7-4.2,0L58,125l6,3l64-32l64,32l6-3L130.1,91.1z"/>
<path fill="#656565" d="M182.1,65c-0.8-0.4-0.8-1.6,0-2l67.9-34L198,3L6,99l52,26l67.9-33.9c1.3-0.7,2.8-0.7,4.2,0L198,125l52-26
	L182.1,65z"/>
<path fill="#656565" d="M182.1,65c-0.8-0.4-0.8-1.6,0-2l67.9-34L198,3L6,99l52,26l67.9-33.9c1.3-0.7,2.8-0.7,4.2,0L198,125l52-26
	L182.1,65z"/>
<g>
	<polygon fill="#E5E5E5" points="216.5,20.3 224.5,16.3 223.4,15.7 215.4,19.7 	"/>
	<polygon fill="#E5E5E5" points="175.4,39.7 167.4,43.7 168.6,44.3 176.6,40.3 	"/>
	<polygon fill="#E5E5E5" points="207.4,23.7 199.4,27.7 200.5,28.3 208.5,24.3 	"/>
	<polygon fill="#E5E5E5" points="191.4,31.7 183.4,35.7 184.5,36.3 192.5,32.3 	"/>
</g>
<g>
	<polygon fill="#E5E5E5" points="88.5,84.3 96.5,80.3 95.4,79.7 87.4,83.7 	"/>
	<polygon fill="#E5E5E5" points="47.4,103.7 39.4,107.7 40.6,108.3 48.6,104.3 	"/>
	<polygon fill="#E5E5E5" points="79.4,87.7 71.4,91.7 72.5,92.3 80.5,88.3 	"/>
	<polygon fill="#E5E5E5" points="63.4,95.7 55.4,99.7 56.5,100.3 64.5,96.3 	"/>
</g>
<path opacity="0.15" d="M130.1,90c-1.3-0.7-2.8-0.7-4.2,0L57,124.5l1,0.5l67.9-33.9c1.3-0.7,2.8-0.7,4.2,0L198,125l1-0.5L130.1,90z"
	/>
<path opacity="0.15" d="M182.1,65c-0.8-0.4-0.8-1.6,0-2L250,29l-1.1-0.5L179.9,63c-0.8,0.4-0.8,1.6,0,2l69.1,34.5L250,99L182.1,65z"
	/>
<g>
	<polygon fill="#E5E5E5" points="167.5,84.3 159.5,80.3 160.6,79.7 168.6,83.7 	"/>
	<polygon fill="#E5E5E5" points="208.6,103.7 216.6,107.7 215.4,108.3 207.4,104.3 	"/>
	<polygon fill="#E5E5E5" points="176.6,87.7 184.6,91.7 183.5,92.3 175.5,88.3 	"/>
	<polygon fill="#E5E5E5" points="192.6,95.7 200.6,99.7 199.5,100.3 191.5,96.3 	"/>
</g>
<polygon opacity="0.15" points="199,3.5 198,3 6,99 7.1,99.5 "/>
<g>
	<polygon fill="#E5E5E5" points="152.5,52.3 160.5,48.3 159.4,47.7 151.4,51.7 	"/>
	<polygon fill="#E5E5E5" points="111.4,71.7 103.4,75.7 104.6,76.3 112.6,72.3 	"/>
	<polygon fill="#E5E5E5" points="143.4,55.7 135.4,59.7 136.5,60.3 144.5,56.3 	"/>
	<polygon fill="#E5E5E5" points="127.4,63.7 119.4,67.7 120.5,68.3 128.5,64.3 	"/>
</g>
</svg>
