<?xml version="1.0" encoding="utf-8"?>
<!-- Generator: Adobe Illustrator 18.1.0, SVG Export Plug-In . SVG Version: 6.00 Build 0)  -->
<svg version="1.1" id="Layer_1" xmlns="http://www.w3.org/2000/svg" xmlns:xlink="http://www.w3.org/1999/xlink" x="0px" y="0px"
	 viewBox="0 0 64 32" enable-background="new 0 0 64 32" xml:space="preserve">
<g>
	<g>
		<polygon fill="#999999" points="32,0 0,16 5.9,19 37.9,3 		"/>
		<polygon fill="#999999" points="58.1,13 26.1,29 32,32 64,16 		"/>
	</g>
	<polygon fill="#656565" points="5.9,19 26.1,29 58.1,13 37.9,3 	"/>
	<g>
		<polygon fill="#999999" points="32,0 0,16 5.9,19 37.9,3 		"/>
		<polygon fill="#999999" points="58.1,13 26.1,29 32,32 64,16 		"/>
	</g>
	<polygon fill="#656565" points="5.9,19 26.1,29 58.1,13 37.9,3 	"/>
	<polygon opacity="0.15" enable-background="new    " points="37.9,3 5.9,19 7.1,19.5 39.1,3.5 	"/>
	<polygon opacity="0.15" enable-background="new    " points="56.9,12.5 24.9,28.5 26.1,29 58.1,13 	"/>
</g>
</svg>
