<?xml version="1.0" encoding="utf-8"?>
<!-- Generator: Adobe Illustrator 18.1.0, SVG Export Plug-In . SVG Version: 6.00 Build 0)  -->
<svg version="1.1" id="Layer_1" xmlns="http://www.w3.org/2000/svg" xmlns:xlink="http://www.w3.org/1999/xlink" x="0px" y="0px"
	 viewBox="0 0 192 56" enable-background="new 0 0 192 56" xml:space="preserve">
<g>
	<path fill="#999999" d="M96,49.4c12.4,0,23.9,2.5,32,6.6l6-3c-9.8-4.9-23.1-8.1-38-8.1S67.8,48.1,58,53l6,3
		C72.1,51.9,83.6,49.4,96,49.4z"/>
	<path fill="#999999" d="M96,8.4c35.1,0,67,7.1,90,18.6l6-3C167.4,11.7,133.6,3.9,96,3.9S24.6,11.7,0,24l6,3
		C29,15.5,60.9,8.4,96,8.4z"/>
	<path fill="#656565" d="M96,8.4C60.9,8.4,29,15.5,6,27l52,26c9.8-4.9,23.1-8.1,38-8.1s28.2,3.2,38,8.1l52-26
		C163,15.5,131.1,8.4,96,8.4z"/>
	<path fill="#999999" d="M96,49.4c12.4,0,23.9,2.5,32,6.6l6-3c-9.8-4.9-23.1-8.1-38-8.1S67.8,48.1,58,53l6,3
		C72.1,51.9,83.6,49.4,96,49.4z"/>
	<path fill="#999999" d="M96,8.4c35.1,0,67,7.1,90,18.6l6-3C167.4,11.7,133.6,3.9,96,3.9S24.6,11.7,0,24l6,3
		C29,15.5,60.9,8.4,96,8.4z"/>
	<path fill="#656565" d="M96,8.4C60.9,8.4,29,15.5,6,27l52,26c9.8-4.9,23.1-8.1,38-8.1s28.2,3.2,38,8.1l52-26
		C163,15.5,131.1,8.4,96,8.4z"/>
	<path fill="#656565" d="M6,27L7,27.5C29.8,16.2,61.3,9.2,96,9.2s66.2,7,88.9,18.4L186,27C163,15.5,131.1,8.4,96,8.4S29,15.5,6,27z"
		/>
	<path opacity="0.15" d="M6,27L7,27.5C29.8,16.2,61.3,9.2,96,9.2s66.2,7,88.9,18.4L186,27C163,15.5,131.1,8.4,96,8.4S29,15.5,6,27z"
		/>
	<path fill="#656565" d="M57,52.5L58,53c9.8-4.9,23.1-8.1,38-8.1s28.2,3.2,38,8.1l1.1-0.5c-10-5-23.7-8.3-39-8.3S67,47.5,57,52.5z"
		/>
	<path opacity="0.15" d="M57,52.5L58,53c9.8-4.9,23.1-8.1,38-8.1s28.2,3.2,38,8.1l1.1-0.5c-10-5-23.7-8.3-39-8.3S67,47.5,57,52.5z"
		/>
	<path fill="#E5E5E5" d="M96,27.2c24.7,0,47.1,5,63.4,13l1.1-0.5C144,31.3,121.2,26.2,96,26.2s-48,5.2-64.5,13.5l1.1,0.5
		C48.9,32.1,71.3,27.2,96,27.2z"/>
</g>
</svg>
