<?xml version="1.0" encoding="utf-8"?>
<!-- Generator: Adobe Illustrator 18.1.0, SVG Export Plug-In . SVG Version: 6.00 Build 0)  -->
<svg version="1.1" id="Layer_1" xmlns="http://www.w3.org/2000/svg" xmlns:xlink="http://www.w3.org/1999/xlink" x="0px" y="0px"
	 viewBox="0 0 160 80" enable-background="new 0 0 160 80" xml:space="preserve">
<g>
	<polygon fill="#999999" points="5.9,67 0,64 32,48 0,32 6,29 43.9,48 	"/>
	<polygon fill="#999999" points="96,80 64,64 32,80 26.1,77 64.1,58 102,77 	"/>
</g>
<polygon fill="#656565" points="102,77 64.1,58 26.1,77 5.9,67 43.9,48 6,29 58,3 154.1,51 "/>
<g>
	<polygon fill="#999999" points="5.9,67 0,64 32,48 0,32 6,29 43.9,48 	"/>
	<polygon fill="#999999" points="96,80 64,64 32,80 26.1,77 64.1,58 102,77 	"/>
</g>
<polygon fill="#656565" points="102,77 64.1,58 26.1,77 5.9,67 43.9,48 6,29 58,3 154.1,51 "/>
<polygon fill="#999999" points="154,51 58,3 64,0 160,48 "/>
<polygon fill="#999999" points="154,51 58,3 64,0 160,48 "/>
<polygon opacity="0.15" points="152.9,51.5 57,3.5 58,3 154,51 "/>
<g>
	<g>
		<polygon fill="#E5E5E5" points="80.5,39.7 88.5,43.7 87.4,44.3 79.4,40.3 		"/>
		<polygon fill="#E5E5E5" points="39.4,20.3 31.4,16.3 32.6,15.7 40.6,19.7 		"/>
		<polygon fill="#E5E5E5" points="71.4,36.3 63.4,32.3 64.5,31.7 72.5,35.7 		"/>
		<polygon fill="#E5E5E5" points="55.4,28.3 47.4,24.3 48.5,23.7 56.5,27.7 		"/>
	</g>
	<g>
		<polygon fill="#E5E5E5" points="112.5,55.7 120.5,59.7 119.4,60.3 111.4,56.3 		"/>
		<polygon fill="#E5E5E5" points="103.4,52.3 95.4,48.3 96.5,47.7 104.5,51.7 		"/>
	</g>
</g>
<g>
	<polygon opacity="0.15" points="102,77 64.1,58 26.1,77 24.9,76.5 64,57 103,76.5 	"/>
	<polygon opacity="0.15" points="7.1,67.5 5.9,67 43.9,48 6,29 7.1,28.5 46,48 	"/>
</g>
</svg>
