<?xml version="1.0" encoding="utf-8"?>
<!-- Generator: Adobe Illustrator 18.1.0, SVG Export Plug-In . SVG Version: 6.00 Build 0)  -->
<svg version="1.1" id="Layer_1" xmlns="http://www.w3.org/2000/svg" xmlns:xlink="http://www.w3.org/1999/xlink" x="0px" y="0px"
	 viewBox="0 0 128 64" enable-background="new 0 0 128 64" xml:space="preserve">
<polygon fill="#999999" points="58,61 64,64 128,32 122,29 "/>
<polygon fill="#999999" points="58,61 64,64 128,32 122,29 "/>
<path fill="#999999" d="M0,32l6,3l3.9-2c0.8-0.4,0.8-1.6,0-2L6,29L0,32L0,32L0,32z"/>
<path fill="#999999" d="M61.9,4.9c1.3,0.7,2.8,0.7,4.2,0L70,3l-6-3l0,0l0,0l-6,3L61.9,4.9z"/>
<path fill="#999999" d="M0,32l6,3l3.9-2c0.8-0.4,0.8-1.6,0-2L6,29L0,32L0,32L0,32z"/>
<path fill="#999999" d="M61.9,4.9c1.3,0.7,2.8,0.7,4.2,0L70,3l-6-3l0,0l0,0l-6,3L61.9,4.9z"/>
<path fill="#656565" d="M9.9,31c0.8,0.4,0.8,1.6,0,2l-3.9,2L58,61l64-32L70,3l-3.9,1.9c-1.3,0.7-2.8,0.7-4.2,0L58,3L6,29L9.9,31z"/>
<path fill="#656565" d="M9.9,31c0.8,0.4,0.8,1.6,0,2l-3.9,2L58,61l64-32L70,3l-3.9,1.9c-1.3,0.7-2.8,0.7-4.2,0L58,3L6,29L9.9,31z"/>
<path opacity="0.15" d="M71.1,3.5L69.9,3l-3.9,1.9c-1.3,0.7-2.8,0.7-4.2,0L58.1,3l-1.1,0.6l5,2.5c1.3,0.7,2.8,0.7,4.2,0L71.1,3.5z"
	/>
<path opacity="0.15" d="M9.9,31c0.8,0.4,0.8,1.6,0,2L6,35l1.1,0.5l5.1-2.5c0.8-0.4,0.8-1.6,0-2l-5.1-2.5L6,29L9.9,31z"/>
<polygon opacity="0.15" points="57,60.5 58,61 122,29 120.9,28.5 "/>
</svg>
