<?xml version="1.0" encoding="utf-8"?>
<!-- Generator: Adobe Illustrator 18.1.0, SVG Export Plug-In . SVG Version: 6.00 Build 0)  -->
<svg version="1.1" id="Layer_1" xmlns="http://www.w3.org/2000/svg" xmlns:xlink="http://www.w3.org/1999/xlink" x="0px" y="0px"
	 viewBox="0 0 128 64" enable-background="new 0 0 128 64" xml:space="preserve">
<g>
	<g>
		<path fill="#999999" d="M5.9,29l4.1,2.1c0.7,0.4,0.7,1.4,0,1.8L5.9,35L0,32L5.9,29z"/>
		<path fill="#999999" d="M114.3,31.1L58.1,3L64,0l64,32L64,64l-5.9-3l56.3-28.1C115.1,32.5,115.1,31.5,114.3,31.1z"/>
	</g>
	<path fill="#656565" d="M5.9,29L58.1,3l56.3,28.1c0.7,0.4,0.7,1.4,0,1.8L58.1,61L5.9,35l4.1-2.1c0.7-0.4,0.7-1.4,0-1.8L5.9,29z"/>
	<g>
		<path fill="#999999" d="M5.9,29l4.1,2.1c0.7,0.4,0.7,1.4,0,1.8L5.9,35L0,32L5.9,29z"/>
		<path fill="#999999" d="M114.3,31.1L58.1,3L64,0l64,32L64,64l-5.9-3l56.3-28.1C115.1,32.5,115.1,31.5,114.3,31.1z"/>
	</g>
	<path fill="#656565" d="M5.9,29L58.1,3l56.3,28.1c0.7,0.4,0.7,1.4,0,1.8L58.1,61L5.9,35l4.1-2.1c0.7-0.4,0.7-1.4,0-1.8L5.9,29z"/>
	<path opacity="0.15" d="M5.9,29l1.1-0.6l5.3,2.6c0.7,0.4,0.7,1.4,0,1.8l-5.3,2.6L5.9,35l4.1-2.1c0.7-0.4,0.7-1.4,0-1.8L5.9,29z"/>
	<path opacity="0.15" d="M112.1,32.9c0.7-0.4,0.7-1.4,0-1.8L56.9,3.5L58.1,3l56.3,28.1c0.7,0.4,0.7,1.4,0,1.8L58.1,61l-1.1-0.6
		L112.1,32.9z"/>
	<polygon fill="#E5E5E5" points="32.5,15.7 65,32 32.5,48.3 31.4,47.7 62.9,32 31.4,16.3 	"/>
</g>
</svg>
