<?xml version="1.0" encoding="utf-8"?>
<!-- Generator: Adobe Illustrator 18.1.0, SVG Export Plug-In . SVG Version: 6.00 Build 0)  -->
<svg version="1.1" id="Layer_1" xmlns="http://www.w3.org/2000/svg" xmlns:xlink="http://www.w3.org/1999/xlink" x="0px" y="0px"
	 viewBox="0 0 352 176" enable-background="new 0 0 352 176" xml:space="preserve">
<g>
	<g>
		<path fill="#999999" d="M232.3,144.9c-0.5,0.1-1,0.2-1.4,0.3c-0.8,0.2-1.5,0.4-2.3,0.5c-16,3.6-33.8,5.7-52.5,5.7
			s-36.5-2-52.5-5.7c-0.8-0.2-1.5-0.4-2.3-0.5c-0.5-0.1-1-0.2-1.4-0.3c-1.2-0.3-2.5-0.6-3.7-0.9l-58,29l6,3l53.3-26.7
			c17.8,4.3,37.7,6.7,58.7,6.7s40.9-2.4,58.7-6.7L288,176l6-3l-58-29C234.8,144.3,233.5,144.6,232.3,144.9z"/>
		<path fill="#999999" d="M312,88c0-10.5-4.8-20.5-13.3-29.3L352,32l-6-3l-58,29c0.7,0.6,1.3,1.2,1.9,1.8c0.2,0.2,0.4,0.5,0.7,0.7
			c0.4,0.4,0.8,0.8,1.1,1.2c7.3,8,11.4,16.9,11.4,26.3c0,9.4-4.1,18.3-11.4,26.3c-0.4,0.4-0.7,0.8-1.1,1.2c-0.2,0.2-0.4,0.5-0.7,0.7
			c-0.6,0.6-1.2,1.2-1.9,1.8l58,29l6-3l-53.3-26.7C307.2,108.5,312,98.5,312,88z"/>
		<path fill="#999999" d="M234.7,26.7C216.9,22.4,197,20,176,20s-40.9,2.4-58.7,6.7L64.4,0l-6,3l51,25.7h0L116,32
			c1.2-0.3,2.4-0.6,3.7-0.9c0.5-0.1,0.9-0.2,1.4-0.3c0.8-0.2,1.6-0.4,2.4-0.6c16-3.6,33.8-5.7,52.5-5.7c18.7,0,36.5,2,52.5,5.7
			c0.8,0.2,1.6,0.4,2.4,0.6c0.5,0.1,0.9,0.2,1.4,0.3c1.2,0.3,2.5,0.6,3.7,0.9l6.6-3.3h0L294,3l-6-3L234.7,26.7z"/>
		<path fill="#999999" d="M60.4,114.3C53.1,106.3,49,97.4,49,88c0-9.4,4.1-18.3,11.4-26.3c0.4-0.4,0.7-0.8,1.1-1.2
			c0.2-0.2,0.4-0.5,0.7-0.7c0.6-0.6,1.2-1.2,1.9-1.8L6.4,29l-6,3l52.9,26.7C44.8,67.5,40,77.5,40,88s4.8,20.5,13.3,29.3L0,144l6,3
			l58-29c-0.7-0.6-1.3-1.2-1.9-1.8c-0.2-0.2-0.4-0.5-0.7-0.7C61.1,115.1,60.7,114.7,60.4,114.3z"/>
	</g>
	<path fill="#999999" d="M176,61c-29.8,0-54,12.1-54,27s24.2,27,54,27s54-12.1,54-27S205.8,61,176,61z M176,110.5
		c-24.9,0-45-10.1-45-22.5c0-12.4,20.1-22.5,45-22.5s45,10.1,45,22.5C221,100.4,200.9,110.5,176,110.5z"/>
	<path fill="#999999" d="M176,61c-29.8,0-54,12.1-54,27s24.2,27,54,27s54-12.1,54-27S205.8,61,176,61z M176,110.5
		c-24.9,0-45-10.1-45-22.5c0-12.4,20.1-22.5,45-22.5s45,10.1,45,22.5C221,100.4,200.9,110.5,176,110.5z"/>
	<g>
		<path fill="#999999" d="M232.3,144.9c-0.5,0.1-1,0.2-1.4,0.3c-0.8,0.2-1.5,0.4-2.3,0.5c-16,3.6-33.8,5.7-52.5,5.7
			s-36.5-2-52.5-5.7c-0.8-0.2-1.5-0.4-2.3-0.5c-0.5-0.1-1-0.2-1.4-0.3c-1.2-0.3-2.5-0.6-3.7-0.9l-58,29l6,3l53.3-26.7
			c17.8,4.3,37.7,6.7,58.7,6.7s40.9-2.4,58.7-6.7L288,176l6-3l-58-29C234.8,144.3,233.5,144.6,232.3,144.9z"/>
		<path fill="#999999" d="M312,88c0-10.5-4.8-20.5-13.3-29.3L352,32l-6-3l-58,29c0.7,0.6,1.3,1.2,1.9,1.8c0.2,0.2,0.4,0.5,0.7,0.7
			c0.4,0.4,0.8,0.8,1.1,1.2c7.3,8,11.4,16.9,11.4,26.3c0,9.4-4.1,18.3-11.4,26.3c-0.4,0.4-0.7,0.8-1.1,1.2c-0.2,0.2-0.4,0.5-0.7,0.7
			c-0.6,0.6-1.2,1.2-1.9,1.8l58,29l6-3l-53.3-26.7C307.2,108.5,312,98.5,312,88z"/>
		<path fill="#999999" d="M234.7,26.7C216.9,22.4,197,20,176,20s-40.9,2.4-58.7,6.7L64.4,0l-6,3l51,25.7h0L116,32
			c1.2-0.3,2.4-0.6,3.7-0.9c0.5-0.1,0.9-0.2,1.4-0.3c0.8-0.2,1.6-0.4,2.4-0.6c16-3.6,33.8-5.7,52.5-5.7c18.7,0,36.5,2,52.5,5.7
			c0.8,0.2,1.6,0.4,2.4,0.6c0.5,0.1,0.9,0.2,1.4,0.3c1.2,0.3,2.5,0.6,3.7,0.9l6.6-3.3h0L294,3l-6-3L234.7,26.7z"/>
		<path fill="#999999" d="M60.4,114.3C53.1,106.3,49,97.4,49,88c0-9.4,4.1-18.3,11.4-26.3c0.4-0.4,0.7-0.8,1.1-1.2
			c0.2-0.2,0.4-0.5,0.7-0.7c0.6-0.6,1.2-1.2,1.9-1.8L6.4,29l-6,3l52.9,26.7C44.8,67.5,40,77.5,40,88s4.8,20.5,13.3,29.3L0,144l6,3
			l58-29c-0.7-0.6-1.3-1.2-1.9-1.8c-0.2-0.2-0.4-0.5-0.7-0.7C61.1,115.1,60.7,114.7,60.4,114.3z"/>
	</g>
	<path fill="#656565" d="M303,88c0-10.8-5.4-21.1-15-30l58.1-29L294,3l-58,29c-17.9-4.8-38.3-7.5-60-7.5s-42.1,2.7-60,7.5L58.4,3
		L6.4,29L64,58c-9.6,8.9-15,19.1-15,30c0,10.8,5.4,21.1,15,30L6,147l52,26l58.1-29c17.9,4.8,38.3,7.5,59.9,7.5s42.1-2.7,59.9-7.5
		l58.1,29l52-26l-58-29C297.6,109.1,303,98.8,303,88z M122,88c0-14.9,24.2-27,54-27s54,12.1,54,27s-24.2,27-54,27S122,102.9,122,88z
		"/>
	<path fill="#656565" d="M303,88c0-10.8-5.4-21.1-15-30l58.1-29L294,3l-58,29c-17.9-4.8-38.3-7.5-60-7.5s-42.1,2.7-60,7.5L58.4,3
		L6.4,29L64,58c-9.6,8.9-15,19.1-15,30c0,10.8,5.4,21.1,15,30L6,147l52,26l58.1-29c17.9,4.8,38.3,7.5,59.9,7.5s42.1-2.7,59.9-7.5
		l58.1,29l52-26l-58-29C297.6,109.1,303,98.8,303,88z M122,88c0-14.9,24.2-27,54-27s54,12.1,54,27s-24.2,27-54,27S122,102.9,122,88z
		"/>
	<g>
		<polygon fill="#E5E5E5" points="47.4,151.7 39.4,155.7 40.6,156.3 48.6,152.3 		"/>
		<polygon fill="#E5E5E5" points="79.4,135.7 71.4,139.7 72.5,140.3 80.5,136.3 		"/>
		<polygon fill="#E5E5E5" points="63.4,143.7 55.4,147.7 56.5,148.3 64.5,144.3 		"/>
	</g>
	<g>
		<polygon fill="#E5E5E5" points="312.5,20.3 320.5,16.3 319.4,15.7 311.4,19.7 		"/>
		<polygon fill="#E5E5E5" points="303.4,23.7 295.4,27.7 296.5,28.3 304.5,24.3 		"/>
		<polygon fill="#E5E5E5" points="287.4,31.7 279.4,35.7 280.5,36.3 288.5,32.3 		"/>
	</g>
	<g>
		<polygon fill="#E5E5E5" points="39.9,20.3 31.9,16.3 33,15.7 41,19.7 		"/>
		<polygon fill="#E5E5E5" points="49,23.7 57,27.7 55.9,28.3 47.9,24.3 		"/>
		<polygon fill="#E5E5E5" points="65,31.7 73,35.7 71.9,36.3 63.9,32.3 		"/>
	</g>
	<g>
		<polygon fill="#E5E5E5" points="304.6,151.7 312.6,155.7 311.4,156.3 303.4,152.3 		"/>
		<polygon fill="#E5E5E5" points="272.6,135.7 280.6,139.7 279.5,140.3 271.5,136.3 		"/>
		<polygon fill="#E5E5E5" points="288.6,143.7 296.6,147.7 295.5,148.3 287.5,144.3 		"/>
	</g>
	<path opacity="0.15" d="M176,60.3c-30.7,0-55.5,12.4-55.5,27.8s24.8,27.8,55.5,27.8s55.5-12.4,55.5-27.8S206.7,60.3,176,60.3z
		 M176,115c-29.8,0-54-12.1-54-27s24.2-27,54-27s54,12.1,54,27S205.8,115,176,115z"/>
	<path fill="#E5E5E5" d="M176,133.8h-0.4v-1h0.4c3.2,0,6.4-0.1,9.6-0.3l0.1,1C182.5,133.7,179.2,133.8,176,133.8z M165.6,133.5
		c-3.3-0.2-6.7-0.5-10-0.9l0.1-1c3.3,0.4,6.6,0.7,9.9,0.8L165.6,133.5z M195.7,132.7l-0.1-1c3.3-0.4,6.7-0.8,9.9-1.4l0.2,1
		C202.4,131.8,199,132.3,195.7,132.7z M145.7,131.2c-3.3-0.6-6.6-1.3-9.8-2.1l0.2-1c3.2,0.8,6.4,1.5,9.8,2.1L145.7,131.2z
		 M215.4,129.3l-0.2-1c3.3-0.8,6.5-1.7,9.6-2.7l0.3,1C222,127.5,218.7,128.5,215.4,129.3z M126.2,126.3c-3.3-1.1-6.4-2.3-9.4-3.5
		l0.4-0.9c2.9,1.3,6.1,2.4,9.3,3.5L126.2,126.3z M234.5,123.1l-0.4-0.9c3.2-1.3,6.2-2.8,8.9-4.3l0.5,0.9
		C240.8,120.2,237.7,121.7,234.5,123.1z M107.8,118.3c-3.1-1.7-5.9-3.6-8.4-5.6l0.6-0.8c2.5,1.9,5.2,3.8,8.3,5.5L107.8,118.3z
		 M252,113.2l-0.6-0.8c2.8-2.1,5.2-4.4,7.3-6.7l0.8,0.7C257.3,108.7,254.8,111,252,113.2z M92.1,105.8c-2.3-2.8-4.1-5.7-5.3-8.6
		l0.9-0.4c1.2,2.8,2.9,5.7,5.1,8.3L92.1,105.8z M264.9,97.9l-0.9-0.4c1.4-3.1,2-6.3,2-9.5h1C267,91.3,266.3,94.7,264.9,97.9z
		 M86,87.3l-1,0c0.1-3.3,0.9-6.6,2.4-9.8l0.9,0.4C86.9,81,86.1,84.1,86,87.3z M264.5,79.8c-1.1-2.9-2.7-5.7-4.9-8.4l0.8-0.6
		c2.3,2.8,4,5.7,5.1,8.7L264.5,79.8z M93.8,69.8l-0.7-0.7c2.1-2.3,4.6-4.6,7.5-6.7l0.6,0.8C98.4,65.3,95.9,67.5,93.8,69.8z
		 M252.5,64.5c-2.4-2-5.2-3.8-8.2-5.6l0.5-0.9c3.1,1.8,5.9,3.7,8.3,5.7L252.5,64.5z M109.6,57.8l-0.5-0.9c2.8-1.5,5.9-3,9.1-4.3
		l0.4,0.9C115.4,54.9,112.3,56.3,109.6,57.8z M235.4,54.4c-2.9-1.3-6.1-2.5-9.3-3.6l0.3-0.9c3.3,1.1,6.4,2.3,9.4,3.6L235.4,54.4z
		 M127.9,50.2l-0.3-1c3.1-1,6.4-1.9,9.7-2.7l0.2,1C134.2,48.3,131,49.2,127.9,50.2z M216.6,48.1c-3.2-0.8-6.4-1.5-9.7-2.1l0.2-1
		c3.3,0.6,6.6,1.3,9.8,2.1L216.6,48.1z M147.3,45.6l-0.2-1c3.3-0.5,6.6-1,9.9-1.4l0.1,1C153.8,44.6,150.5,45,147.3,45.6z M197,44.5
		c-3.3-0.4-6.6-0.7-9.9-0.9l0.1-1c3.3,0.2,6.7,0.5,10,0.9L197,44.5z M167.1,43.5l0-1c2.9-0.1,6-0.2,9-0.2l1.1,0l0,1l-1.1,0
		C173,43.3,170,43.3,167.1,43.5z"/>
	<g>
		<path opacity="0.15" d="M50.5,88c0-10.6,5.3-20.6,14.6-29.4L66,58L7.5,28.5L6.4,29L64,58c0,0,0,0,0,0c-9.6,8.9-15,19.1-15,30
			c0,10.8,5.4,21.1,15,30L6,147l1.1,0.5L66,118l-0.9-0.6C55.8,108.7,50.5,98.6,50.5,88z"/>
		<path opacity="0.15" d="M294,3l-58,29c-17.9-4.8-38.3-7.5-60-7.5s-42.1,2.7-60,7.5L58.4,3l-1,0.5L116,33l1.1-0.4
			c17.6-4.7,37.6-7.3,58.9-7.3s41.3,2.6,58.9,7.3L236,33l59-29.5L294,3z"/>
		<path opacity="0.15" d="M303,88c0-10.8-5.4-21.1-15-30l0,0c0,0,0,0,0,0l58-29l-1.1-0.5L286,58l0.9,0.6
			c9.3,8.8,14.6,18.8,14.6,29.4c0,10.6-5.3,20.7-14.6,29.4L286,118l58.9,29.5l1.1-0.5l-58-29C297.6,109.1,303,98.8,303,88z"/>
		<path opacity="0.15" d="M236,143l-1.2,0.4c-17.5,4.7-37.6,7.3-58.8,7.3s-41.3-2.6-58.8-7.3L116,143l-59,29.5l1,0.5l58-29
			c0,0,0,0,0,0l0,0c17.9,4.8,38.3,7.5,59.9,7.5s42.1-2.7,59.9-7.5l58.1,29l1-0.5L236,143z"/>
	</g>
</g>
</svg>
