<?xml version="1.0" encoding="utf-8"?>
<!-- Generator: Adobe Illustrator 18.1.0, SVG Export Plug-In . SVG Version: 6.00 Build 0)  -->
<svg version="1.1" id="Layer_1" xmlns="http://www.w3.org/2000/svg" xmlns:xlink="http://www.w3.org/1999/xlink" x="0px" y="0px"
	 viewBox="0 0 128 64" enable-background="new 0 0 128 64" xml:space="preserve">
<g>
	<polygon fill="#999999" points="64,0 0,32 6,35 70,3 	"/>
	<polygon fill="#999999" points="122,29 58,61 64,64 128,32 	"/>
	<polygon fill="#656565" points="70,3 6,35 58,61 122.1,29 	"/>
	<polygon fill="#999999" points="64,0 0,32 6,35 70,3 	"/>
	<polygon fill="#999999" points="122,29 58,61 64,64 128,32 	"/>
	<polygon fill="#656565" points="70,3 6,35 58,61 122.1,29 	"/>
	<polygon opacity="0.15" points="120.9,28.5 57,60.5 58,61 122,29 	"/>
	<polygon opacity="0.15" points="70,3 6,35 7.1,35.5 71,3.5 	"/>
	<g>
		<polygon fill="#E5E5E5" points="88.5,20.3 96.5,16.3 95.4,15.7 87.4,19.7 		"/>
		<polygon fill="#E5E5E5" points="47.4,39.7 39.4,43.7 40.6,44.3 48.6,40.3 		"/>
		<polygon fill="#E5E5E5" points="79.4,23.7 71.4,27.7 72.5,28.3 80.5,24.3 		"/>
		<polygon fill="#E5E5E5" points="63.4,31.7 55.4,35.7 56.5,36.3 64.5,32.3 		"/>
	</g>
</g>
</svg>
