<?xml version="1.0" encoding="utf-8"?>
<!-- Generator: Adobe Illustrator 18.1.0, SVG Export Plug-In . SVG Version: 6.00 Build 0)  -->
<svg version="1.1" id="Layer_1" xmlns="http://www.w3.org/2000/svg" xmlns:xlink="http://www.w3.org/1999/xlink" x="0px" y="0px"
	 viewBox="0 0 64 32" enable-background="new 0 0 64 32" xml:space="preserve">
<g>
	<g>
		<path fill="#999999" d="M5.9,13l4.1,2.1c0.7,0.4,0.7,1.4,0,1.8L5.9,19L0,16L5.9,13z"/>
		<path fill="#999999" d="M50.3,15.1L26.1,3L32,0l32,16L32,32l-5.9-3l24.3-12.1C51.1,16.5,51.1,15.5,50.3,15.1z"/>
	</g>
	<path fill="#656565" d="M5.9,13L26.1,3l24.3,12.1c0.7,0.4,0.7,1.4,0,1.8L26.1,29L5.9,19l4.1-2.1c0.7-0.4,0.7-1.4,0-1.8L5.9,13z"/>
	<g>
		<path fill="#999999" d="M5.9,13l4.1,2.1c0.7,0.4,0.7,1.4,0,1.8L5.9,19L0,16L5.9,13z"/>
		<path fill="#999999" d="M50.3,15.1L26.1,3L32,0l32,16L32,32l-5.9-3l24.3-12.1C51.1,16.5,51.1,15.5,50.3,15.1z"/>
	</g>
	<path fill="#656565" d="M5.9,13L26.1,3l24.3,12.1c0.7,0.4,0.7,1.4,0,1.8L26.1,29L5.9,19l4.1-2.1c0.7-0.4,0.7-1.4,0-1.8L5.9,13z"/>
	<path opacity="0.15" d="M5.9,13l1.1-0.6l5.3,2.6c0.7,0.4,0.7,1.4,0,1.8l-5.3,2.6L5.9,19l4.1-2.1c0.7-0.4,0.7-1.4,0-1.8L5.9,13z"/>
	<path opacity="0.15" d="M48.1,16.9c0.7-0.4,0.7-1.4,0-1.8L24.9,3.5L26.1,3l24.3,12.1c0.7,0.4,0.7,1.4,0,1.8L26.1,29l-1.1-0.6
		L48.1,16.9z"/>
</g>
</svg>
