<?xml version="1.0" encoding="utf-8"?>
<!-- Generator: Adobe Illustrator 18.1.0, SVG Export Plug-In . SVG Version: 6.00 Build 0)  -->
<svg version="1.1" id="Layer_1" xmlns="http://www.w3.org/2000/svg" xmlns:xlink="http://www.w3.org/1999/xlink" x="0px" y="0px"
	 viewBox="0 0 128 64" enable-background="new 0 0 128 64" xml:space="preserve">
<polygon fill="#999999" points="70,61 64,64 0,32 6,29 "/>
<polygon fill="#999999" points="70,61 64,64 0,32 6,29 "/>
<path fill="#999999" d="M128,32l-6,3l-3.9-2c-0.8-0.4-0.8-1.6,0-2l3.9-2L128,32L128,32L128,32z"/>
<path fill="#999999" d="M66.1,4.9c-1.3,0.7-2.8,0.7-4.2,0L58,3l6-3l0,0l0,0l6,3L66.1,4.9z"/>
<path fill="#999999" d="M128,32l-6,3l-3.9-2c-0.8-0.4-0.8-1.6,0-2l3.9-2L128,32L128,32L128,32z"/>
<path fill="#999999" d="M66.1,4.9c-1.3,0.7-2.8,0.7-4.2,0L58,3l6-3l0,0l0,0l6,3L66.1,4.9z"/>
<path fill="#656565" d="M118.1,31c-0.8,0.4-0.8,1.6,0,2l3.9,2L70,61L6,29L58,3l3.9,1.9c1.3,0.7,2.8,0.7,4.2,0L70,3l52,26L118.1,31z"
	/>
<path fill="#656565" d="M118.1,31c-0.8,0.4-0.8,1.6,0,2l3.9,2L70,61L6,29L58,3l3.9,1.9c1.3,0.7,2.8,0.7,4.2,0L70,3l52,26L118.1,31z"
	/>
<path opacity="0.15" d="M56.9,3.5L58.1,3l3.9,1.9c1.3,0.7,2.8,0.7,4.2,0L69.9,3l1.1,0.6l-5,2.5c-1.3,0.7-2.8,0.7-4.2,0L56.9,3.5z"/>
<path opacity="0.15" d="M118.1,31c-0.8,0.4-0.8,1.6,0,2l3.9,2l-1.1,0.5l-5.1-2.5c-0.8-0.4-0.8-1.6,0-2l5.1-2.5L122,29L118.1,31z"/>
<polygon opacity="0.15" points="71,60.5 70,61 6,29 7.1,28.5 "/>
</svg>
