<?xml version="1.0" encoding="utf-8"?>
<!-- Generator: Adobe Illustrator 18.1.0, SVG Export Plug-In . SVG Version: 6.00 Build 0)  -->
<svg version="1.1" id="Layer_1" xmlns="http://www.w3.org/2000/svg" xmlns:xlink="http://www.w3.org/1999/xlink" x="0px" y="0px"
	 viewBox="0 0 128 64" enable-background="new 0 0 128 64" xml:space="preserve">
<g>
	<polygon fill="#999999" points="64,0 128,32 122,35 58,3 	"/>
	<polygon fill="#999999" points="6,29 70,61 64,64 0,32 	"/>
	<polygon fill="#656565" points="58,3 122,35 70,61 5.9,29 	"/>
	<polygon fill="#999999" points="64,0 128,32 122,35 58,3 	"/>
	<polygon fill="#999999" points="6,29 70,61 64,64 0,32 	"/>
	<polygon fill="#656565" points="58,3 122,35 70,61 5.9,29 	"/>
	<polygon opacity="0.15" points="7.1,28.5 71,60.5 70,61 6,29 	"/>
	<polygon opacity="0.15" points="58,3 122,35 120.9,35.5 57,3.5 	"/>
	<g>
		<polygon fill="#E5E5E5" points="80.6,39.7 88.6,43.7 87.4,44.3 79.4,40.3 		"/>
		<polygon fill="#E5E5E5" points="64.6,31.7 72.6,35.7 71.5,36.3 63.5,32.3 		"/>
	</g>
</g>
<g>
	<g>
		<polygon fill="#E5E5E5" points="58,7 56,8 80,20 82,19 		"/>
		<polygon fill="#E5E5E5" points="52,10 50,11 74,23 76,22 		"/>
		<polygon fill="#E5E5E5" points="46,13 44,14 68,26 70,25 		"/>
		<polygon fill="#E5E5E5" points="40,16 38,17 62,29 64,28 		"/>
		<polygon fill="#E5E5E5" points="34,19 32,20 56,32 58,31 		"/>
		<polygon fill="#E5E5E5" points="28,22 26,23 50,35 52,34 		"/>
		<polygon fill="#E5E5E5" points="22,25 20,26 44,38 46,37 		"/>
		<polygon fill="#E5E5E5" points="16,28 14,29 38,41 40,40 		"/>
	</g>
</g>
</svg>
