<?xml version="1.0" encoding="utf-8"?>
<!-- Generator: Adobe Illustrator 18.1.0, SVG Export Plug-In . SVG Version: 6.00 Build 0)  -->
<svg version="1.1" id="Layer_1" xmlns="http://www.w3.org/2000/svg" xmlns:xlink="http://www.w3.org/1999/xlink" x="0px" y="0px"
	 viewBox="0 0 160 80" enable-background="new 0 0 160 80" xml:space="preserve">
<g>
	<polygon fill="#999999" points="154.1,67 160,64 128,48 160,32 154,29 116.1,48 	"/>
	<polygon fill="#999999" points="64,80 96,64 128,80 133.9,77 95.9,58 58,77 	"/>
</g>
<polygon fill="#656565" points="58,77 95.9,58 133.9,77 154.1,67 116.1,48 154,29 102,3 5.9,51 "/>
<g>
	<polygon fill="#999999" points="154.1,67 160,64 128,48 160,32 154,29 116.1,48 	"/>
	<polygon fill="#999999" points="64,80 96,64 128,80 133.9,77 95.9,58 58,77 	"/>
</g>
<polygon fill="#656565" points="58,77 95.9,58 133.9,77 154.1,67 116.1,48 154,29 102,3 5.9,51 "/>
<polygon fill="#999999" points="6,51 102,3 96,0 0,48 "/>
<polygon fill="#999999" points="6,51 102,3 96,0 0,48 "/>
<polygon opacity="0.15" points="7.1,51.5 103,3.5 102,3 6,51 "/>
<g>
	<g>
		<polygon fill="#E5E5E5" points="79.5,39.8 71.5,43.8 72.6,44.3 80.6,40.3 		"/>
		<polygon fill="#E5E5E5" points="120.6,20.3 128.6,16.3 127.5,15.7 119.5,19.7 		"/>
		<polygon fill="#E5E5E5" points="88.6,36.3 96.6,32.3 95.5,31.7 87.5,35.7 		"/>
		<polygon fill="#E5E5E5" points="104.6,28.3 112.6,24.3 111.5,23.7 103.5,27.7 		"/>
	</g>
	<g>
		<polygon fill="#E5E5E5" points="47.5,55.8 39.5,59.8 40.6,60.3 48.6,56.3 		"/>
		<polygon fill="#E5E5E5" points="56.6,52.3 64.6,48.3 63.5,47.7 55.5,51.7 		"/>
	</g>
</g>
<g>
	<polygon opacity="0.15" points="58,77 95.9,58 133.9,77 135.1,76.5 96,57 57,76.5 	"/>
	<polygon opacity="0.15" points="152.9,67.5 154.1,67 116.1,48 154,29 152.9,28.5 114,48 	"/>
</g>
</svg>
