<?xml version="1.0" encoding="utf-8"?>
<!-- Generator: Adobe Illustrator 18.1.0, SVG Export Plug-In . SVG Version: 6.00 Build 0)  -->
<svg version="1.1" id="Layer_1" xmlns="http://www.w3.org/2000/svg" xmlns:xlink="http://www.w3.org/1999/xlink" x="0px" y="0px"
	 viewBox="0 0 64 32" enable-background="new 0 0 64 32" xml:space="preserve">
<g>
	<g>
		<path fill="#999999" d="M58.1,13l-4.1,2.1c-0.7,0.4-0.7,1.4,0,1.8l4.1,2.1l5.9-3L58.1,13z"/>
		<path fill="#999999" d="M13.7,15.1L37.9,3L32,0L0,16l32,16l5.9-3L13.7,16.9C12.9,16.5,12.9,15.5,13.7,15.1z"/>
	</g>
	<path fill="#656565" d="M58.1,13L37.9,3L13.7,15.1c-0.7,0.4-0.7,1.4,0,1.8L37.9,29L58.1,19l-4.1-2.1c-0.7-0.4-0.7-1.4,0-1.8
		L58.1,13z"/>
	<g>
		<path fill="#999999" d="M58.1,13l-4.1,2.1c-0.7,0.4-0.7,1.4,0,1.8l4.1,2.1l5.9-3L58.1,13z"/>
		<path fill="#999999" d="M13.7,15.1L37.9,3L32,0L0,16l32,16l5.9-3L13.7,16.9C12.9,16.5,12.9,15.5,13.7,15.1z"/>
	</g>
	<path fill="#656565" d="M58.1,13L37.9,3L13.7,15.1c-0.7,0.4-0.7,1.4,0,1.8L37.9,29L58.1,19l-4.1-2.1c-0.7-0.4-0.7-1.4,0-1.8
		L58.1,13z"/>
	<path opacity="0.15" d="M58.1,13l-1.1-0.6l-5.3,2.6c-0.7,0.4-0.7,1.4,0,1.8l5.3,2.6l1.1-0.6l-4.1-2.1c-0.7-0.4-0.7-1.4,0-1.8
		L58.1,13z"/>
	<path opacity="0.15" d="M15.9,16.9c-0.7-0.4-0.7-1.4,0-1.8L39.1,3.5L37.9,3L13.7,15.1c-0.7,0.4-0.7,1.4,0,1.8L37.9,29l1.1-0.6
		L15.9,16.9z"/>
</g>
</svg>
