<?xml version="1.0" encoding="utf-8"?>
<!-- Generator: Adobe Illustrator 18.1.0, SVG Export Plug-In . SVG Version: 6.00 Build 0)  -->
<svg version="1.1" id="Layer_1" xmlns="http://www.w3.org/2000/svg" xmlns:xlink="http://www.w3.org/1999/xlink" x="0px" y="0px"
	 viewBox="0 0 64 32" enable-background="new 0 0 64 32" xml:space="preserve">
<g>
	<g>
		<polygon fill="#999999" points="32,0 64,16 58.1,19 26.1,3 		"/>
		<polygon fill="#999999" points="5.9,13 37.9,29 32,32 0,16 		"/>
	</g>
	<polygon fill="#656565" points="58.1,19 37.9,29 5.9,13 26.1,3 	"/>
	<g>
		<polygon fill="#999999" points="32,0 64,16 58.1,19 26.1,3 		"/>
		<polygon fill="#999999" points="5.9,13 37.9,29 32,32 0,16 		"/>
	</g>
	<polygon fill="#656565" points="58.1,19 37.9,29 5.9,13 26.1,3 	"/>
	<polygon opacity="0.15" enable-background="new    " points="26.1,3 58.1,19 56.9,19.5 24.9,3.5 	"/>
	<polygon opacity="0.15" enable-background="new    " points="7.1,12.5 39.1,28.5 37.9,29 5.9,13 	"/>
</g>
</svg>
