<?xml version="1.0" encoding="utf-8"?>
<!-- Generator: Adobe Illustrator 18.1.0, SVG Export Plug-In . SVG Version: 6.00 Build 0)  -->
<svg version="1.1" id="Layer_1" xmlns="http://www.w3.org/2000/svg" xmlns:xlink="http://www.w3.org/1999/xlink" x="0px" y="0px"
	 viewBox="0 0 256 128" enable-background="new 0 0 256 128" xml:space="preserve">
<polygon fill="#999999" points="198,125 192,128 0,32 6,29 "/>
<polygon fill="#999999" points="198,125 192,128 0,32 6,29 "/>
<path fill="#999999" d="M256,96l-6,3l-67.9-34c-0.8-0.4-0.8-1.6,0-2L250,29l6,3l-64,32L256,96z"/>
<path fill="#999999" d="M130.1,36.9c-1.3,0.7-2.8,0.7-4.2,0L58,3l6-3l64,32l64-32l6,3L130.1,36.9z"/>
<path fill="#999999" d="M256,96l-6,3l-67.9-34c-0.8-0.4-0.8-1.6,0-2L250,29l6,3l-64,32L256,96z"/>
<path fill="#999999" d="M130.1,36.9c-1.3,0.7-2.8,0.7-4.2,0L58,3l6-3l64,32l64-32l6,3L130.1,36.9z"/>
<path fill="#656565" d="M182.1,63c-0.8,0.4-0.8,1.6,0,2l67.9,34L198,125L6,29L58,3l67.9,33.9c1.3,0.7,2.8,0.7,4.2,0L198,3l52,26
	L182.1,63z"/>
<path fill="#656565" d="M182.1,63c-0.8,0.4-0.8,1.6,0,2l67.9,34L198,125L6,29L58,3l67.9,33.9c1.3,0.7,2.8,0.7,4.2,0L198,3l52,26
	L182.1,63z"/>
<path opacity="0.15" d="M58,3l67.9,33.9c1.3,0.7,2.8,0.7,4.2,0L198,3l1,0.5L130.1,38c-1.3,0.7-2.8,0.7-4.2,0L57,3.5L58,3z"/>
<path opacity="0.15" d="M182.1,63c-0.8,0.4-0.8,1.6,0,2L250,99l-1.1,0.5L179.9,65c-0.8-0.4-0.8-1.6,0-2l69.1-34.5L250,29L182.1,63z"
	/>
<g>
	<polygon fill="#E5E5E5" points="175.5,39.7 167.5,43.7 168.6,44.3 176.6,40.3 	"/>
	<polygon fill="#E5E5E5" points="216.6,20.3 224.6,16.3 223.4,15.7 215.4,19.7 	"/>
	<polygon fill="#E5E5E5" points="184.6,36.3 192.6,32.3 191.5,31.7 183.5,35.7 	"/>
	<polygon fill="#E5E5E5" points="200.6,28.3 208.6,24.3 207.5,23.7 199.5,27.7 	"/>
</g>
<polygon opacity="0.15" points="199,124.5 198,125 6,29 7.1,28.5 "/>
<g>
	<polygon fill="#E5E5E5" points="208.5,103.7 216.5,107.7 215.4,108.3 207.4,104.3 	"/>
	<polygon fill="#E5E5E5" points="167.4,84.3 159.4,80.3 160.6,79.7 168.6,83.7 	"/>
	<polygon fill="#E5E5E5" points="199.4,100.3 191.4,96.3 192.5,95.7 200.5,99.7 	"/>
	<polygon fill="#E5E5E5" points="183.4,92.3 175.4,88.3 176.5,87.7 184.5,91.7 	"/>
</g>
<g>
	<polygon fill="#E5E5E5" points="80.5,39.7 88.5,43.7 87.4,44.3 79.4,40.3 	"/>
	<polygon fill="#E5E5E5" points="39.4,20.3 31.4,16.3 32.6,15.7 40.6,19.7 	"/>
	<polygon fill="#E5E5E5" points="71.4,36.3 63.4,32.3 64.5,31.7 72.5,35.7 	"/>
	<polygon fill="#E5E5E5" points="55.4,28.3 47.4,24.3 48.5,23.7 56.5,27.7 	"/>
</g>
<g>
	<polygon fill="#E5E5E5" points="144.5,71.7 152.5,75.7 151.4,76.3 143.4,72.3 	"/>
	<polygon fill="#E5E5E5" points="103.4,52.3 95.4,48.3 96.6,47.7 104.6,51.7 	"/>
	<polygon fill="#E5E5E5" points="135.4,68.3 127.4,64.3 128.5,63.7 136.5,67.7 	"/>
	<polygon fill="#E5E5E5" points="119.4,60.3 111.4,56.3 112.5,55.7 120.5,59.7 	"/>
</g>
</svg>
