<?xml version="1.0" encoding="utf-8"?>
<!-- Generator: Adobe Illustrator 18.1.0, SVG Export Plug-In . SVG Version: 6.00 Build 0)  -->
<svg version="1.1" id="Layer_1" xmlns="http://www.w3.org/2000/svg" xmlns:xlink="http://www.w3.org/1999/xlink" x="0px" y="0px"
	 viewBox="0 0 160 80" enable-background="new 0 0 160 80" xml:space="preserve">
<g>
	<polygon fill="#999999" points="5.9,13 0,16 32,32 0,48 6,51 43.9,32 	"/>
	<polygon fill="#999999" points="96,0 64,16 32,0 26.1,3 64.1,22 102,3 	"/>
</g>
<polygon fill="#656565" points="102,3 64.1,22 26.1,3 5.9,13 43.9,32 6,51 58,77 154.1,29 "/>
<g>
	<polygon fill="#999999" points="5.9,13 0,16 32,32 0,48 6,51 43.9,32 	"/>
	<polygon fill="#999999" points="96,0 64,16 32,0 26.1,3 64.1,22 102,3 	"/>
</g>
<polygon fill="#656565" points="102,3 64.1,22 26.1,3 5.9,13 43.9,32 6,51 58,77 154.1,29 "/>
<polygon fill="#999999" points="154,29 58,77 64,80 160,32 "/>
<polygon fill="#999999" points="154,29 58,77 64,80 160,32 "/>
<polygon opacity="0.15" points="152.9,28.5 57,76.5 58,77 154,29 "/>
<g>
	<polygon fill="#E5E5E5" points="88.5,36.3 96.5,32.3 95.4,31.7 87.4,35.7 	"/>
	<polygon fill="#E5E5E5" points="47.4,55.7 39.4,59.7 40.6,60.3 48.6,56.3 	"/>
	<polygon fill="#E5E5E5" points="79.4,39.7 71.4,43.7 72.5,44.3 80.5,40.3 	"/>
	<polygon fill="#E5E5E5" points="63.4,47.7 55.4,51.7 56.5,52.3 64.5,48.3 	"/>
</g>
<g>
	<polygon fill="#E5E5E5" points="120.5,20.3 128.5,16.3 127.4,15.7 119.4,19.7 	"/>
	<polygon fill="#E5E5E5" points="111.4,23.7 103.4,27.7 104.5,28.3 112.5,24.3 	"/>
</g>
<g>
	<polygon opacity="0.15" points="102,3 64.1,22 26.1,3 24.9,3.5 64,23 103,3.5 	"/>
	<polygon opacity="0.15" points="7.1,12.5 5.9,13 43.9,32 6,51 7.1,51.5 46,32 	"/>
</g>
</svg>
