<?xml version="1.0" encoding="utf-8"?>
<!-- Generator: Adobe Illustrator 18.1.0, SVG Export Plug-In . SVG Version: 6.00 Build 0)  -->
<svg version="1.1" id="Layer_1" xmlns="http://www.w3.org/2000/svg" xmlns:xlink="http://www.w3.org/1999/xlink" x="0px" y="0px"
	 viewBox="0 0 64 40" enable-background="new 0 0 64 40" xml:space="preserve">
<g>
	<g>
		<polygon fill="#825012" points="32,6 0,22 0,24 32,40 64,24 64,22 		"/>
		<polygon opacity="0.11" points="0,22 32,38 32,40 0,24 		"/>
		<polygon opacity="0.29" points="64,22 64,24 32,40 32,38 		"/>
	</g>
	<polygon opacity="0.29" points="32,12 32,8 4,22 8,24 	"/>
	<polygon opacity="0.11" points="32,12 56,24 60,22 32,8 	"/>
	<polygon fill="#FFCC00" points="5,22.5 32,36 59,22.5 32,9 	"/>
	<g>
		<path fill="#CC291F" d="M22.5,19c-1,0-1.8,0.4-1.8,0.9L20,23.7c0,0.7,1.1,1.3,2.5,1.3s2.5-0.6,2.5-1.3l-0.8-3.8
			C24.3,19.4,23.5,19,22.5,19z"/>
		<path opacity="0.2" d="M22.5,20.7c-1,0-1.8-0.4-1.8-0.9L20,23.7c0,0.7,1.1,1.3,2.5,1.3s2.5-0.6,2.5-1.3l-0.8-3.8
			C24.3,20.4,23.5,20.7,22.5,20.7z"/>
	</g>
	<g>
		<path fill="#FF9900" d="M34,23.9c0,0.6-0.6,1.2-1.4,1.2c-0.8,0-1.4-0.5-1.4-1.2"/>
		<path opacity="0.2" d="M34,23.9c0,0.6-0.6,1.2-1.4,1.2c-0.8,0-1.4-0.5-1.4-1.2"/>
		<path opacity="0.11" d="M32.6,24.9c-0.4,0-0.8-0.1-1.1-0.3C31.7,24.9,32.1,25,32.6,24.9c0.5,0.1,0.9-0.1,1.1-0.3
			C33.4,24.8,33,24.9,32.6,24.9z"/>
		<ellipse fill="#FF9900" cx="32.6" cy="23.8" rx="1.4" ry="0.7"/>
		<ellipse opacity="0.5" fill="#202426" cx="32.6" cy="23.8" rx="1.1" ry="0.4"/>
		<polygon fill="#FF9900" points="31.6,24.3 31.4,24.1 28,25.3 28,25.5 29,26 31.6,24.6 		"/>
		<polygon opacity="0.29" points="29,25.8 29,26 31.6,24.6 31.6,24.3 		"/>
		<polygon opacity="0.11" points="29,25.8 29,26 28,25.5 28,25.3 		"/>
	</g>
	<path opacity="0.2" d="M46.6,21.9c0,0.6-1.2,1.1-2.8,1.1c-1.5,0-2.8-0.5-2.8-1.1c0-0.6,1.2-3.9,2.8-3.9
		C45.3,18,46.6,21.3,46.6,21.9z"/>
	<path opacity="0.2" d="M38.4,20.3c0,0.4-0.7,0.7-1.7,0.7s-1.7-0.3-1.7-0.7c0-0.4,0.7-2.3,1.7-2.3S38.4,20,38.4,20.3z"/>
</g>
</svg>
