<?xml version="1.0" encoding="utf-8"?>
<!-- Generator: Adobe Illustrator 18.1.0, SVG Export Plug-In . SVG Version: 6.00 Build 0)  -->
<svg version="1.1" id="Layer_1" xmlns="http://www.w3.org/2000/svg" xmlns:xlink="http://www.w3.org/1999/xlink" x="0px" y="0px"
	 viewBox="0 0 96 104" enable-background="new 0 0 96 104" xml:space="preserve">
<g>
	<polygon fill="#2D3134" points="48,48 96,24 48,0 0,24 	"/>
	<g>
		<polygon fill="#762C07" points="0,80 48,104 48,48 0,24 		"/>
		<g opacity="0.5">
			<polygon fill="#BAA794" points="4,79 1,77.5 1,79.5 4,81 			"/>
			<polygon fill="#BAA794" points="8,81 5,79.5 5,81.5 8,83 			"/>
			<polygon fill="#BAA794" points="12,83 9,81.5 9,83.5 12,85 			"/>
			<polygon fill="#BAA794" points="16,85 13,83.5 13,85.5 16,87 			"/>
			<polygon fill="#BAA794" points="20,87 17,85.5 17,87.5 20,89 			"/>
			<polygon fill="#BAA794" points="24,89 21,87.5 21,89.5 24,91 			"/>
			<polygon fill="#BAA794" points="28,91 25,89.5 25,91.5 28,93 			"/>
			<polygon fill="#BAA794" points="32,93 29,91.5 29,93.5 32,95 			"/>
			<polygon fill="#BAA794" points="36,95 33,93.5 33,95.5 36,97 			"/>
			<polygon fill="#BAA794" points="40,97 37,95.5 37,97.5 40,99 			"/>
			<polygon fill="#BAA794" points="44,99 41,97.5 41,99.5 44,101 			"/>
			<polygon fill="#BAA794" points="48,101 45,99.5 45,101.5 48,103 			"/>
			<polygon fill="#BAA794" points="2,75 0,74 0,76 2,77 			"/>
			<polygon fill="#BAA794" points="6,77 3,75.5 3,77.5 6,79 			"/>
			<polygon fill="#BAA794" points="10,79 7,77.5 7,79.5 10,81 			"/>
			<polygon fill="#BAA794" points="14,81 11,79.5 11,81.5 14,83 			"/>
			<polygon fill="#BAA794" points="18,83 15,81.5 15,83.5 18,85 			"/>
			<polygon fill="#BAA794" points="22,85 19,83.5 19,85.5 22,87 			"/>
			<polygon fill="#BAA794" points="26,87 23,85.5 23,87.5 26,89 			"/>
			<polygon fill="#BAA794" points="30,89 27,87.5 27,89.5 30,91 			"/>
			<polygon fill="#BAA794" points="34,91 31,89.5 31,91.5 34,93 			"/>
			<polygon fill="#BAA794" points="38,93 35,91.5 35,93.5 38,95 			"/>
			<polygon fill="#BAA794" points="42,95 39,93.5 39,95.5 42,97 			"/>
			<polygon fill="#BAA794" points="46,97 43,95.5 43,97.5 46,99 			"/>
			<polygon fill="#BAA794" points="48,98 47,97.5 47,99.5 48,100 			"/>
			<polygon fill="#BAA794" points="4,73 1,71.5 1,73.5 4,75 			"/>
			<polygon fill="#BAA794" points="8,75 5,73.5 5,75.5 8,77 			"/>
			<polygon fill="#BAA794" points="12,77 9,75.5 9,77.5 12,79 			"/>
			<polygon fill="#BAA794" points="16,79 13,77.5 13,79.5 16,81 			"/>
			<polygon fill="#BAA794" points="20,81 17,79.5 17,81.5 20,83 			"/>
			<polygon fill="#BAA794" points="24,83 21,81.5 21,83.5 24,85 			"/>
			<polygon fill="#BAA794" points="28,85 25,83.5 25,85.5 28,87 			"/>
			<polygon fill="#BAA794" points="32,87 29,85.5 29,87.5 32,89 			"/>
			<polygon fill="#BAA794" points="36,89 33,87.5 33,89.5 36,91 			"/>
			<polygon fill="#BAA794" points="40,91 37,89.5 37,91.5 40,93 			"/>
			<polygon fill="#BAA794" points="44,93 41,91.5 41,93.5 44,95 			"/>
			<polygon fill="#BAA794" points="48,95 45,93.5 45,95.5 48,97 			"/>
			<polygon fill="#BAA794" points="2,69 0,68 0,70 2,71 			"/>
			<polygon fill="#BAA794" points="6,71 3,69.5 3,71.5 6,73 			"/>
			<polygon fill="#BAA794" points="10,73 7,71.5 7,73.5 10,75 			"/>
			<polygon fill="#BAA794" points="14,75 11,73.5 11,75.5 14,77 			"/>
			<polygon fill="#BAA794" points="18,77 15,75.5 15,77.5 18,79 			"/>
			<polygon fill="#BAA794" points="22,79 19,77.5 19,79.5 22,81 			"/>
			<polygon fill="#BAA794" points="26,81 23,79.5 23,81.5 26,83 			"/>
			<polygon fill="#BAA794" points="30,83 27,81.5 27,83.5 30,85 			"/>
			<polygon fill="#BAA794" points="34,85 31,83.5 31,85.5 34,87 			"/>
			<polygon fill="#BAA794" points="38,87 35,85.5 35,87.5 38,89 			"/>
			<polygon fill="#BAA794" points="42,89 39,87.5 39,89.5 42,91 			"/>
			<polygon fill="#BAA794" points="46,91 43,89.5 43,91.5 46,93 			"/>
			<polygon fill="#BAA794" points="48,92 47,91.5 47,93.5 48,94 			"/>
			<polygon fill="#BAA794" points="4,67 1,65.5 1,67.5 4,69 			"/>
			<polygon fill="#BAA794" points="8,69 5,67.5 5,69.5 8,71 			"/>
			<polygon fill="#BAA794" points="12,71 9,69.5 9,71.5 12,73 			"/>
			<polygon fill="#BAA794" points="16,73 13,71.5 13,73.5 16,75 			"/>
			<polygon fill="#BAA794" points="20,75 17,73.5 17,75.5 20,77 			"/>
			<polygon fill="#BAA794" points="24,77 21,75.5 21,77.5 24,79 			"/>
			<polygon fill="#BAA794" points="28,79 25,77.5 25,79.5 28,81 			"/>
			<polygon fill="#BAA794" points="32,81 29,79.5 29,81.5 32,83 			"/>
			<polygon fill="#BAA794" points="36,83 33,81.5 33,83.5 36,85 			"/>
			<polygon fill="#BAA794" points="40,85 37,83.5 37,85.5 40,87 			"/>
			<polygon fill="#BAA794" points="44,87 41,85.5 41,87.5 44,89 			"/>
			<polygon fill="#BAA794" points="48,89 45,87.5 45,89.5 48,91 			"/>
			<polygon fill="#BAA794" points="2,63 0,62 0,64 2,65 			"/>
			<polygon fill="#BAA794" points="6,65 3,63.5 3,65.5 6,67 			"/>
			<polygon fill="#BAA794" points="10,67 7,65.5 7,67.5 10,69 			"/>
			<polygon fill="#BAA794" points="14,69 11,67.5 11,69.5 14,71 			"/>
			<polygon fill="#BAA794" points="18,71 15,69.5 15,71.5 18,73 			"/>
			<polygon fill="#BAA794" points="22,73 19,71.5 19,73.5 22,75 			"/>
			<polygon fill="#BAA794" points="26,75 23,73.5 23,75.5 26,77 			"/>
			<polygon fill="#BAA794" points="30,77 27,75.5 27,77.5 30,79 			"/>
			<polygon fill="#BAA794" points="34,79 31,77.5 31,79.5 34,81 			"/>
			<polygon fill="#BAA794" points="38,81 35,79.5 35,81.5 38,83 			"/>
			<polygon fill="#BAA794" points="42,83 39,81.5 39,83.5 42,85 			"/>
			<polygon fill="#BAA794" points="46,85 43,83.5 43,85.5 46,87 			"/>
			<polygon fill="#BAA794" points="48,86 47,85.5 47,87.5 48,88 			"/>
			<polygon fill="#BAA794" points="4,61 1,59.5 1,61.5 4,63 			"/>
			<polygon fill="#BAA794" points="8,63 5,61.5 5,63.5 8,65 			"/>
			<polygon fill="#BAA794" points="12,65 9,63.5 9,65.5 12,67 			"/>
			<polygon fill="#BAA794" points="16,67 13,65.5 13,67.5 16,69 			"/>
			<polygon fill="#BAA794" points="20,69 17,67.5 17,69.5 20,71 			"/>
			<polygon fill="#BAA794" points="24,71 21,69.5 21,71.5 24,73 			"/>
			<polygon fill="#BAA794" points="28,73 25,71.5 25,73.5 28,75 			"/>
			<polygon fill="#BAA794" points="32,75 29,73.5 29,75.5 32,77 			"/>
			<polygon fill="#BAA794" points="36,77 33,75.5 33,77.5 36,79 			"/>
			<polygon fill="#BAA794" points="40,79 37,77.5 37,79.5 40,81 			"/>
			<polygon fill="#BAA794" points="44,81 41,79.5 41,81.5 44,83 			"/>
			<polygon fill="#BAA794" points="48,83 45,81.5 45,83.5 48,85 			"/>
			<polygon fill="#BAA794" points="2,57 0,56 0,58 2,59 			"/>
			<polygon fill="#BAA794" points="6,59 3,57.5 3,59.5 6,61 			"/>
			<polygon fill="#BAA794" points="10,61 7,59.5 7,61.5 10,63 			"/>
			<polygon fill="#BAA794" points="14,63 11,61.5 11,63.5 14,65 			"/>
			<polygon fill="#BAA794" points="18,65 15,63.5 15,65.5 18,67 			"/>
			<polygon fill="#BAA794" points="22,67 19,65.5 19,67.5 22,69 			"/>
			<polygon fill="#BAA794" points="26,69 23,67.5 23,69.5 26,71 			"/>
			<polygon fill="#BAA794" points="30,71 27,69.5 27,71.5 30,73 			"/>
			<polygon fill="#BAA794" points="34,73 31,71.5 31,73.5 34,75 			"/>
			<polygon fill="#BAA794" points="38,75 35,73.5 35,75.5 38,77 			"/>
			<polygon fill="#BAA794" points="42,77 39,75.5 39,77.5 42,79 			"/>
			<polygon fill="#BAA794" points="46,79 43,77.5 43,79.5 46,81 			"/>
			<polygon fill="#BAA794" points="48,80 47,79.5 47,81.5 48,82 			"/>
			<polygon fill="#BAA794" points="4,55 1,53.5 1,55.5 4,57 			"/>
			<polygon fill="#BAA794" points="8,57 5,55.5 5,57.5 8,59 			"/>
			<polygon fill="#BAA794" points="12,59 9,57.5 9,59.5 12,61 			"/>
			<polygon fill="#BAA794" points="16,61 13,59.5 13,61.5 16,63 			"/>
			<polygon fill="#BAA794" points="20,63 17,61.5 17,63.5 20,65 			"/>
			<polygon fill="#BAA794" points="24,65 21,63.5 21,65.5 24,67 			"/>
			<polygon fill="#BAA794" points="28,67 25,65.5 25,67.5 28,69 			"/>
			<polygon fill="#BAA794" points="32,69 29,67.5 29,69.5 32,71 			"/>
			<polygon fill="#BAA794" points="36,71 33,69.5 33,71.5 36,73 			"/>
			<polygon fill="#BAA794" points="40,73 37,71.5 37,73.5 40,75 			"/>
			<polygon fill="#BAA794" points="44,75 41,73.5 41,75.5 44,77 			"/>
			<polygon fill="#BAA794" points="48,77 45,75.5 45,77.5 48,79 			"/>
			<polygon fill="#BAA794" points="2,51 0,50 0,52 2,53 			"/>
			<polygon fill="#BAA794" points="6,53 3,51.5 3,53.5 6,55 			"/>
			<polygon fill="#BAA794" points="10,55 7,53.5 7,55.5 10,57 			"/>
			<polygon fill="#BAA794" points="14,57 11,55.5 11,57.5 14,59 			"/>
			<polygon fill="#BAA794" points="18,59 15,57.5 15,59.5 18,61 			"/>
			<polygon fill="#BAA794" points="22,61 19,59.5 19,61.5 22,63 			"/>
			<polygon fill="#BAA794" points="26,63 23,61.5 23,63.5 26,65 			"/>
			<polygon fill="#BAA794" points="30,65 27,63.5 27,65.5 30,67 			"/>
			<polygon fill="#BAA794" points="34,67 31,65.5 31,67.5 34,69 			"/>
			<polygon fill="#BAA794" points="38,69 35,67.5 35,69.5 38,71 			"/>
			<polygon fill="#BAA794" points="42,71 39,69.5 39,71.5 42,73 			"/>
			<polygon fill="#BAA794" points="46,73 43,71.5 43,73.5 46,75 			"/>
			<polygon fill="#BAA794" points="48,74 47,73.5 47,75.5 48,76 			"/>
			<polygon fill="#BAA794" points="4,49 1,47.5 1,49.5 4,51 			"/>
			<polygon fill="#BAA794" points="8,51 5,49.5 5,51.5 8,53 			"/>
			<polygon fill="#BAA794" points="12,53 9,51.5 9,53.5 12,55 			"/>
			<polygon fill="#BAA794" points="16,55 13,53.5 13,55.5 16,57 			"/>
			<polygon fill="#BAA794" points="20,57 17,55.5 17,57.5 20,59 			"/>
			<polygon fill="#BAA794" points="24,59 21,57.5 21,59.5 24,61 			"/>
			<polygon fill="#BAA794" points="28,61 25,59.5 25,61.5 28,63 			"/>
			<polygon fill="#BAA794" points="32,63 29,61.5 29,63.5 32,65 			"/>
			<polygon fill="#BAA794" points="36,65 33,63.5 33,65.5 36,67 			"/>
			<polygon fill="#BAA794" points="40,67 37,65.5 37,67.5 40,69 			"/>
			<polygon fill="#BAA794" points="44,69 41,67.5 41,69.5 44,71 			"/>
			<polygon fill="#BAA794" points="48,71 45,69.5 45,71.5 48,73 			"/>
			<polygon fill="#BAA794" points="2,45 0,44 0,46 2,47 			"/>
			<polygon fill="#BAA794" points="6,47 3,45.5 3,47.5 6,49 			"/>
			<polygon fill="#BAA794" points="10,49 7,47.5 7,49.5 10,51 			"/>
			<polygon fill="#BAA794" points="14,51 11,49.5 11,51.5 14,53 			"/>
			<polygon fill="#BAA794" points="18,53 15,51.5 15,53.5 18,55 			"/>
			<polygon fill="#BAA794" points="22,55 19,53.5 19,55.5 22,57 			"/>
			<polygon fill="#BAA794" points="26,57 23,55.5 23,57.5 26,59 			"/>
			<polygon fill="#BAA794" points="30,59 27,57.5 27,59.5 30,61 			"/>
			<polygon fill="#BAA794" points="34,61 31,59.5 31,61.5 34,63 			"/>
			<polygon fill="#BAA794" points="38,63 35,61.5 35,63.5 38,65 			"/>
			<polygon fill="#BAA794" points="42,65 39,63.5 39,65.5 42,67 			"/>
			<polygon fill="#BAA794" points="46,67 43,65.5 43,67.5 46,69 			"/>
			<polygon fill="#BAA794" points="48,68 47,67.5 47,69.5 48,70 			"/>
			<polygon fill="#BAA794" points="4,43 1,41.5 1,43.5 4,45 			"/>
			<polygon fill="#BAA794" points="8,45 5,43.5 5,45.5 8,47 			"/>
			<polygon fill="#BAA794" points="12,47 9,45.5 9,47.5 12,49 			"/>
			<polygon fill="#BAA794" points="16,49 13,47.5 13,49.5 16,51 			"/>
			<polygon fill="#BAA794" points="20,51 17,49.5 17,51.5 20,53 			"/>
			<polygon fill="#BAA794" points="24,53 21,51.5 21,53.5 24,55 			"/>
			<polygon fill="#BAA794" points="28,55 25,53.5 25,55.5 28,57 			"/>
			<polygon fill="#BAA794" points="32,57 29,55.5 29,57.5 32,59 			"/>
			<polygon fill="#BAA794" points="36,59 33,57.5 33,59.5 36,61 			"/>
			<polygon fill="#BAA794" points="40,61 37,59.5 37,61.5 40,63 			"/>
			<polygon fill="#BAA794" points="44,63 41,61.5 41,63.5 44,65 			"/>
			<polygon fill="#BAA794" points="48,65 45,63.5 45,65.5 48,67 			"/>
			<polygon fill="#BAA794" points="2,39 0,38 0,40 2,41 			"/>
			<polygon fill="#BAA794" points="6,41 3,39.5 3,41.5 6,43 			"/>
			<polygon fill="#BAA794" points="10,43 7,41.5 7,43.5 10,45 			"/>
			<polygon fill="#BAA794" points="14,45 11,43.5 11,45.5 14,47 			"/>
			<polygon fill="#BAA794" points="18,47 15,45.5 15,47.5 18,49 			"/>
			<polygon fill="#BAA794" points="22,49 19,47.5 19,49.5 22,51 			"/>
			<polygon fill="#BAA794" points="26,51 23,49.5 23,51.5 26,53 			"/>
			<polygon fill="#BAA794" points="30,53 27,51.5 27,53.5 30,55 			"/>
			<polygon fill="#BAA794" points="34,55 31,53.5 31,55.5 34,57 			"/>
			<polygon fill="#BAA794" points="38,57 35,55.5 35,57.5 38,59 			"/>
			<polygon fill="#BAA794" points="42,59 39,57.5 39,59.5 42,61 			"/>
			<polygon fill="#BAA794" points="46,61 43,59.5 43,61.5 46,63 			"/>
			<polygon fill="#BAA794" points="48,62 47,61.5 47,63.5 48,64 			"/>
			<polygon fill="#BAA794" points="4,37 1,35.5 1,37.5 4,39 			"/>
			<polygon fill="#BAA794" points="8,39 5,37.5 5,39.5 8,41 			"/>
			<polygon fill="#BAA794" points="12,41 9,39.5 9,41.5 12,43 			"/>
			<polygon fill="#BAA794" points="16,43 13,41.5 13,43.5 16,45 			"/>
			<polygon fill="#BAA794" points="20,45 17,43.5 17,45.5 20,47 			"/>
			<polygon fill="#BAA794" points="24,47 21,45.5 21,47.5 24,49 			"/>
			<polygon fill="#BAA794" points="28,49 25,47.5 25,49.5 28,51 			"/>
			<polygon fill="#BAA794" points="32,51 29,49.5 29,51.5 32,53 			"/>
			<polygon fill="#BAA794" points="36,53 33,51.5 33,53.5 36,55 			"/>
			<polygon fill="#BAA794" points="40,55 37,53.5 37,55.5 40,57 			"/>
			<polygon fill="#BAA794" points="44,57 41,55.5 41,57.5 44,59 			"/>
			<polygon fill="#BAA794" points="48,59 45,57.5 45,59.5 48,61 			"/>
			<polygon fill="#BAA794" points="2,33 0,32 0,34 2,35 			"/>
			<polygon fill="#BAA794" points="6,35 3,33.5 3,35.5 6,37 			"/>
			<polygon fill="#BAA794" points="10,37 7,35.5 7,37.5 10,39 			"/>
			<polygon fill="#BAA794" points="14,39 11,37.5 11,39.5 14,41 			"/>
			<polygon fill="#BAA794" points="18,41 15,39.5 15,41.5 18,43 			"/>
			<polygon fill="#BAA794" points="22,43 19,41.5 19,43.5 22,45 			"/>
			<polygon fill="#BAA794" points="26,45 23,43.5 23,45.5 26,47 			"/>
			<polygon fill="#BAA794" points="30,47 27,45.5 27,47.5 30,49 			"/>
			<polygon fill="#BAA794" points="34,49 31,47.5 31,49.5 34,51 			"/>
			<polygon fill="#BAA794" points="38,51 35,49.5 35,51.5 38,53 			"/>
			<polygon fill="#BAA794" points="42,53 39,51.5 39,53.5 42,55 			"/>
			<polygon fill="#BAA794" points="46,55 43,53.5 43,55.5 46,57 			"/>
			<polygon fill="#BAA794" points="48,56 47,55.5 47,57.5 48,58 			"/>
			<polygon fill="#BAA794" points="4,31 1,29.5 1,31.5 4,33 			"/>
			<polygon fill="#BAA794" points="8,33 5,31.5 5,33.5 8,35 			"/>
			<polygon fill="#BAA794" points="12,35 9,33.5 9,35.5 12,37 			"/>
			<polygon fill="#BAA794" points="16,37 13,35.5 13,37.5 16,39 			"/>
			<polygon fill="#BAA794" points="20,39 17,37.5 17,39.5 20,41 			"/>
			<polygon fill="#BAA794" points="24,41 21,39.5 21,41.5 24,43 			"/>
			<polygon fill="#BAA794" points="28,43 25,41.5 25,43.5 28,45 			"/>
			<polygon fill="#BAA794" points="32,45 29,43.5 29,45.5 32,47 			"/>
			<polygon fill="#BAA794" points="36,47 33,45.5 33,47.5 36,49 			"/>
			<polygon fill="#BAA794" points="40,49 37,47.5 37,49.5 40,51 			"/>
			<polygon fill="#BAA794" points="44,51 41,49.5 41,51.5 44,53 			"/>
			<polygon fill="#BAA794" points="48,53 45,51.5 45,53.5 48,55 			"/>
			<polygon fill="#BAA794" points="2,27 0,26 0,28 2,29 			"/>
			<polygon fill="#BAA794" points="6,29 3,27.5 3,29.5 6,31 			"/>
			<polygon fill="#BAA794" points="10,31 7,29.5 7,31.5 10,33 			"/>
			<polygon fill="#BAA794" points="14,33 11,31.5 11,33.5 14,35 			"/>
			<polygon fill="#BAA794" points="18,35 15,33.5 15,35.5 18,37 			"/>
			<polygon fill="#BAA794" points="22,37 19,35.5 19,37.5 22,39 			"/>
			<polygon fill="#BAA794" points="26,39 23,37.5 23,39.5 26,41 			"/>
			<polygon fill="#BAA794" points="30,41 27,39.5 27,41.5 30,43 			"/>
			<polygon fill="#BAA794" points="34,43 31,41.5 31,43.5 34,45 			"/>
			<polygon fill="#BAA794" points="38,45 35,43.5 35,45.5 38,47 			"/>
			<polygon fill="#BAA794" points="42,47 39,45.5 39,47.5 42,49 			"/>
			<polygon fill="#BAA794" points="46,49 43,47.5 43,49.5 46,51 			"/>
			<polygon fill="#BAA794" points="48,50 47,49.5 47,51.5 48,52 			"/>
		</g>
		<g>
			<path fill="#BAA794" d="M38.5,63.3l0.9,0.5C42,65,44,68,44,70.5V80l-10-5v-9.5C34,63,36,62,38.5,63.3z"/>
			<path fill="#3399CC" d="M39,64.5L39,64.5c2.2,1.1,4,3.8,4,6v8l-8-4v-8C35,64.3,36.8,63.4,39,64.5z"/>
			<polygon opacity="0.2" fill="#FFFFFF" points="43,78.5 35,74.5 35,70.5 			"/>
			<path opacity="0.15" d="M39,64.5c-2.2-1.1-4-0.2-4,2v1c0-2.2,1.8-3.1,4-2s4,3.8,4,6v-1C43,68.3,41.2,65.6,39,64.5z"/>
			<polygon fill="#BAA794" points="41,77.5 40,77 40,65 41,65.5 			"/>
			<polygon fill="#BAA794" points="38,76 37,75.5 37,63.5 38,64 			"/>
			<polygon fill="#BAA794" points="43,71.5 35,67.5 35,66.5 43,70.5 			"/>
		</g>
		<g>
			<path fill="#BAA794" d="M38.5,81.3l0.9,0.5C42,83,44,86,44,88.5V98l-10-5v-9.5C34,81,36,80,38.5,81.3z"/>
			<path fill="#3399CC" d="M39,82.5L39,82.5c2.2,1.1,4,3.8,4,6v8l-8-4v-8C35,82.3,36.8,81.4,39,82.5z"/>
			<polygon opacity="0.2" fill="#FFFFFF" points="43,96.5 35,92.5 35,84.5 			"/>
			<path opacity="0.15" d="M39,82.5c-2.2-1.1-4-0.2-4,2v1c0-2.2,1.8-3.1,4-2s4,3.8,4,6v-1C43,86.3,41.2,83.6,39,82.5z"/>
			<polygon fill="#BAA794" points="41,95.5 40,95 40,83 41,83.5 			"/>
			<polygon fill="#BAA794" points="38,94 37,93.5 37,81.5 38,82 			"/>
			<polygon fill="#BAA794" points="43,89.5 35,85.5 35,84.5 43,88.5 			"/>
		</g>
		<g>
			<path fill="#BAA794" d="M8.5,48.3l0.9,0.5C12,50,14,53,14,55.5V65L4,60v-9.5C4,48,6,47,8.5,48.3z"/>
			<path fill="#3399CC" d="M9,49.5L9,49.5c2.2,1.1,4,3.8,4,6v8l-8-4v-8C5,49.3,6.8,48.4,9,49.5z"/>
			<polygon opacity="0.2" fill="#FFFFFF" points="13,63.5 5,59.5 5,51.5 			"/>
			<path opacity="0.15" d="M9,49.5c-2.2-1.1-4-0.2-4,2v1c0-2.2,1.8-3.1,4-2c2.2,1.1,4,3.8,4,6v-1C13,53.3,11.2,50.6,9,49.5z"/>
			<polygon fill="#BAA794" points="11,62.5 10,62 10,50 11,50.5 			"/>
			<polygon fill="#BAA794" points="8,61 7,60.5 7,48.5 8,49 			"/>
			<polygon fill="#BAA794" points="13,56.5 5,52.5 5,51.5 13,55.5 			"/>
		</g>
		<g>
			<path fill="#BAA794" d="M23.5,55.8l0.9,0.5C27,57.5,29,60.5,29,63v9.5l-10-5V58C19,55.5,21,54.5,23.5,55.8z"/>
			<path fill="#3399CC" d="M24,57L24,57c2.2,1.1,4,3.8,4,6v8l-8-4v-8C20,56.8,21.8,55.9,24,57z"/>
			<path opacity="0.15" d="M24,57c-2.2-1.1-4-0.2-4,2v1c0-2.2,1.8-3.1,4-2s4,3.8,4,6v-1C28,60.8,26.2,58.1,24,57z"/>
			<polygon fill="#BAA794" points="26,70 25,69.5 25,57.5 26,58 			"/>
			<polygon fill="#BAA794" points="23,68.5 22,68 22,56 23,56.5 			"/>
			<polygon fill="#BAA794" points="28,64 20,60 20,59 28,63 			"/>
		</g>
		<g>
			<path fill="#BAA794" d="M8.5,66.3l0.9,0.5C12,68,14,71,14,73.5V83L4,78v-9.5C4,66,6,65,8.5,66.3z"/>
			<path fill="#3399CC" d="M9,67.5L9,67.5c2.2,1.1,4,3.8,4,6v8l-8-4v-8C5,67.3,6.8,66.4,9,67.5z"/>
			<path opacity="0.15" d="M9,67.5c-2.2-1.1-4-0.2-4,2v1c0-2.2,1.8-3.1,4-2s4,3.8,4,6v-1C13,71.3,11.2,68.6,9,67.5z"/>
			<polygon fill="#BAA794" points="11,80.5 10,80 10,68 11,68.5 			"/>
			<polygon fill="#BAA794" points="8,79 7,78.5 7,66.5 8,67 			"/>
			<polygon fill="#BAA794" points="13,74.5 5,70.5 5,69.5 13,73.5 			"/>
		</g>
		<g>
			<path fill="#BAA794" d="M23.5,73.8l0.9,0.5C27,75.5,29,78.5,29,81v9.5l-10-5V76C19,73.5,21,72.5,23.5,73.8z"/>
			<path fill="#3399CC" d="M24,75L24,75c2.2,1.1,4,3.8,4,6v8l-8-4v-8C20,74.8,21.8,73.9,24,75z"/>
			<path opacity="0.15" d="M24,75c-2.2-1.1-4-0.2-4,2v1c0-2.2,1.8-3.1,4-2s4,3.8,4,6v-1C28,78.8,26.2,76.1,24,75z"/>
			<polygon fill="#BAA794" points="26,88 25,87.5 25,75.5 26,76 			"/>
			<polygon fill="#BAA794" points="23,86.5 22,86 22,74 23,74.5 			"/>
			<polygon fill="#BAA794" points="28,82 20,78 20,77 28,81 			"/>
		</g>
		<g>
			<path fill="#BAA794" d="M38.5,48.3l0.9,0.5C42,50,44,53,44,55.5V62l-10-5v-6.5C34,48,36,47,38.5,48.3z"/>
			<path fill="#3399CC" d="M39,49.5L39,49.5c2.2,1.1,4,3.8,4,6v5l-8-4v-5C35,49.3,36.8,48.4,39,49.5z"/>
			<path opacity="0.15" d="M39,49.5c-2.2-1.1-4-0.2-4,2v1c0-2.2,1.8-3.1,4-2s4,3.8,4,6v-1C43,53.3,41.2,50.6,39,49.5z"/>
			<polygon fill="#BAA794" points="41,59.5 40,59 40,50 41,50.5 			"/>
			<polygon fill="#BAA794" points="38,58 37,57.5 37,48.5 38,49 			"/>
			<polygon fill="#BAA794" points="43,56.5 35,52.5 35,51.5 43,55.5 			"/>
		</g>
		<g>
			<path fill="#BAA794" d="M23.5,40.8l0.9,0.5C27,42.5,29,45.5,29,48v6.5l-10-5V43C19,40.5,21,39.5,23.5,40.8z"/>
			<path fill="#3399CC" d="M24,42L24,42c2.2,1.1,4,3.8,4,6v5l-8-4v-5C20,41.8,21.8,40.9,24,42z"/>
			<polygon opacity="0.2" fill="#FFFFFF" points="28,53 20,49 20,46 			"/>
			<path opacity="0.15" d="M24,42c-2.2-1.1-4-0.2-4,2v1c0-2.2,1.8-3.1,4-2s4,3.8,4,6v-1C28,45.8,26.2,43.1,24,42z"/>
			<polygon fill="#BAA794" points="26,52 25,51.5 25,42.5 26,43 			"/>
			<polygon fill="#BAA794" points="23,50.5 22,50 22,41 23,41.5 			"/>
			<polygon fill="#BAA794" points="28,49 20,45 20,44 28,48 			"/>
		</g>
		<g>
			<path fill="#BAA794" d="M8.5,33.3l0.9,0.5C12,35,14,38,14,40.5V47L4,42v-6.5C4,33,6,32,8.5,33.3z"/>
			<path fill="#3399CC" d="M9,34.5L9,34.5c2.2,1.1,4,3.8,4,6v5l-8-4v-5C5,34.3,6.8,33.4,9,34.5z"/>
			<path opacity="0.15" d="M9,34.5c-2.2-1.1-4-0.2-4,2v1c0-2.2,1.8-3.1,4-2c2.2,1.1,4,3.8,4,6v-1C13,38.3,11.2,35.6,9,34.5z"/>
			<polygon fill="#BAA794" points="11,44.5 10,44 10,35 11,35.5 			"/>
			<polygon fill="#BAA794" points="8,43 7,42.5 7,33.5 8,34 			"/>
			<polygon fill="#BAA794" points="13,41.5 5,37.5 5,36.5 13,40.5 			"/>
		</g>
		<polygon fill="#F8EBCB" points="14,83 4,78 4,77 14,82 		"/>
		<polygon fill="#F8EBCB" points="29,90.5 19,85.5 19,84.5 29,89.5 		"/>
		<polygon fill="#F8EBCB" points="44,98 34,93 34,92 44,97 		"/>
		<polygon fill="#F8EBCB" points="14,65 4,60 4,59 14,64 		"/>
		<polygon fill="#F8EBCB" points="29,72.5 19,67.5 19,66.5 29,71.5 		"/>
		<polygon fill="#F8EBCB" points="44,80 34,75 34,74 44,79 		"/>
		<polygon fill="#F8EBCB" points="14,47 4,42 4,41 14,46 		"/>
		<polygon fill="#F8EBCB" points="29,54.5 19,49.5 19,48.5 29,53.5 		"/>
		<polygon fill="#F8EBCB" points="44,62 34,57 34,56 44,61 		"/>
		<polygon opacity="0.06" points="0,80 48,104 48,48 0,24 		"/>
	</g>
	<g>
		<polygon fill="#762C07" points="48,104 96,80 96,24 48,48 		"/>
		<g opacity="0.5">
			<polygon fill="#BAA794" points="52,99 49,100.5 49,102.5 52,101 			"/>
			<polygon fill="#BAA794" points="56,97 53,98.5 53,100.5 56,99 			"/>
			<polygon fill="#BAA794" points="60,95 57,96.5 57,98.5 60,97 			"/>
			<polygon fill="#BAA794" points="64,93 61,94.5 61,96.5 64,95 			"/>
			<polygon fill="#BAA794" points="68,91 65,92.5 65,94.5 68,93 			"/>
			<polygon fill="#BAA794" points="72,89 69,90.5 69,92.5 72,91 			"/>
			<polygon fill="#BAA794" points="76,87 73,88.5 73,90.5 76,89 			"/>
			<polygon fill="#BAA794" points="80,85 77,86.5 77,88.5 80,87 			"/>
			<polygon fill="#BAA794" points="84,83 81,84.5 81,86.5 84,85 			"/>
			<polygon fill="#BAA794" points="88,81 85,82.5 85,84.5 88,83 			"/>
			<polygon fill="#BAA794" points="92,79 89,80.5 89,82.5 92,81 			"/>
			<polygon fill="#BAA794" points="96,77 93,78.5 93,80.5 96,79 			"/>
			<polygon fill="#BAA794" points="50,97 48,98 48,100 50,99 			"/>
			<polygon fill="#BAA794" points="54,95 51,96.5 51,98.5 54,97 			"/>
			<polygon fill="#BAA794" points="58,93 55,94.5 55,96.5 58,95 			"/>
			<polygon fill="#BAA794" points="62,91 59,92.5 59,94.5 62,93 			"/>
			<polygon fill="#BAA794" points="66,89 63,90.5 63,92.5 66,91 			"/>
			<polygon fill="#BAA794" points="70,87 67,88.5 67,90.5 70,89 			"/>
			<polygon fill="#BAA794" points="74,85 71,86.5 71,88.5 74,87 			"/>
			<polygon fill="#BAA794" points="78,83 75,84.5 75,86.5 78,85 			"/>
			<polygon fill="#BAA794" points="82,81 79,82.5 79,84.5 82,83 			"/>
			<polygon fill="#BAA794" points="86,79 83,80.5 83,82.5 86,81 			"/>
			<polygon fill="#BAA794" points="90,77 87,78.5 87,80.5 90,79 			"/>
			<polygon fill="#BAA794" points="94,75 91,76.5 91,78.5 94,77 			"/>
			<polygon fill="#BAA794" points="96,74 95,74.5 95,76.5 96,76 			"/>
			<polygon fill="#BAA794" points="52,93 49,94.5 49,96.5 52,95 			"/>
			<polygon fill="#BAA794" points="56,91 53,92.5 53,94.5 56,93 			"/>
			<polygon fill="#BAA794" points="60,89 57,90.5 57,92.5 60,91 			"/>
			<polygon fill="#BAA794" points="64,87 61,88.5 61,90.5 64,89 			"/>
			<polygon fill="#BAA794" points="68,85 65,86.5 65,88.5 68,87 			"/>
			<polygon fill="#BAA794" points="72,83 69,84.5 69,86.5 72,85 			"/>
			<polygon fill="#BAA794" points="76,81 73,82.5 73,84.5 76,83 			"/>
			<polygon fill="#BAA794" points="80,79 77,80.5 77,82.5 80,81 			"/>
			<polygon fill="#BAA794" points="84,77 81,78.5 81,80.5 84,79 			"/>
			<polygon fill="#BAA794" points="88,75 85,76.5 85,78.5 88,77 			"/>
			<polygon fill="#BAA794" points="92,73 89,74.5 89,76.5 92,75 			"/>
			<polygon fill="#BAA794" points="96,71 93,72.5 93,74.5 96,73 			"/>
			<polygon fill="#BAA794" points="50,91 48,92 48,94 50,93 			"/>
			<polygon fill="#BAA794" points="54,89 51,90.5 51,92.5 54,91 			"/>
			<polygon fill="#BAA794" points="58,87 55,88.5 55,90.5 58,89 			"/>
			<polygon fill="#BAA794" points="62,85 59,86.5 59,88.5 62,87 			"/>
			<polygon fill="#BAA794" points="66,83 63,84.5 63,86.5 66,85 			"/>
			<polygon fill="#BAA794" points="70,81 67,82.5 67,84.5 70,83 			"/>
			<polygon fill="#BAA794" points="74,79 71,80.5 71,82.5 74,81 			"/>
			<polygon fill="#BAA794" points="78,77 75,78.5 75,80.5 78,79 			"/>
			<polygon fill="#BAA794" points="82,75 79,76.5 79,78.5 82,77 			"/>
			<polygon fill="#BAA794" points="86,73 83,74.5 83,76.5 86,75 			"/>
			<polygon fill="#BAA794" points="90,71 87,72.5 87,74.5 90,73 			"/>
			<polygon fill="#BAA794" points="94,69 91,70.5 91,72.5 94,71 			"/>
			<polygon fill="#BAA794" points="96,68 95,68.5 95,70.5 96,70 			"/>
			<polygon fill="#BAA794" points="52,87 49,88.5 49,90.5 52,89 			"/>
			<polygon fill="#BAA794" points="56,85 53,86.5 53,88.5 56,87 			"/>
			<polygon fill="#BAA794" points="60,83 57,84.5 57,86.5 60,85 			"/>
			<polygon fill="#BAA794" points="64,81 61,82.5 61,84.5 64,83 			"/>
			<polygon fill="#BAA794" points="68,79 65,80.5 65,82.5 68,81 			"/>
			<polygon fill="#BAA794" points="72,77 69,78.5 69,80.5 72,79 			"/>
			<polygon fill="#BAA794" points="76,75 73,76.5 73,78.5 76,77 			"/>
			<polygon fill="#BAA794" points="80,73 77,74.5 77,76.5 80,75 			"/>
			<polygon fill="#BAA794" points="84,71 81,72.5 81,74.5 84,73 			"/>
			<polygon fill="#BAA794" points="88,69 85,70.5 85,72.5 88,71 			"/>
			<polygon fill="#BAA794" points="92,67 89,68.5 89,70.5 92,69 			"/>
			<polygon fill="#BAA794" points="96,65 93,66.5 93,68.5 96,67 			"/>
			<polygon fill="#BAA794" points="50,85 48,86 48,88 50,87 			"/>
			<polygon fill="#BAA794" points="54,83 51,84.5 51,86.5 54,85 			"/>
			<polygon fill="#BAA794" points="58,81 55,82.5 55,84.5 58,83 			"/>
			<polygon fill="#BAA794" points="62,79 59,80.5 59,82.5 62,81 			"/>
			<polygon fill="#BAA794" points="66,77 63,78.5 63,80.5 66,79 			"/>
			<polygon fill="#BAA794" points="70,75 67,76.5 67,78.5 70,77 			"/>
			<polygon fill="#BAA794" points="74,73 71,74.5 71,76.5 74,75 			"/>
			<polygon fill="#BAA794" points="78,71 75,72.5 75,74.5 78,73 			"/>
			<polygon fill="#BAA794" points="82,69 79,70.5 79,72.5 82,71 			"/>
			<polygon fill="#BAA794" points="86,67 83,68.5 83,70.5 86,69 			"/>
			<polygon fill="#BAA794" points="90,65 87,66.5 87,68.5 90,67 			"/>
			<polygon fill="#BAA794" points="94,63 91,64.5 91,66.5 94,65 			"/>
			<polygon fill="#BAA794" points="96,62 95,62.5 95,64.5 96,64 			"/>
			<polygon fill="#BAA794" points="52,81 49,82.5 49,84.5 52,83 			"/>
			<polygon fill="#BAA794" points="56,79 53,80.5 53,82.5 56,81 			"/>
			<polygon fill="#BAA794" points="60,77 57,78.5 57,80.5 60,79 			"/>
			<polygon fill="#BAA794" points="64,75 61,76.5 61,78.5 64,77 			"/>
			<polygon fill="#BAA794" points="68,73 65,74.5 65,76.5 68,75 			"/>
			<polygon fill="#BAA794" points="72,71 69,72.5 69,74.5 72,73 			"/>
			<polygon fill="#BAA794" points="76,69 73,70.5 73,72.5 76,71 			"/>
			<polygon fill="#BAA794" points="80,67 77,68.5 77,70.5 80,69 			"/>
			<polygon fill="#BAA794" points="84,65 81,66.5 81,68.5 84,67 			"/>
			<polygon fill="#BAA794" points="88,63 85,64.5 85,66.5 88,65 			"/>
			<polygon fill="#BAA794" points="92,61 89,62.5 89,64.5 92,63 			"/>
			<polygon fill="#BAA794" points="96,59 93,60.5 93,62.5 96,61 			"/>
			<polygon fill="#BAA794" points="50,79 48,80 48,82 50,81 			"/>
			<polygon fill="#BAA794" points="54,77 51,78.5 51,80.5 54,79 			"/>
			<polygon fill="#BAA794" points="58,75 55,76.5 55,78.5 58,77 			"/>
			<polygon fill="#BAA794" points="62,73 59,74.5 59,76.5 62,75 			"/>
			<polygon fill="#BAA794" points="66,71 63,72.5 63,74.5 66,73 			"/>
			<polygon fill="#BAA794" points="70,69 67,70.5 67,72.5 70,71 			"/>
			<polygon fill="#BAA794" points="74,67 71,68.5 71,70.5 74,69 			"/>
			<polygon fill="#BAA794" points="78,65 75,66.5 75,68.5 78,67 			"/>
			<polygon fill="#BAA794" points="82,63 79,64.5 79,66.5 82,65 			"/>
			<polygon fill="#BAA794" points="86,61 83,62.5 83,64.5 86,63 			"/>
			<polygon fill="#BAA794" points="90,59 87,60.5 87,62.5 90,61 			"/>
			<polygon fill="#BAA794" points="94,57 91,58.5 91,60.5 94,59 			"/>
			<polygon fill="#BAA794" points="96,56 95,56.5 95,58.5 96,58 			"/>
			<polygon fill="#BAA794" points="52,75 49,76.5 49,78.5 52,77 			"/>
			<polygon fill="#BAA794" points="56,73 53,74.5 53,76.5 56,75 			"/>
			<polygon fill="#BAA794" points="60,71 57,72.5 57,74.5 60,73 			"/>
			<polygon fill="#BAA794" points="64,69 61,70.5 61,72.5 64,71 			"/>
			<polygon fill="#BAA794" points="68,67 65,68.5 65,70.5 68,69 			"/>
			<polygon fill="#BAA794" points="72,65 69,66.5 69,68.5 72,67 			"/>
			<polygon fill="#BAA794" points="76,63 73,64.5 73,66.5 76,65 			"/>
			<polygon fill="#BAA794" points="80,61 77,62.5 77,64.5 80,63 			"/>
			<polygon fill="#BAA794" points="84,59 81,60.5 81,62.5 84,61 			"/>
			<polygon fill="#BAA794" points="88,57 85,58.5 85,60.5 88,59 			"/>
			<polygon fill="#BAA794" points="92,55 89,56.5 89,58.5 92,57 			"/>
			<polygon fill="#BAA794" points="96,53 93,54.5 93,56.5 96,55 			"/>
			<polygon fill="#BAA794" points="50,73 48,74 48,76 50,75 			"/>
			<polygon fill="#BAA794" points="54,71 51,72.5 51,74.5 54,73 			"/>
			<polygon fill="#BAA794" points="58,69 55,70.5 55,72.5 58,71 			"/>
			<polygon fill="#BAA794" points="62,67 59,68.5 59,70.5 62,69 			"/>
			<polygon fill="#BAA794" points="66,65 63,66.5 63,68.5 66,67 			"/>
			<polygon fill="#BAA794" points="70,63 67,64.5 67,66.5 70,65 			"/>
			<polygon fill="#BAA794" points="74,61 71,62.5 71,64.5 74,63 			"/>
			<polygon fill="#BAA794" points="78,59 75,60.5 75,62.5 78,61 			"/>
			<polygon fill="#BAA794" points="82,57 79,58.5 79,60.5 82,59 			"/>
			<polygon fill="#BAA794" points="86,55 83,56.5 83,58.5 86,57 			"/>
			<polygon fill="#BAA794" points="90,53 87,54.5 87,56.5 90,55 			"/>
			<polygon fill="#BAA794" points="94,51 91,52.5 91,54.5 94,53 			"/>
			<polygon fill="#BAA794" points="96,50 95,50.5 95,52.5 96,52 			"/>
			<polygon fill="#BAA794" points="52,69 49,70.5 49,72.5 52,71 			"/>
			<polygon fill="#BAA794" points="56,67 53,68.5 53,70.5 56,69 			"/>
			<polygon fill="#BAA794" points="60,65 57,66.5 57,68.5 60,67 			"/>
			<polygon fill="#BAA794" points="64,63 61,64.5 61,66.5 64,65 			"/>
			<polygon fill="#BAA794" points="68,61 65,62.5 65,64.5 68,63 			"/>
			<polygon fill="#BAA794" points="72,59 69,60.5 69,62.5 72,61 			"/>
			<polygon fill="#BAA794" points="76,57 73,58.5 73,60.5 76,59 			"/>
			<polygon fill="#BAA794" points="80,55 77,56.5 77,58.5 80,57 			"/>
			<polygon fill="#BAA794" points="84,53 81,54.5 81,56.5 84,55 			"/>
			<polygon fill="#BAA794" points="88,51 85,52.5 85,54.5 88,53 			"/>
			<polygon fill="#BAA794" points="92,49 89,50.5 89,52.5 92,51 			"/>
			<polygon fill="#BAA794" points="96,47 93,48.5 93,50.5 96,49 			"/>
			<polygon fill="#BAA794" points="50,67 48,68 48,70 50,69 			"/>
			<polygon fill="#BAA794" points="54,65 51,66.5 51,68.5 54,67 			"/>
			<polygon fill="#BAA794" points="58,63 55,64.5 55,66.5 58,65 			"/>
			<polygon fill="#BAA794" points="62,61 59,62.5 59,64.5 62,63 			"/>
			<polygon fill="#BAA794" points="66,59 63,60.5 63,62.5 66,61 			"/>
			<polygon fill="#BAA794" points="70,57 67,58.5 67,60.5 70,59 			"/>
			<polygon fill="#BAA794" points="74,55 71,56.5 71,58.5 74,57 			"/>
			<polygon fill="#BAA794" points="78,53 75,54.5 75,56.5 78,55 			"/>
			<polygon fill="#BAA794" points="82,51 79,52.5 79,54.5 82,53 			"/>
			<polygon fill="#BAA794" points="86,49 83,50.5 83,52.5 86,51 			"/>
			<polygon fill="#BAA794" points="90,47 87,48.5 87,50.5 90,49 			"/>
			<polygon fill="#BAA794" points="94,45 91,46.5 91,48.5 94,47 			"/>
			<polygon fill="#BAA794" points="96,44 95,44.5 95,46.5 96,46 			"/>
			<polygon fill="#BAA794" points="52,63 49,64.5 49,66.5 52,65 			"/>
			<polygon fill="#BAA794" points="56,61 53,62.5 53,64.5 56,63 			"/>
			<polygon fill="#BAA794" points="60,59 57,60.5 57,62.5 60,61 			"/>
			<polygon fill="#BAA794" points="64,57 61,58.5 61,60.5 64,59 			"/>
			<polygon fill="#BAA794" points="68,55 65,56.5 65,58.5 68,57 			"/>
			<polygon fill="#BAA794" points="72,53 69,54.5 69,56.5 72,55 			"/>
			<polygon fill="#BAA794" points="76,51 73,52.5 73,54.5 76,53 			"/>
			<polygon fill="#BAA794" points="80,49 77,50.5 77,52.5 80,51 			"/>
			<polygon fill="#BAA794" points="84,47 81,48.5 81,50.5 84,49 			"/>
			<polygon fill="#BAA794" points="88,45 85,46.5 85,48.5 88,47 			"/>
			<polygon fill="#BAA794" points="92,43 89,44.5 89,46.5 92,45 			"/>
			<polygon fill="#BAA794" points="96,41 93,42.5 93,44.5 96,43 			"/>
			<polygon fill="#BAA794" points="50,61 48,62 48,64 50,63 			"/>
			<polygon fill="#BAA794" points="54,59 51,60.5 51,62.5 54,61 			"/>
			<polygon fill="#BAA794" points="58,57 55,58.5 55,60.5 58,59 			"/>
			<polygon fill="#BAA794" points="62,55 59,56.5 59,58.5 62,57 			"/>
			<polygon fill="#BAA794" points="66,53 63,54.5 63,56.5 66,55 			"/>
			<polygon fill="#BAA794" points="70,51 67,52.5 67,54.5 70,53 			"/>
			<polygon fill="#BAA794" points="74,49 71,50.5 71,52.5 74,51 			"/>
			<polygon fill="#BAA794" points="78,47 75,48.5 75,50.5 78,49 			"/>
			<polygon fill="#BAA794" points="82,45 79,46.5 79,48.5 82,47 			"/>
			<polygon fill="#BAA794" points="86,43 83,44.5 83,46.5 86,45 			"/>
			<polygon fill="#BAA794" points="90,41 87,42.5 87,44.5 90,43 			"/>
			<polygon fill="#BAA794" points="94,39 91,40.5 91,42.5 94,41 			"/>
			<polygon fill="#BAA794" points="96,38 95,38.5 95,40.5 96,40 			"/>
			<polygon fill="#BAA794" points="52,57 49,58.5 49,60.5 52,59 			"/>
			<polygon fill="#BAA794" points="56,55 53,56.5 53,58.5 56,57 			"/>
			<polygon fill="#BAA794" points="60,53 57,54.5 57,56.5 60,55 			"/>
			<polygon fill="#BAA794" points="64,51 61,52.5 61,54.5 64,53 			"/>
			<polygon fill="#BAA794" points="68,49 65,50.5 65,52.5 68,51 			"/>
			<polygon fill="#BAA794" points="72,47 69,48.5 69,50.5 72,49 			"/>
			<polygon fill="#BAA794" points="76,45 73,46.5 73,48.5 76,47 			"/>
			<polygon fill="#BAA794" points="80,43 77,44.5 77,46.5 80,45 			"/>
			<polygon fill="#BAA794" points="84,41 81,42.5 81,44.5 84,43 			"/>
			<polygon fill="#BAA794" points="88,39 85,40.5 85,42.5 88,41 			"/>
			<polygon fill="#BAA794" points="92,37 89,38.5 89,40.5 92,39 			"/>
			<polygon fill="#BAA794" points="96,35 93,36.5 93,38.5 96,37 			"/>
			<polygon fill="#BAA794" points="50,55 48,56 48,58 50,57 			"/>
			<polygon fill="#BAA794" points="54,53 51,54.5 51,56.5 54,55 			"/>
			<polygon fill="#BAA794" points="58,51 55,52.5 55,54.5 58,53 			"/>
			<polygon fill="#BAA794" points="62,49 59,50.5 59,52.5 62,51 			"/>
			<polygon fill="#BAA794" points="66,47 63,48.5 63,50.5 66,49 			"/>
			<polygon fill="#BAA794" points="70,45 67,46.5 67,48.5 70,47 			"/>
			<polygon fill="#BAA794" points="74,43 71,44.5 71,46.5 74,45 			"/>
			<polygon fill="#BAA794" points="78,41 75,42.5 75,44.5 78,43 			"/>
			<polygon fill="#BAA794" points="82,39 79,40.5 79,42.5 82,41 			"/>
			<polygon fill="#BAA794" points="86,37 83,38.5 83,40.5 86,39 			"/>
			<polygon fill="#BAA794" points="90,35 87,36.5 87,38.5 90,37 			"/>
			<polygon fill="#BAA794" points="94,33 91,34.5 91,36.5 94,35 			"/>
			<polygon fill="#BAA794" points="96,32 95,32.5 95,34.5 96,34 			"/>
			<polygon fill="#BAA794" points="52,51 49,52.5 49,54.5 52,53 			"/>
			<polygon fill="#BAA794" points="56,49 53,50.5 53,52.5 56,51 			"/>
			<polygon fill="#BAA794" points="60,47 57,48.5 57,50.5 60,49 			"/>
			<polygon fill="#BAA794" points="64,45 61,46.5 61,48.5 64,47 			"/>
			<polygon fill="#BAA794" points="68,43 65,44.5 65,46.5 68,45 			"/>
			<polygon fill="#BAA794" points="72,41 69,42.5 69,44.5 72,43 			"/>
			<polygon fill="#BAA794" points="76,39 73,40.5 73,42.5 76,41 			"/>
			<polygon fill="#BAA794" points="80,37 77,38.5 77,40.5 80,39 			"/>
			<polygon fill="#BAA794" points="84,35 81,36.5 81,38.5 84,37 			"/>
			<polygon fill="#BAA794" points="88,33 85,34.5 85,36.5 88,35 			"/>
			<polygon fill="#BAA794" points="92,31 89,32.5 89,34.5 92,33 			"/>
			<polygon fill="#BAA794" points="96,29 93,30.5 93,32.5 96,31 			"/>
			<polygon fill="#BAA794" points="50,49 48,50 48,52 50,51 			"/>
			<polygon fill="#BAA794" points="54,47 51,48.5 51,50.5 54,49 			"/>
			<polygon fill="#BAA794" points="58,45 55,46.5 55,48.5 58,47 			"/>
			<polygon fill="#BAA794" points="62,43 59,44.5 59,46.5 62,45 			"/>
			<polygon fill="#BAA794" points="66,41 63,42.5 63,44.5 66,43 			"/>
			<polygon fill="#BAA794" points="70,39 67,40.5 67,42.5 70,41 			"/>
			<polygon fill="#BAA794" points="74,37 71,38.5 71,40.5 74,39 			"/>
			<polygon fill="#BAA794" points="78,35 75,36.5 75,38.5 78,37 			"/>
			<polygon fill="#BAA794" points="82,33 79,34.5 79,36.5 82,35 			"/>
			<polygon fill="#BAA794" points="86,31 83,32.5 83,34.5 86,33 			"/>
			<polygon fill="#BAA794" points="90,29 87,30.5 87,32.5 90,31 			"/>
			<polygon fill="#BAA794" points="94,27 91,28.5 91,30.5 94,29 			"/>
			<polygon fill="#BAA794" points="96,26 95,26.5 95,28.5 96,28 			"/>
		</g>
		<g>
			<path fill="#BAA794" d="M86.5,48.7l0.9-0.5C90,47,92,48,92,50.5V60l-10,5v-9.5C82,53,84,50,86.5,48.7z"/>
			<path fill="#3399CC" d="M87,49.5L87,49.5c2.2-1.1,4-0.2,4,2v8l-8,4v-8C83,53.3,84.8,50.6,87,49.5z"/>
			<polygon opacity="0.2" fill="#FFFFFF" points="91,59.5 83,63.5 83,59.5 			"/>
			<path opacity="0.15" d="M87,49.5c-2.2,1.1-4,3.8-4,6v1c0-2.2,1.8-4.9,4-6c2.2-1.1,4-0.2,4,2v-1C91,49.3,89.2,48.4,87,49.5z"/>
			<polygon fill="#BAA794" points="89,60.5 88,61 88,49 89,48.5 			"/>
			<polygon fill="#BAA794" points="86,62 85,62.5 85,50.5 86,50 			"/>
			<polygon fill="#BAA794" points="91,52.5 83,56.5 83,55.5 91,51.5 			"/>
		</g>
		<g>
			<path fill="#BAA794" d="M86.5,66.7l0.9-0.5C90,65,92,66,92,68.5V78l-10,5v-9.5C82,71,84,68,86.5,66.7z"/>
			<path fill="#3399CC" d="M87,67.5L87,67.5c2.2-1.1,4-0.2,4,2v8l-8,4v-8C83,71.3,84.8,68.6,87,67.5z"/>
			<polygon opacity="0.2" fill="#FFFFFF" points="91,77.5 83,81.5 83,73.5 			"/>
			<path opacity="0.15" d="M87,67.5c-2.2,1.1-4,3.8-4,6v1c0-2.2,1.8-4.9,4-6s4-0.2,4,2v-1C91,67.3,89.2,66.4,87,67.5z"/>
			<polygon fill="#BAA794" points="89,78.5 88,79 88,67 89,66.5 			"/>
			<polygon fill="#BAA794" points="86,80 85,80.5 85,68.5 86,68 			"/>
			<polygon fill="#BAA794" points="91,70.5 83,74.5 83,73.5 91,69.5 			"/>
		</g>
		<g>
			<path fill="#BAA794" d="M56.5,63.7l0.9-0.5C60,62,62,63,62,65.5V75l-10,5v-9.5C52,68,54,65,56.5,63.7z"/>
			<path fill="#3399CC" d="M57,64.5L57,64.5c2.2-1.1,4-0.2,4,2v8l-8,4v-8C53,68.3,54.8,65.6,57,64.5z"/>
			<polygon opacity="0.2" fill="#FFFFFF" points="61,74.5 53,78.5 53,70.5 			"/>
			<path opacity="0.15" d="M57,64.5c-2.2,1.1-4,3.8-4,6v1c0-2.2,1.8-4.9,4-6s4-0.2,4,2v-1C61,64.3,59.2,63.4,57,64.5z"/>
			<polygon fill="#BAA794" points="59,75.5 58,76 58,64 59,63.5 			"/>
			<polygon fill="#BAA794" points="56,77 55,77.5 55,65.5 56,65 			"/>
			<polygon fill="#BAA794" points="61,67.5 53,71.5 53,70.5 61,66.5 			"/>
		</g>
		<g>
			<path fill="#BAA794" d="M71.5,56.2l0.9-0.5C75,54.5,77,55.5,77,58v9.5l-10,5V63C67,60.5,69,57.5,71.5,56.2z"/>
			<path fill="#3399CC" d="M72,57L72,57c2.2-1.1,4-0.2,4,2v8l-8,4v-8C68,60.8,69.8,58.1,72,57z"/>
			<path opacity="0.15" d="M72,57c-2.2,1.1-4,3.8-4,6v1c0-2.2,1.8-4.9,4-6s4-0.2,4,2v-1C76,56.8,74.2,55.9,72,57z"/>
			<polygon fill="#BAA794" points="74,68 73,68.5 73,56.5 74,56 			"/>
			<polygon fill="#BAA794" points="71,69.5 70,70 70,58 71,57.5 			"/>
			<polygon fill="#BAA794" points="76,60 68,64 68,63 76,59 			"/>
		</g>
		<g>
			<path fill="#BAA794" d="M56.5,81.7l0.9-0.5C60,80,62,81,62,83.5V93l-10,5v-9.5C52,86,54,83,56.5,81.7z"/>
			<path fill="#3399CC" d="M57,82.5L57,82.5c2.2-1.1,4-0.2,4,2v8l-8,4v-8C53,86.3,54.8,83.6,57,82.5z"/>
			<path opacity="0.15" d="M57,82.5c-2.2,1.1-4,3.8-4,6v1c0-2.2,1.8-4.9,4-6s4-0.2,4,2v-1C61,82.3,59.2,81.4,57,82.5z"/>
			<polygon fill="#BAA794" points="59,93.5 58,94 58,82 59,81.5 			"/>
			<polygon fill="#BAA794" points="56,95 55,95.5 55,83.5 56,83 			"/>
			<polygon fill="#BAA794" points="61,85.5 53,89.5 53,88.5 61,84.5 			"/>
		</g>
		<g>
			<path fill="#BAA794" d="M71.5,74.2l0.9-0.5C75,72.5,77,73.5,77,76v9.5l-10,5V81C67,78.5,69,75.5,71.5,74.2z"/>
			<path fill="#3399CC" d="M72,75L72,75c2.2-1.1,4-0.2,4,2v8l-8,4v-8C68,78.8,69.8,76.1,72,75z"/>
			<path opacity="0.15" d="M72,75c-2.2,1.1-4,3.8-4,6v1c0-2.2,1.8-4.9,4-6s4-0.2,4,2v-1C76,74.8,74.2,73.9,72,75z"/>
			<polygon fill="#BAA794" points="74,86 73,86.5 73,74.5 74,74 			"/>
			<polygon fill="#BAA794" points="71,87.5 70,88 70,76 71,75.5 			"/>
			<polygon fill="#BAA794" points="76,78 68,82 68,81 76,77 			"/>
		</g>
		<g>
			<path fill="#BAA794" d="M86.5,33.7l0.9-0.5C90,32,92,33,92,35.5V42l-10,5v-6.5C82,38,84,35,86.5,33.7z"/>
			<path fill="#3399CC" d="M87,34.5L87,34.5c2.2-1.1,4-0.2,4,2v5l-8,4v-5C83,38.3,84.8,35.6,87,34.5z"/>
			<path opacity="0.15" d="M87,34.5c-2.2,1.1-4,3.8-4,6v1c0-2.2,1.8-4.9,4-6c2.2-1.1,4-0.2,4,2v-1C91,34.3,89.2,33.4,87,34.5z"/>
			<polygon fill="#BAA794" points="89,42.5 88,43 88,34 89,33.5 			"/>
			<polygon fill="#BAA794" points="86,44 85,44.5 85,35.5 86,35 			"/>
			<polygon fill="#BAA794" points="91,37.5 83,41.5 83,40.5 91,36.5 			"/>
		</g>
		<g>
			<path fill="#BAA794" d="M71.5,41.2l0.9-0.5C75,39.5,77,40.5,77,43v6.5l-10,5V48C67,45.5,69,42.5,71.5,41.2z"/>
			<path fill="#3399CC" d="M72,42L72,42c2.2-1.1,4-0.2,4,2v5l-8,4v-5C68,45.8,69.8,43.1,72,42z"/>
			<polygon opacity="0.2" fill="#FFFFFF" points="76,49 68,53 68,50 			"/>
			<path opacity="0.15" d="M72,42c-2.2,1.1-4,3.8-4,6v1c0-2.2,1.8-4.9,4-6s4-0.2,4,2v-1C76,41.8,74.2,40.9,72,42z"/>
			<polygon fill="#BAA794" points="74,50 73,50.5 73,41.5 74,41 			"/>
			<polygon fill="#BAA794" points="71,51.5 70,52 70,43 71,42.5 			"/>
			<polygon fill="#BAA794" points="76,45 68,49 68,48 76,44 			"/>
		</g>
		<g>
			<path fill="#BAA794" d="M56.5,48.7l0.9-0.5C60,47,62,48,62,50.5V57l-10,5v-6.5C52,53,54,50,56.5,48.7z"/>
			<path fill="#3399CC" d="M57,49.5L57,49.5c2.2-1.1,4-0.2,4,2v5l-8,4v-5C53,53.3,54.8,50.6,57,49.5z"/>
			<path opacity="0.15" d="M57,49.5c-2.2,1.1-4,3.8-4,6v1c0-2.2,1.8-4.9,4-6s4-0.2,4,2v-1C61,49.3,59.2,48.4,57,49.5z"/>
			<polygon fill="#BAA794" points="59,57.5 58,58 58,49 59,48.5 			"/>
			<polygon fill="#BAA794" points="56,59 55,59.5 55,50.5 56,50 			"/>
			<polygon fill="#BAA794" points="61,52.5 53,56.5 53,55.5 61,51.5 			"/>
		</g>
		<polygon fill="#F8EBCB" points="62,93 52,98 52,97 62,92 		"/>
		<polygon fill="#F8EBCB" points="77,85.5 67,90.5 67,89.5 77,84.5 		"/>
		<polygon fill="#F8EBCB" points="92,78 82,83 82,82 92,77 		"/>
		<polygon fill="#F8EBCB" points="62,75 52,80 52,79 62,74 		"/>
		<polygon fill="#F8EBCB" points="77,67.5 67,72.5 67,71.5 77,66.5 		"/>
		<polygon fill="#F8EBCB" points="92,60 82,65 82,64 92,59 		"/>
		<polygon fill="#F8EBCB" points="62,57 52,62 52,61 62,56 		"/>
		<polygon fill="#F8EBCB" points="77,49.5 67,54.5 67,53.5 77,48.5 		"/>
		<polygon fill="#F8EBCB" points="92,42 82,47 82,46 92,41 		"/>
		<polygon opacity="0.39" points="48,104 96,80 96,24 48,48 		"/>
	</g>
	<polygon fill="#2D3134" points="48,48 96,24 48,0 0,24 	"/>
</g>
</svg>
