<?xml version="1.0" encoding="utf-8"?>
<!-- Generator: Adobe Illustrator 18.1.0, SVG Export Plug-In . SVG Version: 6.00 Build 0)  -->
<svg version="1.1" id="Layer_1" xmlns="http://www.w3.org/2000/svg" xmlns:xlink="http://www.w3.org/1999/xlink" x="0px" y="0px"
	 viewBox="0 0 128 192" enable-background="new 0 0 128 192" xml:space="preserve">
<g>
	<polygon fill="#E5E5E5" points="64,0 0,32 0,160 64,192 128,160 128,32 	"/>
	<polygon fill="#3399CC" points="128,94 64,126 64,112 128,80 	"/>
	<polygon opacity="0.15" points="128,83 64,115 64,112 128,80 	"/>
	<polygon opacity="0.15" points="128,81 64,113 64,112 128,80 	"/>
	<polygon opacity="0.3" fill="#FFFFFF" points="123,95.5 119,97.5 119,84.5 123,82.5 	"/>
	<polygon opacity="0.2" fill="#FFFFFF" points="128,93 124,95 124,82 128,80 	"/>
	<polygon opacity="0.3" fill="#FFFFFF" points="118,98 114,100 114,87 118,85 	"/>
	<polygon opacity="0.2" fill="#FFFFFF" points="113,100.5 109,102.5 109,89.5 113,87.5 	"/>
	<polygon opacity="0.2" fill="#FFFFFF" points="108,103 104,105 104,92 108,90 	"/>
	<polygon opacity="0.3" fill="#FFFFFF" points="83,115.5 79,117.5 79,104.5 83,102.5 	"/>
	<polygon opacity="0.3" fill="#FFFFFF" points="78,118 74,120 74,107 78,105 	"/>
	<polygon fill="#3399CC" points="128,78 64,110 64,96 128,64 	"/>
	<polygon opacity="0.15" points="128,67 64,99 64,96 128,64 	"/>
	<polygon opacity="0.15" points="128,65 64,97 64,96 128,64 	"/>
	<polygon opacity="0.3" fill="#FFFFFF" points="103,89.5 99,91.5 99,78.5 103,76.5 	"/>
	<polygon opacity="0.2" fill="#FFFFFF" points="108,87 104,89 104,76 108,74 	"/>
	<polygon opacity="0.3" fill="#FFFFFF" points="98,92 94,94 94,81 98,79 	"/>
	<polygon opacity="0.2" fill="#FFFFFF" points="93,94.5 89,96.5 89,83.5 93,81.5 	"/>
	<polygon opacity="0.2" fill="#FFFFFF" points="88,97 84,99 84,86 88,84 	"/>
	<polygon fill="#3399CC" points="128,62 64,94 64,80 128,48 	"/>
	<polygon opacity="0.15" points="128,51 64,83 64,80 128,48 	"/>
	<polygon opacity="0.15" points="128,49 64,81 64,80 128,48 	"/>
	<polygon opacity="0.3" fill="#FFFFFF" points="113,68.5 109,70.5 109,57.5 113,55.5 	"/>
	<polygon opacity="0.2" fill="#FFFFFF" points="108,71 104,73 104,60 108,58 	"/>
	<polygon opacity="0.2" fill="#FFFFFF" points="103,73.5 99,75.5 99,62.5 103,60.5 	"/>
	<polygon opacity="0.3" fill="#FFFFFF" points="73,88.5 69,90.5 69,77.5 73,75.5 	"/>
	<polygon opacity="0.3" fill="#FFFFFF" points="68,91 64,93 64,80 68,78 	"/>
	<polygon fill="#3399CC" points="128,46 64,78 64,64 128,32 	"/>
	<polygon opacity="0.15" points="128,35 64,67 64,64 128,32 	"/>
	<polygon opacity="0.15" points="128,33 64,65 64,64 128,32 	"/>
	<polygon opacity="0.3" fill="#FFFFFF" points="118,50 114,52 114,39 118,37 	"/>
	<polygon opacity="0.2" fill="#FFFFFF" points="123,47.5 119,49.5 119,36.5 123,34.5 	"/>
	<polygon opacity="0.3" fill="#FFFFFF" points="93,62.5 89,64.5 89,51.5 93,49.5 	"/>
	<polygon opacity="0.2" fill="#FFFFFF" points="88,65 84,67 84,54 88,52 	"/>
	<polygon opacity="0.2" fill="#FFFFFF" points="83,67.5 79,69.5 79,56.5 83,54.5 	"/>
	<polygon opacity="0.7" fill="#FFFFFF" points="69,124.5 68,125 68,62 69,61.5 	"/>
	<polygon opacity="0.7" fill="#FFFFFF" points="74,122 73,122.5 73,59.5 74,59 	"/>
	<polygon opacity="0.7" fill="#FFFFFF" points="79,119.5 78,120 78,57 79,56.5 	"/>
	<polygon opacity="0.7" fill="#FFFFFF" points="84,117 83,117.5 83,54.5 84,54 	"/>
	<polygon opacity="0.7" fill="#FFFFFF" points="89,114.5 88,115 88,52 89,51.5 	"/>
	<polygon opacity="0.7" fill="#FFFFFF" points="94,112 93,112.5 93,49.5 94,49 	"/>
	<polygon opacity="0.7" fill="#FFFFFF" points="99,109.5 98,110 98,47 99,46.5 	"/>
	<polygon opacity="0.7" fill="#FFFFFF" points="104,107 103,107.5 103,44.5 104,44 	"/>
	<polygon opacity="0.7" fill="#FFFFFF" points="109,104.5 108,105 108,42 109,41.5 	"/>
	<polygon opacity="0.7" fill="#FFFFFF" points="114,102 113,102.5 113,39.5 114,39 	"/>
	<polygon opacity="0.7" fill="#FFFFFF" points="119,99.5 118,100 118,37 119,36.5 	"/>
	<polygon opacity="0.7" fill="#FFFFFF" points="124,97 123,97.5 123,34.5 124,34 	"/>
	<polygon fill="#E5E5E5" points="128,96 64,128 64,125 128,93 	"/>
	<polygon fill="#E5E5E5" points="128,80 64,112 64,109 128,77 	"/>
	<polygon fill="#E5E5E5" points="128,64 64,96 64,93 128,61 	"/>
	<polygon fill="#E5E5E5" points="128,48 64,80 64,77 128,45 	"/>
	<polygon fill="#3399CC" points="64,126 0,94 0,80 64,112 	"/>
	<polygon opacity="0.15" points="64,115 0,83 0,80 64,112 	"/>
	<polygon opacity="0.15" points="64,113 0,81 0,80 64,112 	"/>
	<polygon opacity="0.2" fill="#FFFFFF" points="64,125 60,123 60,110 64,112 	"/>
	<polygon opacity="0.2" fill="#FFFFFF" points="59,122.5 55,120.5 55,107.5 59,109.5 	"/>
	<polygon opacity="0.2" fill="#FFFFFF" points="54,120 50,118 50,105 54,107 	"/>
	<polygon opacity="0.3" fill="#FFFFFF" points="19,102.5 15,100.5 15,87.5 19,89.5 	"/>
	<polygon opacity="0.3" fill="#FFFFFF" points="24,105 20,103 20,90 24,92 	"/>
	<polygon opacity="0.3" fill="#FFFFFF" points="14,100 10,98 10,85 14,87 	"/>
	<polygon fill="#3399CC" points="64,110 0,78 0,64 64,96 	"/>
	<polygon opacity="0.15" points="64,99 0,67 0,64 64,96 	"/>
	<polygon opacity="0.15" points="64,97 0,65 0,64 64,96 	"/>
	<polygon opacity="0.3" fill="#FFFFFF" points="39,96.5 35,94.5 35,81.5 39,83.5 	"/>
	<polygon opacity="0.2" fill="#FFFFFF" points="44,99 40,97 40,84 44,86 	"/>
	<polygon opacity="0.3" fill="#FFFFFF" points="34,94 30,92 30,79 34,81 	"/>
	<polygon opacity="0.2" fill="#FFFFFF" points="14,84 10,82 10,69 14,71 	"/>
	<polygon opacity="0.2" fill="#FFFFFF" points="9,81.5 5,79.5 5,66.5 9,68.5 	"/>
	<polygon fill="#3399CC" points="64,94 0,62 0,48 64,80 	"/>
	<polygon opacity="0.15" points="64,83 0,51 0,48 64,80 	"/>
	<polygon opacity="0.15" points="64,81 0,49 0,48 64,80 	"/>
	<polygon opacity="0.3" fill="#FFFFFF" points="54,88 50,86 50,73 54,75 	"/>
	<polygon opacity="0.2" fill="#FFFFFF" points="49,85.5 45,83.5 45,70.5 49,72.5 	"/>
	<polygon opacity="0.2" fill="#FFFFFF" points="44,83 40,81 40,68 44,70 	"/>
	<polygon opacity="0.3" fill="#FFFFFF" points="9,65.5 5,63.5 5,50.5 9,52.5 	"/>
	<polygon opacity="0.3" fill="#FFFFFF" points="4,63 0,61 0,48 4,50 	"/>
	<polygon fill="#3399CC" points="64,78 0,46 0,32 64,64 	"/>
	<polygon opacity="0.15" points="64,67 0,35 0,32 64,64 	"/>
	<polygon opacity="0.15" points="64,65 0,33 0,32 64,64 	"/>
	<polygon opacity="0.3" fill="#FFFFFF" points="59,74.5 55,72.5 55,59.5 59,61.5 	"/>
	<polygon opacity="0.2" fill="#FFFFFF" points="64,77 60,75 60,62 64,64 	"/>
	<polygon opacity="0.3" fill="#FFFFFF" points="29,59.5 25,57.5 25,44.5 29,46.5 	"/>
	<polygon opacity="0.3" fill="#FFFFFF" points="34,62 30,60 30,47 34,49 	"/>
	<polygon opacity="0.2" fill="#FFFFFF" points="24,57 20,55 20,42 24,44 	"/>
	<polygon opacity="0.2" fill="#FFFFFF" points="19,54.5 15,52.5 15,39.5 19,41.5 	"/>
	<polygon opacity="0.7" fill="#FFFFFF" points="5,97.5 4,97 4,34 5,34.5 	"/>
	<polygon opacity="0.7" fill="#FFFFFF" points="10,100 9,99.5 9,36.5 10,37 	"/>
	<polygon opacity="0.7" fill="#FFFFFF" points="15,102.5 14,102 14,39 15,39.5 	"/>
	<polygon opacity="0.7" fill="#FFFFFF" points="20,105 19,104.5 19,41.5 20,42 	"/>
	<polygon opacity="0.7" fill="#FFFFFF" points="25,107.5 24,107 24,44 25,44.5 	"/>
	<polygon opacity="0.7" fill="#FFFFFF" points="30,110 29,109.5 29,46.5 30,47 	"/>
	<polygon opacity="0.7" fill="#FFFFFF" points="35,112.5 34,112 34,49 35,49.5 	"/>
	<polygon opacity="0.7" fill="#FFFFFF" points="40,115 39,114.5 39,51.5 40,52 	"/>
	<polygon opacity="0.7" fill="#FFFFFF" points="45,117.5 44,117 44,54 45,54.5 	"/>
	<polygon opacity="0.7" fill="#FFFFFF" points="50,120 49,119.5 49,56.5 50,57 	"/>
	<polygon opacity="0.7" fill="#FFFFFF" points="55,122.5 54,122 54,59 55,59.5 	"/>
	<polygon opacity="0.7" fill="#FFFFFF" points="60,125 59,124.5 59,61.5 60,62 	"/>
	<polygon fill="#E5E5E5" points="64,128 0,96 0,93 64,125 	"/>
	<polygon fill="#E5E5E5" points="64,112 0,80 0,77 64,109 	"/>
	<polygon fill="#E5E5E5" points="64,96 0,64 0,61 64,93 	"/>
	<polygon fill="#E5E5E5" points="64,80 0,48 0,45 64,77 	"/>
	<polygon opacity="0.15" points="64,163.8 0,131.7 0,131 64,163 	"/>
	<polygon fill="#3399CC" points="64,158 0,126 0,111 64,143 	"/>
	<polygon opacity="0.15" points="64,147 0,115 0,111 64,143 	"/>
	<polygon opacity="0.15" points="64,145 0,113 0,111 64,143 	"/>
	<polygon fill="#3399CC" points="64,142 0,110 0,96 64,128 	"/>
	<polygon opacity="0.15" points="64,131 0,99 0,96 64,128 	"/>
	<polygon opacity="0.15" points="64,129 0,97 0,96 64,128 	"/>
	<polygon fill="#2D3134" points="64,163 0,131 0,125 64,157 	"/>
	<polygon fill="#3399CC" points="15,167.5 4,162 4,135 15,140.5 	"/>
	<polygon fill="#3399CC" points="30,175 19,169.5 19,142.5 30,148 	"/>
	<polygon fill="#3399CC" points="45,182.5 34,177 34,150 45,155.5 	"/>
	<polygon fill="#3399CC" points="60,190 49,184.5 49,157.5 60,163 	"/>
	<polygon opacity="0.15" points="15,144.5 4,139 4,135 15,140.5 	"/>
	<polygon opacity="0.15" points="30,152 19,146.5 19,142.5 30,148 	"/>
	<polygon opacity="0.15" points="45,159.5 34,154 34,150 45,155.5 	"/>
	<polygon opacity="0.15" points="60,167 49,161.5 49,157.5 60,163 	"/>
	<polygon opacity="0.15" points="15,142.5 4,137 4,135 15,140.5 	"/>
	<polygon opacity="0.15" points="30,150 19,144.5 19,142.5 30,148 	"/>
	<polygon opacity="0.15" points="45,157.5 34,152 34,150 45,155.5 	"/>
	<polygon opacity="0.15" points="60,165 49,159.5 49,157.5 60,163 	"/>
	<polygon opacity="0.15" points="15,141.5 4,136 4,135 15,140.5 	"/>
	<polygon opacity="0.15" points="30,149 19,143.5 19,142.5 30,148 	"/>
	<polygon opacity="0.15" points="45,156.5 34,151 34,150 45,155.5 	"/>
	<polygon opacity="0.15" points="60,164 49,158.5 49,157.5 60,163 	"/>
	<polygon opacity="0.7" fill="#FFFFFF" points="5,127.5 4,127 4,98 5,98.5 	"/>
	<polygon opacity="0.7" fill="#FFFFFF" points="10,130 9,129.5 9,100.5 10,101 	"/>
	<polygon opacity="0.7" fill="#FFFFFF" points="15,132.5 14,132 14,103 15,103.5 	"/>
	<polygon opacity="0.7" fill="#FFFFFF" points="20,135 19,134.5 19,105.5 20,106 	"/>
	<polygon opacity="0.7" fill="#FFFFFF" points="25,137.5 24,137 24,108 25,108.5 	"/>
	<polygon opacity="0.7" fill="#FFFFFF" points="30,140 29,139.5 29,110.5 30,111 	"/>
	<polygon opacity="0.7" fill="#FFFFFF" points="35,142.5 34,142 34,113 35,113.5 	"/>
	<polygon opacity="0.7" fill="#FFFFFF" points="40,145 39,144.5 39,115.5 40,116 	"/>
	<polygon opacity="0.7" fill="#FFFFFF" points="45,147.5 44,147 44,118 45,118.5 	"/>
	<polygon opacity="0.7" fill="#FFFFFF" points="50,150 49,149.5 49,120.5 50,121 	"/>
	<polygon opacity="0.7" fill="#FFFFFF" points="55,152.5 54,152 54,123 55,123.5 	"/>
	<polygon opacity="0.7" fill="#FFFFFF" points="60,155 59,154.5 59,125.5 60,126 	"/>
	<polygon opacity="0.7" fill="#FFFFFF" points="15,152.5 12,151 12,139 11,138.5 11,150.5 8,149 8,137 7,136.5 7,148.5 4,147 4,148 
		7,149.5 7,163.5 8,164 8,150 11,151.5 11,165.5 12,166 12,152 15,153.5 	"/>
	<polygon opacity="0.7" fill="#FFFFFF" points="30,160 27,158.5 27,146.5 26,146 26,158 23,156.5 23,144.5 22,144 22,156 19,154.5 
		19,155.5 22,157 22,171 23,171.5 23,157.5 26,159 26,173 27,173.5 27,159.5 30,161 	"/>
	<polygon opacity="0.7" fill="#FFFFFF" points="45,167.5 42,166 42,154 41,153.5 41,165.5 38,164 38,152 37,151.5 37,163.5 34,162 
		34,163 37,164.5 37,178.5 38,179 38,165 41,166.5 41,180.5 42,181 42,167 45,168.5 	"/>
	<polygon opacity="0.7" fill="#FFFFFF" points="60,175 57,173.5 57,161.5 56,161 56,173 53,171.5 53,159.5 52,159 52,171 49,169.5 
		49,170.5 52,172 52,186 53,186.5 53,172.5 56,174 56,188 57,188.5 57,174.5 60,176 	"/>
	<polygon fill="#E5E5E5" points="64,144 0,112 0,109 64,141 	"/>
	<polygon opacity="0.2" fill="#FFFFFF" points="59,154.5 55,152.5 55,139.5 59,141.5 	"/>
	<polygon opacity="0.3" fill="#FFFFFF" points="64,157 60,155 60,142 64,144 	"/>
	<polygon opacity="0.2" fill="#FFFFFF" points="54,152 50,150 50,137 54,139 	"/>
	<polygon opacity="0.3" fill="#FFFFFF" points="49,149.5 45,147.5 45,134.5 49,136.5 	"/>
	<polygon opacity="0.3" fill="#FFFFFF" points="19,134.5 15,132.5 15,119.5 19,121.5 	"/>
	<polygon opacity="0.3" fill="#FFFFFF" points="14,132 10,130 10,117 14,119 	"/>
	<polygon opacity="0.3" fill="#FFFFFF" points="39,128.5 35,126.5 35,113.5 39,115.5 	"/>
	<polygon opacity="0.2" fill="#FFFFFF" points="44,131 40,129 40,116 44,118 	"/>
	<polygon opacity="0.3" fill="#FFFFFF" points="34,126 30,124 30,111 34,113 	"/>
	<polygon opacity="0.2" fill="#FFFFFF" points="29,123.5 25,121.5 25,108.5 29,110.5 	"/>
	<polygon opacity="0.2" fill="#FFFFFF" points="24,121 20,119 20,106 24,108 	"/>
	<polygon opacity="0.15" points="128,131.7 64,163.8 64,163 128,131 	"/>
	<polygon fill="#3399CC" points="128,126 64,158 64,143 128,111 	"/>
	<polygon opacity="0.15" points="128,115 64,147 64,143 128,111 	"/>
	<polygon opacity="0.15" points="128,113 64,145 64,143 128,111 	"/>
	<polygon fill="#3399CC" points="128,110 64,142 64,128 128,96 	"/>
	<polygon opacity="0.15" points="128,99 64,131 64,128 128,96 	"/>
	<polygon opacity="0.15" points="128,97 64,129 64,128 128,96 	"/>
	<polygon fill="#2D3134" points="128,131 64,163 64,157 128,125 	"/>
	<polygon fill="#3399CC" points="79,184.5 68,190 68,163 79,157.5 	"/>
	<polygon fill="#3399CC" points="94,177 83,182.5 83,155.5 94,150 	"/>
	<polygon fill="#3399CC" points="109,169.5 98,175 98,148 109,142.5 	"/>
	<polygon fill="#3399CC" points="124,162 113,167.5 113,140.5 124,135 	"/>
	<polygon opacity="0.15" points="79,161.5 68,167 68,163 79,157.5 	"/>
	<polygon opacity="0.15" points="94,154 83,159.5 83,155.5 94,150 	"/>
	<polygon opacity="0.15" points="109,146.5 98,152 98,148 109,142.5 	"/>
	<polygon opacity="0.15" points="124,139 113,144.5 113,140.5 124,135 	"/>
	<polygon opacity="0.15" points="79,159.5 68,165 68,163 79,157.5 	"/>
	<polygon opacity="0.15" points="94,152 83,157.5 83,155.5 94,150 	"/>
	<polygon opacity="0.15" points="109,144.5 98,150 98,148 109,142.5 	"/>
	<polygon opacity="0.15" points="124,137 113,142.5 113,140.5 124,135 	"/>
	<polygon opacity="0.15" points="79,158.5 68,164 68,163 79,157.5 	"/>
	<polygon opacity="0.15" points="94,151 83,156.5 83,155.5 94,150 	"/>
	<polygon opacity="0.15" points="109,143.5 98,149 98,148 109,142.5 	"/>
	<polygon opacity="0.15" points="124,136 113,141.5 113,140.5 124,135 	"/>
	<polygon opacity="0.7" fill="#FFFFFF" points="69,154.5 68,155 68,126 69,125.5 	"/>
	<polygon opacity="0.7" fill="#FFFFFF" points="74,152 73,152.5 73,123.5 74,123 	"/>
	<polygon opacity="0.7" fill="#FFFFFF" points="79,149.5 78,150 78,121 79,120.5 	"/>
	<polygon opacity="0.7" fill="#FFFFFF" points="84,147 83,147.5 83,118.5 84,118 	"/>
	<polygon opacity="0.7" fill="#FFFFFF" points="89,144.5 88,145 88,116 89,115.5 	"/>
	<polygon opacity="0.7" fill="#FFFFFF" points="94,142 93,142.5 93,113.5 94,113 	"/>
	<polygon opacity="0.7" fill="#FFFFFF" points="99,139.5 98,140 98,111 99,110.5 	"/>
	<polygon opacity="0.7" fill="#FFFFFF" points="104,137 103,137.5 103,108.5 104,108 	"/>
	<polygon opacity="0.7" fill="#FFFFFF" points="109,134.5 108,135 108,106 109,105.5 	"/>
	<polygon opacity="0.7" fill="#FFFFFF" points="114,132 113,132.5 113,103.5 114,103 	"/>
	<polygon opacity="0.7" fill="#FFFFFF" points="119,129.5 118,130 118,101 119,100.5 	"/>
	<polygon opacity="0.7" fill="#FFFFFF" points="124,127 123,127.5 123,98.5 124,98 	"/>
	<polygon opacity="0.7" fill="#FFFFFF" points="79,169.5 76,171 76,159 75,159.5 75,171.5 72,173 72,161 71,161.5 71,173.5 68,175 
		68,176 71,174.5 71,188.5 72,188 72,174 75,172.5 75,186.5 76,186 76,172 79,170.5 	"/>
	<polygon opacity="0.7" fill="#FFFFFF" points="94,162 91,163.5 91,151.5 90,152 90,164 87,165.5 87,153.5 86,154 86,166 83,167.5 
		83,168.5 86,167 86,181 87,180.5 87,166.5 90,165 90,179 91,178.5 91,164.5 94,163 	"/>
	<polygon opacity="0.7" fill="#FFFFFF" points="109,154.5 106,156 106,144 105,144.5 105,156.5 102,158 102,146 101,146.5 
		101,158.5 98,160 98,161 101,159.5 101,173.5 102,173 102,159 105,157.5 105,171.5 106,171 106,157 109,155.5 	"/>
	<polygon opacity="0.7" fill="#FFFFFF" points="124,147 121,148.5 121,136.5 120,137 120,149 117,150.5 117,138.5 116,139 116,151 
		113,152.5 113,153.5 116,152 116,166 117,165.5 117,151.5 120,150 120,164 121,163.5 121,149.5 124,148 	"/>
	<polygon fill="#E5E5E5" points="128,112 64,144 64,141 128,109 	"/>
	<polygon opacity="0.2" fill="#FFFFFF" points="123,127.5 119,129.5 119,116.5 123,114.5 	"/>
	<polygon opacity="0.3" fill="#FFFFFF" points="128,125 124,127 124,114 128,112 	"/>
	<polygon opacity="0.2" fill="#FFFFFF" points="118,130 114,132 114,119 118,117 	"/>
	<polygon opacity="0.3" fill="#FFFFFF" points="103,137.5 99,139.5 99,126.5 103,124.5 	"/>
	<polygon opacity="0.3" fill="#FFFFFF" points="98,140 94,142 94,129 98,127 	"/>
	<polygon opacity="0.3" fill="#FFFFFF" points="78,150 74,152 74,139 78,137 	"/>
	<polygon opacity="0.3" fill="#FFFFFF" points="103,121.5 99,123.5 99,110.5 103,108.5 	"/>
	<polygon opacity="0.2" fill="#FFFFFF" points="108,119 104,121 104,108 108,106 	"/>
	<polygon opacity="0.3" fill="#FFFFFF" points="98,124 94,126 94,113 98,111 	"/>
	<polygon opacity="0.2" fill="#FFFFFF" points="93,126.5 89,128.5 89,115.5 93,113.5 	"/>
	<polygon opacity="0.2" fill="#FFFFFF" points="88,129 84,131 84,118 88,116 	"/>
	<polygon opacity="0.3" fill="#FFFFFF" points="73,136.5 69,138.5 69,125.5 73,123.5 	"/>
	<polygon opacity="0.3" fill="#FFFFFF" points="68,139 64,141 64,128 68,126 	"/>
	<polygon opacity="0.39" points="64,64 64,192 128,160 128,32 	"/>
	<polygon opacity="0.06" points="0,32 0,160 64,192 64,64 	"/>
	<polygon opacity="0.25" points="8.9,32 64,4.5 119.1,32 64,59.5 	"/>
	<polygon opacity="0.39" points="64,6.5 64,4.5 8.9,32 10.9,33 	"/>
	<polygon opacity="0.06" points="64,6.5 117.1,33 119.1,32 64,4.5 	"/>
	<g>
		<polygon fill="#E5E5E5" points="58,13 46,19 46,23 58,29 70,23 70,19 		"/>
		<polygon opacity="0.39" points="70,23 58,29 58,25 70,19 		"/>
		<polygon opacity="0.06" points="46,23 58,29 58,25 46,19 		"/>
	</g>
	<g>
		<polygon fill="#E5E5E5" points="82,20 62,30 62,36 82,46 102,36 102,30 		"/>
		<polygon opacity="0.39" points="102,36 82,46 82,40 102,30 		"/>
		<polygon opacity="0.06" points="62,36 82,46 82,40 62,30 		"/>
		<polygon opacity="0.25" points="82,24 94,30 82,36 70,30 		"/>
	</g>
</g>
</svg>
