<?xml version="1.0" encoding="utf-8"?>
<!-- Generator: Adobe Illustrator 18.1.0, SVG Export Plug-In . SVG Version: 6.00 Build 0)  -->
<svg version="1.1" id="Layer_1" xmlns="http://www.w3.org/2000/svg" xmlns:xlink="http://www.w3.org/1999/xlink" x="0px" y="0px"
	 viewBox="0 0 128 192" enable-background="new 0 0 128 192" xml:space="preserve">
<g>
	<g>
		<polygon fill="#E5E5E5" points="64,0 0,32 0,160 64,192 128,160 128,32 		"/>
		<rect x="65" y="65" fill="#E5E5E5" width="1" height="123"/>
		<g>
			<g>
				<polygon fill="#2D3134" points="126,153.5 66,183.5 66,177.5 126,147.5 				"/>
				<polygon points="125,148 125,153 66,182.5 66,183.5 126,153.5 126,147.5 				"/>
				<polygon fill="#2D3134" points="126,139.5 66,169.5 66,163.5 126,133.5 				"/>
				<polygon points="125,134 125,139 66,168.5 66,169.5 126,139.5 126,133.5 				"/>
				<polygon fill="#2D3134" points="126,125.5 66,155.5 66,149.5 126,119.5 				"/>
				<polygon points="125,120 125,125 66,154.5 66,155.5 126,125.5 126,119.5 				"/>
				<polygon fill="#2D3134" points="126,111.5 66,141.5 66,135.5 126,105.5 				"/>
				<polygon points="125,106 125,111 66,140.5 66,141.5 126,111.5 126,105.5 				"/>
				<polygon fill="#2D3134" points="126,97.5 66,127.5 66,121.5 126,91.5 				"/>
				<polygon points="125,92 125,97 66,126.5 66,127.5 126,97.5 126,91.5 				"/>
				<polygon fill="#2D3134" points="126,83.5 66,113.5 66,107.5 126,77.5 				"/>
				<polygon points="125,78 125,83 66,112.5 66,113.5 126,83.5 126,77.5 				"/>
				<polygon fill="#2D3134" points="126,69.5 66,99.5 66,93.5 126,63.5 				"/>
				<polygon points="125,64 125,69 66,98.5 66,99.5 126,69.5 126,63.5 				"/>
				<polygon fill="#2D3134" points="126,55.5 66,85.5 66,79.5 126,49.5 				"/>
				<polygon points="125,50 125,55 66,84.5 66,85.5 126,55.5 126,49.5 				"/>
				<polygon fill="#2D3134" points="126,41.5 66,71.5 66,65.5 126,35.5 				"/>
				<polygon points="125,36 125,41 66,70.5 66,71.5 126,41.5 126,35.5 				"/>
				<g opacity="0.1">
					<g>
						<polygon fill="#FFFFFF" points="76,94.5 80.8,92.1 77.2,87.9 72,90.5 						"/>
						<polygon fill="#FFFFFF" points="89.2,101.9 85.6,97.7 81.2,99.9 85.1,103.9 						"/>
						<polygon fill="#FFFFFF" points="66.8,85.1 72.4,82.3 68.8,78.1 66,79.5 66,84.3 						"/>
						<polygon fill="#FFFFFF" points="110.7,127.1 108.7,128.1 112.7,132.2 114.3,131.3 						"/>
						<polygon fill="#FFFFFF" points="97.5,111.7 93.9,107.5 90.4,109.3 94.3,113.3 						"/>
						<polygon fill="#FFFFFF" points="119.1,136.9 117.9,137.5 121.8,141.6 122.7,141.1 						"/>
						<polygon fill="#FFFFFF" points="105.9,121.5 102.3,117.3 99.6,118.7 103.5,122.8 						"/>
					</g>
				</g>
				<g opacity="0.15">
					<g>
						<polygon fill="#FFFFFF" points="97,165 95.1,163 94.5,163.3 						"/>
						<polygon fill="#FFFFFF" points="82.7,155.1 87.8,158.6 90,157.5 86.1,153.4 						"/>
						<polygon fill="#FFFFFF" points="71,147 76,150.5 81,148 77.2,143.9 						"/>
						<polygon fill="#FFFFFF" points="66,135.5 66,141.5 72.1,138.5 68.2,134.4 						"/>
					</g>
				</g>
				<g opacity="0.1">
					<g>
						<polygon fill="#FFFFFF" points="124.2,98.4 126,97.5 126,91.5 120.9,94 						"/>
						<polygon fill="#FFFFFF" points="113.3,83.9 116.6,88.2 124.7,84.1 120.1,80.4 						"/>
						<polygon fill="#FFFFFF" points="114,75.5 109.4,71.8 105.6,73.7 108.9,78.1 						"/>
						<polygon fill="#FFFFFF" points="103.3,66.9 98.7,63.2 97.9,63.5 101.2,67.9 						"/>
					</g>
				</g>
				<g opacity="0.2">
					<g>
						<path fill="#FFFFFF" d="M124.4,120.3l-2.9,1.5l3.2,4.4l1.3-0.6v-3.3C125.5,121.6,125,120.9,124.4,120.3z"/>
						<path fill="#FFFFFF" d="M102.9,95c-1.4-1.6-2.6-3-3.6-4.2L99,91l3.2,4.4L102.9,95z"/>
						<path fill="#FFFFFF" d="M111.4,104.8c-1.2-1.4-2.4-2.8-3.6-4.2l-1.3,0.6l3.2,4.4L111.4,104.8z"/>
						<path fill="#FFFFFF" d="M119.7,114.6c-1.2-1.4-2.4-2.8-3.6-4.2l-2.1,1.1l3.2,4.4L119.7,114.6z"/>
					</g>
				</g>
				<g opacity="5.000000e-002">
					<g>
						<polygon fill="#FFFFFF" points="87.2,124.9 91.7,128.6 94.3,127.3 90.3,123.3 						"/>
						<polygon fill="#FFFFFF" points="97.7,133.6 102.2,137.4 103.7,136.7 99.7,132.7 						"/>
						<polygon fill="#FFFFFF" points="108.2,142.4 112.7,146.1 113,146 109,142 						"/>
						<polygon fill="#FFFFFF" points="66,99.5 66.3,99.3 66,99 						"/>
						<polygon fill="#FFFFFF" points="66.1,107.4 70.7,111.2 75.7,108.7 71.7,104.7 						"/>
						<polygon fill="#FFFFFF" points="76.7,116.2 81.2,119.9 85,118 81,114 						"/>
					</g>
				</g>
				<g opacity="0.2">
					<g>
						<polygon fill="#FFFFFF" points="126,68.4 126,63.5 123.2,64.9 						"/>
						<polygon fill="#FFFFFF" points="109,47 110.7,49.1 111.4,48.8 						"/>
						<polygon fill="#FFFFFF" points="115.2,54.9 118.7,59.2 122.7,57.1 117.9,53.6 						"/>
					</g>
				</g>
			</g>
			<rect x="75" y="59" fill="#E5E5E5" width="1" height="123"/>
			<rect x="85" y="54" fill="#E5E5E5" width="1" height="123"/>
			<rect x="95" y="48" fill="#E5E5E5" width="1" height="123"/>
			<rect x="105" y="44" fill="#E5E5E5" width="1" height="123"/>
			<rect x="115" y="39" fill="#E5E5E5" width="1" height="123"/>
			<rect x="125" y="34" fill="#E5E5E5" width="1" height="123"/>
		</g>
		<g>
			<g>
				<polygon fill="#2D3134" points="2,153.5 62,183.5 62,177.5 2,147.5 				"/>
				<polygon points="3,148 3,153 62,182.5 62,183.5 2,153.5 2,147.5 				"/>
				<polygon fill="#2D3134" points="2,139.5 62,169.5 62,163.5 2,133.5 				"/>
				<polygon points="3,134 3,139 62,168.5 62,169.5 2,139.5 2,133.5 				"/>
				<polygon fill="#2D3134" points="2,125.5 62,155.5 62,149.5 2,119.5 				"/>
				<polygon points="3,120 3,125 62,154.5 62,155.5 2,125.5 2,119.5 				"/>
				<polygon fill="#2D3134" points="2,111.5 62,141.5 62,135.5 2,105.5 				"/>
				<polygon points="3,106 3,111 62,140.5 62,141.5 2,111.5 2,105.5 				"/>
				<polygon fill="#2D3134" points="2,97.5 62,127.5 62,121.5 2,91.5 				"/>
				<polygon points="3,92 3,97 62,126.5 62,127.5 2,97.5 2,91.5 				"/>
				<polygon fill="#2D3134" points="2,83.5 62,113.5 62,107.5 2,77.5 				"/>
				<polygon points="3,78 3,83 62,112.5 62,113.5 2,83.5 2,77.5 				"/>
				<polygon fill="#2D3134" points="2,69.5 62,99.5 62,93.5 2,63.5 				"/>
				<polygon points="3,64 3,69 62,98.5 62,99.5 2,69.5 2,63.5 				"/>
				<polygon fill="#2D3134" points="2,55.5 62,85.5 62,79.5 2,49.5 				"/>
				<polygon points="3,50 3,55 62,84.5 62,85.5 2,55.5 2,49.5 				"/>
				<polygon fill="#2D3134" points="2,41.5 62,71.5 62,65.5 2,35.5 				"/>
				<polygon points="3,36 3,41 62,70.5 62,71.5 2,41.5 2,35.5 				"/>
				<g opacity="0.2">
					<g>
						<polygon fill="#FFFFFF" points="3.8,98.4 2,97.5 2,91.5 7.1,94 						"/>
						<polygon fill="#FFFFFF" points="14.7,83.9 11.4,88.2 3.3,84.1 7.9,80.4 						"/>
						<polygon fill="#FFFFFF" points="14,75.5 18.6,71.8 22.4,73.7 19.1,78.1 						"/>
						<polygon fill="#FFFFFF" points="24.7,66.9 29.3,63.2 30.1,63.5 26.8,67.9 						"/>
					</g>
				</g>
				<g opacity="5.000000e-002">
					<g>
						<path fill="#FFFFFF" d="M3.6,120.3l2.9,1.5l-3.2,4.4L2,125.5v-3.3C2.5,121.6,3,120.9,3.6,120.3z"/>
						<path fill="#FFFFFF" d="M25.1,95c1.4-1.6,2.6-3,3.6-4.2L29,91l-3.2,4.4L25.1,95z"/>
						<path fill="#FFFFFF" d="M16.6,104.8c1.2-1.4,2.4-2.8,3.6-4.2l1.3,0.6l-3.2,4.4L16.6,104.8z"/>
						<path fill="#FFFFFF" d="M8.3,114.6c1.2-1.4,2.4-2.8,3.6-4.2l2.1,1.1l-3.2,4.4L8.3,114.6z"/>
					</g>
				</g>
				<g opacity="5.000000e-002">
					<g>
						<polygon fill="#FFFFFF" points="2,68.4 2,63.5 4.8,64.9 						"/>
						<polygon fill="#FFFFFF" points="19,47 17.3,49.1 16.6,48.8 						"/>
						<polygon fill="#FFFFFF" points="12.8,54.9 9.3,59.2 5.3,57.1 10.1,53.6 						"/>
					</g>
				</g>
				<g opacity="0.1">
					<g>
						<polygon fill="#FFFFFF" points="41.4,97.2 38.5,101.7 44.1,104.5 48.9,101 						"/>
						<polygon fill="#FFFFFF" points="34.6,107.8 31.7,112.3 32.8,112.9 37.6,109.3 						"/>
						<polygon fill="#FFFFFF" points="48.2,86.6 45.3,91.1 55.3,96.2 60.2,92.6 						"/>
						<polygon fill="#FFFFFF" points="62,85.5 62,79.5 55,76 52.1,80.5 						"/>
						<polygon fill="#FFFFFF" points="62,71.5 62,65.5 61.8,65.4 58.9,69.9 						"/>
					</g>
				</g>
				<g opacity="0.2">
					<g>
						<polygon fill="#FFFFFF" points="32.2,148.6 28.2,152.6 29.8,153.4 34.6,149.8 						"/>
						<polygon fill="#FFFFFF" points="41.4,139.2 37.4,143.2 41,145 45.8,141.4 						"/>
						<polygon fill="#FFFFFF" points="23,158 21,160 23.4,158.2 						"/>
						<polygon fill="#FFFFFF" points="62,127.5 62,121.5 59.8,120.4 55.8,124.4 						"/>
						<polygon fill="#FFFFFF" points="50.6,129.8 46.6,133.8 52.2,136.6 57,133 						"/>
					</g>
				</g>
			</g>
			<rect x="52" y="59" fill="#E5E5E5" width="1" height="123"/>
			<rect x="42" y="54" fill="#E5E5E5" width="1" height="123"/>
			<rect x="32" y="48" fill="#E5E5E5" width="1" height="123"/>
			<rect x="22" y="44" fill="#E5E5E5" width="1" height="123"/>
			<rect x="12" y="39" fill="#E5E5E5" width="1" height="123"/>
			<rect x="2" y="34" fill="#E5E5E5" width="1" height="123"/>
		</g>
		<polygon opacity="0.06" points="0,160 64,192 64,64 0,32 		"/>
		<polygon opacity="0.39" points="128,160 64,192 64,64 128,32 		"/>
	</g>
	<polygon opacity="0.25" fill="#202426" points="8.9,32 64,4.5 119.1,32 64,59.5 	"/>
	<polygon opacity="0.39" points="64,6.5 64,4.5 8.9,32 10.9,33 	"/>
	<polygon opacity="0.06" points="64,6.5 117.1,33 119.1,32 64,4.5 	"/>
	<g>
		<polygon fill="#E5E5E5" points="64,11 31,28 31,30 43,36 76,19 76,17 		"/>
		<polygon opacity="0.39" points="76,19 43,36 43,34 76,17 		"/>
		<polygon opacity="0.06" points="31,30 43,36 43,34 31,28 		"/>
		<path fill="#656565" d="M63,15c-2.8,0-5,1.1-5,2.5s2.2,2.5,5,2.5s5-1.1,5-2.5S65.8,15,63,15z M63,19c-1.7,0-3-0.7-3-1.5
			s1.3-1.5,3-1.5s3,0.7,3,1.5S64.7,19,63,19z"/>
		<path fill="#656565" d="M53,20c-2.8,0-5,1.1-5,2.5s2.2,2.5,5,2.5s5-1.1,5-2.5S55.8,20,53,20z M53,24c-1.7,0-3-0.7-3-1.5
			s1.3-1.5,3-1.5s3,0.7,3,1.5S54.7,24,53,24z"/>
		<path fill="#656565" d="M43,25c-2.8,0-5,1.1-5,2.5s2.2,2.5,5,2.5s5-1.1,5-2.5S45.8,25,43,25z M43,29c-1.7,0-3-0.7-3-1.5
			s1.3-1.5,3-1.5s3,0.7,3,1.5S44.7,29,43,29z"/>
	</g>
	<g>
		<polygon fill="#E5E5E5" points="78,7 60,16 60,32 84,44 102,35 102,19 		"/>
		<polygon opacity="0.06" points="60,32 84,44 84,28 60,16 		"/>
		<polygon fill="#656565" points="96,29 96,38 90,41 90,32 		"/>
		<polygon opacity="0.45" fill="#262626" points="95,38 95,29.5 96,29 96,38 90,41 90,40.5 		"/>
		<polygon opacity="0.39" points="102,35 84,44 84,28 102,19 		"/>
	</g>
</g>
</svg>
