<?xml version="1.0" encoding="utf-8"?>
<!-- Generator: Adobe Illustrator 18.1.0, SVG Export Plug-In . SVG Version: 6.00 Build 0)  -->
<svg version="1.1" id="Layer_1" xmlns="http://www.w3.org/2000/svg" xmlns:xlink="http://www.w3.org/1999/xlink" x="0px" y="0px"
	 viewBox="0 0 64 64" enable-background="new 0 0 64 64" xml:space="preserve">
<polygon fill="#825012" points="0,16 0,48 32,64 64,48 64,16 "/>
<polygon opacity="0.2" points="0,16 0,21 32,37 64,21 64,16 "/>
<polygon opacity="0.3" points="0,16 0,18 32,34 64,18 64,16 "/>
<polygon opacity="0.29" points="64,16 64,48 32,64 32,32 "/>
<g>
	<g>
		<polygon fill="#99CC33" points="32,0 64,16 32,32 0,16 		"/>
		<polygon fill="#99CC33" points="32,0 64,16 32,32 0,16 		"/>
	</g>
	<g>
		<polygon fill="#99CC33" points="32,0 64,16 32,32 0,16 		"/>
		<polygon fill="#99CC33" points="32,0 64,16 32,32 0,16 		"/>
	</g>
</g>
<g opacity="0.3">
	<g>
		<path d="M46.4,51.6c-0.3,0.2-0.6,0.6-0.6,0.9c0,0.3,0.3,0.5,0.6,0.3c0.3-0.2,0.6-0.6,0.6-0.9S46.7,51.4,46.4,51.6z"/>
		<path d="M41.2,53.4c0.4-0.2,0.7-0.7,0.7-1.1c0-0.4-0.3-0.6-0.7-0.4c-0.4,0.2-0.7,0.7-0.7,1.1C40.5,53.4,40.8,53.6,41.2,53.4z"/>
		<path d="M44.7,48.1c0.3-0.1,0.5-0.5,0.5-0.7c0-0.3-0.2-0.4-0.5-0.2c-0.3,0.1-0.5,0.5-0.5,0.7C44.2,48.1,44.4,48.2,44.7,48.1z"/>
		<path d="M52.6,30.1c0-0.4-0.3-0.6-0.7-0.4c-0.4,0.2-0.7,0.7-0.7,1.1c0,0.4,0.3,0.6,0.7,0.4C52.3,31,52.6,30.5,52.6,30.1z"/>
		<path d="M54.3,36.9c0-0.7-0.6-1-1.3-0.7c-0.7,0.4-1.3,1.2-1.3,2c0,0.7,0.6,1,1.3,0.7C53.7,38.5,54.3,37.6,54.3,36.9z"/>
		<path d="M40.9,46.9c0-0.1-0.1-0.1-0.1-0.1c-0.1,0-0.1,0.1-0.1,0.2c0,0.1,0.1,0.1,0.1,0.1C40.8,47.1,40.9,47,40.9,46.9z"/>
		<path d="M36,57.2c0-0.1-0.1-0.1-0.1-0.1c-0.1,0-0.1,0.1-0.1,0.2c0,0.1,0.1,0.1,0.1,0.1C36,57.4,36,57.3,36,57.2z"/>
		<path d="M58.9,33.5c-0.2,0.1-0.4,0.3-0.4,0.5c0,0.2,0.2,0.3,0.4,0.2c0.2-0.1,0.4-0.3,0.4-0.5C59.3,33.5,59.1,33.4,58.9,33.5z"/>
		<path d="M57,45.5c-0.2,0.1-0.4,0.3-0.4,0.5c0,0.2,0.2,0.3,0.4,0.2c0.2-0.1,0.4-0.3,0.4-0.5C57.3,45.5,57.2,45.4,57,45.5z"/>
		<path d="M61.8,27.1c-0.3,0.2-0.6,0.6-0.6,0.9c0,0.3,0.3,0.5,0.6,0.3c0.3-0.2,0.6-0.6,0.6-0.9C62.4,27.1,62.2,27,61.8,27.1z"/>
		<path d="M48.3,32.6c0,0.1,0.1,0.1,0.1,0.1c0.1,0,0.1-0.1,0.1-0.2c0-0.1-0.1-0.1-0.1-0.1C48.3,32.5,48.3,32.6,48.3,32.6z"/>
		<path d="M43.9,33.5c0.4-0.2,0.7-0.7,0.7-1.1c0-0.4-0.3-0.6-0.7-0.4c-0.4,0.2-0.7,0.7-0.7,1.1C43.2,33.5,43.5,33.7,43.9,33.5z"/>
		<path d="M44.1,40.7c0.4-0.2,0.7-0.7,0.7-1.1c0-0.4-0.3-0.6-0.7-0.4c-0.4,0.2-0.7,0.7-0.7,1.1C43.4,40.8,43.7,40.9,44.1,40.7z"/>
		<path d="M41.1,43.7c-0.4,0.2-0.7,0.7-0.7,1.1s0.3,0.6,0.7,0.4c0.4-0.2,0.7-0.7,0.7-1.1C41.8,43.7,41.5,43.5,41.1,43.7z"/>
		<path d="M37.8,37.8c-0.4,0.2-0.7,0.7-0.7,1.1c0,0.4,0.3,0.6,0.7,0.4c0.4-0.2,0.7-0.7,0.7-1.1C38.5,37.7,38.2,37.6,37.8,37.8z"/>
		<path d="M48.1,47c0-0.3-0.3-0.5-0.6-0.3c-0.3,0.2-0.6,0.6-0.6,0.9s0.3,0.5,0.6,0.3C47.8,47.7,48.1,47.3,48.1,47z"/>
		<path d="M53.4,43.6c0-0.3-0.3-0.5-0.6-0.3c-0.3,0.2-0.6,0.6-0.6,0.9s0.3,0.5,0.6,0.3C53.1,44.3,53.4,43.9,53.4,43.6z"/>
		<path d="M36.6,48.7c0-0.3-0.3-0.5-0.6-0.3s-0.6,0.6-0.6,0.9s0.3,0.5,0.6,0.3C36.3,49.4,36.6,49,36.6,48.7z"/>
		<path d="M56.7,38c0.4-0.2,0.7-0.7,0.7-1.1c0-0.4-0.3-0.6-0.7-0.4c-0.4,0.2-0.7,0.7-0.7,1.1C56,38,56.3,38.2,56.7,38z"/>
		<path d="M39.9,57c0.4-0.2,0.7-0.7,0.7-1.1c0-0.4-0.3-0.6-0.7-0.4c-0.4,0.2-0.7,0.7-0.7,1.1C39.2,57.1,39.6,57.2,39.9,57z"/>
		<path d="M44.7,49.7c-0.2,0.1-0.4,0.3-0.4,0.5s0.2,0.3,0.4,0.2c0.2-0.1,0.4-0.3,0.4-0.5S44.9,49.6,44.7,49.7z"/>
		<path d="M51.5,47.1c-0.2,0.1-0.4,0.3-0.4,0.5c0,0.2,0.2,0.3,0.4,0.2c0.2-0.1,0.4-0.3,0.4-0.5C51.9,47.1,51.7,47,51.5,47.1z"/>
		<path d="M48,38.5c-0.3,0.2-0.6,0.6-0.6,0.9s0.3,0.5,0.6,0.3c0.3-0.2,0.6-0.6,0.6-0.9C48.6,38.5,48.4,38.3,48,38.5z"/>
		<path d="M54.8,28.4c0,0.3,0.3,0.5,0.6,0.3c0.3-0.2,0.6-0.6,0.6-0.9c0-0.3-0.3-0.5-0.6-0.3C55.1,27.6,54.8,28,54.8,28.4z"/>
		<path d="M48.6,42.1c0,0.3,0.3,0.5,0.6,0.3c0.3-0.2,0.6-0.6,0.6-0.9c0-0.3-0.3-0.5-0.6-0.3C48.9,41.3,48.6,41.7,48.6,42.1z"/>
		<path d="M36.7,54.5c0.3-0.1,0.5-0.5,0.5-0.7c0-0.3-0.2-0.4-0.5-0.2c-0.3,0.1-0.5,0.5-0.5,0.7C36.2,54.5,36.4,54.6,36.7,54.5z"/>
		<path d="M48.1,34.4c0-0.4-0.3-0.6-0.7-0.4c-0.4,0.2-0.7,0.7-0.7,1.1c0,0.4,0.3,0.6,0.7,0.4C47.8,35.3,48.1,34.8,48.1,34.4z"/>
		<path d="M54.6,32.5c-0.1,0-0.2,0.2-0.2,0.2s0.1,0.1,0.2,0.1c0.1,0,0.2-0.2,0.2-0.2C54.7,32.5,54.7,32.5,54.6,32.5z"/>
		<path d="M41.5,50.9c-0.1,0-0.2,0.2-0.2,0.2c0,0.1,0.1,0.1,0.2,0.1c0.1,0,0.2-0.2,0.2-0.2C41.6,50.9,41.6,50.8,41.5,50.9z"/>
		<path d="M54.5,34.2c0-0.1-0.1-0.2-0.2-0.1c-0.1,0.1-0.2,0.2-0.2,0.3c0,0.1,0.1,0.2,0.2,0.1C54.4,34.4,54.5,34.3,54.5,34.2z"/>
		<path d="M56.5,42.5c0-0.1-0.1-0.2-0.2-0.1c-0.1,0.1-0.2,0.2-0.2,0.3c0,0.1,0.1,0.2,0.2,0.1C56.4,42.7,56.5,42.6,56.5,42.5z"/>
		<path d="M62.7,34.5c0-0.1-0.1-0.2-0.2-0.1c-0.1,0.1-0.2,0.2-0.2,0.3c0,0.1,0.1,0.2,0.2,0.1C62.6,34.7,62.7,34.6,62.7,34.5z"/>
		<path d="M45.5,41.9c0-0.1-0.1-0.2-0.2-0.1c-0.1,0.1-0.2,0.2-0.2,0.3c0,0.1,0.1,0.2,0.2,0.1C45.4,42.2,45.5,42,45.5,41.9z"/>
		<path d="M42.9,35.6c-0.3,0.1-0.5,0.5-0.5,0.7c0,0.3,0.2,0.4,0.5,0.2c0.3-0.1,0.5-0.5,0.5-0.7S43.2,35.5,42.9,35.6z"/>
	</g>
</g>
<path opacity="0.3" d="M26.2,37.8c0.4,0.2,0.7,0,0.7-0.4s-0.3-0.9-0.7-1.1c-0.4-0.2-0.7,0-0.7,0.4S25.8,37.6,26.2,37.8z M7.1,30.2
	c0.4,0.2,0.7,0,0.7-0.4c0-0.4-0.3-0.9-0.7-1.1c-0.4-0.2-0.7,0-0.7,0.4C6.4,29.5,6.7,30,7.1,30.2z M22.3,44.4c-0.4-0.2-0.7,0-0.7,0.4
	c0,0.4,0.3,0.9,0.7,1.1c0.4,0.2,0.7,0,0.7-0.4C23,45.1,22.7,44.6,22.3,44.4z M22,36.8c0.4,0.2,0.7,0,0.7-0.4s-0.3-0.9-0.7-1.1
	c-0.4-0.2-0.7,0-0.7,0.4S21.6,36.6,22,36.8z M18.1,54.2c-0.4-0.2-0.7,0-0.7,0.4c0,0.4,0.3,0.9,0.7,1.1c0.4,0.2,0.7,0,0.7-0.4
	S18.5,54.5,18.1,54.2z M21.1,56.4c-0.1,0-0.2,0-0.2,0.1s0.1,0.2,0.2,0.3c0.1,0,0.2,0,0.2-0.1S21.2,56.4,21.1,56.4z M15.1,48.2
	c-0.1,0-0.2,0-0.2,0.1c0,0.1,0.1,0.2,0.2,0.3c0.1,0,0.2,0,0.2-0.1C15.2,48.3,15.2,48.2,15.1,48.2z M16.2,49.2
	c-0.3-0.2-0.6,0-0.6,0.3c0,0.3,0.3,0.8,0.6,0.9c0.3,0.2,0.6,0,0.6-0.3C16.8,49.8,16.5,49.4,16.2,49.2z M26.3,43.8
	c-0.3-0.2-0.6,0-0.6,0.3c0,0.3,0.3,0.8,0.6,0.9c0.3,0.2,0.6,0,0.6-0.3C27,44.4,26.7,44,26.3,43.8z M5.9,35c-0.3-0.2-0.6,0-0.6,0.3
	c0,0.3,0.3,0.8,0.6,0.9c0.3,0.2,0.6,0,0.6-0.3C6.5,35.6,6.2,35.2,5.9,35z M19,40.5c-0.3-0.2-0.6,0-0.6,0.3c0,0.3,0.3,0.8,0.6,0.9
	c0.3,0.2,0.6,0,0.6-0.3C19.6,41.1,19.3,40.7,19,40.5z M8.3,39.7c-0.1,0-0.1,0-0.1,0.1c0,0.1,0.1,0.2,0.1,0.2c0.1,0,0.1,0,0.1-0.1
	C8.5,39.8,8.4,39.7,8.3,39.7z M17.5,43.9c-0.1,0-0.1,0-0.1,0.1c0,0.1,0.1,0.2,0.1,0.2c0.1,0,0.1,0,0.1-0.1
	C17.6,44.1,17.5,44,17.5,43.9z M12.2,39.4c-0.4-0.2-0.7,0-0.7,0.4s0.3,0.9,0.7,1.1c0.4,0.2,0.7,0,0.7-0.4S12.6,39.6,12.2,39.4z
	 M8.1,32.6c-0.7-0.4-1.4-0.1-1.4,0.7c0,0.7,0.6,1.7,1.4,2c0.7,0.4,1.4,0.1,1.4-0.7C9.5,33.9,8.9,33,8.1,32.6z M17.5,31.5
	c-0.3-0.2-0.6,0-0.6,0.3c0,0.3,0.3,0.8,0.6,0.9c0.3,0.2,0.6,0,0.6-0.3C18.1,32.1,17.8,31.7,17.5,31.5z M15.7,37.4
	c-0.2-0.1-0.4,0-0.4,0.2c0,0.2,0.2,0.5,0.4,0.6c0.2,0.1,0.4,0,0.4-0.2C16.1,37.8,15.9,37.5,15.7,37.4z M11,37c-0.1,0-0.1,0-0.1,0.1
	c0,0.1,0.1,0.2,0.1,0.2c0.1,0,0.1,0,0.1-0.1C11.1,37.2,11.1,37.1,11,37z M2.5,38.8c-0.3-0.2-0.6,0-0.6,0.3c0,0.3,0.3,0.8,0.6,0.9
	c0.3,0.2,0.6,0,0.6-0.3C3.1,39.4,2.8,39,2.5,38.8z M1.4,45c-0.1,0-0.1,0-0.1,0.1c0,0.1,0.1,0.2,0.1,0.2c0.1,0,0.1,0,0.1-0.1
	C1.5,45.1,1.4,45,1.4,45z M10.7,47.2c-0.4-0.2-0.7,0-0.7,0.4s0.3,0.9,0.7,1.1c0.4,0.2,0.7,0,0.7-0.4C11.4,47.9,11.1,47.4,10.7,47.2z
	 M8.8,42.7c-0.2-0.1-0.4,0-0.4,0.2c0,0.2,0.2,0.5,0.4,0.6c0.2,0.1,0.4,0,0.4-0.2C9.2,43.1,9,42.8,8.8,42.7z M4,42.3
	c-0.1,0-0.1,0-0.1,0.1c0,0.1,0.1,0.2,0.1,0.2c0.1,0,0.1,0,0.1-0.1C4.2,42.4,4.1,42.4,4,42.3z M15.7,32.3c-0.3-0.2-0.6,0-0.6,0.3
	c0,0.3,0.3,0.8,0.6,0.9c0.3,0.2,0.6,0,0.6-0.3C16.4,32.8,16.1,32.4,15.7,32.3z M23.9,38.3c0-0.3-0.2-0.6-0.5-0.7
	c-0.3-0.1-0.5,0-0.5,0.2c0,0.3,0.2,0.6,0.5,0.7C23.7,38.7,23.9,38.6,23.9,38.3z M26,55.2c0.2,0.1,0.4,0,0.4-0.2
	c0-0.2-0.2-0.5-0.4-0.6c-0.2-0.1-0.4,0-0.4,0.2C25.7,54.8,25.8,55.1,26,55.2z M30.6,57.8c0-0.4-0.3-0.9-0.7-1.1
	c-0.4-0.2-0.7,0-0.7,0.4s0.3,0.9,0.7,1.1C30.2,58.4,30.6,58.2,30.6,57.8z M30.1,38.7c-0.3-0.1-0.5,0-0.5,0.2s0.2,0.6,0.5,0.7
	c0.3,0.1,0.5,0,0.5-0.2S30.4,38.8,30.1,38.7z M2.2,27.4c-0.3-0.1-0.5,0-0.5,0.2s0.2,0.6,0.5,0.7c0.3,0.1,0.5,0,0.5-0.2
	S2.5,27.5,2.2,27.4z M28.1,48.9c-0.4-0.2-0.7,0-0.7,0.4c0,0.4,0.3,0.9,0.7,1.1c0.4,0.2,0.7,0,0.7-0.4S28.5,49.1,28.1,48.9z
	 M21.4,53.4c-0.2-0.1-0.4,0-0.4,0.2c0,0.2,0.2,0.5,0.4,0.6c0.2,0.1,0.4,0,0.4-0.2C21.8,53.8,21.6,53.5,21.4,53.4z M14,44.4
	c-0.2-0.1-0.4,0-0.4,0.2c0,0.2,0.2,0.5,0.4,0.6c0.2,0.1,0.4,0,0.4-0.2C14.3,44.8,14.2,44.5,14,44.4z M19.1,47.3
	c-0.7-0.4-1.4-0.1-1.4,0.7c0,0.7,0.6,1.7,1.4,2c0.7,0.4,1.4,0.1,1.4-0.7C20.4,48.6,19.8,47.7,19.1,47.3z M2.2,32.5
	c-0.1,0-0.1,0-0.1,0.1c0,0.1,0.1,0.2,0.1,0.2c0.1,0,0.1,0,0.1-0.1C2.4,32.7,2.3,32.6,2.2,32.5z"/>
<polygon opacity="0.11" points="0,16 32,32 32,64 0,48 "/>
</svg>
