<?xml version="1.0" encoding="utf-8"?>
<!-- Generator: Adobe Illustrator 18.1.0, SVG Export Plug-In . SVG Version: 6.00 Build 0)  -->
<svg version="1.1" id="Layer_1" xmlns="http://www.w3.org/2000/svg" xmlns:xlink="http://www.w3.org/1999/xlink" x="0px" y="0px"
	 viewBox="0 0 24 16" enable-background="new 0 0 24 16" xml:space="preserve">
<g>
	<polygon fill="#999999" points="4,4 12,0 19,3 23,9 22,13 17,16 7,16 0,11 	"/>
	<polygon opacity="0.15" fill="#FFFFFF" points="4,4 12,0 19,3 19.9,9.3 13.3,11.6 	"/>
	<polygon opacity="0.15" points="22,13 17,16 13.3,11.6 19.9,9.3 	"/>
	<polygon opacity="0.25" points="7,16 13.3,11.6 17,16 	"/>
	<polygon opacity="0.15" points="6.3,13.5 13.3,11.6 19.9,9.3 21.1,11.5 23,9 22,13 17,16 7,16 0,11 	"/>
</g>
</svg>
