<?xml version="1.0" encoding="utf-8"?>
<!-- Generator: Adobe Illustrator 18.1.0, SVG Export Plug-In . SVG Version: 6.00 Build 0)  -->
<svg version="1.1" id="Layer_1" xmlns="http://www.w3.org/2000/svg" xmlns:xlink="http://www.w3.org/1999/xlink" x="0px" y="0px"
	 viewBox="0 0 48 40" enable-background="new 0 0 48 40" xml:space="preserve">
<polygon fill="#999999" points="0,28 8,36 25,39 45,29 47,19 45,9 34,1 11,3 4.2,14.8 "/>
<polygon opacity="0.15" fill="#FFFFFF" points="11,3 24,8.2 45,9 34,1 "/>
<polygon opacity="0.25" points="25,39 22.7,21.8 35.7,24.3 47,19 45,29 "/>
<polygon opacity="0.15" points="8,36 25,39 22.7,21.8 24,8.2 9.8,22.3 "/>
<polygon opacity="0.1" points="22.7,21.8 35.7,24.3 47,19 45,9 24,8.2 "/>
<polygon opacity="0.1" points="4.2,14.8 9.8,22.3 22.7,21.8 35.7,24.3 47,19 45,29 25,39 8,36 0,28 "/>
<polygon opacity="0.15" points="45,9 35.7,24.3 36.7,33 45,29 47,19 "/>
<polygon opacity="0.15" points="8.4,33.5 23.2,26.5 36.7,33 47,19 45,29 25,39 8,36 0,28 2,21.7 "/>
</svg>
