<?xml version="1.0" encoding="utf-8"?>
<!-- Generator: Adobe Illustrator 18.1.0, SVG Export Plug-In . SVG Version: 6.00 Build 0)  -->
<svg version="1.1" id="Layer_1" xmlns="http://www.w3.org/2000/svg" xmlns:xlink="http://www.w3.org/1999/xlink" x="0px" y="0px"
	 viewBox="0 0 112 176" enable-background="new 0 0 112 176" xml:space="preserve">
<g>
	<g>
		<polygon fill="#CC291F" points="48,166 0,142 0,72 48,96 		"/>
		<g opacity="0.3">
			<polygon fill="#F8EBCB" points="4,131 1,129.5 1,131.5 4,133 			"/>
			<polygon fill="#F8EBCB" points="8,133 5,131.5 5,133.5 8,135 			"/>
			<polygon fill="#F8EBCB" points="12,135 9,133.5 9,135.5 12,137 			"/>
			<polygon fill="#F8EBCB" points="16,137 13,135.5 13,137.5 16,139 			"/>
			<polygon fill="#F8EBCB" points="20,139 17,137.5 17,139.5 20,141 			"/>
			<polygon fill="#F8EBCB" points="24,141 21,139.5 21,141.5 24,143 			"/>
			<polygon fill="#F8EBCB" points="28,143 25,141.5 25,143.5 28,145 			"/>
			<polygon fill="#F8EBCB" points="32,145 29,143.5 29,145.5 32,147 			"/>
			<polygon fill="#F8EBCB" points="36,147 33,145.5 33,147.5 36,149 			"/>
			<polygon fill="#F8EBCB" points="40,149 37,147.5 37,149.5 40,151 			"/>
			<polygon fill="#F8EBCB" points="44,151 41,149.5 41,151.5 44,153 			"/>
			<polygon fill="#F8EBCB" points="48,153 45,151.5 45,153.5 48,155 			"/>
			<polygon fill="#F8EBCB" points="2,127 0,126 0,128 2,129 			"/>
			<polygon fill="#F8EBCB" points="6,129 3,127.5 3,129.5 6,131 			"/>
			<polygon fill="#F8EBCB" points="10,131 7,129.5 7,131.5 10,133 			"/>
			<polygon fill="#F8EBCB" points="14,133 11,131.5 11,133.5 14,135 			"/>
			<polygon fill="#F8EBCB" points="18,135 15,133.5 15,135.5 18,137 			"/>
			<polygon fill="#F8EBCB" points="22,137 19,135.5 19,137.5 22,139 			"/>
			<polygon fill="#F8EBCB" points="26,139 23,137.5 23,139.5 26,141 			"/>
			<polygon fill="#F8EBCB" points="30,141 27,139.5 27,141.5 30,143 			"/>
			<polygon fill="#F8EBCB" points="34,143 31,141.5 31,143.5 34,145 			"/>
			<polygon fill="#F8EBCB" points="38,145 35,143.5 35,145.5 38,147 			"/>
			<polygon fill="#F8EBCB" points="42,147 39,145.5 39,147.5 42,149 			"/>
			<polygon fill="#F8EBCB" points="46,149 43,147.5 43,149.5 46,151 			"/>
			<polygon fill="#F8EBCB" points="48,150 47,149.5 47,151.5 48,152 			"/>
			<polygon fill="#F8EBCB" points="4,125 1,123.5 1,125.5 4,127 			"/>
			<polygon fill="#F8EBCB" points="8,127 5,125.5 5,127.5 8,129 			"/>
			<polygon fill="#F8EBCB" points="12,129 9,127.5 9,129.5 12,131 			"/>
			<polygon fill="#F8EBCB" points="16,131 13,129.5 13,131.5 16,133 			"/>
			<polygon fill="#F8EBCB" points="20,133 17,131.5 17,133.5 20,135 			"/>
			<polygon fill="#F8EBCB" points="24,135 21,133.5 21,135.5 24,137 			"/>
			<polygon fill="#F8EBCB" points="28,137 25,135.5 25,137.5 28,139 			"/>
			<polygon fill="#F8EBCB" points="32,139 29,137.5 29,139.5 32,141 			"/>
			<polygon fill="#F8EBCB" points="36,141 33,139.5 33,141.5 36,143 			"/>
			<polygon fill="#F8EBCB" points="40,143 37,141.5 37,143.5 40,145 			"/>
			<polygon fill="#F8EBCB" points="44,145 41,143.5 41,145.5 44,147 			"/>
			<polygon fill="#F8EBCB" points="48,147 45,145.5 45,147.5 48,149 			"/>
			<polygon fill="#F8EBCB" points="2,121 0,120 0,122 2,123 			"/>
			<polygon fill="#F8EBCB" points="6,123 3,121.5 3,123.5 6,125 			"/>
			<polygon fill="#F8EBCB" points="10,125 7,123.5 7,125.5 10,127 			"/>
			<polygon fill="#F8EBCB" points="14,127 11,125.5 11,127.5 14,129 			"/>
			<polygon fill="#F8EBCB" points="18,129 15,127.5 15,129.5 18,131 			"/>
			<polygon fill="#F8EBCB" points="22,131 19,129.5 19,131.5 22,133 			"/>
			<polygon fill="#F8EBCB" points="26,133 23,131.5 23,133.5 26,135 			"/>
			<polygon fill="#F8EBCB" points="30,135 27,133.5 27,135.5 30,137 			"/>
			<polygon fill="#F8EBCB" points="34,137 31,135.5 31,137.5 34,139 			"/>
			<polygon fill="#F8EBCB" points="38,139 35,137.5 35,139.5 38,141 			"/>
			<polygon fill="#F8EBCB" points="42,141 39,139.5 39,141.5 42,143 			"/>
			<polygon fill="#F8EBCB" points="46,143 43,141.5 43,143.5 46,145 			"/>
			<polygon fill="#F8EBCB" points="48,144 47,143.5 47,145.5 48,146 			"/>
			<polygon fill="#F8EBCB" points="4,119 1,117.5 1,119.5 4,121 			"/>
			<polygon fill="#F8EBCB" points="8,121 5,119.5 5,121.5 8,123 			"/>
			<polygon fill="#F8EBCB" points="12,123 9,121.5 9,123.5 12,125 			"/>
			<polygon fill="#F8EBCB" points="16,125 13,123.5 13,125.5 16,127 			"/>
			<polygon fill="#F8EBCB" points="20,127 17,125.5 17,127.5 20,129 			"/>
			<polygon fill="#F8EBCB" points="24,129 21,127.5 21,129.5 24,131 			"/>
			<polygon fill="#F8EBCB" points="28,131 25,129.5 25,131.5 28,133 			"/>
			<polygon fill="#F8EBCB" points="32,133 29,131.5 29,133.5 32,135 			"/>
			<polygon fill="#F8EBCB" points="36,135 33,133.5 33,135.5 36,137 			"/>
			<polygon fill="#F8EBCB" points="40,137 37,135.5 37,137.5 40,139 			"/>
			<polygon fill="#F8EBCB" points="44,139 41,137.5 41,139.5 44,141 			"/>
			<polygon fill="#F8EBCB" points="48,141 45,139.5 45,141.5 48,143 			"/>
			<polygon fill="#F8EBCB" points="2,115 0,114 0,116 2,117 			"/>
			<polygon fill="#F8EBCB" points="6,117 3,115.5 3,117.5 6,119 			"/>
			<polygon fill="#F8EBCB" points="10,119 7,117.5 7,119.5 10,121 			"/>
			<polygon fill="#F8EBCB" points="14,121 11,119.5 11,121.5 14,123 			"/>
			<polygon fill="#F8EBCB" points="18,123 15,121.5 15,123.5 18,125 			"/>
			<polygon fill="#F8EBCB" points="22,125 19,123.5 19,125.5 22,127 			"/>
			<polygon fill="#F8EBCB" points="26,127 23,125.5 23,127.5 26,129 			"/>
			<polygon fill="#F8EBCB" points="30,129 27,127.5 27,129.5 30,131 			"/>
			<polygon fill="#F8EBCB" points="34,131 31,129.5 31,131.5 34,133 			"/>
			<polygon fill="#F8EBCB" points="38,133 35,131.5 35,133.5 38,135 			"/>
			<polygon fill="#F8EBCB" points="42,135 39,133.5 39,135.5 42,137 			"/>
			<polygon fill="#F8EBCB" points="46,137 43,135.5 43,137.5 46,139 			"/>
			<polygon fill="#F8EBCB" points="48,138 47,137.5 47,139.5 48,140 			"/>
			<polygon fill="#F8EBCB" points="4,113 1,111.5 1,113.5 4,115 			"/>
			<polygon fill="#F8EBCB" points="8,115 5,113.5 5,115.5 8,117 			"/>
			<polygon fill="#F8EBCB" points="12,117 9,115.5 9,117.5 12,119 			"/>
			<polygon fill="#F8EBCB" points="16,119 13,117.5 13,119.5 16,121 			"/>
			<polygon fill="#F8EBCB" points="20,121 17,119.5 17,121.5 20,123 			"/>
			<polygon fill="#F8EBCB" points="24,123 21,121.5 21,123.5 24,125 			"/>
			<polygon fill="#F8EBCB" points="28,125 25,123.5 25,125.5 28,127 			"/>
			<polygon fill="#F8EBCB" points="32,127 29,125.5 29,127.5 32,129 			"/>
			<polygon fill="#F8EBCB" points="36,129 33,127.5 33,129.5 36,131 			"/>
			<polygon fill="#F8EBCB" points="40,131 37,129.5 37,131.5 40,133 			"/>
			<polygon fill="#F8EBCB" points="44,133 41,131.5 41,133.5 44,135 			"/>
			<polygon fill="#F8EBCB" points="48,135 45,133.5 45,135.5 48,137 			"/>
			<polygon fill="#F8EBCB" points="2,109 0,108 0,110 2,111 			"/>
			<polygon fill="#F8EBCB" points="6,111 3,109.5 3,111.5 6,113 			"/>
			<polygon fill="#F8EBCB" points="10,113 7,111.5 7,113.5 10,115 			"/>
			<polygon fill="#F8EBCB" points="14,115 11,113.5 11,115.5 14,117 			"/>
			<polygon fill="#F8EBCB" points="18,117 15,115.5 15,117.5 18,119 			"/>
			<polygon fill="#F8EBCB" points="22,119 19,117.5 19,119.5 22,121 			"/>
			<polygon fill="#F8EBCB" points="26,121 23,119.5 23,121.5 26,123 			"/>
			<polygon fill="#F8EBCB" points="30,123 27,121.5 27,123.5 30,125 			"/>
			<polygon fill="#F8EBCB" points="34,125 31,123.5 31,125.5 34,127 			"/>
			<polygon fill="#F8EBCB" points="38,127 35,125.5 35,127.5 38,129 			"/>
			<polygon fill="#F8EBCB" points="42,129 39,127.5 39,129.5 42,131 			"/>
			<polygon fill="#F8EBCB" points="46,131 43,129.5 43,131.5 46,133 			"/>
			<polygon fill="#F8EBCB" points="48,132 47,131.5 47,133.5 48,134 			"/>
			<polygon fill="#F8EBCB" points="4,107 1,105.5 1,107.5 4,109 			"/>
			<polygon fill="#F8EBCB" points="8,109 5,107.5 5,109.5 8,111 			"/>
			<polygon fill="#F8EBCB" points="12,111 9,109.5 9,111.5 12,113 			"/>
			<polygon fill="#F8EBCB" points="16,113 13,111.5 13,113.5 16,115 			"/>
			<polygon fill="#F8EBCB" points="20,115 17,113.5 17,115.5 20,117 			"/>
			<polygon fill="#F8EBCB" points="24,117 21,115.5 21,117.5 24,119 			"/>
			<polygon fill="#F8EBCB" points="28,119 25,117.5 25,119.5 28,121 			"/>
			<polygon fill="#F8EBCB" points="32,121 29,119.5 29,121.5 32,123 			"/>
			<polygon fill="#F8EBCB" points="36,123 33,121.5 33,123.5 36,125 			"/>
			<polygon fill="#F8EBCB" points="40,125 37,123.5 37,125.5 40,127 			"/>
			<polygon fill="#F8EBCB" points="44,127 41,125.5 41,127.5 44,129 			"/>
			<polygon fill="#F8EBCB" points="48,129 45,127.5 45,129.5 48,131 			"/>
			<polygon fill="#F8EBCB" points="2,103 0,102 0,104 2,105 			"/>
			<polygon fill="#F8EBCB" points="6,105 3,103.5 3,105.5 6,107 			"/>
			<polygon fill="#F8EBCB" points="10,107 7,105.5 7,107.5 10,109 			"/>
			<polygon fill="#F8EBCB" points="14,109 11,107.5 11,109.5 14,111 			"/>
			<polygon fill="#F8EBCB" points="18,111 15,109.5 15,111.5 18,113 			"/>
			<polygon fill="#F8EBCB" points="22,113 19,111.5 19,113.5 22,115 			"/>
			<polygon fill="#F8EBCB" points="26,115 23,113.5 23,115.5 26,117 			"/>
			<polygon fill="#F8EBCB" points="30,117 27,115.5 27,117.5 30,119 			"/>
			<polygon fill="#F8EBCB" points="34,119 31,117.5 31,119.5 34,121 			"/>
			<polygon fill="#F8EBCB" points="38,121 35,119.5 35,121.5 38,123 			"/>
			<polygon fill="#F8EBCB" points="42,123 39,121.5 39,123.5 42,125 			"/>
			<polygon fill="#F8EBCB" points="46,125 43,123.5 43,125.5 46,127 			"/>
			<polygon fill="#F8EBCB" points="48,126 47,125.5 47,127.5 48,128 			"/>
			<polygon fill="#F8EBCB" points="4,101 1,99.5 1,101.5 4,103 			"/>
			<polygon fill="#F8EBCB" points="8,103 5,101.5 5,103.5 8,105 			"/>
			<polygon fill="#F8EBCB" points="12,105 9,103.5 9,105.5 12,107 			"/>
			<polygon fill="#F8EBCB" points="16,107 13,105.5 13,107.5 16,109 			"/>
			<polygon fill="#F8EBCB" points="20,109 17,107.5 17,109.5 20,111 			"/>
			<polygon fill="#F8EBCB" points="24,111 21,109.5 21,111.5 24,113 			"/>
			<polygon fill="#F8EBCB" points="28,113 25,111.5 25,113.5 28,115 			"/>
			<polygon fill="#F8EBCB" points="32,115 29,113.5 29,115.5 32,117 			"/>
			<polygon fill="#F8EBCB" points="36,117 33,115.5 33,117.5 36,119 			"/>
			<polygon fill="#F8EBCB" points="40,119 37,117.5 37,119.5 40,121 			"/>
			<polygon fill="#F8EBCB" points="44,121 41,119.5 41,121.5 44,123 			"/>
			<polygon fill="#F8EBCB" points="48,123 45,121.5 45,123.5 48,125 			"/>
			<polygon fill="#F8EBCB" points="2,97 0,96 0,98 2,99 			"/>
			<polygon fill="#F8EBCB" points="6,99 3,97.5 3,99.5 6,101 			"/>
			<polygon fill="#F8EBCB" points="10,101 7,99.5 7,101.5 10,103 			"/>
			<polygon fill="#F8EBCB" points="14,103 11,101.5 11,103.5 14,105 			"/>
			<polygon fill="#F8EBCB" points="18,105 15,103.5 15,105.5 18,107 			"/>
			<polygon fill="#F8EBCB" points="22,107 19,105.5 19,107.5 22,109 			"/>
			<polygon fill="#F8EBCB" points="26,109 23,107.5 23,109.5 26,111 			"/>
			<polygon fill="#F8EBCB" points="30,111 27,109.5 27,111.5 30,113 			"/>
			<polygon fill="#F8EBCB" points="34,113 31,111.5 31,113.5 34,115 			"/>
			<polygon fill="#F8EBCB" points="38,115 35,113.5 35,115.5 38,117 			"/>
			<polygon fill="#F8EBCB" points="42,117 39,115.5 39,117.5 42,119 			"/>
			<polygon fill="#F8EBCB" points="46,119 43,117.5 43,119.5 46,121 			"/>
			<polygon fill="#F8EBCB" points="48,120 47,119.5 47,121.5 48,122 			"/>
			<polygon fill="#F8EBCB" points="4,95 1,93.5 1,95.5 4,97 			"/>
			<polygon fill="#F8EBCB" points="8,97 5,95.5 5,97.5 8,99 			"/>
			<polygon fill="#F8EBCB" points="12,99 9,97.5 9,99.5 12,101 			"/>
			<polygon fill="#F8EBCB" points="16,101 13,99.5 13,101.5 16,103 			"/>
			<polygon fill="#F8EBCB" points="20,103 17,101.5 17,103.5 20,105 			"/>
			<polygon fill="#F8EBCB" points="24,105 21,103.5 21,105.5 24,107 			"/>
			<polygon fill="#F8EBCB" points="28,107 25,105.5 25,107.5 28,109 			"/>
			<polygon fill="#F8EBCB" points="32,109 29,107.5 29,109.5 32,111 			"/>
			<polygon fill="#F8EBCB" points="36,111 33,109.5 33,111.5 36,113 			"/>
			<polygon fill="#F8EBCB" points="40,113 37,111.5 37,113.5 40,115 			"/>
			<polygon fill="#F8EBCB" points="44,115 41,113.5 41,115.5 44,117 			"/>
			<polygon fill="#F8EBCB" points="48,117 45,115.5 45,117.5 48,119 			"/>
			<polygon fill="#F8EBCB" points="2,91 0,90 0,92 2,93 			"/>
			<polygon fill="#F8EBCB" points="6,93 3,91.5 3,93.5 6,95 			"/>
			<polygon fill="#F8EBCB" points="10,95 7,93.5 7,95.5 10,97 			"/>
			<polygon fill="#F8EBCB" points="14,97 11,95.5 11,97.5 14,99 			"/>
			<polygon fill="#F8EBCB" points="18,99 15,97.5 15,99.5 18,101 			"/>
			<polygon fill="#F8EBCB" points="22,101 19,99.5 19,101.5 22,103 			"/>
			<polygon fill="#F8EBCB" points="26,103 23,101.5 23,103.5 26,105 			"/>
			<polygon fill="#F8EBCB" points="30,105 27,103.5 27,105.5 30,107 			"/>
			<polygon fill="#F8EBCB" points="34,107 31,105.5 31,107.5 34,109 			"/>
			<polygon fill="#F8EBCB" points="38,109 35,107.5 35,109.5 38,111 			"/>
			<polygon fill="#F8EBCB" points="42,111 39,109.5 39,111.5 42,113 			"/>
			<polygon fill="#F8EBCB" points="46,113 43,111.5 43,113.5 46,115 			"/>
			<polygon fill="#F8EBCB" points="48,114 47,113.5 47,115.5 48,116 			"/>
			<polygon fill="#F8EBCB" points="4,89 1,87.5 1,89.5 4,91 			"/>
			<polygon fill="#F8EBCB" points="8,91 5,89.5 5,91.5 8,93 			"/>
			<polygon fill="#F8EBCB" points="12,93 9,91.5 9,93.5 12,95 			"/>
			<polygon fill="#F8EBCB" points="16,95 13,93.5 13,95.5 16,97 			"/>
			<polygon fill="#F8EBCB" points="20,97 17,95.5 17,97.5 20,99 			"/>
			<polygon fill="#F8EBCB" points="24,99 21,97.5 21,99.5 24,101 			"/>
			<polygon fill="#F8EBCB" points="28,101 25,99.5 25,101.5 28,103 			"/>
			<polygon fill="#F8EBCB" points="32,103 29,101.5 29,103.5 32,105 			"/>
			<polygon fill="#F8EBCB" points="36,105 33,103.5 33,105.5 36,107 			"/>
			<polygon fill="#F8EBCB" points="40,107 37,105.5 37,107.5 40,109 			"/>
			<polygon fill="#F8EBCB" points="44,109 41,107.5 41,109.5 44,111 			"/>
			<polygon fill="#F8EBCB" points="48,111 45,109.5 45,111.5 48,113 			"/>
			<polygon fill="#F8EBCB" points="2,85 0,84 0,86 2,87 			"/>
			<polygon fill="#F8EBCB" points="6,87 3,85.5 3,87.5 6,89 			"/>
			<polygon fill="#F8EBCB" points="10,89 7,87.5 7,89.5 10,91 			"/>
			<polygon fill="#F8EBCB" points="14,91 11,89.5 11,91.5 14,93 			"/>
			<polygon fill="#F8EBCB" points="18,93 15,91.5 15,93.5 18,95 			"/>
			<polygon fill="#F8EBCB" points="22,95 19,93.5 19,95.5 22,97 			"/>
			<polygon fill="#F8EBCB" points="26,97 23,95.5 23,97.5 26,99 			"/>
			<polygon fill="#F8EBCB" points="30,99 27,97.5 27,99.5 30,101 			"/>
			<polygon fill="#F8EBCB" points="34,101 31,99.5 31,101.5 34,103 			"/>
			<polygon fill="#F8EBCB" points="38,103 35,101.5 35,103.5 38,105 			"/>
			<polygon fill="#F8EBCB" points="42,105 39,103.5 39,105.5 42,107 			"/>
			<polygon fill="#F8EBCB" points="46,107 43,105.5 43,107.5 46,109 			"/>
			<polygon fill="#F8EBCB" points="48,108 47,107.5 47,109.5 48,110 			"/>
			<polygon fill="#F8EBCB" points="4,83 1,81.5 1,83.5 4,85 			"/>
			<polygon fill="#F8EBCB" points="8,85 5,83.5 5,85.5 8,87 			"/>
			<polygon fill="#F8EBCB" points="12,87 9,85.5 9,87.5 12,89 			"/>
			<polygon fill="#F8EBCB" points="16,89 13,87.5 13,89.5 16,91 			"/>
			<polygon fill="#F8EBCB" points="20,91 17,89.5 17,91.5 20,93 			"/>
			<polygon fill="#F8EBCB" points="24,93 21,91.5 21,93.5 24,95 			"/>
			<polygon fill="#F8EBCB" points="28,95 25,93.5 25,95.5 28,97 			"/>
			<polygon fill="#F8EBCB" points="32,97 29,95.5 29,97.5 32,99 			"/>
			<polygon fill="#F8EBCB" points="36,99 33,97.5 33,99.5 36,101 			"/>
			<polygon fill="#F8EBCB" points="40,101 37,99.5 37,101.5 40,103 			"/>
			<polygon fill="#F8EBCB" points="44,103 41,101.5 41,103.5 44,105 			"/>
			<polygon fill="#F8EBCB" points="48,105 45,103.5 45,105.5 48,107 			"/>
			<polygon fill="#F8EBCB" points="2,79 0,78 0,80 2,81 			"/>
			<polygon fill="#F8EBCB" points="6,81 3,79.5 3,81.5 6,83 			"/>
			<polygon fill="#F8EBCB" points="10,83 7,81.5 7,83.5 10,85 			"/>
			<polygon fill="#F8EBCB" points="14,85 11,83.5 11,85.5 14,87 			"/>
			<polygon fill="#F8EBCB" points="18,87 15,85.5 15,87.5 18,89 			"/>
			<polygon fill="#F8EBCB" points="22,89 19,87.5 19,89.5 22,91 			"/>
			<polygon fill="#F8EBCB" points="26,91 23,89.5 23,91.5 26,93 			"/>
			<polygon fill="#F8EBCB" points="30,93 27,91.5 27,93.5 30,95 			"/>
			<polygon fill="#F8EBCB" points="34,95 31,93.5 31,95.5 34,97 			"/>
			<polygon fill="#F8EBCB" points="38,97 35,95.5 35,97.5 38,99 			"/>
			<polygon fill="#F8EBCB" points="42,99 39,97.5 39,99.5 42,101 			"/>
			<polygon fill="#F8EBCB" points="46,101 43,99.5 43,101.5 46,103 			"/>
			<polygon fill="#F8EBCB" points="48,102 47,101.5 47,103.5 48,104 			"/>
			<polygon fill="#F8EBCB" points="4,77 1,75.5 1,77.5 4,79 			"/>
			<polygon fill="#F8EBCB" points="8,79 5,77.5 5,79.5 8,81 			"/>
			<polygon fill="#F8EBCB" points="12,81 9,79.5 9,81.5 12,83 			"/>
			<polygon fill="#F8EBCB" points="16,83 13,81.5 13,83.5 16,85 			"/>
			<polygon fill="#F8EBCB" points="20,85 17,83.5 17,85.5 20,87 			"/>
			<polygon fill="#F8EBCB" points="24,87 21,85.5 21,87.5 24,89 			"/>
			<polygon fill="#F8EBCB" points="28,89 25,87.5 25,89.5 28,91 			"/>
			<polygon fill="#F8EBCB" points="32,91 29,89.5 29,91.5 32,93 			"/>
			<polygon fill="#F8EBCB" points="36,93 33,91.5 33,93.5 36,95 			"/>
			<polygon fill="#F8EBCB" points="40,95 37,93.5 37,95.5 40,97 			"/>
			<polygon fill="#F8EBCB" points="44,97 41,95.5 41,97.5 44,99 			"/>
			<polygon fill="#F8EBCB" points="48,99 45,97.5 45,99.5 48,101 			"/>
			<polygon fill="#F8EBCB" points="2,73 0,72 0,74 2,75 			"/>
			<polygon fill="#F8EBCB" points="6,75 3,73.5 3,75.5 6,77 			"/>
			<polygon fill="#F8EBCB" points="10,77 7,75.5 7,77.5 10,79 			"/>
			<polygon fill="#F8EBCB" points="14,79 11,77.5 11,79.5 14,81 			"/>
			<polygon fill="#F8EBCB" points="18,81 15,79.5 15,81.5 18,83 			"/>
			<polygon fill="#F8EBCB" points="22,83 19,81.5 19,83.5 22,85 			"/>
			<polygon fill="#F8EBCB" points="26,85 23,83.5 23,85.5 26,87 			"/>
			<polygon fill="#F8EBCB" points="30,87 27,85.5 27,87.5 30,89 			"/>
			<polygon fill="#F8EBCB" points="34,89 31,87.5 31,89.5 34,91 			"/>
			<polygon fill="#F8EBCB" points="38,91 35,89.5 35,91.5 38,93 			"/>
			<polygon fill="#F8EBCB" points="42,93 39,91.5 39,93.5 42,95 			"/>
			<polygon fill="#F8EBCB" points="46,95 43,93.5 43,95.5 46,97 			"/>
			<polygon fill="#F8EBCB" points="48,96 47,95.5 47,97.5 48,98 			"/>
		</g>
		<polygon fill="#F8EBCB" points="48,176 0,152 0,131 48,155 		"/>
		<g>
			<polygon fill="#F8EBCB" points="45,112.5 36,108 36,95 45,99.5 			"/>
			<g>
				<polygon fill="#3399CC" points="37,96.5 37,107.5 40,109 40,98 				"/>
				<polygon opacity="0.2" fill="#FFFFFF" points="37,101.5 37,107.5 40,109 				"/>
				<polygon fill="#3399CC" points="41,98.5 41,109.5 44,111 44,100 				"/>
			</g>
			<polygon opacity="0.15" points="40,99 37,97.5 37,96.5 40,98 			"/>
			<polygon opacity="0.15" points="44,101 41,99.5 41,98.5 44,100 			"/>
			<polygon opacity="0.15" points="44,108 41,99.5 41,98.5 44,100 			"/>
			<polygon fill="#F8EBCB" points="44,104 37,100.5 37,99.5 44,103 			"/>
			<polygon fill="#F8EBCB" points="44,108 37,104.5 37,103.5 44,107 			"/>
		</g>
		<g>
			<polygon fill="#F8EBCB" points="34,107 25,102.5 25,89.5 34,94 			"/>
			<g>
				<polygon fill="#3399CC" points="26,91 26,102 29,103.5 29,92.5 				"/>
				<polygon opacity="0.2" fill="#FFFFFF" points="26,96 26,102 29,103.5 				"/>
				<polygon fill="#3399CC" points="30,93 30,104 33,105.5 33,94.5 				"/>
			</g>
			<polygon opacity="0.15" points="29,93.5 26,92 26,91 29,92.5 			"/>
			<polygon opacity="0.15" points="33,95.5 30,94 30,93 33,94.5 			"/>
			<polygon opacity="0.15" points="33,102.5 30,94 30,93 33,94.5 			"/>
			<polygon fill="#F8EBCB" points="33,98.5 26,95 26,94 33,97.5 			"/>
			<polygon fill="#F8EBCB" points="33,102.5 26,99 26,98 33,101.5 			"/>
		</g>
		<g>
			<polygon fill="#F8EBCB" points="23,101.5 14,97 14,84 23,88.5 			"/>
			<g>
				<polygon fill="#3399CC" points="15,85.5 15,96.5 18,98 18,87 				"/>
				<polygon opacity="0.2" fill="#FFFFFF" points="15,90.5 15,96.5 18,98 				"/>
				<polygon fill="#3399CC" points="19,87.5 19,98.5 22,100 22,89 				"/>
			</g>
			<polygon opacity="0.15" points="18,88 15,86.5 15,85.5 18,87 			"/>
			<polygon opacity="0.15" points="22,90 19,88.5 19,87.5 22,89 			"/>
			<polygon opacity="0.15" points="22,97 19,88.5 19,87.5 22,89 			"/>
			<polygon fill="#F8EBCB" points="22,93 15,89.5 15,88.5 22,92 			"/>
			<polygon fill="#F8EBCB" points="22,97 15,93.5 15,92.5 22,96 			"/>
		</g>
		<g>
			<polygon fill="#F8EBCB" points="12,96 3,91.5 3,78.5 12,83 			"/>
			<g>
				<polygon fill="#3399CC" points="4,80 4,91 7,92.5 7,81.5 				"/>
				<polygon opacity="0.2" fill="#FFFFFF" points="4,85 4,91 7,92.5 				"/>
				<polygon fill="#3399CC" points="8,82 8,93 11,94.5 11,83.5 				"/>
			</g>
			<polygon opacity="0.15" points="7,82.5 4,81 4,80 7,81.5 			"/>
			<polygon opacity="0.15" points="11,84.5 8,83 8,82 11,83.5 			"/>
			<polygon opacity="0.15" points="11,91.5 8,83 8,82 11,83.5 			"/>
			<polygon fill="#F8EBCB" points="11,87.5 4,84 4,83 11,86.5 			"/>
			<polygon fill="#F8EBCB" points="11,91.5 4,88 4,87 11,90.5 			"/>
		</g>
		<g>
			<polygon fill="#F8EBCB" points="45,131.5 36,127 36,114 45,118.5 			"/>
			<g>
				<polygon fill="#3399CC" points="37,115.5 37,126.5 40,128 40,117 				"/>
				<polygon opacity="0.2" fill="#FFFFFF" points="37,120.5 37,126.5 40,128 				"/>
				<polygon fill="#3399CC" points="41,117.5 41,128.5 44,130 44,119 				"/>
			</g>
			<polygon opacity="0.15" points="40,118 37,116.5 37,115.5 40,117 			"/>
			<polygon opacity="0.15" points="44,120 41,118.5 41,117.5 44,119 			"/>
			<polygon opacity="0.15" points="44,127 41,118.5 41,117.5 44,119 			"/>
			<polygon fill="#F8EBCB" points="44,123 37,119.5 37,118.5 44,122 			"/>
			<polygon fill="#F8EBCB" points="44,127 37,123.5 37,122.5 44,126 			"/>
		</g>
		<g>
			<polygon fill="#F8EBCB" points="34,126 25,121.5 25,108.5 34,113 			"/>
			<g>
				<polygon fill="#3399CC" points="26,110 26,121 29,122.5 29,111.5 				"/>
				<polygon opacity="0.2" fill="#FFFFFF" points="26,115 26,121 29,122.5 				"/>
				<polygon fill="#3399CC" points="30,112 30,123 33,124.5 33,113.5 				"/>
			</g>
			<polygon opacity="0.15" points="29,112.5 26,111 26,110 29,111.5 			"/>
			<polygon opacity="0.15" points="33,114.5 30,113 30,112 33,113.5 			"/>
			<polygon opacity="0.15" points="33,121.5 30,113 30,112 33,113.5 			"/>
			<polygon fill="#F8EBCB" points="33,117.5 26,114 26,113 33,116.5 			"/>
			<polygon fill="#F8EBCB" points="33,121.5 26,118 26,117 33,120.5 			"/>
		</g>
		<g>
			<polygon fill="#F8EBCB" points="23,120.5 14,116 14,103 23,107.5 			"/>
			<g>
				<polygon fill="#3399CC" points="15,104.5 15,115.5 18,117 18,106 				"/>
				<polygon opacity="0.2" fill="#FFFFFF" points="15,109.5 15,115.5 18,117 				"/>
				<polygon fill="#3399CC" points="19,106.5 19,117.5 22,119 22,108 				"/>
			</g>
			<polygon opacity="0.15" points="18,107 15,105.5 15,104.5 18,106 			"/>
			<polygon opacity="0.15" points="22,109 19,107.5 19,106.5 22,108 			"/>
			<polygon opacity="0.15" points="22,116 19,107.5 19,106.5 22,108 			"/>
			<polygon fill="#F8EBCB" points="22,112 15,108.5 15,107.5 22,111 			"/>
			<polygon fill="#F8EBCB" points="22,116 15,112.5 15,111.5 22,115 			"/>
		</g>
		<g>
			<polygon fill="#F8EBCB" points="12,115 3,110.5 3,97.5 12,102 			"/>
			<g>
				<polygon fill="#3399CC" points="4,99 4,110 7,111.5 7,100.5 				"/>
				<polygon opacity="0.2" fill="#FFFFFF" points="4,104 4,110 7,111.5 				"/>
				<polygon fill="#3399CC" points="8,101 8,112 11,113.5 11,102.5 				"/>
			</g>
			<polygon opacity="0.15" points="7,101.5 4,100 4,99 7,100.5 			"/>
			<polygon opacity="0.15" points="11,103.5 8,102 8,101 11,102.5 			"/>
			<polygon opacity="0.15" points="11,110.5 8,102 8,101 11,102.5 			"/>
			<polygon fill="#F8EBCB" points="11,106.5 4,103 4,102 11,105.5 			"/>
			<polygon fill="#F8EBCB" points="11,110.5 4,107 4,106 11,109.5 			"/>
		</g>
		<polygon fill="#F8EBCB" points="45,117.5 36,113 36,112 45,116.5 		"/>
		<polygon fill="#F8EBCB" points="34,112 25,107.5 25,106.5 34,111 		"/>
		<polygon fill="#F8EBCB" points="23,106.5 14,102 14,101 23,105.5 		"/>
		<polygon fill="#F8EBCB" points="12,101 3,96.5 3,95.5 12,100 		"/>
		<g>
			<polygon fill="#F8EBCB" points="45,151.5 36,147 36,134 45,138.5 			"/>
			<g>
				<polygon fill="#3399CC" points="37,135.5 37,146.5 40,148 40,137 				"/>
				<polygon opacity="0.2" fill="#FFFFFF" points="37,140.5 37,146.5 40,148 				"/>
				<polygon fill="#3399CC" points="41,137.5 41,148.5 44,150 44,139 				"/>
			</g>
			<polygon opacity="0.15" points="40,138 37,136.5 37,135.5 40,137 			"/>
			<polygon opacity="0.15" points="44,140 41,138.5 41,137.5 44,139 			"/>
			<polygon opacity="0.15" points="44,147 41,138.5 41,137.5 44,139 			"/>
			<polygon fill="#F8EBCB" points="44,143 37,139.5 37,138.5 44,142 			"/>
			<polygon fill="#F8EBCB" points="44,147 37,143.5 37,142.5 44,146 			"/>
		</g>
		<g>
			<polygon fill="#F8EBCB" points="34,146 25,141.5 25,128.5 34,133 			"/>
			<g>
				<polygon fill="#3399CC" points="26,130 26,141 29,142.5 29,131.5 				"/>
				<polygon opacity="0.2" fill="#FFFFFF" points="26,135 26,141 29,142.5 				"/>
				<polygon fill="#3399CC" points="30,132 30,143 33,144.5 33,133.5 				"/>
			</g>
			<polygon opacity="0.15" points="29,132.5 26,131 26,130 29,131.5 			"/>
			<polygon opacity="0.15" points="33,134.5 30,133 30,132 33,133.5 			"/>
			<polygon opacity="0.15" points="33,141.5 30,133 30,132 33,133.5 			"/>
			<polygon fill="#F8EBCB" points="33,137.5 26,134 26,133 33,136.5 			"/>
			<polygon fill="#F8EBCB" points="33,141.5 26,138 26,137 33,140.5 			"/>
		</g>
		<g>
			<polygon fill="#F8EBCB" points="23,140.5 14,136 14,123 23,127.5 			"/>
			<g>
				<polygon fill="#3399CC" points="15,124.5 15,135.5 18,137 18,126 				"/>
				<polygon opacity="0.2" fill="#FFFFFF" points="15,129.5 15,135.5 18,137 				"/>
				<polygon fill="#3399CC" points="19,126.5 19,137.5 22,139 22,128 				"/>
			</g>
			<polygon opacity="0.15" points="18,127 15,125.5 15,124.5 18,126 			"/>
			<polygon opacity="0.15" points="22,129 19,127.5 19,126.5 22,128 			"/>
			<polygon opacity="0.15" points="22,136 19,127.5 19,126.5 22,128 			"/>
			<polygon fill="#F8EBCB" points="22,132 15,128.5 15,127.5 22,131 			"/>
			<polygon fill="#F8EBCB" points="22,136 15,132.5 15,131.5 22,135 			"/>
		</g>
		<g>
			<polygon fill="#F8EBCB" points="12,135 3,130.5 3,117.5 12,122 			"/>
			<g>
				<polygon fill="#3399CC" points="4,119 4,130 7,131.5 7,120.5 				"/>
				<polygon opacity="0.2" fill="#FFFFFF" points="4,124 4,130 7,131.5 				"/>
				<polygon fill="#3399CC" points="8,121 8,132 11,133.5 11,122.5 				"/>
			</g>
			<polygon opacity="0.15" points="7,121.5 4,120 4,119 7,120.5 			"/>
			<polygon opacity="0.15" points="11,123.5 8,122 8,121 11,122.5 			"/>
			<polygon opacity="0.15" points="11,130.5 8,122 8,121 11,122.5 			"/>
			<polygon fill="#F8EBCB" points="11,126.5 4,123 4,122 11,125.5 			"/>
			<polygon fill="#F8EBCB" points="11,130.5 4,127 4,126 11,129.5 			"/>
		</g>
		<g>
			<polygon fill="#825012" points="45,174.5 36,170 36,153 45,157.5 			"/>
			<g opacity="0.6">
				<polygon opacity="0.2" fill="#FFFFFF" points="37,154.5 37,157.5 40,159 40,156 				"/>
			</g>
			<polygon opacity="0.2" fill="#FFFFFF" points="40,157 37,155.5 37,154.5 40,156 			"/>
			<g opacity="0.6">
				<polygon opacity="0.2" fill="#FFFFFF" points="41,156.5 41,159.5 44,161 44,158 				"/>
			</g>
			<polygon opacity="0.2" fill="#FFFFFF" points="44,159 41,157.5 41,156.5 44,158 			"/>
			<g opacity="0.6">
				<polygon opacity="0.2" fill="#FFFFFF" points="37,158.5 37,161.5 40,163 40,160 				"/>
			</g>
			<polygon opacity="0.2" fill="#FFFFFF" points="40,161 37,159.5 37,158.5 40,160 			"/>
			<g opacity="0.6">
				<polygon opacity="0.2" fill="#FFFFFF" points="41,160.5 41,163.5 44,165 44,162 				"/>
			</g>
			<polygon opacity="0.2" fill="#FFFFFF" points="44,163 41,161.5 41,160.5 44,162 			"/>
			<g opacity="0.6">
				<polygon opacity="0.2" fill="#FFFFFF" points="37,162.5 37,165.5 40,167 40,164 				"/>
			</g>
			<polygon opacity="0.2" fill="#FFFFFF" points="40,165 37,163.5 37,162.5 40,164 			"/>
			<g opacity="0.6">
				<polygon opacity="0.2" fill="#FFFFFF" points="41,164.5 41,167.5 44,169 44,166 				"/>
			</g>
			<polygon opacity="0.2" fill="#FFFFFF" points="44,167 41,165.5 41,164.5 44,166 			"/>
			<g opacity="0.6">
				<polygon opacity="0.2" fill="#FFFFFF" points="37,166.5 37,169.5 40,171 40,168 				"/>
			</g>
			<polygon opacity="0.2" fill="#FFFFFF" points="40,169 37,167.5 37,166.5 40,168 			"/>
			<g opacity="0.6">
				<polygon opacity="0.2" fill="#FFFFFF" points="41,168.5 41,171.5 44,173 44,170 				"/>
			</g>
			<polygon opacity="0.2" fill="#FFFFFF" points="44,171 41,169.5 41,168.5 44,170 			"/>
		</g>
		<g>
			<polygon fill="#825012" points="12,158 3,153.5 3,136.5 12,141 			"/>
			<g>
				<polygon fill="#3399CC" points="4,138 4,153 7,154.5 7,139.5 				"/>
				<polygon opacity="0.2" fill="#FFFFFF" points="4,143 4,153 7,154.5 				"/>
				<polygon fill="#3399CC" points="8,140 8,155 11,156.5 11,141.5 				"/>
			</g>
			<polygon opacity="0.15" points="7,140.5 4,139 4,138 7,139.5 			"/>
			<polygon opacity="0.15" points="11,142.5 8,141 8,140 11,141.5 			"/>
			<polygon opacity="0.15" points="11,149.5 8,141 8,140 11,141.5 			"/>
		</g>
		<g>
			<polygon fill="#825012" points="34,165 14,155 14,142 34,152 			"/>
			<g>
				<polygon fill="#3399CC" points="15,143.5 15,154.5 33,163.5 33,152.5 				"/>
				<polygon opacity="0.2" fill="#FFFFFF" points="15,145.5 15,150.5 31,162.5 				"/>
			</g>
			<polygon opacity="0.15" points="33,153.5 15,144.5 15,143.5 33,152.5 			"/>
			<polygon opacity="0.15" points="33,157.5 16,144 33,152.5 			"/>
		</g>
		<polygon fill="#F8EBCB" points="45,137.5 36,133 36,132 40,132 41,132.5 45,136.5 		"/>
		<polygon fill="#F8EBCB" points="34,132 25,127.5 25,126.5 29,126.5 30,127 34,131 		"/>
		<polygon fill="#F8EBCB" points="23,126.5 14,122 14,121 18,121 19,121.5 23,125.5 		"/>
		<polygon fill="#F8EBCB" points="12,121 3,116.5 3,115.5 7,115.5 8,116 12,120 		"/>
		<polygon fill="#2D3134" points="34,151 3,135.5 3,133.5 34,149 		"/>
		<polygon fill="#825012" points="19,156.5 18,156 18,145 19,145.5 		"/>
		<polygon fill="#825012" points="30,162 29,161.5 29,150.5 30,151 		"/>
		<polygon opacity="0.06" points="48,176 0,152 0,72 48,96 		"/>
	</g>
	<g>
		<polygon fill="#CC291F" points="112,134 48,166 48,96 80,27 112,64 		"/>
		<g>
			<g opacity="0.2">
				<polygon fill="#F8EBCB" points="52,171 49,172.5 49,174.5 52,173 				"/>
				<polygon fill="#F8EBCB" points="56,169 53,170.5 53,172.5 56,171 				"/>
				<polygon fill="#F8EBCB" points="60,167 57,168.5 57,170.5 60,169 				"/>
				<polygon fill="#F8EBCB" points="64,165 61,166.5 61,168.5 64,167 				"/>
				<polygon fill="#F8EBCB" points="68,163 65,164.5 65,166.5 68,165 				"/>
				<polygon fill="#F8EBCB" points="72,161 69,162.5 69,164.5 72,163 				"/>
				<polygon fill="#F8EBCB" points="76,159 73,160.5 73,162.5 76,161 				"/>
				<polygon fill="#F8EBCB" points="80,157 77,158.5 77,160.5 80,159 				"/>
				<polygon fill="#F8EBCB" points="84,155 81,156.5 81,158.5 84,157 				"/>
				<polygon fill="#F8EBCB" points="88,153 85,154.5 85,156.5 88,155 				"/>
				<polygon fill="#F8EBCB" points="92,151 89,152.5 89,154.5 92,153 				"/>
				<polygon fill="#F8EBCB" points="96,149 93,150.5 93,152.5 96,151 				"/>
				<polygon fill="#F8EBCB" points="100,147 97,148.5 97,150.5 100,149 				"/>
				<polygon fill="#F8EBCB" points="104,145 101,146.5 101,148.5 104,147 				"/>
				<polygon fill="#F8EBCB" points="108,143 105,144.5 105,146.5 108,145 				"/>
				<polygon fill="#F8EBCB" points="50,169 48,170 48,172 50,171 				"/>
				<polygon fill="#F8EBCB" points="54,167 51,168.5 51,170.5 54,169 				"/>
				<polygon fill="#F8EBCB" points="58,165 55,166.5 55,168.5 58,167 				"/>
				<polygon fill="#F8EBCB" points="62,163 59,164.5 59,166.5 62,165 				"/>
				<polygon fill="#F8EBCB" points="66,161 63,162.5 63,164.5 66,163 				"/>
				<polygon fill="#F8EBCB" points="70,159 67,160.5 67,162.5 70,161 				"/>
				<polygon fill="#F8EBCB" points="74,157 71,158.5 71,160.5 74,159 				"/>
				<polygon fill="#F8EBCB" points="78,155 75,156.5 75,158.5 78,157 				"/>
				<polygon fill="#F8EBCB" points="82,153 79,154.5 79,156.5 82,155 				"/>
				<polygon fill="#F8EBCB" points="86,151 83,152.5 83,154.5 86,153 				"/>
				<polygon fill="#F8EBCB" points="90,149 87,150.5 87,152.5 90,151 				"/>
				<polygon fill="#F8EBCB" points="94,147 91,148.5 91,150.5 94,149 				"/>
				<polygon fill="#F8EBCB" points="98,145 95,146.5 95,148.5 98,147 				"/>
				<polygon fill="#F8EBCB" points="102,143 99,144.5 99,146.5 102,145 				"/>
				<polygon fill="#F8EBCB" points="106,141 103,142.5 103,144.5 106,143 				"/>
				<polygon fill="#F8EBCB" points="110,139 107,140.5 107,142.5 110,141 				"/>
				<polygon fill="#F8EBCB" points="52,165 49,166.5 49,168.5 52,167 				"/>
				<polygon fill="#F8EBCB" points="56,163 53,164.5 53,166.5 56,165 				"/>
				<polygon fill="#F8EBCB" points="60,161 57,162.5 57,164.5 60,163 				"/>
				<polygon fill="#F8EBCB" points="64,159 61,160.5 61,162.5 64,161 				"/>
				<polygon fill="#F8EBCB" points="68,157 65,158.5 65,160.5 68,159 				"/>
				<polygon fill="#F8EBCB" points="72,155 69,156.5 69,158.5 72,157 				"/>
				<polygon fill="#F8EBCB" points="76,153 73,154.5 73,156.5 76,155 				"/>
				<polygon fill="#F8EBCB" points="80,151 77,152.5 77,154.5 80,153 				"/>
				<polygon fill="#F8EBCB" points="84,149 81,150.5 81,152.5 84,151 				"/>
				<polygon fill="#F8EBCB" points="88,147 85,148.5 85,150.5 88,149 				"/>
				<polygon fill="#F8EBCB" points="92,145 89,146.5 89,148.5 92,147 				"/>
				<polygon fill="#F8EBCB" points="96,143 93,144.5 93,146.5 96,145 				"/>
				<polygon fill="#F8EBCB" points="100,141 97,142.5 97,144.5 100,143 				"/>
				<polygon fill="#F8EBCB" points="104,139 101,140.5 101,142.5 104,141 				"/>
				<polygon fill="#F8EBCB" points="108,137 105,138.5 105,140.5 108,139 				"/>
				<polygon fill="#F8EBCB" points="50,163 48,164 48,166 50,165 				"/>
				<polygon fill="#F8EBCB" points="54,161 51,162.5 51,164.5 54,163 				"/>
				<polygon fill="#F8EBCB" points="58,159 55,160.5 55,162.5 58,161 				"/>
				<polygon fill="#F8EBCB" points="62,157 59,158.5 59,160.5 62,159 				"/>
				<polygon fill="#F8EBCB" points="66,155 63,156.5 63,158.5 66,157 				"/>
				<polygon fill="#F8EBCB" points="70,153 67,154.5 67,156.5 70,155 				"/>
				<polygon fill="#F8EBCB" points="74,151 71,152.5 71,154.5 74,153 				"/>
				<polygon fill="#F8EBCB" points="78,149 75,150.5 75,152.5 78,151 				"/>
				<polygon fill="#F8EBCB" points="82,147 79,148.5 79,150.5 82,149 				"/>
				<polygon fill="#F8EBCB" points="86,145 83,146.5 83,148.5 86,147 				"/>
				<polygon fill="#F8EBCB" points="90,143 87,144.5 87,146.5 90,145 				"/>
				<polygon fill="#F8EBCB" points="94,141 91,142.5 91,144.5 94,143 				"/>
				<polygon fill="#F8EBCB" points="98,139 95,140.5 95,142.5 98,141 				"/>
				<polygon fill="#F8EBCB" points="102,137 99,138.5 99,140.5 102,139 				"/>
				<polygon fill="#F8EBCB" points="106,135 103,136.5 103,138.5 106,137 				"/>
				<polygon fill="#F8EBCB" points="110,133 107,134.5 107,136.5 110,135 				"/>
				<polygon fill="#F8EBCB" points="52,159 49,160.5 49,162.5 52,161 				"/>
				<polygon fill="#F8EBCB" points="56,157 53,158.5 53,160.5 56,159 				"/>
				<polygon fill="#F8EBCB" points="60,155 57,156.5 57,158.5 60,157 				"/>
				<polygon fill="#F8EBCB" points="64,153 61,154.5 61,156.5 64,155 				"/>
				<polygon fill="#F8EBCB" points="68,151 65,152.5 65,154.5 68,153 				"/>
				<polygon fill="#F8EBCB" points="72,149 69,150.5 69,152.5 72,151 				"/>
				<polygon fill="#F8EBCB" points="76,147 73,148.5 73,150.5 76,149 				"/>
				<polygon fill="#F8EBCB" points="80,145 77,146.5 77,148.5 80,147 				"/>
				<polygon fill="#F8EBCB" points="84,143 81,144.5 81,146.5 84,145 				"/>
				<polygon fill="#F8EBCB" points="88,141 85,142.5 85,144.5 88,143 				"/>
				<polygon fill="#F8EBCB" points="92,139 89,140.5 89,142.5 92,141 				"/>
				<polygon fill="#F8EBCB" points="96,137 93,138.5 93,140.5 96,139 				"/>
				<polygon fill="#F8EBCB" points="100,135 97,136.5 97,138.5 100,137 				"/>
				<polygon fill="#F8EBCB" points="104,133 101,134.5 101,136.5 104,135 				"/>
				<polygon fill="#F8EBCB" points="108,131 105,132.5 105,134.5 108,133 				"/>
				<polygon fill="#F8EBCB" points="50,157 48,158 48,160 50,159 				"/>
				<polygon fill="#F8EBCB" points="54,155 51,156.5 51,158.5 54,157 				"/>
				<polygon fill="#F8EBCB" points="58,153 55,154.5 55,156.5 58,155 				"/>
				<polygon fill="#F8EBCB" points="62,151 59,152.5 59,154.5 62,153 				"/>
				<polygon fill="#F8EBCB" points="66,149 63,150.5 63,152.5 66,151 				"/>
				<polygon fill="#F8EBCB" points="70,147 67,148.5 67,150.5 70,149 				"/>
				<polygon fill="#F8EBCB" points="74,145 71,146.5 71,148.5 74,147 				"/>
				<polygon fill="#F8EBCB" points="78,143 75,144.5 75,146.5 78,145 				"/>
				<polygon fill="#F8EBCB" points="82,141 79,142.5 79,144.5 82,143 				"/>
				<polygon fill="#F8EBCB" points="86,139 83,140.5 83,142.5 86,141 				"/>
				<polygon fill="#F8EBCB" points="90,137 87,138.5 87,140.5 90,139 				"/>
				<polygon fill="#F8EBCB" points="94,135 91,136.5 91,138.5 94,137 				"/>
				<polygon fill="#F8EBCB" points="98,133 95,134.5 95,136.5 98,135 				"/>
				<polygon fill="#F8EBCB" points="102,131 99,132.5 99,134.5 102,133 				"/>
				<polygon fill="#F8EBCB" points="106,129 103,130.5 103,132.5 106,131 				"/>
				<polygon fill="#F8EBCB" points="110,127 107,128.5 107,130.5 110,129 				"/>
				<polygon fill="#F8EBCB" points="52,153 49,154.5 49,156.5 52,155 				"/>
				<polygon fill="#F8EBCB" points="56,151 53,152.5 53,154.5 56,153 				"/>
				<polygon fill="#F8EBCB" points="60,149 57,150.5 57,152.5 60,151 				"/>
				<polygon fill="#F8EBCB" points="64,147 61,148.5 61,150.5 64,149 				"/>
				<polygon fill="#F8EBCB" points="68,145 65,146.5 65,148.5 68,147 				"/>
				<polygon fill="#F8EBCB" points="72,143 69,144.5 69,146.5 72,145 				"/>
				<polygon fill="#F8EBCB" points="76,141 73,142.5 73,144.5 76,143 				"/>
				<polygon fill="#F8EBCB" points="80,139 77,140.5 77,142.5 80,141 				"/>
				<polygon fill="#F8EBCB" points="84,137 81,138.5 81,140.5 84,139 				"/>
				<polygon fill="#F8EBCB" points="88,135 85,136.5 85,138.5 88,137 				"/>
				<polygon fill="#F8EBCB" points="92,133 89,134.5 89,136.5 92,135 				"/>
				<polygon fill="#F8EBCB" points="96,131 93,132.5 93,134.5 96,133 				"/>
				<polygon fill="#F8EBCB" points="100,129 97,130.5 97,132.5 100,131 				"/>
				<polygon fill="#F8EBCB" points="104,127 101,128.5 101,130.5 104,129 				"/>
				<polygon fill="#F8EBCB" points="108,125 105,126.5 105,128.5 108,127 				"/>
				<polygon fill="#F8EBCB" points="50,151 48,152 48,154 50,153 				"/>
				<polygon fill="#F8EBCB" points="54,149 51,150.5 51,152.5 54,151 				"/>
				<polygon fill="#F8EBCB" points="58,147 55,148.5 55,150.5 58,149 				"/>
				<polygon fill="#F8EBCB" points="62,145 59,146.5 59,148.5 62,147 				"/>
				<polygon fill="#F8EBCB" points="66,143 63,144.5 63,146.5 66,145 				"/>
				<polygon fill="#F8EBCB" points="70,141 67,142.5 67,144.5 70,143 				"/>
				<polygon fill="#F8EBCB" points="74,139 71,140.5 71,142.5 74,141 				"/>
				<polygon fill="#F8EBCB" points="78,137 75,138.5 75,140.5 78,139 				"/>
				<polygon fill="#F8EBCB" points="82,135 79,136.5 79,138.5 82,137 				"/>
				<polygon fill="#F8EBCB" points="86,133 83,134.5 83,136.5 86,135 				"/>
				<polygon fill="#F8EBCB" points="90,131 87,132.5 87,134.5 90,133 				"/>
				<polygon fill="#F8EBCB" points="94,129 91,130.5 91,132.5 94,131 				"/>
				<polygon fill="#F8EBCB" points="98,127 95,128.5 95,130.5 98,129 				"/>
				<polygon fill="#F8EBCB" points="102,125 99,126.5 99,128.5 102,127 				"/>
				<polygon fill="#F8EBCB" points="106,123 103,124.5 103,126.5 106,125 				"/>
				<polygon fill="#F8EBCB" points="110,121 107,122.5 107,124.5 110,123 				"/>
				<polygon fill="#F8EBCB" points="52,147 49,148.5 49,150.5 52,149 				"/>
				<polygon fill="#F8EBCB" points="56,145 53,146.5 53,148.5 56,147 				"/>
				<polygon fill="#F8EBCB" points="60,143 57,144.5 57,146.5 60,145 				"/>
				<polygon fill="#F8EBCB" points="64,141 61,142.5 61,144.5 64,143 				"/>
				<polygon fill="#F8EBCB" points="68,139 65,140.5 65,142.5 68,141 				"/>
				<polygon fill="#F8EBCB" points="72,137 69,138.5 69,140.5 72,139 				"/>
				<polygon fill="#F8EBCB" points="76,135 73,136.5 73,138.5 76,137 				"/>
				<polygon fill="#F8EBCB" points="80,133 77,134.5 77,136.5 80,135 				"/>
				<polygon fill="#F8EBCB" points="84,131 81,132.5 81,134.5 84,133 				"/>
				<polygon fill="#F8EBCB" points="88,129 85,130.5 85,132.5 88,131 				"/>
				<polygon fill="#F8EBCB" points="92,127 89,128.5 89,130.5 92,129 				"/>
				<polygon fill="#F8EBCB" points="96,125 93,126.5 93,128.5 96,127 				"/>
				<polygon fill="#F8EBCB" points="100,123 97,124.5 97,126.5 100,125 				"/>
				<polygon fill="#F8EBCB" points="104,121 101,122.5 101,124.5 104,123 				"/>
				<polygon fill="#F8EBCB" points="108,119 105,120.5 105,122.5 108,121 				"/>
				<polygon fill="#F8EBCB" points="50,145 48,146 48,148 50,147 				"/>
				<polygon fill="#F8EBCB" points="54,143 51,144.5 51,146.5 54,145 				"/>
				<polygon fill="#F8EBCB" points="58,141 55,142.5 55,144.5 58,143 				"/>
				<polygon fill="#F8EBCB" points="62,139 59,140.5 59,142.5 62,141 				"/>
				<polygon fill="#F8EBCB" points="66,137 63,138.5 63,140.5 66,139 				"/>
				<polygon fill="#F8EBCB" points="70,135 67,136.5 67,138.5 70,137 				"/>
				<polygon fill="#F8EBCB" points="74,133 71,134.5 71,136.5 74,135 				"/>
				<polygon fill="#F8EBCB" points="78,131 75,132.5 75,134.5 78,133 				"/>
				<polygon fill="#F8EBCB" points="82,129 79,130.5 79,132.5 82,131 				"/>
				<polygon fill="#F8EBCB" points="86,127 83,128.5 83,130.5 86,129 				"/>
				<polygon fill="#F8EBCB" points="90,125 87,126.5 87,128.5 90,127 				"/>
				<polygon fill="#F8EBCB" points="94,123 91,124.5 91,126.5 94,125 				"/>
				<polygon fill="#F8EBCB" points="98,121 95,122.5 95,124.5 98,123 				"/>
				<polygon fill="#F8EBCB" points="102,119 99,120.5 99,122.5 102,121 				"/>
				<polygon fill="#F8EBCB" points="106,117 103,118.5 103,120.5 106,119 				"/>
				<polygon fill="#F8EBCB" points="110,115 107,116.5 107,118.5 110,117 				"/>
				<polygon fill="#F8EBCB" points="52,141 49,142.5 49,144.5 52,143 				"/>
				<polygon fill="#F8EBCB" points="56,139 53,140.5 53,142.5 56,141 				"/>
				<polygon fill="#F8EBCB" points="60,137 57,138.5 57,140.5 60,139 				"/>
				<polygon fill="#F8EBCB" points="64,135 61,136.5 61,138.5 64,137 				"/>
				<polygon fill="#F8EBCB" points="68,133 65,134.5 65,136.5 68,135 				"/>
				<polygon fill="#F8EBCB" points="72,131 69,132.5 69,134.5 72,133 				"/>
				<polygon fill="#F8EBCB" points="76,129 73,130.5 73,132.5 76,131 				"/>
				<polygon fill="#F8EBCB" points="80,127 77,128.5 77,130.5 80,129 				"/>
				<polygon fill="#F8EBCB" points="84,125 81,126.5 81,128.5 84,127 				"/>
				<polygon fill="#F8EBCB" points="88,123 85,124.5 85,126.5 88,125 				"/>
				<polygon fill="#F8EBCB" points="92,121 89,122.5 89,124.5 92,123 				"/>
				<polygon fill="#F8EBCB" points="96,119 93,120.5 93,122.5 96,121 				"/>
				<polygon fill="#F8EBCB" points="100,117 97,118.5 97,120.5 100,119 				"/>
				<polygon fill="#F8EBCB" points="104,115 101,116.5 101,118.5 104,117 				"/>
				<polygon fill="#F8EBCB" points="108,113 105,114.5 105,116.5 108,115 				"/>
				<polygon fill="#F8EBCB" points="50,139 48,140 48,142 50,141 				"/>
				<polygon fill="#F8EBCB" points="54,137 51,138.5 51,140.5 54,139 				"/>
				<polygon fill="#F8EBCB" points="58,135 55,136.5 55,138.5 58,137 				"/>
				<polygon fill="#F8EBCB" points="62,133 59,134.5 59,136.5 62,135 				"/>
				<polygon fill="#F8EBCB" points="66,131 63,132.5 63,134.5 66,133 				"/>
				<polygon fill="#F8EBCB" points="70,129 67,130.5 67,132.5 70,131 				"/>
				<polygon fill="#F8EBCB" points="74,127 71,128.5 71,130.5 74,129 				"/>
				<polygon fill="#F8EBCB" points="78,125 75,126.5 75,128.5 78,127 				"/>
				<polygon fill="#F8EBCB" points="82,123 79,124.5 79,126.5 82,125 				"/>
				<polygon fill="#F8EBCB" points="86,121 83,122.5 83,124.5 86,123 				"/>
				<polygon fill="#F8EBCB" points="90,119 87,120.5 87,122.5 90,121 				"/>
				<polygon fill="#F8EBCB" points="94,117 91,118.5 91,120.5 94,119 				"/>
				<polygon fill="#F8EBCB" points="98,115 95,116.5 95,118.5 98,117 				"/>
				<polygon fill="#F8EBCB" points="102,113 99,114.5 99,116.5 102,115 				"/>
				<polygon fill="#F8EBCB" points="106,111 103,112.5 103,114.5 106,113 				"/>
				<polygon fill="#F8EBCB" points="110,109 107,110.5 107,112.5 110,111 				"/>
				<polygon fill="#F8EBCB" points="52,135 49,136.5 49,138.5 52,137 				"/>
				<polygon fill="#F8EBCB" points="56,133 53,134.5 53,136.5 56,135 				"/>
				<polygon fill="#F8EBCB" points="60,131 57,132.5 57,134.5 60,133 				"/>
				<polygon fill="#F8EBCB" points="64,129 61,130.5 61,132.5 64,131 				"/>
				<polygon fill="#F8EBCB" points="68,127 65,128.5 65,130.5 68,129 				"/>
				<polygon fill="#F8EBCB" points="72,125 69,126.5 69,128.5 72,127 				"/>
				<polygon fill="#F8EBCB" points="76,123 73,124.5 73,126.5 76,125 				"/>
				<polygon fill="#F8EBCB" points="80,121 77,122.5 77,124.5 80,123 				"/>
				<polygon fill="#F8EBCB" points="84,119 81,120.5 81,122.5 84,121 				"/>
				<polygon fill="#F8EBCB" points="88,117 85,118.5 85,120.5 88,119 				"/>
				<polygon fill="#F8EBCB" points="92,115 89,116.5 89,118.5 92,117 				"/>
				<polygon fill="#F8EBCB" points="96,113 93,114.5 93,116.5 96,115 				"/>
				<polygon fill="#F8EBCB" points="100,111 97,112.5 97,114.5 100,113 				"/>
				<polygon fill="#F8EBCB" points="104,109 101,110.5 101,112.5 104,111 				"/>
				<polygon fill="#F8EBCB" points="108,107 105,108.5 105,110.5 108,109 				"/>
				<polygon fill="#F8EBCB" points="50,133 48,134 48,136 50,135 				"/>
				<polygon fill="#F8EBCB" points="54,131 51,132.5 51,134.5 54,133 				"/>
				<polygon fill="#F8EBCB" points="58,129 55,130.5 55,132.5 58,131 				"/>
				<polygon fill="#F8EBCB" points="62,127 59,128.5 59,130.5 62,129 				"/>
				<polygon fill="#F8EBCB" points="66,125 63,126.5 63,128.5 66,127 				"/>
				<polygon fill="#F8EBCB" points="70,123 67,124.5 67,126.5 70,125 				"/>
				<polygon fill="#F8EBCB" points="74,121 71,122.5 71,124.5 74,123 				"/>
				<polygon fill="#F8EBCB" points="78,119 75,120.5 75,122.5 78,121 				"/>
				<polygon fill="#F8EBCB" points="82,117 79,118.5 79,120.5 82,119 				"/>
				<polygon fill="#F8EBCB" points="86,115 83,116.5 83,118.5 86,117 				"/>
				<polygon fill="#F8EBCB" points="90,113 87,114.5 87,116.5 90,115 				"/>
				<polygon fill="#F8EBCB" points="94,111 91,112.5 91,114.5 94,113 				"/>
				<polygon fill="#F8EBCB" points="98,109 95,110.5 95,112.5 98,111 				"/>
				<polygon fill="#F8EBCB" points="102,107 99,108.5 99,110.5 102,109 				"/>
				<polygon fill="#F8EBCB" points="106,105 103,106.5 103,108.5 106,107 				"/>
				<polygon fill="#F8EBCB" points="110,103 107,104.5 107,106.5 110,105 				"/>
				<polygon fill="#F8EBCB" points="112,141 109,142.5 109,144.5 112,143 				"/>
				<polygon fill="#F8EBCB" points="112,138 111,138.5 111,140.5 112,140 				"/>
				<polygon fill="#F8EBCB" points="112,135 109,136.5 109,138.5 112,137 				"/>
				<polygon fill="#F8EBCB" points="112,132 111,132.5 111,134.5 112,134 				"/>
				<polygon fill="#F8EBCB" points="112,129 109,130.5 109,132.5 112,131 				"/>
				<polygon fill="#F8EBCB" points="112,126 111,126.5 111,128.5 112,128 				"/>
				<polygon fill="#F8EBCB" points="112,123 109,124.5 109,126.5 112,125 				"/>
				<polygon fill="#F8EBCB" points="112,120 111,120.5 111,122.5 112,122 				"/>
				<polygon fill="#F8EBCB" points="112,117 109,118.5 109,120.5 112,119 				"/>
				<polygon fill="#F8EBCB" points="112,114 111,114.5 111,116.5 112,116 				"/>
				<polygon fill="#F8EBCB" points="112,111 109,112.5 109,114.5 112,113 				"/>
				<polygon fill="#F8EBCB" points="112,108 111,108.5 111,110.5 112,110 				"/>
				<polygon fill="#F8EBCB" points="112,105 109,106.5 109,108.5 112,107 				"/>
				<polygon fill="#F8EBCB" points="112,102 111,102.5 111,104.5 112,104 				"/>
			</g>
			<g opacity="0.2">
				<polygon fill="#F8EBCB" points="52,129 49,130.5 49,132.5 52,131 				"/>
				<polygon fill="#F8EBCB" points="56,127 53,128.5 53,130.5 56,129 				"/>
				<polygon fill="#F8EBCB" points="60,125 57,126.5 57,128.5 60,127 				"/>
				<polygon fill="#F8EBCB" points="64,123 61,124.5 61,126.5 64,125 				"/>
				<polygon fill="#F8EBCB" points="68,121 65,122.5 65,124.5 68,123 				"/>
				<polygon fill="#F8EBCB" points="72,119 69,120.5 69,122.5 72,121 				"/>
				<polygon fill="#F8EBCB" points="76,117 73,118.5 73,120.5 76,119 				"/>
				<polygon fill="#F8EBCB" points="80,115 77,116.5 77,118.5 80,117 				"/>
				<polygon fill="#F8EBCB" points="84,113 81,114.5 81,116.5 84,115 				"/>
				<polygon fill="#F8EBCB" points="88,111 85,112.5 85,114.5 88,113 				"/>
				<polygon fill="#F8EBCB" points="92,109 89,110.5 89,112.5 92,111 				"/>
				<polygon fill="#F8EBCB" points="96,107 93,108.5 93,110.5 96,109 				"/>
				<polygon fill="#F8EBCB" points="100,105 97,106.5 97,108.5 100,107 				"/>
				<polygon fill="#F8EBCB" points="104,103 101,104.5 101,106.5 104,105 				"/>
				<polygon fill="#F8EBCB" points="108,101 105,102.5 105,104.5 108,103 				"/>
				<polygon fill="#F8EBCB" points="50,127 48,128 48,130 50,129 				"/>
				<polygon fill="#F8EBCB" points="54,125 51,126.5 51,128.5 54,127 				"/>
				<polygon fill="#F8EBCB" points="58,123 55,124.5 55,126.5 58,125 				"/>
				<polygon fill="#F8EBCB" points="62,121 59,122.5 59,124.5 62,123 				"/>
				<polygon fill="#F8EBCB" points="66,119 63,120.5 63,122.5 66,121 				"/>
				<polygon fill="#F8EBCB" points="70,117 67,118.5 67,120.5 70,119 				"/>
				<polygon fill="#F8EBCB" points="74,115 71,116.5 71,118.5 74,117 				"/>
				<polygon fill="#F8EBCB" points="78,113 75,114.5 75,116.5 78,115 				"/>
				<polygon fill="#F8EBCB" points="82,111 79,112.5 79,114.5 82,113 				"/>
				<polygon fill="#F8EBCB" points="86,109 83,110.5 83,112.5 86,111 				"/>
				<polygon fill="#F8EBCB" points="90,107 87,108.5 87,110.5 90,109 				"/>
				<polygon fill="#F8EBCB" points="94,105 91,106.5 91,108.5 94,107 				"/>
				<polygon fill="#F8EBCB" points="98,103 95,104.5 95,106.5 98,105 				"/>
				<polygon fill="#F8EBCB" points="102,101 99,102.5 99,104.5 102,103 				"/>
				<polygon fill="#F8EBCB" points="106,99 103,100.5 103,102.5 106,101 				"/>
				<polygon fill="#F8EBCB" points="110,97 107,98.5 107,100.5 110,99 				"/>
				<polygon fill="#F8EBCB" points="52,123 49,124.5 49,126.5 52,125 				"/>
				<polygon fill="#F8EBCB" points="56,121 53,122.5 53,124.5 56,123 				"/>
				<polygon fill="#F8EBCB" points="60,119 57,120.5 57,122.5 60,121 				"/>
				<polygon fill="#F8EBCB" points="64,117 61,118.5 61,120.5 64,119 				"/>
				<polygon fill="#F8EBCB" points="68,115 65,116.5 65,118.5 68,117 				"/>
				<polygon fill="#F8EBCB" points="72,113 69,114.5 69,116.5 72,115 				"/>
				<polygon fill="#F8EBCB" points="76,111 73,112.5 73,114.5 76,113 				"/>
				<polygon fill="#F8EBCB" points="80,109 77,110.5 77,112.5 80,111 				"/>
				<polygon fill="#F8EBCB" points="84,107 81,108.5 81,110.5 84,109 				"/>
				<polygon fill="#F8EBCB" points="88,105 85,106.5 85,108.5 88,107 				"/>
				<polygon fill="#F8EBCB" points="92,103 89,104.5 89,106.5 92,105 				"/>
				<polygon fill="#F8EBCB" points="96,101 93,102.5 93,104.5 96,103 				"/>
				<polygon fill="#F8EBCB" points="100,99 97,100.5 97,102.5 100,101 				"/>
				<polygon fill="#F8EBCB" points="104,97 101,98.5 101,100.5 104,99 				"/>
				<polygon fill="#F8EBCB" points="108,95 105,96.5 105,98.5 108,97 				"/>
				<polygon fill="#F8EBCB" points="50,121 48,122 48,124 50,123 				"/>
				<polygon fill="#F8EBCB" points="54,119 51,120.5 51,122.5 54,121 				"/>
				<polygon fill="#F8EBCB" points="58,117 55,118.5 55,120.5 58,119 				"/>
				<polygon fill="#F8EBCB" points="62,115 59,116.5 59,118.5 62,117 				"/>
				<polygon fill="#F8EBCB" points="66,113 63,114.5 63,116.5 66,115 				"/>
				<polygon fill="#F8EBCB" points="70,111 67,112.5 67,114.5 70,113 				"/>
				<polygon fill="#F8EBCB" points="74,109 71,110.5 71,112.5 74,111 				"/>
				<polygon fill="#F8EBCB" points="78,107 75,108.5 75,110.5 78,109 				"/>
				<polygon fill="#F8EBCB" points="82,105 79,106.5 79,108.5 82,107 				"/>
				<polygon fill="#F8EBCB" points="86,103 83,104.5 83,106.5 86,105 				"/>
				<polygon fill="#F8EBCB" points="90,101 87,102.5 87,104.5 90,103 				"/>
				<polygon fill="#F8EBCB" points="94,99 91,100.5 91,102.5 94,101 				"/>
				<polygon fill="#F8EBCB" points="98,97 95,98.5 95,100.5 98,99 				"/>
				<polygon fill="#F8EBCB" points="102,95 99,96.5 99,98.5 102,97 				"/>
				<polygon fill="#F8EBCB" points="106,93 103,94.5 103,96.5 106,95 				"/>
				<polygon fill="#F8EBCB" points="110,91 107,92.5 107,94.5 110,93 				"/>
				<polygon fill="#F8EBCB" points="52,117 49,118.5 49,120.5 52,119 				"/>
				<polygon fill="#F8EBCB" points="56,115 53,116.5 53,118.5 56,117 				"/>
				<polygon fill="#F8EBCB" points="60,113 57,114.5 57,116.5 60,115 				"/>
				<polygon fill="#F8EBCB" points="64,111 61,112.5 61,114.5 64,113 				"/>
				<polygon fill="#F8EBCB" points="68,109 65,110.5 65,112.5 68,111 				"/>
				<polygon fill="#F8EBCB" points="72,107 69,108.5 69,110.5 72,109 				"/>
				<polygon fill="#F8EBCB" points="76,105 73,106.5 73,108.5 76,107 				"/>
				<polygon fill="#F8EBCB" points="80,103 77,104.5 77,106.5 80,105 				"/>
				<polygon fill="#F8EBCB" points="84,101 81,102.5 81,104.5 84,103 				"/>
				<polygon fill="#F8EBCB" points="88,99 85,100.5 85,102.5 88,101 				"/>
				<polygon fill="#F8EBCB" points="92,97 89,98.5 89,100.5 92,99 				"/>
				<polygon fill="#F8EBCB" points="96,95 93,96.5 93,98.5 96,97 				"/>
				<polygon fill="#F8EBCB" points="100,93 97,94.5 97,96.5 100,95 				"/>
				<polygon fill="#F8EBCB" points="104,91 101,92.5 101,94.5 104,93 				"/>
				<polygon fill="#F8EBCB" points="108,89 105,90.5 105,92.5 108,91 				"/>
				<polygon fill="#F8EBCB" points="50,115 48,116 48,118 50,117 				"/>
				<polygon fill="#F8EBCB" points="54,113 51,114.5 51,116.5 54,115 				"/>
				<polygon fill="#F8EBCB" points="58,111 55,112.5 55,114.5 58,113 				"/>
				<polygon fill="#F8EBCB" points="62,109 59,110.5 59,112.5 62,111 				"/>
				<polygon fill="#F8EBCB" points="66,107 63,108.5 63,110.5 66,109 				"/>
				<polygon fill="#F8EBCB" points="70,105 67,106.5 67,108.5 70,107 				"/>
				<polygon fill="#F8EBCB" points="74,103 71,104.5 71,106.5 74,105 				"/>
				<polygon fill="#F8EBCB" points="78,101 75,102.5 75,104.5 78,103 				"/>
				<polygon fill="#F8EBCB" points="82,99 79,100.5 79,102.5 82,101 				"/>
				<polygon fill="#F8EBCB" points="86,97 83,98.5 83,100.5 86,99 				"/>
				<polygon fill="#F8EBCB" points="90,95 87,96.5 87,98.5 90,97 				"/>
				<polygon fill="#F8EBCB" points="94,93 91,94.5 91,96.5 94,95 				"/>
				<polygon fill="#F8EBCB" points="98,91 95,92.5 95,94.5 98,93 				"/>
				<polygon fill="#F8EBCB" points="102,89 99,90.5 99,92.5 102,91 				"/>
				<polygon fill="#F8EBCB" points="106,87 103,88.5 103,90.5 106,89 				"/>
				<polygon fill="#F8EBCB" points="110,85 107,86.5 107,88.5 110,87 				"/>
				<polygon fill="#F8EBCB" points="52,111 49,112.5 49,114.5 52,113 				"/>
				<polygon fill="#F8EBCB" points="56,109 53,110.5 53,112.5 56,111 				"/>
				<polygon fill="#F8EBCB" points="60,107 57,108.5 57,110.5 60,109 				"/>
				<polygon fill="#F8EBCB" points="64,105 61,106.5 61,108.5 64,107 				"/>
				<polygon fill="#F8EBCB" points="68,103 65,104.5 65,106.5 68,105 				"/>
				<polygon fill="#F8EBCB" points="72,101 69,102.5 69,104.5 72,103 				"/>
				<polygon fill="#F8EBCB" points="76,99 73,100.5 73,102.5 76,101 				"/>
				<polygon fill="#F8EBCB" points="80,97 77,98.5 77,100.5 80,99 				"/>
				<polygon fill="#F8EBCB" points="84,95 81,96.5 81,98.5 84,97 				"/>
				<polygon fill="#F8EBCB" points="88,93 85,94.5 85,96.5 88,95 				"/>
				<polygon fill="#F8EBCB" points="92,91 89,92.5 89,94.5 92,93 				"/>
				<polygon fill="#F8EBCB" points="96,89 93,90.5 93,92.5 96,91 				"/>
				<polygon fill="#F8EBCB" points="100,87 97,88.5 97,90.5 100,89 				"/>
				<polygon fill="#F8EBCB" points="104,85 101,86.5 101,88.5 104,87 				"/>
				<polygon fill="#F8EBCB" points="108,83 105,84.5 105,86.5 108,85 				"/>
				<polygon fill="#F8EBCB" points="50,109 48,110 48,112 50,111 				"/>
				<polygon fill="#F8EBCB" points="54,107 51,108.5 51,110.5 54,109 				"/>
				<polygon fill="#F8EBCB" points="58,105 55,106.5 55,108.5 58,107 				"/>
				<polygon fill="#F8EBCB" points="62,103 59,104.5 59,106.5 62,105 				"/>
				<polygon fill="#F8EBCB" points="66,101 63,102.5 63,104.5 66,103 				"/>
				<polygon fill="#F8EBCB" points="70,99 67,100.5 67,102.5 70,101 				"/>
				<polygon fill="#F8EBCB" points="74,97 71,98.5 71,100.5 74,99 				"/>
				<polygon fill="#F8EBCB" points="78,95 75,96.5 75,98.5 78,97 				"/>
				<polygon fill="#F8EBCB" points="82,93 79,94.5 79,96.5 82,95 				"/>
				<polygon fill="#F8EBCB" points="86,91 83,92.5 83,94.5 86,93 				"/>
				<polygon fill="#F8EBCB" points="90,89 87,90.5 87,92.5 90,91 				"/>
				<polygon fill="#F8EBCB" points="94,87 91,88.5 91,90.5 94,89 				"/>
				<polygon fill="#F8EBCB" points="98,85 95,86.5 95,88.5 98,87 				"/>
				<polygon fill="#F8EBCB" points="102,83 99,84.5 99,86.5 102,85 				"/>
				<polygon fill="#F8EBCB" points="106,81 103,82.5 103,84.5 106,83 				"/>
				<polygon fill="#F8EBCB" points="110,79 107,80.5 107,82.5 110,81 				"/>
				<polygon fill="#F8EBCB" points="52,105 49,106.5 49,108.5 52,107 				"/>
				<polygon fill="#F8EBCB" points="56,103 53,104.5 53,106.5 56,105 				"/>
				<polygon fill="#F8EBCB" points="60,101 57,102.5 57,104.5 60,103 				"/>
				<polygon fill="#F8EBCB" points="64,99 61,100.5 61,102.5 64,101 				"/>
				<polygon fill="#F8EBCB" points="68,97 65,98.5 65,100.5 68,99 				"/>
				<polygon fill="#F8EBCB" points="72,95 69,96.5 69,98.5 72,97 				"/>
				<polygon fill="#F8EBCB" points="76,93 73,94.5 73,96.5 76,95 				"/>
				<polygon fill="#F8EBCB" points="80,91 77,92.5 77,94.5 80,93 				"/>
				<polygon fill="#F8EBCB" points="84,89 81,90.5 81,92.5 84,91 				"/>
				<polygon fill="#F8EBCB" points="88,87 85,88.5 85,90.5 88,89 				"/>
				<polygon fill="#F8EBCB" points="92,85 89,86.5 89,88.5 92,87 				"/>
				<polygon fill="#F8EBCB" points="96,83 93,84.5 93,86.5 96,85 				"/>
				<polygon fill="#F8EBCB" points="100,81 97,82.5 97,84.5 100,83 				"/>
				<polygon fill="#F8EBCB" points="104,79 101,80.5 101,82.5 104,81 				"/>
				<polygon fill="#F8EBCB" points="108,77 105,78.5 105,80.5 108,79 				"/>
				<polygon fill="#F8EBCB" points="50,103 48,104 48,106 50,105 				"/>
				<polygon fill="#F8EBCB" points="54,101 51,102.5 51,104.5 54,103 				"/>
				<polygon fill="#F8EBCB" points="58,99 55,100.5 55,102.5 58,101 				"/>
				<polygon fill="#F8EBCB" points="62,97 59,98.5 59,100.5 62,99 				"/>
				<polygon fill="#F8EBCB" points="66,95 63,96.5 63,98.5 66,97 				"/>
				<polygon fill="#F8EBCB" points="70,93 67,94.5 67,96.5 70,95 				"/>
				<polygon fill="#F8EBCB" points="74,91 71,92.5 71,94.5 74,93 				"/>
				<polygon fill="#F8EBCB" points="78,89 75,90.5 75,92.5 78,91 				"/>
				<polygon fill="#F8EBCB" points="82,87 79,88.5 79,90.5 82,89 				"/>
				<polygon fill="#F8EBCB" points="86,85 83,86.5 83,88.5 86,87 				"/>
				<polygon fill="#F8EBCB" points="90,83 87,84.5 87,86.5 90,85 				"/>
				<polygon fill="#F8EBCB" points="94,81 91,82.5 91,84.5 94,83 				"/>
				<polygon fill="#F8EBCB" points="98,79 95,80.5 95,82.5 98,81 				"/>
				<polygon fill="#F8EBCB" points="102,77 99,78.5 99,80.5 102,79 				"/>
				<polygon fill="#F8EBCB" points="106,75 103,76.5 103,78.5 106,77 				"/>
				<polygon fill="#F8EBCB" points="110,73 107,74.5 107,76.5 110,75 				"/>
				<polygon fill="#F8EBCB" points="52,99 49,100.5 49,102.5 52,101 				"/>
				<polygon fill="#F8EBCB" points="56,97 53,98.5 53,100.5 56,99 				"/>
				<polygon fill="#F8EBCB" points="60,95 57,96.5 57,98.5 60,97 				"/>
				<polygon fill="#F8EBCB" points="64,93 61,94.5 61,96.5 64,95 				"/>
				<polygon fill="#F8EBCB" points="68,91 65,92.5 65,94.5 68,93 				"/>
				<polygon fill="#F8EBCB" points="72,89 69,90.5 69,92.5 72,91 				"/>
				<polygon fill="#F8EBCB" points="76,87 73,88.5 73,90.5 76,89 				"/>
				<polygon fill="#F8EBCB" points="80,85 77,86.5 77,88.5 80,87 				"/>
				<polygon fill="#F8EBCB" points="84,83 81,84.5 81,86.5 84,85 				"/>
				<polygon fill="#F8EBCB" points="88,81 85,82.5 85,84.5 88,83 				"/>
				<polygon fill="#F8EBCB" points="92,79 89,80.5 89,82.5 92,81 				"/>
				<polygon fill="#F8EBCB" points="96,77 93,78.5 93,80.5 96,79 				"/>
				<polygon fill="#F8EBCB" points="100,75 97,76.5 97,78.5 100,77 				"/>
				<polygon fill="#F8EBCB" points="104,73 101,74.5 101,76.5 104,75 				"/>
				<polygon fill="#F8EBCB" points="108,71 105,72.5 105,74.5 108,73 				"/>
				<polygon fill="#F8EBCB" points="50,97 48,98 48,100 50,99 				"/>
				<polygon fill="#F8EBCB" points="54,95 51,96.5 51,98.5 54,97 				"/>
				<polygon fill="#F8EBCB" points="58,93 55,94.5 55,96.5 58,95 				"/>
				<polygon fill="#F8EBCB" points="62,91 59,92.5 59,94.5 62,93 				"/>
				<polygon fill="#F8EBCB" points="66,89 63,90.5 63,92.5 66,91 				"/>
				<polygon fill="#F8EBCB" points="70,87 67,88.5 67,90.5 70,89 				"/>
				<polygon fill="#F8EBCB" points="74,85 71,86.5 71,88.5 74,87 				"/>
				<polygon fill="#F8EBCB" points="78,83 75,84.5 75,86.5 78,85 				"/>
				<polygon fill="#F8EBCB" points="82,81 79,82.5 79,84.5 82,83 				"/>
				<polygon fill="#F8EBCB" points="86,79 83,80.5 83,82.5 86,81 				"/>
				<polygon fill="#F8EBCB" points="90,77 87,78.5 87,80.5 90,79 				"/>
				<polygon fill="#F8EBCB" points="94,75 91,76.5 91,78.5 94,77 				"/>
				<polygon fill="#F8EBCB" points="98,73 95,74.5 95,76.5 98,75 				"/>
				<polygon fill="#F8EBCB" points="102,71 99,72.5 99,74.5 102,73 				"/>
				<polygon fill="#F8EBCB" points="106,69 103,70.5 103,72.5 106,71 				"/>
				<polygon fill="#F8EBCB" points="110,67 107,68.5 107,70.5 110,69 				"/>
				<polygon fill="#F8EBCB" points="52,93 49,94.5 49,96.5 52,95 				"/>
				<polygon fill="#F8EBCB" points="56,91 53,92.5 53,94.5 56,93 				"/>
				<polygon fill="#F8EBCB" points="60,89 57,90.5 57,92.5 60,91 				"/>
				<polygon fill="#F8EBCB" points="64,87 61,88.5 61,90.5 64,89 				"/>
				<polygon fill="#F8EBCB" points="68,85 65,86.5 65,88.5 68,87 				"/>
				<polygon fill="#F8EBCB" points="72,83 69,84.5 69,86.5 72,85 				"/>
				<polygon fill="#F8EBCB" points="76,81 73,82.5 73,84.5 76,83 				"/>
				<polygon fill="#F8EBCB" points="80,79 77,80.5 77,82.5 80,81 				"/>
				<polygon fill="#F8EBCB" points="84,77 81,78.5 81,80.5 84,79 				"/>
				<polygon fill="#F8EBCB" points="88,75 85,76.5 85,78.5 88,77 				"/>
				<polygon fill="#F8EBCB" points="92,73 89,74.5 89,76.5 92,75 				"/>
				<polygon fill="#F8EBCB" points="96,71 93,72.5 93,74.5 96,73 				"/>
				<polygon fill="#F8EBCB" points="100,69 97,70.5 97,72.5 100,71 				"/>
				<polygon fill="#F8EBCB" points="104,67 101,68.5 101,70.5 104,69 				"/>
				<polygon fill="#F8EBCB" points="108,65 105,66.5 105,68.5 108,67 				"/>
				<polygon fill="#F8EBCB" points="54,89 51,90.5 51,92.5 54,91 				"/>
				<polygon fill="#F8EBCB" points="58,87 55,88.5 55,90.5 58,89 				"/>
				<polygon fill="#F8EBCB" points="62,85 59,86.5 59,88.5 62,87 				"/>
				<polygon fill="#F8EBCB" points="66,83 63,84.5 63,86.5 66,85 				"/>
				<polygon fill="#F8EBCB" points="70,81 67,82.5 67,84.5 70,83 				"/>
				<polygon fill="#F8EBCB" points="74,79 71,80.5 71,82.5 74,81 				"/>
				<polygon fill="#F8EBCB" points="78,77 75,78.5 75,80.5 78,79 				"/>
				<polygon fill="#F8EBCB" points="82,75 79,76.5 79,78.5 82,77 				"/>
				<polygon fill="#F8EBCB" points="86,73 83,74.5 83,76.5 86,75 				"/>
				<polygon fill="#F8EBCB" points="90,71 87,72.5 87,74.5 90,73 				"/>
				<polygon fill="#F8EBCB" points="94,69 91,70.5 91,72.5 94,71 				"/>
				<polygon fill="#F8EBCB" points="98,67 95,68.5 95,70.5 98,69 				"/>
				<polygon fill="#F8EBCB" points="102,65 99,66.5 99,68.5 102,67 				"/>
				<polygon fill="#F8EBCB" points="106,63 103,64.5 103,66.5 106,65 				"/>
				<polygon fill="#F8EBCB" points="110,61 107,62.5 107,64.5 110,63 				"/>
				<polygon fill="#F8EBCB" points="112,99 109,100.5 109,102.5 112,101 				"/>
				<polygon fill="#F8EBCB" points="112,96 111,96.5 111,98.5 112,98 				"/>
				<polygon fill="#F8EBCB" points="112,93 109,94.5 109,96.5 112,95 				"/>
				<polygon fill="#F8EBCB" points="112,90 111,90.5 111,92.5 112,92 				"/>
				<polygon fill="#F8EBCB" points="112,87 109,88.5 109,90.5 112,89 				"/>
				<polygon fill="#F8EBCB" points="112,84 111,84.5 111,86.5 112,86 				"/>
				<polygon fill="#F8EBCB" points="112,81 109,82.5 109,84.5 112,83 				"/>
				<polygon fill="#F8EBCB" points="112,78 111,78.5 111,80.5 112,80 				"/>
				<polygon fill="#F8EBCB" points="112,75 109,76.5 109,78.5 112,77 				"/>
				<polygon fill="#F8EBCB" points="112,72 111,72.5 111,74.5 112,74 				"/>
				<polygon fill="#F8EBCB" points="112,69 109,70.5 109,72.5 112,71 				"/>
				<polygon fill="#F8EBCB" points="112,66 111,66.5 111,68.5 112,68 				"/>
				<polygon fill="#F8EBCB" points="112,63 109,64.5 109,66.5 112,65 				"/>
			</g>
			<g opacity="0.2">
				<polygon fill="#F8EBCB" points="56,85 53,86.5 53,88.5 56,87 				"/>
				<polygon fill="#F8EBCB" points="60,83 57,84.5 57,86.5 60,85 				"/>
				<polygon fill="#F8EBCB" points="64,81 61,82.5 61,84.5 64,83 				"/>
				<polygon fill="#F8EBCB" points="68,79 65,80.5 65,82.5 68,81 				"/>
				<polygon fill="#F8EBCB" points="72,77 69,78.5 69,80.5 72,79 				"/>
				<polygon fill="#F8EBCB" points="76,75 73,76.5 73,78.5 76,77 				"/>
				<polygon fill="#F8EBCB" points="80,73 77,74.5 77,76.5 80,75 				"/>
				<polygon fill="#F8EBCB" points="84,71 81,72.5 81,74.5 84,73 				"/>
				<polygon fill="#F8EBCB" points="88,69 85,70.5 85,72.5 88,71 				"/>
				<polygon fill="#F8EBCB" points="92,67 89,68.5 89,70.5 92,69 				"/>
				<polygon fill="#F8EBCB" points="96,65 93,66.5 93,68.5 96,67 				"/>
				<polygon fill="#F8EBCB" points="100,63 97,64.5 97,66.5 100,65 				"/>
				<polygon fill="#F8EBCB" points="104,61 101,62.5 101,64.5 104,63 				"/>
				<polygon fill="#F8EBCB" points="108,59 105,60.5 105,62.5 108,61 				"/>
				<polygon fill="#F8EBCB" points="58,81 55,82.5 55,84.5 58,83 				"/>
				<polygon fill="#F8EBCB" points="62,79 59,80.5 59,82.5 62,81 				"/>
				<polygon fill="#F8EBCB" points="66,77 63,78.5 63,80.5 66,79 				"/>
				<polygon fill="#F8EBCB" points="70,75 67,76.5 67,78.5 70,77 				"/>
				<polygon fill="#F8EBCB" points="74,73 71,74.5 71,76.5 74,75 				"/>
				<polygon fill="#F8EBCB" points="78,71 75,72.5 75,74.5 78,73 				"/>
				<polygon fill="#F8EBCB" points="82,69 79,70.5 79,72.5 82,71 				"/>
				<polygon fill="#F8EBCB" points="86,67 83,68.5 83,70.5 86,69 				"/>
				<polygon fill="#F8EBCB" points="90,65 87,66.5 87,68.5 90,67 				"/>
				<polygon fill="#F8EBCB" points="94,63 91,64.5 91,66.5 94,65 				"/>
				<polygon fill="#F8EBCB" points="98,61 95,62.5 95,64.5 98,63 				"/>
				<polygon fill="#F8EBCB" points="102,59 99,60.5 99,62.5 102,61 				"/>
				<polygon fill="#F8EBCB" points="106,57 103,58.5 103,60.5 106,59 				"/>
				<polygon fill="#F8EBCB" points="60,77 57,78.5 57,80.5 60,79 				"/>
				<polygon fill="#F8EBCB" points="64,75 61,76.5 61,78.5 64,77 				"/>
				<polygon fill="#F8EBCB" points="68,73 65,74.5 65,76.5 68,75 				"/>
				<polygon fill="#F8EBCB" points="72,71 69,72.5 69,74.5 72,73 				"/>
				<polygon fill="#F8EBCB" points="76,69 73,70.5 73,72.5 76,71 				"/>
				<polygon fill="#F8EBCB" points="80,67 77,68.5 77,70.5 80,69 				"/>
				<polygon fill="#F8EBCB" points="84,65 81,66.5 81,68.5 84,67 				"/>
				<polygon fill="#F8EBCB" points="88,63 85,64.5 85,66.5 88,65 				"/>
				<polygon fill="#F8EBCB" points="92,61 89,62.5 89,64.5 92,63 				"/>
				<polygon fill="#F8EBCB" points="96,59 93,60.5 93,62.5 96,61 				"/>
				<polygon fill="#F8EBCB" points="100,57 97,58.5 97,60.5 100,59 				"/>
				<polygon fill="#F8EBCB" points="104,55 101,56.5 101,58.5 104,57 				"/>
				<polygon fill="#F8EBCB" points="62,73 59,74.5 59,76.5 62,75 				"/>
				<polygon fill="#F8EBCB" points="66,71 63,72.5 63,74.5 66,73 				"/>
				<polygon fill="#F8EBCB" points="70,69 67,70.5 67,72.5 70,71 				"/>
				<polygon fill="#F8EBCB" points="74,67 71,68.5 71,70.5 74,69 				"/>
				<polygon fill="#F8EBCB" points="78,65 75,66.5 75,68.5 78,67 				"/>
				<polygon fill="#F8EBCB" points="82,63 79,64.5 79,66.5 82,65 				"/>
				<polygon fill="#F8EBCB" points="86,61 83,62.5 83,64.5 86,63 				"/>
				<polygon fill="#F8EBCB" points="90,59 87,60.5 87,62.5 90,61 				"/>
				<polygon fill="#F8EBCB" points="94,57 91,58.5 91,60.5 94,59 				"/>
				<polygon fill="#F8EBCB" points="98,55 95,56.5 95,58.5 98,57 				"/>
				<polygon fill="#F8EBCB" points="102,53 99,54.5 99,56.5 102,55 				"/>
				<polygon fill="#F8EBCB" points="64,69 61,70.5 61,72.5 64,71 				"/>
				<polygon fill="#F8EBCB" points="68,67 65,68.5 65,70.5 68,69 				"/>
				<polygon fill="#F8EBCB" points="72,65 69,66.5 69,68.5 72,67 				"/>
				<polygon fill="#F8EBCB" points="76,63 73,64.5 73,66.5 76,65 				"/>
				<polygon fill="#F8EBCB" points="80,61 77,62.5 77,64.5 80,63 				"/>
				<polygon fill="#F8EBCB" points="84,59 81,60.5 81,62.5 84,61 				"/>
				<polygon fill="#F8EBCB" points="88,57 85,58.5 85,60.5 88,59 				"/>
				<polygon fill="#F8EBCB" points="92,55 89,56.5 89,58.5 92,57 				"/>
				<polygon fill="#F8EBCB" points="96,53 93,54.5 93,56.5 96,55 				"/>
				<polygon fill="#F8EBCB" points="100,51 97,52.5 97,54.5 100,53 				"/>
				<polygon fill="#F8EBCB" points="66,65 63,66.5 63,68.5 66,67 				"/>
				<polygon fill="#F8EBCB" points="70,63 67,64.5 67,66.5 70,65 				"/>
				<polygon fill="#F8EBCB" points="74,61 71,62.5 71,64.5 74,63 				"/>
				<polygon fill="#F8EBCB" points="78,59 75,60.5 75,62.5 78,61 				"/>
				<polygon fill="#F8EBCB" points="82,57 79,58.5 79,60.5 82,59 				"/>
				<polygon fill="#F8EBCB" points="86,55 83,56.5 83,58.5 86,57 				"/>
				<polygon fill="#F8EBCB" points="90,53 87,54.5 87,56.5 90,55 				"/>
				<polygon fill="#F8EBCB" points="94,51 91,52.5 91,54.5 94,53 				"/>
				<polygon fill="#F8EBCB" points="98,49 95,50.5 95,52.5 98,51 				"/>
				<polygon fill="#F8EBCB" points="68,61 65,62.5 65,64.5 68,63 				"/>
				<polygon fill="#F8EBCB" points="72,59 69,60.5 69,62.5 72,61 				"/>
				<polygon fill="#F8EBCB" points="76,57 73,58.5 73,60.5 76,59 				"/>
				<polygon fill="#F8EBCB" points="80,55 77,56.5 77,58.5 80,57 				"/>
				<polygon fill="#F8EBCB" points="84,53 81,54.5 81,56.5 84,55 				"/>
				<polygon fill="#F8EBCB" points="88,51 85,52.5 85,54.5 88,53 				"/>
				<polygon fill="#F8EBCB" points="92,49 89,50.5 89,52.5 92,51 				"/>
				<polygon fill="#F8EBCB" points="96,47 93,48.5 93,50.5 96,49 				"/>
				<polygon fill="#F8EBCB" points="70,57 67,58.5 67,60.5 70,59 				"/>
				<polygon fill="#F8EBCB" points="74,55 71,56.5 71,58.5 74,57 				"/>
				<polygon fill="#F8EBCB" points="78,53 75,54.5 75,56.5 78,55 				"/>
				<polygon fill="#F8EBCB" points="82,51 79,52.5 79,54.5 82,53 				"/>
				<polygon fill="#F8EBCB" points="86,49 83,50.5 83,52.5 86,51 				"/>
				<polygon fill="#F8EBCB" points="90,47 87,48.5 87,50.5 90,49 				"/>
				<polygon fill="#F8EBCB" points="94,45 91,46.5 91,48.5 94,47 				"/>
				<polygon fill="#F8EBCB" points="72,53 69,54.5 69,56.5 72,55 				"/>
				<polygon fill="#F8EBCB" points="76,51 73,52.5 73,54.5 76,53 				"/>
				<polygon fill="#F8EBCB" points="80,49 77,50.5 77,52.5 80,51 				"/>
				<polygon fill="#F8EBCB" points="84,47 81,48.5 81,50.5 84,49 				"/>
				<polygon fill="#F8EBCB" points="88,45 85,46.5 85,48.5 88,47 				"/>
				<polygon fill="#F8EBCB" points="92,43 89,44.5 89,46.5 92,45 				"/>
				<polygon fill="#F8EBCB" points="74,49 71,50.5 71,52.5 74,51 				"/>
				<polygon fill="#F8EBCB" points="78,47 75,48.5 75,50.5 78,49 				"/>
				<polygon fill="#F8EBCB" points="82,45 79,46.5 79,48.5 82,47 				"/>
				<polygon fill="#F8EBCB" points="86,43 83,44.5 83,46.5 86,45 				"/>
				<polygon fill="#F8EBCB" points="90,41 87,42.5 87,44.5 90,43 				"/>
				<polygon fill="#F8EBCB" points="72,47 71,47.5 70,50 72,49 				"/>
				<polygon fill="#F8EBCB" points="76,45 73,46.5 73,48.5 76,47 				"/>
				<polygon fill="#F8EBCB" points="80,43 77,44.5 77,46.5 80,45 				"/>
				<polygon fill="#F8EBCB" points="84,41 81,42.5 81,44.5 84,43 				"/>
				<polygon fill="#F8EBCB" points="88,39 85,40.5 85,42.5 88,41 				"/>
				<polygon fill="#F8EBCB" points="74,43 73,43.5 72,46 74,45 				"/>
				<polygon fill="#F8EBCB" points="78,41 75,42.5 75,44.5 78,43 				"/>
				<polygon fill="#F8EBCB" points="82,39 79,40.5 79,42.5 82,41 				"/>
				<polygon fill="#F8EBCB" points="86,37 83,38.5 83,40.5 86,39 				"/>
				<polygon fill="#F8EBCB" points="76,39 75,39.5 74,42 76,41 				"/>
				<polygon fill="#F8EBCB" points="80,37 77,38.5 77,40.5 80,39 				"/>
				<polygon fill="#F8EBCB" points="84,35 81,36.5 81,38.5 84,37 				"/>
				<polygon fill="#F8EBCB" points="78,35 77,35.5 76,38 78,37 				"/>
				<polygon fill="#F8EBCB" points="82,33 79,34.5 79,36.5 82,35 				"/>
				<polygon fill="#F8EBCB" points="80,31 78,32 77,34.5 80,33 				"/>
			</g>
		</g>
		<polygon fill="#F8EBCB" points="112,144 48,176 48,155 112,123 		"/>
		<g>
			<polygon fill="#F8EBCB" points="64,106 55,110.5 55,97.5 64,93 			"/>
			<g>
				<polygon fill="#3399CC" points="56,98 56,109 59,107.5 59,96.5 				"/>
				<polygon opacity="0.2" fill="#FFFFFF" points="56,103 56,109 59,107.5 				"/>
				<polygon fill="#3399CC" points="60,96 60,107 63,105.5 63,94.5 				"/>
			</g>
			<polygon opacity="0.15" points="59,97.5 56,99 56,98 59,96.5 			"/>
			<polygon opacity="0.15" points="63,95.5 60,97 60,96 63,94.5 			"/>
			<polygon opacity="0.15" points="63,102.5 60,97 60,96 63,94.5 			"/>
			<polygon fill="#F8EBCB" points="63,98.5 56,102 56,101 63,97.5 			"/>
			<polygon fill="#F8EBCB" points="63,102.5 56,106 56,105 63,101.5 			"/>
		</g>
		<g>
			<polygon fill="#F8EBCB" points="64,125 55,129.5 55,116.5 64,112 			"/>
			<g>
				<polygon fill="#3399CC" points="56,117 56,128 59,126.5 59,115.5 				"/>
				<polygon opacity="0.2" fill="#FFFFFF" points="56,122 56,128 59,126.5 				"/>
				<polygon fill="#3399CC" points="60,115 60,126 63,124.5 63,113.5 				"/>
			</g>
			<polygon opacity="0.15" points="59,116.5 56,118 56,117 59,115.5 			"/>
			<polygon opacity="0.15" points="63,114.5 60,116 60,115 63,113.5 			"/>
			<polygon opacity="0.15" points="63,121.5 60,116 60,115 63,113.5 			"/>
			<polygon fill="#F8EBCB" points="63,117.5 56,121 56,120 63,116.5 			"/>
			<polygon fill="#F8EBCB" points="63,121.5 56,125 56,124 63,120.5 			"/>
		</g>
		<polygon fill="#F8EBCB" points="64,111 55,115.5 55,114.5 64,110 		"/>
		<g>
			<polygon fill="#F8EBCB" points="64,145 55,149.5 55,136.5 64,132 			"/>
			<g>
				<polygon fill="#3399CC" points="56,137 56,148 59,146.5 59,135.5 				"/>
				<polygon opacity="0.2" fill="#FFFFFF" points="56,142 56,148 59,146.5 				"/>
				<polygon fill="#3399CC" points="60,135 60,146 63,144.5 63,133.5 				"/>
			</g>
			<polygon opacity="0.15" points="59,136.5 56,138 56,137 59,135.5 			"/>
			<polygon opacity="0.15" points="63,134.5 60,136 60,135 63,133.5 			"/>
			<polygon opacity="0.15" points="63,141.5 60,136 60,135 63,133.5 			"/>
			<polygon fill="#F8EBCB" points="63,137.5 56,141 56,140 63,136.5 			"/>
			<polygon fill="#F8EBCB" points="63,141.5 56,145 56,144 63,140.5 			"/>
		</g>
		<polygon fill="#F8EBCB" points="64,131 55,135.5 55,134.5 59,130.5 60,130 64,130 		"/>
		<g>
			<polygon fill="#F8EBCB" points="78,99 69,103.5 69,90.5 78,86 			"/>
			<g>
				<polygon fill="#3399CC" points="70,91 70,102 73,100.5 73,89.5 				"/>
				<polygon opacity="0.2" fill="#FFFFFF" points="70,96 70,102 73,100.5 				"/>
				<polygon fill="#3399CC" points="74,89 74,100 77,98.5 77,87.5 				"/>
			</g>
			<polygon opacity="0.15" points="73,90.5 70,92 70,91 73,89.5 			"/>
			<polygon opacity="0.15" points="77,88.5 74,90 74,89 77,87.5 			"/>
			<polygon opacity="0.15" points="77,95.5 74,90 74,89 77,87.5 			"/>
			<polygon fill="#F8EBCB" points="77,91.5 70,95 70,94 77,90.5 			"/>
			<polygon fill="#F8EBCB" points="77,95.5 70,99 70,98 77,94.5 			"/>
		</g>
		<g>
			<polygon fill="#F8EBCB" points="78,118 69,122.5 69,109.5 78,105 			"/>
			<g>
				<polygon fill="#3399CC" points="70,110 70,121 73,119.5 73,108.5 				"/>
				<polygon opacity="0.2" fill="#FFFFFF" points="70,115 70,121 73,119.5 				"/>
				<polygon fill="#3399CC" points="74,108 74,119 77,117.5 77,106.5 				"/>
			</g>
			<polygon opacity="0.15" points="73,109.5 70,111 70,110 73,108.5 			"/>
			<polygon opacity="0.15" points="77,107.5 74,109 74,108 77,106.5 			"/>
			<polygon opacity="0.15" points="77,114.5 74,109 74,108 77,106.5 			"/>
			<polygon fill="#F8EBCB" points="77,110.5 70,114 70,113 77,109.5 			"/>
			<polygon fill="#F8EBCB" points="77,114.5 70,118 70,117 77,113.5 			"/>
		</g>
		<polygon fill="#F8EBCB" points="78,104 69,108.5 69,107.5 78,103 		"/>
		<g>
			<polygon fill="#F8EBCB" points="78,138 69,142.5 69,129.5 78,125 			"/>
			<g>
				<polygon fill="#3399CC" points="70,130 70,141 73,139.5 73,128.5 				"/>
				<polygon opacity="0.2" fill="#FFFFFF" points="70,135 70,141 73,139.5 				"/>
				<polygon fill="#3399CC" points="74,128 74,139 77,137.5 77,126.5 				"/>
			</g>
			<polygon opacity="0.15" points="73,129.5 70,131 70,130 73,128.5 			"/>
			<polygon opacity="0.15" points="77,127.5 74,129 74,128 77,126.5 			"/>
			<polygon opacity="0.15" points="77,134.5 74,129 74,128 77,126.5 			"/>
			<polygon fill="#F8EBCB" points="77,130.5 70,134 70,133 77,129.5 			"/>
			<polygon fill="#F8EBCB" points="77,134.5 70,138 70,137 77,133.5 			"/>
		</g>
		<polygon fill="#F8EBCB" points="78,124 69,128.5 69,127.5 73,123.5 74,123 78,123 		"/>
		<g>
			<polygon fill="#F8EBCB" points="91,92.5 82,97 82,84 91,79.5 			"/>
			<g>
				<polygon fill="#3399CC" points="83,84.5 83,95.5 86,94 86,83 				"/>
				<polygon opacity="0.2" fill="#FFFFFF" points="83,89.5 83,95.5 86,94 				"/>
				<polygon fill="#3399CC" points="87,82.5 87,93.5 90,92 90,81 				"/>
			</g>
			<polygon opacity="0.15" points="86,84 83,85.5 83,84.5 86,83 			"/>
			<polygon opacity="0.15" points="90,82 87,83.5 87,82.5 90,81 			"/>
			<polygon opacity="0.15" points="90,89 87,83.5 87,82.5 90,81 			"/>
			<polygon fill="#F8EBCB" points="90,85 83,88.5 83,87.5 90,84 			"/>
			<polygon fill="#F8EBCB" points="90,89 83,92.5 83,91.5 90,88 			"/>
		</g>
		<g>
			<polygon fill="#F8EBCB" points="78,81 69,85.5 69,72.5 78,68 			"/>
			<g>
				<polygon fill="#3399CC" points="70,73 70,84 73,82.5 73,71.5 				"/>
				<polygon opacity="0.2" fill="#FFFFFF" points="70,78 70,84 73,82.5 				"/>
				<polygon fill="#3399CC" points="74,71 74,82 77,80.5 77,69.5 				"/>
			</g>
			<polygon opacity="0.15" points="73,72.5 70,74 70,73 73,71.5 			"/>
			<polygon opacity="0.15" points="77,70.5 74,72 74,71 77,69.5 			"/>
			<polygon opacity="0.15" points="77,77.5 74,72 74,71 77,69.5 			"/>
			<polygon fill="#F8EBCB" points="77,73.5 70,77 70,76 77,72.5 			"/>
			<polygon fill="#F8EBCB" points="77,77.5 70,81 70,80 77,76.5 			"/>
		</g>
		<g>
			<polygon fill="#F8EBCB" points="91,74.5 82,79 82,66 91,61.5 			"/>
			<g>
				<polygon fill="#3399CC" points="83,66.5 83,77.5 86,76 86,65 				"/>
				<polygon opacity="0.2" fill="#FFFFFF" points="83,71.5 83,77.5 86,76 				"/>
				<polygon fill="#3399CC" points="87,64.5 87,75.5 90,74 90,63 				"/>
			</g>
			<polygon opacity="0.15" points="86,66 83,67.5 83,66.5 86,65 			"/>
			<polygon opacity="0.15" points="90,64 87,65.5 87,64.5 90,63 			"/>
			<polygon opacity="0.15" points="90,71 87,65.5 87,64.5 90,63 			"/>
			<polygon fill="#F8EBCB" points="90,67 83,70.5 83,69.5 90,66 			"/>
			<polygon fill="#F8EBCB" points="90,71 83,74.5 83,73.5 90,70 			"/>
		</g>
		<g>
			<polygon fill="#F8EBCB" points="91,111.5 82,116 82,103 91,98.5 			"/>
			<g>
				<polygon fill="#3399CC" points="83,103.5 83,114.5 86,113 86,102 				"/>
				<polygon opacity="0.2" fill="#FFFFFF" points="83,108.5 83,114.5 86,113 				"/>
				<polygon fill="#3399CC" points="87,101.5 87,112.5 90,111 90,100 				"/>
			</g>
			<polygon opacity="0.15" points="86,103 83,104.5 83,103.5 86,102 			"/>
			<polygon opacity="0.15" points="90,101 87,102.5 87,101.5 90,100 			"/>
			<polygon opacity="0.15" points="90,108 87,102.5 87,101.5 90,100 			"/>
			<polygon fill="#F8EBCB" points="90,104 83,107.5 83,106.5 90,103 			"/>
			<polygon fill="#F8EBCB" points="90,108 83,111.5 83,110.5 90,107 			"/>
		</g>
		<polygon fill="#F8EBCB" points="91,97.5 82,102 82,101 91,96.5 		"/>
		<g>
			<polygon fill="#F8EBCB" points="91,131.5 82,136 82,123 91,118.5 			"/>
			<g>
				<polygon fill="#3399CC" points="83,123.5 83,134.5 86,133 86,122 				"/>
				<polygon opacity="0.2" fill="#FFFFFF" points="83,128.5 83,134.5 86,133 				"/>
				<polygon fill="#3399CC" points="87,121.5 87,132.5 90,131 90,120 				"/>
			</g>
			<polygon opacity="0.15" points="86,123 83,124.5 83,123.5 86,122 			"/>
			<polygon opacity="0.15" points="90,121 87,122.5 87,121.5 90,120 			"/>
			<polygon opacity="0.15" points="90,128 87,122.5 87,121.5 90,120 			"/>
			<polygon fill="#F8EBCB" points="90,124 83,127.5 83,126.5 90,123 			"/>
			<polygon fill="#F8EBCB" points="90,128 83,131.5 83,130.5 90,127 			"/>
		</g>
		<polygon fill="#F8EBCB" points="91,117.5 82,122 82,121 86,117 87,116.5 91,116.5 		"/>
		<g>
			<polygon fill="#F8EBCB" points="105,85.5 96,90 96,77 105,72.5 			"/>
			<g>
				<polygon fill="#3399CC" points="97,77.5 97,88.5 100,87 100,76 				"/>
				<polygon opacity="0.2" fill="#FFFFFF" points="97,82.5 97,88.5 100,87 				"/>
				<polygon fill="#3399CC" points="101,75.5 101,86.5 104,85 104,74 				"/>
			</g>
			<polygon opacity="0.15" points="100,77 97,78.5 97,77.5 100,76 			"/>
			<polygon opacity="0.15" points="104,75 101,76.5 101,75.5 104,74 			"/>
			<polygon opacity="0.15" points="104,82 101,76.5 101,75.5 104,74 			"/>
			<polygon fill="#F8EBCB" points="104,78 97,81.5 97,80.5 104,77 			"/>
			<polygon fill="#F8EBCB" points="104,82 97,85.5 97,84.5 104,81 			"/>
		</g>
		<g>
			<polygon fill="#F8EBCB" points="105,104.5 96,109 96,96 105,91.5 			"/>
			<g>
				<polygon fill="#3399CC" points="97,96.5 97,107.5 100,106 100,95 				"/>
				<polygon opacity="0.2" fill="#FFFFFF" points="97,101.5 97,107.5 100,106 				"/>
				<polygon fill="#3399CC" points="101,94.5 101,105.5 104,104 104,93 				"/>
			</g>
			<polygon opacity="0.15" points="100,96 97,97.5 97,96.5 100,95 			"/>
			<polygon opacity="0.15" points="104,94 101,95.5 101,94.5 104,93 			"/>
			<polygon opacity="0.15" points="104,101 101,95.5 101,94.5 104,93 			"/>
			<polygon fill="#F8EBCB" points="104,97 97,100.5 97,99.5 104,96 			"/>
			<polygon fill="#F8EBCB" points="104,101 97,104.5 97,103.5 104,100 			"/>
		</g>
		<polygon fill="#F8EBCB" points="105,90.5 96,95 96,94 105,89.5 		"/>
		<g>
			<polygon fill="#F8EBCB" points="105,124.5 96,129 96,116 105,111.5 			"/>
			<g>
				<polygon fill="#3399CC" points="97,116.5 97,127.5 100,126 100,115 				"/>
				<polygon opacity="0.2" fill="#FFFFFF" points="97,121.5 97,127.5 100,126 				"/>
				<polygon fill="#3399CC" points="101,114.5 101,125.5 104,124 104,113 				"/>
			</g>
			<polygon opacity="0.15" points="100,116 97,117.5 97,116.5 100,115 			"/>
			<polygon opacity="0.15" points="104,114 101,115.5 101,114.5 104,113 			"/>
			<polygon opacity="0.15" points="104,121 101,115.5 101,114.5 104,113 			"/>
			<polygon fill="#F8EBCB" points="104,117 97,120.5 97,119.5 104,116 			"/>
			<polygon fill="#F8EBCB" points="104,121 97,124.5 97,123.5 104,120 			"/>
		</g>
		<polygon fill="#F8EBCB" points="105,110.5 96,115 96,114 100,110 101,109.5 105,109.5 		"/>
	</g>
	<polygon fill="#2D3134" points="80,27 80,27.1 80,27 32,3 0,72 48,96 48,96 48,96 49,96 80,29 111,64 112,64 	"/>
	<polygon opacity="0.39" points="112,144 48,176 48,96 80,27 112,64 	"/>
	<polygon opacity="0.06" points="80,27 32,3 0,72 48,96 	"/>
	<polygon opacity="0.2" fill="#FFFFFF" points="31.1,5 79.1,29 80,27 32,3 	"/>
	<g>
		<polygon opacity="0.39" points="34.6,64 57.1,53 48.3,71.7 40.1,75.9 		"/>
		<polygon fill="#F8EBCB" points="29,84.1 40,89.6 40,75.9 34.5,64 29,70.4 		"/>
		<g>
			<polygon fill="#825012" points="39,88 30,83.5 30,70.5 39,75 			"/>
			<g>
				<polygon fill="#3399CC" points="31,72 31,83 34,84.5 34,73.5 				"/>
				<polygon opacity="0.2" fill="#FFFFFF" points="31,77 31,83 34,84.5 				"/>
				<polygon fill="#3399CC" points="35,74 35,85 38,86.5 38,75.5 				"/>
			</g>
			<polygon opacity="0.15" points="34,74.5 31,73 31,72 34,73.5 			"/>
			<polygon opacity="0.15" points="38,76.5 35,75 35,74 38,75.5 			"/>
			<polygon opacity="0.15" points="38,83.5 35,75 35,74 38,75.5 			"/>
			<polygon fill="#825012" points="38,79.5 31,76 31,75 38,78.5 			"/>
			<polygon fill="#825012" points="38,83.5 31,80 31,79 38,82.5 			"/>
		</g>
		<polygon fill="#F8EBCB" points="40,89.6 40.2,89.4 48.4,71.7 40,75.9 		"/>
		<polygon opacity="0.39" points="40,89.6 40.2,89.4 48.4,71.7 40,75.9 		"/>
		<polygon opacity="0.06" points="29,84.1 40,89.6 40,75.9 34.5,64 29,70.4 		"/>
	</g>
	<g>
		<polygon opacity="0.39" points="14.6,54 37.1,43 28.3,61.7 20.1,65.9 		"/>
		<polygon fill="#F8EBCB" points="9,74.1 20,79.6 20,65.9 14.5,54 9,60.4 		"/>
		<g>
			<polygon fill="#825012" points="19,78 10,73.5 10,60.5 19,65 			"/>
			<g>
				<polygon fill="#3399CC" points="11,62 11,73 14,74.5 14,63.5 				"/>
				<polygon opacity="0.2" fill="#FFFFFF" points="11,67 11,73 14,74.5 				"/>
				<polygon fill="#3399CC" points="15,64 15,75 18,76.5 18,65.5 				"/>
			</g>
			<polygon opacity="0.15" points="14,64.5 11,63 11,62 14,63.5 			"/>
			<polygon opacity="0.15" points="18,66.5 15,65 15,64 18,65.5 			"/>
			<polygon opacity="0.15" points="18,73.5 15,65 15,64 18,65.5 			"/>
			<polygon fill="#825012" points="18,69.5 11,66 11,65 18,68.5 			"/>
			<polygon fill="#825012" points="18,73.5 11,70 11,69 18,72.5 			"/>
		</g>
		<polygon fill="#F8EBCB" points="20,79.6 20.2,79.4 28.4,61.7 20,65.9 		"/>
		<polygon opacity="0.39" points="20,79.6 20.2,79.4 28.4,61.7 20,65.9 		"/>
		<polygon opacity="0.06" points="9,74.1 20,79.6 20,65.9 14.5,54 9,60.4 		"/>
	</g>
</g>
</svg>
