<?xml version="1.0" encoding="utf-8"?>
<!-- Generator: Adobe Illustrator 18.1.0, SVG Export Plug-In . SVG Version: 6.00 Build 0)  -->
<svg version="1.1" id="Layer_1" xmlns="http://www.w3.org/2000/svg" xmlns:xlink="http://www.w3.org/1999/xlink" x="0px" y="0px"
	 viewBox="0 0 32 40" enable-background="new 0 0 32 40" xml:space="preserve">
<g>
	<polygon opacity="0.3" points="8.8,29.6 3.6,31.5 7.3,31.7 5,33.2 10.4,33.2 13.6,32.4 13.1,35 16.4,34.4 18.8,32.4 23.4,33.9 
		28.1,33.2 26.6,32.3 28.3,31.9 21.4,30 	"/>
	<path fill="#28896D" d="M11,9.6c3.9-0.5,5.8-8,5.8-8S17.6,9,22.6,11c0.1,0.7-1.7,1.3-3.3,0.6c-0.1,1.5,3.2,3.9,5.2,4.4
		c0.1,0.8-1.8,2-3.6,1.4c0.8,1.8,2.2,3.3,5.2,4.1c-1.4,0.8-3.6,0.1-5,0c0,1.2,4.4,2.3,6.6,2.2c-0.4,1.1-2.5,2.3-4.4,2.2
		c0,1.3,4.3,2.4,5.5,2.8c0.1,1.1-3,1.8-5.2,1.1c-0.1,1.3,2.2,2.5,3.3,3c0,1-7.1,0.7-8.3-1.4c-1.3,0.5-2.2,3.3-4.8,3.1
		c0.3-0.7,1.1-3.1-0.2-3.6c-1,1.4-5.4,2.5-7.2,1.7C7,32,9.6,31.6,8.8,30c-2.3-0.1-5.3-2.1-5.2-3c0.6,0.4,4.3,1,4.4,0
		c-1.7-0.1-2.7-1.4-2.8-2.5c0.6,0.3,4.3,0.9,4.4-0.3c-1.3-0.5-2.9-1.4-2.8-2.5c1.1,0.1,3.4,0.1,3.6-1.1c-1.4-0.5-2.7-2.5-2.8-3.3
		c1,0.3,5,0.1,5-0.8c-1.7-0.1-3.2-0.8-3-1.9c2.2-0.2,4.7-2.5,4.7-3.6C13.4,11.2,11.6,10.9,11,9.6z"/>
	<path opacity="0.2" fill="#FFFFFF" d="M26.1,21.4c0,0-2.8,0.1-5.2-2.2s-3-3.9-3-3.9s-0.6,0.8-2.5,1.9s-6.1,1.1-6.1,1.1
		s2.6,2,6.3,0.8c1.8-0.6,1.7-1,1.7-1s2.6,2.2,3.6,2.6C24.6,22.2,26.1,21.4,26.1,21.4z"/>
	<path opacity="0.2" fill="#FFFFFF" d="M10.7,14.8c3.3-1.8,5.4-3.2,6.1-6.1c-0.2,1.3,2.6,5,5.2,6.9c-1.9-0.2-4.4-3.4-5.5-3.3
		C16.3,13.3,13,14.6,10.7,14.8z"/>
	<path opacity="0.2" fill="#FFFFFF" d="M12.2,9.9c3.3-1.8,3.9-4.1,4.5-6.9c-0.2,1.3,1.5,5.5,4.1,7.4c-1.9-0.2-3.6-3-4.4-3.6
		C16.3,7.8,14.5,9.7,12.2,9.9z"/>
	<path opacity="0.2" fill="#FFFFFF" d="M7.3,22.2c0,0,4.1-0.1,7.2-1.6c1-0.1,2.3,2.9,3,3c0.8-0.2,1.2-0.4,2-0.9
		c0.7,2.8,5.7,5.3,8.5,6.1c-5.2,0-8.8-3.4-9.4-4.4c-0.6,0.5-0.8,1.9-1.9,1.9C15.8,25,14.4,23,14,22C13,21.8,8.9,23.1,7.3,22.2z"/>
	<path opacity="0.2" fill="#FFFFFF" d="M4.9,27.8c5.8,0.6,7.9-2,8.9-3.1C13.1,28.7,6.6,29.8,4.9,27.8z"/>
	<path opacity="0.2" fill="#FFFFFF" d="M20.2,27.1c1.6,2.7,2.3,4.2,6,5.5C20.1,32.9,19.5,28.3,20.2,27.1z"/>
	<path opacity="0.2" fill="#FFFFFF" d="M14.7,33.7c0.3,0.2,3.9-5.5,1.3-6.5C14.5,28,15.8,30.9,14.7,33.7z"/>
	<path opacity="0.3" d="M18.8,10.3c-1.5-1.2-1.5-1.2-1.5-1.2s1.2,1.5,2,2.4c0,0,0,0,0,0c1.6,0.8,3.4,0.1,3.3-0.6
		C22.6,11,20.3,11.5,18.8,10.3z"/>
	<path opacity="0.3" d="M20.7,31.1c-1.8-1.9-2.3-4.8-2.3-4.8s-1.1,3.8-2,5.6c-0.6,1.1-1.1,2-2.5,2.4c0,0,0,0.1,0,0.1
		c2.6,0.2,3.5-2.6,4.8-3.1c1.2,2.1,8.3,2.4,8.3,1.4C27,32.7,22.6,33,20.7,31.1z"/>
	<path opacity="0.3" d="M23.9,24.5c-1.8-0.1-4.4-3.5-4.4-3.5s-1.3,0.6-2,0.1c-0.8-0.5-1.4-1.1-1.4-1.1s0.7,3.2,1.7,3.1
		c1-0.1,1.6-0.4,2-0.9c0.5,2.5,3.7,3.8,3.7,3.8c1.9,0.1,4-1.1,4.4-2.2C27.8,23.6,25.8,24.6,23.9,24.5z"/>
	<path opacity="0.3" d="M12.6,16.5C12.7,16.5,12.6,16.5,12.6,16.5c0.5,0,1.1,0,1.6-0.1c1.4-0.2,3.8-1.5,3.8-1.5l-1.8,0.2l0.7-1.6
		c0,0-2.1,1.7-4,2c-1.9,0.2-3.3-0.9-3.3-0.9C9.5,15.7,10.9,16.3,12.6,16.5z"/>
	<g>
		<path opacity="0.3" d="M9.6,24.2c-0.1,1.2-3.8,0.6-4.4,0.3c2.7,1.8,7.8-0.3,7.8-0.3l-2.5,0l2.8-1.4c0,0-6.3,0.4-6.5-1.2
			C6.7,22.8,8.3,23.7,9.6,24.2z"/>
		<path opacity="0.3" d="M12.2,25.5c0,0-2,0.6-3.3,0.6c-1.3,0-3.6-1.2-3.7-1.6c0.1,1,1.1,2.3,2.7,2.4C11.1,27.2,12.2,25.5,12.2,25.5
			z"/>
	</g>
	<path opacity="0.3" d="M14.7,31.4c0-1.1-0.3-7.6-0.3-7.6s-0.1,3.9-3.6,7.2c-1.2,1.1-4.2,1.5-4.2,1.5c1.8,0.8,6.1-0.2,7.2-1.7
		c1,0.4,0.7,1.9,0.4,2.9C14.4,33.1,14.7,32.1,14.7,31.4z"/>
</g>
</svg>
