<?xml version="1.0" encoding="utf-8"?>
<!-- Generator: Adobe Illustrator 18.1.0, SVG Export Plug-In . SVG Version: 6.00 Build 0)  -->
<svg version="1.1" id="Layer_1" xmlns="http://www.w3.org/2000/svg" xmlns:xlink="http://www.w3.org/1999/xlink" x="0px" y="0px"
	 viewBox="0 0 32 64" enable-background="new 0 0 32 64" xml:space="preserve">
<g>
	<g>
		<ellipse opacity="0.3" cx="16.5" cy="55" rx="7.5" ry="4"/>
		<path fill="#825012" d="M18,31v24c0,0.6-0.7,1-1.5,1S15,55.6,15,55V31H18z"/>
		<circle fill="#539B00" cx="25.5" cy="29.5" r="6.5"/>
		<circle fill="#539B00" cx="22" cy="21" r="9"/>
		<path fill="#825012" d="M16,43.4c-2.6,0-3-0.9-3-3.4v-8h-1v10c0,1.7,1.3,3,3,3h1L16,43.4z"/>
		<path fill="#825012" d="M17,44.8c1.7,0,3-0.4,3-2.1V33h1v10c0,1.7-1.3,3-3,3h-1L17,44.8z"/>
		<path fill="#825012" d="M13,41.8c-1.7,0-2-1.3-2-2.1V30h-1v10c0,1.7,1.3,3,3,3h0L13,41.8z"/>
		<circle fill="#539B00" cx="12" cy="31" r="9"/>
		<circle fill="#539B00" cx="7" cy="27" r="6"/>
		<path fill="#825012" d="M12,30.8c-1.7,0-3-0.4-3-2.1V26H8v3c0,1.7,1.3,3,3,3h1L12,30.8z"/>
		<circle fill="#539B00" cx="11" cy="19" r="8"/>
		<circle fill="#539B00" cx="15" cy="15" r="8"/>
		<circle fill="#539B00" cx="21.5" cy="12.5" r="4.5"/>
		<path opacity="0.2" fill="#FFFFFF" d="M7.1,21c2.2,0,4.1,1.3,4.9,3.1c0.3-0.1,0.7-0.1,1.1-0.1c1.8,0,3.4,0.9,4.4,2.2
			c-0.4-1.8-2-3.2-3.9-3.2c0,0-0.1,0-0.1,0c-0.5-2.3-2.5-4-4.9-4c-2,0-3.7,1.2-4.5,2.9C4.9,21.3,6,21,7.1,21z"/>
		<path fill="#825012" d="M15,18.4c0.2,0.2,0.5,0.4,0.7,0.6H16v-3c-0.3,0-0.7-0.1-1-0.2V18.4z"/>
		<path opacity="0.2" fill="#FFFFFF" d="M15.5,11c2.4,0,4.3,1.9,4.5,4.2c0.5-0.1,1-0.2,1.5-0.2c2.5,0,4.6,1.6,5.3,3.9
			c0.1-0.4,0.2-0.9,0.2-1.4c0-2.5-2-4.5-4.5-4.5c-0.5,0-1,0.1-1.5,0.3c-0.1-1.8-1.6-3.3-3.5-3.3c-1,0-1.9,0.4-2.5,1
			C15.2,11,15.3,11,15.5,11z"/>
		<path opacity="0.3" d="M30.9,22.4c-1.7,1.9-4.1,3.1-6.8,3.1c-0.2,0-0.4,0-0.6,0c1,1.1,1.6,2.4,1.7,3.9
			C28.1,28.3,30.4,25.6,30.9,22.4z"/>
		<g>
			<path opacity="0.3" d="M28.5,32.7c0.3,0.7,0.4,1.5,0.5,2.3c1.7-1.1,2.9-2.9,3-5C31.2,31.3,29.9,32.2,28.5,32.7z"/>
		</g>
		<path opacity="0.3" d="M6.7,21C5.1,19.6,4,17.5,4,15.1c-0.6,1.1-1,2.5-1,3.9c0,1.1,0.2,2.1,0.6,3.1C4.5,21.4,5.6,21.1,6.7,21z"/>
		<path fill="#825012" d="M22,22.6c0,1.7-1.3,2.1-3,2.1V26h1c1.7,0,3-1.3,3-3v-2c-0.3,0-0.7-0.1-1-0.2V22.6z"/>
		<circle fill="#539B00" cx="19.8" cy="33.8" r="9.3"/>
		<path opacity="0.2" fill="#FFFFFF" d="M16,31c1.2,0,2.3,0.3,3.3,0.8c1.2-1.1,2.9-1.8,4.7-1.8c1.6,0,3.1,0.5,4.2,1.4
			c-1.1-2-3.3-3.4-5.7-3.4c-1.6,0-3.1,0.6-4.2,1.6C17.6,29.2,16.8,29,16,29c-2.4,0-4.4,1.7-4.9,4C12.4,31.8,14.1,31,16,31z"/>
		<path opacity="0.3" d="M20.8,41c-3.8,0-7-2-8.8-5c-0.3,0-0.6,0-0.9,0c-3.5,0-6.5-2-8-4.9C3.1,36,7.1,40,12,40c0.3,0,0.6,0,0.9,0
			c1.7,1.9,4.1,3,6.8,3c3.6,0,6.6-2,8.2-4.9C26.1,39.9,23.5,41,20.8,41z"/>
	</g>
</g>
</svg>
