<?xml version="1.0" encoding="utf-8"?>
<!-- Generator: Adobe Illustrator 18.1.0, SVG Export Plug-In . SVG Version: 6.00 Build 0)  -->
<svg version="1.1" id="Layer_1" xmlns="http://www.w3.org/2000/svg" xmlns:xlink="http://www.w3.org/1999/xlink" x="0px" y="0px"
	 viewBox="0 0 80 240" enable-background="new 0 0 80 240" xml:space="preserve">
<g>
	<path opacity="0.2" d="M11,231.9c-14.8-7.2,2.6-15.9,18.5-20.4c14.1-4,27.9-19.8,44-9.5c12.9,8.2-8,15.7-20.6,20.2
		C35,228.6,23.2,237.8,11,231.9z"/>
	<path fill="#FBD7C7" d="M22.8,109.3c-1.5,3.1-5.1,8.6-5.2,10.2c-0.1,1.6-1.1,5.1-0.5,6.7c0.6,1.6,4.1,4.2,4.8,4.2s1.5-2.6,1.5-3.3
		s-1-2.2-1-2.2s1.8,0.7,2,0C24.6,124.1,22.8,109.3,22.8,109.3z"/>
	<path fill="#FBD7C7" d="M23.5,172.3c-0.3,3.1-0.4,10.4-0.6,15.4s-0.6,12.2-1.8,17.1c-1.3,4.9-2.4,10.4-3.7,12.5
		c-1.3,2-6.8,7.2-1.9,6.8s8.6-7,10.4-8.9c1.8-1.8,3.9-5.5,3.9-5.5s0.1-2.4,1-7c0.9-4.6,6.5-18.8,6.7-24.1C37.9,173.3,36,168,36,168
		L23.5,172.3z"/>
	<path fill="#FBD7C7" d="M59,209.6c-1.1,1.2-3.5,3.5-0.6,4.2s7.1-0.9,9-5.5c1.8-4.6,3.3-9.3,3.6-10.4s-1.4-3.6-2-5.5
		s-1.1-10.6-3.3-15.9c-1.3-3.1-7-8-7-8l-12.4,4.5c0,0,2.8,4.1,4.8,6c2,1.9,4.6,6.5,6.7,9.1c2.1,2.7,4.2,6.2,4,9.6
		C61.5,201.1,60.1,208.4,59,209.6z"/>
	<path fill="#825012" d="M26.8,94.2c0,0-4.2,8-5.1,22.5c-0.7,12.2-1,56.5-0.9,58.9c0.5,7.4,18.8,7.3,27.4,7.9s18.7-7.2,19.8-9.2
		c1.1-2-3-15.4-2-44.2c0.4-10.9-3.7-15-4.8-22.4c-1.9-12.8,1.3-26.5,1.6-30.6c0.5-6.5-3.9-9.4-5.9-10.6c-3.1-1.8-16.1-4.9-18.4-5.5
		c-2.3-0.6-6.7-0.9-7.8,3.3s0.1,7.3-1.3,8.9c-1.4,1.6-6.2,7.6-5.9,11.7C23.8,89.1,26.8,94.2,26.8,94.2z"/>
	<path fill="#FBD7C7" d="M38.8,35c-5,3.3-5.4,10.2-5.2,14.9c0.2,4.7,0.3,8.6,2.1,10.2s1.9,2.3,2.1,3.4c0.2,1.1-0.6,7.5-0.6,7.5
		s4.9-2.2,9.5-2.9c4.4-0.6,7.9-0.6,7.9-0.6s-2.4-4.4-2.2-7.6c0.2-3.1,0.9-5.5,2.5-8.7s3.9-11.9-1-15.4C48.8,32.3,42.1,32.8,38.8,35z
		"/>
	<path opacity="0.15" d="M53,87.7c0,0-6.3,7.9-14.5,6.7C29.9,93.1,36,80.7,36,80.7S28.5,94,23.8,86.7c0.8,3.8,3,7.5,3,7.5s0,0,0,0
		c1.7,1.1,3,0.8,5.3-1.9c1.7,11.7,20.6,5.7,23.4,3.1C54.8,92.9,53,87.7,53,87.7z"/>
	<path fill="#999999" d="M51.4,33.4c6.4,1,10.1,7,7.7,16.2c-2.3,8.9-6.6,9.5-6.6,9.5s-1.5-1.3-0.5-4.5c0.2-0.7,0.8-2.4-0.8-3
		c-1.8-0.7-2.7,3.1-2.7,3.1s-4.4-0.7-4.9-5.5c-0.6-5.5-1.9-7.6-5.2-7.3c-3.3,0.2-4.9,2.3-5.5,0.8C30.3,38,41.6,25.6,51.4,33.4z"/>
	<path fill="#BAA794" d="M18.4,211.9c0,0,5,2.1,7.5,0.3c2.5-1.7,4.2-4.9,4.2-4.9s0.9,1.1,1.4,3.9c0.5,2.8-1.2,8.7-1.2,8.7l-1.8,1.8
		l-2.9-1c0,0-2.5,5-5.5,6.6c-3.3,1.8-9.2,1-9.6-0.7c-0.7-3,1.9-4.2,3.5-6C16.1,218.4,18.4,211.9,18.4,211.9z"/>
	<path opacity="0.4" d="M10.3,226.2c0,0.2,0,0.4,0.1,0.5c0.4,1.7,6.3,2.5,9.6,0.7c3.1-1.7,5.5-6.6,5.5-6.6l2.9,1l1.8-1.8
		c0,0,1.2-4.4,1.3-7.4c-0.4,0.7-1,1.4-1.9,2c-3.2,1.9-3.1,3.4-4.8,6.3c-1.4,2.4-3,5.3-6.8,6.4C15.7,227.9,12.1,227.5,10.3,226.2z"/>
	<path fill="#BAA794" d="M60.6,200.8c0,0,3.6,1,5.7-0.5s3.8-6.5,3.8-6.5s2.7,0.8,2.9,4.4s-0.2,4.4-0.1,5.8c0.1,1.5,0.5,2.7,0.5,2.7
		l-1.3,1.6l-2.9-0.5c0,0-1.5,5.3-4,7.3c-3.3,2.7-8.4,2.4-10.2,0.8c-1-0.9-1-3,1.1-4.7s3.7-5.1,3.9-6.5
		C60.2,203.4,60.6,200.8,60.6,200.8z"/>
	<path opacity="0.4" d="M69.1,207.9l2.9,0.5l1.3-1.6c0,0-0.3-1.2-0.5-2.7c-0.1-1.5,0.4-2.3,0.1-5.8c0-0.1,0-0.2,0-0.3
		c-0.7,2.8-2.4,4.2-4,7.9c-1.4,3.4-1.5,7-5.9,9.6c-3.1,1.8-7,0.7-8.6-0.2c0.1,0.3,0.3,0.6,0.5,0.8c1.8,1.6,6.9,1.9,10.2-0.8
		C67.6,213.3,69.1,207.9,69.1,207.9z"/>
	<path fill="#FBD7C7" d="M51.2,87.2l10-1c0,0,1.4,12.1,1.2,15.3s-0.1,6.3-1,9c-0.9,2.7-9,18.8-10.8,22.5c-1.8,3.7-3.6,9.2-4.1,10.2
		c-0.4,1-3.1,4.6-4.2,5.2s-3.6,1.2-5.5,0.4c-1.5-0.6,1.7-9.9,2.2-11.1c0.9-2.2,2.7-3.4,3.6-4.7c0.9-1.4,4-6.9,5.2-11.5
		c1.2-4.6,2.5-10.2,4.1-12.5c1.7-2.3,2.3-4.6,1.9-6.3C53.5,101,51.2,87.2,51.2,87.2z"/>
</g>
</svg>
