<?xml version="1.0" encoding="utf-8"?>
<!-- Generator: Adobe Illustrator 18.1.0, SVG Export Plug-In . SVG Version: 6.00 Build 0)  -->
<svg version="1.1" id="Layer_1" xmlns="http://www.w3.org/2000/svg" xmlns:xlink="http://www.w3.org/1999/xlink" x="0px" y="0px"
	 viewBox="0 0 80 240" enable-background="new 0 0 80 240" xml:space="preserve">
<g>
	<path opacity="0.2" d="M12.3,213.3c-11.2,7.2-11.7,13.7,0,19.9c12.8,6.9,21.3,3.1,31.3-2.5S54.7,218,40,212.1
		C28.2,207.4,20.7,207.9,12.3,213.3z"/>
	<path fill="#FBD7C7" d="M13.3,181.1c0.5,6,1.5,16,1.2,22.4c-0.3,7-1.1,11-2,15c-0.9,4.2-6.2,7.7-2.4,8.7s8.8-0.9,10.2-5.1
		c1.4-4.2,7-9.6,7.5-11.4c0.5-1.8-3.8-4.5-3.9-7.5c-0.1-3,0.8-9.3,2.4-14.6c1.6-5.2,0.8-7.9,0.8-7.9L13.3,181.1z"/>
	<path fill="#E5E5E5" d="M13.5,210.6c0,0,5,1.4,7.7-0.4c2.6-1.8,3.5-5.1,3.5-5.1s3,2.1,3.5,5.1c0.5,3-1.3,9.3-1.3,9.3l-2,2l-3.1-1
		c0,0-1.1,5.7-4.3,7.5c-3.5,1.9-9.8,1-10.2-0.8c-0.7-3.2,2.4-4.2,3.7-6.3S13.5,210.6,13.5,210.6z"/>
	<path opacity="0.4" d="M7.3,226.5c0,0.2,0,0.4,0.1,0.6c0.4,1.8,6.7,2.7,10.2,0.8c3.3-1.8,4.3-7.5,4.3-7.5l3.1,1l2-2
		c0,0,1.3-4.6,1.4-7.9c-0.4,0.8-1.1,1.5-2.1,2.1c-3.4,2-3.9,3.3-5.1,6.7c-1.1,3-1.6,6.1-5.7,7.2C13,228.4,9.2,227.9,7.3,226.5z"/>
	<path fill="#FBD7C7" d="M27.9,183.8c0,2,1.6,16.8,1.2,22c-0.4,5.2-1.1,12.5-3.2,16.4s-7.1,6.8-4.2,8.4s10.1,1.8,12.2-2.8
		c2.1-4.6,8-12.5,6.7-14.6c-1.3-2.1-3.5-4.3-2.4-10.2c1.2-5.9,4.7-14.6,5.1-16.9C43.6,183.8,27.9,183.8,27.9,183.8z"/>
	<path fill="#E5E5E5" d="M27.5,215.7c0,0,3.8,1.4,6.2,0s4.7-6.7,4.7-6.7s2.8,1.2,2.8,5.1c-0.1,3.9-0.7,4.7-0.7,6.4
		c0,1.7,0.3,3,0.3,3l-1.6,1.6l-3.1-0.8c0,0-1.1,6.1-4,8c-3.9,2.7-10.5,1.4-12.3-0.5c-1-1.1-0.8-3.3,1.7-5s4.5-5.2,4.9-6.7
		C26.8,218.5,27.5,215.7,27.5,215.7z"/>
	<path opacity="0.4" d="M36.1,224.3l3.1,0.8l1.6-1.6c0,0-0.3-1.3-0.3-3c0-1.6,0.6-2.4,0.7-6.4c0-0.1,0-0.2,0-0.4
		c-1.1,3-3,4.4-5.1,8.2c-1.9,3.5-1.2,7.9-6.3,10.2c-3.6,1.7-8.8-0.3-10.4-1.4c0.1,0.4,0.3,0.7,0.5,0.9c1.8,1.9,8.4,3.1,12.3,0.5
		C35,230.3,36.1,224.3,36.1,224.3z"/>
	<path fill="#993399" d="M31.9,135.5c-1.8,1.8-13.1,11.8-16.1,15.5c-3,3.7-5.2,9.3-4.3,13.8c0.9,4.5,1.9,20.1,1.8,24.7
		c-0.1,4-0.6,8.5,0.4,9.1c1,0.7,9,2.2,12-0.5c1.2-1,3.3-17.3,3.7-23c0.4-5.8,1.7-10.4,5-12.7c3.3-2.4,14.2-9.8,15.1-13.6
		c0.9-3.8,0.5-10.2,0.5-10.2L31.9,135.5z"/>
	<path opacity="0.15" d="M31.9,135.5c-1.8,1.8-13.1,11.8-16.1,15.5c-3,3.7-5.2,9.3-4.3,13.8c0.9,4.5,1.9,20.1,1.8,24.7
		c-0.1,4-0.6,8.5,0.4,9.1c1,0.7,9,2.2,12-0.5c1.2-1,3.3-17.3,3.7-23c0.4-5.8,1.7-10.4,5-12.7c3.3-2.4,14.2-9.8,15.1-13.6
		c0.9-3.8,0.5-10.2,0.5-10.2L31.9,135.5z"/>
	<path fill="#993399" d="M38.9,140.4l0.1,10.2c0,0-7,5.3-10.4,9.2c-2.8,3.2-3.5,6.8-3,11.2s0.3,10.5,0.3,15.6
		c0,3.7-0.2,14.2,0.2,15.5c0.4,1.3,5.5,1.4,8.5,1c3-0.4,6.2-1.3,6.4-2c0.3-0.7,0.9-9.6,2.2-15c1.3-5.4,1.3-12.7,1.3-12.7
		s11.3-4.6,16.4-6.6c5.1-2,11-6.4,13-14.2c2-7.7-1-15.1-1-15.1L38.9,140.4z"/>
	<path fill="#BAA794" d="M26,104.5l4.5,2c0,0-2.4,3.5-2.2,8.1c0.3,4.6,3.5,5.2,3.1,11.4c-0.2,4-3,6.9-4.6,9.8
		c-1.4,2.6-3.5,6.7-4,8.6c-1,3.6,7.3,6.5,11.8,7.4c9.8,2,39,6,40.1-3.4c1.1-9.2-3.5-14.1-5.4-20.9c-1.7-6.1,0.9-24.2,0.3-28.5
		c-0.7-4.3-3-7.1-9.4-9.6C54.4,87.1,47,85.2,41.6,85s-11.7-1.5-13.4,7.1C26.7,100.2,26,104.5,26,104.5z"/>
	<path fill="#FBD7C7" d="M56.4,112.8l10,0.6c0,0-0.8,16.5-1.2,18.5c-0.4,2-2,4.5-6.3,11c-3.8,5.8-12.6,13.8-13.4,15.7
		c-0.8,2-2.1,4-4.5,4.9c-2.4,0.9-3.3,1.6-4.4,3s-2.8,3-5.8,2.2s-4.1-2.8-2.3-5.1c1.8-2.4,3.5-6,5.2-6.5s5.1-0.8,5.9-1.2
		c1.2-0.6,5.2-5.9,6.7-9.8c3.3-9.1,9.3-13.8,9.8-16.9C56.7,126.1,56.4,112.8,56.4,112.8z"/>
	<path opacity="0.15" d="M56.6,121.2L56.2,109c0,0-3.8,13.5-10.2,12.2c-6.4-1.3-5.9-13.8-5.9-13.8s-3.3,8.8-7.9,9.4
		c-1.8,0.3-2.9-0.1-3.6-0.6c0.6,2.3,2.1,3.6,2.7,6.3c3.6,1.3,7.3-4.9,7.3-4.9s0.5,8.3,7.5,8.7C52.9,126.7,56.6,121.2,56.6,121.2z"/>
	<path fill="#FBD7C7" d="M26.6,104.8l3.8,1.6c0,0-2.4,6.3-2,8.8c0.5,2.7,2.1,5.4,2.1,5.4s0.6,1.1-0.1,4.5c-0.4,1.8-1.1,6.2-3.1,11.4
		c-2.1,5.2-5.1,10-5.3,11.7c-0.1,1.7-0.4,2.1-1.6,3.5c-1.2,1.4-2.9,1.4-3.1,2.4c-0.3,0.9,0.1,3.9-0.8,5.1c-0.9,1.2-4.4,1.3-4.8,1
		c-0.4-0.3-1.9-6.7-1.1-8.1c0.8-1.4,4.5-2.5,5.1-3.9c0.7-1.4,3.3-11.3,4.1-15.3s1.4-10.4,3.5-15.4S26.6,104.8,26.6,104.8z"/>
	<path fill="#FBD7C7" d="M42.6,58.8c-5.1,3.3-5.5,10.4-5.4,15.2c0.2,4.8,0.3,8.8,2.1,10.4s2,2.3,2.2,3.5c0.2,1.1-5.5,5.5-0.6,7.7
		c4.9,2.2,6.6-0.3,10.5-2c4.2-1.8,7-3.1,7-3.1s-2.1-3-1.9-6.3c0.2-3.2,0.9-5.6,2.5-8.9c1.6-3.3,4-12.2-1.1-15.7
		C52.9,56,46.1,56.5,42.6,58.8z"/>
	<path fill="#2D3134" d="M55.5,57.1c0,0-3.3-4.1-9.8-2s-7.9,7.6-7.9,7.6l2.6-1.7l-1.6,3.4l2.4-2.1c0,0-1.1,2.5-1.1,2.4
		c0-0.2,2.5-2,2.5-2s-1.7,4.4-1.7,4.2c0.1-0.2,6.2-5.9,6.2-5.9L43.9,68l1.5-0.5l-1.4,7l1.4-2.4l0.3,5.4l1.7-6l1,4.1l1.1-3.9l1.4,6.5
		l1.3-3.3l0.8,2.9l1.7-4.3l0.4,1.7l1.5-2.6l0.2,1.6l1-0.2l-1.9,7.2l1.8-3.5L57,83.6l3-7l0.3,1.5l1.5-6.5l0.3,3.1l0.6-4.7l0.9,0.9
		l-0.7-4.2l0.9,0.5L62,63.9l1.2,0.5C63.2,64.4,61.4,56.8,55.5,57.1z"/>
</g>
</svg>
