<?xml version="1.0" encoding="utf-8"?>
<!-- Generator: Adobe Illustrator 18.1.0, SVG Export Plug-In . SVG Version: 6.00 Build 0)  -->
<svg version="1.1" id="Layer_1" xmlns="http://www.w3.org/2000/svg" xmlns:xlink="http://www.w3.org/1999/xlink" x="0px" y="0px"
	 viewBox="0 0 80 240" enable-background="new 0 0 80 240" xml:space="preserve">
<g>
	<path opacity="0.2" d="M7.8,233c-15.2-7.4,2.7-16.3,19-20.9c14.4-4.1,28.7-20.3,45.2-9.8c13.3,8.4-8.2,16.1-21.1,20.7
		C32.4,229.6,20.3,239.1,7.8,233z"/>
	<path fill="#FBD7C7" d="M14.4,128.7c0.2,6-0.2,30.6-0.9,34.1s-3.9,10.2-3.9,20.4c0,8.2,0,18.9-0.9,24.4c-0.9,5.5-2.9,8.2-1.1,9.8
		c1.8,1.6,2.8,2.9,6.4,2.7s3.9,0.2,6.4,1.4c2.5,1.2,8.7,0.5,9.1-1.7c0.4-2.2-7.2-1.2-8.8-4c-1.6-2.7-3.1-8.4-2.3-14.5
		c0.9-6.1,8.5-22.3,7.8-25.9s6.2-17.1,9.4-23.8c3.1-6.6-7-30.6-7-30.6l-10.1-4.3C18.3,116.8,14.3,122,14.4,128.7z"/>
	<g>
		<path fill="#BAA794" d="M7.4,211.9c0,0,2.9,1.3,4.8,2.2c2.6,1.1,7.3-0.8,7.3-0.8s0.9,1.4,2.2,1.8c1.3,0.3,5.8,0.2,7,0.4
			c1.5,0.2,4.8,2,2.8,4.2c-1.8,2.1-5.9,4-10.3,3.4c-2.5-0.3-7-1.8-8.2-1.4s-0.5,4.3-0.5,4.3l-2,1l-2.3-1.2c0,0,0-1.4-0.3-2.9
			c-0.4-1.5-2-2.2-2-5S7.4,211.9,7.4,211.9z"/>
		<path opacity="0.4" d="M31.6,219.6c0.6-0.7,0.7-1.3,0.5-1.9c-1.7,2.6-6.8,5.1-13.5,3.4c-4.7-1.2-7.6-1-12.5-2.8
			c0.2,2.4,1.6,3.1,2,4.6c0.4,1.5,0.3,2.9,0.3,2.9l2.3,1.2l2-1c0,0-0.7-3.9,0.5-4.3c1.2-0.4,5.7,1.1,8.2,1.4
			C25.7,223.6,29.8,221.7,31.6,219.6z"/>
	</g>
	<path fill="#FBD7C7" d="M17.7,70.8c0,0-3.6,12.5-3.6,15.2s5.2,15.4,5.6,16.2c0.4,0.9,5-4,5-4s-2.8-8.2-2.8-10.4c0-2.3,1.7-8,1.7-8
		L17.7,70.8z"/>
	<path fill="#FBD7C7" d="M30.8,110.9c0,0-4.6,7.1-2.8,13.6c1.7,6.4,3.6,8.1,3.6,8.1s0.9,8.9,2,12.1c1.1,3.2,5.7,12.1,6.3,13.8
		c2.8,7.6,1,10.8,1.4,16.9c0.4,6.2,3.5,10.7,5.6,15.5c2,4.8,2.7,6.2,1.7,8.8c-0.9,2.6-3.3,6.9,0.8,8.3c4.1,1.4,6.1-0.1,9,1.9
		s7.7,2.7,9.5,0.5c1.8-2.3-2.9-3.2-3.6-3.4c-0.7-0.2-4.2-4.3-4.9-9.3c-0.9-5.7-2-12.2-2.3-18.4c-0.3-5.4-1.3-11.6-1-13.9
		c0.3-2.3,2.1-13.3,2.1-21.7s-5.5-27.2-5.5-27.2L30.8,110.9z"/>
	<path fill="#825012" d="M33.3,58.8c-1.3-0.2-8.7-3.3-12.4-1.5c-2.6,1.3-3.8,3.5-3.8,5.5c-0.1,1.6,0.4,5.7-0.2,8.1
		c-0.3,1.3-0.9,3.9-0.9,3.9l2.4,1.6c0,0,1,8.2,0.4,14.3c-0.6,6.2-3.3,15-4.9,19.7c-2.4,7.2-2.6,21.1-1.4,29.5
		c1.2,8.5-6,36.9-4.6,39.3c1.5,2.6,24.2,6,31.9,6.1c7.5,0.1,17.1-4.1,18.3-6.3c1.4-2.4,0.3-33.4-0.3-47.8
		c-0.6-14.4-3.8-36.9-2.2-39.6s3.9-7,0.9-11.5c-2.9-4.6-5.4-6.4-5.7-7.4c-0.3-0.9-0.2-2.9-2.3-4.9C46.3,65.3,40.3,59.9,33.3,58.8z"
		/>
	<path fill="#FBD7C7" d="M32.2,33.2c6.6-1.5,13.8,0.7,15,10s-0.9,11.3-2,12c-1.1,0.7-2.3,3.2-2.8,4.7c-0.5,1.5,0.2,2.5,0.2,2.5
		s-8,4-11.9,2.7c-3.9-1.4-4.3-3.4-2.7-6.4c1.6-3-2.2-4.9-3.4-9.3S23.4,35.3,32.2,33.2z"/>
	<path opacity="0.15" d="M54.9,88.4c-3.1,1.2-7.3,0.3-7.3,0.3s-0.2,3.4-0.2,5.4c0,1.1,0.1,2.9,0.1,2.9s5.3-2.9,8.1-5.3
		c0,0,0-0.1,0.1-0.1c0.9-1.5,1.9-3.3,2.2-5.4C57.2,87,56.1,87.9,54.9,88.4z"/>
	<path fill="#FBD7C7" d="M36.7,87.2c0,0,4.2,0.5,6.7,0.4c2.8-0.1,4.7-0.6,4.7-0.6s-0.2,4.4-0.4,8.3c-0.3,5.8-1.1,9.5-0.6,12.6
		c0.7,4.7,5.2,10.9,6.4,13.3s3.7,8.1,5.1,9.7c1.3,1.6,5.1,5.3,5.2,6.7c0.1,2,0,5.2-3.2,6.6c-0.8,0.3-3.4,1.1-4.8-0.3
		c-0.6-0.6,2.3-2.8,2.3-3.2c0-0.2-1.5-1.8-1.8-3.2c-0.4-1.9-2.5-3.8-4.4-5.8c-2.7-2.8-10.8-11.2-12.3-14.9
		c-1.5-3.7-2.7-12.5-2.9-18.7C36.5,92,36.7,87.2,36.7,87.2z"/>
	<path fill="#999999" d="M34.2,32c3.9-2.2,9.9-0.1,12.4,4.6c2.8,5.3,0.1,3-0.3,5s0.7,9.6-4.2,11.3c0.6-0.9,1.2-3.2-0.5-3
		c-2.3,0.2-1.4,9.8-10.8,11.2C17.9,56.3,16.6,29.3,34.2,32z"/>
	<path fill="#BAA794" d="M48.3,200.2c0,0,3.1,1.2,5.6,2.3c1.4,0.6,4.3,0.5,5.2,0.3C60,202.4,61,202,61,202s1.3,3.4,2.2,3.7
		c0.9,0.3,4.2-0.6,5.8,1c1.7,1.8,1.3,2.7,0.4,3.8c-0.8,1-4.3,3.4-6.8,2.9c-1.9-0.3-7.6-2.7-8.8-2.4c-1.2,0.3-0.7,4.5-0.7,4.5
		l-2.2,1.1l-2-1c0,0,0-2.1-0.7-3.5c-0.6-1.4-1.8-3-1.8-5.9S48.3,200.2,48.3,200.2z"/>
	<path opacity="0.4" d="M70.2,208.4c-0.1,1.8-5.1,4.7-7.4,4c-6.7-2-12.1-3.8-16.4-6.1v0c0,2.9,1.2,4.4,1.8,5.8
		c0.6,1.4,0.7,3.5,0.7,3.5l2,1l2.2-1.1c0,0-0.5-4.2,0.7-4.5c1.2-0.3,6.9,2.1,8.8,2.4c2.5,0.5,6-1.9,6.8-2.9
		C70,209.8,70.4,209.2,70.2,208.4z"/>
</g>
</svg>
