<?xml version="1.0" encoding="utf-8"?>
<!-- Generator: Adobe Illustrator 18.1.0, SVG Export Plug-In . SVG Version: 6.00 Build 0)  -->
<svg version="1.1" id="Layer_1" xmlns="http://www.w3.org/2000/svg" xmlns:xlink="http://www.w3.org/1999/xlink" x="0px" y="0px"
	 viewBox="0 0 80 240" enable-background="new 0 0 80 240" xml:space="preserve">
<g>
	<path opacity="0.2" d="M7.5,232.9c-15.6-7.6,2.8-16.8,19.6-21.6c14.9-4.2,29.5-20.9,46.5-10.1c13.7,8.7-8.4,16.6-21.8,21.4
		C32.9,229.4,20.5,239.2,7.5,232.9z"/>
	<path fill="#FBD7C7" d="M14.4,125.5c0.2,6.2-0.2,31.5-0.9,35.1c-0.8,3.6-4,10.5-4,21c0,8.4,0,19.5-0.9,25.2
		c-0.9,5.7-3,8.4-1.2,10.1c1.9,1.7,2.9,3,6.5,2.8s4,0.2,6.5,1.5c2.5,1.3,9,0.5,9.4-1.8s-7.4-1.3-9.1-4.1s-3.2-8.7-2.3-14.9
		s8.8-23,8.1-26.7c-0.7-3.7,6.4-17.6,9.6-24.5s-7.3-31.5-7.3-31.5l-10.5-4.5C18.4,113.2,14.2,118.6,14.4,125.5z"/>
	<g>
		<path fill="#E5E5E5" d="M7.2,211.2c0,0,3,1.4,5,2.2c2.6,1.2,7.6-0.8,7.6-0.8s0.9,1.5,2.2,1.8c1.4,0.3,5.9,0.2,7.2,0.4
			c1.5,0.2,4.9,2,2.9,4.3c-1.9,2.1-6.1,4.1-10.6,3.5c-2.6-0.3-7.2-1.8-8.4-1.4s-0.5,4.4-0.5,4.4l-2,1l-2.4-1.2c0,0,0-1.4-0.3-3
			c-0.4-1.6-2.1-2.3-2.1-5.2S7.2,211.2,7.2,211.2z"/>
		<path opacity="0.4" d="M32.1,219.1c0.6-0.7,0.7-1.4,0.5-1.9c-1.8,2.7-7,5.3-14,3.5c-4.8-1.2-7.9-1-12.9-2.9
			c0.2,2.5,1.7,3.2,2.1,4.7c0.4,1.6,0.3,3,0.3,3l2.4,1.2l2-1c0,0-0.7-4,0.5-4.4c1.2-0.4,5.8,1.1,8.4,1.4
			C26,223.2,30.2,221.3,32.1,219.1z"/>
	</g>
	<path fill="#FBD7C7" d="M31.2,107.2c0,0-4.7,7.3-2.9,14c1.8,6.6,3.7,8.3,3.7,8.3s0.9,9.2,2.1,12.5c1.2,3.3,5.9,12.5,6.5,14.3
		c2.9,7.8,1,11.1,1.4,17.5c0.4,6.3,3.6,11,5.7,16c2.1,4.9,2.8,6.4,1.8,9c-1,2.6-3.4,7.1,0.8,8.6s6.3-0.1,9.3,2
		c3,2.1,7.9,2.8,9.8,0.5c1.9-2.3-3-3.3-3.7-3.5c-0.7-0.2-4.3-4.4-5.1-9.6c-0.9-5.8-2-12.6-2.4-18.9c-0.3-5.5-1.3-12-1-14.3
		c0.3-2.3,2.2-13.7,2.2-22.4s-5.6-28-5.6-28L31.2,107.2z"/>
	<path fill="#E5E5E5" d="M49.3,199.1c0,0,3.2,1.2,5.7,2.3c1.5,0.6,4.5,0.5,5.4,0.3c0.9-0.3,2-0.7,2-0.7s1.3,3.5,2.2,3.8
		s4.3-0.7,6,1.1c1.8,1.8,1.3,2.8,0.4,3.9c-0.9,1-4.4,3.5-7,3c-1.9-0.4-7.8-2.7-9.1-2.5c-1.2,0.3-0.7,4.6-0.7,4.6L52,216l-2-1
		c0,0-0.1-2.1-0.7-3.6c-0.7-1.4-1.9-3.1-1.9-6.1S49.3,199.1,49.3,199.1z"/>
	<path opacity="0.4" d="M71.8,207.6c-0.1,1.9-5.3,4.8-7.6,4.1c-6.9-2-12.5-3.9-16.8-6.3v0c0,3,1.2,4.6,1.9,6
		c0.7,1.4,0.7,3.6,0.7,3.6l2,1l2.3-1.1c0,0-0.6-4.3,0.7-4.6c1.2-0.3,7.1,2.1,9.1,2.5c2.6,0.5,6.2-2,7-3
		C71.6,209.1,72,208.4,71.8,207.6z"/>
	<path fill="#993399" d="M16.1,112.2c-1.2,2.9-3.7,9-3.1,16.6c0.6,7.6-0.2,27.9-0.6,30.9c-0.4,2.9-3.7,16.4-3.9,27
		c-0.1,7.2-0.4,10-0.4,10s2.5,1.8,6.6,1.8s6.8-0.6,6.8-0.6s6.1-18.9,6.3-22.3s0-6.6,2.1-11.5s6.4-10.5,7.8-20.3
		c1.4-9.8-1.6-28.7-1.6-28.7L16.1,112.2z"/>
	<path opacity="0.15" d="M16.1,112.2c-1.2,2.9-3.7,9-3.1,16.6c0.6,7.6-0.2,27.9-0.6,30.9c-0.4,2.9-3.7,16.4-3.9,27
		c-0.1,7.2-0.4,10-0.4,10s2.5,1.8,6.6,1.8s6.8-0.6,6.8-0.6s6.1-18.9,6.3-22.3s0-6.6,2.1-11.5s6.4-10.5,7.8-20.3
		c1.4-9.8-1.6-28.7-1.6-28.7L16.1,112.2z"/>
	<path fill="#993399" d="M54.6,114.6c0,0,5.9,18.2,5.5,28.7c-0.4,10.5-2.3,18.2-2.1,19.9c0.2,1.8,2.7,23.8,2.7,23.8
		s-3.1,1.8-6.1,2.3c-2.9,0.6-8.6,1-8.6,1s-4.3-8.6-5.5-16.4c-1.2-7.8,0.8-10.5-0.8-15.8c-1.6-5.3-10.5-21.1-11.1-29.9
		c-0.6-8.8-1.2-14.8-1.2-14.8L54.6,114.6z"/>
	<path fill="#FBD7C7" d="M17.7,65.8c0,0-3.7,12.9-3.7,15.6c0,2.7,5.4,15.8,5.8,16.7c0.4,0.9,5.2-4.1,5.2-4.1S22,85.7,22,83.3
		c0-2.3,1.8-8.2,1.8-8.2L17.7,65.8z"/>
	<path fill="#BAA794" d="M33.9,53.4c-1.3-0.2-8.9-3.4-12.7-1.5c-2.7,1.3-3.9,3.6-4,5.7c-0.1,1.7,0.4,5.9-0.2,8.3
		c-0.3,1.3-0.9,4-0.9,4l2.4,1.7c0,0,1,8.4,0.4,14.8s-3.4,15.4-5,20.3c-1.9,5.8-3.3,15.8-2.1,23.9c0.9,6.1,47.4,9.8,47.4,1.8
		c0-2.8,0-2.1-0.1-4.4c-0.6-14.8-3.9-38-2.3-40.8c1.7-2.8,4-7.2,1-11.9c-3-4.7-5.6-6.6-5.9-7.6c-0.3-1-0.2-3-2.3-5.1
		C47.2,60.2,41,54.6,33.9,53.4z"/>
	<path opacity="0.15" d="M56.1,84c-3.2,1.3-7.5,0.3-7.5,0.3s-0.2,3.5-0.2,5.6c0,1.2,0.1,3,0.1,3s5.5-3,8.4-5.5c0,0,0-0.1,0.1-0.1
		c0.9-1.5,1.9-3.4,2.3-5.6C58.4,82.5,57.4,83.5,56.1,84z"/>
	<path fill="#FBD7C7" d="M37.3,82.7c0,0,4.3,0.5,6.9,0.4c2.8-0.1,4.8-0.6,4.8-0.6s-0.2,4.5-0.4,8.5c-0.3,6-1.2,9.8-0.7,13
		c0.8,4.8,5.4,11.2,6.6,13.7c1.2,2.5,3.8,8.3,5.2,10c1.4,1.7,5.3,5.4,5.4,6.9c0.1,2.1,0,5.4-3.3,6.8c-0.8,0.4-3.5,1.1-4.9-0.3
		c-0.7-0.6,2.3-2.9,2.3-3.3c0-0.2-1.6-1.9-1.8-3.3c-0.4-1.9-2.6-3.9-4.5-6c-2.7-2.9-11.1-11.6-12.6-15.4c-1.6-3.8-2.8-12.9-3-19.3
		C37.1,87.7,37.3,82.7,37.3,82.7z"/>
	<path fill="#FBD7C7" d="M32.7,27.3c6.8-1.6,14.3,0.7,15.5,10.3c1.2,9.6-1,11.7-2.1,12.4s-2.4,3.3-2.9,4.9s0.2,2.6,0.2,2.6
		s-7.7,4.5-12.3,2.7c-4-1.5-4.4-3.5-2.8-6.6c1.6-3.1-2.3-5-3.5-9.6C23.5,39.4,23.6,29.3,32.7,27.3z"/>
	<path fill="#2D3134" d="M41.5,25.3c3.5,1.1,6.3,6,6.3,6l-2.6-1.5l2.5,3.7l-2.3-1.6l2.2,5l-1.3-0.7c0,0,0.8,1.8,0.3,4.6
		c-0.3,1.9-1.3,3.4-1.3,3.4v-3.4c0,0-0.3,4.3-2.5,7.3c0,0,1-4.4,0.6-5.2c-0.4-0.7-0.9,1.6-0.9,1.6l-0.7-2l-0.4,2.1l-1.7-0.9
		c0,0,0.6,2.2-1.1,5.6c-1,2-3.9,4.8-3.9,4.8l0.9-4.3L31.8,56l-0.9-3.4l-0.6,2.4l-0.6-1.7l-0.8,1.9c0,0-0.9-3.6-1.3-4.4
		c-0.3-0.7-0.8,0.7-0.8,0.7L25,47l-0.7,1.3l-0.8-5.4l-0.6,1.1l-0.6-5.5l-1.1,1.2c0,0,0.2-5.4,1.9-7.7c1.2-1.7,2.4-1.9,2.4-1.9
		l-1.7-0.1c0,0,2.6-3.8,7-4.4c3.6-0.5,4,0.3,4,0.3S37.3,24,41.5,25.3z"/>
</g>
</svg>
