<?xml version="1.0" encoding="utf-8"?>
<!-- Generator: Adobe Illustrator 18.1.0, SVG Export Plug-In . SVG Version: 6.00 Build 0)  -->
<svg version="1.1" id="Layer_1" xmlns="http://www.w3.org/2000/svg" xmlns:xlink="http://www.w3.org/1999/xlink" x="0px" y="0px"
	 viewBox="0 0 80 240" enable-background="new 0 0 80 240" xml:space="preserve">
<g>
	<path fill="#FBD7C7" d="M20.1,64.2c0,0-3.7,14-3.7,16.8c0,2.8,2.2,10.2,4.8,14.4c2.6,4.1,5.4,10.5,5.4,10.5l2.1-4
		c0,0-2.2-10.5-3.5-14.1c-1.3-3.6-1.9-4.2-0.9-7.4c1.1-3.3,3-8.6,3-8.6L20.1,64.2z"/>
	<path opacity="0.2" d="M23.7,209.1c-9.3,5.7-10,12.5,2.1,18.9c13.2,7.1,20.9,5.5,31.1-0.4c9-5.2,6.9-12.2-8.2-18.3
		C36.5,204.4,30.3,205,23.7,209.1z"/>
	<g>
		<path fill="#FBD7C7" d="M25.4,98c-2.4,3.2-11.5,14.3-8.9,30s7.1,24.2,6.3,27.9c-0.8,3.7-3.7,10.8-3,18.7c0.8,9.7,3.7,19.7,3.8,23
			c0.2,3.3,1.3,6.3,0.4,8.8c-0.9,2.5-3.1,4.4-0.9,6.1c1.8,1.4,1-0.6,10.2,2.7c12.3,4.5,9.7-1.8,3.6-2.9c-2.2-0.4-4.1-4.8-4.8-7.7
			c-0.3-1.2-1.2-15.8-0.4-22.6c0.8-6.7,0.9-17.1,0.8-20.1s2.4-14.4,3.4-20c1.4-8.5,4-38.5,4-38.5L25.4,98z"/>
		<path fill="#CC291F" d="M23.6,207.3c0,0-2.3,2.6-2.2,4.9s1.9,5.7,1.9,7c0,1.3,0,3.2,0,3.2l1.7,1l1.6-0.8c0,0-0.7-5.3,0.5-6.1
			c1.2-0.8,4.8,1.9,7.2,2.5c2.4,0.6,8.3-0.1,10.4-1s0.4-3.6-1.5-4.7c-2.6-1.4-6.7-1.2-6.7-1.2s1.3,0.4,2.8,1.9
			c2.7,2.7-4.8,3.3-11.7-2.6C25,209,23.6,207.3,23.6,207.3z"/>
	</g>
	<g>
		<path fill="#FBD7C7" d="M33.9,102.3c0,0-5.4,12.9-5.4,19.1s4.1,8.5,4.9,10.5c0.8,2,1.1,8.5,3,16.2c1.9,7.7,4.2,12.5,2,18.1
			c-3.6,8.8-2.9,16.4-1.8,27.2c1.1,10.7,0.2,16.8-0.1,18.5c-0.4,2-3.5,3-1.9,5.4c2.2,3.2,8.4,3.6,11.1,4.9c3.2,1.5,7.2,2,8.2,0.4
			s0.2-3.9-3.4-3.8c-3.1,0.1-5.3-5-6.2-7.3c-0.9-2.2,1-9.6,2.6-21.2c1.5-11.6,2.2-24.2,2.9-29c0.8-4.8,3.2-9,3.8-30.5
			S52,103.2,52,103.2L33.9,102.3z"/>
		<path fill="#CC291F" d="M35.6,213.1c0,0-2.4,2-2.4,4.5c0,2.6,2.1,5.4,2.4,7.4s0.2,3.5,0.2,3.5l1.9,0.9l1.9-0.8
			c0,0-1.6-5.7,0.1-6.1s6.8,3.6,9.9,3.6c3.1,0,7.3-3.9,7.3-5.4s-3.4-3.1-5.4-2.9c-2,0.1-2.9,0.6-2.9,0.6s3.1,1.3,3.5,2.4
			c0.4,1-0.6,1.7-1.9,2c-2.6,0.5-5.1-1.8-9.3-5.2C37.3,214.7,35.6,213.1,35.6,213.1z"/>
	</g>
	<path fill="#28896D" d="M52.5,104.3c0.2,5.9,6,36.3,8.1,46.6c0.4,2.2-3.6,4.2-11.9,6.5s-13.2,2.1-18.6-3.5
		c-5.4-5.6-13.7-3.7-16.4-5.2s1.4-14.8,1.7-25.7c0.3-10.9,6.3-19.8,6.3-19.8L52.5,104.3z"/>
	<path fill="#E5E5E5" d="M26.7,56.9c-2.5,1.1-7.9,5.6-6.9,9.3c1,3.7,4.7,16.1,5.5,19.7c0.8,3.5,1.2,8.7-0.2,10.6
		c-1.4,1.9-4.3,7.3-4.3,7.3s9.9,2.7,18.3,2.7s14.2-1.5,14.2-1.5s-1.2-20.7-0.7-21.8c0.5-1.1,5-3,4.6-7.5c-0.3-2.9-1.9-4.3-3.7-6.1
		c-1.3-1.4-3-3.6-4.4-4.9c-1.7-1.6-6-3.6-10.1-6.3C34.8,55.8,26.7,56.9,26.7,56.9z"/>
	<path fill="#FBD7C7" d="M50.7,66.3c0,0,1.5,1.2,0.6,7.6c-1,6.4-1,19.7,0.9,26c1.8,6.3,5.3,20.2,6.3,22.8c1.1,2.6,2.3,3.2,3,4.2
		c0.5,0.7,1.4,4.8,0.9,6.3s-2.8,5.1-4.8,5.7c-2,0.6-4.3,0.6-4.6-0.3c-0.3-0.9,1.7-1.2,2-2.6s0.5-6.1,0.5-7.3c0-1.2-1.2-4.6-5-10.8
		c-3.8-6.2-7.1-11.4-8.2-18.3s-3.2-26.7-2.7-30.4C40.2,63.9,46.9,61.3,50.7,66.3z"/>
	<path fill="#FBD7C7" d="M40.8,27.2c3.4,1.2,4.6,4.1,5.2,10.1s-0.2,9.8-0.6,10.9s-4.2,2.3-5.1,3.8c-0.9,1.5-1.6,4.7-1.1,5.4
		c1,1.3,1.7,1.2,1.7,1.2s-8.3,2-11.3,0.7c-3-1.3-2.9-3-2.3-3.7c0.6-0.7,1.7-3.5,1.1-5c-0.6-1.5-7.5-7.7-5.3-15
		C25.7,26.9,33.9,24.8,40.8,27.2z"/>
	<path fill="#762C07" d="M32.2,25.1c-8.2,1.6-11.5,8.5-10,16.1c1.2,6.1,1.3,7.6,0.3,10c-3.4,8-5.7,14.8-2.2,18.9
		c5.4,6.4,17.6,3.3,22.3-3.6c3.1-4.5,5.6-10.9,3.8-15.9c-2.7-7.5-0.6-9.5,0.1-14.8C47.3,30.4,40.5,23.5,32.2,25.1z"/>
</g>
</svg>
