<?xml version="1.0" encoding="utf-8"?>
<!-- Generator: Adobe Illustrator 18.1.0, SVG Export Plug-In . SVG Version: 6.00 Build 0)  -->
<svg version="1.1" id="Layer_1" xmlns="http://www.w3.org/2000/svg" xmlns:xlink="http://www.w3.org/1999/xlink" x="0px" y="0px"
	 viewBox="0 0 80 240" enable-background="new 0 0 80 240" xml:space="preserve">
<g>
	<path fill="#FBD7C7" d="M24.8,82.2c0,0-3.2,10.8-5.9,19.1s-4.4,13.8-5.3,15.9s-1.3,5.7-0.8,7.3c0.5,1.6,2.3,5,3,5.7
		c1.7,1.6,4.4,1.2,4.8,0.8c0.4-0.5,0.4-2.2-0.3-2.9c-0.7-0.7-2.6-3-1.4-6s1-4.2,1-6c0-1.5-0.5-1.7,0.7-4.1
		c1.2-2.5,6.9-14.5,7.5-16.2C28.6,94.1,24.8,82.2,24.8,82.2z"/>
	<path fill="#CC291F" d="M23,91.4c-1.5-8.3-1-3.9-2.1-7.8c0-0.1-0.8-0.3-0.7,0c0.6,3.4,0.3,8-1.5,12.7c-2.1,5.7-6,16-5.5,16.4
		c1.4,1.6,8.4,2,8.4,2l0.8-2.5l1.4-8.4C23.8,103.6,24.5,99.7,23,91.4z"/>
	<path opacity="0.15" d="M23,91.4c-1.5-8.3-1-3.9-2.1-7.8c0-0.1-0.8-0.3-0.7,0c0.6,3.4,0.3,8-1.5,12.7c-2.1,5.7-6,16-5.5,16.4
		c1.4,1.6,8.4,2,8.4,2l0.8-2.5l1.4-8.4C23.8,103.6,24.5,99.7,23,91.4z"/>
	<path opacity="0.2" d="M20.7,206.2c-11.8,7.6-12.4,14.4,0,21c13.5,7.2,22.4,3.3,32.9-2.7s11.8-13.4-3.6-19.6
		C37.5,200,29.6,200.5,20.7,206.2z"/>
	<path fill="#FBD7C7" d="M38.7,54.7c0,0-9.1-4-12.3,0.3s-1.7,11-1.7,11s-5.4,6.1-5.4,9.4c0,3.3,5.1,6.5,5.1,6.5s-0.1,17.5-1,24
		c-0.9,6.5-3,21.6-2.4,32.2s1.6,25,1.9,29.2c0.3,4.1,2.2,10,3,14.8c0.9,4.8,4.1,13.2,0.9,19.6s-6.1,9.3-7.4,10.5
		c-1.3,1.2,0.2,5.2,3,4.5c2.8-0.7,7.2-7.1,9.9-8.1s7.2-4,6-7.7c-1.2-3.6-1.7-2.2-2-5.3c-0.3-3.1,2.2-16.7,1.3-22.8
		c-0.9-6.1-3.2-7.8-3.6-8.8c-0.4-1.1,5.7-29.5,5.7-29.5s1.2,27.3,1.1,30.2c-0.1,2.9,2.1,17.7,2.7,24.6c0.7,7,1,18.8-2,22.9
		c-2.9,4.1-8,10.3-6,11.7c2,1.4,8.3,2.7,9.8-0.9c1.5-3.6,5.3-11.1,6.7-13.1s1.9-3.1,1-5s-1.5-5-0.5-10.3s4.1-14.7,3.3-19.7
		c-0.8-5-3.2-8.1-2.9-11.7c0.3-3.5,8.1-24.8,6.6-39.7s-9-17.5-10.3-23.5c-1.3-6,3-13.9,5.2-18.2c2.2-4.2,5.3-11.6,2.6-14.2
		c-2.7-2.7-5.9-4.4-7.1-6.4c-1.2-2-2.5-8.2-2.5-8.2L38.7,54.7z"/>
	<path fill="#656565" d="M21.3,210.3c0,0-4.9,1.7-5.9,3.9c-0.8,1.8-0.5,3.9,1.2,5s5.2,1.3,8.2-0.4c2.9-1.7,6.8-8.4,7.5-8.7
		c0.7-0.3,0.2,3.7,0.2,3.7l2.1,1.1l2.3-0.9c0,0-0.2-4.5,0.7-6c0.9-1.6,2.6-3.9,2-6.9c-0.7-3-2.6-3.3-2.6-3.3s0,3.5-4,7.3
		c-3.8,3.6-5.9,9.6-9.2,9.3C19.3,213.7,21.3,210.3,21.3,210.3z"/>
	<path fill="#656565" d="M38.2,217.1c0,0-4.6,3.5-4.9,5.7c-0.3,2.2-0.2,3.7,2.9,4.7s7.1-0.2,9-1.8c1.8-1.6,4.4-5.8,4.4-5.8l2,1.1
		l2.3-1.1c0,0-0.3-2.7,0.4-5.1c0.7-2.4,1.4-4.4,1.4-7.4s-2.8-3.3-2.8-3.3s1.7,1.6-0.8,5.1s-4.4,11.3-8.1,11.5
		C37,221.2,38.2,217.1,38.2,217.1z"/>
	<path fill="#262626" d="M22.3,109.9c0,0-2.4,13.8-2.4,23.7s1.9,34.9,1.9,34.9s13.3,3.6,21.5,2.8c9.8-0.9,13.2-2.2,13.2-2.2
		s4.3-23.1,4.7-32.3c0.6-13.3-2.9-26.8-5.7-30.3C52.7,103,22.3,109.9,22.3,109.9z"/>
	<path fill="#FBD7C7" d="M45.2,76.5c0,0,7,8.7,10.5,13.2c3.5,4.5,7.1,9.3,7.1,9.3s-5.9,3.2-9.7,7.4s-6.7,7.6-7.7,7.8
		c-1,0.2-5.3-0.1-8.8,1.8c-3,1.6-4.1,2.9-4.4,5c-0.3,2.1,0.4,3.8,1.7,4.8c1.3,1,3.1,0.6,3.7,0.3c1.5-0.8,1.8-2.5,3.2-3.3
		c1.8-1,4.5-1.1,6.3-2.3c1.7-1.3,20.7-13.4,23-16c2.3-2.6,3.4-5.6,0.7-9.4c-2.7-3.9-11.1-17.6-13.3-22s-4.9-8.8-9.5-8.8
		S40,71.3,45.2,76.5z"/>
	<path fill="#CC291F" d="M73,98.8c-1.5-3.6-8.4-18.7-10-22.1s-3.4-8.4-6.3-11.2c-2.8-2.7-6.5-5.4-7.8-6.5s-13.4-5.3-13.4-5.3
		c-3.9-1-8.6-2-11,2.5s-1,8.3-1,8.3s-5.4,5.9-5.5,9.9c-0.1,3.7,2.5,7.9,3.9,18.2c1.2,8.3,0.2,18.1,0.2,18.1l0.1,0
		c0.5,0.1,6.7,1.9,12.2,1.8c7.2-0.2,10.1-2.3,10.1-2.3s-1.4,3.8,0.9,7.7c2.3,3.8,5.2,3.8,6,3.3c0.8-0.5,14.5-10.2,17.7-13
		S74.5,102.5,73,98.8z M56.8,101.7c-2.6,1.6-4.9,3-4.9,3s-1.6-5.5-1.8-9.4c-0.2-3.9,2.6-8.9,2.6-8.9s3,3.8,4.1,5.4
		c1.7,2.4,4.3,7.3,4.3,7.3S58.8,100.4,56.8,101.7z"/>
	<path fill="#FBD7C7" d="M33.9,53.9c0,0-7.1,11.2-2.1,13.7c5,2.6,15.6-5.9,15.6-5.9L39.6,53L33.9,53.9z"/>
	<path fill="#FFFFFF" d="M31.1,58.3c0,0-1,6.5,2.1,7.9c3,1.4,9.2-0.4,9.2-0.4L22.9,79c0,0,0.1-9.1,1.9-12.3
		C26.6,63.6,31.1,58.3,31.1,58.3z"/>
	<path fill="#262626" d="M36.3,53.6c0,0-8.2,8.6-10.1,13.7s-2,10.8-1,21.1c0.9,8.6,1,23.3,1,23.3l-1.4-0.2c0,0,0.4-20.3-3-33.6
		c-1.5-6.1-0.7-12.7-0.7-12.7l4.3-4.2l4.2-8.4L36.3,53.6z"/>
	<path fill="#FBD7C7" d="M36.1,54.9c0,0-4.3,0.7-4.9-0.9c-0.7-1.7-4.4-15.5,2.4-24.1s20.5-3.1,20.5,6c0,8.1-3.2,10.5-4.7,14.5
		c-0.9,2.5-1.6,5.8-0.1,8.4c1.5,2.7,2.7,4,2.7,4s-7.6,4.6-13.3,3.2c-5.7-1.4-0.2-4.2-1-6.6S36.1,54.9,36.1,54.9z"/>
	<path fill="#825012" d="M31.4,36.2c0,0-0.6,6.7,3.7,10.7c0.2-3.2,0.9-4.6,0.9-4.6s1.7,5.8,4.2,5.8c-1-2.9-0.7-4.7-0.7-4.7
		s1,1.7,2.1,1.5c-0.2-1.8,0.5-2.8,0.5-2.8s1,4.8,1,10.9c4.8-2.2,6.9-9.4,6.9-9.4S50,49,48.1,53.9c2.7,0.3,11-6.8,10.4-17.9
		c-0.5-8.6-9-11.7-9-11.7l2.3-0.3c0,0-7.6-4-15.4-0.1c-8.9,4.5-8,17-7.5,17.2C30,37,31.4,36.2,31.4,36.2z"/>
	<path fill="#262626" d="M49.9,59.9c0,0-10.3,6.3-14.8,9.4s-12.5,10-12.5,10l18.8-7.9l2.9-5l4-0.6l6.1-3.1L49.9,59.9z"/>
	<path fill="none" d="M52.7,86.3c0,0-2.7,5-2.6,8.9c0.2,3.9,1.8,9.4,1.8,9.4s2.3-1.3,4.9-3c2-1.3,4.3-2.7,4.3-2.7s-2.6-4.9-4.3-7.3
		C55.6,90,52.7,86.3,52.7,86.3z"/>
</g>
</svg>
