<?xml version="1.0" encoding="utf-8"?>
<!-- Generator: Adobe Illustrator 18.1.0, SVG Export Plug-In . SVG Version: 6.00 Build 0)  -->
<svg version="1.1" id="Layer_1" xmlns="http://www.w3.org/2000/svg" xmlns:xlink="http://www.w3.org/1999/xlink" x="0px" y="0px"
	 viewBox="0 0 80 240" enable-background="new 0 0 80 240" xml:space="preserve">
<g>
	<path opacity="0.2" d="M12.6,213.3c-11.2,7.2-11.7,13.7,0,19.9c12.8,6.9,21.3,3.1,31.3-2.5s11.2-12.7-3.5-18.6
		C28.5,207.4,21,207.9,12.6,213.3z"/>
	<path fill="#FBD7C7" d="M13.7,181.1c0.5,6,1.5,16,1.2,22.4c-0.3,7-1.1,11-2,15c-0.9,4.2-6.2,7.7-2.4,8.7s8.8-0.9,10.2-5.1
		c1.4-4.2,7-9.6,7.5-11.4c0.5-1.8-3.8-4.5-3.9-7.5c-0.1-3,0.8-9.3,2.4-14.6c1.6-5.2,0.8-7.9,0.8-7.9L13.7,181.1z"/>
	<path fill="#BAA794" d="M13.9,210.6c0,0,5,1.4,7.7-0.4c2.6-1.8,3.5-5.1,3.5-5.1s3,2.1,3.5,5.1c0.5,3-1.3,9.3-1.3,9.3l-2,2l-3.1-1
		c0,0-1.1,5.7-4.3,7.5c-3.5,1.9-9.8,1-10.2-0.8c-0.7-3.2,2.4-4.2,3.7-6.3S13.9,210.6,13.9,210.6z"/>
	<path opacity="0.4" d="M7.7,226.5c0,0.2,0,0.4,0.1,0.6c0.4,1.8,6.7,2.7,10.2,0.8c3.3-1.8,4.3-7.5,4.3-7.5l3.1,1l2-2
		c0,0,1.3-4.6,1.4-7.9c-0.4,0.8-1.1,1.5-2.1,2.1c-3.4,2-3.9,3.3-5.1,6.7c-1.1,3-1.6,6.1-5.7,7.2C13.3,228.4,9.5,227.9,7.7,226.5z"/>
	<path fill="#FBD7C7" d="M28.2,183.8c0,2,1.6,16.8,1.2,22s-1.1,12.5-3.2,16.4s-7.1,6.8-4.2,8.4c2.9,1.6,10.1,1.8,12.2-2.8
		c2.1-4.6,8-12.5,6.7-14.6c-1.3-2.1-3.5-4.3-2.4-10.2c1.2-5.9,4.7-14.6,5.1-16.9C44,183.8,28.2,183.8,28.2,183.8z"/>
	<path fill="#825012" d="M26.3,104.5l4.5,2c0,0-2.4,3.5-2.2,8.1c0.3,4.6,3.5,5.2,3.1,11.4c-0.4,6.2-2.6,8.8-4.7,11.9
		c-1.9,2.8-14,13.3-15,18.4c-1.4,7.1-0.5,32.3,0,33.2s10.6,5.1,20.1,6.6c9.6,1.4,14.8-3.7,14.8-3.7s1.7-13.9,2-16.5
		c0.4-2.6,0.3-4.5,5.1-5.9c4.9-1.4,18.4-6,20.3-17.7c2-11.7-1.5-19.7-4.1-25.5s0.2-23.5-0.5-27.8c-0.7-4.3-3-7.1-9.4-9.6
		C54.8,87.1,47.4,85.2,42,85s-11.7-1.5-13.4,7.1C27,100.2,26.3,104.5,26.3,104.5z"/>
	<path fill="#FBD7C7" d="M56.8,112.8l10,0.6c0,0-0.8,16.5-1.2,18.5c-0.4,2-2,4.5-6.3,11c-3.8,5.8-12.6,13.8-13.4,15.7
		c-0.8,2-2.1,4-4.5,4.9c-2.4,0.9-3.3,1.6-4.4,3c-1,1.3-2.8,3-5.8,2.2c-3-0.8-4.1-2.8-2.3-5.1c1.8-2.4,3.5-6,5.2-6.5
		c1.7-0.5,5.1-0.8,5.9-1.2c1.2-0.6,5.2-5.9,6.7-9.8c3.3-9.1,9.3-13.8,9.8-16.9C57.1,126.1,56.8,112.8,56.8,112.8z"/>
	<path opacity="0.15" d="M57,121.2L56.6,109c0,0-3.8,13.5-10.2,12.2c-6.4-1.3-5.9-13.8-5.9-13.8s-3.3,8.8-7.9,9.4
		c-1.8,0.3-2.9-0.1-3.6-0.6c0.6,2.3,2.1,3.6,2.7,6.3c3.6,1.3,7.3-4.9,7.3-4.9s0.5,8.3,7.5,8.7C53.3,126.7,57,121.2,57,121.2z"/>
	<path fill="#BAA794" d="M27.9,215.7c0,0,3.8,1.4,6.2,0c2.4-1.4,4.7-6.7,4.7-6.7s2.8,1.2,2.8,5.1c-0.1,3.9-0.7,4.7-0.7,6.4
		c0,1.7,0.3,3,0.3,3l-1.6,1.6l-3.1-0.8c0,0-1.1,6.1-4,8c-3.9,2.7-10.5,1.4-12.3-0.5c-1-1.1-0.8-3.3,1.7-5s4.5-5.2,4.9-6.7
		C27.2,218.5,27.9,215.7,27.9,215.7z"/>
	<path opacity="0.4" d="M36.5,224.3l3.1,0.8l1.6-1.6c0,0-0.3-1.3-0.3-3c0-1.6,0.6-2.4,0.7-6.4c0-0.1,0-0.2,0-0.4
		c-1.1,3-3,4.4-5.1,8.2c-1.9,3.5-1.2,7.9-6.3,10.2c-3.6,1.7-8.8-0.3-10.4-1.4c0.1,0.4,0.3,0.7,0.5,0.9c1.8,1.9,8.4,3.1,12.3,0.5
		C35.4,230.3,36.5,224.3,36.5,224.3z"/>
	<path fill="#FBD7C7" d="M51.8,59.4c-6.7-1.8-13,1.8-14.2,10.2s0.1,16,2.4,17.7c2.2,1.7,2.9,3.7,2.8,5.5c-0.1,1.8-0.8,4.3-0.8,4.3
		s9.1-4.2,12.2-5.1c3.1-0.9,5-1.8,5-1.8s-3.7-4-3.4-8.1C56,80.1,65.4,63.1,51.8,59.4z"/>
	<path fill="#999999" d="M37.3,68.1c0.9,1.3,9.4-0.8,10.2,2c2.2,7.2,6.8,7.3,6.8,7.3s1-3.1,2.3-2.6c1.3,0.5,0.7,2.2,0.2,3.7
		c-0.6,1.6-1.3,2.8,0.2,3c3,0.5,8-11,5.5-17.5c-2.5-6.6-8.3-6.1-8.3-6.1s-6.1-4.9-12.3-0.1C35.9,62.2,36.5,66.9,37.3,68.1z"/>
	<path fill="#FBD7C7" d="M26.9,104.8l3.8,1.6c0,0-2.4,6.3-2,8.8c0.5,2.7,2.1,5.4,2.1,5.4s0.6,1.1-0.1,4.5c-0.4,1.8-1.1,6.2-3.1,11.4
		c-2.1,5.2-5.1,10-5.3,11.7c-0.1,1.7-0.4,2.1-1.6,3.5c-1.2,1.4-2.9,1.4-3.1,2.4c-0.3,0.9,0.1,3.9-0.8,5.1c-0.9,1.2-4.4,1.3-4.8,1
		c-0.4-0.3-1.9-6.7-1.1-8.1c0.8-1.4,4.5-2.5,5.1-3.9c0.7-1.4,3.3-11.3,4.1-15.3s1.4-10.4,3.5-15.4C25.8,112.6,26.9,104.8,26.9,104.8
		z"/>
</g>
</svg>
